<?xml version="1.0" encoding="iso-8859-1"?>
<!-- Generator: Adobe Illustrator 19.0.0, SVG Export Plug-In . SVG Version: 6.00 Build 0)  -->
<svg version="1.1" id="Capa_1" xmlns="http://www.w3.org/2000/svg" xmlns:xlink="http://www.w3.org/1999/xlink" x="0px" y="0px"
	 viewBox="0 0 512 512" style="enable-background:new 0 0 512 512;" xml:space="preserve">
<path style="fill:#F4B641;" d="M124.077,362.988H21.024c-3.067,0-5.709,2.165-6.31,5.173L0.127,441.095
	c-0.797,3.982,2.249,7.698,6.31,7.698h134.798L124.077,362.988z"/>
<g>
	<path style="fill:#FB8436;" d="M10.599,388.73h118.625l-5.148-25.743H21.023c-3.067,0-5.709,2.165-6.31,5.173L10.599,388.73z"/>
	<polygon style="fill:#FB8436;" points="135.872,448.793 238.84,448.793 221.681,362.988 118.713,362.988 	"/>
</g>
<polygon style="fill:#F27029;" points="221.681,362.988 118.713,362.988 123.861,388.728 226.828,388.728 "/>
<g>
	<path style="fill:#C1C1C1;" d="M255.999,130.778c-4.443,0-8.045-3.602-8.045-8.045V71.251c0-4.443,3.602-8.045,8.045-8.045
		c4.443,0,8.045,3.602,8.045,8.045v51.482C264.044,127.177,260.443,130.778,255.999,130.778z"/>
	<path style="fill:#C1C1C1;" d="M110.385,191.095c-2.058,0-4.118-0.785-5.688-2.357l-36.403-36.403
		c-3.142-3.141-3.142-8.235,0-11.376c3.141-3.142,8.235-3.142,11.376,0l36.403,36.403c3.142,3.141,3.142,8.235,0,11.376
		C114.502,190.309,112.443,191.095,110.385,191.095z"/>
	<path style="fill:#C1C1C1;" d="M401.615,191.095c-2.059,0-4.118-0.785-5.689-2.357c-3.141-3.141-3.141-8.235,0-11.376
		l36.404-36.403c3.142-3.142,8.235-3.142,11.377,0c3.141,3.141,3.141,8.235,0,11.376l-36.404,36.403
		C405.733,190.309,403.673,191.095,401.615,191.095z"/>
</g>
<path style="fill:#F4B641;" d="M261.363,191.377H158.31c-3.067,0-5.709,2.165-6.31,5.173l-16.125,80.632h142.648L261.363,191.377z"
	/>
<path style="fill:#FB8436;" d="M273.158,277.182h102.967l-16.124-80.632c-0.602-3.008-3.242-5.173-6.31-5.173h-97.691
	L273.158,277.182z"/>
<g>
	<path style="fill:#F27029;" d="M294.174,250.906c-3.756,0-7.115-2.645-7.88-6.468l-3.432-17.16
		c-0.871-4.357,1.955-8.595,6.311-9.466c4.358-0.869,8.596,1.955,9.466,6.31l3.432,17.16c0.871,4.357-1.955,8.595-6.31,9.466
		C295.228,250.856,294.697,250.906,294.174,250.906z"/>
	<path style="fill:#F27029;" d="M341.366,250.906c-3.756,0-7.115-2.645-7.88-6.468l-3.432-17.16
		c-0.871-4.357,1.955-8.595,6.31-9.466c4.356-0.869,8.595,1.955,9.466,6.31l3.432,17.16c0.871,4.357-1.955,8.595-6.31,9.466
		C342.42,250.856,341.889,250.906,341.366,250.906z"/>
</g>
<path style="fill:#F4B641;" d="M192.717,277.183H89.665c-3.067,0-5.709,2.165-6.31,5.173l-16.125,80.632h142.647L192.717,277.183z"
	/>
<g>
	<path style="fill:#FB8436;" d="M79.24,302.926h118.625l-5.148-25.743H89.664c-3.067,0-5.709,2.165-6.31,5.173L79.24,302.926z"/>
	<polygon style="fill:#FB8436;" points="204.514,362.988 307.481,362.988 290.322,277.183 187.355,277.183 	"/>
</g>
<polygon style="fill:#F27029;" points="290.322,277.183 187.355,277.183 192.503,302.924 295.47,302.924 "/>
<polygon style="fill:#F4B641;" points="330.006,277.183 221.677,277.183 204.517,362.988 347.165,362.988 "/>
<g>
	<polygon style="fill:#FB8436;" points="216.528,302.926 335.153,302.926 330.005,277.182 221.676,277.182 	"/>
	<path style="fill:#FB8436;" d="M341.801,362.988h102.967l-16.124-80.632c-0.602-3.008-3.242-5.173-6.311-5.173h-97.691
		L341.801,362.988z"/>
</g>
<g>
	<path style="fill:#F27029;" d="M362.817,336.712c-3.756,0-7.115-2.645-7.88-6.468l-3.432-17.16
		c-0.871-4.357,1.955-8.595,6.311-9.466c4.358-0.869,8.595,1.955,9.466,6.31l3.432,17.16c0.871,4.357-1.955,8.595-6.31,9.466
		C363.87,336.662,363.34,336.712,362.817,336.712z"/>
	<path style="fill:#F27029;" d="M410.009,336.712c-3.756,0-7.115-2.645-7.88-6.468l-3.432-17.16
		c-0.871-4.357,1.955-8.595,6.31-9.466c4.356-0.869,8.595,1.955,9.466,6.31l3.432,17.16c0.871,4.357-1.955,8.595-6.31,9.466
		C411.063,336.662,410.532,336.712,410.009,336.712z"/>
	<path style="fill:#F27029;" d="M422.335,277.183h-97.691l5.147,25.74h102.967l-4.113-20.567
		C428.044,279.348,425.403,277.183,422.335,277.183z"/>
</g>
<polygon style="fill:#F4B641;" points="261.361,362.988 153.032,362.988 135.872,448.793 278.52,448.793 "/>
<g>
	<polygon style="fill:#FB8436;" points="147.884,388.73 266.509,388.73 261.361,362.987 153.032,362.987 	"/>
	<polygon style="fill:#FB8436;" points="273.157,448.793 376.124,448.793 358.965,362.988 255.998,362.988 	"/>
</g>
<polygon style="fill:#F27029;" points="358.965,362.988 255.998,362.988 261.146,388.728 364.114,388.728 "/>
<polygon style="fill:#F4B641;" points="398.648,362.988 290.321,362.988 273.16,448.793 415.808,448.793 "/>
<g>
	<polygon style="fill:#FB8436;" points="285.171,388.73 403.797,388.73 398.648,362.987 290.32,362.987 	"/>
	<path style="fill:#FB8436;" d="M410.445,448.793h95.117c4.061,0,7.107-3.716,6.311-7.698l-14.585-72.934
		c-0.602-3.008-3.242-5.173-6.311-5.173h-97.691L410.445,448.793z"/>
</g>
<g>
	<path style="fill:#F27029;" d="M431.46,422.517c-3.756,0-7.115-2.645-7.88-6.468l-3.432-17.16c-0.871-4.357,1.955-8.595,6.31-9.466
		c4.358-0.869,8.595,1.955,9.466,6.31l3.432,17.16c0.871,4.357-1.955,8.595-6.311,9.466
		C432.514,422.466,431.982,422.517,431.46,422.517z"/>
	<path style="fill:#F27029;" d="M478.652,422.517c-3.756,0-7.115-2.645-7.88-6.468l-3.432-17.16
		c-0.871-4.357,1.955-8.595,6.311-9.466c4.356-0.869,8.595,1.955,9.466,6.31l3.432,17.16c0.871,4.357-1.955,8.595-6.31,9.466
		C479.707,422.466,479.175,422.517,478.652,422.517z"/>
	<path style="fill:#F27029;" d="M490.979,362.988h-97.691l5.147,25.74h102.967l-4.113-20.567
		C496.688,365.153,494.046,362.988,490.979,362.988z"/>
</g>
<g>
</g>
<g>
</g>
<g>
</g>
<g>
</g>
<g>
</g>
<g>
</g>
<g>
</g>
<g>
</g>
<g>
</g>
<g>
</g>
<g>
</g>
<g>
</g>
<g>
</g>
<g>
</g>
<g>
</g>
</svg>
