<?xml version="1.0" encoding="iso-8859-1"?>
<!-- Generator: Adobe Illustrator 19.0.0, SVG Export Plug-In . SVG Version: 6.00 Build 0)  -->
<svg version="1.1" id="Capa_1" xmlns="http://www.w3.org/2000/svg" xmlns:xlink="http://www.w3.org/1999/xlink" x="0px" y="0px"
	 viewBox="0 0 512 512" style="enable-background:new 0 0 512 512;" xml:space="preserve">
<path style="fill:#FADC60;" d="M375.688,273.267l-25.012-69.663c-5.054-14.075-18.399-23.463-33.354-23.463H194.679
	c-14.955,0-28.301,9.388-33.354,23.463l-25.012,69.663c-6.308,17.569,6.713,36.079,25.38,36.079l12.867,20.274l8.058-20.274h146.764
	l8.058,20.274l12.867-20.274C368.975,309.346,381.995,290.837,375.688,273.267z"/>
<path style="fill:#F2C42C;" d="M160.007,273.267l25.012-69.663c5.054-14.075,18.399-23.463,33.354-23.463h-23.694
	c-14.955,0-28.301,9.388-33.354,23.463l-25.012,69.663c-6.308,17.569,6.713,36.078,25.38,36.078l12.867,20.274l8.058-20.274h2.768
	C166.719,309.346,153.699,290.837,160.007,273.267z"/>
<g>
	<path style="fill:#3A484A;" d="M190.225,255.245c-4.268,0-7.726-3.459-7.726-7.726v-11.904c0-4.267,3.458-7.726,7.726-7.726
		c4.268,0,7.726,3.459,7.726,7.726v11.904C197.951,251.786,194.492,255.245,190.225,255.245z"/>
	<path style="fill:#3A484A;" d="M321.775,255.245c-4.268,0-7.726-3.459-7.726-7.726v-11.904c0-4.267,3.458-7.726,7.726-7.726
		c4.268,0,7.726,3.459,7.726,7.726v11.904C329.501,251.786,326.042,255.245,321.775,255.245z"/>
	<path style="fill:#3A484A;" d="M256,261.599c-8.558,0-16.594-3.581-22.052-9.825c-2.808-3.213-2.48-8.094,0.734-10.902
		c3.213-2.808,8.094-2.48,10.902,0.732c2.522,2.886,6.319,4.541,10.416,4.541c4.097,0,7.894-1.656,10.417-4.542
		c2.808-3.212,7.688-3.541,10.902-0.731c3.212,2.808,3.541,7.689,0.731,10.902C272.594,258.018,264.556,261.599,256,261.599z"/>
</g>
<path style="fill:#F2C42C;" d="M240.984,402.472l-25.012-69.663c-5.054-14.075-18.399-23.463-33.354-23.463H59.976
	c-14.955,0-28.301,9.388-33.354,23.463L1.609,402.472c-6.308,17.569,6.713,36.079,25.38,36.079h188.615
	C234.271,438.551,247.293,420.041,240.984,402.472z"/>
<path style="fill:#E0B629;" d="M25.303,402.472l25.012-69.663c5.054-14.075,18.399-23.463,33.354-23.463H59.975
	c-14.955,0-28.301,9.388-33.354,23.463L1.609,402.472c-6.308,17.57,6.713,36.079,25.38,36.079h23.694
	C32.016,438.551,18.996,420.042,25.303,402.472z"/>
<g>
	<path style="fill:#3A484A;" d="M55.522,384.45c-4.268,0-7.726-3.459-7.726-7.726V364.82c0-4.267,3.458-7.726,7.726-7.726
		s7.726,3.459,7.726,7.726v11.904C63.248,380.991,59.789,384.45,55.522,384.45z"/>
	<path style="fill:#3A484A;" d="M187.072,384.45c-4.268,0-7.726-3.459-7.726-7.726V364.82c0-4.267,3.458-7.726,7.726-7.726
		s7.726,3.459,7.726,7.726v11.904C194.798,380.991,191.34,384.45,187.072,384.45z"/>
	<path style="fill:#3A484A;" d="M121.297,390.804c-8.558,0-16.594-3.581-22.052-9.825c-2.808-3.213-2.48-8.094,0.733-10.902
		s8.093-2.48,10.902,0.732c2.522,2.886,6.319,4.541,10.416,4.541s7.894-1.655,10.417-4.542c2.808-3.212,7.688-3.54,10.902-0.731
		c3.212,2.808,3.541,7.689,0.731,10.902C137.891,387.223,129.852,390.804,121.297,390.804z"/>
</g>
<path style="fill:#F2C42C;" d="M510.391,402.472l-25.012-69.663c-5.054-14.075-18.399-23.463-33.354-23.463H329.382
	c-14.955,0-28.301,9.388-33.354,23.463l-25.012,69.663c-6.308,17.569,6.713,36.079,25.38,36.079H485.01
	C503.678,438.551,516.699,420.041,510.391,402.472z"/>
<path style="fill:#E0B629;" d="M294.71,402.472l25.012-69.663c5.054-14.075,18.399-23.463,33.354-23.463h-23.694
	c-14.955,0-28.301,9.388-33.354,23.463l-25.012,69.663c-6.308,17.57,6.713,36.079,25.38,36.079h23.694
	C301.423,438.551,288.401,420.042,294.71,402.472z"/>
<g>
	<path style="fill:#3A484A;" d="M324.927,384.45c-4.268,0-7.726-3.459-7.726-7.726V364.82c0-4.267,3.458-7.726,7.726-7.726
		c4.268,0,7.726,3.459,7.726,7.726v11.904C332.654,380.991,329.195,384.45,324.927,384.45z"/>
	<path style="fill:#3A484A;" d="M456.478,384.45c-4.268,0-7.726-3.459-7.726-7.726V364.82c0-4.267,3.458-7.726,7.726-7.726
		c4.268,0,7.726,3.459,7.726,7.726v11.904C464.205,380.991,460.745,384.45,456.478,384.45z"/>
	<path style="fill:#3A484A;" d="M390.703,390.804c-8.558,0-16.594-3.581-22.052-9.825c-2.808-3.213-2.48-8.094,0.733-10.902
		c3.213-2.808,8.093-2.48,10.902,0.732c2.522,2.886,6.319,4.541,10.416,4.541s7.894-1.655,10.417-4.542
		c2.808-3.212,7.689-3.54,10.902-0.731c3.212,2.808,3.541,7.689,0.731,10.902C407.297,387.223,399.259,390.804,390.703,390.804z"/>
</g>
<path style="fill:#F2C42C;" d="M256,116.392c-4.268,0-7.726-3.459-7.726-7.726v-27.49c0-4.267,3.458-7.726,7.726-7.726
	c4.268,0,7.726,3.459,7.726,7.726v27.49C263.726,112.933,260.268,116.392,256,116.392z"/>
<path style="fill:#FADC60;" d="M143.014,148.613c-1.978,0-3.955-0.754-5.464-2.263l-19.438-19.438c-3.017-3.017-3.017-7.91,0-10.927
	c3.019-3.017,7.911-3.017,10.927,0l19.438,19.438c3.017,3.017,3.017,7.91,0,10.927C146.969,147.859,144.991,148.613,143.014,148.613
	z"/>
<path style="fill:#F2C42C;" d="M100.484,251.29H72.995c-4.268,0-7.726-3.459-7.726-7.726s3.458-7.726,7.726-7.726h27.489
	c4.268,0,7.726,3.459,7.726,7.726S104.752,251.29,100.484,251.29z"/>
<path style="fill:#FADC60;" d="M368.986,148.613c-1.977,0-3.955-0.754-5.464-2.263c-3.017-3.017-3.017-7.91,0-10.927l19.438-19.438
	c3.018-3.017,7.91-3.017,10.927,0c3.017,3.017,3.017,7.91,0,10.927l-19.438,19.438C372.941,147.859,370.963,148.613,368.986,148.613
	z"/>
<path style="fill:#F2C42C;" d="M439.007,251.29h-27.491c-4.268,0-7.726-3.459-7.726-7.726s3.458-7.726,7.726-7.726h27.491
	c4.268,0,7.726,3.459,7.726,7.726S443.274,251.29,439.007,251.29z"/>
<g>
</g>
<g>
</g>
<g>
</g>
<g>
</g>
<g>
</g>
<g>
</g>
<g>
</g>
<g>
</g>
<g>
</g>
<g>
</g>
<g>
</g>
<g>
</g>
<g>
</g>
<g>
</g>
<g>
</g>
</svg>
