<?xml version="1.0" encoding="UTF-8"?>
<svg id="svg8" width="459.86" height="94.662" version="1.1" viewBox="0 0 121.67 25.046" xmlns="http://www.w3.org/2000/svg" xmlns:xlink="http://www.w3.org/1999/xlink">
	<g id="layer1" transform="translate(-5.1088 -271.86)">
		<g id="g917" transform="translate(-.82691 28.528)">
			<text id="text12" style="fill:#000000;font-family:sans-serif;font-size:18.344px;letter-spacing:0px;line-height:1.25;opacity:.69753;stroke-width:.45859;word-spacing:0px" xml:space="preserve"><textPath id="textPath870" style="letter-spacing:1.5505px" xlink:href="#path866"><tspan id="tspan10" dx="0" dy="0" rotate="0.00010375977 0.00010375977 0.00010375977 0.00010375977 0.00010375977 0.00010375977 0.00010375977 0.00010375977 0.00010375977 0.00010375977 0" style="font-family:'Berlin Sans FB';letter-spacing:1.5505px;line-height:0;stroke-width:.45859;word-spacing:0px">BIENVENIDO</tspan></textPath></text>
			<path id="path866" d="m9.4494 266.95c18.58-4.1597 37.64-6.1744 56.679-5.9912 18.835 0.18121 37.649 2.5132 55.958 6.9362" style="opacity:0;stroke-width:.26458px"/>
			<path id="path919" transform="matrix(.26458 0 0 .26458 5.9358 243.33)" d="m31.067 37.533c-3.9984 0.10842-7.8761 1.2828-11.811 1.9009-3.9089 0.78862-7.8496 1.4417-11.724 2.3865 0.19214 2.7129 1.1336 5.4577 1.6735 8.1668 2.0057 8.242 4.0276 16.49 5.2103 24.897 0.69444 4.3259 1.3708 8.655 2.14 12.968 2.3618-0.12956 4.7994-0.93665 7.1828-1.3466 6.112-1.3822 12.317-2.3484 18.406-3.827 2.9369-0.79144 4.9626-3.4048 6.3491-5.9626 2.22-4.5092 2.0763-10.364-0.95721-14.471-1.4619-2.0707-3.6434-3.452-5.9966-4.3015-0.86316-0.22067 0.12084-0.95152 0.31017-1.3441 2.9289-3.2464 3.8374-8.1887 1.932-12.175-1.6266-4.0946-5.9221-6.6116-10.216-6.81-0.83157-0.06285-1.6658-0.08876-2.4997-0.08164zm-1.3906 6.7127c1.7706-0.15776 3.6119 0.2563 4.8383 1.6123 2.1279 2.0453 3.0508 5.9463 0.70579 8.175-2.314 2.4453-5.855 2.9939-8.9724 3.7632-2.1443 0.34126-4.3358 0.92265-6.512 0.69893-0.63971-0.77022-0.61004-2.0073-0.92819-2.9625-0.57416-2.9797-1.3581-5.9761-1.4704-9.007 1.6218-1.099 3.7229-1.2318 5.5824-1.7294 2.2174-0.54091 4.4785-0.57728 6.7564-0.55052zm4.4927 19.144c2.2025-0.11952 4.8066 0.2642 6.0038 2.352 1.4656 2.6404 1.7716 6.294-0.02251 8.8278-2.2021 2.6159-5.8904 3.1202-9.0473 3.8658-2.3802 0.36437-4.7751 1.0657-7.1952 0.94694-0.58417-0.79742-0.56088-2.0413-0.89655-3.0029-0.69865-3.3274-1.5999-6.656-2.0041-10.018 1.0008-1.0038 2.623-1.0371 3.907-1.4936 3.0411-0.75256 6.1102-1.4896 9.2547-1.4776z" style="fill-rule:evenodd;fill:#0f0;opacity:.652"/>
			<path id="path921" transform="matrix(.26458 0 0 .26458 5.9358 243.33)" d="m65.122 31.151c-2.5765 0.39625-5.1194 0.98975-7.7271 1.1667-1.1175 0.19915-0.51436 1.6154-0.47727 2.352 1.7828 9.9835 4.2123 19.855 5.2285 29.961 0.5965 4.7271 1.1213 9.4648 1.8524 14.174 2.9255-0.28942 5.9823-0.97188 8.9586-1.3914 0.09537-2.1576-0.67837-4.39-0.96827-6.5658-1.8268-9.2803-3.6-18.572-4.6832-27.974-0.59345-3.8488-0.83799-7.777-1.725-11.568-0.07713-0.17855-0.29965-0.1544-0.45858-0.15413z" style="fill-rule:evenodd;fill:#f00;opacity:.652"/>
			<path id="path925" transform="matrix(.26458 0 0 .26458 5.9358 243.33)" d="m108.85 25.116c-6.0968 0.56672-12.111 1.8114-18.209 2.3701-3.4898 0.46588-7.0979 0.46711-10.489 1.4713-0.30394 0.8195 0.26393 1.8645 0.27512 2.7588 1.7074 10.279 3.6066 20.54 4.1786 30.956 0.38216 4.1841 0.53763 8.4125 1.2235 12.556 0.59376 0.58963 1.6544-0.04674 2.3968 0.02604 9.3994-1.279 18.831-2.4497 28.241-3.5436 0.71136-0.88326 0.34563-2.2273 0.52713-3.2841-0.0821-1.2812 0.37735-2.7578-0.22078-3.936-1.2445-0.38378-2.6071 0.30069-3.8702 0.39357-5.7402 0.99277-11.452 2.5373-17.307 2.4643-1.6246-0.04701-2.0115-2.0536-2.2268-3.3337-0.4586-3.0728-1.0757-6.1709-1.1045-9.2737 1.0644-1.246 2.9889-0.96748 4.4654-1.3367 5.0675-0.71777 10.167-1.1634 15.263-1.5983 1.1908 0.03492 0.77554-1.4072 0.86374-2.1475-0.0917-1.8688 0.0376-3.8141-0.44599-5.6265-1.1878-0.35718-2.5259 0.26672-3.746 0.36714-5.5474 0.92947-11.121 1.9281-16.741 2.3004-1.2234-0.41863-0.85814-2.0335-1.1908-3.0228-0.29729-2.7507-0.99845-5.5557-0.61107-8.3248 0.59836-1.272 2.3627-1.2195 3.5406-1.4857 5.8284-0.73983 11.751-0.78118 17.559-1.703 1.0532-0.33944 0.29524-1.713 0.21206-2.4314-0.48583-1.4766-0.59668-3.2146-1.5714-4.4609-0.30511-0.17164-0.67507-0.15352-1.0133-0.15528z" style="fill-rule:evenodd;fill:#ff0"/>
			<path id="path929" transform="matrix(.26458 0 0 .26458 5.9358 243.33)" d="m167.19 20.1c-2.0872 0.18547-4.149 0.55618-6.2486 0.47756-0.61209 0.06326-1.623-0.15317-1.861 0.61681-0.13412 1.2812 0.13383 2.5793 0.19689 3.8625 0.73865 8.4094 1.8909 16.787 2.4253 25.206 0.0626 1.3419 0.12816 2.6901 0.10772 4.0371-3.2938-3.4004-6.3322-7.0731-9.485-10.617-5.9392-6.7625-11.805-13.589-17.692-20.396-0.49454-0.44247-0.91849-1.3551-1.706-1.0454-1.7839 0.3649-3.5508 0.81567-5.3693 0.94491-0.66055 0.1324-1.562-0.01445-2.0125 0.58943-0.12729 0.79656 0.15871 1.6255 0.18884 2.4304 0.83464 7.1412 1.5615 14.302 2.1184 21.467 0.49799 7.4021 0.38945 14.842 0.94726 22.245-0.0498 0.44972 0.38284 0.69532 0.77913 0.54734 2.645-0.24168 5.2995-0.46065 7.9268-0.83977 0.34069-0.3702 0.0631-0.98547 0.11796-1.4399-0.7414-10.113-1.7914-20.212-2.5072-30.32 0.0317-0.4533-0.14109-1.0083 0.0578-1.4215 4.9621 5.3883 9.749 10.937 14.598 16.428 4.3559 4.9652 8.6911 9.9488 13.016 14.941 1.0701 0.10706 2.1932-0.10302 3.2866-0.11426 1.6129-0.13799 3.2631-0.07332 4.852-0.38361 0.35348-0.43003 0.0738-1.0856 0.12303-1.5943-0.76745-10.751-1.883-21.478-2.224-32.253-0.20015-4.1969-0.30514-8.4022-0.64299-12.59-0.0284-0.54758-0.4619-0.84946-0.99308-0.77866z" style="fill-rule:evenodd;fill:#f0c;opacity:.652"/>
			<path id="path931" transform="matrix(.26458 0 0 .26458 5.9358 243.33)" d="m220.1 18.78c-1.8341 0.09103-3.6376 0.29423-5.4775 0.17836-0.83752 0.04765-1.7434-0.19623-2.5445 0.09748-0.47165 0.51784-0.20807 1.3357-0.27887 1.9705 0.10859 4.7634 0.50943 9.5169 0.52237 14.281-0.0342 1.5655-0.89459 2.9476-1.4522 4.3695-2.6577 5.7613-5.636 11.366-8.694 16.923-2.0802-3.2907-3.9907-6.6916-5.9288-10.066-1.6488-3.0124-3.4297-5.9886-4.6311-9.2185-0.28388-1.4025-0.0571-2.8574-0.0941-4.2795 0.0346-4.3506 0.44263-8.6918 0.31176-13.043 0.0282-0.63325-0.67056-0.75961-1.1575-0.67267-2.5056 0.15788-5.0175 0.126-7.5266 0.12933-0.87406 0.53752-0.54429 1.7194-0.62949 2.5735-0.0409 4.9431-0.11105 9.8883-0.13582 14.83 0.76116 2.2448 1.9823 4.3 3.0204 6.4231 3.7304 7.0471 7.6703 13.981 11.504 20.972 0.44718 0.71354 0.75269 1.5508 1.2876 2.1877 2.7864-0.03111 5.5765-0.02886 8.3595-0.19533 0.50371-0.46771 0.68239-1.2551 1.0622-1.8443 4.1445-8.1089 8.4321-16.15 12.294-24.399 0.59376-1.3615 1.2624-2.7245 1.5845-4.1749-0.16552-5.3471-0.26664-10.697-0.46482-16.043 0.01-0.55418-0.29729-1.1067-0.93146-0.99956z" style="fill-rule:evenodd;fill:#f60;opacity:.96296"/>
			<path id="path933" transform="matrix(.26458 0 0 .26458 5.9358 243.33)" d="m235.62 19.017c-0.49214-0.07237-1.0911 0.26108-0.95473 0.83017-0.0807 9.9068 0.39189 19.837-0.43709 29.721-0.36828 5.1947-0.95358 10.382-1.1014 15.591 0.0629 0.44137-0.18736 1.3214 0.52737 1.1858 10.201 0.20589 20.406 0.49031 30.594 1.0192 0.43271-0.26154 0.25911-0.97644 0.43225-1.4253 0.19228-1.5629 0.62415-3.0582 0.97495-4.5838 0.0989-0.51034 0.21712-1.4603-0.52248-1.5217-3.1668-0.02304-6.3323 0.2407-9.5001 0.28141-3.5833 0.0562-7.1903 0.15718-10.747-0.26157-0.89046-0.09662-1.9257-0.50246-2.1584-1.4759-0.43967-1.623-0.24766-3.3318-0.2789-4.9968 0.0754-2.1185 0.053-4.2471 0.27108-6.3527 0.20932-0.83861 1.1657-0.88645 1.8743-0.8812 5.9483-0.03759 11.89 0.19795 17.798 0.84076 0.551 0.07462 1.3636 0.02356 1.4373-0.68023 0.14754-2.1486 0.55216-4.2669 0.70446-6.4166 0.0845-0.45533-0.13802-1.091-0.71056-0.97228-6.2856 0.10984-12.584 0.15942-18.863-0.08046-0.7101-0.0092-1.8698-0.08776-1.9104-1.0271-0.0915-2.5406 0.0547-5.0903 0.16653-7.6262 0.131-1.0738 0.0386-2.2826 0.6974-3.2043 0.92269-0.75121 2.246-0.57931 3.3672-0.63083 5.8728 0.16064 11.721 1.0101 17.603 1.1565 0.54845 0.06722 0.93921-0.42896 0.86031-0.94882-0.0218-1.9529-0.24697-3.9102-0.61118-5.8274-0.39493-0.88628-1.5571-0.77112-2.3604-0.86279-5.0359-0.14057-10.082-0.0084-15.113-0.27691-4.0142-0.15527-8.0216-0.50208-12.039-0.57272z" style="fill-rule:evenodd;fill:#06f;opacity:.91975"/>
			<path id="path935" transform="matrix(.26458 0 0 .26458 5.9358 243.33)" d="m287.9 20.967c-1.9569 0.13556-3.9077 0.2596-5.8642 0.07554-0.51034 0.03601-1.4162-0.23641-1.5646 0.47326-0.26578 2.3266-0.20193 4.6783-0.37202 7.0136-0.35927 6.3194-0.63909 12.654-1.276 18.946-0.70617 6.6873-1.7839 13.334-2.352 20.035-0.0964 0.65152 0.76981 0.51203 1.1668 0.58562 2.4681 0.17161 4.9438 0.33486 7.4089 0.49329 0.52749-0.23786 0.27943-1.0019 0.41921-1.4525 0.84279-10.056 1.4049-20.139 2.2678-30.19 0.0656-0.52224 0.0914-1.0565 0.24454-1.5627 1.9426 2.6113 3.5794 5.4552 5.3668 8.1818 5.669 8.8999 11.242 17.86 16.867 26.788 0.4527 0.70986 1.4518 0.40181 2.1432 0.58852 1.9409 0.2033 3.9934 0.39905 5.8639 0.64992 0.3473 0.10802 0.53199-0.50432 0.53908-0.82292 1.0082-10.376 1.4774-20.804 2.7431-31.151 0.5349-4.8559 1.2061-9.7006 1.5648-14.574 0.11811-0.58751-0.53482-0.89076-1.0306-0.81777-2.2098-0.09367-4.3944-0.2142-6.5802-0.56196-0.48821-0.05402-1.2606-0.2339-1.429 0.41222-0.4259 2.3195-0.42707 4.6975-0.61142 7.0449-0.48149 7.6303-0.65886 15.288-1.4362 22.889-0.12238 1.0625-0.23026 2.1288-0.42937 3.1803-1.5767-2.1364-2.9224-4.4815-4.3867-6.7155-5.9542-9.394-11.816-18.847-17.668-28.304-0.34439-0.54476-0.73035-1.3286-1.5093-1.2055z" style="fill-rule:evenodd;fill:#0f0;opacity:.95679"/>
			<path id="path939" transform="matrix(.26458 0 0 .26458 5.9358 243.33)" d="m338.57 26.39c-1.0813 0.11831-0.73706 1.6317-0.98573 2.3738-1.0617 9.5987-1.4305 19.276-3.2013 28.784-0.79256 5.1154-1.7801 10.205-2.3788 15.348 1.0777 0.59759 2.6046 0.39912 3.8547 0.69118 1.771 0.19828 3.535 0.5021 5.3176 0.57352 0.57151-1.1594 0.4099-2.7142 0.65124-4.0329 0.96125-10.005 1.8175-20.016 3.5293-29.923 0.53436-4.0695 1.4785-8.1054 1.7005-12.206-0.15521-1.0093-1.5885-0.58592-2.2862-0.80993-2.0913-0.08974-4.1224-0.62572-6.2012-0.79966z" style="fill-rule:evenodd;fill:#2a7fff;opacity:.652"/>
			<path id="path941" transform="matrix(.26458 0 0 .26458 5.9358 243.33)" d="m362.57 29.534c-0.97477 0.14423-0.70175 1.538-0.96028 2.2187-1.5554 10.429-2.727 20.923-4.9575 31.238-0.82935 4.2789-1.7182 8.5468-2.4979 12.835 0.77408 0.58802 2.1318 0.4023 3.1409 0.67824 7.0637 1.0175 14.08 2.3376 21.142 3.3498 5.1899 0.52554 10.038-2.4574 13.619-5.9479 7.879-8.0663 9.9797-21.489 4.3291-31.361-2.3556-4.3243-6.661-7.2188-11.269-8.7013-6.5836-2.2033-13.558-2.7547-20.342-4.0711-0.73024-0.10147-1.4631-0.25915-2.2036-0.23844zm8.3917 8.6466c3.7378 0.1915 7.5274 0.79661 11.069 1.9945 5.7012 2.205 9.4835 8.3186 9.0159 14.399 0.12115 6.2165-2.5995 12.65-7.8336 16.23-3.1952 2.2701-7.4196 2.1745-11.112 1.4135-2.4891-0.56576-5.243-0.53442-7.4697-1.9026-0.7239-0.81719 0.0283-2.0615-0.0278-3.0222 1.3485-9.3539 2.8315-18.711 4.7719-27.957 0.16376-0.85015 0.72913-1.2376 1.5867-1.1548z" style="fill-rule:evenodd;fill:#f00;opacity:.83951"/>
			<path id="path947" transform="matrix(.26458 0 0 .26458 5.9358 243.33)" d="m432.89 41.993c-5.8477-0.06206-11.444 2.7144-15.58 6.7337-4.6746 4.2799-7.2818 10.475-7.9066 16.712-0.22542 2.8644-0.17446 5.7814 0.5937 8.5682 1.247 4.9275 3.9344 9.5646 7.8607 12.832 3.7167 2.9894 8.4164 4.7432 13.175 4.9786 2.578 0.09165 5.1918-0.08973 7.6475-0.93453 4.8866-1.5967 9.1922-4.8486 12.232-8.9774 3.3315-4.6016 5.0373-10.302 5.1014-15.961 0.0216-6.5437-2.6717-13.047-7.2615-17.701-3.7769-3.7683-9.0308-5.8808-14.318-6.2219-0.51431-0.02431-1.0294-0.03233-1.5442-0.02852zm0.29949 8.2866c4.1269 0.02112 8.291 1.8577 10.82 5.1992 2.4446 3.18 3.7402 7.2734 3.4994 11.296-0.21394 5.1755-2.5913 10.321-6.7301 13.524-2.7002 2.2152-6.2208 3.5077-9.7299 3.1887-3.8566-0.25142-7.6435-2.1386-9.8968-5.3257-2.763-3.7997-3.9391-8.6735-3.1044-13.298 0.66452-4.3096 2.8399-8.3958 6.2606-11.148 2.469-2.0812 5.6012-3.4767 8.8812-3.4355z" style="fill-rule:evenodd;fill:#ff0;opacity:.91358"/>
		</g>
	</g>
</svg>
