<?xml version="1.0" encoding="UTF-8" standalone="no"?>
<svg
   xmlns:dc="http://purl.org/dc/elements/1.1/"
   xmlns:cc="http://creativecommons.org/ns#"
   xmlns:rdf="http://www.w3.org/1999/02/22-rdf-syntax-ns#"
   xmlns:svg="http://www.w3.org/2000/svg"
   xmlns="http://www.w3.org/2000/svg"
   xmlns:sodipodi="http://sodipodi.sourceforge.net/DTD/sodipodi-0.dtd"
   xmlns:inkscape="http://www.inkscape.org/namespaces/inkscape"
   id="svg"
   version="1.1"
   width="54.100502"
   height="57.999992"
   viewBox="0 0 54.100502 57.999992"
   sodipodi:docname="buho_sabio.svg"
   inkscape:version="0.92.4 (5da689c313, 2019-01-14)"
   enable-background="new">
  <metadata
     id="metadata13">
    <rdf:RDF>
      <cc:Work
         rdf:about="">
        <dc:format>image/svg+xml</dc:format>
        <dc:type
           rdf:resource="http://purl.org/dc/dcmitype/StillImage" />
        <dc:title></dc:title>
      </cc:Work>
    </rdf:RDF>
  </metadata>
  <defs
     id="defs11">
    <inkscape:path-effect
       effect="spiro"
       id="path-effect983"
       is_visible="true" />
    <inkscape:path-effect
       effect="spiro"
       id="path-effect979"
       is_visible="true" />
    <inkscape:path-effect
       effect="spiro"
       id="path-effect939"
       is_visible="true" />
    <inkscape:path-effect
       effect="spiro"
       id="path-effect3059"
       is_visible="true" />
    <inkscape:path-effect
       effect="spiro"
       id="path-effect3045"
       is_visible="true" />
    <inkscape:path-effect
       effect="spiro"
       id="path-effect3041"
       is_visible="true" />
    <filter
       inkscape:collect="always"
       style="color-interpolation-filters:sRGB"
       id="filter30">
      <feBlend
         inkscape:collect="always"
         mode="multiply"
         in2="BackgroundImage"
         id="feBlend32" />
    </filter>
    <filter
       inkscape:collect="always"
       style="color-interpolation-filters:sRGB"
       id="filter30-5">
      <feBlend
         inkscape:collect="always"
         mode="multiply"
         in2="BackgroundImage"
         id="feBlend32-5" />
    </filter>
    <filter
       inkscape:collect="always"
       style="color-interpolation-filters:sRGB"
       id="filter30-1">
      <feBlend
         inkscape:collect="always"
         mode="multiply"
         in2="BackgroundImage"
         id="feBlend32-1" />
    </filter>
    <filter
       inkscape:collect="always"
       style="color-interpolation-filters:sRGB"
       id="filter30-5-2">
      <feBlend
         inkscape:collect="always"
         mode="multiply"
         in2="BackgroundImage"
         id="feBlend32-5-8" />
    </filter>
    <inkscape:path-effect
       effect="spiro"
       id="path-effect939-4"
       is_visible="true" />
  </defs>
  <sodipodi:namedview
     pagecolor="#ffffff"
     bordercolor="#666666"
     borderopacity="1"
     objecttolerance="10"
     gridtolerance="10"
     guidetolerance="10"
     inkscape:pageopacity="0"
     inkscape:pageshadow="2"
     inkscape:window-width="1366"
     inkscape:window-height="705"
     id="namedview9"
     showgrid="false"
     inkscape:zoom="4.0000002"
     inkscape:cx="-28.72717"
     inkscape:cy="46.437682"
     inkscape:window-x="-8"
     inkscape:window-y="-8"
     inkscape:window-maximized="1"
     inkscape:current-layer="g3374"
     showguides="true"
     fit-margin-top="0"
     fit-margin-left="0"
     fit-margin-right="0"
     fit-margin-bottom="0" />
  <g
     id="svgg"
     transform="matrix(0.13583374,0,0,0.13582048,-17.998903,13.312581)">
    <g
       id="g3383"
       inkscape:label="cuerpo">
      <path
         sodipodi:nodetypes="ccsccsscscsscscccccscscsccccsccccccsccccccccsccccccccccccccccccccscssssscccscscccccccccccccccscccccsscccscccccsscccccccccccscccccccccsssscccccscccccc"
         style="fill:#f5f4f4;fill-rule:evenodd;stroke:#000400;stroke-opacity:1"
         inkscape:connector-curvature="0"
         d="m 202.63304,-95.898872 c 0.99,0.678 1.86,1.368 1.933,1.533 0.074,0.165 0.288,0.3 0.476,0.3 0.295,0 7.122,4.354 26.591,16.961 5.09001,3.296 4.90301,3.201 11.20001,5.643 2.64,1.024 5.16,2.014 5.6,2.2 0.44,0.186 6.92,2.707 14.4,5.603 7.48,2.896 14.363,5.609 15.296,6.029 0.932,0.42 1.802,0.764 1.931,0.764 0.286,0 5.787,2.1 8.173,3.121 2.622,1.12 10.46,4.079 10.807,4.079 0.216,0 0.393,0.18 0.393,0.4 0,0.71 -73.97601,0.53 -77.40001,-0.188 -14.455,-3.035 -24.2,-11.858 -24.2,-21.912 0,-3.572 1.503,-24.782 1.83,-25.825 0.181,-0.579 0.337,-0.512 2.97,1.292 m 216.58101,0.133 c 0.263,1.576 0.902,12.149 1.286,21.3 0.555,13.237 -7.771,21.757 -24.598,25.168 -2.352,0.477 -76.131,0.637 -76.602,0.166 -0.146,-0.146 0.679,-0.616 1.834,-1.043 1.154,-0.428 2.819,-1.042 3.699,-1.365 0.88,-0.323 2.14,-0.826 2.8,-1.117 0.66,-0.292 4.8,-1.913 9.2,-3.604 4.4,-1.691 10.52,-4.068 13.6,-5.284 3.08,-1.215 5.96,-2.35 6.4,-2.521 2.269,-0.881 8.503,-3.307 9.2,-3.58 0.44,-0.172 1.25,-0.503 1.8,-0.735 2.676,-1.129 12.555,-4.885 12.847,-4.885 0.323,0 7.464,-4.536 18.153,-11.531 2.86,-1.872 5.56,-3.602 6,-3.846 0.712,-0.395 8.097,-5.178 11.8,-7.643 1.928,-1.283 2.291,-1.21 2.581,0.52 m -87.581,34.434 c 11.482,1.491 11.90794,2.458272 9.34194,3.436272 -0.715,0.273 -1.84,0.725 -2.5,1.006 -0.66,0.281 -3.57194,1.414228 -6.54194,2.561228 -12.22,4.719 -11.97,4.8395 -12.633,5.1965 -0.84771,0.281531 24.22669,0.129675 30.82822,0.140175 24.786,0.138 32.35408,0.156223 32.74308,0.456223 0.308,0.238 4.9917,2.174602 5.7617,2.466602 6.548,2.486 22.92,12.029 29.077,16.949 8.276,6.615 15.422,13.362 19.12,18.054 0.867,1.1000005 1.673,2.0900005 1.792,2.2000005 0.594,0.55 6.411,8.72799999 6.411,9.01299999 0,0.124 0.594,1.16200001 1.32,2.30600001 1.974,3.112 4.964,9.4879995 6.134,13.0809995 0.322,0.99 0.742,2.16 0.933,2.6 0.19,0.44 0.459,1.25 0.598,1.8 0.138,0.55 0.489,1.9 0.78,3 4.468,16.928 2.363,35.218 -5.961,51.8 -1.381,2.75 -3.52,6.53 -4.755,8.4 -1.842,2.791 -2.204,3.615 -2.022,4.6 0.192,1.039 -0.162,1.678 -2.637,4.76 -7.571,9.428002 -12.894,19.458002 -16.365,30.840002 -1.583,5.192 -1.41,11.589 0.417,15.41201 2.986,6.248 10.689,7.537 23.358,3.909 2.994,-0.858 2.977,-0.852 7.155,-2.543 2.66,-1.076 2.775,-1.089 3.3,-0.37 0.806,1.102 0.51,21.917 -0.401,28.192 -1.782,9.74071 -1.32973,19.42659 -5.523,29.6 -3.11695,6.98692 -6.30734,16.28478 -10.697,23.01799 -18.63432,26.66195 -45.77187,54.14646 -75.40426,62.73918 -66.65887,9.16508 -70.16132,8.44005 -113.8304,0.45654 -37.64506,-11.16849 -54.78473,-34.46924 -65.24922,-50.01372 -3.335,-4.158 -7.95013,-14.917 -7.95013,-15.81899 0,-0.385 0.497,-1.663 1.104,-2.84 0.607,-1.178 1.525,-3.131 2.04,-4.341 0.515,-1.21 1.168,-2.74 1.451,-3.4 0.283,-0.66 1.286,-3.54 2.228,-6.4 0.942,-2.86 1.843,-5.56 2.003,-6 0.16,-0.44 0.504,-1.88 0.765,-3.2 0.261,-1.32 0.637,-3.12 0.837,-4 0.467,-2.056 2.178,-14.355 2.756,-19.8 0.245,-2.31 0.615,-5.64 0.823,-7.4 3.406,-28.80001 0.666,-56.75401 -6.24,-63.660012 -3.25,-3.25 -12.139,-3.021 -14.233,0.366 -0.16,0.259 -0.393,0.369 -0.518,0.244 -0.279,-0.279 0.607,-2.491 2.415,-6.029 1.734,-3.394 1.809,-2.918 -1.179,-7.454 -2.289,-3.473 -4.257,-6.827 -5.673,-9.667 -0.416,-0.833 -1.722,-3.866 -3.359,-7.8 -6.335,-15.223 -5.877,-36.261 1.175,-53.991 7.508,-18.8779995 26.908,-39.575 47.805,-51.002 1.32,-0.722 2.58,-1.448 2.8,-1.613 0.442,-0.331 6.624,-3.448 11.6,-5.85 l 6.47037,-2.958214 33.97342,0.06517 c 35.387,-0.191 33.95922,-0.005 31.76322,-0.850951 -0.893,-0.344 0.732,0.411 -5.657,-2.062 -3.45086,-1.032475 -3.2829,-1.140196 -5.675,-2.052 -0.88,-0.385 -2.54,-1.223 -4.3,-1.863 -3.182,-1.157 -5.5055,-1.985625 -6.8325,-2.660625 -0.382,-0.194 -1.717,-0.837375 -2.05,-0.837375 -0.833,0 1.5495,-0.825 2.4075,-1.074 7.689,-2.225 40.932,-2.904 54.7,-1.117 m 193.8,115.333 c 4.636,0.617 5.884,1.628 4.055,3.283 -1.109,1.004 -2.211,3.921 -4.097,10.85 -0.24,0.88 -0.598,1.913 -0.797,2.295 -0.199,0.382 -0.361,0.884 -0.361,1.117 0,0.396 -2.426,7.225 -3.192,8.988 -5.467,12.569 -11.831,22.310997 -19.164,29.332997 -9.931,9.511 -38.346,26.28601 -52.044,30.72401 -0.99,0.321 -2.16,0.741 -2.6,0.933 -0.44,0.192 -1.25,0.44 -1.8,0.55 -0.55,0.109 -2.26,0.491 -3.8,0.847 -13.141,3.04 -20.386,-2.878 -18.373,-15.00801 0.345,-2.078 0.725,-4.366 0.844,-5.083 0.12,-0.717 0.378,-1.402 0.573,-1.523 0.196,-0.121 0.356,-0.572 0.356,-1.002 0,-0.43 0.165,-1.094 0.366,-1.476 0.201,-0.382 0.762,-1.685 1.247,-2.895 1.32,-3.295 4.046,-8.716 5.632,-11.2 0.772,-1.21 1.515,-2.498 1.652,-2.862 0.693,-1.846 9.415,-12.703997 14.703,-18.302997 13.346,-14.133 31.365,-23.215 55.6,-28.024 7.865,-1.561 16.402,-2.182 21.2,-1.544 m -343.54901,41.596 c 8.57,2.567 12.677,26.052997 10.027,57.337007 -1.128,13.323 -1.471,16.539 -2.471,23.2 -0.231,1.54 -0.605,4.15 -0.831,5.8 -0.529,3.861 -1.126,7.079 -1.6,8.628 -0.207,0.676 -0.376,1.675 -0.376,2.22 0,0.546 -0.153,1.163 -0.341,1.372 -0.187,0.209 -0.647,1.55 -1.022,2.98 -0.602,2.296 -1.547,5.086 -2.676,7.9 -0.199,0.495 -0.523,1.305 -0.721,1.8 -1.815,4.535 -4.8,10.571 -7.173,14.49999 -1.195,1.98 -2.377,3.96 -2.625,4.4 -0.639,1.134 -4.728,7.16 -5.021,7.4 -0.135,0.11 -0.943,1.185 -1.796,2.39 -1.253,1.767 -9.374,11.641 -10.208,12.41 -0.119,0.11 -1.294,1.46001 -2.611,3.00001 -1.317,1.54 -2.502,2.89 -2.633,3 -0.131,0.11 -0.575,1.145 -0.985,2.3 -0.41,1.155 -0.971,2.1 -1.247,2.1 -2.169,0 -7.30199,-12.55401 -9.72999,-23.80001 -0.19,-0.88 -0.61,-2.77 -0.932,-4.2 -3.39,-15.02499 -5.001,-42.14399 -3.077,-51.79999 0.219,-1.1 0.752,-4.07 1.184,-6.6 1.111,-6.507 1.964,-10.488 2.421,-11.29499 0.216,-0.38201 0.393,-1.04801 0.393,-1.481 0,-0.432 0.163,-1.2 0.363,-1.70501 0.2,-0.506 0.762,-2.269 1.249,-3.919 1.155,-3.908 1.95,-6.407 2.355,-7.4 0.179,-0.44 0.51,-1.25 0.735,-1.8 0.224,-0.55 1.081,-2.71 1.90199,-4.8 10.419,-26.50101 27.754,-46.841007 37.447,-43.937007"
         id="path1-8" />
    </g>
    <g
       id="g3380"
       inkscape:label="base">
      <path
         sodipodi:nodetypes="csccsccccccccccccscccccscccccccccccccccccccscccsccccsscccccc"
         style="fill:#92734a;fill-rule:evenodd;stroke:#000000;stroke-opacity:1"
         inkscape:connector-curvature="0"
         d="m 180.14992,288.67839 c -6.261,2.344 -6.992,4.246 -6.992,18.206 v 10.496 l 1.081,2.208 c 2.931,5.986 1.124,5.742 42.534,5.742 l 36.635,-0.32 -0.35,-18.53 0.125,-18.475 -36.725,0.173 c -25.018,0.034 -35.447,0.177 -36.308,0.5 m 118.454,-0.222 c -0.111,0.179 -0.166,8.504 -0.124,18.5 l 0.078,18.174 9.9,0.107 10.525,0.232 0.375,-18.857 0.125,-18.232 -10.901,-0.25 c -5.37559,-0.12328 -9.867,0.147 -9.978,0.326 m 66.742,0.174 c -0.102,0.275 -0.142,8.6 -0.087,18.5 l 0.099,18 26.27699,0.103 c 36.531,0.143 35.123,0.871 35.123,-18.168 0,-14.176 -0.779,-16.17 -7.197,-18.429 -2.051,-0.722 -53.94499,-0.728 -54.21499,-0.006 m -98.79,20.856 c -0.219,0.25 -1.671,1.893 -3.228,3.649 -1.556,1.757 -3.29,3.735 -3.852,4.395 -0.563,0.66 -2.202,2.541 -3.644,4.18 -1.442,1.64 -2.533,3.125 -2.424,3.3 0.259,0.42 20.843,0.417 21.102,-0.003 0.11,-0.177 0.87047,-1.07619 0.44847,-1.94419 -0.699,-1.436 -2.54014,-4.73617 -3.87014,-7.84217 -2.688,-6.28 -3.69633,-6.69164 -4.53233,-5.73464 m 66.796,-0.041 c -0.7,0.837 -6.332,7.263 -6.773,7.729 -3.436,3.628 -6.634,7.609 -6.344,7.899 0.36,0.361 20.22,0.31 20.789,-0.052 0.343,-0.218 0.274,-0.72 -0.262,-1.894 -1.045,-2.288 -2.573,-5.679 -3.604,-7.997 -3.001,-6.746 -2.964,-6.691 -3.806,-5.685 m -49.72546,2.87242 c 0,0.396 -0.143,0.891 -0.318,1.1 -0.175,0.209 -0.547,1.1 -0.827,1.98 -0.279,0.88 -0.662,1.96 -0.849,2.4 -1.254,2.936 -2.09554,6.77458 -1.88154,7.12158 0.326,0.527 15.807,0.566 15.807,0.04 0,-0.205 0.246,-1.025 0.246,-1.025 -2.42605,-4.20412 -4.99523,-6.74447 -7.8095,-10.754 -1.545,-1.843 -2.974,-5.0395 -2.974,-3.9175 m 65.7375,3.2435 c 0,0.427 -0.18,0.888 -0.4,1.024 -0.22,0.136 -0.4,0.599 -0.4,1.029 0,0.43 -0.173,1.094 -0.385,1.476 -0.866,1.559 -3.224,8.557 -3.004,8.912 0.257,0.417 15.49,0.549 15.901,0.137 0.136,-0.135 0.18781,-0.9782 -0.71019,-1.9362 -1.42551,-2.90111 -2.20075,-3.04046 -4.49781,-6.8928 -3.359,-4.392 -5.629,-7.059 -5.629,-5.624"
         id="path3" />
    </g>
    <g
       id="g3392"
       inkscape:label="pata2">
      <path
         sodipodi:nodetypes="csccccccsccccccccc"
         style="fill:#f2c06d;fill-rule:evenodd;stroke:#000000;stroke-opacity:1"
         inkscape:connector-curvature="0"
         d="m 254.50605,275.51414 c -0.291,0.29 -1.17011,-0.26737 -1.17011,0.46863 0,0.736 -0.27139,1.46662 -0.12452,3.58987 -0.11575,1.23062 -1.27799,47.13592 -0.63899,48.08392 0.336,0.499 2.10614,-2.90151 3.29914,-4.23151 5.3172,-6.72994 2.85445,-3.40954 7.00943,-8.23013 3.99026,-3.88762 4.51492,-7.70453 5.90992,-4.69853 l 4.52762,9.40387 c 3.86138,7.66613 3.26138,7.66613 3.86138,7.66613 0.803,0 3.10078,-6.19389 4.39806,-9.43124 1.94935,-4.90854 2.06757,-5.48815 2.82794,-7.71376 0.722,-2.189 0.66445,-1.42302 1.861,0.30552 8.85216,12.18647 0.16216,0.24324 8.75081,12.24728 2.19354,3.58317 3.22551,4.67248 3.22551,4.67248 0,0 0.18368,-4.01528 0.20668,-17.93128 0.014,-8.772 0.083,-16.539 0.154,-17.259 0.2011,-11.30064 -0.18425,-13.23957 -0.44049,-16.21313 -0.967,-0.802 -43.29488,-1.26349 -44.09488,-0.46349"
         id="path4-5" />
    </g>
    <g
       id="g3389"
       inkscape:label="pata1">
      <path
         sodipodi:nodetypes="csccccccsccccccccc"
         style="fill:#f2c06d;fill-rule:evenodd;stroke:#000000;stroke-opacity:1"
         inkscape:connector-curvature="0"
         d="m 321.24805,275.68814 c -0.291,0.29 -1.17011,-0.26737 -1.17011,0.46863 0,0.736 -0.27139,1.46662 -0.12452,3.58987 -0.11575,1.23062 -1.27799,47.13592 -0.63899,48.08392 0.336,0.499 2.10614,-2.90151 3.29914,-4.23151 5.3172,-6.72994 2.85445,-3.40954 7.00943,-8.23013 3.99026,-3.88762 4.51492,-7.70453 5.90992,-4.69853 l 4.52762,9.40387 c 3.86138,7.66613 3.26138,7.66613 3.86138,7.66613 0.803,0 3.10078,-6.19389 4.39806,-9.43124 1.94935,-4.90854 2.06757,-5.48815 2.82794,-7.71376 0.722,-2.189 0.66445,-1.42302 1.861,0.30552 8.85216,12.18647 0.16216,0.24324 8.75081,12.24728 2.19354,3.58317 3.22551,4.67248 3.22551,4.67248 0,0 0.18368,-4.01528 0.20668,-17.93128 0.014,-8.772 0.083,-16.539 0.154,-17.259 0.2011,-11.30064 -0.18425,-13.23957 -0.44049,-16.21313 -0.967,-0.802 -43.29488,-1.26349 -44.09488,-0.46349"
         id="path4-5-9" />
    </g>
    <g
       id="g3377"
       inkscape:label="pico"
       transform="translate(5.9815771,-33.131969)">
      <path
         sodipodi:nodetypes="ccccccccsc"
         style="fill:#f2c06d;fill-rule:evenodd;stroke:#000000;stroke-opacity:1"
         inkscape:connector-curvature="0"
         d="m 279.41182,100.32506 c -1.078,0.628 -0.874,1.449 1.515,6.107 1.217,2.375 2.369,4.62 2.559,4.99 0.189,0.369 3.896,7.837 8.238,16.595 9.549,19.265 8.888,18.482 11.537,13.676 0.364,-0.66 0.884,-1.554 1.156,-1.986 3.488,-5.543 6.628,-10.656 12.907,-21.014 1.134,-1.87 3.737,-6.1 5.785,-9.4 4.353,-7.016 4.962,-8.281 4.303,-8.94 -0.609,-0.608997 -46.955,-0.635997 -48,-0.028"
         id="path4" />
    </g>
    <g
       id="g3386"
       inkscape:label="pecho">
      <path
         sodipodi:nodetypes="cssssscscssscccccsccccccccccccccssscsccscccsscscssccccccssccccccccsssscscccsssccccsssscccsssscccssscssssscccssssccccccscccsccccccccccscssssccsccccsccsscccsssccssscccccsssscsccscsccccccccscccsssssssssccsscccccccsssscccsssscccscscscccccsscsscccccccccccsssscccccccccccc"
         inkscape:transform-center-y="-286.00249"
         inkscape:transform-center-x="41.996831"
         style="fill:#c8c2c2;fill-rule:evenodd;stroke:#000000;stroke-opacity:1"
         inkscape:connector-curvature="0"
         d="m 235.54583,150.53264 c 0.892,1.886 1.622,3.592 1.622,3.79 0,0.199 0.18,0.361 0.4,0.361 0.22,0 0.404,0.225 0.409,0.5 0.005,0.275 0.361,0.95 0.791,1.5 0.43,0.55 0.786,1.315 0.791,1.7 0.005,0.385 0.144,0.701 0.309,0.703 0.321,0.003 1.3,1.909 1.3,2.531 0,0.412 -1.077,-0.976 -1.97,-2.537 -1.592,-2.785 -2.83,-5.338 -2.83,-5.838 0,-0.307 -0.159,-0.559 -0.353,-0.559 -0.195,0 -0.469,-0.315 -0.61,-0.7 -0.141,-0.385 -0.539,-1.209 -0.884,-1.832 -0.802,-1.447 -1.414,-3.553 -0.949,-3.266 0.193,0.12 1.082,1.761 1.974,3.647 m 45.622,-1.324 c 0,0.289 0.45,1.458 1,2.598 1.09,2.259 1.151,2.477 0.694,2.477 -0.168,0 -0.624,-0.737 -1.014,-1.637 -0.596,-1.375 -0.804,-1.558 -1.304,-1.143 -0.826,0.686 -0.99,0.377 -0.711,-1.341 0.224,-1.381 1.335,-2.175 1.335,-0.954 m 46.325,3.955 c -0.518,0.907 -0.527,0.902 -0.652,-0.406 -0.162,-1.687 0.857,-3.198 1.052,-1.561 0.068,0.576 -0.112,1.461 -0.4,1.967 m -48.095,1.823 c -0.483,0.483 -0.712,-0.312 -0.4,-1.384 l 0.325,-1.119 0.153,1.137 c 0.084,0.625 0.049,1.24 -0.078,1.366 m 51.052,1.23 c 0.175,0.074 0.318,0.479 0.318,0.9 0,0.422 0.18,0.767 0.4,0.767 0.22,0 0.4,0.264 0.4,0.586 0,0.671 1.586,3.632 3.26,6.086 0.627,0.92 1.14,1.773 1.14,1.896 0,0.219 3.383,4.801 4.19,5.676 0.226,0.245 0.868,0.965 1.428,1.6 0.56,0.636 1.796,1.786 2.747,2.556 0.951,0.77 1.933,1.587 2.182,1.815 0.249,0.229 1.173,0.76 2.053,1.182 1.271,0.609 1.439,0.8 0.815,0.93 -0.431,0.09 -0.851,-0.036 -0.933,-0.281 -0.082,-0.245 -0.46,-0.446 -0.841,-0.446 -0.883,0 -5.759,-4.106 -7.814,-6.581 -1.726,-2.079 -4.627,-6.132 -4.627,-6.465 0,-0.115 -0.514,-0.962 -1.141,-1.882 -1.544,-2.262 -4.859,-8.614 -4.859,-9.31 0,-0.309 -0.18,-0.562 -0.4,-0.562 -0.22,0 -0.391,-0.495 -0.38,-1.1 0.018,-0.995 0.102,-0.928 0.881,0.7 0.474,0.99 1.005,1.86 1.181,1.933 m 43.737,-1.233 c -0.466,2.586 -1.124,4.482 -1.48,4.262 -0.383,-0.237 -0.025,-2.156 0.513,-2.742 0.191,-0.209 0.348,-0.974 0.348,-1.7 0,-0.726 0.2,-1.32 0.445,-1.32 0.295,0 0.353,0.504 0.174,1.5 m -47.989,1.603 c -0.483,0.483 -0.712,-0.312 -0.4,-1.384 l 0.325,-1.119 0.153,1.137 c 0.084,0.625 0.049,1.24 -0.078,1.366 m -42.23,-0.879 c 0,0.317 0.135,0.577 0.3,0.579 0.359,0.004 1.3,1.941 1.3,2.677 0,0.286 0.18,0.52 0.4,0.52 0.22,0 0.4,0.36 0.4,0.8 0,0.44 0.175,0.8 0.39,0.8 0.214,0 0.689,0.585 1.056,1.3 0.366,0.715 0.787,1.39 0.936,1.5 0.149,0.11 0.881,1.096 1.626,2.191 2.688,3.947 5.999,7.476 8.517,9.076 1.141,0.725 2.135,1.457 2.208,1.626 0.074,0.169 0.479,0.307 0.9,0.307 0.422,0 0.767,0.18 0.767,0.4 0,0.24 1.608,0.4 4.024,0.4 2.699,0 3.938,0.138 3.765,0.419 -0.536,0.865 -6.998,0.247 -9.389,-0.898 -5.106,-2.446 -11.218,-9.3 -15.447,-17.321 -0.58,-1.1 -1.212,-2.06 -1.404,-2.133 -0.192,-0.074 -0.349,-0.468 -0.349,-0.877 0,-0.408 -0.18,-0.854 -0.4,-0.99 -0.22,-0.136 -0.4,-0.517 -0.4,-0.847 0,-0.33 0.18,-0.489 0.4,-0.353 0.22,0.136 0.4,0.507 0.4,0.824 m -5.503,1.929 c -1.778,3.951 -2.048,4.414 -2.072,3.547 -0.014,-0.495 0.155,-0.9 0.375,-0.9 0.22,0 0.4,-0.54 0.4,-1.2 0,-0.66 0.18,-1.2 0.4,-1.2 0.22,0 0.4,-0.42 0.4,-0.933 0,-0.514 0.135,-1.07 0.3,-1.236 0.471,-0.475 0.621,0.981 0.197,1.922 m 46.738,1.769 c -0.239,0.079 -0.435,0.492 -0.435,0.917 0,0.424 -0.164,1.084 -0.364,1.466 -0.2,0.382 -0.912,1.865 -1.582,3.295 -1.206,2.574 -2.209,4.36 -3.129,5.573 -2.431,3.205 -4.267,5.227 -4.747,5.227 -0.318,0 -0.578,0.141 -0.578,0.314 0,0.377 -2.143,1.686 -2.762,1.686 -0.241,0 -0.438,-0.18 -0.438,-0.4 0,-0.22 0.211,-0.4 0.468,-0.4 0.581,0 5.508,-3.68 5.522,-4.123 0.006,-0.178 0.535,-0.988 1.177,-1.8 1.402,-1.774 2.587,-3.747 3.469,-5.777 0.358,-0.825 0.811,-1.5 1.007,-1.5 0.197,0 0.357,-0.45 0.357,-1 0,-0.55 0.18,-1 0.4,-1 0.22,0 0.4,-0.439 0.4,-0.976 0,-0.537 0.157,-1.074 0.348,-1.192 0.192,-0.118 0.492,-0.804 0.666,-1.524 l 0.318,-1.308 0.169,1.188 c 0.093,0.654 -0.027,1.254 -0.266,1.334 m 46.8,2.8 c -0.239,0.079 -0.435,0.492 -0.435,0.917 0,0.424 -0.177,1.084 -0.394,1.466 -0.216,0.382 -0.929,1.865 -1.585,3.295 -1.356,2.959 -2.482,4.938 -2.921,5.133 -0.165,0.074 -0.3,0.314 -0.3,0.534 0,1.373 -6.621,6.916 -7.93,6.638 -0.458,-0.097 -0.191,-0.374 0.848,-0.878 1.855,-0.899 5.943,-4.797 6.985,-6.661 1.171,-2.094 3.761,-7.246 4.206,-8.366 0.219,-0.55 0.543,-1.36 0.719,-1.8 0.177,-0.44 0.464,-1.25 0.638,-1.8 l 0.316,-1 0.144,1.188 c 0.079,0.654 -0.052,1.254 -0.291,1.334 m -128.354,2.533 c 5.678,7.877 10.758,11.345 16.619,11.345 2.901,0 5.481,0.505 3.2,0.627 -3.55,0.189 -7.221,0.012 -7.599,-0.366 -0.253,-0.253 -0.785,-0.461 -1.181,-0.461 -0.396,0 -0.72,-0.18 -0.72,-0.4 0,-0.22 -0.204,-0.4 -0.452,-0.4 -0.689,0 -4.139,-2.586 -5.72,-4.287 -3.25,-3.496 -4.617,-5.139 -4.622,-5.551 -0.003,-0.241 -0.366,-0.764 -0.806,-1.162 -0.44,-0.398 -0.794,-1.011 -0.787,-1.362 0.014,-0.663 0.424,-0.263 2.068,2.017 m 32.161,-1.155 c -1.1,2.512 -1.645,3.494 -1.942,3.497 -0.165,0.002 -0.3,0.238 -0.3,0.525 0,1.759 -7.183,8.51 -8.711,8.187 -0.483,-0.102 -0.224,-0.371 0.867,-0.899 1.696,-0.822 6.244,-5.259 6.244,-6.093 0,-0.284 0.135,-0.518 0.3,-0.52 0.165,-0.002 0.498,-0.407 0.741,-0.9 2.009,-4.09 4.27,-7.155 2.801,-3.797 m 81.758,17.187 c 0,0.172 -1.62,0.313 -3.6,0.313 -1.98,0 -3.6,-0.151 -3.6,-0.335 0,-0.184 1.62,-0.325 3.6,-0.313 1.98,0.012 3.6,0.163 3.6,0.335 m -106.8,9.137 c 0,0.453 -0.18,0.712 -0.4,0.576 -0.22,-0.136 -0.4,-0.507 -0.4,-0.824 0,-0.317 0.18,-0.576 0.4,-0.576 0.22,0 0.4,0.371 0.4,0.824 m 6.971,12.576 c 2.437,3.481 6.71,7.741 8.829,8.8 0.88,0.44 1.66,0.935 1.733,1.1 0.28,0.629 4.723,0.297 6.292,-0.47 2.505,-1.225 6.975,-6.097 6.975,-7.602 0,-0.235 0.18,-0.428 0.4,-0.428 0.22,0 0.4,-0.36 0.4,-0.8 0,-0.44 0.18,-0.8 0.4,-0.8 0.723,0 0.422,0.917 -1.199,3.645 -1.616,2.721 -5.345,6.355 -6.521,6.355 -0.348,0 -0.744,0.18 -0.88,0.4 -0.876,1.417 -7.629,-0.041 -10.149,-2.19 -3.071,-2.621 -7.651,-7.88 -7.651,-8.785 0,-0.166 -0.354,-0.798 -0.786,-1.406 -1.422,-1.996 -4.414,-8.021 -4.414,-8.886 0,-0.467 1.038,1.203 2.306,3.709 1.268,2.507 3.188,5.818 4.265,7.358 m 33.454,-1.8 c 0.14,0.11 0.327,0.415 0.415,0.679 0.594,1.777 5.681,7.865 8.062,9.648 1.485,1.113 2.554,2.115 2.375,2.226 -0.682,0.421 -5.585,-3.762 -7.477,-6.379 -0.44,-0.608 -0.98,-1.301 -1.2,-1.54 -0.897,-0.974 -5,-7.701 -5,-8.199 0,-0.172 -0.298,-0.91 -0.662,-1.64 l -0.663,-1.328 -0.737,0.911 c -0.406,0.501 -0.738,1.24 -0.738,1.643 0,0.402 -0.18,0.843 -0.4,0.979 -0.22,0.136 -0.4,0.687 -0.4,1.224 0,0.537 -0.18,0.976 -0.4,0.976 -0.22,0 -0.4,0.45 -0.4,1 0,0.55 -0.18,1 -0.4,1 -0.22,0 -0.4,-0.349 -0.4,-0.776 0,-0.427 0.18,-0.888 0.4,-1.024 0.22,-0.136 0.4,-0.676 0.4,-1.2 0,-0.524 0.166,-1.055 0.369,-1.181 0.203,-0.125 0.488,-0.766 0.632,-1.424 0.144,-0.657 0.428,-1.195 0.631,-1.195 0.202,0 0.368,-1.032 0.368,-2.293 v -2.292 l 2.485,4.992 c 1.367,2.746 2.6,5.083 2.74,5.193 m 32.535,-3.886 c 1.827,3.801 2.955,5.747 5.963,10.286 1.639,2.473 6.162,6.81 8.238,7.9 1.833,0.962 6.941,1.305 7.439,0.5 0.136,-0.22 0.517,-0.4 0.846,-0.4 1.185,0 6.554,-6.219 6.554,-7.591 0,-0.225 0.18,-0.409 0.4,-0.409 0.22,0 0.4,-0.272 0.4,-0.605 0,-0.333 0.159,-0.918 0.353,-1.3 0.375,-0.737 0.979,-2.171 1.473,-3.495 0.28,-0.753 0.308,-0.757 0.473,-0.058 0.097,0.409 -0.021,0.94 -0.261,1.18 -0.241,0.241 -0.438,0.701 -0.438,1.021 0,0.804 -2.864,6.457 -3.271,6.457 -0.181,0 -0.329,0.234 -0.329,0.521 0,0.738 -3.24,3.974 -4.632,4.626 -0.643,0.3 -1.481,0.705 -1.863,0.9 -0.951,0.484 -5.4,0.447 -5.705,-0.047 -0.136,-0.22 -0.519,-0.4 -0.852,-0.4 -1.304,0 -5.587,-3.541 -7.948,-6.571 -0.66,-0.847 -1.417,-1.764 -1.682,-2.038 -0.265,-0.274 -0.967,-1.374 -1.56,-2.444 -0.594,-1.071 -1.191,-2.037 -1.327,-2.147 -0.136,-0.11 -0.863,-1.46 -1.616,-3 -0.752,-1.54 -1.671,-3.07 -2.041,-3.4 -0.665,-0.593 -1.381,-3.616 -0.849,-3.583 0.151,0.01 1.157,1.853 2.235,4.097 m 33.469,1.217 c -0.236,0.236 -0.429,0.933 -0.429,1.549 0,0.616 -0.18,1.12 -0.4,1.12 -0.57,0 -0.495,-0.998 0.2,-2.662 0.33,-0.789 0.629,-1.819 0.664,-2.287 0.035,-0.468 0.138,-0.243 0.229,0.5 0.091,0.743 -0.028,1.544 -0.264,1.78 m -36.199,0.572 c -0.483,0.483 -0.712,-0.312 -0.4,-1.384 l 0.325,-1.119 0.153,1.137 c 0.084,0.625 0.049,1.24 -0.078,1.366 m -0.943,2.65 c -3.909,8.456 -7.398,12.702 -10.346,12.587 -1.254,-0.049 -1.331,-0.091 -0.411,-0.229 0.621,-0.094 1.502,-0.472 1.957,-0.84 1.527,-1.238 3.306,-3.062 4.113,-4.215 0.44,-0.63 1.025,-1.382 1.3,-1.672 0.275,-0.29 0.5,-0.81 0.5,-1.155 0,-0.346 0.18,-0.629 0.4,-0.629 0.22,0 0.4,-0.272 0.4,-0.605 0,-0.333 0.159,-0.918 0.353,-1.3 0.375,-0.737 0.979,-2.171 1.473,-3.495 0.284,-0.762 0.306,-0.764 0.475,-0.047 0.098,0.413 0.002,1.133 -0.214,1.6 m -15.287,12.647 c 0,0.475 -0.695,0.475 -1.8,0 -0.67,-0.288 -0.589,-0.348 0.5,-0.372 0.715,-0.015 1.3,0.152 1.3,0.372 m 2.705,0.675 c -0.383,0.1 -1.103,0.104 -1.6,0.008 -0.498,-0.096 -0.185,-0.178 0.695,-0.182 0.88,-0.005 1.287,0.074 0.905,0.174"
         id="path2-6" />
    </g>
    <g
       id="g3374"
       inkscape:label="ojos"
       transform="translate(-415.39525,-12.165188)">
      <path
         sodipodi:nodetypes="ccccccccscccccccccccccscccccccccccscsscssscscssscssscscccccsssssscscssssscssscccsssscccsssscsscscssssssscssccccccssssssssccsccsssssssccccccscccsccc"
         style="fill:#f5f4f4;fill-rule:evenodd;stroke:#000400;stroke-width:1;stroke-opacity:1"
         inkscape:connector-curvature="0"
         d="m 651.45939,-31.653069 c -5.62801,1.035 -10.96601,2.413999 -13.60001,3.514 -0.44002,0.182999 -1.61,0.632997 -2.6,0.999 -5.706,2.109999 -13.509,7.329999 -18.85,12.608999 -8.686,8.5860022 -12.543,15.6749992 -15.509,28.506003 -0.532,2.299999 -0.588,14.618995 -0.076,16.647997 0.20101,0.794998 0.588,2.436002 0.859,3.646004 4.467,19.921995 23.281,37.216994 45.176,41.529996 5.64401,1.111997 7.40301,1.27 14.14301,1.27 6.662,0 8.545,-0.166028 14.057,-1.243001 18.351,-3.583002 36.107,-17.235 42.451,-32.639997 0.34402,-0.833998 0.857,-2.057002 1.141,-2.716998 2.643,-6.152003 3.964,-19.826001 2.576,-26.669004 -4.536,-22.3710008 -22.759,-40.014999 -45.968,-44.506999 -1.87,-0.362001 -4.269,-0.831001 -5.331,-1.041001 -2.39,-0.474 -15.748,-0.405 -18.469,0.095 m 124.582,1.725999 c -24.889,3.398 -45.708,21.0030042 -50.376,42.595999 -0.26098,1.210002 -0.63998,2.850999 -0.841,3.646004 -0.49701,1.967995 -0.46299,13.551999 0.0456,15.876994 0.22697,1.032002 0.60501,2.777004 0.841,3.877 3.847,17.914007 19.528,33.634 40.148,40.247001 5.171,1.658999 11.471,2.469002 19.2,2.469002 12.14,0 22.867,-2.548003 31.118,-7.389997 1.054,-0.62001 2.044,-1.139004 2.2,-1.154001 0.50996,-0.0508 5.152,-3.329005 7.951,-5.615001 8.902,-7.272997 14.397,-15.689997 18.119,-27.756999 1.598,-5.182002 2.04,-14.297004 0.99,-20.400002 -0.63564,-3.690996 -0.74864,-4.130996 -2.21064,-8.5999988 -4.829,-14.760999 -18.64,-28.4530002 -34.367,-34.0710012 -1.21,-0.431999 -2.56,-0.942999 -3,-1.133999 -5.811,-2.528001 -20.763,-3.828 -29.818,-2.591001 m -105.81,22.1620042 c 4.755,1.418998 6.972,2.240995 8.294,3.075994 0.835,0.52702 1.624,0.958 1.754,0.958 1.15,0 9.129,7.389004 9.611,8.900006 0.12302,0.384993 0.39099,0.699968 0.59602,0.699968 0.20503,0 0.37303,0.254969 0.37303,0.566998 0,0.310999 0.144,0.625973 0.32098,0.700042 0.51298,0.213002 3.279,5.9199978 3.279,6.7649958 0,0.422028 0.18,0.767999 0.39998,0.767999 0.21997,0 0.39997,0.799003 0.39997,1.775999 0,0.977002 0.18,1.887999 0.39997,2.024002 0.23603,0.146002 0.39998,2.530001 0.39998,5.800002 0,3.27 -0.16403,5.654 -0.39998,5.800001 -0.21997,0.135989 -0.39997,0.945999 -0.39997,1.799994 0,0.854002 -0.18,1.664005 -0.39997,1.800001 -0.21998,0.135988 -0.39998,0.582018 -0.39998,0.992001 0,0.828004 -2.775,6.531003 -3.279,6.741001 -0.17698,0.07399 -0.32098,0.388969 -0.32098,0.699968 0,0.312029 -0.18,0.566998 -0.39997,0.566998 -0.21998,0 -0.39998,0.178986 -0.39998,0.396995 0,0.878004 -6.027,7.031001 -7.275,7.427002 -0.39901,0.125975 -0.725,0.369016 -0.725,0.53902 0,0.465026 -6.73799,3.832 -8.8,4.397003 -0.99,0.271976 -2.35299,0.661977 -3.028,0.866997 -1.593,0.484021 -10.351,0.484021 -11.94399,0 -0.67502,-0.204976 -2.038,-0.591001 -3.02801,-0.858 -2.026,-0.546015 -7.72901,-3.173999 -7.933,-3.655001 -0.074,-0.173023 -0.29699,-0.314018 -0.49598,-0.314018 -1.53599,0 -10.37099,-9.500003 -10.37099,-11.150998 0,-0.247018 -0.18,-0.448975 -0.39998,-0.448975 -0.21997,0 -0.39997,-0.360034 -0.39997,-0.799997 0,-0.439993 -0.18,-0.800005 -0.39998,-0.800005 -0.21997,0 -0.39997,-0.323957 -0.39997,-0.719995 0,-0.395963 -0.15202,-0.890999 -0.33703,-1.100003 -0.18604,-0.209026 -0.64402,-1.460001 -1.019,-2.78 -0.37502,-1.32 -0.866,-3.03 -1.09101,-3.800002 -1.02499,-3.510995 0.43502,-16.147999 2.05301,-17.765995 0.216,-0.21602 0.39401,-0.718006 0.39401,-1.114 0,-0.395963 0.18,-0.719994 0.39997,-0.719994 0.21998,0 0.39998,-0.2780141 0.39998,-0.6180218 0,-2.007996 9.37099,-12.581998 11.14999,-12.581998 0.211,0 0.44297,-0.135031 0.51703,-0.300028 0.235,-0.529965 5.84101,-3.300003 6.67801,-3.300003 0.444,0 0.919,-0.180018 1.055,-0.400014 0.13597,-0.219996 0.856,-0.400013 1.6,-0.400013 0.744,0 1.464,-0.180017 1.6,-0.400013 0.31303,-0.506036 10.294,-0.534014 11.972,-0.03387 m 118.828,1.842999 c 0.88,0.161979 1.955,0.541966 2.389,0.842995 0.43399,0.300986 1.199,0.548003 1.7,0.548003 0.50098,0 0.911,0.180017 0.911,0.400013 0,0.219997 0.26503,0.400014 0.588,0.400014 0.67597,0 2.736,1.100003 5.61199,2.997 2.80201,1.848006 7.76301,7.144004 8.999,9.609 0.32996,0.6569703 0.70498,1.2840038 0.83401,1.3940018 0.432,0.369974 2.36699,4.743997 2.36699,5.351999 0,0.329994 0.18,0.712042 0.39998,0.848001 0.21997,0.135988 0.39997,0.921003 0.39997,1.744001 0,0.822998 0.19001,1.685997 0.42199,1.918002 1.724,1.723996 -0.47198,16.498999 -3.062,20.601996 -0.528,0.836001 -0.96,1.625999 -0.96,1.756002 0,1.107999 -7.833,9.779998 -8.833,9.779998 -0.21998,0 -0.787,0.360034 -1.258,0.799003 -1.129,1.051999 -6.168,3.600996 -7.117,3.600996 -0.40999,0 -0.844,0.161021 -0.966,0.357972 -0.54398,0.881002 -14.36,1.668004 -15.164,0.864001 -0.23198,-0.231997 -1.00501,-0.422028 -1.718,-0.422028 -0.71301,0 -1.408,-0.180017 -1.544,-0.400013 -0.13598,-0.219996 -0.777,-0.400013 -1.424,-0.400013 -0.64697,0 -1.176,-0.180017 -1.176,-0.400013 0,-0.219997 -0.27401,-0.400014 -0.60802,-0.400014 -0.33402,0 -1.279,-0.408996 -2.10001,-0.909001 -0.82099,-0.499998 -1.98699,-1.160002 -2.592,-1.467997 -0.605,-0.307023 -1.09999,-0.707993 -1.09999,-0.890999 0,-0.182005 -0.22602,-0.331983 -0.50202,-0.331983 -1.576,0 -8.504,-8.237999 -10.26,-12.200001 -0.29198,-0.659989 -0.65396,-1.469999 -0.803,-1.800001 -0.24,-0.527976 -0.769,-2.219996 -2.072,-6.627999 -0.48302,-1.632993 -0.46498,-9.989995 0.0243,-11.543995 0.21298,-0.675009 0.69703,-2.308003 1.076,-3.628002 0.37804,-1.32 1.01401,-2.989998 1.41301,-3.712003 0.39799,-0.721982 0.72397,-1.576993 0.72397,-1.899993 0,-0.323 0.18,-0.587982 0.39998,-0.587982 0.21997,0 0.39997,-0.192975 0.39997,-0.4279915 0,-2.0230013 9.949,-11.9720013 11.972,-11.9720013 0.235,0 0.42803,-0.180017 0.42803,-0.400014 0,-0.219996 0.36,-0.400013 0.8,-0.400013 0.44002,0 0.8,-0.180017 0.8,-0.400013 0,-0.219997 0.27202,-0.400014 0.605,-0.400014 0.61097,0 0.9,-0.116035 3.327,-1.332001 0.73303,-0.367985 1.813,-0.670959 2.4,-0.673977 0.588,-0.003 1.338,-0.185981 1.668,-0.405977 0.65403,-0.436017 9.927,-0.273008 12.6,0.221027 m -111.60033,6.590972 c -0.13598,0.219996 -0.59301,0.400013 -1.015,0.400013 -1.129,0 -4.785,3.842999 -4.785,5.03 0,0.532983 -0.18,0.970001 -0.39997,0.970001 -0.22196,0 -0.39997,1.058993 -0.39997,2.375997 0,1.3069968 0.17999,2.4879968 0.39997,2.6239998 0.21997,0.135989 0.39997,0.585037 0.39997,0.997 0,1.014 3.747,4.803002 4.75,4.803002 0.44201,0 0.914,0.180017 1.05,0.400013 0.832,1.346998 7.187,-0.161979 9.212,-2.187998 4.122,-4.120999 2.994,-12.2780018 -2.012,-14.5590048 -0.66,-0.300029 -1.513,-0.704975 -1.895,-0.899997 -0.949,-0.48299 -5,-0.446987 -5.305,0.04712 m 84.706,2.241996 c -2.18,1.055003 -4.506,3.443001 -4.506,4.626003 0,0.376012 -0.18,0.796 -0.39998,0.931995 -0.49398,0.305035 -0.52998,4.3560008 -0.0471,5.3050028 0.19502,0.381975 0.6,1.234998 0.9,1.895002 3.706,8.133994 17.147,4.841 17.147,-4.202003 0,-3.7249978 -2.863,-8.1110008 -5.66,-8.6700028 -0.636,-0.127006 -1.254,-0.388012 -1.372,-0.579957 -0.44503,-0.719995 -3.973,-0.316005 -6.062,0.694004"
         id="path1-8-3" />
      <path
         transform="matrix(7.3619411,0,0,7.3626599,132.50686,-98.016006)"
         inkscape:connector-curvature="0"
         id="path3367"
         d="m 72.164972,12.188061 c -0.297151,0.0071 -0.601907,-0.0015 -0.885962,0.09563 -0.135947,0.01032 -0.267822,0.04276 -0.38488,0.110754 -0.328602,0.08362 -0.63699,0.243146 -0.922898,0.423125 -0.09831,0.09708 -0.24708,0.111322 -0.344361,0.216007 -0.453421,0.394854 -0.857416,0.85054 -1.194926,1.348138 -0.06869,0.08561 -0.08672,0.1957 -0.127662,0.290974 -0.09652,0.104597 -0.110281,0.25375 -0.193263,0.367968 -0.201194,0.524442 -0.237142,1.09599 -0.260273,1.652315 0.0063,0.273106 -0.04063,0.555021 0.06986,0.813878 0.08327,0.296711 0.17621,0.592927 0.292529,0.876984 -0.0033,0.109713 0.126437,0.15229 0.120585,0.263482 0.03974,0.08253 0.116496,0.136526 0.129346,0.231847 0.260221,0.419585 0.615932,0.771828 0.963339,1.119342 0.144221,0.152384 0.318097,0.267558 0.498478,0.370226 0.51229,0.305209 1.079421,0.528629 1.666647,0.636888 0.4594,0.01941 0.920378,0.0089 1.379514,-0.0016 0.575192,-0.164465 1.148157,-0.37674 1.645801,-0.713969 0.159125,-0.121313 0.335952,-0.21945 0.47375,-0.368702 0.251115,-0.242669 0.50556,-0.492466 0.694936,-0.785612 0.08498,-0.07559 0.101735,-0.199128 0.181653,-0.28217 0.172187,-0.302143 0.3232,-0.618563 0.42593,-0.950822 0.09038,-0.180338 0.05743,-0.394512 0.142639,-0.577502 0.03676,-0.437571 0.01897,-0.87923 0.01173,-1.318056 -0.01514,-0.182021 -0.09897,-0.351453 -0.09352,-0.537668 -0.0061,-0.139666 -0.116491,-0.238112 -0.135562,-0.375087 -0.119907,-0.318808 -0.274178,-0.628089 -0.462829,-0.909694 -0.03569,-0.124976 -0.263876,-0.247541 -0.319976,-0.07384 0.01008,0.220894 0.09146,0.43996 0.04647,0.664264 -0.03839,0.384936 -0.267277,0.762845 -0.640713,0.901919 -0.267846,0.113785 -0.571527,0.187756 -0.860713,0.13758 -0.09803,-0.104848 -0.257735,-0.07493 -0.354805,-0.182342 -0.177103,-0.157645 -0.379796,-0.31898 -0.468225,-0.545092 -0.03445,-0.117058 -0.111003,-0.219365 -0.10289,-0.348591 -0.01053,-0.182469 -0.0174,-0.379629 0.08597,-0.538357 0.0715,-0.292972 0.320146,-0.503004 0.54768,-0.682334 0.09616,-0.04019 0.196455,-0.07768 0.293434,-0.11847 0.207358,-0.01336 0.421279,-0.01677 0.625583,1.97e-4 0.134373,0.04204 0.269914,0.178514 0.416907,0.129797 0.124335,-0.105979 -0.03421,-0.230522 -0.115493,-0.300711 -0.278998,-0.252734 -0.592034,-0.464372 -0.93524,-0.619815 -0.376467,-0.16659 -0.767459,-0.316609 -1.174037,-0.388641 -0.243586,-0.02979 -0.489455,-0.03339 -0.734556,-0.0322 z"
         style="opacity:1;fill:#000000;fill-opacity:1;fill-rule:evenodd;stroke:#000400;stroke-width:0.00220971;stroke-linecap:round;stroke-linejoin:round;stroke-miterlimit:4;stroke-dasharray:none;stroke-opacity:1" />
      <path
         inkscape:connector-curvature="0"
         id="path3369"
         d="m 88.210621,12.448668 c -0.515527,0.003 -1.055736,0.01016 -1.519213,0.267552 -0.121367,0.06877 -0.275849,0.05749 -0.363905,0.172938 -0.128491,0.01651 -0.189704,0.134587 -0.313354,0.155823 -0.217864,0.140063 -0.472102,0.279651 -0.599487,0.511902 -0.01531,0.190262 0.223853,0.138261 0.332153,0.08923 0.223862,-0.04479 0.483888,-0.128621 0.685974,0.02154 0.502726,0.130631 0.815594,0.651953 0.848877,1.147827 0.04182,0.637831 -0.521834,1.187155 -1.140625,1.226685 -0.449919,0.06887 -0.917534,-0.16435 -1.127197,-0.569275 -0.206282,-0.314529 -0.219984,-0.71306 -0.137146,-1.068177 -0.01051,-0.177233 -0.232612,-0.124756 -0.283264,-4.88e-4 -0.08689,0.135788 -0.14708,0.284225 -0.243897,0.411072 -0.172907,0.447037 -0.373252,0.895402 -0.456399,1.367248 0.01015,0.477754 -0.0192,0.960693 0.0148,1.435327 0.195218,0.670625 0.441157,1.341892 0.889892,1.888518 0.26297,0.31665 0.509879,0.673452 0.863049,0.894234 0.304416,0.200985 0.618465,0.413772 0.96228,0.537659 0.131734,0.10955 0.324268,0.082 0.471252,0.17072 0.262785,0.04977 0.519802,0.140635 0.79242,0.117244 0.540058,-0.02363 1.101711,0.01489 1.621032,-0.158264 0.449492,-0.121753 0.863219,-0.35626 1.241089,-0.627198 0.413191,-0.269397 0.739341,-0.678446 1.052749,-1.061939 0.581057,-0.804573 0.769031,-1.820386 0.813501,-2.792735 0.02162,-0.269146 -0.06915,-0.523698 -0.131325,-0.778443 -0.0098,-0.217032 -0.130457,-0.405977 -0.190354,-0.610254 -0.437263,-1.019382 -1.233368,-1.900617 -2.245376,-2.36875 -0.17204,-0.07669 -0.338447,-0.160552 -0.520691,-0.21399 -0.409193,-0.191938 -0.877143,-0.160143 -1.316834,-0.166015 z m -3.753479,2.247741 c 0.0015,-0.0013 0.0085,-0.0022 0,0 z"
         style="opacity:1;fill:#000000;fill-opacity:1;fill-rule:evenodd;stroke:#000400;stroke-width:0.003125;stroke-linecap:round;stroke-linejoin:round;stroke-miterlimit:4;stroke-dasharray:none;stroke-opacity:1"
         transform="matrix(7.3619411,0,0,7.3626599,132.50686,-98.016006)" />
      <ellipse
         style="opacity:1;fill:#916f6f;fill-opacity:1;fill-rule:evenodd;stroke:none;stroke-width:2.78260183;stroke-linecap:round;stroke-linejoin:round;stroke-miterlimit:4;stroke-dasharray:none;stroke-opacity:1;filter:url(#filter30-5)"
         id="path28-0"
         cx="558.39642"
         cy="-43.549515"
         rx="60.190651"
         ry="40.673332"
         transform="matrix(0.97759474,0,0,1.3320405,117.69594,87.333267)" />
      <ellipse
         style="opacity:1;fill:#916f6f;fill-opacity:1;fill-rule:evenodd;stroke:none;stroke-width:2.78260183;stroke-linecap:round;stroke-linejoin:round;stroke-miterlimit:4;stroke-dasharray:none;stroke-opacity:1;filter:url(#filter30)"
         id="path28"
         cx="558.39642"
         cy="-43.549515"
         rx="60.190651"
         ry="40.673332"
         transform="matrix(0.97759471,0,0,1.3320405,117.60066,92.227612)" />
      <ellipse
         style="opacity:1;fill:#916f6f;fill-opacity:1;fill-rule:evenodd;stroke:none;stroke-width:2.78260183;stroke-linecap:round;stroke-linejoin:round;stroke-miterlimit:4;stroke-dasharray:none;stroke-opacity:1;filter:url(#filter30-5-2)"
         id="path28-0-5"
         cx="558.39642"
         cy="-43.549515"
         rx="60.190651"
         ry="40.673332"
         transform="matrix(0.97759474,0,0,1.3320405,240.59492,89.474771)" />
      <ellipse
         style="opacity:1;fill:#916f6f;fill-opacity:1;fill-rule:evenodd;stroke:none;stroke-width:2.78260183;stroke-linecap:round;stroke-linejoin:round;stroke-miterlimit:4;stroke-dasharray:none;stroke-opacity:1;filter:url(#filter30-1)"
         id="path28-7"
         cx="558.39642"
         cy="-43.549515"
         rx="60.190651"
         ry="40.673332"
         transform="matrix(0.97759474,0,0,1.3320405,240.49965,94.369122)" />
      <path
         style="opacity:1;fill:#ffffff;fill-opacity:1;fill-rule:evenodd;stroke:#000400;stroke-width:0.00625;stroke-linecap:round;stroke-linejoin:round;stroke-miterlimit:4;stroke-dasharray:none;stroke-opacity:1"
         d="m 67.059473,9.9907564 c -3.027467,-0.056725 -6.085263,1.6393986 -7.464444,4.3643186 -1.053047,2.137125 -0.93042,4.838101 0.43994,6.807213 1.441647,2.129259 3.904282,3.545285 6.486591,3.61369 2.204438,0.142299 4.496031,-0.463375 6.185618,-1.926335 1.330166,-1.070644 2.346004,-2.593535 2.558716,-4.311889 0.182387,-1.287518 0.141986,-2.650482 -0.452271,-3.834595 -1.237145,-2.914156 -4.381333,-4.7439394 -7.501321,-4.7115477 -0.08428,-0.00109 -0.168547,-0.00139 -0.252829,-8.549e-4 z m 0.431885,3.2451176 c 1.230728,-0.04023 2.44719,0.51296 3.24414,1.443603 0.50101,0.482551 0.800312,1.150701 1.027222,1.801636 0.191441,1.02746 0.184608,2.136193 -0.316284,3.088501 -0.71633,1.508066 -2.377085,2.566515 -4.066406,2.443604 -0.996029,-0.01125 -1.974259,-0.437124 -2.713135,-1.093262 -0.550402,-0.538497 -1.032828,-1.166408 -1.240137,-1.913244 -0.362749,-0.988713 -0.250443,-2.116697 0.119165,-3.093226 0.669856,-1.532246 2.239631,-2.719903 3.945435,-2.677612 z"
         id="path3394"
         inkscape:connector-curvature="0"
         transform="matrix(7.3619411,0,0,7.3626599,166.83716,-105.53657)" />
      <path
         style="opacity:1;fill:#ffffff;fill-opacity:1;fill-rule:evenodd;stroke:#000400;stroke-width:0.00625;stroke-linecap:round;stroke-linejoin:round;stroke-miterlimit:4;stroke-dasharray:none;stroke-opacity:1"
         d="m 83.573389,10.235996 c -1.590758,-0.01888 -3.145185,0.572988 -4.474954,1.414827 -1.665711,1.091476 -2.936611,2.858212 -3.271628,4.836393 -0.214661,1.665701 0.02146,3.44561 0.997789,4.849865 1.323681,1.925412 3.473625,3.307122 5.797865,3.618031 1.529498,0.07524 3.125313,0.124507 4.569336,-0.470703 2.436771,-0.89833 4.432737,-3.029672 4.942016,-5.604778 0.50262,-2.449665 -0.55954,-5.054809 -2.466594,-6.626586 -1.506684,-1.268723 -3.450786,-2.065283 -5.437178,-2.014471 -0.21886,-0.0038 -0.43777,-0.0027 -0.656652,-0.0026 z m -0.217163,3.228515 c 1.078566,-0.04657 2.174108,0.287091 2.980387,1.020543 0.76425,0.63014 1.27806,1.517395 1.514146,2.474521 0.222395,0.814874 -0.01466,1.654693 -0.226285,2.446442 -0.338948,1.049425 -1.193651,1.893989 -2.154478,2.425071 -0.671104,0.377045 -1.444646,0.375565 -2.18689,0.420655 -1.198053,-0.04152 -2.312584,-0.700582 -3.058472,-1.636475 -0.664506,-0.800243 -1.063145,-1.834111 -0.978699,-2.881464 -0.02545,-0.847855 0.277604,-1.690519 0.750184,-2.384283 0.600831,-0.699082 1.284062,-1.402739 2.203124,-1.666138 0.37247,-0.143272 0.756288,-0.230546 1.156983,-0.218872 z"
         id="path3396"
         inkscape:connector-curvature="0"
         transform="matrix(7.3619411,0,0,7.3626599,166.83716,-105.53657)" />
      <path
         style="opacity:0.6520004;fill:#ffffff;fill-opacity:1;fill-rule:evenodd;stroke:#000000;stroke-width:0.003125;stroke-linecap:round;stroke-linejoin:round;stroke-miterlimit:4;stroke-dasharray:none;stroke-opacity:1"
         d="m 17.898721,11.781706 c -0.231165,-0.01268 -0.451208,0.09371 -0.623963,0.239624 -0.189283,0.169921 -0.381192,0.359376 -0.438781,0.61554 -0.102118,0.26458 -0.06855,0.577033 0.07074,0.821655 0.01734,0.09023 0.09142,0.142175 0.180481,0.09247 0.611579,-0.120295 1.253569,-0.119445 1.861756,0.002 0.157641,-0.132179 0.126251,-0.385011 0.147437,-0.57092 0.05599,-0.463489 -0.235917,-0.916985 -0.657794,-1.099639 -0.162402,-0.104102 -0.353702,-0.107222 -0.539875,-0.100681 z"
         id="path993"
         inkscape:connector-curvature="0"
         transform="matrix(7.3619411,0,0,7.3626599,547.90211,-85.850818)" />
      <path
         style="opacity:0.6520004;fill:#ffffff;fill-opacity:1;fill-rule:evenodd;stroke:#000000;stroke-width:0.003125;stroke-linecap:round;stroke-linejoin:round;stroke-miterlimit:4;stroke-dasharray:none;stroke-opacity:1"
         d="m 17.929666,11.797087 c -0.440449,-0.02396 -0.787912,0.319294 -1.007691,0.664063 -0.176125,0.333275 -0.184817,0.79159 0.06451,1.089721 0.180314,0.0032 0.365901,-0.06976 0.551645,-0.06821 0.462275,-0.04538 0.927288,-0.01303 1.385916,0.04391 0.140796,-0.03127 0.122434,-0.236967 0.147217,-0.348877 0.02059,-0.331787 0.02341,-0.704495 -0.226318,-0.9599 -0.226785,-0.263467 -0.554481,-0.468375 -0.915283,-0.420715 z"
         id="path995"
         inkscape:connector-curvature="0"
         transform="matrix(7.3619411,0,0,7.3626599,547.90211,-85.850818)" />
      <path
         style="opacity:0.6520004;fill:#ffffff;fill-opacity:1;fill-rule:evenodd;stroke:#000000;stroke-width:0.003125;stroke-linecap:round;stroke-linejoin:round;stroke-miterlimit:4;stroke-dasharray:none;stroke-opacity:1"
         d="m 17.974221,11.801482 c -0.492255,-0.01471 -0.908714,0.369785 -1.094604,0.798462 -0.10976,0.309495 -0.09292,0.671511 0.09936,0.943176 0.613998,-0.103016 1.236657,-0.09753 1.855163,-0.04773 0.08746,0.01411 0.194304,-0.0014 0.192994,-0.112732 0.09815,-0.436865 0.06656,-0.967374 -0.310303,-1.268188 -0.197771,-0.196793 -0.457317,-0.331177 -0.742615,-0.312988 z"
         id="path997"
         inkscape:connector-curvature="0"
         transform="matrix(7.3619411,0,0,7.3626599,547.90211,-85.850818)" />
      <path
         style="opacity:0.6520004;fill:#ffffff;fill-opacity:1;fill-rule:evenodd;stroke:#000000;stroke-width:0.003125;stroke-linecap:round;stroke-linejoin:round;stroke-miterlimit:4;stroke-dasharray:none;stroke-opacity:1"
         d="m 29.722268,11.98593 c -0.460378,0.02434 -0.954056,0.26094 -1.1521,0.695495 -0.04038,0.131095 -0.124918,0.242088 -0.10139,0.389204 -0.04075,0.405171 0.156163,0.817744 0.467723,1.071002 0.107938,0.09359 0.267597,0.156952 0.38446,0.03607 0.41879,-0.266489 0.891117,-0.427827 1.367005,-0.556396 0.156618,-0.12451 0.09713,-0.367815 0.100464,-0.54303 -0.05179,-0.464581 -0.387669,-0.910828 -0.851746,-1.026184 -0.06921,-0.04117 -0.124738,-0.08427 -0.214416,-0.06616 z"
         id="path999"
         inkscape:connector-curvature="0"
         transform="matrix(7.3619411,0,0,7.3626599,547.90211,-85.850818)" />
      <path
         style="opacity:0.6520004;fill:#ffffff;fill-opacity:1;fill-rule:evenodd;stroke:#000000;stroke-width:0.003125;stroke-linecap:round;stroke-linejoin:round;stroke-miterlimit:4;stroke-dasharray:none;stroke-opacity:1"
         d="m 29.695168,11.993132 c -0.616759,0.03359 -1.246404,0.532653 -1.225281,1.187317 0.0226,0.392193 0.224254,0.801313 0.564942,1.009155 0.232653,0.104565 0.429461,-0.153928 0.637512,-0.214477 0.331321,-0.176707 0.711485,-0.238778 1.043152,-0.408631 0.145054,-0.244653 0.05596,-0.558617 -0.02698,-0.812256 -0.147822,-0.403601 -0.546941,-0.667317 -0.950806,-0.76123 -0.01417,-6.36e-4 -0.02837,-7.07e-4 -0.04254,1.22e-4 z"
         id="path1001"
         inkscape:connector-curvature="0"
         transform="matrix(7.3619411,0,0,7.3626599,547.90211,-85.850818)" />
      <path
         style="opacity:0.65200034;fill:#ffffff;fill-opacity:1;fill-rule:evenodd;stroke:#000000;stroke-width:0.003125;stroke-linecap:round;stroke-linejoin:round;stroke-miterlimit:4;stroke-dasharray:none;stroke-opacity:1"
         d="m 29.628518,12.011809 c -0.607009,0.05974 -1.208023,0.601987 -1.14087,1.245544 0.05325,0.368931 0.249301,0.7709 0.605774,0.926209 0.237837,0.05629 0.405633,-0.183109 0.620118,-0.238098 0.32303,-0.15535 0.692985,-0.218724 0.996154,-0.408387 0.143085,-0.310309 0.02673,-0.683249 -0.135254,-0.965088 -0.203981,-0.310269 -0.569117,-0.551759 -0.945922,-0.56018 z"
         id="path1003"
         inkscape:connector-curvature="0"
         transform="matrix(7.3619411,0,0,7.3626599,547.90211,-85.850818)" />
    </g>
    <g
       id="g971"
       transform="translate(-316.52356,-1.2321902)"
       style="opacity:0.6520004"
       inkscape:label="anteojos">
      <ellipse
         ry="27.324312"
         rx="29.273849"
         cy="30.053961"
         cx="581.65448"
         id="path85"
         style="opacity:1;fill:#916f6f;fill-opacity:1;fill-rule:evenodd;stroke:#000000;stroke-width:0.86706704;stroke-linecap:round;stroke-linejoin:round;stroke-miterlimit:4;stroke-dasharray:none;stroke-opacity:1" />
      <ellipse
         ry="27.324312"
         rx="29.273849"
         cy="30.704735"
         cx="681.40369"
         id="path85-8"
         style="opacity:1;fill:#916f6f;fill-opacity:1;fill-rule:evenodd;stroke:#000000;stroke-width:0.86706704;stroke-linecap:round;stroke-linejoin:round;stroke-miterlimit:4;stroke-dasharray:none;stroke-opacity:1" />
      <path
         inkscape:path-effect="#path-effect939"
         transform="translate(0.48803234,-5.1196397)"
         sodipodi:nodetypes="csc"
         inkscape:original-d="m 609.53762,28.75975 c 6.52575,-1.311165 14.82308,-12.007614 21.16558,-13.969083 7.5491,-2.334618 14.82879,13.321378 21.56987,14.785936"
         inkscape:connector-curvature="0"
         id="path937"
         d="m 609.53762,28.75975 c 1.76572,-4.111746 4.75687,-7.688103 8.49163,-10.153012 3.73476,-2.464908 8.19911,-3.809104 12.67395,-3.816071 4.63381,-0.0072 9.25985,1.422178 13.08189,4.042148 3.82204,2.61997 6.82357,6.41921 8.48798,10.743788"
         style="fill:none;stroke:#000000;stroke-width:0.73623008;stroke-linecap:butt;stroke-linejoin:miter;stroke-miterlimit:4;stroke-dasharray:none;stroke-opacity:1" />
      <path
         inkscape:path-effect="#path-effect939-4"
         transform="translate(0.05346099,-8.0077466)"
         sodipodi:nodetypes="csc"
         inkscape:original-d="m 608.71606,28.613408 c 6.52575,-1.311165 28.50214,-13.661256 21.87211,-13.319712 -19.06152,0.981947 16.16038,12.577764 22.9945,14.0297"
         inkscape:connector-curvature="0"
         id="path937-4"
         d="m 608.71606,28.613408 c 2.11371,-3.945823 5.29832,-7.311298 9.12148,-9.639536 3.82317,-2.328238 8.27483,-3.613107 12.75063,-3.680176 4.73498,-0.07095 9.48263,1.224752 13.52512,3.691204 4.04248,2.466451 7.36647,6.095523 9.46938,10.338496"
         style="fill:none;stroke:#000000;stroke-width:0.73623008;stroke-linecap:butt;stroke-linejoin:miter;stroke-miterlimit:4;stroke-dasharray:none;stroke-opacity:1" />
      <path
         style="fill:none;stroke:#000000;stroke-width:0.73623008;stroke-linecap:butt;stroke-linejoin:miter;stroke-miterlimit:4;stroke-dasharray:none;stroke-opacity:1"
         d="m 705.35788,-42.796097 c 14.77783,-11.273956 28.27289,-24.228002 40.14173,-38.532439 0.80853,-0.97445 1.65244,-1.988581 2.80902,-2.503933 0.78584,-0.350156 1.68422,-0.442158 2.52472,-0.258554 0.84051,0.183604 1.61869,0.641841 2.18694,1.287791 0.56825,0.64595 0.92355,1.476195 0.99852,2.333246 0.075,0.857051 -0.13079,1.736374 -0.57826,2.471173"
         id="path977"
         inkscape:connector-curvature="0"
         inkscape:path-effect="#path-effect979"
         inkscape:original-d="m 705.35788,-42.796097 c 10.85072,-8.044668 27.32123,-26.804407 40.14173,-38.532439 0.95801,-0.876377 1.89564,-1.713489 2.80902,-2.503933 1.55748,-1.347851 3.73463,6.873402 5.13192,5.833656"
         sodipodi:nodetypes="cssc"
         transform="translate(4.1410917,79.608757)" />
      <path
         style="fill:none;stroke:#000000;stroke-width:0.73623008;stroke-linecap:butt;stroke-linejoin:miter;stroke-miterlimit:4;stroke-dasharray:none;stroke-opacity:1"
         d="m 553.05772,-34.052939 c -20.41408,-14.765194 -38.72681,-32.431129 -54.2162,-52.301316 -0.60586,-0.777209 -1.20955,-1.560201 -1.90704,-2.256352 -0.69749,-0.696151 -1.49635,-1.30736 -2.40793,-1.681712 -1.03889,-0.426632 -2.20814,-0.529357 -3.3055,-0.290405 -1.09736,0.238953 -2.11804,0.81854 -2.88548,1.638503 -0.76744,0.819963 -1.27828,1.876724 -1.44417,2.98748 -0.16589,1.110757 0.0139,2.270663 0.50828,3.279074"
         id="path981"
         inkscape:connector-curvature="0"
         inkscape:path-effect="#path-effect983"
         inkscape:original-d="m 553.05772,-34.052939 c -18.06579,-17.440041 -36.13786,-34.873813 -54.2162,-52.301316 -0.87294,-0.841518 -2.66455,-2.448636 -4.31497,-3.938064 -1.21068,-1.092577 -6.48648,8.231914 -7.12687,7.614652"
         sodipodi:nodetypes="cssc"
         transform="translate(0.9202426,73.626596)" />
      <path
         transform="matrix(7.3619411,0,0,7.3626599,132.50686,-98.016006)"
         inkscape:connector-curvature="0"
         id="path964"
         d="m 67.670649,14.353629 c -0.957967,0.009 -1.904562,0.446082 -2.5193,1.18334 -0.138162,0.161471 -0.269011,0.333553 -0.367571,0.521127 0.0391,0.07594 0.04181,0.18781 0.1091,0.243927 0.102624,-0.112707 0.158779,-0.266368 0.256011,-0.386294 0.607379,-0.863293 1.669193,-1.385864 2.722444,-1.329526 1.054893,0.03081 2.072233,0.63518 2.606494,1.546744 0.06847,0.09717 0.100878,0.2201 0.181103,0.307199 0.04908,-0.02994 0.04913,-0.115988 0.0781,-0.164511 0.0253,-0.07876 -0.06457,-0.148496 -0.08915,-0.221903 -0.594061,-1.047894 -1.771063,-1.726063 -2.977234,-1.700103 z"
         style="opacity:1;fill:#916f6f;fill-opacity:1;fill-rule:evenodd;stroke:#000000;stroke-width:0.0015625;stroke-linecap:round;stroke-linejoin:round;stroke-miterlimit:4;stroke-dasharray:none;stroke-opacity:1" />
    </g>
  </g>
</svg>
