<?xml version="1.0" encoding="UTF-8" standalone="no"?>
<svg
   xmlns:dc="http://purl.org/dc/elements/1.1/"
   xmlns:cc="http://creativecommons.org/ns#"
   xmlns:rdf="http://www.w3.org/1999/02/22-rdf-syntax-ns#"
   xmlns:svg="http://www.w3.org/2000/svg"
   xmlns="http://www.w3.org/2000/svg"
   xmlns:sodipodi="http://sodipodi.sourceforge.net/DTD/sodipodi-0.dtd"
   xmlns:inkscape="http://www.inkscape.org/namespaces/inkscape"
   id="svg"
   version="1.1"
   width="53.96661"
   height="57.988361"
   viewBox="0 0 53.96661 57.988361"
   sodipodi:docname="buho_bebe.svg"
   inkscape:version="0.92.4 (5da689c313, 2019-01-14)">
  <metadata
     id="metadata13">
    <rdf:RDF>
      <cc:Work
         rdf:about="">
        <dc:format>image/svg+xml</dc:format>
        <dc:type
           rdf:resource="http://purl.org/dc/dcmitype/StillImage" />
        <dc:title></dc:title>
      </cc:Work>
    </rdf:RDF>
  </metadata>
  <defs
     id="defs11">
    <inkscape:path-effect
       effect="spiro"
       id="path-effect3059"
       is_visible="true" />
    <inkscape:path-effect
       effect="spiro"
       id="path-effect3045"
       is_visible="true" />
    <inkscape:path-effect
       effect="spiro"
       id="path-effect3041"
       is_visible="true" />
  </defs>
  <sodipodi:namedview
     pagecolor="#ffffff"
     bordercolor="#666666"
     borderopacity="1"
     objecttolerance="10"
     gridtolerance="10"
     guidetolerance="10"
     inkscape:pageopacity="0"
     inkscape:pageshadow="2"
     inkscape:window-width="1366"
     inkscape:window-height="705"
     id="namedview9"
     showgrid="false"
     inkscape:zoom="0.5"
     inkscape:cx="186.11625"
     inkscape:cy="80.193219"
     inkscape:window-x="-8"
     inkscape:window-y="-8"
     inkscape:window-maximized="1"
     inkscape:current-layer="svg"
     showguides="false"
     fit-margin-top="0"
     fit-margin-left="0"
     fit-margin-right="0"
     fit-margin-bottom="0" />
  <g
     id="svgg"
     transform="matrix(0.13169003,0,0,0.12855027,-14.057771,11.218442)">
    <path
       id="path0"
       d="m 227.80979,-27.037431 c -3.91409,0.62344 -11.43717,2.28087 -12.44256,2.74229 -0.59283,0.27159 -2.87055,1.23149 -5.06334,2.13425 -10.4699,4.31328 -26.1765,19.5200998 -26.1765,25.3457198 0,0.50309 -0.28081,1.39662 -0.62577,1.98612 -3.91234,6.7006202 -3.94182,23.7454102 -0.059,32.5540602 0.29988,0.67902 0.94993,2.20679 1.4457,3.39507 4.7721,11.44137 20.0072,23.36269 34.60094,27.07412 9.35184,2.37809 26.58558,1.77315 33.27835,-1.16822 0.57376,-0.25308 3.51194,-1.53087 6.52809,-2.8426 9.16118,-3.98303 18.60834,-12.73458 23.22968,-21.52008 4.36996,-8.30867 5.19162,-11.61114 5.21935,-20.98769 0.0295,-10.35342 -0.75924,-13.3457002 -6.09995,-23.1281302 l -2.17891,-3.99229 -0.35707,4.60957997 C 278.18314,11.116949 264.93975,17.859229 253.68113,12.112309 c -3.46685,-1.7716 -7.15039,-5.2206902 -7.15039,-6.6990802 0,-0.39198 -0.31203,-0.71297 -0.69337,-0.71297 -1.43875,0 -0.82338,-10.86575 0.76098,-13.40742 3.45819,-5.5478498 7.44507,-7.4953798 15.8262,-7.7268698 l 5.83992,-0.16203 -3.06643,-1.85186 c -1.68664,-1.01852 -3.17045,-2.06018 -3.297,-2.31482 -0.12817,-0.25462 -0.61189,-0.46295 -1.07819,-0.46295 -0.46456,0 -2.4996,-0.73457 -4.52251,-1.63118 -7.07065,-3.13581 -21.63492,-5.27471 -28.49062,-4.18056"
       inkscape:connector-curvature="0"
       style="fill:#3d3c36;fill-rule:evenodd;stroke:#000000;stroke-width:1.63555729;stroke-opacity:1"
       sodipodi:nodetypes="cccsccccccccccccsscccccscc" />
    <path
       id="path1-6"
       d="m 188.39065,-85.151771 c 0.99,0.678 1.86,1.368 1.933,1.533 0.074,0.165 0.288,0.3 0.476,0.3 0.295,0 7.122,4.354 26.591,16.961 5.09002,3.296 4.90302,3.201 11.20002,5.643 2.64,1.024 5.16,2.014 5.6,2.2 0.44,0.186 6.92,2.707 14.4,5.603 7.48,2.896 14.363,5.609 15.296,6.029 0.932,0.42 1.802,0.764 1.931,0.764 0.286,0 5.787,2.1 8.173,3.121 2.622,1.12 10.46,4.079 10.807,4.079 0.216,0 0.393,0.18 0.393,0.4 0,0.71 -73.97602,0.53 -77.40002,-0.188 -14.455,-3.035 -24.2,-11.858 -24.2,-21.912 0,-3.572 1.503,-24.782 1.83,-25.825 0.181,-0.579 0.337,-0.512 2.97,1.292 m 216.58102,0.133 c 0.263,1.576 0.902,12.149 1.286,21.3 0.555,13.237 -7.771,21.757 -24.598,25.168 -2.352,0.477 -76.131,0.637 -76.602,0.166 -0.146,-0.146 0.679,-0.616 1.834,-1.043 1.154,-0.428 2.819,-1.042 3.699,-1.365 0.88,-0.323 2.14,-0.826 2.8,-1.117 0.66,-0.292 4.8,-1.913 9.2,-3.604 4.4,-1.691 10.52,-4.068 13.6,-5.284 3.08,-1.215 5.96,-2.35 6.4,-2.521 2.269,-0.881 8.503,-3.307 9.2,-3.58 0.44,-0.172 1.25,-0.503 1.8,-0.735 2.676,-1.129 12.555,-4.885 12.847,-4.885 0.323,0 7.464,-4.536 18.153,-11.531 2.86,-1.872 5.56,-3.602 6,-3.846 0.712,-0.395 8.097,-5.178 11.8,-7.643 1.928,-1.283 2.291,-1.21 2.581,0.52 m -87.581,34.434 c 11.482,1.491 12.4035,2.1735 9.8375,3.1515 -0.715,0.273 -1.6525,0.725 -2.3125,1.006 -0.66,0.281 -3.9425,1.699 -6.9125,2.846 -12.22,4.719 -12.2825,4.8395 -12.9455,5.1965 -0.382,0.206 1.356,-0.359 -0.245,-0.484 -0.34994,-0.0273 0.153,0.209 0.245,0.484 0.131,0.393 2.50545,0.0716 30.65145,0.22856 24.786,0.138 32.44246,-0.3741 32.83146,-0.0741 0.308,0.238 5.08009,2.61654 5.85009,2.90854 6.548,2.486 22.92,12.029 29.077,16.94899 8.276,6.615 15.422,13.3619998 19.12,18.05399977 0.867,1.1 1.673,2.09000003 1.792,2.20000003 0.594,0.55 6.411,8.7280002 6.411,9.0130002 0,0.124 0.594,1.162 1.32,2.30601 1.974,3.112 4.964,9.488 6.134,13.081 0.322,0.99 0.742,2.16 0.933,2.6 0.19,0.44 0.459,1.25 0.598,1.8 0.138,0.55 0.489,1.9 0.78,3 4.468,16.928 2.363,35.218 -5.961,51.8 -1.381,2.75 -3.52,6.53 -4.755,8.4 -1.842,2.791 -2.204,3.615 -2.022,4.6 0.192,1.039 -0.162,1.678001 -2.637,4.760001 -7.571,9.428 -12.894,19.458 -16.365,30.84 -1.583,5.192 -1.41,11.589 0.417,15.412 2.986,6.248 10.689,7.537 23.358,3.909 2.994,-0.858 2.977,-0.852 7.155,-2.543 2.66,-1.076 2.775,-1.089 3.3,-0.37 0.806,1.102 0.51,21.917 -0.401,28.192 -0.652,4.485 -0.857,5.643 -1.875,10.6 -1.064,5.177 -3.896,15.078 -5.148,18 -0.189,0.44 -1.032,2.51 -1.874,4.6 -1.824,4.529 -6.867,14.78 -8.323,16.918 -0.569,0.835 -1.034,1.614 -1.034,1.732 0,0.283 -4.937,7.738 -6.998,10.567 -13.353,18.332 -33.692,35.123 -54.705,45.162 -66.11042,12.76405 -106.78372,18.03347 -144.60302,-4.414 -1.417,-0.861 -2.656,-1.565 -2.754,-1.565 -0.342,0 -9.167,-5.865 -12.196,-8.106 -10.441,-7.724 -20.421,-17.348 -28.71899,-27.694 -3.335,-4.158 -10.425,-14.917 -10.425,-15.819 0,-0.385 0.497,-1.663 1.104,-2.84 0.607,-1.178 1.525,-3.131 2.04,-4.341 0.515,-1.21 1.168,-2.74 1.451,-3.4 0.283,-0.66 1.286,-3.54 2.228,-6.4 0.942,-2.86 1.843,-5.56 2.003,-6 0.16,-0.44 0.504,-1.88 0.765,-3.2 0.261,-1.32 0.637,-3.12 0.837,-4 0.467,-2.056 2.17799,-14.355 2.75599,-19.8 4.0166,-24.09415 -46.62437,-11.62786 -20.16799,-70.45 -0.279,-0.279 0.607,-2.491 2.415,-6.029 1.734,-3.394001 1.809,-2.918001 -1.179,-7.454001 -2.289,-3.473 -4.257,-6.827 -5.673,-9.667 -0.416,-0.833 -1.722,-3.866 -3.359,-7.8 -6.335,-15.223 -5.877,-36.261 1.175,-53.991 7.508,-18.8780102 26.90799,-39.57501 47.80499,-51.002 1.32,-0.722 2.58,-1.448 2.8,-1.613 0.442,-0.331 6.624,-3.448 11.6,-5.85 l 6.2,-2.794 34.31702,0.175 c 35.387,-0.191 33.886,-0.279 31.69,-1.125 -0.893,-0.344 1.107,0.536 -5.282,-1.937 -1.43,-0.554 -2.275,-1.179 -2.275,-1.179 0,0 -1.895,-0.738 -2.775,-1.123 -0.88,-0.385 -3.415,-0.973 -5.175,-1.613 -3.182,-1.157 -4.077,-1.437 -5.404,-2.112 -0.382,-0.194 -0.958,-1.636 -1.291,-1.636 -0.833,0 -0.763,-0.7 0.095,-0.949 7.689,-2.225 40.932,-2.904 54.7,-1.117 m -94,23.344 c -5.62802,1.035 -10.96602,2.414 -13.60002,3.514 -0.44,0.183 -1.61,0.633 -2.6,0.999 -5.706,2.11 -13.509,7.32999 -18.85,12.60899 -8.686,8.5859998 -12.543,15.6749998 -15.50899,28.50601 -0.532,2.3 -0.588,14.619 -0.076,16.648 0.201,0.795 0.588,2.436 0.859,3.646 4.46699,19.922 23.28099,37.217 45.176,41.53 5.64401,1.112 7.40301,1.27 14.14301,1.27 6.662,0 8.545,-0.166 14.057,-1.243 18.351,-3.583 36.107,-17.235 42.451,-32.64 0.344,-0.834 0.857,-2.057 1.141,-2.717 2.643,-6.152 3.964,-19.826 2.576,-26.669 -4.536,-22.3710102 -22.759,-40.015 -45.968,-44.507 -1.87,-0.362 -4.269,-0.831 -5.331,-1.041 -2.39,-0.474 -15.748,-0.405 -18.469,0.095 m 124.582,1.726 c -24.889,3.398 -45.708,21.0029898 -50.376,42.596 -0.261,1.21 -0.64,2.851 -0.841,3.646 -0.497,1.968 -0.463,13.552 0.046,15.877 0.227,1.032 0.605,2.777 0.841,3.877 3.847,17.914 19.528,33.634 40.148,40.247 5.171,1.659 11.471,2.469 19.2,2.469 12.14,0 22.867,-2.548 31.118,-7.39 1.054,-0.62 2.044,-1.139 2.2,-1.154 0.51,-0.051 5.152,-3.329 7.951,-5.615 8.902,-7.273 14.397,-15.69 18.119,-27.757 1.598,-5.182 2.04,-14.297 0.99,-20.4 -0.636,-3.691 -0.749,-4.131 -2.211,-8.60001 -4.829,-14.7610002 -18.64,-28.453 -34.367,-34.07099 -1.21,-0.432 -2.56,-0.943 -3,-1.134 -5.811,-2.528 -20.763,-3.828 -29.818,-2.591 m 163.218,90.263 c 4.636,0.617 5.884,1.628 4.055,3.283 -1.109,1.004 -2.211,3.921 -4.097,10.85 -0.24,0.88 -0.598,1.913 -0.797,2.295 -0.199,0.382 -0.361,0.884 -0.361,1.117 0,0.396 -2.426,7.225 -3.192,8.988 -5.467,12.569001 -11.831,22.311001 -19.164,29.333001 -9.931,9.511 -38.346,26.286 -52.044,30.724 -0.99,0.321 -2.16,0.741 -2.6,0.933 -0.44,0.192 -1.25,0.44 -1.8,0.55 -0.55,0.109 -2.26,0.491 -3.8,0.847 -13.141,3.04 -20.386,-2.878 -18.373,-15.008 0.345,-2.078 0.725,-4.366 0.844,-5.083 0.12,-0.717 0.378,-1.402 0.573,-1.523 0.196,-0.121 0.356,-0.572 0.356,-1.002 0,-0.43 0.165,-1.094 0.366,-1.476 0.201,-0.382 0.762,-1.685 1.247,-2.895 1.32,-3.295 4.046,-8.716 5.632,-11.2 0.772,-1.21 1.515,-2.498 1.652,-2.862 0.693,-1.846 9.415,-12.704001 14.703,-18.303001 13.346,-14.133 31.365,-23.215 55.6,-28.024 7.865,-1.561 16.402,-2.182 21.2,-1.544 M 177.66865,163.68123 c -1.128,13.323 -1.471,16.539 -2.47099,23.2 -0.231,1.54 -0.605,4.15 -0.831,5.8 -0.529,3.861 -1.126,7.079 -1.6,8.628 -0.207,0.676 -0.376,1.675 -0.376,2.22 0,0.546 -0.153,1.163 -0.341,1.372 -0.187,0.209 -0.647,1.55 -1.022,2.98 -0.602,2.296 -1.547,5.086 -2.676,7.9 -0.199,0.495 -0.523,1.305 -0.721,1.8 -1.815,4.535 -4.8,10.571 -7.173,14.5 -1.195,1.98 -2.377,3.96 -2.625,4.4 -0.639,1.134 -4.728,7.16 -5.021,7.4 -0.135,0.11 -0.943,1.185 -1.796,2.39 -1.253,1.767 -9.374,11.641 -10.208,12.41 -0.119,0.11 -1.294,1.46 -2.611,3 -1.317,1.54 -2.502,2.89 -2.633,3 -0.131,0.11 -0.575,1.145 -0.985,2.3 -0.41,1.155 -0.971,2.1 -1.247,2.1 -2.169,0 -7.30199,-12.554 -9.72999,-23.8 -0.19,-0.88 -0.61,-2.77 -0.932,-4.2 -3.39,-15.025 -5.001,-42.144 -3.077,-51.8 0.219,-1.1 0.752,-4.07 1.184,-6.6 1.111,-6.507 1.964,-10.488 2.421,-11.295 0.216,-0.382 0.393,-1.048 0.393,-1.481 0,-0.432 0.163,-1.2 0.363,-1.705 0.2,-0.506 0.762,-2.269 1.249,-3.919 1.155,-3.908 1.95,-6.407 2.355,-7.4 0.179,-0.44 0.51,-1.25 0.735,-1.8 0.224,-0.55 1.081,-2.71 1.90199,-4.8"
       inkscape:connector-curvature="0"
       style="fill:#f5f4f4;fill-rule:evenodd;stroke:#000000;stroke-opacity:1"
       sodipodi:nodetypes="ccsccsscscsscscccccscscsccccsccccccsccscccccccscccccccccccccccccccscccsccscsssssccccccccccccccccsccsccccccccccscccccccccccccsccccccccccccsscccscccccssccccccccccscccccccccsssscccccsccccc" />
    <path
       id="path4"
       d="m 271.46999,78.433109 c -1.078,0.628 -0.874,1.449 1.515,6.107 1.217,2.375 2.369,4.62 2.559,4.99 0.189,0.369 3.896,7.837 8.238,16.595001 9.549,19.265 8.888,18.482 11.537,13.676 0.364,-0.66 0.884,-1.554 1.156,-1.986 3.488,-5.543 6.628,-10.656 12.907,-21.014001 1.134,-1.87 3.737,-6.1 5.785,-9.4 4.353,-7.016 4.962,-8.281 4.303,-8.94 -0.609,-0.609 -46.955,-0.636 -48,-0.028"
       inkscape:connector-curvature="0"
       style="fill:#f2c06d;fill-rule:evenodd;stroke:#000000;stroke-opacity:1"
       sodipodi:nodetypes="ccccccccsc" />
    <g
       id="g3193"
       transform="translate(547.3069,361.21009)">
      <path
         inkscape:connector-curvature="0"
         id="path3076"
         d="m -407.66992,-230.3418 c -2.55878,0.10767 -4.47974,1.12641 -6.72266,3.09571 -8.9078,7.82116 -21.49428,37.97582 -24.37304,58.39648 -3.83623,27.21236 -1.23482,48.90905 6.83007,59.16797 5.24666,9.18387 13.15083,20.521422 18.26758,26.36914 50.36112,62.1662 94.13456,74.4336304 146.03516,82.96484043 1.54026,0.64726 2.83957,0.93731 4.5332,1.37890997 3.06147,0.79825 24.1454,2.13473 27.76953,1.23437 1.1,-0.27327 4.925,-1.05247 8.5,-1.73241997 2.98826,-0.56836 4.61738,-0.89666 6.61524,-2.19726003 44.18296,-9.9961104 85.66054,-29.3345504 129.394532,-85.8515654 l 0.0117,-0.01563 c 3.31049,-3.961584 8.27208,-10.258168 12.78125,-16.798825 3.10143,-4.49871 5.96507,-9.08587 7.95117,-13.14453 1.08471,-1.88592 2.05856,-3.90773 2.67773,-5.78321 4.71985,-14.29646 5.33341,-30.12275 2.02344,-52.17773 -2.09284,-13.945 -3.96394,-20.19075 -8.63086,-28.79688 -8.67263,-15.99291 -11.47734,-17.75465 -23.62891,-14.84375 -3.681962,0.88201 -8.439042,1.81027 -10.572262,2.0625 -2.13323,0.25223 -5.95823,0.92952 -8.5,1.50586 -2.54178,0.57634 -9.57305,2.16404 -15.62305,3.52735 -24.21704,5.45707 -65.63484,5.74924 -75.85351,0.53515 -5.13652,-2.62093 -16.07268,-2.94011 -27.44922,-2.91211 -6.39388,0.18248 -16.92935,1.35272 -34.76563,0.41992 -10.24147,-0.52724 -17.4093,2.01895 -29.97265,0.34961 -3.025,-0.36664 -10.43094,-1.02841 -19.70703,-1.78125 -14.12023,-1.14599 -22.95274,-3.50581 -28.17774,-4.46875 -18.21164,-3.3563 -41.8669,-5.68833 -48.86914,-8.13476 -4.7896,-1.67339 -7.98615,-2.47681 -10.54492,-2.36914 z m 0.002,0.96094 c 3.27981,0.11299 7.22991,1.47461 11.08203,2.73633 5.65312,1.85162 7.66442,2.46628 18.06836,4.59961 28.12357,3.32598 59.07102,9.14176 81.85742,13.13672 8.60538,-1.7773 0.78111,5.79606 -1.61523,9.74023 -1.07993,1.77747 -4.8007,9.10488 -8.40625,16.2832 l -5.86719,13.05079 -11.47851,1.2832 c -12.76714,1.76037 -17.24518,2.91283 -24.80274,6.38672 -10.76302,4.94731 -15.84831,10.2588 -18.47461,19.29297 -2.96903,10.21307 -1.30604,21.45909 4.05274,27.39062 2.86519,3.17142 11.47081,7.95974 18.67187,10.39063 2.55227,0.86157 2.20109,2.5594 -2.18945,10.546871 -2.1674,3.94303 -5.06814,9.628589 -6.44531,12.636719 -1.37717,3.00814 -2.86567,5.467844 -3.3086,5.464844 -0.44292,-0.003 -2.34689,4.892326 -5.96289,2.722656 -3.616,-2.16968 -14.04576,-6.566853 -21.90625,-10.576172 -12.44029,-6.345288 -38.52464,-17.771098 -44.17578,-22.632808 -0.7785,-0.66975 -1.28538,-1.8685 -1.93164,-2.28516 -1.81265,-3.10856 -3.35339,-6.00031 -4.38672,-8.35938 l -0.89258,0.39258 c -2.46714,-7.25133 -3.66214,-12.8287 -3.67382,-24.67773 -0.007,-7.43943 0.8767,-19.09529 1.45703,-23.75586 1.75327,-14.08029 8.5705,-32.57379 14.62695,-45.66016 2.45555,-5.30579 9.09128,-16.00362 11.7168,-17.36133 1.14221,-0.59066 2.49355,-0.79745 3.98437,-0.74609 z m 316.425782,11.49023 c 1.74245,-0.0264 3.1437,0.0427 3.78516,0.1836 5.2662,1.15665 14.31583,16.92894 17.21484,29.21484 6.69262,28.36327 6.70494,53.40086 0.0391,68.33594 -3.12447,7.00047 -8.432527,8.74661 -20.291087,12.85267 -7.75601,2.68555 -11.330635,5.60369 -19.744875,10.651388 -2.475,1.74799 -6.341,5.005308 -10.466,7.437348 -4.125,2.43204 -10.8,8.0423 -14.375,10.78711 -3.575,2.74481 -8.7444,6.761483 -9.42279,7.268573 -0.85925,0.642291 -2.56861,-3.775804 -3.20025,-5.418964 -0.4987,-1.29728 -3.37892,-6.527111 -5.97852,-11.019531 l -4.26172,-7.365235 3.875,-1.253906 c 16.71044,-1.7152 31.31573,-5.787323 45.96485,-12.814453 7.7836,-3.73376 9.835402,-5.24524 13.132812,-9.66602 4.80364,-6.44017 6.50961,-9.84837 8.01953,-16.02734 1.39373,-5.70348 0.52205,-16.86709 -1.65625,-21.21094 -6.49675,-12.95545 -20.947892,-22.64866 -37.984382,-25.47851 -6.73468,-1.11867 -25.42419,-0.76279 -30.73828,0.58594 -6.03058,1.53058 -9.30946,3.68793 -9.87109,6.49609 l -0.57813,2.89648 -7.77539,-0.0156 -11.01758,-0.82617 -7.18945,-12.78515 c -4.38509,-7.79809 -9.49981,-14.42829 -10.34766,-16.26563 l -3.40234,-7.37304 10.34766,1.81836 c 11.33783,1.25013 40.25154,0.93264 48.05078,-0.35547 3.85,-0.63586 12.47266,-1.88382 17.97266,-3.16992 5.5,-1.28611 12.7,-2.89837 16,-3.58399 3.3,-0.68562 9.94945,-1.78713 14.2793,-2.84375 2.864142,-0.69894 6.715052,-1.01071 9.619142,-1.05469 z m -147.814502,5.76563 c 17.82637,-0.0788 28.80968,1.21852 29.76172,3.28711 2.60987,5.67074 21.51905,37.00937 20.25976,37.52148 -0.16165,0.0657 -2.44764,0.19757 -5.08007,0.29297 -4.75212,0.17215 -4.78419,0.15189 -4.5,-2.83984 0.20151,-2.12126 -0.19081,-3.11068 -1.32227,-3.33984 -1.15917,-0.23478 -1.90984,0.87242 -2.69336,3.9707 -2.08651,8.25068 -2.11188,9.39893 -0.38672,16.82226 1.43875,6.19095 2.07631,7.47461 3.71289,7.47461 1.58561,0 1.91429,-0.57286 1.66407,-2.90234 -0.41111,-3.82733 1.013,-4.56373 8.86328,-4.58203 l 6.55078,-0.0156 2.32422,5.25 c 5.72244,12.93275 12.07226,29.1449 12.07226,30.81836 0,1.00792 0.73836,2.24507 1.64063,2.75 2.02838,1.13514 -7.4599,3.23388 -25.64063,5.67187 -6.875,0.92192 -15.65,2.27177 -19.5,3 -3.85,0.72823 -13.975,1.60317 -22.5,1.94336 -8.525,0.3402 -19.325,0.80216 -24,1.02735 -12.49765,0.60202 -41.14152,-2.749 -56.21289,-6.57618 -3.43577,-0.87247 -3.64327,-1.12963 -2.76953,-3.42773 1.85094,-4.86843 2.87115,-14.27685 1.92188,-17.71484 -0.51218,-1.85495 -2.55129,-5.26694 -4.53126,-7.58008 l -3.5996,-4.20508 2.3457,-4.72852 c 2.22003,-4.47511 2.58725,-4.74662 6.8457,-5.05859 2.475,-0.18132 7.35748,-0.0286 10.84961,0.33984 6.88314,0.72622 6.71562,0.4635 4.61524,7.24024 -0.52942,1.70816 -0.29798,2.25 0.95898,2.25 1.83589,0 8.57617,-12.98526 8.57617,-16.52149 0,-1.14301 0.45254,-2.5326 1.00586,-3.08593 1.22203,-1.22202 -0.22843,-10.01749 -1.93359,-11.72266 -1.56607,-1.56606 -3.17935,1.04801 -2.44727,3.96484 0.51692,2.05959 0.15829,2.17021 -8.29297,2.56836 -4.8575,0.22884 -9.01307,0.28183 -9.23633,0.11719 -1.31523,-0.69191 8.34882,-20.31568 14.60743,-30.70117 8.21385,-13.55462 6.93326,-10.44126 48.01953,-11.18945 2.81663,-0.0692 5.50416,-0.10788 8.05078,-0.11915 z m 103.00391,34.99023 c 6.44809,0.14999 13.31961,1.52512 18.62109,3.0918 35.148972,17.10073 28.242472,58.18843 -15.39844,69.51563 -28.03758,11.450446 -10.60629,-53.3648 -17.84375,-67.00391 0.82217,-0.50813 0.33022,-0.95919 -1.45703,-1.33594 3.6067,-3.3413 9.63003,-4.41756 16.07813,-4.26758 z m -44.21094,9.89454 c 5.94658,-0.039 8.43359,0.82775 8.43359,2.7539 0,1.52082 -1.24619,1.89668 -8.25,2.48828 -4.5375,0.38328 -9.33613,0.95923 -10.66406,1.2793 -1.95051,0.47012 -2.29265,0.26433 -1.78125,-1.06836 0.39503,-1.02943 0.12715,-1.64844 -0.71289,-1.64844 -0.74039,0 -1.8606,-0.62219 -2.49024,-1.38086 -0.95359,-1.149 0.43749,-1.49616 8.33008,-2.08789 2.78698,-0.20894 5.15258,-0.32295 7.13477,-0.33593 z m -122.92774,2.07421 c 5.04291,-0.0764 8.41182,0.10751 7.64453,0.64258 -0.14847,1.77158 -0.0904,1.59391 -0.2832,3.21289 0,0.59837 -0.69721,0.81974 -1.55078,0.49219 -0.85356,-0.32754 -1.32756,-0.2318 -1.05273,0.21289 0.27483,0.44471 -6.56351,0.65631 -15.19727,0.46875 -13.41998,-0.29154 -16.84754,-0.0405 -23.61523,1.73633 -12.98894,3.41015 -19.79413,9.9285 -21.21875,20.32227 -0.75847,5.53359 2.28773,13.97603 6.49804,18.00976 2.88935,2.76818 10.21875,4.72156 14.58594,3.88672 4.19019,-0.801 7.32288,-4.54437 8.0918,-9.67188 0.55932,-3.72985 0.34566,-5.0506 -1.07032,-6.61523 -3.76079,-4.15564 -11.95199,-4.28649 -16.61718,-0.26367 -1.472,1.26929 -1.63229,1.15824 -1.5,-1.04492 0.12298,-1.76264 0.0145,-1.56776 1.16015,-3.08008 1.32012,-4.31875 12.6054,-7.41556 17.28711,-5.16797 4.03688,2.10897 8.46899,5.18794 9.43946,8.82422 0.47038,2.34594 1.39247,2.9386 0.16601,7.69922 0,4.98295 -3.77747,9.9 -9.13086,12.85547 -2.2809,1.25923 -6.31313,2.51211 -8.96093,2.78515 -4.04198,0.4168 -5.9373,-0.0504 -11.81446,-2.91211 -10.88954,-5.30232 -13.61559,-9.33996 -13.68359,-20.26562 -0.0433,-6.9509 2.66037,-14.19175 6.98437,-18.70703 4.02453,-4.20256 16.27289,-9.50932 26.07422,-11.29493 6.30424,-1.1485 19.35882,-1.99764 27.76367,-2.125 z m 128.77539,7.75782 c 1.26301,-0.0604 2.63796,0.2478 3.08594,0.97265 0.33992,0.55 1.39225,1 2.33789,1 2.46464,0 4.89449,9.21433 5.73438,21.75 0.37771,5.6375 0.45214,10.25 0.16601,10.25 -0.28613,0 -1.21896,-1.6875 -2.07226,-3.75 -0.85329,-2.0625 -3.826,-9.14553 -6.60742,-15.73828 -2.78142,-6.59274 -5.0586,-12.55524 -5.0586,-13.25 0,-0.74629 1.15106,-1.17393 2.41406,-1.23437 z m -148.29882,1.68359 -2.24219,4.61328 c -1.43177,2.947 -2.62601,4.31129 -3.30664,3.77539 -0.58608,-0.46146 -2.64806,-1.12318 -4.58203,-1.4707 -2.21272,-0.39762 -6.10539,0.0794 -10.5,1.28711 l -6.98438,1.91797 3.44336,-2.90039 c 4.03913,-3.40406 10.27339,-5.62918 18.36524,-6.55664 z m -16.08594,25.25781 c 2.04651,-0.0232 3.94823,0.5292 4.38672,1.67188 0.83744,2.18234 -1.90322,6.21428 -5.03321,7.4043 -3.07632,1.16962 -3.42503,1.15929 -5.67578,-0.1504 -2.00324,-1.16566 -1.55709,-4.15689 1.06641,-7.14453 1.01788,-1.15916 3.20934,-1.75809 5.25586,-1.78125 z m -96.90625,13.50391 c 0.80717,1.81826 1.88067,3.91065 3.13476,6.1582 -0.95721,-0.99128 -1.87091,-2.50124 -2.88671,-5.41992 -0.0883,-0.25381 -0.16274,-0.48894 -0.24805,-0.73828 z m 361.044922,5.59961 c -1.3044,2.12464 -2.72524,4.29896 -4.20899,6.45117 -4.48882,6.511151 -9.4455,12.80292 -12.73632,16.740235 l -0.006,0.0078 -0.006,0.0059 c -42.887472,55.429433 -83.403012,74.906543 -126.617192,84.9980434 2.06121,-1.73883 4.78502,-4.47692 9.31641,-9.0449204 12.53568,-12.63696 25.84906,-24.79835 33.58984,-30.68359 16.97309,-12.90446 28.67746,-20.78728 29.63086,-24.585939 1.41738,-1.289384 1.30817,-1.451158 2.50586,-2.186965 1.06512,-0.33805 6.93776,-4.577206 10.35547,-7.463426 3.41771,-2.88622 9.18906,-6.878706 13.03906,-10.228516 3.3084,-2.878574 6.57675,-4.734618 9.60175,-6.779108 7.25815,-4.905517 13.613582,-10.154134 21.456842,-12.771674 3.67761,-1.1852 11.21391,-4.39471 12.36914,-3.53125 0.45289,0 1.04614,-0.34828 1.70899,-0.92773 z m -91.562502,0.2832 c 1.0758,0.0243 1.20169,0.60703 1.06641,2.36719 -0.18692,2.43178 -0.89504,2.83729 -8.6875,4.99023 -10.5085,2.90335 -31.42507,5.788475 -52.48438,7.238285 -20.34169,1.40041 -38.06002,1.733402 -47,0.882813 -24.3992,-2.32143 -30.02051,-3.045874 -39,-5.027348 -5.5,-1.21366 -10.6004,-2.34096 -10.77344,-2.75 -1.377,-0.23701 -0.27005,-0.0555 -1.54101,-0.30664 -0.49647,-0.45955 -0.355,-0.28767 -0.0234,-1.03906 0.9134,-0.9219 1.81929,-2.1532 2.01367,-2.73633 0.24066,-0.72198 3.38028,-0.54149 9.83985,0.56446 11.39485,1.95091 19.68186,3.02275 34.98437,4.52343 16.04458,1.57345 52.52806,0.48291 67.17969,-2.00781 6.22612,-1.05842 14.92031,-2.41248 19.32031,-3.00976 4.4,-0.59728 10.925,-1.54712 14.5,-2.10938 3.575,-0.56225 7.70954,-1.21069 9.1875,-1.44141 0.59552,-0.093 1.05937,-0.14676 1.41797,-0.13867 z m -262.69336,4.49219 c 0.0901,0.0728 0.17644,0.15405 0.26758,0.22461 6.7493,5.22582 29.00858,16.324895 43.85742,22.914061 16.63157,7.38025 20.4992,10.076423 28.22656,15.289063 5.17566,3.988066 4.63078,4.937836 15.7793,11.806636 6.58312,4.05597 13.0709,8.68682 14.83789,10.1504 1.767,1.46356 5.67712,4.46562 8.26758,6.39062 5.13636,3.81689 17.54158,14.70761 35.79102,29.51758 5.57178,4.5216704 8.92135,6.9590604 11.40039,8.4472604 C -320.99734,-10.35583 -363.65675,-23.1615 -412.90234,-83.957031 l -0.006,-0.0059 -0.006,-0.0078 c -4.38624,-5.012842 -10.93434,-14.283358 -16.00391,-22.617189 z m 91.16406,4.5332 c 1.50316,-0.11328 3.12137,0.67705 5.42383,1.60938 1.1,0.445408 6.05,1.553125 11,2.460935 4.95,0.90782 10.575,2.041138 12.5,2.517578 1.925,0.47643 6.2,1.127116 9.5,1.447266 3.3,0.32015 12.12143,1.261253 19.60156,2.089843 11.15427,1.235601 17.71869,1.326593 36.5,0.507813 34.50694,-1.50436 49.68745,-3.046139 68.75977,-6.980469 5.42304,-1.11869 10.19311,-2.033206 10.60156,-2.033206 0.90499,0 14.9136,23.426957 16.66,29.229857 1.19238,3.96193 -1.66176,4.719999 -4.20312,7.480467 -3.03499,3.29666 -17.32576,14.121076 -25.74594,20.527956 -3.1851,2.47628 -7.51428,6.87963 -11.54297,9.77149 -1.51825,0.99596 -9.74143,8.85484 -18.01562,17.12695 -8.60643,8.6042504 -13.48059,12.6395304 -16.30274,14.2168004 -5.07756,1.10350003 -10.19669,2.09193003 -15.36133,3.00781003 -4.97707,0.0547 -13.48318,-0.67643 -17.60156,-0.40625 -7.00002,-0.57364 -8.51818,-0.44776 -10.49609,-1.49414 l 0.0293,-0.18555003 c -0.17492,-0.0285 -0.3448,-0.0593 -0.51953,-0.0879 -1.33529,-0.79726 -3.04912,-2.13261 -6.70312,-4.50976 -3.06393,-2.4467 -8.51629,-6.1910304 -11.43164,-9.1855504 -3.40183,-2.42695 -6.78087,-5.78347 -8.00391,-6.96289 -3.31192,-3.19379 -15.68384,-13.46997 -21.70508,-18.0293 -2.90541,-2.2 -7.17222,-5.575 -9.48242,-7.5 -2.3102,-1.925 -6.07425,-4.625 -8.36523,-6 -12.47568,-7.48765 -17.49307,-11.24987 -19.62696,-14.142575 l -5.58398,-4.392578 5.38281,-7.238281 c 2.01488,-4.14184 5.68559,-11.792542 8.29883,-16.300782 2.75901,-4.759704 4.50097,-6.399274 6.43359,-6.544924 z"
         style="fill:#000000;fill-opacity:1;stroke:#000000;stroke-width:0.1;stroke-miterlimit:4;stroke-dasharray:none;stroke-opacity:1"
         sodipodi:nodetypes="ccscccsccccccccssssssccccsscccssccscccscscscscscccccssssccccccsscccccscssssccccscccscssccccccccscsscccscssccsccccccccsscccsccccccccccccscccsccccccccsccccccccccccccccsccccssscssccccccccccccccscccccccccccssccsssccccccsssccccccsssccccccscscssccccccccccscssscsccscccccccccssscccccc" />
      <path
         transform="translate(0,-168)"
         inkscape:connector-curvature="0"
         id="path3174"
         d="m -338.18267,66.490082 c -5.52788,1.046399 -6.43527,8.446464 -9.53907,12.273438 -2.1646,5.483558 -7.31756,11.418254 -10.14739,17.265767 12.45898,11.392573 14.02174,10.513393 20.2985,15.557383 21.84885,14.28834 40.7533,32.2683 61.08776,48.49897 5.61893,4.54481 11.83744,9.11689 19.48965,8.37319 11.81653,-0.18142 24.78235,1.67654 35.66016,-3.94531 15.61151,-12.08839 28.82183,-27.02867 44.19413,-39.45727 9.8359,-8.86177 21.32119,-15.28158 30.61537,-25.561574 -1.11167,-7.127374 -7.81671,-15.489541 -10.93678,-22.007711 -3.03742,-3.729658 -4.22257,-12.343727 -10.5412,-9.301672 -38.76082,7.466833 -78.60833,9.927868 -117.97126,7.033098 -17.51526,-1.166603 -34.45225,-6.137515 -51.74308,-8.740028 z"
         style="opacity:1;fill:#efa7a7;fill-opacity:1;fill-rule:evenodd;stroke:#000000;stroke-width:0.1;stroke-linecap:round;stroke-linejoin:round;stroke-miterlimit:4;stroke-dasharray:none;stroke-opacity:1"
         sodipodi:nodetypes="cccccccccccccc" />
      <path
         transform="translate(0,-168)"
         inkscape:connector-curvature="0"
         id="path3176"
         d="m -257.42096,-43.875152 c -10.47047,0.783266 -21.94838,-1.681561 -31.71484,2.996094 -8.02263,8.294723 -12.15782,19.664248 -17.3418,29.835937 -0.33701,2.4787232 -4.50752,6.8500952 -1.56445,8.6992192 4.98895,0.116052 10.98819,1.313684 15.42578,-1.220703 0.62,-1.825172 0.37048,-8.2698282 3.04297,-3.955078 4.20867,9.833695 -1.25612,21.1371578 -7.13086,29.0507808 -2.38183,2.093075 -0.65375,-4.123299 -0.73895,-4.854897 1.50281,-5.901777 -7.50747,-3.037722 -11.1341,-4.256431 -5.54132,-1.093352 -11.58495,1.348174 -13.12607,7.183696 -2.90497,4.520957 3.98838,7.609472 5.19248,11.982319 3.44653,7.070398 0.23943,15.132974 -0.45117,22.261719 5.62532,3.805515 13.41051,3.402705 19.91863,4.995935 19.06685,3.25423 38.41439,4.14042 57.69855,2.59391 24.05037,-1.38498 48.0959,-4.48866 71.6381,-9.56766 2.72375,-3.17801 -2.35403,-8.957942 -3.02872,-13.139372 -3.74101,-9.063663 -7.06543,-18.637059 -11.73828,-27.095704 -4.68647,0.140565 -11.81323,-2.1713338 -15.03906,2.322266 -0.35356,1.586819 -0.44159,6.384954 -3.04688,3.990234 -3.78756,-8.3512218 -5.16866,-19.1745788 0.43555,-26.9609368 2.55187,0.695671 0.29603,6.872273 4.53906,6.400391 3.74716,0.106088 8.8142,-1.822324 4.42773,-5.864879 -6.39711,-10.8871112 -11.73859,-22.5945532 -18.83788,-32.9769182 -10.3315,-3.522564 -21.7541,-1.742256 -32.51562,-2.408346 -4.97001,-0.02396 -9.94011,-0.01276 -14.91017,-0.01158 z"
         style="opacity:1;fill:#efa7a7;fill-opacity:1;fill-rule:evenodd;stroke:#000000;stroke-width:0.1;stroke-linecap:round;stroke-linejoin:round;stroke-miterlimit:4;stroke-dasharray:none;stroke-opacity:1" />
      <path
         transform="translate(0,-168)"
         inkscape:connector-curvature="0"
         id="path3178"
         d="m -408.87213,-61.224761 c -7.30986,1.36342 -9.5749,10.190499 -13.15625,15.664062 -10.73942,22.150293 -19.13361,47.7523382 -17.5039,72.701172 0.64943,9.930373 0.50986,20.116406 7.16258,28.297106 4.72671,8.32435 14.58684,11.35306 22.36816,15.87608 16.01383,7.23457 31.05463,15.05454 46.80129,22.89127 5.38264,3.24981 9.57206,-8.01488 11.74012,-11.38236 2.55835,-5.96149 7.12816,-11.78515 8.11144,-18.09616 -7.95721,-6.52669 -21.07866,-8.74297 -23.83789,-20.26367 -3.2041,-13.196526 0.65713,-29.434769 13.60156,-35.8476568 12.39761,-7.67135301 27.55406,-7.98593301 41.28321,-10.775391 5.10275,-13.1815342 12.8346,-25.0840962 19.02539,-37.6914062 0.44228,-3.391392 -4.46141,-0.617752 -6.26827,-2.005509 -27.42038,-4.56862 -54.92981,-9.018189 -82.40242,-13.374223 -9.07563,-1.455362 -17.71758,-5.552434 -26.92502,-5.993314 z"
         style="opacity:1;fill:#efa7a7;fill-opacity:1;fill-rule:evenodd;stroke:#000000;stroke-width:0.1;stroke-linecap:round;stroke-linejoin:round;stroke-miterlimit:4;stroke-dasharray:none;stroke-opacity:1"
         sodipodi:nodetypes="ccccccccccccccc" />
      <path
         transform="translate(0,-168)"
         inkscape:connector-curvature="0"
         id="path3180"
         d="m -92.446344,-49.847808 c -26.007856,3.064683 -51.166296,12.284493 -77.576176,10.902343 -12.0739,0.06587 -24.28545,-0.06314 -36.24023,-1.207031 -1.14458,3.359878 3.13654,6.894377 4.19851,10.086494 5.3829,8.05666 9.59196,17.014205 15.38156,24.7162402 5.25846,3.139065 12.15683,2.183663 17.94727,1.498047 2.92729,-2.383887 3.77957,-7.3283532 8.32617,-7.8261722 12.71269,-2.365038 26.16257,-2.033801 38.83594,-0.333984 13.67772,3.4565582 26.889576,12.3345172 33.162106,25.244141 3.67565,13.801805 1.29221,29.794454 -10.16601,39.234379 -16.789756,13.26569 -38.898426,15.93545 -59.068366,20.18945 2.96778,7.08722 8.62089,17.550794 12.44256,24.326544 5.065,-1.39245 8.4793,-6.717293 13.30213,-9.297163 14.71617,-10.00726 29.22429,-23.478711 46.467319,-28.667021 6.84433,-2.4792 14.438207,-5.65892 16.260647,-13.782283 6.73232,-21.729991 3.99063,-45.3023618 -1.32226,-67.042969 -3.7609,-9.754568 -7.18586,-21.26199 -16.20703,-27.421874 -1.81446,-0.72469 -3.82943,-0.633129 -5.74414,-0.619141 z"
         style="opacity:1;fill:#efa7a7;fill-opacity:1;fill-rule:evenodd;stroke:#000000;stroke-width:0.1;stroke-linecap:round;stroke-linejoin:round;stroke-miterlimit:4;stroke-dasharray:none;stroke-opacity:1"
         sodipodi:nodetypes="cccccccccccccccccc" />
      <path
         transform="translate(0,-168)"
         inkscape:connector-curvature="0"
         id="path3182"
         d="m -77.594784,57.44516 c -23.471306,5.916691 -40.016876,21.854768 -58.992186,36.423828 -6.58698,4.863907 -13.07411,11.266502 -19.91407,15.958982 -19.58528,16.73497 -40.34105,32.44291 -57.875,51.40235 -1.1356,4.20243 5.05201,1.45091 6.97266,0.95898 34.53548,-9.32522 66.07143,-28.37305 90.85353,-54.11145 14.3943,-15.20489 28.520516,-30.960233 40.042956,-48.474487 0.65506,-0.983099 0.31926,-2.381452 -1.08789,-2.158203 z"
         style="opacity:1;fill:#efa7a7;fill-opacity:1;fill-rule:evenodd;stroke:#000000;stroke-width:0.1;stroke-linecap:round;stroke-linejoin:round;stroke-miterlimit:4;stroke-dasharray:none;stroke-opacity:1"
         sodipodi:nodetypes="cccccccc" />
      <path
         transform="translate(0,-168)"
         inkscape:connector-curvature="0"
         id="path3184"
         d="m -425.1983,65.04477 c -1.39736,3.221088 3.28098,6.476134 4.66736,9.338348 24.42913,32.143742 54.40592,62.030572 92.81311,76.659702 16.62023,6.41088 34.00419,11.54699 51.60156,14.01367 2.5952,-2.37994 -3.17303,-4.73197 -4.36408,-6.34597 -21.47208,-17.7676 -42.62169,-36.04207 -66.02377,-51.26767 -8.99322,-6.83278 -18.53271,-14.6358 -29.7352,-18.698862 -16.61474,-6.721709 -30.25985,-15.622356 -46.52929,-23.179687 -0.7802,-0.182275 -1.59286,-0.742068 -2.42969,-0.519531 z"
         style="opacity:1;fill:#efa7a7;fill-opacity:1;fill-rule:evenodd;stroke:#000000;stroke-width:0.1;stroke-linecap:round;stroke-linejoin:round;stroke-miterlimit:4;stroke-dasharray:none;stroke-opacity:1"
         sodipodi:nodetypes="ccccccccc" />
      <path
         style="opacity:1;fill:#efa7a7;fill-opacity:1;fill-rule:evenodd;stroke:#000000;stroke-width:0.05;stroke-linecap:round;stroke-linejoin:round;stroke-miterlimit:4;stroke-dasharray:none;stroke-opacity:1"
         d="m -228.95386,-62.078573 c -7.85985,0.816147 -16.45295,2.132639 -22.58399,7.516601 -1.15615,1.560768 1.03134,2.573755 2.31739,1.823242 5.45439,-1.45609 11.34887,-2.597757 16.79101,-0.545898 3.00125,-0.240342 3.55181,-4.157221 4.83984,-6.282227 0.62397,-1.235841 0.38984,-2.797792 -1.36425,-2.511718 z"
         id="path3239"
         inkscape:connector-curvature="0"
         transform="translate(-95.874242,-93.852812)" />
      <path
         style="opacity:1;fill:#efa7a7;fill-opacity:1;fill-rule:evenodd;stroke:#000000;stroke-width:0.00883884;stroke-linecap:round;stroke-linejoin:round;stroke-miterlimit:4;stroke-dasharray:none;stroke-opacity:1"
         d="m -78.246498,-64.252382 c -1.164227,0.0468 -2.600579,0.232108 -3.257076,1.326171 -0.385919,0.866927 0.205484,1.773927 0.415011,2.614189 2.795595,7.653709 6.114231,15.101572 9.222014,22.630649 1.105501,2.524763 2.044814,5.133399 3.364866,7.557424 0.30316,0.587357 0.918937,1.402449 1.660562,0.923589 0.600385,-0.531097 0.318616,-1.436008 0.412533,-2.139091 0.08121,-6.143456 -0.452047,-12.284696 -1.353191,-18.357983 -0.583716,-3.445272 -1.178635,-6.960798 -2.686129,-10.143147 -0.566711,-1.116102 -1.413502,-2.356468 -2.785465,-2.4512 -0.76165,-0.06054 -1.510388,-0.425691 -1.982915,-1.049269 -0.81749,-0.705656 -1.962805,-0.899232 -3.01021,-0.911332 z"
         id="path3241"
         inkscape:connector-curvature="0"
         transform="translate(-95.874242,-93.852812)" />
      <path
         style="opacity:1;fill:#ffffff;fill-opacity:1;fill-rule:evenodd;stroke:#000000;stroke-width:0.00883884;stroke-linecap:round;stroke-linejoin:round;stroke-miterlimit:4;stroke-dasharray:none;stroke-opacity:1"
         d="m -70.527363,-17.863173 c -3.013998,0.241821 -5.984297,0.860768 -8.976546,1.280477 -10.607794,1.665636 -21.262891,2.99866 -31.857781,4.787827 -4.77072,0.817474 -9.56999,1.482659 -14.38871,1.8667941 -13.52082,1.1522268 -27.11147,1.4754862 -40.69817,1.412964 -0.68671,-0.1368771 -1.26834,0.4673317 -1.12385,1.1473633 0.0159,2.0307435 -0.0318,4.0702428 0.0239,6.095508 0.1249,0.89200898 1.17793,0.70011081 1.8309,0.70809405 11.54947,-0.0153045 23.09277,-0.56374355 34.61482,-1.32796425 14.08391,-1.0010767 28.15897,-2.4135375 42.069204,-4.8763064 5.775929,-1.060258 11.551947,-2.2770973 17.101462,-4.2261188 1.342151,-0.494757 2.860689,-1.274355 3.188097,-2.8064 0.178014,-1.035958 0.269151,-2.14165 0.005,-3.168342 -0.284107,-0.726351 -1.076102,-0.949147 -1.788308,-0.893896 z"
         id="path3243"
         inkscape:connector-curvature="0"
         transform="translate(-95.874242,-93.852812)" />
      <path
         style="opacity:1;fill:#ffffff;fill-opacity:1;fill-rule:evenodd;stroke:#000000;stroke-width:0.01767767;stroke-linecap:round;stroke-linejoin:round;stroke-miterlimit:4;stroke-dasharray:none;stroke-opacity:1"
         d="m -41.884352,-83.888008 c -4.940571,0.06053 -10.291385,0.741487 -14.235703,3.97644 -0.847459,0.769639 0.148534,1.728415 0.90598,1.906219 -0.237122,1.27203 0.788705,2.381214 0.874216,3.642566 1.131994,6.085549 0.760177,12.381878 0.649627,18.576643 -0.343291,9.485324 -0.943635,19.024283 -0.365472,28.527441 0.483318,5.098576 1.044081,10.526621 4.017527,14.864779 1.791919,2.6311624 5.065039,4.0655268 8.213211,3.6142548 3.100767,-0.3044732 5.962967,-1.6561008 8.96035,-2.4172428 11.160155,-3.529159 21.875946,-9.923415 28.5560739,-19.749434 5.3239784,-7.707814 7.3626415,-17.819204 4.53727261,-26.848459 -2.84872461,-9.411756 -10.30386951,-16.743398 -18.69193951,-21.490106 -3.411506,-2.119651 -7.481793,-2.659159 -11.333939,-3.508723 -3.983218,-0.739481 -8.034268,-1.136354 -12.087204,-1.094378 z"
         id="path3245"
         inkscape:connector-curvature="0"
         transform="translate(-95.874242,-93.852812)" />
      <path
         style="opacity:1;fill:#ffffff;fill-opacity:1;fill-rule:evenodd;stroke:#000000;stroke-width:0.03535534;stroke-linecap:round;stroke-linejoin:round;stroke-miterlimit:4;stroke-dasharray:none;stroke-opacity:1"
         d="m -203.65275,-71.767441 c -15.1051,0.34616 -30.77219,0.07319 -44.94686,6.109154 -6.97365,2.618954 -14.19669,6.645935 -17.17971,13.879234 -3.26102,6.494553 -3.41321,14.203919 -1.81895,21.1702 1.92094,6.961272 9.06136,10.262577 15.03951,13.118677 3.09995,1.75816 6.65981,2.446646 10.18362,1.888006 7.2689,-0.855768 14.82894,-5.065967 17.57478,-12.135444 1.38709,-4.629948 2.23695,-10.04325 -0.70296,-14.284386 -2.70194,-3.464994 -6.64229,-6.064652 -10.82895,-7.3459 -5.37897,-0.234274 -11.62164,0.912977 -15.15239,5.358544 -0.92365,1.737769 -2.2608,3.912846 -1.61102,5.91097 1.59294,0.965968 3.02881,-1.249229 4.50781,-1.734621 4.29049,-2.093411 10.14341,-1.834781 13.67672,1.574417 2.11765,2.620815 0.8462,6.173631 0.18299,9.099165 -1.4377,3.735903 -5.10838,6.804361 -9.27871,6.406776 -5.70786,-0.138271 -12.05122,-2.433695 -14.71528,-7.859658 -3.86149,-6.770977 -4.66118,-15.677357 -0.18023,-22.312533 4.88171,-7.546952 14.0942,-10.529501 22.4755,-12.169971 10.95803,-1.257069 22.28711,-0.09977 33.37144,-0.934983 0.94856,-0.695538 2.00813,-0.04877 3.0349,-0.522734 0.85516,-1.11941 1.1488,-2.871623 0.78306,-4.239188 -0.94023,-1.34082 -3.02605,-0.844549 -4.41527,-0.975725 z"
         id="path3247"
         inkscape:connector-curvature="0"
         transform="translate(-95.874242,-93.852812)" />
      <path
         style="opacity:1;fill:#ffffff;fill-opacity:1;fill-rule:evenodd;stroke:#000000;stroke-width:0.03535534;stroke-linecap:round;stroke-linejoin:round;stroke-miterlimit:4;stroke-dasharray:none;stroke-opacity:1"
         d="m -86.330056,-73.82316 c -4.387232,0.239316 -8.928475,0.130515 -13.171935,1.343779 -1.571109,0.803494 -0.364979,2.726112 0.961223,3.00106 1.812581,0.16955 1.277038,1.647803 1.355188,2.887473 1.356018,1.187265 3.725904,-0.221124 5.485529,-0.12282 5.012083,-0.870083 10.235394,-0.780169 15.130002,-2.170793 2.062416,-1.12802 0.741964,-4.093791 -1.26713,-4.34415 -2.771928,-0.649256 -5.664209,-0.58627 -8.492877,-0.594549 z"
         id="path3249"
         inkscape:connector-curvature="0"
         transform="translate(-95.874242,-93.852812)" />
      <path
         style="opacity:1;fill:#ffffff;fill-opacity:1;fill-rule:evenodd;stroke:#000000;stroke-width:0.03535534;stroke-linecap:round;stroke-linejoin:round;stroke-miterlimit:4;stroke-dasharray:none;stroke-opacity:1"
         d="m -70.925625,-18.288347 c -10.196537,1.063744 -20.29342,2.974273 -30.456865,4.328033 -11.66919,1.845155 -23.28907,3.750148 -35.09358,4.1287962 -10.02537,0.6694084 -20.09535,0.4895431 -30.13546,0.8564021 -3.04406,1.0509074 -6.4765,0.2220411 -9.66271,0.2476585 -15.16157,-0.8507279 -30.18582,-3.4158188 -45.24925,-5.4501418 -2.14278,0.08606 -5.23486,-1.363201 -6.34708,1.176153 -0.72535,0.987581 -2.3807,3.0245637 -0.55135,3.7846433 12.58071,3.7137648 25.63777,5.5911785 38.67712,6.8197589 7.23936,0.8524596 14.54549,1.171561 21.76739,1.82296441 2.69155,1.42018083 5.99445,0.33373955 8.92096,0.53238352 25.71126,-0.65699412 51.5046,-2.44694553 76.7674,-7.46672583 4.394092,-1.1472765 9.237211,-1.7294184 12.993776,-4.4608493 1.756142,-1.451251 1.187855,-4.179436 0.72506,-6.034576 -0.722932,-0.317096 -1.57356,-0.253007 -2.355411,-0.2845 z m -96.970995,10.011361 c -0.004,-0.016034 0.0459,-0.072101 0,0 z"
         id="path3251"
         inkscape:connector-curvature="0"
         transform="translate(-95.874242,-93.852812)" />
    </g>
    <path
       id="path1"
       d="m 165.72261,97.678499 c 17.64289,30.922661 9.42779,80.694861 -8.37102,111.059161 -0.54532,0.96776 -4.03488,6.11036 -4.28493,6.31518 -0.11521,0.0939 -0.80476,1.01128 -1.53271,2.03963 -1.06931,1.50796 -7.99979,9.93445 -8.71153,10.59072 -0.10155,0.0939 -1.1043,1.24596 -2.22823,2.5602 -1.12393,1.31424 -2.13521,2.46633 -2.24701,2.56021 -0.11179,0.0939 -0.4907,0.97714 -0.8406,1.96282 -0.34989,0.98568 -0.82865,1.79214 -1.06419,1.79214 -1.85103,0 -6.23154,-10.7136 -8.3036,-20.31096 -0.16215,-0.75099 -0.52058,-2.36392 -0.79537,-3.58429 -2.89303,-12.82236 -4.26787,-35.96577 -2.62592,-44.20622 0.1869,-0.93874 0.64176,-3.47335 1.01043,-5.63245 0.94813,-5.55309 1.67608,-8.95048 2.06608,-9.63918 0.18434,-0.32599 0.33539,-0.89436 0.33539,-1.26388 0,-0.36867 0.13911,-1.02409 0.30979,-1.45505 0.17068,-0.43182 0.65029,-1.93636 1.0659,-3.34448 0.98567,-3.33509 1.66413,-5.46774 2.00976,-6.31517 0.15276,-0.3755 0.43523,-1.06675 0.62725,-1.53613 0.19116,-0.46937 0.92252,-2.31271 1.62317,-4.09632 8.89159,-22.61601 23.68532,-39.974211 31.95734,-37.495931"
       inkscape:connector-curvature="0"
       style="fill:#f5f4f4;fill-rule:evenodd;stroke:#000000;stroke-width:0.85340196;stroke-opacity:1"
       sodipodi:nodetypes="cccccsssscccccscccccc" />
    <path
       id="path4-5-9"
       d="m 174.28719,283.04153 c -0.39984,0.0944 -0.85636,-0.84102 -1.24213,-0.21423 -0.38578,0.6268 -0.99986,1.10676 -1.9877,2.99195 -0.7436,0.98736 -25.79485,39.47219 -25.74756,40.61447 0.0246,0.60107 3.31448,-1.36705 5.02759,-1.8744 8.05578,-2.94434 4.21804,-1.40747 10.28326,-3.33494 5.43591,-1.21928 7.88337,-4.19485 7.49578,-0.90367 l -1.07325,10.38173 c -0.7298,8.5526 -1.24078,8.23811 -0.7298,8.5526 0.68385,0.4209 5.88725,-3.64957 8.68891,-5.7266 4.23295,-3.15847 4.63743,-3.59011 6.45154,-5.08694 1.76225,-1.48577 1.31175,-0.8636 1.42474,1.23564 1.15112,15.01817 0.0106,0.29215 1.03293,15.01685 -0.0101,4.20126 0.29781,5.66985 0.29781,5.66985 0,0 2.26106,-3.32323 9.57478,-15.16237 4.6098,-7.4631 8.73966,-14.04149 9.17752,-14.61744 6.09454,-9.51849 6.78266,-11.37171 8.12305,-14.03837 -0.40315,-1.18986 -36.20867,-23.76921 -37.30929,-23.50723"
       inkscape:connector-curvature="0"
       style="fill:#f2c06d;fill-rule:evenodd;stroke:#000000;stroke-opacity:1"
       sodipodi:nodetypes="csccccccsccccccccc" />
    <path
       id="path4-5-9-3"
       d="m 388.1857,304.39953 c -0.0511,0.40765 -1.08719,0.5086 -0.63466,1.08903 0.45254,0.58044 0.68773,1.3235 2.10906,2.90768 0.66538,1.04168 27.97401,37.95896 29.06083,38.3137 0.5718,0.18696 -0.12303,-3.58322 6e-5,-5.36564 0.0554,-8.5768 0.15475,-4.44397 0.46756,-10.8004 0.75653,-5.51937 -1.17657,-8.85211 1.77185,-7.3392 l 9.35269,4.63241 c 7.75881,3.67161 7.28562,4.04053 7.75881,3.67161 0.63327,-0.49373 -1.36297,-6.79127 -2.3304,-10.14202 -1.48072,-5.06963 -1.74386,-5.59942 -2.51263,-7.82214 -0.77653,-2.17026 -0.35095,-1.53079 1.6555,-0.90331 14.4741,4.1679 0.27743,0.0922 14.43156,4.27817 3.93304,1.47711 5.41666,1.70167 5.41666,1.70167 0,0 -2.32396,-3.27954 -10.86218,-14.26837 -5.38249,-6.92654 -10.10367,-13.09432 -10.49038,-13.70579 -6.78969,-9.03577 -8.28576,-10.32794 -10.31615,-12.51545 -1.25573,-0.0379 -34.92086,25.62375 -35.05989,26.74654"
       inkscape:connector-curvature="0"
       style="fill:#f2c06d;fill-rule:evenodd;stroke:#000000;stroke-opacity:1"
       sodipodi:nodetypes="csccccccsccccccccc" />
    <path
       id="path0-1"
       d="m 347.9726,-25.514771 c -1.72497,0.30584 -1.83123,0.28581 -7.30283,0.58635 -4.55119,2.24326 -8.30775,3.08833 -12.4487,4.80778 0,0 -6.01075,4.09195 -8.84173,6.02416 -0.59086,1.0149 10.34622,-1.55064 10.34622,-1.55064 24.5995,0.70719 24.65855,31.02203 0.0591,31.02203 -5.52598,0 -11.82479,-2.48068 -13.59402,-5.35514 -0.42756,-0.6930202 -0.96961,-1.4017802 -1.20576,-1.5750402 -1.15384,-0.84581 -1.55375,-7.95433003 -1.01017,-12.34257 0.86678,-4.1237 6.3134,-10.4899498 5.40463,-10.1986398 -1.03295,0.33113 -7.92543,8.1004598 -10.17137,13.28028977 -5.43336,9.92412003 -6.09033,31.27997023 -3.99059,36.72492023 0.16076,2.3397 0.60442,3.00015 1.16099,4.51722 6.10739,10.71503 8.36322,13.6383 14.5082,18.80444 11.79972,9.92119 25.65495,14.14545 43.18642,13.17051 3.93563,-0.21893 7.4616,-0.66467 7.83548,-0.99069 0.37389,-0.32763 1.32559,-0.59381 2.1145,-0.59381 1.56711,0 12.80156,-4.42429 13.18617,-5.19448 0.13246,-0.26147 0.6154,-0.47724 1.07335,-0.47724 3.21828,-0.009 20.5136,-16.91123 20.5136,-20.04716 0,-0.27719 0.61719,-1.62858 1.37032,-3.00044 12.26307,-22.34985 -1.89982,-53.92159 -28.91975,-64.46333 -1.18069,-0.45992 -2.70665,-1.08679 -3.39002,-1.39392 -0.68336,-0.30556 -1.98749,-0.556 -2.89806,-0.556 -0.91056,0 -2.00895,-0.31185 -2.44188,-0.69301 -1.04471,-0.91983 -20.3347,-1.31675 -24.54403,-0.50559"
       inkscape:connector-curvature="0"
       style="fill:#3d3c36;fill-rule:evenodd;stroke:#000000;stroke-width:1.67858028;stroke-opacity:1"
       sodipodi:nodetypes="cccccscccsccccccsccscccscc" />
  </g>
</svg>
