<?xml version="1.0" standalone="no"?>
<!DOCTYPE svg PUBLIC "-//W3C//DTD SVG 20010904//EN"
 "http://www.w3.org/TR/2001/REC-SVG-20010904/DTD/svg10.dtd">
<svg version="1.0" xmlns="http://www.w3.org/2000/svg"
 width="292.000000pt" height="289.000000pt" viewBox="0 0 292.000000 289.000000"
 preserveAspectRatio="xMidYMid meet">
<metadata>
Created by potrace 1.15, written by Peter Selinger 2001-2017
</metadata>
<g transform="translate(0.000000,289.000000) scale(0.100000,-0.100000)"
fill="#000000" stroke="none">
<path d="M885 2220 c0 -368 2 -670 4 -670 2 0 40 23 84 51 91 59 163 93 177
84 6 -3 10 -17 10 -30 0 -13 6 -25 13 -27 7 -3 12 -24 12 -57 0 -47 2 -52 20
-46 11 3 40 8 65 12 l45 7 -35 6 c-35 6 -35 7 -10 17 35 15 71 49 62 58 -4 4
5 5 21 3 18 -4 27 -1 27 8 0 7 3 20 6 28 5 12 2 15 -12 9 -11 -4 -15 -3 -10 5
6 11 0 12 -61 14 -18 0 -33 2 -33 3 0 10 63 40 95 46 38 6 38 7 8 8 -60 2 -31
40 31 42 l41 1 -50 13 c-37 10 -43 13 -22 14 15 1 27 6 27 11 0 6 15 10 33 11
l32 1 -38 12 -38 12 34 12 c18 7 44 12 58 12 l24 1 -25 12 c-34 16 -36 37 -5
37 14 0 25 5 25 10 0 6 9 21 20 32 11 12 19 27 17 32 -2 6 2 16 9 23 16 16 28
17 18 1 -5 -7 -3 -8 5 -4 13 8 35 55 33 68 -1 4 10 3 24 -2 19 -7 23 -7 18 2
-5 8 -2 9 10 5 14 -5 17 -3 12 8 -3 8 -1 15 4 15 6 0 10 7 10 15 0 10 11 15
35 15 l35 0 -25 44 c-14 25 -25 51 -25 58 0 7 7 0 16 -17 8 -16 21 -37 28 -45
7 -8 16 -23 19 -33 4 -10 11 -16 16 -13 5 3 19 -2 32 -12 l22 -19 -22 -46
c-25 -52 -24 -83 2 -81 9 1 17 -2 17 -8 0 -5 5 -6 10 -3 6 3 10 2 10 -4 0 -5
-4 -13 -10 -16 -5 -3 -10 -1 -10 5 0 6 -5 8 -11 4 -8 -4 -8 -9 0 -17 6 -6 11
-21 11 -33 0 -19 7 -21 92 -28 50 -3 112 -6 138 -6 35 0 52 -5 66 -21 l19 -21
-95 3 -95 4 -3 -224 c-1 -124 1 -228 6 -233 5 -5 33 -11 63 -14 97 -9 119 -15
119 -29 0 -7 -9 -17 -21 -20 -18 -6 -204 4 -382 20 l-47 4 15 -29 c9 -17 20
-41 25 -55 10 -25 10 -25 41 -10 59 31 155 0 183 -59 20 -41 14 -43 -21 -7
-16 16 -49 35 -72 42 -36 11 -47 10 -76 -4 -34 -16 -35 -19 -35 -72 0 -62 -8
-83 -51 -133 -27 -31 -38 -62 -21 -62 4 0 36 -5 72 -11 91 -15 148 -44 195
-100 l40 -48 3 40 c4 56 -25 109 -69 125 l-34 12 36 1 c22 1 46 -7 60 -18 21
-17 25 -30 30 -118 l5 -98 2 95 c2 97 -13 154 -50 191 -11 11 -13 26 -8 59 4
25 8 35 9 23 0 -12 14 -29 33 -40 37 -21 35 -5 41 -313 5 -247 0 -420 -14
-420 -5 0 -9 35 -10 78 l-1 77 -16 -55 c-21 -67 -43 -109 -71 -134 -29 -26
-26 -46 14 -106 38 -56 56 -111 57 -171 l0 -39 125 0 124 0 -6 414 c-7 452
-10 426 51 422 28 -2 29 0 29 44 0 87 68 143 143 119 55 -17 80 -35 97 -72 10
-19 11 -26 3 -17 -39 47 -107 64 -161 39 -26 -12 -57 -57 -57 -84 0 -10 -5
-13 -12 -9 -8 5 -9 2 -4 -12 18 -42 17 -52 -8 -88 -33 -49 -35 -67 -39 -438
l-4 -318 148 0 149 0 0 300 c0 366 -1 368 -103 371 l-42 2 45 7 c63 10 112 -8
122 -46 4 -16 6 -165 3 -331 -5 -299 -5 -303 15 -303 18 0 20 7 20 58 0 120
13 537 16 541 2 2 4 -131 4 -297 l0 -302 81 0 82 0 -7 182 c-3 101 -9 527 -12
948 -4 421 -7 766 -8 766 0 1 -53 5 -116 8 -63 4 -227 14 -364 23 l-248 17 6
50 c3 28 6 71 6 96 0 35 3 42 11 30 9 -12 9 -11 3 5 -5 11 -11 92 -14 180 -6
185 0 205 76 281 24 25 36 41 27 35 -23 -12 -54 -46 -87 -95 l-26 -39 -2 84
c-2 107 -3 117 -8 122 -3 3 -54 7 -115 11 -196 10 -349 18 -385 20 l-35 1 0
-225 0 -225 -67 -25 c-70 -26 -82 -43 -35 -48 15 -2 27 -9 27 -16 0 -15 -38
-52 -45 -44 -4 4 -12 38 -14 61 -1 4 -6 7 -12 7 -5 0 -7 -6 -3 -12 5 -9 2 -9
-9 1 -21 17 -22 35 -2 27 8 -3 19 3 24 13 13 23 3 35 -16 20 -10 -9 -13 -8
-13 5 0 14 11 21 33 17 18 -3 5 54 -18 74 -20 19 -21 24 -9 29 22 9 24 8 18
-9 -4 -8 -1 -15 5 -15 7 0 10 29 8 84 -1 53 -6 82 -12 78 -5 -3 -3 3 5 13 11
14 12 19 2 22 -6 3 -9 10 -5 16 4 7 9 80 10 164 l2 152 -257 1 -257 1 0 -671z
m1058 420 c32 0 56 -4 53 -9 -4 -5 3 -7 14 -4 19 5 20 0 20 -65 0 -76 -7 -85
-58 -77 -15 2 -76 7 -137 9 -125 7 -135 12 -135 82 0 76 2 77 99 71 47 -4 112
-7 144 -7z m-42 -327 c-2 -31 5 -38 32 -34 12 2 8 -17 -5 -22 -10 -4 -10 -8 0
-15 11 -8 11 -10 -1 -15 -9 -3 -18 1 -21 9 -6 15 -36 20 -36 5 0 -6 9 -16 20
-24 23 -16 16 -27 -17 -27 -16 0 -27 8 -33 25 -5 14 -17 25 -28 25 -38 0 -54
78 -27 131 13 23 20 28 39 23 14 -3 27 -1 31 6 13 21 50 -49 46 -87z m-299
-124 c-23 -87 -28 -97 -35 -75 -5 14 -13 26 -17 26 -5 0 -78 -76 -161 -170
-158 -176 -162 -179 -198 -136 -11 13 7 37 115 158 70 79 141 157 157 175 l30
32 -29 12 -29 11 25 10 c38 15 154 56 162 57 3 1 -6 -44 -20 -100z"/>
<path d="M2271 2440 c-51 -12 -112 -60 -139 -110 -49 -91 -8 -223 89 -290 91
-62 207 -52 279 25 l25 26 -29 -11 c-16 -6 -48 -8 -70 -5 -23 4 -50 8 -61 9
-11 2 -23 -1 -27 -7 -9 -14 -82 45 -108 87 -11 19 -17 41 -14 50 4 9 1 16 -6
16 -20 0 -7 98 16 116 10 9 12 12 4 8 -13 -7 -13 -6 0 11 24 31 64 64 77 65 6
0 15 5 18 10 7 11 -5 11 -54 0z"/>
<path d="M2309 2403 c-35 -30 -59 -78 -59 -118 0 -36 37 -104 77 -142 l33 -32
-30 4 c-16 2 -30 -1 -30 -6 0 -5 1 -9 3 -9 1 -1 40 -3 87 -5 56 -3 78 -2 65 4
-12 6 -14 10 -6 10 25 2 97 53 113 82 13 22 14 36 7 71 -15 63 -47 104 -110
138 -71 37 -108 38 -150 3z m80 -45 c5 -13 17 -23 27 -23 12 0 19 -7 19 -20 0
-11 -6 -19 -13 -17 -9 2 -12 -6 -10 -25 2 -22 9 -29 31 -31 28 -3 36 -17 15
-25 -10 -3 -10 -9 0 -26 8 -14 8 -21 1 -21 -5 0 -8 -4 -5 -9 8 -12 -24 -19
-63 -13 -22 3 -35 12 -41 28 -6 14 -18 24 -29 24 -26 0 -41 29 -41 77 0 45 23
83 51 83 10 0 19 5 19 10 0 19 31 10 39 -12z"/>
<path d="M1800 1820 c-13 -28 -29 -55 -36 -61 -22 -18 -96 -262 -92 -305 l3
-39 85 -11 c47 -6 89 -7 93 -3 14 11 19 439 6 455 -20 24 -35 15 -59 -36z"/>
<path d="M715 1421 c-3 -5 1 -16 8 -23 12 -11 12 -16 -1 -28 -14 -13 -15 -12
-9 3 3 9 5 17 4 17 -1 0 -20 -7 -42 -14 -28 -10 -44 -11 -52 -4 -9 7 -15 6
-19 -6 -8 -21 -31 -20 -37 2 -4 15 -5 15 -6 1 -1 -18 -74 -53 -79 -38 -2 5
-16 1 -30 -9 -29 -20 -64 -21 -85 -3 -10 8 -28 7 -72 -4 -67 -18 -77 -23 -70
-35 3 -5 -5 -14 -17 -21 -28 -14 -68 -50 -68 -60 0 -5 15 -6 33 -4 l32 5 -30
-10 c-39 -13 -81 -52 -134 -123 l-42 -57 2 -375 c1 -328 3 -375 16 -375 10 0
14 -7 10 -20 -3 -11 -1 -23 4 -26 5 -3 6 -10 3 -16 -4 -6 -10 -5 -16 3 -6 10
-7 7 -3 -9 4 -13 2 -22 -4 -22 -7 0 -11 -32 -11 -86 0 -82 1 -85 22 -82 17 2
21 10 23 41 0 21 5 41 11 45 5 4 11 21 12 37 2 17 15 45 29 63 31 41 66 119
58 131 -3 5 -1 12 5 16 5 3 10 17 10 29 0 25 22 50 34 39 4 -4 4 0 1 9 -5 11
2 26 19 43 21 21 23 27 11 31 -8 4 -15 11 -15 16 0 6 7 8 15 4 9 -3 19 3 25
14 6 11 26 27 45 35 30 12 35 19 35 47 0 19 -5 39 -11 45 -7 7 -8 19 -4 30 5
10 7 23 6 30 -1 6 3 14 9 18 19 11 10 25 -16 25 -14 0 -23 4 -19 10 4 6 11 7
17 4 6 -4 5 2 -2 15 -6 12 -16 19 -22 15 -7 -4 -6 -10 3 -16 10 -7 6 -8 -14
-5 -27 4 -38 -7 -14 -16 7 -3 6 -6 -5 -6 -26 -1 -32 19 -12 34 11 8 60 34 109
59 60 29 109 63 148 101 31 31 57 54 57 52 0 -2 21 17 48 42 77 75 145 130
154 125 5 -3 7 -2 6 3 -2 4 0 9 4 11 4 1 20 15 36 30 16 15 59 54 96 86 36 33
66 64 66 68 0 5 -12 6 -26 4 -15 -3 -24 -3 -21 1 14 13 -20 29 -57 26 -24 -2
-57 4 -79 13 -20 10 -40 14 -44 11 -3 -4 1 -7 11 -7 9 0 15 -4 11 -10 -3 -6
-15 -5 -31 2 -18 8 -21 14 -12 20 9 5 10 8 1 8 -6 0 -14 -4 -18 -9z"/>
<path d="M1084 423 c-38 -43 -75 -82 -83 -87 -31 -19 -49 -46 -44 -64 2 -11 0
-37 -6 -58 -7 -27 -7 -41 0 -49 7 -6 10 -6 9 0 -4 19 0 38 7 32 10 -11 43 24
43 45 0 10 7 18 15 18 8 0 12 6 9 14 -3 7 2 21 11 30 9 9 14 16 10 16 -4 0 0
7 9 15 8 9 12 23 9 33 -3 9 -3 14 2 10 11 -11 35 11 35 32 0 9 9 25 21 36 26
23 43 54 31 54 -5 0 -40 -35 -78 -77z"/>
</g>
</svg>
