<?xml version="1.0" encoding="UTF-8"?>
<svg id="svg30" width="492.16" height="194.29" version="1.0" viewBox="0 0 369.12 145.72" xmlns="http://www.w3.org/2000/svg">
	<g id="teclado" transform="translate(-3.4618 -48.962)">
		<path id="path4" d="m9.3074 49.447c-1.9025 0.57045-3.5596 2.0469-4.5108 4.0938l-0.76715 1.6107-0.092057 25.704c-0.030686 16.979 0.030686 25.502 0.24549 25.167 0.16472-0.28305-0.93429 69.531-0.68368 76.41 0.076202 2.0924 1.1588 7.1588 1.1732 5.9551 0.040846-3.4052 0.12415-80.52 0.30827-81.93 0.061372-0.50334 0.18411-12.114 0.30686-25.771 0.092057-14.429 0.30686-25.267 0.46029-25.905 0.4296-1.51 1.3809-2.6845 2.7617-3.4562 1.1661-0.67111 2.6083-0.67111 179.48-0.67111s178.32 0 179.48 0.67111c1.3809 0.77178 2.3321 1.9462 2.7617 3.4562 0.15343 0.63756 0.36823 11.476 0.46029 25.905 0.0921 13.657 0.0705 26.192 0.22392 26.829l0.12664 82.601-364.82 0.77684-2.7127-8.4631c0.53261-0.78007-0.21087 12.253 0.72109 12.251 24.255-0.0527 368.38-0.12745 368.35-1.6786-0.12375-14.732-0.97464-87.315-0.78101-86.983 0.2148 0.33556 0.27617-8.1876 0.24548-25.167l-0.092-25.67-0.76715-1.6778c-0.95131-2.0805-2.8231-3.6911-4.9098-4.1609-2.4856-0.57045-355-0.46978-356.97 0.10067z" style="stroke-width:.032089"/>
		<path id="path6" d="m16.764 63.976c-1.5343 0.63756-1.5343 0.67111-1.5343 9.664 0 8.0534 0.03069 8.5231 0.6444 9.362l0.61372 0.87245h7.7942c7.1805 0 7.8249-0.03356 8.4693-0.63756l0.73646-0.63756v-8.758c0-7.9191-0.06137-8.7916-0.55234-9.3285-0.49097-0.53689-1.3195-0.604-8.1317-0.67111-4.1733-0.03356-7.7942 0.03356-8.0397 0.13422zm15.128 1.6442c0.46029 0.16778 0.52166 1.0402 0.52166 8.0198 0 7.4829-0.03069 7.8185-0.6444 8.4225-0.58303 0.57045-1.2274 0.63756-6.9964 0.70467-3.4675 0.03356-6.6895-0.03355-7.1498-0.13422l-0.8592-0.16778 0.06137-7.9527 0.09206-7.9191 0.06137 7.6507 0.09206 7.6171 6.9964-0.06711 6.9657-0.10067 0.09206-7.55c0.03068-4.1274 0.03068-7.6843-0.06137-7.8856-0.06137-0.20133-0.73646-0.302-1.5343-0.23489-1.3502 0.13422-1.3809 0.16778-0.95126 0.83889 0.36823 0.57045 0.46029 1.8456 0.46029 5.7045 0 4.3622 0.09206 5.134 0.6444 6.3085 0.79783 1.7113 0.55234 2.0469-0.61372 0.83889-0.82852-0.87245-1.074-0.93956-4.4494-1.1073l-3.5596-0.20133-1.5343 1.0402c-0.8592 0.57045-1.5343 0.97312-1.5343 0.906 0-0.06711 0.27617-0.80534 0.61372-1.6778 0.52166-1.3422 0.61372-2.3153 0.61372-6.4762 0-4.0602 0.09206-4.9662 0.52166-5.5031 0.46029-0.57045 0.4296-0.604-0.46029-0.604-0.55234 0-0.98195-0.13422-0.98195-0.302 0-0.36911 12.796-0.50334 13.594-0.16778z" style="stroke-width:.032089"/>
		<path id="path8" d="m42.295 64.077c-0.36823 0.16778-0.82852 0.70467-0.98195 1.1744-0.18412 0.50334-0.30686 4.4629-0.30686 8.9258v8.0534l0.76715 0.80534 0.73646 0.83889h29.949c29.52 0 29.919 0 30.532-0.67111 0.58304-0.63756 0.61372-1.1073 0.61372-9.3285 0-4.7314-0.12274-8.7916-0.24549-8.9929-0.67508-1.1073-1.3502-1.1409-30.962-1.1073-16.877 0-29.704 0.13422-30.103 0.302zm8.6841 2.0133c3.9585 0 3.8357-0.16778 3.8357 6.0736 0 4.3622 0.09206 5.2011 0.61372 6.342 0.79783 1.7449 0.79783 2.3153-0.06137 1.4429-1.3502-1.3087-1.9946-1.4764-5.5541-1.3758-3.3141 0.06711-3.4368 0.10067-4.7256 1.1744-0.73646 0.604-1.3195 1.0402-1.3195 0.97312 0-0.06711 0.27617-0.83889 0.61372-1.7113 0.52166-1.3087 0.61372-2.3153 0.61372-6.3085 0-3.1207 0.15343-5.0334 0.39892-5.6038 0.36823-0.80534 1.5343-1.3758 2.3014-1.1409 0.24549 0.06711 1.7184 0.13422 3.2834 0.13422zm18.35 0.73822c0.4296 0.57045 0.52166 1.4093 0.52166 5.6038 0 4.1609 0.09206 5.134 0.61372 6.3756 0.67509 1.6107 0.61372 2.0805-0.15343 1.2416-1.1967-1.3087-2.2708-1.5771-5.6155-1.51-3.0379 0.06711-3.3754 0.13422-4.5722 1.0067-0.73646 0.53689-1.3195 0.87245-1.3195 0.77178s0.27617-0.73822 0.61372-1.4764c0.52166-1.1409 0.61372-1.9798 0.61372-6.4762 0-6.7447-0.18412-6.5098 5.4928-6.342 2.8231 0.10067 3.3141 0.20133 3.805 0.80534zm11.415-0.73822c3.9278 0 3.8357-0.16778 3.8357 5.9729 0 4.5636 0.06137 5.0669 0.76714 6.7111 0.4296 1.0067 0.76714 1.8791 0.76714 1.9462 0 0.06711-0.61372-0.36911-1.3195-0.97312-1.3195-1.0738-1.4422-1.1409-4.5722-1.208-3.3754-0.06711-4.879 0.302-5.7382 1.4093-0.79783 1.0738-0.95126 0.57045-0.30686-0.87245 0.61372-1.2751 0.67509-1.8456 0.61372-6.2749-0.03068-3.4227 0.06137-5.1005 0.33754-5.7045 0.39892-0.80534 1.565-1.3758 2.3321-1.1409 0.24549 0.06711 1.7184 0.13422 3.2834 0.13422zm18.411 0.77178c0.36823 0.57045 0.46029 1.812 0.46029 5.7045 0 4.2951 0.09206 5.134 0.61371 6.2749 0.33755 0.73822 0.61372 1.4093 0.61372 1.51 0 0.13422-0.58303-0.23489-1.2888-0.80534-1.2888-0.97312-1.4115-1.0067-4.7563-1.0067-3.2527 0-3.4982 0.06711-4.8177 1.0067-0.76714 0.50334-1.4115 0.87245-1.4115 0.77178 0-0.06711 0.27617-0.73822 0.61372-1.4764 0.52166-1.1409 0.61372-1.9798 0.61372-6.2749 0-6.9125-0.15343-6.7111 5.5848-6.5434 2.9765 0.10067 3.3448 0.16778 3.7744 0.83889z" style="stroke-width:.032089"/>
		<path id="path10" d="m110.48 64.077c-0.36823 0.16778-0.73646 0.43622-0.8592 0.604-0.0921 0.16778-0.2148 4.2616-0.24549 9.0936l-0.0921 8.8251 0.73646 0.63756c0.67508 0.604 1.6263 0.63756 30.594 0.63756 29.489 0 29.888 0 30.502-0.67111 0.58303-0.63756 0.61372-1.1073 0.61372-9.3285 0-6.946-0.0921-8.7916-0.4296-9.3285-0.4296-0.63756-1.1354-0.63756-30.318-0.70467-16.478-0.03356-30.164 0.06711-30.502 0.23489zm12.152 2.6845c0.15343 0.26845 0.30686 2.6845 0.30686 5.3689 0 4.4629 0.0614 5.0334 0.76715 6.6105 0.70577 1.7113 0.6444 2.3153-0.18412 1.2416-0.88989-1.1744-2.0253-1.4764-5.5234-1.4764-3.3448 0-3.4368 0-4.6336 1.0402-0.6444 0.57045-1.2274 1.0067-1.2888 0.93956-0.0614-0.06711 0.18412-0.80534 0.52166-1.6442 0.55235-1.3087 0.64441-2.0805 0.58303-6.2078-0.12274-6.8454-0.12274-6.8454 5.8303-6.5434 2.5162 0.13422 3.4061 0.302 3.6209 0.67111zm29.704-0.23489c0.27617 0.20133 0.36823 1.6778 0.36823 5.3689 0 4.6978 0.0614 5.2347 0.73646 6.7782 0.4296 0.906 0.70577 1.7449 0.6444 1.812-0.0614 0.06711-0.55235-0.26844-1.074-0.77178-1.2888-1.1744-1.8718-1.2751-5.6155-1.1409-2.9458 0.10067-3.2834 0.16778-4.296 1.0402-1.2581 1.0402-1.4116 0.77178-0.58303-0.87245 0.4296-0.906 0.52166-1.9462 0.52166-6.3085 0-5.6709 0.15343-6.2078 1.6263-6.4091 1.3809-0.16778 7.2419 0.20133 7.6715 0.50334zm14.883 0.13422c0.46028 0.46978 0.52165 1.208 0.52165 5.5031 0 4.1945 0.0921 5.1676 0.61372 6.5098 0.33754 0.87245 0.61372 1.6442 0.61372 1.7113 0 0.10067-0.61372-0.302-1.3809-0.87245-1.3502-1.0067-1.4422-1.0402-4.6949-0.97312-3.2834 0.03356-4.3574 0.33556-5.4314 1.51-0.76715 0.87245-0.85921 0.33556-0.18412-1.1744 0.55235-1.1744 0.6444-1.9462 0.6444-6.3085 0-6.8789-0.15342-6.7447 5.5234-6.5434 2.3935 0.10067 3.3754 0.26844 3.7744 0.63756zm-29.735 0.16778c0.39891 0.604 0.49097 1.7785 0.49097 5.6374 0 4.1274 0.0921 5.1005 0.61371 6.342 0.33755 0.80534 0.58303 1.51 0.52166 1.5771-0.0307 0.03356-0.70577-0.36911-1.4422-0.906-1.3809-1.0067-1.4116-1.0067-4.9711-0.906-3.4368 0.10067-3.6209 0.13422-4.4494 1.0067-0.49098 0.53689-0.98195 0.93956-1.1047 0.93956-0.2148 0 0.36823-2.0469 0.73646-2.5167 0.15343-0.16778 0.27617-2.6509 0.27617-5.5031 0-6.7447-0.24549-6.4091 4.9404-6.4091 3.713 0 3.9585 0.03356 4.3881 0.73822z" style="stroke-width:.032089"/>
		<path id="path12" d="m178.79 63.976c-1.1661 0.46978-1.2274 1.0067-1.2274 10.033 0 8.7245 0 8.8251 0.67509 9.3285 0.61372 0.46978 4.0198 0.53689 30.471 0.53689s29.857-0.06711 30.471-0.53689c0.67509-0.50334 0.67509-0.604 0.67509-9.3285 0-7.0802-0.0921-8.9258-0.4296-9.4627-0.42961-0.63756-1.1354-0.63756-30.318-0.70467-16.417-0.03356-30.072 0.03356-30.318 0.13422zm56.554 2.6845c0.46029 0.46978 0.52166 1.208 0.52166 5.5367s0.0921 5.2011 0.61372 6.3756c0.88989 1.9798 0.76714 2.1476-0.67509 0.97312-1.2581-1.0067-1.3502-1.0402-4.8484-1.0402-3.5289 0-3.5596 0-4.6949 1.0402-0.6444 0.57045-1.2274 0.97312-1.2888 0.906-0.0921-0.10067 0.15343-0.80534 0.49097-1.6107 0.55235-1.2751 0.6444-2.0133 0.61372-6.1742-0.0614-6.8454-0.0614-6.8454 5.6155-6.644 2.3014 0.10067 3.2527 0.26844 3.6516 0.63756zm-44.586 0.06711c0.15343 0.36911 0.30686 2.7516 0.30686 5.3689 0 4.2616 0.0614 4.8991 0.73646 6.5769 0.4296 1.0067 0.70577 1.8456 0.61372 1.8456-0.0921 0-0.64441-0.40267-1.2581-0.906-1.0126-0.87245-1.3502-0.93956-4.6642-1.0402l-3.5902-0.13422-1.4422 1.208c-0.79783 0.67111-1.4422 1.1409-1.4422 1.1073 0-0.06711 0.33754-0.906 0.76714-1.8456 0.70578-1.6107 0.76715-2.114 0.76715-6.644 0-2.718 0.15343-5.1676 0.30686-5.5367 0.30685-0.57045 0.67508-0.63756 4.4494-0.63756 3.7744 0 4.1426 0.06711 4.4494 0.63756zm14.791-0.06711c0.49097 0.46978 0.55235 1.1073 0.55235 5.5031 0 4.1945 0.0921 5.1676 0.61371 6.5098 0.33755 0.87245 0.61372 1.6442 0.61372 1.7113 0 0.06711-0.52166-0.23489-1.1661-0.70467-1.0433-0.73822-1.6264-0.87245-4.7563-1.0738l-3.5289-0.20133-1.3195 1.0402c-0.70577 0.604-1.3502 1.0067-1.4116 0.93956-0.0614-0.06711 0.15343-0.70467 0.49098-1.4093 0.58303-1.1409 0.6444-1.8791 0.6444-6.342 0-6.8118-0.2148-6.5434 4.8177-6.5434 3.1913 0 3.9892 0.10067 4.4494 0.57045zm15.005 0c0.30686 0.40267 0.4296 1.8791 0.49098 5.6374 0.0307 4.4294 0.12274 5.3354 0.67508 6.5769 0.36823 0.77178 0.58303 1.4765 0.49098 1.5771-0.0614 0.06711-0.64441-0.33556-1.2888-0.906-1.1354-1.0402-1.1661-1.0402-4.7256-1.0402-3.4675 0-3.5902 0.03356-4.8177 1.0067-1.4729 1.1409-1.5343 1.0402-0.67509-0.93956 0.52166-1.1744 0.61371-2.0469 0.61371-6.2749 0-2.7516 0.15343-5.2011 0.30686-5.5702 0.30686-0.57045 0.67509-0.63756 4.4188-0.63756 3.4368 0 4.1733 0.10067 4.5108 0.57045z" style="stroke-width:.032089"/>
		<path id="path14" d="m245.99 64.111c-0.39892 0.20133-0.8592 0.50334-0.98195 0.73822-0.12274 0.23489-0.24548 4.2616-0.24548 8.9929 0 6.8789 0.0921 8.6909 0.4296 9.2278 0.4296 0.604 1.074 0.63756 23.689 0.73823 20.498 0.06711 23.321 0.03356 23.935-0.43622l0.73645-0.50334v-8.8251c0-4.832-0.12274-8.9594-0.24548-9.1607-0.67509-1.1073-1.4729-1.1409-24.058-1.1073-14.023 0-22.769 0.13422-23.26 0.33556zm46.336 1.9798c0.18412 0.36911 0.30686 3.4898 0.30686 7.6171 0 7.3487-0.18411 8.4225-1.3809 8.758-1.1661 0.33556-43.39 0.40267-44.188 0.06711l-0.76714-0.33556 0.0614-7.4494 0.0921-7.4829 0.0614 7.2816 0.0921 7.3151h13.809v-7.7178c0-4.2616-0.0307-7.8185-0.0614-7.9863-0.0921-0.20133-0.70578-0.23489-2.5162-0.10067-0.55234 0.03355-0.55234 0.06711-0.0921 0.43622 0.42961 0.36911 0.52166 1.208 0.55235 5.4696 0.0614 4.4965 0.12274 5.2347 0.76714 6.8118 0.39892 0.97312 0.73646 1.8456 0.73646 1.9462s-0.49097-0.26844-1.074-0.83889c-1.4116-1.3422-1.9332-1.4764-5.7689-1.3087-2.9458 0.10067-3.2834 0.16778-4.296 1.0402-1.2888 1.0738-1.4115 0.80534-0.52165-1.1073 0.52165-1.1409 0.61371-1.9798 0.61371-6.342 0-4.0267 0.0921-5.134 0.46029-5.5367 0.61372-0.67111 0.58303-0.83889-0.15343-0.63756-0.33754 0.10067-0.61372 0.03356-0.61372-0.13422 0-0.23489 7.8556-0.36911 21.787-0.36911 21.143-0.03356 21.787-0.03356 22.094 0.604z" style="stroke-width:.032089"/>
		<path id="path16" d="m262.25 73.808v8.0534h13.809v-15.704c0-0.23489-3.0686-0.36911-3.0686-0.13422 0 0.06711 0.2148 0.33556 0.46029 0.604 0.36823 0.40267 0.46029 1.51 0.46029 5.3354 0 4.3958 0.0614 4.9998 0.73646 6.7111 0.73646 1.7785 0.67508 2.3825-0.15343 1.3087-0.82852-1.1073-1.9332-1.4093-5.4007-1.4093l-3.4675-0.03356-1.3809 1.1409c-0.76715 0.63756-1.3809 1.0738-1.3809 1.0067 0-0.10067 0.30686-0.906 0.70578-1.7785 0.67509-1.4429 0.70577-1.9462 0.6444-6.2749-0.0307-3.4898 0.0614-4.9327 0.36823-5.6038 0.24549-0.50334 0.4296-0.93956 0.4296-1.0067 0-0.06711-0.61371-0.13422-1.3809-0.16778l-1.3809-0.06711z" style="stroke-width:.032089"/>
		<path id="path18" d="m277.9 73.775v8.0869h13.778l0.0921-7.9191c0.0614-4.3622 0-7.9863-0.0921-8.0534-0.12274-0.06711-0.82852-0.03356-1.5957 0.06711-1.2274 0.20133-1.3502 0.26844-0.95126 0.70467 0.24548 0.26845 0.4296 0.67111 0.4296 0.87245 0.0307 0.23489 0.0307 2.4831 0 4.9998-0.0307 4.2951 0.0307 4.6978 0.76714 6.2749 0.42961 0.93956 0.70578 1.7113 0.58304 1.7113-0.0921 0-0.70578-0.46978-1.3502-1.0067-1.1354-0.97312-1.2274-1.0067-4.6642-1.0067s-3.5596 0.03356-4.787 1.0067c-0.70577 0.53689-1.3502 1.0067-1.4422 1.0067-0.0921 0 0.12274-0.63756 0.49097-1.4429 0.61372-1.2751 0.67509-1.8456 0.61372-6.2749-0.0307-3.7582 0.0614-5.0669 0.39891-5.8051 0.36823-0.70467 0.36823-0.906 0.0614-0.906-0.24548 0-0.8592-0.10067-1.3809-0.20133l-0.95126-0.23489z" style="stroke-width:.032089"/>
		<path id="path20" d="m15.997 97.129-0.76714 0.80534v42.045c0 37.515 0.06137 42.146 0.49097 42.817l0.46029 0.73822h111.79c109.73 0 111.79 0 112.31-0.63755 0.49097-0.60401 0.55234-3.2885 0.52166-43.018 0-38.388-0.0307-42.381-0.49098-42.884-0.4296-0.50334-10.188-0.53689-112.03-0.63756l-111.54-0.067112zm12.458 2.1476c0.52166 0.67111 0.58303 1.3422 0.58303 5.8051 0 4.3958 0.09206 5.1676 0.6444 6.342 0.33754 0.77178 0.55234 1.4429 0.49097 1.51-0.06137 0.10067-0.58303-0.23489-1.1354-0.73822-0.95126-0.90601-1.0433-0.90601-4.9711-0.8389-3.9892 0.0671-4.0505 0.0671-5.2166 1.1073l-1.1967 1.0067 0.55234-1.2751c0.27617-0.73823 0.73646-1.6107 1.0126-1.9462 0.24549-0.36912 0.33754-0.57045 0.15343-0.46978-0.46029 0.302-0.2148-9.7983 0.24549-10.402 0.6444-0.87245 1.565-1.0738 4.9097-0.97312 3.0993 0.06711 3.3754 0.13422 3.9278 0.87245zm14.699-0.13422c0.55234 0.57045 0.61372 1.0067 0.61372 5.6038 0 4.3287 0.09206 5.2011 0.61372 6.3756 0.8592 1.9798 0.76714 2.1476-0.52166 1.0738-1.1354-0.93956-1.1661-0.93956-5.0018-0.8389-3.8664 0.0671-4.4494 0.23489-5.6462 1.5436-0.6444 0.70467-0.61372 0.57044 0.12274-1.3422 0.52166-1.3087 0.61372-2.3153 0.61372-6.4091 0-2.8187 0.15343-5.1676 0.33754-5.5367 0.52166-1.0738 1.4422-1.2751 4.9404-1.1744 2.7004 0.06711 3.4061 0.20134 3.9278 0.70467zm14.913-0.10067c0.4296 0.43622 0.52166 1.4093 0.58303 5.8722 0.03069 4.6978 0.12274 5.4696 0.70577 6.7111 0.92057 1.9127 0.8592 2.0133-0.39892 0.80534-0.61372-0.57045-1.3195-1.0402-1.6263-1.0738h-4.0198c-3.4368 0-3.5289 0.0336-4.6642 1.0402-1.1047 0.93956-1.1661 0.97312-0.92057 0.26845 0.15343-0.43623 0.49097-1.2416 0.76714-1.7785 0.39892-0.80533 0.49097-2.114 0.49097-6.2749v-5.2682l0.82852-0.50334c1.2888-0.70467 7.5487-0.57045 8.2545 0.20133zm14.883 0.23489c0.52166 0.67111 0.58303 1.3758 0.58303 5.5702 0 4.0938 0.09206 5.0334 0.61372 6.4091 0.33754 0.87244 0.58303 1.6107 0.52166 1.6778-0.06137 0.0671-0.52166-0.23489-1.0126-0.70467-0.95126-0.906-0.88989-0.906-5.6462-0.83889-2.8845 0.0336-3.3448 0.10067-4.2653 0.83889-0.58303 0.43623-1.1354 0.77178-1.1967 0.70467-0.06137-0.0671 0.18412-0.73822 0.52166-1.51 0.58303-1.1744 0.6444-1.9462 0.6444-6.4762 0-2.8187 0.12274-5.3018 0.24549-5.5031 0.58303-0.93956 1.5343-1.1409 4.9097-1.0738 3.2527 0.10067 3.5289 0.16778 4.0812 0.906zm14.944-0.06711c0.24549 0.40267 0.36823 2.0805 0.36823 5.5367 0 4.6642 0.06137 5.1005 0.76714 6.644 0.4296 0.906 0.76714 1.7449 0.76714 1.8456 0 0.10067-0.52166-0.26844-1.1354-0.80533-1.1354-0.97312-1.2274-1.0067-5.0632-1.0738-4.0198-0.0671-4.5108 0.0671-5.8917 1.5436-0.67509 0.73822-0.61372 0.40266 0.18412-1.2751 0.58303-1.2751 0.6444-1.8456 0.58303-5.8722-0.09206-4.8656 0.24549-6.644 1.3195-7.1474 0.33754-0.16778 2.2401-0.23489 4.1733-0.13422 2.8231 0.13422 3.5902 0.302 3.9278 0.73822zm14.883 0.16778c0.46029 0.604 0.55235 1.3422 0.49098 5.7045-0.0307 4.3958 0.0614 5.134 0.61371 6.3756 0.33755 0.77178 0.58303 1.4429 0.55235 1.51-0.0614 0.0336-0.61372-0.302-1.2274-0.73823-1.0433-0.77178-1.3502-0.83889-5.0325-0.83889h-3.9278l-1.2274 1.0738c-0.67509 0.604-1.1354 0.93956-1.0433 0.77178 1.3809-2.718 1.5036-3.4898 1.5036-8.4896 0-5.2011 0.15343-5.8722 1.3809-6.2078 0.33754-0.10067 2.148-0.13422 3.9892-0.03356 2.9458 0.13422 3.4368 0.26844 3.9278 0.87245zm14.668-0.20133c0.52166 0.50334 0.58303 1.0738 0.58303 5.5367 0 4.5636 0.0614 5.134 0.76715 6.8454l0.73646 1.8791-1.1354-1.0402-1.1354-1.0067h-4.0198c-3.6823 0-4.1119 0.0671-4.9097 0.73822-0.49098 0.40267-0.98195 0.90601-1.1047 1.1073-0.49098 0.73823-0.2148-0.57044 0.36823-1.8456 0.52165-1.1409 0.61371-1.9798 0.61371-6.3756 0-4.9327 0.0307-5.1005 0.76715-5.9058 0.73646-0.80534 0.8592-0.80534 4.296-0.67111 2.8538 0.10067 3.6823 0.26845 4.1733 0.73823zm14.883-0.03356c0.33754 0.46978 0.4296 1.8456 0.4296 5.6038 0 4.6642 0.0614 5.1005 0.76715 6.644 1.0126 2.1811 0.98194 2.2818-0.30686 1.0402l-1.1047-1.0402h-4.0812c-3.7437 0-4.1733 0.0671-4.9711 0.73822-0.49097 0.40267-0.98194 0.90601-1.1047 1.1073-0.49098 0.73823-0.21481-0.26844 0.49097-1.7784 0.6444-1.4093 0.70577-1.9127 0.58303-4.4294-0.0614-1.5771-0.0307-3.9931 0.12274-5.3689 0.30686-3.2549 0.55235-3.4227 5.2473-3.2885 3.0379 0.10067 3.5596 0.20133 3.9278 0.77178zm14.913 0.13422c0.49098 0.67111 0.55235 1.4093 0.55235 5.8051s0.0921 5.1676 0.6444 6.342c0.33754 0.77178 0.58303 1.4429 0.52166 1.51-0.0614 0.0671-0.6444-0.26844-1.2581-0.77178-1.1047-0.83889-1.2888-0.87245-4.9097-0.80534-3.4061 0.0671-3.8357 0.13423-4.787 0.87245-0.58303 0.46978-1.1047 0.77178-1.1661 0.70467-0.0614-0.0671 0.18412-0.80534 0.52166-1.6778 0.52166-1.3758 0.61372-2.3154 0.61372-6.5098 0-2.718 0.12274-5.1005 0.24548-5.3354 0.49098-0.83889 1.8412-1.1073 5.0938-1.0067 3.0379 0.10067 3.4061 0.20133 3.9278 0.87245zm14.637-0.16778c0.61372 0.604 0.64441 0.97312 0.64441 5.6374 0 4.9662 0.2148 6.1407 1.4729 8.456 0.0921 0.20133-0.39891-0.16778-1.074-0.77178l-1.2274-1.0738h-7.6714c-0.2148 0.0336-0.85921 0.50334-1.4729 1.0738-1.2581 1.208-1.2581 1.1744-0.46029-0.73823 0.52166-1.2751 0.61372-2.2147 0.61372-6.6105 0-5.0669 0-5.134 0.79783-6.0065 0.76714-0.80534 0.8592-0.83889 4.2653-0.73823 2.8845 0.10067 3.5902 0.23489 4.1119 0.77178zm14.975-0.03356c0.49097 0.50334 0.55234 1.3087 0.61372 5.7716 0.0307 4.3958 0.15342 5.4025 0.67508 6.7447 0.76715 1.8791 0.79783 2.0134 0.15343 1.3087-1.2581-1.3758-1.7798-1.51-5.7689-1.5436l-3.9278-0.0335-1.1968 1.0738c-1.1968 1.0402-1.1968 1.0402-0.88989 0.16778 0.15343-0.46978 0.49097-1.2751 0.76715-1.8456 0.33754-0.73823 0.46028-2.1476 0.46028-5.9729 0-5.2011 0.15343-5.8722 1.3809-6.2078 0.33754-0.10067 2.0866-0.16778 3.8971-0.13422 2.7004 0.06711 3.4061 0.16778 3.8357 0.67111zm14.852 0.20133c0.52166 0.67111 0.58303 1.3422 0.58303 5.5702 0 4.0602 0.0921 5.0669 0.61372 6.3756 0.79783 2.0469 0.79783 2.0804-0.4296 1.0402-0.98195-0.80534-1.2581-0.87245-4.879-0.90601-3.805-0.0335-4.6642 0.16778-5.6769 1.2751-0.73646 0.77178-0.76715 0.23489-0.0921-1.208 0.58303-1.1744 0.6444-1.9462 0.6444-6.5098 0-6.7111-0.0614-6.644 5.3086-6.5098 3.0993 0.06711 3.3754 0.13422 3.9278 0.87245zm14.883-0.13422c0.33754 0.46978 0.4296 1.8456 0.4296 5.5702 0 4.53 0.0614 5.0669 0.76715 6.8454l0.79783 1.9127-2.3321-2.0804h-7.9783l-1.1661 1.0402c-0.61371 0.57044-1.1354 0.93956-1.1354 0.87244 0-0.0671 0.30686-0.87244 0.67509-1.7784 0.58303-1.4764 0.6444-2.1476 0.58303-6.4091-0.12275-6.7447-0.0307-6.8454 5.4314-6.7111 3.0379 0.06711 3.5596 0.16778 3.9278 0.73822zm29.98 0.10067c0.46028 0.43622 0.52165 1.1744 0.52165 5.6374 0 4.3287 0.0921 5.3354 0.61372 6.644 0.30686 0.83889 0.52166 1.5436 0.4296 1.5436-0.12274 0-0.58303-0.36911-1.1047-0.83889-0.49097-0.46978-1.074-0.83889-1.2581-0.83889-0.2148 0-5.37-0.0336-11.476-0.0671l-11.108-0.0336-1.074 0.90601c-0.61372 0.50333-1.1047 0.83889-1.1047 0.73822 0-0.0671 0.27617-0.83889 0.61371-1.7113 0.52166-1.3087 0.61372-2.3153 0.61372-6.2414 0-4.9327 0.18411-5.8387 1.3195-6.342 0.36823-0.13422 5.5848-0.20134 11.569-0.10067 9.2057 0.16778 10.986 0.26844 11.446 0.70467zm-200.69 16.778c0.46029 0.43622 0.52166 1.1744 0.52166 5.436 0 4.4965 0.06137 5.0334 0.73646 6.5769 0.39892 0.90601 0.67509 1.7113 0.6444 1.7784-0.06137 0.0336-0.61372-0.302-1.1967-0.80533-1.1047-0.90601-1.1354-0.90601-6.7816-1.0067-3.13-0.0671-6.4133 0-7.3339 0.13422-0.92057 0.13422-1.6263 0.13422-1.5343-0.0336 0.09206-0.13422 0.03069-0.26844-0.15343-0.26844-0.15343 0-0.36823 0.13422-0.46029 0.302-0.09206 0.16778-0.67509 0.604-1.2581 0.97311l-1.0433 0.70467 0.58303-1.6778c0.52166-1.3758 0.61372-2.4831 0.61372-6.3756 0-4.9327 0.18412-5.8387 1.3195-6.3085 0.36823-0.16778 3.8664-0.20134 7.7328-0.13422 5.7382 0.16777 7.1498 0.26844 7.6101 0.70467zm15.036 0.10066c0.4296 0.604 0.52166 1.4429 0.52166 5.7045 0 4.7649 0.03069 5.1005 0.79783 6.7447l0.79783 1.7449-0.70577-0.57045c-0.39892-0.302-1.074-0.83889-1.4729-1.1744-0.61372-0.46978-1.4729-0.57044-4.4494-0.604-3.8357-0.0336-3.9585 0-5.4314 1.6778-0.76715 0.87244-0.73646 0.16777 0.06137-1.5436 0.58303-1.2416 0.6444-1.9127 0.61372-6.4762l-0.06137-5.134 0.8592-0.73822c0.79783-0.70467 1.0433-0.73823 4.3881-0.53689 3.0993 0.16778 3.5902 0.302 4.0812 0.906zm13.655-0.67111c0.58303 0.13422 1.1967 0.46978 1.3195 0.70467 0.15343 0.23489 0.27617 2.6844 0.27617 5.4025 0 4.6307 0.06137 5.0669 0.76714 6.6105 0.4296 0.90601 0.76714 1.7449 0.76714 1.8456 0 0.10066-0.52166-0.26845-1.1661-0.80534-1.1354-1.0067-1.2274-1.0402-4.9711-1.1409l-3.805-0.10067-1.3195 1.1073c-0.73646 0.604-1.3195 1.0402-1.3195 0.97311 0-0.0671 0.27617-0.83889 0.6444-1.7113 0.55234-1.3758 0.6444-2.3153 0.70577-6.7782 0.03069-5.0669 0.06137-5.2011 0.76714-5.8387 0.6444-0.57044 1.1661-0.67111 3.4982-0.604 1.5036 0.0336 3.222 0.16778 3.8357 0.33556zm15.68 0.26844c0.58303 0.36912 0.6444 0.70467 0.70577 4.6642 0.03069 2.3489 0.03069 4.6642 0 5.2011-0.03069 0.50333 0.27617 1.6778 0.70577 2.5838 0.4296 0.93956 0.70577 1.6778 0.58303 1.6778-0.09206 0-0.58303-0.36911-1.1047-0.83889-0.98195-0.90601-0.8592-0.90601-5.4314-0.97312-3.0686-0.0335-3.2834 0-4.4188 0.90601-1.1661 0.93955-1.1967 0.93955-0.98195 0.16777 0.12274-0.43622 0.4296-1.1744 0.6444-1.6778 0.30686-0.63756 0.4296-2.3489 0.4296-5.9394 0-4.7985 0.03069-5.0669 0.70577-5.7716 0.6444-0.67111 0.88989-0.70467 4.1119-0.53689 1.8718 0.10067 3.6823 0.33556 4.0505 0.53689zm15.159 0.40267c0.4296 0.604 0.52166 1.4429 0.52166 5.738 0 4.3958 0.09206 5.1676 0.6444 6.342 0.33754 0.77178 0.58303 1.4429 0.52166 1.51-0.06137 0.0671-0.61372-0.26845-1.2274-0.73823-0.98195-0.77178-1.4115-0.87245-4.7256-0.93956l-3.6516-0.10067-1.4422 1.1409-1.4729 1.1744 0.76714-1.812c0.70577-1.6442 0.76714-2.1476 0.76714-6.8454 0-6.644-0.03069-6.6105 5.37-6.342 2.9458 0.13423 3.4368 0.26845 3.9278 0.87245zm14.606-0.23489c0.61371 0.604 0.6444 0.97312 0.6444 5.7045 0 4.3287 0.0921 5.2682 0.61371 6.5434 0.33755 0.80534 0.58303 1.5436 0.52166 1.6107-0.0614 0.0336-0.52166-0.26844-1.0126-0.73822s-1.1661-0.87245-1.5036-0.87245c-5.8917-0.40267-6.8122-0.26845-8.8682 1.208l-0.88989 0.63756 0.36823-0.70467c0.8592-1.7784 1.0126-2.8522 0.95126-7.1809-0.0307-4.8991 0.2148-6.1742 1.2888-6.6776 0.39892-0.16778 2.1787-0.26844 3.9585-0.23489 2.731 0.0671 3.3754 0.16778 3.9278 0.70467zm14.944 0.0336c0.30686 0.46978 0.42961 1.9127 0.42961 5.6038 0 4.6642 0.0614 5.1005 0.76714 6.644 0.4296 0.90601 0.76715 1.7449 0.76715 1.8456 0 0.0671-0.64441-0.36911-1.4116-1.0067l-1.4116-1.1744-3.713 0.20133c-3.3448 0.16778-3.8357 0.26845-4.7256 1.0067-0.52165 0.43623-1.0433 0.80534-1.1047 0.80534-0.0921 0 0.12274-0.63756 0.46028-1.4093 0.55235-1.2751 0.6444-2.0469 0.61372-6.2414-0.0614-6.9796 0.0614-7.1474 5.4314-7.0131 3.0072 0.10067 3.5289 0.20134 3.8971 0.73823zm14.76-0.0671c0.49097 0.50333 0.55234 1.3087 0.58303 5.738 0.0614 4.4294 0.15343 5.3354 0.70577 6.6776 0.85921 2.0133 0.82852 2.2147-0.18411 1.1744-1.4116-1.4429-1.9639-1.5771-5.5848-1.4764-3.2834 0.10067-3.4982 0.13422-4.787 1.1409l-1.3195 1.0067 0.73646-1.812c0.67509-1.6778 0.73646-2.2818 0.73646-6.8118 0-6.4762-0.0307-6.4427 5.278-6.3085 2.6697 0.0671 3.4061 0.20134 3.8357 0.67112zm14.852 0.20133c0.52166 0.67111 0.58303 1.3758 0.58303 5.7045 0 4.1609 0.0921 5.134 0.61372 6.3756 0.33754 0.80534 0.58303 1.51 0.52166 1.5771-0.0307 0.0336-0.67509-0.33556-1.3809-0.87245-1.2888-0.93956-1.4116-0.97312-4.7563-0.87245-3.3754 0.10067-4.2653 0.33556-5.278 1.4093-0.76715 0.83889-0.82852 0.36911-0.15343-1.2416 0.52166-1.2751 0.61371-2.2147 0.61371-6.5769v-5.1005l0.85921-0.70467c0.76714-0.67111 1.1047-0.73823 4.296-0.604 3.222 0.10066 3.5289 0.16778 4.0812 0.906zm13.993-0.604c0.46029 0.16778 0.95126 0.53689 1.074 0.73822 0.12275 0.23489 0.24549 2.6509 0.24549 5.3689 0 4.6307 0.0614 5.0669 0.76715 6.6105 0.4296 0.90601 0.76714 1.7449 0.76714 1.8791 0 0.10067-0.58303-0.302-1.2888-0.93956-1.2888-1.1073-1.3195-1.1073-4.8484-1.1409-3.4061-0.0671-3.5596-0.0336-4.8484 0.906-0.73646 0.5369-1.3809 0.97312-1.4729 0.97312-0.0614 0 0.15343-0.63756 0.52166-1.4429 0.61372-1.2751 0.67509-1.8456 0.61372-5.9394-0.0614-5.134 0.15343-6.3756 1.2274-6.946 0.92057-0.53689 6.0451-0.57045 7.2418-0.0671zm15.68 0.43622c0.4296 0.46978 0.52166 1.3422 0.55234 5.6709 0.0307 4.4629 0.0921 5.3018 0.67509 6.7447 0.36823 0.906 0.67509 1.6778 0.67509 1.7784 0 0.0671-0.55234-0.36911-1.2581-0.97312l-1.2581-1.1073-3.7744 0.0335c-3.6209 0-3.8357 0.0336-4.879 0.93956-1.2581 1.0402-1.3502 0.87245-0.49097-1.0738 0.52166-1.1744 0.61372-2.0469 0.61372-6.4427 0-6.5769-0.15343-6.3756 5.1552-6.2414 2.7617 0.0671 3.5902 0.20133 3.9892 0.67111zm14.852 0.20134c0.46029 0.63755 0.55235 1.4764 0.55235 5.738 0 4.5971 0.0614 5.134 0.73646 6.6776 0.39891 0.93956 0.6444 1.6778 0.55234 1.6778-0.0921 0-0.6444-0.50334-1.2274-1.1073l-1.0126-1.0738h-3.8664c-2.3321 0-4.0198 0.13422-4.204 0.36911-0.49097 0.53689-2.0253 1.5771-2.0253 1.3758 0-0.10066 0.27618-0.80533 0.61372-1.6107 0.52166-1.2751 0.61372-2.2147 0.61372-6.5434 0-6.6105-0.0307-6.5769 5.37-6.3756 3.0072 0.13422 3.4061 0.23489 3.8971 0.87245zm14.668-0.16778c0.55234 0.53689 0.61371 1.0738 0.61371 5.5702 0 4.53 0.0614 5.134 0.73646 6.8118l0.73646 1.812-1.2888-1.0067c-1.2888-0.97311-1.4422-1.0067-5.0325-1.0402-3.5902-0.0336-3.713 0-4.8177 0.906-0.61371 0.50334-1.1661 0.87245-1.1967 0.83889-0.0614-0.0671 0.18411-0.80533 0.49097-1.6107 0.52166-1.2416 0.61372-2.1811 0.58303-6.2749-0.0614-5.0669 0.12274-5.9729 1.2888-6.5098 0.36823-0.16778 2.1787-0.26844 3.9892-0.20133 2.639 0.10067 3.4368 0.23489 3.8971 0.70467zm22.493 0.23489c0.4296 0.57044 0.52166 1.3758 0.52166 5.4696 0 4.0602 0.0921 5.0669 0.61371 6.3756 0.76715 1.9462 0.76715 2.114 0.0307 1.3422-0.61372-0.57044-0.61372-0.46978-0.70578 6.9125-0.0921 7.3487-0.0921 7.55 0.61372 8.9594 0.39892 0.80533 0.67509 1.51 0.61372 1.5771-0.0614 0.10067-0.6444-0.26844-1.2888-0.77178-1.1354-0.87245-1.3809-0.906-6.1372-1.1073-2.731-0.13422-4.9711-0.10066-5.0325 0.0671-0.0614 0.16777-0.27617 0.302-0.46029 0.302-0.2148 0-0.88989 0.302-1.5343 0.67111-0.61372 0.36911-1.2274 0.67111-1.3195 0.67111-0.0921 0 0.15343-0.63755 0.58303-1.4429 0.73646-1.3758 0.76715-1.6107 0.8592-9.4627l0.12275-8.0534-1.5957 0.10067c-1.3502 0.0671-1.8105 0.26844-2.7617 1.2416-0.61371 0.63756-1.1967 1.0738-1.2581 1.0402-0.0614-0.0671 0.24549-0.906 0.67509-1.8456 0.73646-1.5771 0.79783-1.9798 0.79783-6.6776 0-5.2011 0.15343-5.9058 1.3809-6.2078 0.33755-0.0671 3.805-0.0671 7.6715 0.0336 6.5974 0.13422 7.0884 0.16778 7.6101 0.80534zm-184.39 16.006c0.79783 0.16778 1.5957 0.46978 1.7491 0.73823 0.15343 0.26844 0.27617 2.6844 0.27617 5.436 0 4.5636 0.06137 5.0669 0.76714 6.6776 0.4296 0.93956 0.76714 1.7784 0.76714 1.8456 0 0.0671-0.52166-0.33555-1.1661-0.906-1.1354-1.0067-1.3195-1.0402-4.8177-1.1744-2.731-0.13422-3.713-0.0671-3.8971 0.23489-0.18411 0.33556-0.24549 0.33556-0.24549 0.0336 0-0.23489-0.52166 0.10066-1.1354 0.73822-0.6444 0.63756-1.1967 1.1073-1.2274 1.0402-0.06137-0.0671 0.18411-0.83889 0.55234-1.7449 0.58303-1.4429 0.67509-2.1811 0.61372-6.342-0.06137-5.134 0.18412-6.1742 1.5036-6.5769 1.0433-0.33555 4.4494-0.302 6.2599 0zm16.54 0.73823c0.4296 0.604 0.52166 1.4429 0.52166 5.738s0.09206 5.2011 0.61372 6.3756c0.33754 0.77178 0.58303 1.4429 0.52166 1.4764-0.06137 0.0671-0.61372-0.302-1.2581-0.80534-1.1354-0.87244-1.3502-0.906-4.9404-0.906-2.0866 0-3.713 0.10067-3.6209 0.23489 0.06137 0.16778-0.03068 0.26845-0.2148 0.26845-0.2148 0-0.70577 0.302-1.1354 0.67111-0.46029 0.36911-0.8592 0.63756-0.92058 0.57045-0.06137-0.0671 0.18412-0.80534 0.52166-1.6107 0.52166-1.2751 0.61372-2.2147 0.61372-6.5434 0-6.6105-0.03069-6.6105 5.37-6.342 2.9765 0.13422 3.4368 0.23489 3.9278 0.87245zm14.913-0.23489c0.39892 0.46978 0.49097 1.4429 0.52166 5.7045 0.06137 4.4294 0.15343 5.3354 0.70577 6.7447 0.33754 0.87245 0.6444 1.6442 0.6444 1.7449 0 0.0671-0.52166-0.302-1.1354-0.87244-1.1047-0.93956-1.3502-0.97312-4.6949-1.1409-3.7437-0.13422-4.5722 0.0671-6.0451 1.5436-0.88989 0.87245-0.88989 0.73823 0.06137-1.3758 0.70577-1.6107 0.76714-2.114 0.76714-6.6776 0-2.7516 0.12274-5.134 0.24549-5.3689 0.49097-0.83889 1.8105-1.1073 5.0938-0.97312 2.5469 0.10067 3.4368 0.26845 3.8357 0.67112zm14.852 0.10066c0.46029 0.46978 0.52166 1.208 0.52166 5.4696 0 4.5971 0.06137 5.1005 0.79783 6.9125l0.79783 1.9798-0.73646-0.70467c-1.2581-1.2751-2.0559-1.51-5.5234-1.6442-3.4982-0.13422-4.1119 0-5.37 1.2751-0.67509 0.67111-0.70577 0.67111-0.70577 0.0335 0.03069-0.33555 0.2148-1.0067 0.46029-1.4764 0.33754-0.604 0.4296-2.114 0.46029-5.7716 0-2.6844 0.09206-5.1676 0.18412-5.4696 0.12274-0.33556 0.6444-0.80534 1.1661-1.0402 1.3195-0.67111 7.1498-0.33556 7.9476 0.43622zm15.036 0.13423c0.4296 0.604 0.52166 1.4429 0.52166 5.6709 0 4.1945 0.0921 5.2011 0.58303 6.4091 0.33754 0.80533 0.55234 1.51 0.49097 1.5771-0.0614 0.0671-0.58303-0.26844-1.1354-0.73822-0.95126-0.83889-1.2274-0.90601-4.787-0.97312-2.056-0.0335-3.7437 0.0671-3.7437 0.20134 0 0.16778-0.12274 0.16778-0.30686 0.0671-0.15343-0.10067-0.30685-0.0671-0.30685 0.0671 0 0.16778-0.39892 0.57045-0.92058 0.87245-1.1047 0.70467-1.1047 0.70467-0.30686-1.1409 0.52166-1.2751 0.61372-2.2147 0.61372-6.5434 0-6.644-0.0307-6.6105 5.37-6.342 2.9458 0.16778 3.4368 0.26844 3.9278 0.87245zm13.624-0.70467c1.4422 0 1.6264 0.67111 1.6264 6.0736 0 4.6978 0.0614 5.134 0.76714 6.6776 0.95126 2.0469 0.95126 2.3153 0.0921 1.4429-1.2888-1.2751-2.148-1.5436-5.5848-1.6442l-3.3754-0.10067-1.4729 1.1409c-0.79783 0.63756-1.4729 1.1073-1.4729 1.0067 0-0.10066 0.36823-0.97311 0.79783-1.9462 0.79783-1.7113 0.82851-1.8456 0.61371-6.04-0.15343-3.322-0.0921-4.53 0.24549-5.4025 0.52166-1.3758 1.0126-1.5436 4.4801-1.3758 1.4422 0.10067 2.9152 0.16778 3.2834 0.16778zm16.141 0.57044c0.46028 0.46978 0.52165 1.208 0.52165 5.5031 0 4.228 0.0921 5.1676 0.61372 6.5434 0.33754 0.87244 0.58303 1.6107 0.52166 1.6778-0.0614 0.0671-0.52166-0.23489-1.0126-0.70467-0.49098-0.46978-1.0126-0.83889-1.1968-0.87245-2.5469-0.13422-6.8122-0.0671-6.6895 0.10067 0.0614 0.16778-0.0307 0.26845-0.18411 0.26845-0.18412 0-0.33754-0.16778-0.33754-0.36912 0-0.20133-0.61372 0.16778-1.3809 0.8389-0.76714 0.70467-1.3809 1.1744-1.3809 1.0738 0-0.0671 0.27617-0.83889 0.61372-1.7113 0.52166-1.3087 0.61371-2.3153 0.61371-6.4091 0-5.1005 0.18412-6.0065 1.3195-6.5098 1.074-0.50334 7.3339-0.0336 7.9783 0.57044zm14.944-0.0335c0.36823 0.36911 0.49098 1.7113 0.61372 5.9394 0.12274 4.0938 0.27617 5.738 0.67509 6.6776 0.61371 1.51 0.4296 1.6107-0.70578 0.40267-0.76714-0.80534-1.0126-0.8389-4.7256-0.97312-2.148-0.0671-3.8357-0.0671-3.7437 0.0671 0.18412 0.16778-2.3014 1.7784-2.4856 1.6107-0.0614-0.0671 0.18412-0.73823 0.55235-1.51 0.61371-1.3087 0.67508-1.9462 0.6444-6.5098-0.0307-2.7851 0.0614-5.2347 0.2148-5.4696 0.52166-0.87245 1.8105-1.1073 5.1245-0.90601 2.3628 0.13423 3.5289 0.33556 3.8357 0.67112zm13.563-0.53689c1.6264 0 1.7798 0.57044 1.7798 6.0736 0 4.6642 0.0614 5.134 0.76714 6.7447 0.95126 2.114 0.95126 2.2482 0.0921 1.3758-0.39891-0.36911-1.0433-0.87244-1.4115-1.1073-0.92058-0.50334-7.5487-0.80534-7.2725-0.33556 0.0921 0.20133-0.0307 0.23489-0.30686 0.13422-0.27617-0.13422-0.92057 0.16778-1.5343 0.67112-1.2274 1.0402-1.3502 0.73822-0.46029-1.1409 0.55235-1.1744 0.58303-1.7784 0.46029-5.9394-0.2148-6.5769 0.0307-6.9125 4.6029-6.644 1.3502 0.10067 2.8231 0.16778 3.2834 0.16778zm16.294 0.70467c0.4296 0.604 0.52166 1.4429 0.52166 5.738 0 4.3958 0.0921 5.1676 0.6444 6.342 0.67509 1.51 0.58303 2.0469-0.18412 1.1744-1.0433-1.1409-1.8411-1.3087-5.5848-1.2751-3.5902 0.0336-3.8357 0.10067-4.6029 0.906-0.73645 0.73823-1.3195 1.0738-1.3195 0.73823 0-0.0671 0.27618-0.73823 0.61372-1.51 0.52166-1.1744 0.61372-2.0469 0.61372-6.2749 0-2.8187 0.15343-5.2011 0.33754-5.5702 0.52166-1.1073 1.4729-1.3087 5.0325-1.1409 2.9152 0.16778 3.4368 0.302 3.9278 0.87245zm14.944-0.16778c0.36823 0.40267 0.46028 1.5771 0.52166 5.6709 0.0614 4.4294 0.15343 5.436 0.70577 6.7447 0.33754 0.87245 0.58303 1.6107 0.52166 1.6778-0.0307 0.0671-0.52166-0.36911-1.074-0.90601l-1.0126-1.0402h-3.9585c-3.8357 0.0336-4.0198 0.0671-5.0632 0.93956-0.58304 0.46978-1.074 0.80533-1.074 0.70467 0-0.10067 0.27617-0.87245 0.61372-1.7449 0.52166-1.3422 0.61371-2.3153 0.61371-6.5098 0-6.5098-0.0307-6.4762 5.37-6.2078 2.4242 0.10067 3.4982 0.30201 3.8357 0.67112zm-164.41 0.0335c0.49097 0.46978 0.55234 1.1073 0.55234 5.3354 0 4.3622 0.06137 4.9327 0.76714 6.5434 0.39892 0.97311 0.67509 1.8456 0.61372 1.9127-0.06137 0.10067-0.55234-0.23489-1.074-0.73822-0.52166-0.46978-1.1967-0.87245-1.4729-0.90601-2.2708-0.10066-8.0397 0-8.2852 0.16778-0.18412 0.10067-0.36823 0-0.46029-0.20133-0.09206-0.33556-0.2148-0.33556-0.55234-0.0671-0.24549 0.20133-0.70577 0.302-1.0433 0.23489-1.1354-0.302-6.5974-0.36912-6.5974-0.10067 0 0.16778-0.24549 0.23489-0.52166 0.20133-0.27617-0.0671-0.82852 0.26845-1.2274 0.73823-0.98195 1.1744-1.1354 0.77178-0.39892-0.97312 0.52166-1.2416 0.61372-2.2147 0.61372-6.342 0-3.8589 0.09206-5.0334 0.49097-5.6374 0.46029-0.73822 0.52166-0.73822 9.2364-0.73822 7.7635 0 8.8682 0.0671 9.3592 0.57044zm179.21 0c0.49097 0.46978 0.55234 1.1409 0.55234 5.6038 0 4.3287 0.0921 5.2682 0.61372 6.5434 0.33754 0.80534 0.58303 1.5436 0.49097 1.6107-0.0614 0.0671-0.52166-0.26845-1.0433-0.73823-0.8592-0.77178-1.2274-0.83889-4.6642-1.0067l-3.7437-0.16778-1.1661 1.0067c-0.6444 0.53689-1.2581 1.0067-1.3502 1.0067-0.0921 0 0.0921-0.77178 0.4296-1.6778 0.52166-1.4093 0.61371-2.5167 0.61371-6.4762 0-6.5098-0.18411-6.2749 4.8177-6.2749 3.1913 0 3.9892 0.10066 4.4494 0.57044zm-171.1 16.677c0.33754 0.50334 0.4296 1.8791 0.4296 5.6709 0 4.6642 0.06137 5.1005 0.76715 6.6776 0.4296 0.906 0.76714 1.7449 0.76714 1.8456s-0.46029-0.26845-1.0433-0.80534c-1.2274-1.208-2.3628-1.4429-6.3826-1.3422-2.5162 0.0671-3.0686 0.16778-3.6823 0.77179-0.82852 0.83889-1.6263 1.3758-1.4115 0.93956 1.074-1.9127 1.2274-3.1207 1.1661-7.9192-0.06137-4.9327-0.06137-4.9327 0.76714-5.8051 0.76715-0.87245 0.8592-0.90601 4.4801-0.77178 3.2527 0.10066 3.7437 0.16778 4.1426 0.73822zm14.76-0.0671c0.30686 0.26845 0.39892 1.7784 0.39892 5.5367 0 4.832 0.06137 5.2682 0.76714 6.8118 0.4296 0.90601 0.76715 1.7449 0.76715 1.8456 0 0.10066-0.52166-0.26845-1.1354-0.80534-1.1354-1.0067-1.2581-1.0067-5.0325-1.1073l-3.8971-0.10066-1.2581 1.1073c-0.70577 0.60401-1.2581 1.0402-1.2581 0.97312 0-0.0671 0.30686-0.77178 0.6444-1.5771 0.58303-1.3087 0.67509-2.114 0.70577-6.7447 0.03069-5.7716 0.15343-6.2414 1.8105-6.4091 1.9025-0.20133 7.1191 0.13422 7.4873 0.46978zm14.913 0.16778c0.46029 0.46978 0.52166 1.208 0.52166 5.5031 0 4.5971 0.06137 5.134 0.76714 6.8789 0.79783 1.9798 0.73646 2.0133-0.95126 0.40267-0.52166-0.50334-1.2888-0.63756-4.3881-0.73823-3.713-0.10067-3.7437-0.10067-4.9711 0.87245-0.70577 0.53689-1.2888 0.93956-1.3502 0.87245-0.03069-0.0671 0.18411-0.77178 0.52166-1.6107 0.52166-1.2751 0.58303-2.2147 0.55234-6.342-0.03069-5.738 0.15343-6.3085 2.2094-6.4762 2.8845-0.23489 6.5361 0.10067 7.0884 0.63756zm29.735 0c0.49097 0.46978 0.55234 1.1744 0.55234 5.5367 0 4.6307 0.0614 5.1005 0.76715 6.7111 0.4296 0.93956 0.76714 1.812 0.76714 1.8791 0 0.0671-0.55234-0.33555-1.1967-0.906-1.1661-1.0402-1.3195-1.0738-4.8484-1.1744-3.805-0.10067-4.204 0-5.8303 1.6107-0.88989 0.83889-0.88989 0.57044 0.06137-1.4765 0.70577-1.5436 0.76715-1.9798 0.76715-6.6105 0-2.718 0.12274-5.134 0.24549-5.3689 0.4296-0.73822 1.5343-0.93956 4.879-0.83889 2.4856 0.0671 3.4368 0.23489 3.8357 0.63756zm15.036 0c0.49097 0.46978 0.55234 1.208 0.55234 5.6038 0 4.6642 0.0614 5.2011 0.76715 6.8454l0.73646 1.7784-1.2888-1.0067c-1.2274-0.93956-1.4422-1.0067-5.0325-1.1073l-3.7744-0.13422-1.1354 1.0738c-0.6444 0.60401-1.1968 1.0402-1.2581 1.0067-0.0307-0.0671 0.2148-0.77178 0.55235-1.5771 0.52165-1.2751 0.61371-2.2147 0.61371-6.5098 0-6.9796-0.15343-6.7782 5.5234-6.6105 2.3935 0.10067 3.3448 0.23489 3.7437 0.63756zm15.067 0.16778c0.4296 0.57044 0.52166 1.4093 0.52166 5.7716 0 4.3287 0.0921 5.2682 0.61371 6.5434 0.33755 0.80533 0.61372 1.51 0.61372 1.6107 0 0.0671-0.52166-0.33556-1.1661-0.87245-1.1047-0.97311-1.2888-1.0402-4.7563-1.1409l-3.6209-0.13423-1.5036 1.1073-1.5036 1.1409 0.73646-1.7785c0.70578-1.6107 0.76715-2.1476 0.76715-6.8118 0-6.6105-0.15343-6.4091 5.3086-6.2414 3.0072 0.10067 3.4982 0.20134 3.9892 0.80534zm13.164-0.73823c1.9639 0 2.0866 0.40267 2.0866 6.0736 0 4.6642 0.0614 5.134 0.76714 6.7447 0.4296 0.93956 0.76715 1.812 0.76715 1.8791 0 0.0671-0.49098-0.33555-1.074-0.906-0.61371-0.57045-1.1967-1.0402-1.3195-1.0738-0.12274 0-1.8105-0.0671-3.7437-0.10067-3.6516-0.10067-4.1119 0.0336-5.6462 1.5436-0.88989 0.90601-0.92058 0.50334-0.0614-1.3422 0.73646-1.5771 0.76715-1.9462 0.73646-6.7447-0.0307-5.3354 0.12275-5.9394 1.3809-6.1407 0.36822-0.0671 1.657-0.0671 2.8231-0.0335 1.1968 0.0335 2.6697 0.0671 3.2834 0.10066zm16.601 0.57045c0.46029 0.46978 0.52166 1.208 0.52166 5.5031 0 4.5636 0.0614 5.134 0.73646 6.8454 0.4296 1.0067 0.6444 1.8456 0.46029 1.8456-0.15343 0-0.27617-0.10067-0.27617-0.26845 0-0.13422-0.46029-0.57045-1.0433-1.0067-0.95126-0.70467-1.4422-0.80534-4.6642-0.87245l-3.6209-0.0671-1.3195 1.1073c-0.73646 0.604-1.3195 1.0067-1.3195 0.93956 0-0.10067 0.27617-0.77178 0.58303-1.4429 0.49098-1.0402 0.58303-2.0804 0.61372-6.4427 0.0921-7.1809-0.0921-6.946 5.5541-6.7782 2.3935 0.10067 3.3754 0.26845 3.7744 0.63756zm15.036 0.16778c0.4296 0.57044 0.52166 1.4093 0.52166 5.7045 0 4.3287 0.0921 5.2011 0.61372 6.3756 0.8592 1.9798 0.76714 2.1811-0.46029 0.97311-0.98195-0.906-1.3195-1.0402-3.0072-1.0738-1.0433 0-2.6697-0.0671-3.5902-0.16778-1.7491-0.16778-2.148 0-3.9892 1.51l-0.98194 0.80533 0.79783-1.7113c0.76715-1.6442 0.79783-2.0133 0.79783-6.8789 0-6.7447-0.18411-6.5098 5.278-6.342 3.0686 0.10067 3.5289 0.16778 4.0198 0.80534zm-148.06-0.33557c0.24549 0.26845 0.36823 1.9462 0.36823 5.3018 0 4.2951 0.18412 6.2078 0.82852 8.5567 0.09206 0.40267-0.15343 0.20133-0.55234-0.46978l-0.73646-1.1073-6.6895-0.0671c-3.713 0-6.8122 0.0336-6.935 0.13422-0.12274 0.10067-0.46029 0.5369-0.76714 1.0067l-0.55234 0.83889 0.2148-0.83889c0.12274-0.46978 0.30686-3.5569 0.4296-6.8789 0.09206-3.322 0.30686-6.2414 0.4296-6.4762 0.33754-0.57045 13.44-0.57045 13.962 0zm58.487 0.33556c0.39892 0.604 0.49097 1.7784 0.49097 5.738 0 4.2951 0.09206 5.1676 0.61372 6.342 0.8592 1.9798 0.76714 2.1811-0.46029 0.97311-0.88989-0.83889-1.3809-1.0402-2.5469-1.0738-0.79783 0-2.5162-0.0336-3.8357-0.10067-2.0866-0.0671-2.5162 0.0336-3.3448 0.70467-0.55234 0.40267-1.074 0.97312-1.2274 1.1744-0.49097 0.83889-0.24549-0.33556 0.36823-1.7784 0.52166-1.2751 0.61372-2.2147 0.61372-6.4762 0-6.5434-0.24549-6.2414 4.9404-6.2414 3.713 0 3.9585 0.0336 4.3881 0.73823zm104.27-0.16778c0.49098 0.46978 0.55235 1.1073 0.55235 5.5367 0 4.6642 0.0614 5.1005 0.76714 6.644 0.42961 0.90601 0.76715 1.7449 0.76715 1.8456 0 0.10066-0.52166-0.23489-1.1354-0.80534-1.1354-0.93956-1.3195-0.97311-4.9404-1.1409-3.7744-0.13423-3.7744-0.13423-5.0018 0.83889-1.2888 1.0402-1.4729 0.80534-0.67509-0.83889 0.39892-0.87245 0.49098-1.9127 0.42961-5.8387-0.0614-4.6642 0.12274-5.9058 1.0126-6.5434 0.18411-0.13422 1.9946-0.26845 3.9892-0.26845 2.9765 0 3.7744 0.10067 4.2346 0.57045zm40.689-0.0336c0.6444 0.46978 0.67509 0.73823 0.67509 5.436 0 4.5636 0.0614 5.0669 0.76714 6.7111 0.4296 1.0067 0.76715 1.8791 0.76715 1.9462 0 0.10067-0.52166-0.302-1.1354-0.83889l-1.1661-1.0067-16.785-0.10067c-9.2671-0.0671-16.816 0-16.816 0.13423 0 0.13422-0.18412 0.26844-0.39892 0.26844-0.24548 0-0.73646 0.36911-1.1354 0.83889-0.39892 0.46978-0.76715 0.77178-0.82852 0.70467-0.0614-0.0671 0.18412-0.80533 0.52166-1.6778 0.52166-1.3758 0.61372-2.3153 0.61372-6.6776 0-4.228 0.0921-5.134 0.52166-5.6709 0.46028-0.57045 1.4115-0.60401 17.092-0.60401 14.545 0 16.693 0.0671 17.307 0.53689zm-201.05 16.509c0.82852 0.60401 1.0433 1.8791 1.0433 6.342s0.03069 4.6978 0.88989 6.5434c0.49097 1.0738 0.8592 1.9462 0.79783 1.9462-0.06137 0-0.67509-0.53689-1.3809-1.1744l-1.2888-1.1744h-7.3646c-7.0884 0-7.3953 0.0336-8.3159 0.73822-0.55234 0.40267-1.0126 0.87245-1.074 1.0067-0.06137 0.13422-0.2148 0.26844-0.36823 0.26844s-0.06137-0.40267 0.15343-0.93956c1.0126-2.1811 1.1354-3.0536 1.074-7.5836-0.03069-3.6911 0.06137-4.7985 0.46029-5.436l0.46029-0.80533h7.3032c3.9892 0 7.426 0.13422 7.6101 0.26844zm19.516 0.302c0.49097 0.46978 0.55234 1.1073 0.55234 5.5367 0 3.8254 0.12274 5.2347 0.46029 5.9729 0.27617 0.57044 0.61372 1.4093 0.79783 1.9127l0.30686 0.93956-0.70577-0.70467c-1.3502-1.3422-1.9025-1.4764-7.8249-1.5436l-5.7996-0.10067-1.2888 1.1073c-0.70577 0.63756-1.2888 1.0402-1.2888 0.97311 0-0.10066 0.27617-0.906 0.6444-1.812 0.58303-1.4093 0.6444-2.1811 0.61372-6.2078-0.06137-3.624 0.03069-4.7985 0.4296-5.6038l0.49097-1.0402h6.0144c5.1859 0 6.1065 0.0671 6.5974 0.57044zm19.271 0.10067c0.55234 0.604 0.61372 1.1073 0.61372 5.6374 0 4.2951 0.09206 5.1676 0.61372 6.3756 0.58303 1.3422 0.8592 2.6173 0.36823 1.9127-0.12274-0.20133-0.61372-0.70467-1.1047-1.1073-0.82852-0.70466-1.1661-0.73822-6.9043-0.73822h-6.0451l-1.0433 1.0067c-0.58303 0.53689-1.1661 0.97312-1.2888 1.0067-0.12274 0 0.12274-0.80534 0.52166-1.7784 0.70577-1.6107 0.76714-2.1476 0.76714-6.7447 0-4.1945 0.09206-5.1005 0.52166-5.6374 0.4296-0.53689 1.074-0.604 6.444-0.604 5.5234 0 5.953 0.0335 6.5361 0.67111zm81.686-0.10067c0.49097 0.46978 0.55235 1.1073 0.55235 5.4696 0 4.832 0.0307 4.9662 0.92057 6.8454 0.52166 1.0402 0.82852 1.8791 0.73646 1.8791-0.12274 0-0.67509-0.46978-1.2581-1.0067l-1.0433-1.0067h-37.283c-27.034 0-37.467 0.10067-37.958 0.36911-0.36823 0.20134-0.98195 0.70467-1.3502 1.0738-0.8592 0.8389-0.8592 0.73823-0.03069-1.3087 0.58303-1.4429 0.67509-2.114 0.61372-5.8387-0.09206-4.1945 0.2148-6.2749 0.92057-6.7782 0.2148-0.13422 17.092-0.26844 37.498-0.26844 34.092 0 37.161 0.0335 37.682 0.57044zm19.332 0c0.49097 0.46978 0.55235 1.1073 0.55235 5.5031 0 4.228 0.0921 5.1676 0.61371 6.5434 0.33755 0.87244 0.58303 1.6107 0.52166 1.6778-0.0614 0.0671-0.55234-0.23489-1.074-0.67111-0.92058-0.73823-1.3195-0.80534-6.444-0.93956-5.7996-0.16778-6.8122-0.0336-7.9476 1.1073-0.95126 1.0067-1.1354 0.67111-0.49097-0.73823 0.4296-0.906 0.58303-2.2818 0.70577-6.6105 0.12275-4.9327 0.2148-5.5367 0.73646-5.9729 0.49098-0.36912 1.9025-0.46978 6.444-0.46978 4.9711 0 5.8917 0.0671 6.3826 0.57044zm19.271 0.10067c0.55234 0.604 0.61372 1.1073 0.61372 5.6709 0 4.2616 0.0921 5.2347 0.61371 6.5769 0.61372 1.6107 0.79783 2.2818 0.36823 1.6778-0.12274-0.20133-0.6444-0.70467-1.1661-1.1073-0.88989-0.67111-1.3195-0.70466-6.8736-0.73822l-5.9224-0.0671-1.3195 1.0402-1.3195 1.0067 0.73646-1.8791c0.70577-1.7113 0.76714-2.2818 0.76714-6.7447 0-4.0602 0.0921-4.9662 0.52166-5.5031 0.4296-0.53689 1.074-0.604 6.444-0.604 5.5234 0 5.953 0.0335 6.5361 0.67111zm19.087-0.10067c0.49098 0.46978 0.55235 1.1073 0.55235 5.5367 0 3.8254 0.12274 5.2347 0.46029 5.9729 0.27617 0.57044 0.61371 1.3758 0.76714 1.8456l0.30686 0.87245-1.1661-1.0067-1.1354-1.0067-11.906-0.0671-1.3502 1.0067c-0.73646 0.57045-1.3195 0.97312-1.3195 0.90601 0-0.0671 0.27618-0.77178 0.61372-1.5771 0.49097-1.2416 0.61372-2.2147 0.61372-6.0736 0-4.4629 0.27617-6.2078 1.0126-6.7111 0.2148-0.13422 2.9765-0.26844 6.1678-0.26844 4.9711 0 5.8917 0.0671 6.3826 0.57044zm22.892-0.0335c0.6444 0.46978 0.67509 0.70467 0.67509 5.5367 0 3.8589 0.12274 5.2682 0.46028 6.0065 0.27618 0.57044 0.61372 1.4093 0.76715 1.8791l0.30686 0.87245-0.95126-0.87245c-0.52166-0.46978-1.2274-0.93955-1.5957-1.0402-0.98194-0.20134-15.834-0.40267-15.926-0.16778-0.12274 0.26845-2.7004 2.416-2.7004 2.2147 0-0.0671 0.33754-0.80534 0.76714-1.5771 0.73646-1.4093 0.76715-1.7449 0.76715-6.8118 0-4.4965 0.0921-5.436 0.52166-5.9729 0.46028-0.57045 1.1354-0.604 8.3465-0.604 6.6281 0 7.9783 0.0671 8.5613 0.53689z" style="stroke-width:.032089"/>
		<path id="path22" d="m246.75 96.693c-0.33754 0.20133-0.70577 0.53689-0.82851 0.73822-0.12275 0.20133-0.24549 8.0198-0.24549 17.382 0 16.61 0.0307 17.08 0.61372 17.717 0.61371 0.67112 1.0126 0.67112 23.291 0.67112 21.879 0 22.708-0.0336 23.383-0.63756l0.73646-0.63756-0.0307-17.181c-0.0307-15.637-0.0614-17.214-0.55235-17.717-0.46028-0.53689-2.3628-0.57045-23.137-0.63756-16.54-0.06711-22.769 0-23.229 0.302zm12.029 2.3825c0.49098 0.50334 0.55235 1.3087 0.61372 5.8722 0.0307 4.7314 0.12274 5.436 0.70577 6.5769 0.82852 1.6107 0.61372 1.8791-0.61371 0.73823-0.95126-0.83889-1.1047-0.87245-5.0018-0.87245h-4.0505l-1.1661 1.0402c-1.1968 1.0738-1.2581 0.77178-0.15343-1.208 0.46029-0.83889 0.55235-1.7784 0.55235-6.2078 0-2.8522 0.12274-5.3689 0.24548-5.5702 0.58303-0.93956 1.5343-1.1409 4.879-1.0738 2.8231 0.10067 3.5596 0.20133 3.9892 0.70467zm15.097 0.03356c0.61372 0.604 0.6444 0.97311 0.6444 5.6038 0 4.1945 0.0921 5.1676 0.61372 6.5098 0.79783 2.0469 0.79783 2.0804-0.4296 1.0402-1.0126-0.83889-1.2274-0.87245-5.0018-0.87245-3.7437 0-4.0198 0.0336-5.0018 0.83889-0.55234 0.46978-1.074 0.77178-1.1354 0.73823-0.0614-0.0671 0.15343-0.63756 0.4296-1.2751 0.4296-0.906 0.58303-2.2818 0.70577-6.5098 0.0921-2.9529 0.27618-5.5702 0.4296-5.8051 0.49098-0.83889 1.565-1.0738 4.8177-0.97312 2.731 0.06711 3.3754 0.16778 3.9278 0.70467zm14.361-0.43622c0.46029 0.16778 0.95126 0.53689 1.074 0.73822 0.12275 0.23489 0.24549 2.6509 0.24549 5.3689 0 4.6307 0.0614 5.0669 0.76714 6.6105 0.42961 0.90601 0.76715 1.7449 0.76715 1.8456 0 0.13423-0.52166-0.23489-1.1354-0.80533l-1.1661-1.0402h-7.9783l-1.1661 1.0402-1.1354 1.0402 0.6444-1.812c0.58303-1.5771 0.6444-2.3825 0.61372-6.7111-0.0614-4.8656-0.0614-4.9662 0.70577-5.8051 0.70577-0.77178 0.98195-0.83889 3.8357-0.83889 1.6877 0 3.4368 0.16778 3.9278 0.36911zm-29.366 17.281c0.36823 0.40267 0.46029 1.5436 0.52166 5.7716 0.0307 4.4965 0.15343 5.4696 0.6444 6.6105 0.33754 0.73823 0.58303 1.4093 0.52166 1.4764-0.0614 0.0671-0.55235-0.26844-1.074-0.77178-0.52166-0.46978-1.1354-0.87245-1.3195-0.906-6.444-0.36911-6.9964-0.33556-8.3772 0.70467-0.73646 0.53689-1.3502 0.93956-1.3502 0.83889 0-0.0671 0.27618-0.80534 0.61372-1.6778 0.52166-1.3422 0.61372-2.3154 0.61372-6.4762 0-2.718 0.12274-5.1005 0.24548-5.3018 0.61372-1.0067 1.4729-1.1744 4.9711-0.97312 2.5469 0.13423 3.6516 0.33556 3.9892 0.70467zm15.128 0.16778c0.42961 0.604 0.52166 1.4429 0.52166 5.6374 0 4.1609 0.0921 5.134 0.61372 6.3756 0.33754 0.80534 0.58303 1.51 0.52166 1.5771-0.0614 0.0671-0.58303-0.26845-1.1968-0.73822-1.0126-0.80534-1.3809-0.87245-4.7256-0.93956-3.3141-0.0671-3.7437 0-4.5722 0.67112-1.657 1.3087-1.7491 1.2751-1.1661-0.10067 0.39892-0.97312 0.58303-2.4831 0.70577-6.644 0.0921-2.9529 0.27618-5.5702 0.4296-5.8051 0.49098-0.87245 1.5957-1.0738 4.9404-0.90601 2.9765 0.13423 3.4368 0.23489 3.9278 0.87244zm14.545-0.70467c0.0307 0 0.27617 0.23489 0.52166 0.53689 0.39891 0.43623 0.49097 1.4093 0.49097 5.5367 0 4.6978 0.0614 5.134 0.76714 6.6776 0.95126 2.0469 0.95126 2.3154 0.0921 1.4429-1.3195-1.3087-2.0866-1.51-5.7996-1.5436l-3.6516-0.0336-1.2274 1.1073c-0.67509 0.57045-1.2274 1.0067-1.2274 0.93956 0-0.0671 0.30686-0.77178 0.6444-1.5771 0.58303-1.2751 0.6444-2.114 0.70577-6.8118 0.0307-5.2682 0.0307-5.3354 0.79783-6.0065 0.70578-0.63756 1.074-0.67112 4.296-0.50334 1.9332 0.10067 3.5596 0.20134 3.5902 0.23489z" style="stroke-width:.032089"/>
		<path id="path24" d="m298.61 96.693c-0.33754 0.20133-0.70577 0.53689-0.82851 0.73822-0.12275 0.20133-0.24549 19.395-0.24549 42.683 0 40.569 0.0307 42.347 0.55234 42.851 0.52166 0.53689 3.13 0.57044 31.085 0.57044 16.785 0 30.655-0.13422 30.87-0.26844 0.18411-0.13422 0.49097-0.63756 0.6444-1.0738 0.18411-0.5369 0.27617-16.946 0.24548-42.683-0.0307-39.696-0.0614-41.878-0.58303-42.448-0.52166-0.57045-2.2094-0.604-30.839-0.67111-22.247-0.06711-30.44 0-30.901 0.302zm12.152 2.5838c0.52166 0.67111 0.58303 1.3422 0.58303 5.8051 0 4.3958 0.0921 5.1676 0.64441 6.342 0.33754 0.77178 0.55234 1.4429 0.49097 1.51-0.0614 0.10067-0.55235-0.23489-1.074-0.70467-0.88989-0.80533-1.074-0.83889-4.9711-0.83889h-4.0505l-1.1968 1.0402-1.1661 1.0067 0.73646-1.8791c0.70577-1.7113 0.76715-2.2818 0.76715-6.8789 0-6.5434-0.12275-6.3756 4.9711-6.2749 3.4675 0.06711 3.713 0.10067 4.2653 0.87245zm14.3-0.604c0.46029 0.16778 0.95126 0.53689 1.074 0.73822 0.12274 0.23489 0.24548 2.5838 0.24548 5.2682 0 4.4629 0.0614 4.9998 0.76715 6.644 0.73646 1.7784 0.98194 2.5838 0.52166 1.9127-0.12275-0.20133-0.64441-0.70467-1.1968-1.1073-0.8592-0.67111-1.3195-0.73822-4.9711-0.73822h-3.9892l-1.1047 1.0402c-1.1354 1.1073-1.1661 0.97311-0.24548-1.3087 0.30685-0.80533 0.46028-2.5838 0.49097-6.3085 0.0614-6.5769 0.0307-6.5098 4.5108-6.5098 1.657 0 3.4061 0.16778 3.8971 0.36911zm15.926 0.46978c0.73646 0.83889 0.76714 0.93956 0.70577 5.8387-0.0307 3.7918 0.0921 5.2011 0.4296 5.9394 0.24549 0.53689 0.55235 1.3422 0.67509 1.812 0.2148 0.77178 0.2148 0.77178-0.30686 0.20133-1.4116-1.5436-1.8718-1.6442-5.9224-1.5771-3.6209 0.0671-3.9585 0.13423-4.879 0.90601-1.1968 0.97311-1.1968 0.97311-0.39892-1.0402 0.52166-1.3422 0.61372-2.3153 0.61372-6.4762 0-2.718 0.12274-5.1005 0.24548-5.3018 0.52166-0.87245 1.6264-1.1073 4.7563-1.1409 3.13 0 3.3448 0.03355 4.0812 0.83889zm14.637-0.46978c0.36823 0.23489 0.76714 0.57045 0.88989 0.77178 0.12274 0.20133 0.24548 2.5838 0.24548 5.2682 0 4.53 0.0614 5.0669 0.76715 6.8454l0.79783 1.9127-1.2581-1.0738-1.2274-1.0738-3.9278 0.0335c-3.222 0.0336-4.0198 0.16778-4.6642 0.63756-1.5036 1.208-1.5957 1.1744-1.0126-0.16778 0.39892-0.97311 0.58303-2.4831 0.70577-6.7447 0.18412-6.946 0.0921-6.7782 4.8177-6.7782 1.8105 0 3.4982 0.16778 3.8664 0.36911zm-44.985 17.181c0.46029 0.50333 0.58303 1.4093 0.70577 6.2078 0.12275 4.53 0.27618 5.8051 0.70578 6.7111 0.73646 1.4764 0.55234 1.6107-0.61372 0.36911-0.98194-0.97312-1.0433-0.97312-4.8484-1.0738-2.1173-0.0671-3.8357 0.0335-3.8357 0.16778 0 0.13422-0.15343 0.26844-0.33755 0.26844-0.18411 0-0.67508 0.302-1.1047 0.67112-0.46028 0.36911-0.8592 0.63755-0.92057 0.57044-0.0614-0.0671 0.18412-0.80533 0.52166-1.6107 0.52166-1.2751 0.61372-2.2147 0.61372-6.5098 0-2.7851 0.12274-5.2011 0.24548-5.4025 0.58303-0.93956 1.5343-1.1409 4.879-1.0738 2.8231 0.10066 3.5596 0.20133 3.9892 0.70467zm14.975 0.0671c0.73646 0.77178 0.76714 0.93956 0.76714 5.8722 0 4.4629 0.0614 5.2347 0.6444 6.4091 0.79783 1.7113 0.55235 2.0469-0.61371 0.83889-0.88989-0.93956-1.0126-0.93956-4.879-1.0402l-3.9585-0.10067-1.1047 1.1744c-1.2888 1.3087-1.4115 1.0402-0.52165-0.90601 0.52165-1.1409 0.61371-1.9798 0.61371-6.3756 0-4.9327 0.0307-5.1005 0.76715-5.8722 0.70577-0.80534 0.95126-0.83889 4.1426-0.83889 3.1913 0 3.4368 0.0336 4.1426 0.83889zm15.159-0.0336c0.61371 0.604 0.6444 0.97312 0.6444 5.6374 0 3.8254 0.12274 5.2347 0.46029 5.9729 0.27617 0.57045 0.61371 1.3758 0.76714 1.8456 0.27617 0.77178 0.2148 0.77178-1.074-0.302l-1.3502-1.1409-3.6209 0.0671c-3.13 0.0336-3.7744 0.13422-4.5415 0.73823-1.6264 1.2416-1.6877 1.208-1.0433-0.40267 0.55234-1.3422 0.6444-2.1811 0.61372-6.5434-0.0614-4.9662-0.0614-4.9998 0.73645-5.8722 0.76715-0.83889 0.88989-0.87245 4.2653-0.73822 2.9152 0.0671 3.5902 0.20133 4.1426 0.73822zm15.312-0.26844 0.67508 0.50333v13.154c0 7.248-0.092 13.691-0.18411 14.328l-0.18412 1.1744h-4.6949c-4.4494 0-4.6949-0.0336-4.7563-0.67111-0.0307-0.36912-0.12274-6.7111-0.18411-14.06l-0.12274-13.389 0.67508-0.80533c0.61372-0.73823 0.88989-0.77178 4.3881-0.77178 2.8538 0 3.8664 0.13422 4.3881 0.53689zm-45.415 17.046c0.4296 0.46978 0.52166 1.3758 0.58303 5.7045 0.0614 4.2951 0.18411 5.436 0.70577 6.7447 0.33754 0.87245 0.61372 1.6442 0.61372 1.7113 0 0.10067-0.55235-0.302-1.2274-0.90601l-1.1967-1.0738-3.7744 0.0336c-2.0866 0-3.8357 0.0336-3.9278 0.0336-0.0921 0.0336-0.55234 0.43623-1.0126 0.90601-1.1354 1.1409-1.3195 0.87245-0.55235-0.90601 0.55235-1.2416 0.64441-2.0804 0.64441-6.5098 0-6.644-0.0307-6.6105 5.3086-6.4427 2.6083 0.10066 3.4061 0.23489 3.8357 0.70467zm15.128 0.16778c0.52166 0.67111 0.58303 1.4093 0.58303 5.8051s0.0921 5.1676 0.6444 6.342c0.73646 1.6107 0.55235 2.0469-0.4296 1.0738-1.2581-1.2416-1.8412-1.4093-5.37-1.2751-3.0379 0.13422-3.5596 0.23489-4.5722 0.97312-0.61372 0.46978-1.1968 0.80533-1.2581 0.73822-0.0614-0.0671 0.18412-0.73822 0.52166-1.51 0.58303-1.1744 0.6444-1.9462 0.6444-6.4091 0-4.9998 0-5.0669 0.79783-5.9394 0.76715-0.83889 0.85921-0.83889 4.3267-0.70467 3.2527 0.13422 3.5902 0.20134 4.1119 0.90601zm15.036-0.10067c0.52166 0.50333 0.58303 1.0738 0.58303 5.5367 0 4.1945 0.0921 5.1676 0.61371 6.5098 0.76715 1.9798 0.76715 2.0133-0.2148 1.2416-1.3195-1.0067-2.1173-1.1744-5.7382-1.1409-2.7617 0.0336-3.4982 0.13422-4.1426 0.67111-1.5036 1.1744-1.565 1.1409-0.92057-0.50333 0.55234-1.3758 0.6444-2.2482 0.61372-6.3085-0.0614-6.8118 0.0614-6.946 5.4314-6.7111 2.4856 0.10067 3.3141 0.23489 3.7744 0.70467zm0.0307 16.811c0.42961 0.40267 0.52166 1.3422 0.61372 5.738 0.0921 5.2347 0.15343 5.6374 1.4422 8.2883 0.15343 0.33555-0.27617 0.0335-1.8105-1.3422-0.70577-0.604-1.2274-0.67111-4.5108-0.67111h-3.713l-1.2581 1.1073c-0.70578 0.60401-1.2581 1.0402-1.2581 0.97312 0-0.10067 0.30685-0.87245 0.6444-1.7784 0.58303-1.4429 0.67509-2.1811 0.61372-6.342-0.0614-5.0669 0.2148-6.2078 1.4422-6.5434 0.36823-0.10066 2.1787-0.13422 3.9892-0.0671 2.3935 0.10067 3.4061 0.23489 3.805 0.63756zm15.097-0.20133 0.79783 0.67111v26.845l1.9025 4.0938-1.4729-1.3087-1.4422-1.3087-3.5902-0.13422c-3.805-0.10067-4.5722 0.10067-6.0451 1.6107-1.0433 1.0738-1.074 0.87245-0.24549-1.1744l0.76715-1.8791v-13.053c0-13.322 0.0921-14.53 1.1967-14.832 0.27617-0.10067 2.0253-0.16778 3.8971-0.20134 3.0072-0.0336 3.4982 0.0336 4.2346 0.67112zm-45.354 0.10066c0.52165 0.43623 0.58303 0.97312 0.6444 5.7045 0.0307 4.4294 0.15343 5.436 0.67508 6.7782 0.36823 0.87245 0.64441 1.6107 0.64441 1.7113 0 0.0671-0.55235-0.33556-1.1968-0.93956-1.1968-1.0402-1.2274-1.0402-5.0632-1.1073-2.9765-0.0671-3.9585 0.0336-4.2346 0.36911-0.18411 0.26845-0.73646 0.77179-1.2274 1.1744l-0.92058 0.70467 0.79783-1.7113c0.76715-1.6442 0.79784-2.0133 0.79784-6.9125 0-4.2616 0.0921-5.2682 0.49097-5.7045 0.6444-0.73822 7.6714-0.77178 8.592-0.0671zm15.282 0.26845c0.39891 0.604 0.49097 1.7784 0.49097 5.6374 0 4.4965 0.0614 4.9998 0.76715 6.6776l0.76714 1.812-0.67509-0.57044c-0.39891-0.302-1.0126-0.77178-1.4115-1.0738-0.52166-0.43622-1.4729-0.53689-4.3267-0.57044-3.7744-0.0336-4.296 0.13422-5.7076 1.6442-0.52166 0.57044-0.52166 0.57044-0.30686-0.20134 0.12274-0.46978 0.4296-1.2416 0.6444-1.7449 0.30686-0.63756 0.4296-2.3154 0.4296-5.8722 0-6.7447-0.2148-6.4762 4.9097-6.4762 3.7437 0 3.9892 0.0336 4.4188 0.73823zm0.0921 16.778c0.67508 0.70467 0.70577 0.93956 0.70577 5.8051 0 4.7985 0.0307 5.2011 0.76714 6.7111l0.79784 1.5771-1.3195-1.0402-1.2888-1.0402h-23.106l-1.2581 1.0067-1.2581 0.97312 0.55235-1.3422c0.30685-0.70467 0.6444-1.4093 0.73645-1.5436 0.12275-0.10067 0.21481-2.4831 0.21481-5.2682 0-4.0602 0.0921-5.2347 0.49097-5.8387l0.46029-0.73822h11.384c11.292 0 11.415 0 12.121 0.73822zm14.883-0.16778c0.49098 0.46978 0.55235 1.1073 0.55235 5.5367 0 4.9998 0.12274 5.738 1.4729 8.456 0.0921 0.20133-0.36823-0.13423-1.0433-0.73823-1.1661-1.0067-1.2581-1.0402-5.0325-1.1409-2.1173-0.0671-3.9585 0-4.1426 0.13422-0.15343 0.13422-0.76714 0.63756-1.2888 1.1409-0.55235 0.46978-1.0126 0.80534-1.0126 0.70467 0-0.0671 0.30685-0.87244 0.67508-1.7784 0.58304-1.4764 0.64441-2.1476 0.58304-6.04-0.0614-3.322 0.0307-4.6642 0.39891-5.6038l0.46029-1.2416h3.8971c3.222 0 4.0198 0.10066 4.4801 0.57044z" style="stroke-width:.032089"/>
		<path id="path26" d="m260.53 147.8c-0.55234 0.90601-0.39891 1.9462 0.24549 1.6778 0.24549-0.10067 0.67509 0 0.98195 0.26844 0.46028 0.36912 0.52165 0.73823 0.30685 2.8858-0.12274 1.3422-0.30685 2.2482-0.4296 2.0469-0.18411-0.302-0.39891-0.302-0.88989-0.0336-0.58303 0.36912-0.6444 0.67112-0.6444 3.8589 0 5.2682 0.30686 5.0334-7.2418 5.1676-5.0632 0.10067-6.1985 0.20134-6.6281 0.63756-0.49098 0.50334-0.55235 1.3758-0.55235 9.2278 0 8.2211 0.0307 8.6909 0.61372 9.3285 0.61371 0.67111 1.0126 0.67111 22.953 0.67111 21.265 0 22.401-0.0335 22.861-0.604 0.46029-0.53689 0.52166-1.7113 0.52166-9.362 0-7.8856-0.0614-8.758-0.55234-9.2614-0.42961-0.43622-1.565-0.53689-6.5668-0.63756-5.3086-0.10066-6.1065-0.16777-6.5974-0.70466-0.46028-0.46978-0.58303-1.3087-0.6444-4.53l-0.12274-3.9596-0.88989 0.0671-0.92057 0.0671 0.092-2.5502c0.0921-2.5838 0.0921-2.5838 0.95126-2.5502 0.6444 0 0.82852-0.13422 0.82852-0.70467 0-0.40266-0.24549-0.97311-0.55234-1.2751-0.49098-0.50334-1.565-0.57045-8.592-0.57045h-8.0397zm10.065 1.1409c3.3448 0.0335 3.3141-0.0336 3.3141 6.1071 0 4.7314 0.0614 5.134 0.79783 6.7111 0.4296 0.93956 0.73646 1.7784 0.67509 1.812-0.0614 0.0671-0.58304-0.302-1.1354-0.87245-0.58303-0.53689-1.1047-0.97312-1.2274-0.97312-0.0921-0.0335-1.7798-0.0671-3.713-0.13422-3.6823-0.0671-4.1733 0.0671-5.7382 1.6107-0.88989 0.80533-0.88989 0.57044-0.0614-1.208 0.58303-1.208 0.67508-2.0469 0.70577-6.4427 0.0307-2.7851 0.18412-5.3354 0.30686-5.6374 0.27617-0.67111 1.8105-1.2416 2.9458-1.0738 0.4296 0.0336 1.8411 0.10067 3.13 0.10067zm-11.845 17.281c0.52166 0.43622 0.58303 0.97311 0.6444 5.8387 0.0307 4.6978 0.12274 5.5031 0.67509 6.7111 0.88988 1.8791 0.82851 1.9462-0.55235 0.77178-1.1661-1.0067-1.2581-1.0402-4.9097-1.1073l-3.6823-0.0671-1.3809 1.0738-1.3809 1.1073 0.73646-1.7784c0.70577-1.6442 0.76715-2.1811 0.76715-6.7782 0-6.5098-0.2148-6.2414 4.7563-6.2414 2.731 0 3.8664 0.13422 4.3267 0.46978zm14.606 0.10066c0.49097 0.46978 0.55235 1.1073 0.55235 5.5367 0 4.6642 0.0614 5.1005 0.76714 6.644 0.4296 0.906 0.76715 1.7449 0.76715 1.8791 0 0.10067-0.55235-0.26845-1.1968-0.83889-1.1968-1.0402-1.2581-1.0738-4.9404-1.0738-3.713-0.0336-3.7437-0.0336-5.0938 1.0067l-1.3502 1.0738 0.30686-0.8389c0.15343-0.50333 0.46029-1.2751 0.70578-1.812 0.27617-0.63756 0.36823-2.2818 0.33754-5.6038-0.0614-4.4965 0.0921-5.7045 0.92057-6.2749 0.18412-0.13422 1.9946-0.26844 3.9892-0.26844 2.9765 0 3.7744 0.10066 4.2346 0.57044zm14.729 0c0.49097 0.46978 0.55235 1.1073 0.55235 5.4696 0 4.5636 0.0614 5.1005 0.76714 6.8789l0.76715 1.9127-1.3195-1.0738c-1.2888-1.0067-1.4422-1.0402-4.8484-1.0738-3.6209-0.0671-4.3267 0.13422-5.7076 1.51-0.85921 0.8389-0.88989 0.60401-0.0921-1.1409 0.55234-1.1409 0.6444-2.0469 0.70577-6.644 0.0307-3.926 0.18412-5.436 0.49098-5.8387 0.61371-0.83889 7.8556-0.83889 8.6841 0z" style="stroke-width:.032089"/>
	</g>
</svg>
