<?xml version="1.0" encoding="UTF-8"?>
<svg id="svg44" width="297mm" height="210mm" style="enable-background:new" version="1.0" viewBox=".1 0 500 353.54" xmlns="http://www.w3.org/2000/svg">
	<g id="adobe" transform="matrix(.056187 0 0 -.063152 -57.679 319.52)">
		<path id="path2" transform="matrix(7.5,0,0,-7.5,0,5830)" d="m1132.2 182.13c-2.1063-0.0125-3.7817 0.23672-4.1817 0.63672-0.5333 0.53333-0.9335 7.6016-0.9335 15.602v14.666l-2.7989-2.5332c-3.7333-3.3333-12.001-3.201-16.801 0.26563-14.533 10.933-14.399 50.134 0.2676 59.201 5.8667 3.6 11.598 3.4654 16.398-0.66797 4.8-4 5.6015-4.1327 5.6015-0.66601 0 2.2667 0.9321 2.666 5.3321 2.666h5.3339l-0.2675-44.398-0.3985-44.268-5.334-0.40039c-0.7666-0.0667-1.5166-0.0993-2.2187-0.10352zm70.666 0c-2.1062-0.0125-3.7816 0.23672-4.1816 0.63672-0.5334 0.53333-0.9317 20.667-0.9317 44.801v43.732h5.3321c4.4 0 5.3339-0.39935 5.3339-2.666 0-3.4667 0.7996-3.334 5.5996 0.66601 7.6 6.4 17.6 2.5346 23.6-9.332 2.9333-5.7333 3.3334-8.4 3.4668-20 0-14.933-2.3995-23.334-8.1329-28.801-4.8-4.4-13.6-4.4-18.4 0l-3.3321 3.2012-0.8008-31.734-5.3339-0.40039c-0.7667-0.0667-1.5167-0.0993-2.2188-0.10352zm-134.66 2.5039c-3.4166 0.1-6.7838 0.66627-7.1171 1.5996-0.2667 0.93333-2.9334 12.8-6 26.4-2.9334 13.6-7.0659 32-9.1993 41.066-4.1333 18-4.1333 18.134 4 17.334 4.2667-0.4 4.4003-0.53282 6.9336-12.133l2.666-11.734 8.8008 0.40039 8.7989 0.40039 2.5332 11.6 2.6679 11.732h11.732l-0.7988-5.0664c-2-10.667-16.935-79.334-17.602-80.4-0.5334-0.93333-3.9994-1.2992-7.4161-1.1992zm-77 0.7832c-7.7833 0.0167-15.317 0.4168-15.584 1.2168-0.4 0.8 4.2681 12.799 10.135 26.666 6 14 13.199 31.201 16.266 38.268 2.9334 7.2 5.8671 13.066 6.4004 13.066 0.5334 0 1.0659-17.333 1.1993-38.533 0.1333-28.933-0.1321-38.8-1.3321-39.6-1.2666-0.73333-9.3006-1.1006-17.084-1.084zm-53.166 0.0508c-3.2833-0.0333-7.4849 0.0324-13.352 0.23242l-13.6 0.40039 0.13477 40.801c0 24.8 0.53203 40.267 1.332 39.467 0.66667-0.66667 3.4676-6.801 6.2676-13.734 4.6667-11.333 8.1329-19.467 23.6-56.4 2.4-5.6 4.0001-10.267 3.4668-10.4-2.2-0.2-4.5663-0.3319-7.8496-0.36523zm130.65 15.967c0.5333 0.4 1.0683 1.8659 1.0683 3.1992s1.1994 8.5333 2.666 16c3.6 18.533 3.8658 17.6-4.2675 17.066-4.2667-0.26666-6.9322-0.93385-6.7989-1.8672 0.1334-0.8 1.5993-9.0656 3.1993-18.266 1.5999-9.2 3.4661-16.533 4.1328-16.133zm200.8 6.1152c-1.5333-0.0167-2.9996 0.35065-5.5996 1.084-5.2 1.6-8.5332 4.9327-12.533 12.666-3.0666 5.7333-3.4668 8.2673-3.4668 19.334 0 17.467 3.9996 25.067 15.6 30 5.7334 2.4 10.401 2.5332 17.334 0.5332 4.6667-1.2 5.066-1.7329 4.666-5.5996l-0.4003-4.2676-8.1329 0.40039c-6.9333 0.4-8.6657 6.5e-4 -11.732-2.666-4.4-3.7333-7.3351-14.133-4.5351-16 0.9333-0.66667 7.6013-0.93412 14.668-0.80078 14.933 0.39999 15.066 0.39973 13.6-12.934-1.2-10.267-6.6668-18.667-13.467-20.533-2.8666-0.8-4.4666-1.2001-6-1.2168zm-100.4 0.33594c-2.4617-0.0203-4.818 0.34844-6.668 1.1484-5.7333 2.6667-12.4 10.667-13.6 16.533-0.5333 2.8-1.0664 10.134-1.0664 16.4 0 9.3333 0.6654 12.533 3.3321 18 4.5333 9.0667 10.667 13.066 18.801 12.266 8-0.66667 13.467-4.666 17.467-12.666 2.5334-5.3333 3.0664-8.2663 3.0664-19.6 0-11.6-0.4006-14.267-3.3339-19.867-1.8667-3.7333-4.7994-7.7331-6.6661-9.0664-2.8333-2-7.2291-3.1146-11.332-3.1484zm0.1895 9.2324c1.6948-0.087 3.2179 1.4746 5.5429 4.8496 2.5334 3.7333 2.9336 6.1336 2.9336 16.934 0 19.067-4.9337 27.599-12.4 21.732-4.5333-3.6-6.7996-14.533-5.5996-27.066 0.8-8 1.5989-10.134 4.7989-13.334 1.9833-1.9833 3.4064-3.0476 4.7246-3.1152zm49.613 1.0098c0.7641 0.0531 1.6461 0.47187 2.9961 1.1719 9.6 5.2 9.4658 38.933-0.2675 42-7.8667 2.5333-10.533-3.0662-10.533-22.133 0-13.733 0.1339-14.801 3.3339-17.867 2.25-2.3333 3.1973-3.2604 4.4707-3.1719zm-99.787 0.0391c1.3167 0.0333 2.6504 1.0661 4.6504 3.1328 3.2 3.0667 3.3321 3.9999 3.3321 18.533 0 14.133-0.2665 15.6-3.0665 18.934-2.5333 2.8-3.866 3.468-6.666 2.668-4.5333-1.0667-6.0001-3.8669-7.4668-14.934-1.6-11.067 0.2661-20.933 4.6661-25.467 1.9333-1.9333 3.2341-2.9005 4.5507-2.8672zm-158.55 1.1328c-0.4 0-3.466 6.5337-6.666 14.4-3.3333 7.8667-6.5345 15.067-7.2012 16-2.1333 2.6667 0.40144 4.1332 8.1348 4.5332l7.1992 0.40039 2.9336 7.0664c3.6 8.4 5.0667 9.5996 12 9.5996 4.9333 0 5.0662-0.13242 4.1328-3.7324-0.4-2-4.2665-11.733-8.5332-21.6s-8.5335-20-9.4668-22.4c-0.93333-2.2667-1.9999-4.2676-2.5332-4.2676z" style="stroke-width:.13333"/>
	</g>
	<g id="eset" transform="matrix(.070246 0 0 -.089396 -201.32 367.48)">
		<path id="path5" d="m8806.5 2595c-661 0-705.99-1.999-743.99-18.999-44-20-89.995-62.001-110-101-25-49-38.007-147.99-32.007-252.99 7.0005-132 19.997-172 71.997-224l41.998-42.993h1553l43.989 39.99c58 54 79 125 79 270 0 140-19.993 211-76.993 265-23 22-59.998 45.998-82.998 52.998-30 9-218.01 11.997-744.01 11.997zm-311-49.995h362.01v-212.01c0-117-3.0015-242.99-7.002-279.99l-6.0052-67.998h-341c-215 0-355.99 3.9863-380.99 10.986-57 16-99.006 51.011-126.01 106.01-20 41-22.998 63.998-22.998 158-0.9997 121 10.002 167 52.002 217 56 66 66.995 67.998 470 67.998zm802-120h250v-40.005c0-39-0.9952-39.99-34.995-39.99h-35.01v-240h-110v240h-34.995c-34 0-35.01 0.9902-35.01 39.99zm-211.74-0.9961c40.25 0 80.753-3.0088 96.753-9.0088 32-12 54.99-63.999 54.99-124v-45l-102.99-3.003-103.01-2.9882 7.9988-32.007c7.9995-30 12.01-33.003 46.01-33.003 26 0 40.995 6.0098 49.995 20.01 9 15 22.997 19.995 56.997 19.995 41 0 45-2.0088 45-24.009 0-14-10.994-37.998-23.994-52.998-22-26-30.003-27.996-108-30.996-109-3.9999-147 14.003-166 78.003-17 56-10.003 161 11.997 196 10 14 26.995 28.999 38.995 33.999 14.999 6 55.009 9.0088 95.258 9.0088zm-447.77-0.835c-25.547 0.2033-53.732-2.4238-83.482-8.1738-21-4-43.003-11.992-48.003-16.992-19-19-27.992-83.005-16.992-115 13-36 41.993-48.003 117.99-48.003 40 0 64.004-4.9961 74.004-15.996 18-18 18.005-16.998 10.005-37.998-8.0002-22-99.003-22.996-108-0.9961-3.9997 11-20.008 15-54.008 15-47 0-49-1.0088-45-24.009 9-45 38-59.995 120-64.995 102-5.0001 149.01 9.9941 170.01 53.994 13 27 14.002 42.997 7.002 71.997-11 46-35.008 59.005-129.01 70.005-66 8.0001-69.99 9.003-69.99 33.003 0 22 4.9913 24.993 35.991 27.993 23 2 42.002-2.9971 52.002-11.997 9-9 33.002-15.996 56.001-15.996 33 0 41.001 4.0029 41.001 18.003 0 43.5-52.881 69.557-129.52 70.166zm-376.1-0.4245c-16.813 0.2498-33.63-1.246-49.38-4.7461-79-17-96.997-41.998-102-143-4.9995-85 13.997-136 56.997-157 38-19 170-17.001 200 3.999 32 22 40.005 32.996 40.005 60.996 0 19-5.0077 22.002-43.007 22.002-31 0-44.99-4.9951-54.991-19.995-25-41-102-19-102 30v30l72.993 0.9961c39 1 84.005 0 100-0.9961 26-1 26.997-0.01 26.997 53.994 0 43-4.998 61.006-22.998 81.006-21.75 25.5-72.184 41.994-122.62 42.744z"/>
	</g>
	<g id="linux-8" transform="matrix(.079326 0 0 -.070715 181.01 241.53)">
		<path id="path4" d="m659.05 2165.4c-73.467-19.356-148.01-77.423-183.67-142.32-45.377-81.978-54.02-178.76-39.975-450.88l11.884-241.38-25.93-54.652c-14.045-29.603-62.663-104.75-106.96-168.51-93.994-132.07-108.04-161.68-162.06-314.25-22.688-61.483-57.261-146.88-77.789-189-29.171-60.345-36.733-89.948-36.733-141.18 0-35.296 2.1608-63.76 5.402-63.76 2.1608 0 16.206 5.6929 30.251 12.524 63.743 30.742 143.69-53.513 308.99-319.94 128.57-207.22 150.18-300.58 83.191-371.18-32.412-34.157-43.216-38.712-95.075-38.712-32.412 0-99.396 12.524-150.18 28.464-49.698 15.94-158.82 44.404-240.93 62.622-82.11 18.217-156.66 39.85-164.22 46.682-19.447 17.079-19.447 43.266 2.1608 96.779 19.447 47.82 16.206 110.44-9.7236 181.03-23.769 66.037-9.7236 85.393 58.341 85.393 76.708 0 126.41 25.049 144.77 72.869 23.769 60.345 20.528 88.809-5.402 43.266-25.93-44.405-81.03-81.978-119.92-81.978-54.02 0-97.236-14.802-108.04-36.434-7.5628-15.94-6.4824-44.405 6.4824-102.47 16.206-77.423 16.206-83.116-6.4824-153.71-39.975-127.52-24.849-143.46 173.94-183.31 62.663-12.524 177.18-44.404 253.89-70.592 167.46-56.929 206.36-55.79 289.55 3.4157 85.351 59.206 114.52 66.037 327.36 72.869 218.24 6.8315 262.54-1.1386 291.71-52.375 30.251-53.513 75.628-75.146 160.98-75.146h76.708l96.155 81.978c54.02 45.543 148.01 109.3 209.6 142.32 112.36 60.345 163.14 105.89 163.14 145.74 0 23.91-33.492 62.622-76.708 85.393-61.583 34.157-99.396 99.056-121 204.94-8.6431 44.405-21.608-37.573-14.045-89.948 9.7236-67.176 39.975-104.75 109.12-137.77 121-55.79 99.396-101.33-81.03-176.48-76.708-31.88-138.29-66.037-189.07-108.16-42.135-34.157-89.673-67.176-106.96-72.869-66.985-27.326-129.65-7.97-159.9 47.82-9.7235 17.079-14.045 81.978-14.045 207.22-1.0804 100.19-5.402 214.05-9.7236 252.76-9.7236 76.285-4.3216 118.41 20.528 144.6 22.688 23.91 43.216 12.524 71.306-36.434 46.457-80.839 62.663-93.363 122.08-93.363 41.055 0 65.904 6.8315 96.155 28.464 21.608 15.94 39.975 33.019 39.975 38.712 0 4.5543 22.688 33.019 51.859 62.622l50.779 53.513v104.75c-1.0804 203.81-91.834 432.66-251.73 633.05-125.33 157.12-170.7 290.34-184.75 536.27-9.7236 167.37-29.171 239.1-87.512 333.6-42.135 66.038-93.994 107.03-170.7 135.49-66.985 25.049-204.19 36.434-256.05 21.633zm274.42-372.31c47.537-35.296 81.03-154.85 59.422-214.05-3.2412-10.247-18.367-18.217-33.492-18.217-24.849 0-25.93 2.2771-19.447 44.404 10.804 67.176-16.206 115-63.743 115-19.447 0-42.135-7.9701-49.698-17.079-16.206-20.494-25.93-97.918-14.045-115 4.3216-6.8315 45.377-27.326 89.673-46.682l81.03-34.157-3.2412-89.948c-2.1608-87.67-1.0804-92.225 41.055-163.96 23.769-40.989 54.02-109.3 66.985-153.71 12.965-43.266 34.573-95.64 48.618-116.13 45.377-62.622 78.869-189 89.673-335.88 5.402-74.008 12.965-138.91 16.206-145.74 11.884-20.494 76.708-12.524 97.236 11.386 28.09 31.88 34.573 158.26 11.884 247.07-17.286 72.869-82.11 220.88-112.36 257.32-8.6431 10.247-14.045 22.772-10.804 26.187 8.6431 7.9701 86.432-101.33 114.52-161.68 36.734-76.285 59.422-231.13 46.457-308.55-6.4823-35.296-11.884-66.037-11.884-68.315 0-1.1386 15.126-10.247 32.412-20.494 18.367-10.247 32.412-22.772 32.412-29.603 0-7.97-6.4823-7.97-17.286 2.2772-22.688 20.494-123.17 19.356-159.9 0-15.126-9.1086-31.332-28.464-34.573-43.266-4.3216-18.217-17.286-29.603-37.814-34.157-62.663-12.524-77.788-74.008-61.583-245.93 10.804-104.75 8.6432-140.04-7.5628-241.38-10.804-66.037-22.688-119.55-27.01-119.55s-14.045 6.8315-20.528 15.94c-9.7235 12.524-7.5627 35.296 9.7236 99.056 23.769 93.363 28.09 152.57 9.7236 165.09-7.5628 4.5543-30.251-14.802-55.1-45.543-23.769-29.603-61.583-62.622-83.191-74.008-98.316-53.513-286.31-61.483-345.73-14.802-34.573 26.187-65.904 33.019-65.904 13.663 0-5.6929 9.7236-27.326 21.608-47.82 24.849-43.266 28.09-102.47 6.4824-121.83-11.884-10.247-15.126-2.2772-19.447 44.405-3.2412 36.434-17.286 77.423-39.975 115-18.367 31.88-33.492 60.345-33.492 64.899 0 4.5543 10.804 13.663 23.769 19.356 34.573 15.94 55.1 64.899 42.135 99.056-5.402 14.802-52.939 66.037-105.88 111.58-199.87 177.62-239.85 218.61-259.3 272.12-21.608 59.206-24.849 155.99-5.402 189 9.7236 19.356 11.884 7.97 12.965-61.483 0-64.899 5.402-93.363 23.769-127.52 39.975-75.146 56.181-56.929 63.743 75.146 3.2412 62.622 15.126 140.04 25.93 170.79 24.849 75.146 86.432 202.67 104.8 219.75 11.884 9.1086 14.045 30.742 10.804 72.869-3.2412 52.374 1.0804 70.592 34.573 137.77 21.608 43.266 43.216 96.779 47.537 119.55l8.6432 42.127 46.457-62.622c51.859-69.453 88.592-95.64 119.92-85.393 10.804 3.4157 58.341 34.157 104.8 67.176 46.457 33.019 100.48 69.453 119.92 79.7 36.733 19.356 46.457 40.989 18.367 40.989-8.6432 0-55.1-20.494-101.56-45.543-93.994-51.236-165.3-59.206-211.76-27.326-42.135 28.464-32.412 38.712 36.733 38.712 50.779 0 90.753 10.247 180.43 47.82 105.88 44.404 137.21 67.176 118.84 85.393-3.2412 4.5543-18.367-4.5542-32.412-18.217-37.814-37.573-177.18-80.839-258.21-80.839-62.663 1.1386-70.226 4.5543-112.36 44.404-25.93 23.91-46.457 51.236-46.457 60.345 0 7.97 29.171 43.266 65.904 76.285 61.583 58.068 65.904 63.76 60.502 100.19-7.5628 47.82-24.849 71.73-51.859 71.73-50.779 0-71.306-83.116-31.331-125.24 21.608-22.772 20.528-45.543 0-45.543-18.367 0-43.216 66.037-43.216 113.86 0 81.978 43.216 144.6 92.914 132.07 32.412-9.1086 68.065-83.116 69.145-140.04 0-35.296 2.1608-37.573 36.733-37.573 20.528 0 44.296-2.2772 52.939-6.8315 11.884-4.5543 15.126 6.8315 15.126 55.79 0 66.038 18.367 104.75 59.422 129.8 34.573 19.356 85.351 18.217 115.6-3.4157z" style="stroke-width:1.1091"/>
	</g>
	<g id="kaspersky" transform="matrix(.038378 0 0 -.063701 106.88 331.26)">
		<path id="path11" d="m7685.3 1247.3c-24-37-49-143-44-189 3-23 19-73 37-113 38-87 39-137 6-217-23-56-23-60-7-72 29-23 40-16 63 44 36 89 32 186-10 282-38 85-38 134 0 214 21 46 21 47 3 61-26 19-29 19-48-10z"/>
		<path id="path13" d="m8653.3 1247.3c-24-37-44-112-44-167 0-33 11-75 32-126 39-94 41-154 8-231-23-52-23-54-5-67 28-21 38-13 65 52 36 89 34 168-9 263-29 65-33 83-28 131 2 31 14 75 25 97 20 39 20 41 3 57-23 21-28 20-47-9z"/>
		<path id="path15" d="m9611.3 1130.3c-24-12-37-47-29-78 4-16 0-20-19-20-15 0-24-6-24-15 0-12 16-15 84-15h85l1 33c0 17 0 41 1 51 0 39-57 65-99 44z"/>
		<path id="path17" d="m7936.3 1114.3c-16-17-14-21 23-57l40-39-36-37c-38-39-40-63-8-76 12-4 33 11 72 51l55 57-59 60c-32 32-61 59-65 59-3 0-13-8-22-18z"/>
		<path id="path19" d="m7421.3 1056.3c-22-38-60-106-85-150l-45-82 25-11c13-6 26-11 28-11s27 43 56 95c28 52 55 95 59 95 5 0 32-43 61-95s57-95 63-95 18 6 27 13c17 12 5 37-138 291-9 17-15 11-51-50z"/>
		<path id="path21" d="m8426.3 1104.3c-16-17-14-20 24-56l41-38-36-37c-20-20-36-40-36-44 0-7 40-63 96-136 8-11 15-11 32-2 29 16 28 24-13 78-19 25-35 51-35 57 0 5 16 26 34 46l35 35-54 58c-30 31-59 57-63 57-5 0-16-8-25-18z"/>
		<path id="path23" d="m7147.3 1029.3-78-82 160-160 20 20 20 21-120 118 62 63c61 61 61 63 43 83-10 11-21 20-24 19s-41-38-83-82z"/>
		<path id="path25" d="m8954.3 1032.3-80-80 85-85c84-85 85-85 104-65 20 20 20 20-44 85-38 39-61 69-55 73s34 33 64 64c46 49 52 59 41 72-7 9-18 16-24 16s-47-36-91-80z"/>
		<path id="path27" d="m9126.3 1094.3c-15-17-11-23 69-102l86-85 78 85c64 69 76 88 69 102-15 28-29 22-94-42l-61-60-59 60c-33 33-62 60-66 60-3 0-13-8-22-18z"/>
		<path id="path29" d="m6989.3 948.26v-153l28 1 27 1 3 153 3 152h-61z"/>
		<path id="path31" d="m7829.3 952.26v-150h60v300h-60z"/>
		<path id="path33" d="m8319.3 952.26v-150h60v300h-60z"/>
		<path id="path35" d="m8799.3 952.26v-150h60v300h-60z"/>
		<path id="path37" d="m9581.3 925.26c-2-50 9-70 45-84 47-17 107 43 82 82-5 8-6 22-3 32 5 15-2 17-58 17h-64z"/>
	</g>
	<g id="debian" transform="matrix(.18117 0 0 .16331 -15.979 115.05)">
		<path id="path1" d="m343.17 408.77c-18.305 10.734-59.093 47.528-78.128 71.01-8.4433 10.152-16.588 19.209-18.59 19.835-8.0059 2.5054-47.021 79.8-55.831 110.09-5.125 18.126-12.601 37.489-16.095 43.587-3.1444 5.4898-10.009 30.669-14.37 56.067-7.783 43.99-7.7251 48.48 0.11574 123.13 9.4193 89.678 20.057 131.91 45.977 181.88 27.58 53.955 47.047 77.905 90.364 112.41 58.259 46.86 114.36 65.354 165.66 53.81 14.112-3.4142 21.718-5.7941 17.162-5.8703-30.19-0.068-47.969-4.0164-57.045-11.691-5.9167-5.1582-12.882-8.4862-16.084-7.4842-6.0046 1.8788-33.96-8.4002-31.461-12.185 1.0991-1.3451-10.582-10.207-25.668-20.006-15.436-9.1893-28.07-19.255-28.274-21.194-0.25473-2.4237-6.375-9.5212-13.696-16.242-7.2704-6.2363-17.757-19.478-23.331-29.249-26.365-46.324-32.15-62.039-23.031-57.881 2.5546 0.70267 0.79362-4.2537-3.6748-11.367-4.5192-7.598-12.641-14.069-18.5-14.739-19.33-2.9638-33.279-49.168-42.704-142.85-6.0151-61.203-5.9272-68.24 1.28-98.033 4.3751-17.39 8.1463-36.594 7.9359-42.537 0.11065-22.565 46.281-102.6 66.833-115.54 4.6508-2.957 8.9453-9.3077 9.6371-14.531 0.98329-10.321 23.023-32.737 36.632-36.998 4.8037-1.503 7.4528-3.8341 6.0993-4.9126-1.8049-1.4378 6.5874-12.075 18.582-23.839 20.591-20.462 22.942-21.698 71.53-35.4 44.988-12.574 52.745-13.5 76.485-7.9103 46.579 10.46 95.73 61.17 112.7 116.44 8.71 27.816 18.733 119.31 15.209 136.93-1.2888 7.4128-5.1759 17.641-8.4221 22.162-3.2461 4.5207-5.2846 12.668-4.7756 17.516 1.273 12.118-23.591 50.94-49.378 77.033-31.036 31.24-72.812 46.815-102.21 38.492-22.591-6.4498-49.163-27.175-62.616-49-13.456-21.825-22.136-61.167-19.681-88.971 6.0381-68.479 65.963-127.78 118.3-117.62l20.684 4.0423-12.831-8.0016c-37.59-23.286-85.916-3.1578-114.36 48.8-29.946 53.429-36.944 116.7-18.693 160.56 9.853 22.952 35.435 49.994 61.844 65.264 54.024 30.16 127.96-1.9873 179.55-77.708 10.037-14.656 17.971-29.655 17.615-33.05 0.0424-3.5187 3.6325-12.652 8.2256-20.098 9.8846-16.11 16.851-40.32 18.563-63.385 0.2844-9.1011 2.9128-23.442 4.9511-31.589 6.1152-24.444 7.1424-38.283 2.3386-36.782-2.4019 0.75152-4.7668-6.0186-5.6833-14.744-4.3277-41.204-9.7265-65.047-16.895-70.316-10.429-8.7531-10.748-19.668-0.74082-22.799 4.8037-1.5027 9.6141 0.99718 11.426 6.4382 5.3848 15.839 9.8759 7.4241 6.1872-11.949-4.8528-26.519-41.882-72.01-73.153-90.262-13.631-7.7511-27.459-13.438-31.061-12.311-3.6028 1.1273-10.065-1.3565-15.08-5.7958-6.3679-5.5176-11.375-5.9537-19.978-1.259-6.2522 3.4583-13.508 5.228-16.114 4.0407-15.836-9.0637-45.524-8.2864-82.053 2.1419-22.868 6.6545-41.587 9.5076-44.747 6.9912-5.4146-4.3138-6.6155-3.938-26.922 7.4225z" style="stroke-width:3.0259"/>
	</g>
	<g id="windows" transform="matrix(.47998 0 0 .49508 -17.162 .55261)">
		<path id="path1_" d="m203.51 67.577c-0.92769 0-0.66561 0.41162 0.62513 1.2338 1.5327 1.0049 1.6939 1.279 0.64519 1.3703-0.80667 0-1.4511 0.54848-1.4511 1.2794 0 0.73084-0.64593 1.5526-1.372 1.8267-1.21 0.54812-1.2103 0.82184-0.24223 1.4613 0.96803 0.63952 0.96803 1.1878 0 3.3803-1.21 2.832-1.4513 3.8378-2.016 8.6796-0.24203 1.9185-1.1298 4.9326-2.0172 6.6683-0.88734 1.8271-1.613 4.8422-1.613 6.7607s-0.48434 4.0192-1.1297 4.5673c-0.6454 0.63949-1.2104 1.8275-1.1297 2.6497 0 0.82219-0.64471 3.8366-1.3707 6.5773-0.72605 2.7406-1.695 6.8521-2.179 9.136-0.48402 2.2839-1.1284 4.4755-1.4511 5.0236-0.32269 0.4568-1.2105 4.2024-2.0171 8.222-0.80671 4.0196-1.5329 7.6738-1.7749 8.2221-0.56471 1.6443-2.2582 4.7505-3.4682 6.4863-1.0487 1.4617-1.0497 1.5531 0.24103 1.005 0.72606-0.27406 1.372-0.18238 1.372 0.27434 0 0.54811-0.48379 0.91371-0.9678 1.005-0.56467 0 0.16126 0.54797 1.5326 1.0961 2.1781 0.91357 0.24164 1.0969-11.698 1.1883-12.342 0-15.569 0.36546-23.717 2.3753-9.7611 2.4667-21.62 7.0341-21.62 8.313 0 1.9186 3.1464 1.3702 12.343-2.0099 10.164-3.7455 18.958-5.8465 29.283-6.9427 10.406-1.1876 24.523 3.197 36.785 11.419 2.9041 2.0098 5.8893 3.6546 6.5347 3.6546 1.7747 0 1.9358-0.36574 14.601-50.246 3.7915-14.8 7.583-29.599 8.4704-32.888l1.6945-5.9377-2.2594-2.101c-3.7915-3.5628-18.392-11.146-24.12-12.516-3.4688-0.8222-5.587-1.2338-6.5147-1.2338zm43.162 24.694c-0.90686-0.19427-1.9799 3.1929-4.8638 14.178-2.0974 7.9479-7.0185 27.406-11.133 43.211-6.615 26.128-8.7929 33.253-8.7929 29.142 0-0.82217 0.5647-3.4711 1.21-5.9376 1.6941-6.3949 1.3715-8.2228-0.32261-2.1934-3.0654 10.415-3.066 10.415 1.0482 13.703 8.793 6.7602 23.799 12.881 36.383 14.708 8.3897 1.2789 19.522 0.36532 30.654-2.3754 8.7931-2.2839 22.023-7.0337 22.991-8.404 0.32266-0.45672 2.823-9.7752 5.5658-20.829 2.8234-11.054 5.728-22.565 6.5347-25.58 1.3714-5.2073 2.6626-10.049 6.5348-25.397 0.88733-3.5628 2.1774-8.6787 2.9034-11.328 0.64541-2.6493 1.0491-5.3898 0.80713-6.212-0.80673-2.2839-2.9048-1.5533-3.4695 1.096-0.24196 1.4617-2.3395 9.319-4.5176 17.632-2.1781 8.3133-4.7591 18.18-5.5658 21.925-2.0168 8.5874-2.3389 9.8659-5.8884 23.752-1.6134 6.3035-3.5506 13.795-4.2765 16.718-1.2907 5.116-1.5323 5.4812-5.5658 7.5824-2.3395 1.1876-5.001 2.192-5.8884 2.192-0.8067 0-1.6951 0.36616-1.8564 0.82302-0.40336 1.2789-17.183 5.5717-24.846 6.3939-7.1797 0.73091-17.747 1e-3 -23.636-1.6432-7.583-2.1012-20.57-9.227-16.779-9.227 0.48404 0 0.88744 0.36489 0.88744 0.82161 0 0.45671 0.88692 1.0057 1.9356 1.1883 1.452 0.36546 2.2591-0.18392 3.2272-2.1023 0.72607-1.3703 1.2904-3.105 1.2904-4.0186 0-0.82217 0.56437-2.7417 1.2904-4.2034 0.64537-1.553 1.5334-4.7498 1.9368-7.0337 1.0487-6.8516 3.5487-16.078 4.4361-16.809 0.40335-0.36531 0.80678-1.3707 0.88744-2.2843 0.16127-2.832 4.5981-22.656 5.1628-23.112 0.3227-0.27407 1.2911-3.654 2.0172-7.5823 0.8067-3.8369 1.6945-7.035 2.0172-7.035 0.24203 0 0.32209-1.7355 0.16077-3.8367-0.32266-3.1061-0.16126-3.6538 0.88746-3.197 0.72604 0.27407 1.5329 0.18245 1.7749-0.27431 0.24201-0.36545-0.0808-1.0056-0.56486-1.1883-0.64535-0.27408-0.48438-0.54733 0.40297-0.54733 2.4201-0.0914 0.96819-1.5532-6.6955-6.4864-3.9528-2.5579-7.4212-5.0255-7.6632-5.5736-0.21177-0.37682-0.41229-0.61222-0.62157-0.65705zm-103.72 10.324c-0.12523-0.0316-0.24652 0.13113-0.36753 0.47373-0.3227 0.73084-1.7745 6.6694-3.3879 13.247-1.5327 6.4862-3.5495 14.526-4.5176 17.814-1.1294 3.9283-1.4524 5.9379-0.80708 6.212 1.1294 0.45677 1.2097 2.9226 0.0803 2.9226-0.40337 0-0.80594-0.45644-0.80594-1.096 0-1.8271-0.88814-0.0913-1.6142 3.106-0.40336 1.6444-1.452 6.2124-2.4201 10.232-0.96803 3.9282-1.5324 7.4005-1.2904 7.6746 0.32266 0.27406 0.48445-0.18279 0.48445-1.005 0-0.91357 0.40344-1.5536 0.88748-1.5536 0.40333 0 0.56461 0.36588 0.32261 0.914-0.24204 0.45685-0.0811 0.91273 0.40296 0.91273 0.56467 0 0.72561-0.73078 0.40292-2.1011-0.72602-2.4667-0.72602-2.4661 0-4.9326 0.32269-1.0964 1.0495-1.7364 1.6142-1.5536 0.64534 0.36532 1.1284-1.0043 1.4511-4.2931 0.32268-2.5579 0.88794-5.2071 1.372-5.8466 0.40332-0.54812 1.0484-3.6546 1.2904-6.7606 0.32266-3.0147 0.88789-5.5723 1.3719-5.5723 0.40336 0 0.56494-1.0048 0.24226-2.101-0.24203-1.279 0.0801-2.9241 0.72556-3.929 0.64535-0.91356 1.21-3.2885 1.21-5.207 0-2.4666 0.32238-3.3803 1.2904-3.3803 0.88738 0 1.1301-0.54769 0.72676-1.8267-0.72606-2.5579 0.48337-4.5686 1.3708-2.1933 0.48404 1.3703 0.56514 1.1876 0.48448-1.005-0.0806-1.553 0-3.1966 0.24226-3.6534 0.24199-0.54814 0.16044-2.193-0.0815-3.6546-0.25208-1.1991-0.4719-1.7914-0.68065-1.8441zm39.16 69.081c-1.4521 0.0913-1.5327 0.18322-0.32264 0.54867 0.96806 0.27406 1.3717 1.0047 1.1297 2.1009-0.24205 1.1876 0 1.5538 0.72674 1.1883 0.72601-0.27405 0.16126 1.3697-1.21 3.9276-1.5327 2.8321-3.0659 7.7647-4.1147 13.155-0.96803 4.7505-2.0168 8.8619-2.4201 9.136-0.40335 0.27406-0.88769 1.5531-1.1297 2.7407-1.6941 10.049-2.9041 15.074-3.6302 15.348-0.48402 0.1828-0.88745 2.1009-0.88745 4.202 0 2.1012-0.32221 4.2027-0.72555 4.7508-0.88738 1.0048-3.8719 12.241-4.598 17.174-0.242 2.0098-0.96884 4.477-1.6142 5.6648-0.96803 1.6444-0.96742 2.1009-0.16077 2.4662 0.80672 0.36546 0.80637 0.54741 0.0803 0.54741-0.56468 0.0913-1.0482 0.73176-1.0482 1.4627 0 0.73078-0.64593 1.3699-1.3719 1.4613-1.1294 0-1.2103 0.18322-0.24225 0.54868 3.5494 1.5531 11.375 6.0288 11.052 6.303-0.16143 0.27406-2.2588-0.36518-4.5176-1.4614-14.359-6.3949-34.124-5.5735-56.147 2.283-7.6637 2.7407-7.7445 2.7416-5.4051 0.4577 1.0487-1.005 3.0656-2.0104 4.5176-2.2844 2.8235-0.63938 3.7112-3.1969 1.1297-3.1969-0.80669 0-1.4523-0.45728-1.4523-0.91414 0-0.54811 0.72681-0.91399 1.6142-0.91399 2.0167 0 2.9037-2.2839 1.613-4.1109-0.72603-0.91357-0.72572-1.3704-0.0803-1.3704 0.48399 0 0.88745-0.82203 0.88745-1.7356 0-1.005 0.40256-2.1014 0.80589-2.3754 0.48404-0.36532 0.64617-1.0046 0.40415-1.4613-0.32268-0.45671-0.16143-0.82175 0.32264-0.82175 0.40329 0 1.048-1.827 1.3707-4.111 0.24201-2.2839 0.88705-4.1109 1.2904-4.1109 0.48402 0 0.56495-1.4622 0.24226-3.6547-0.40334-2.9234-0.32281-3.6547 0.64518-3.6547 0.80674 0 1.4522-1.6438 2.0975-5.2979 1.7747-10.323 2.2595-12.515 3.1468-14.525 0.56474-1.0962 0.72567-2.65 0.40298-3.5636-0.32267-1.0962-0.2424-1.3708 0.40296-0.914 0.88737 0.63938 1.2104-0.27406 2.0172-5.8468 0.48401-3.3801 0.88791-4.9332 1.3719-5.4813 1.0487-1.0962 2.4196-5.6641 1.9356-6.4863-0.24199-0.54811-0.0801-1.4613 0.48449-2.192 0.64537-0.91357 0.64537-1.3699 0-1.8267-0.64537-0.45672-0.40382-1.0968 0.72555-1.919 0.88738-0.73078 1.4517-2.0101 1.2904-3.0151-0.16126-1.1875 0.48465-2.1916 2.2594-3.2878l2.5808-1.4627-2.5808 0.54854c-1.452 0.36546-4.6788 1.4621-7.2603 2.6497-3.3881 1.4617-4.7594 2.5576-5.1628 4.202-0.32266 1.279-1.5327 5.9386-2.7427 10.506-1.1294 4.4765-4.4368 17.265-7.2603 28.319s-6.6152 25.854-8.39 32.797c-3.6302 13.795-3.9529 16.536-2.0975 17.267 0.64539 0.36531 4.679-0.82302 9.0352-2.5586 18.796-7.3084 35.656-9.5012 47.434-6.1211 7.6636 2.1926 14.117 5.2995 21.619 10.415 6.857 4.6591 7.0182 4.4762 10.326-8.4962 6.0503-24.027 16.376-64.04 18.151-70.527 1.0487-3.9284 1.7747-7.491 1.5326-7.9477-1.8554-3.2888-23.879-14.8-28.073-14.526zm39.197 21.172c-0.19159 0.0463-0.23281 0.3882-0.23281 1.0277 0 0.82217-0.64527 3.8376-1.5326 6.6696-1.2908 4.6591-3.4688 12.972-9.6804 37.73-0.80671 3.2888-2.258 8.9519-3.226 12.515-0.88736 3.6543-2.421 9.6841-3.3891 13.247-0.88735 3.6543-2.1777 8.3133-2.8231 10.323-0.64535 2.1012-1.1297 4.3848-1.1297 5.207 0 0.73092-0.80686 1.7359-1.7749 2.0101-1.7747 0.54811-1.6128 0.73147 1.372 2.9239 10.648 7.5825 22.346 12.424 35.656 14.708 7.9863 1.3704 10.407 1.37 17.828 0.45643 10.971-1.4617 17.989-3.1069 27.589-6.6698 8.8737-3.2887 9.4379-3.654 10.406-7.5824 0.40332-1.553 2.7427-10.689 5.1628-20.19 2.5008-9.5923 5.405-21.102 6.6151-25.579 10.245-39.1 10.406-39.831 9.1156-40.745-0.56467-0.45685-1.21-0.45643-1.5326-0.0913-0.40338 0.54825-6.5334 24.117-10.809 41.748-2.9848 12.059-11.698 45.496-11.859 45.679-0.16143 0-4.1947 1.8266-9.1156 3.9278-26.056 11.054-49.45 10.415-69.053-2.1011-2.6621-1.7358-5.244-3.197-5.6473-3.197-0.40333 0-0.72554-0.45714-0.72554-0.914 0-0.54811-0.56471-0.91399-1.2101-0.91399-0.64537 0-1.21-0.45587-1.21-0.91273 0-0.54797 0.32218-0.91385 0.72556-0.91385 0.484 0 1.0496 0.36588 1.2916 0.91385 0.24202 0.45686 1.2093 0.91273 2.016 0.91273 0.80668 0 1.6132 0.54924 1.8553 1.0974 0.40332 1.6444 2.985-0.82315 2.985-2.833 0-0.82232 0.32337-1.9187 0.72674-2.3754 0.32269-0.54812 1.129-3.0146 1.613-5.4813 0.56471-2.5581 1.2912-5.3892 1.6946-6.394 0.72605-2.1012 2.8231-9.7755 2.8231-10.506 0-0.27406 0.24214-0.91357 0.56484-1.3704 0.64533-1.1876 3.0653-14.343 3.0653-16.809 0-0.91357 0.56471-1.919 1.2101-2.2844 0.8067-0.36532 1.2101-1.8263 1.2101-4.6583s0.48392-4.7511 1.5326-6.03c0.96803-1.1876 1.6945-3.8364 2.0172-7.6733 0.64535-7.217 1.1284-8.6797 2.6612-8.6797 0.88737 0 1.0494-0.63853 0.72674-2.283-0.3227-1.4617 0-3.1069 0.8071-4.5686 0.8067-1.3704 0.96766-2.283 0.40296-2.283-0.48402 0-1.6134-0.7312-2.4201-1.6446-0.88735-0.82231-2.0977-2.0097-2.6623-2.4664-0.56471-0.54811-1.6938-1.4625-2.5005-2.1933-0.60506-0.54826-0.94754-0.79915-1.1392-0.75338z" style="stroke-width:.085847"/>
	</g>
</svg>
