<?xml version="1.0" standalone="no"?>
<!DOCTYPE svg PUBLIC "-//W3C//DTD SVG 20010904//EN"
 "http://www.w3.org/TR/2001/REC-SVG-20010904/DTD/svg10.dtd">
<svg version="1.0" xmlns="http://www.w3.org/2000/svg"
 width="276.000000pt" height="183.000000pt" viewBox="0 0 276.000000 183.000000"
 preserveAspectRatio="xMidYMid meet">
<metadata>
Created by potrace 1.15, written by Peter Selinger 2001-2017
</metadata>
<g transform="translate(0.000000,183.000000) scale(0.100000,-0.100000)"
fill="#000000" stroke="none">
<path d="M1833 1768 c-5 -7 -17 -32 -28 -55 -10 -24 -22 -43 -26 -43 -12 0
-20 35 -14 56 4 10 -1 6 -10 -9 -15 -26 -15 -29 4 -53 19 -24 19 -28 5 -56
-13 -25 -18 -27 -30 -17 -9 7 -13 20 -11 28 3 9 8 25 11 36 3 11 -2 2 -13 -19
-16 -34 -17 -41 -5 -53 19 -19 18 -29 -12 -93 -21 -47 -27 -52 -35 -37 -6 9
-8 27 -4 40 3 13 -3 7 -14 -13 -20 -35 -29 -69 -11 -40 8 13 11 12 23 -5 13
-17 9 -47 -10 -74 -8 -12 -33 25 -28 43 3 12 -3 5 -14 -14 -23 -41 -28 -63 -7
-34 14 18 15 18 21 -7 5 -18 -1 -41 -17 -74 -21 -40 -26 -44 -37 -32 -10 13
-9 22 4 47 9 18 14 34 12 36 -2 3 -37 -68 -76 -157 -39 -89 -70 -164 -68 -166
3 -2 20 33 40 78 31 74 36 80 46 61 8 -15 8 -27 0 -46 -7 -15 -9 -39 -4 -63 5
-21 7 -42 5 -48 -1 -5 -4 -19 -7 -30 -4 -20 -4 -20 11 -1 15 19 16 19 18 -10
1 -16 1 -39 0 -52 0 -12 3 -20 8 -17 15 9 50 -69 39 -86 -13 -21 -11 -32 6
-25 20 7 37 -27 29 -60 -6 -22 -4 -26 9 -21 9 3 18 -1 21 -9 3 -9 1 -12 -4 -9
-6 3 -10 1 -10 -5 0 -6 -4 -8 -10 -5 -15 9 -12 -19 5 -41 14 -18 14 -18 15 9
0 18 4 26 11 21 6 -3 8 -16 5 -28 -3 -11 -1 -27 3 -35 7 -11 12 -9 21 9 l13
24 14 -29 c14 -25 14 -31 -1 -57 -10 -15 -13 -28 -7 -28 5 0 14 8 20 18 17 30
38 -42 58 -201 15 -127 20 -147 35 -147 11 0 18 -8 18 -20 0 -11 4 -20 8 -20
4 0 21 -29 37 -65 20 -46 34 -65 47 -65 22 0 22 4 4 38 -38 70 -112 261 -109
282 0 3 4 16 8 29 5 16 4 21 -4 17 -7 -5 -11 1 -11 14 0 12 4 19 9 16 11 -7
24 55 14 63 -5 3 -8 13 -8 21 0 9 -8 14 -20 12 -26 -3 -52 39 -56 93 l-4 40
39 1 c62 2 69 19 61 148 -5 84 -12 120 -31 163 -16 34 -23 62 -18 75 6 21 7
21 19 -3 l13 -24 11 28 c9 24 15 27 34 20 12 -4 53 -8 91 -7 95 1 96 3 96 182
l0 143 -65 110 c-36 60 -65 113 -65 118 0 5 -7 14 -14 21 -12 9 -30 8 -86 -3
-83 -17 -82 -21 -25 98 19 38 30 74 26 78 -4 4 -12 2 -18 -5z m-83 -355 c0
-54 -4 -92 -8 -85 -6 9 -12 5 -21 -15 -29 -62 -31 -84 -10 -124 16 -32 17 -39
5 -39 -27 0 -116 23 -116 31 0 6 12 35 70 164 10 22 30 68 45 103 15 34 29 62
31 62 2 0 4 -44 4 -97z"/>
<path d="M2190 1133 c-25 -8 -51 -20 -58 -26 -19 -15 -110 -210 -105 -223 2
-6 30 15 62 46 37 38 72 62 98 70 l41 13 4 66 c3 36 5 67 4 68 -1 0 -21 -6
-46 -14z"/>
<path d="M2265 1134 c-11 -12 -15 -31 -13 -67 3 -48 5 -52 33 -57 39 -9 85
-33 125 -67 l33 -27 -17 32 c-31 61 -126 202 -135 202 -5 0 -17 -7 -26 -16z"/>
<path d="M880 999 c-19 -6 -47 -15 -62 -21 l-28 -10 32 -22 c52 -34 65 -66 48
-115 -13 -40 -46 -78 -65 -76 -17 2 -75 41 -69 47 3 3 -5 23 -17 44 -27 50
-29 51 -38 36 -11 -18 -41 -4 -41 18 0 21 -15 33 -42 35 -19 2 -26 -39 -9 -50
9 -5 4 -34 -14 -77 -4 -10 -13 -18 -21 -18 -8 0 -14 -3 -14 -7 0 -5 -12 -13
-26 -20 -21 -10 -29 -10 -41 2 -18 19 -74 20 -71 3 2 -8 -10 -14 -32 -16 -61
-5 -163 -67 -189 -115 -9 -17 -32 -47 -52 -67 -20 -20 -40 -48 -44 -61 -4 -13
-11 -26 -14 -29 -4 -3 -21 -28 -39 -56 l-32 -51 0 -186 0 -187 40 0 c40 0 54
12 61 55 4 19 47 47 146 95 41 20 86 68 116 125 9 17 45 60 80 97 36 37 75 83
87 103 22 35 40 39 40 7 0 -9 9 -39 19 -67 21 -56 46 -67 46 -21 1 20 7 31 21
36 10 4 25 19 33 33 26 48 90 62 76 16 -4 -11 -1 -26 5 -34 9 -11 9 -15 1 -15
-6 0 -11 -5 -11 -10 0 -39 83 65 95 120 6 25 10 28 68 33 80 7 137 24 137 41
0 8 23 18 58 25 31 7 65 15 74 17 12 4 15 0 11 -14 -2 -11 1 -23 7 -27 9 -5
10 -2 6 12 -4 12 -1 25 6 30 13 11 68 26 68 20 0 -2 -61 -141 -136 -308 -75
-167 -142 -319 -150 -336 l-14 -33 100 0 c98 0 100 0 114 28 8 15 15 23 16 19
0 -5 -5 -17 -10 -28 -10 -18 -6 -19 153 -19 l163 0 28 61 c15 33 25 67 22 75
-8 20 -48 34 -64 21 -7 -5 -16 -6 -20 -2 -4 4 -1 10 6 12 6 3 12 9 12 14 0 6
-5 7 -12 3 -7 -5 -9 -2 -5 9 3 9 1 17 -5 19 -5 2 -2 10 8 18 10 8 15 10 12 5
-4 -6 -3 -17 1 -24 6 -9 11 -4 15 15 4 16 11 31 16 34 4 3 10 21 13 40 3 19 8
44 13 54 6 17 9 17 19 3 9 -13 18 -14 53 -4 39 10 48 22 43 51 -1 5 5 4 13 -4
9 -7 1 21 -20 66 -19 43 -36 87 -37 96 -1 10 -4 18 -8 18 -3 0 -11 12 -17 26
-7 14 -8 23 -3 19 6 -3 9 9 8 29 -1 19 -5 33 -8 31 -3 -2 -12 5 -20 17 -8 11
-21 28 -30 37 -8 9 -30 50 -48 91 -17 41 -42 95 -54 118 l-22 44 -45 -96 c-25
-53 -48 -96 -52 -96 -5 0 -8 15 -8 32 0 41 -67 178 -86 178 -8 0 -66 -11 -130
-25 -64 -14 -124 -25 -134 -25 -11 0 -20 10 -24 25 -7 27 -19 29 -76 14z"/>
<path d="M2165 963 c-40 -20 -103 -81 -121 -116 -14 -26 -13 -31 11 -74 l27
-45 18 28 c20 30 95 84 117 84 10 0 13 18 13 70 0 78 -7 84 -65 53z"/>
<path d="M2250 916 l0 -67 44 -19 c25 -10 63 -38 86 -61 22 -23 42 -40 43 -38
15 20 47 83 47 93 0 19 -88 114 -122 130 -16 9 -45 18 -64 22 l-34 6 0 -66z"/>
<path d="M1929 725 c-62 -110 -76 -145 -60 -145 7 0 11 -24 11 -59 0 -43 4
-60 15 -64 19 -8 21 -3 29 68 8 68 42 209 57 238 6 10 9 28 7 40 -2 16 -17 -4
-59 -78z"/>
<path d="M2190 799 c-37 -15 -90 -70 -90 -93 0 -12 11 -38 23 -59 21 -35 25
-37 37 -22 7 9 26 23 42 31 27 14 28 18 28 84 0 74 -1 74 -40 59z"/>
<path d="M2251 740 c1 -57 5 -73 18 -77 9 -3 30 -19 47 -35 l31 -29 28 47 c26
44 27 49 12 73 -21 35 -76 78 -109 86 l-28 7 1 -72z"/>
<path d="M1999 763 c-31 -78 -50 -156 -56 -229 l-6 -81 27 -7 c38 -9 42 -4 49
56 3 29 16 87 29 129 l25 75 -21 42 c-23 49 -33 52 -47 15z"/>
<path d="M2461 756 c-27 -42 -26 -50 5 -147 14 -44 29 -110 32 -146 7 -65 8
-67 41 -75 58 -16 65 -7 58 75 -4 39 -16 105 -27 146 -22 78 -68 181 -81 181
-4 0 -17 -15 -28 -34z"/>
<path d="M2563 710 c3 -14 15 -59 26 -100 11 -41 23 -106 27 -145 4 -38 11
-76 17 -82 5 -7 25 -13 44 -13 l35 0 -4 68 c-4 60 -10 76 -55 147 -102 162
-95 152 -90 125z"/>
<path d="M2052 618 c-24 -76 -37 -164 -25 -171 24 -13 64 -17 67 -5 36 142 37
146 14 193 -12 25 -25 45 -30 45 -4 0 -16 -28 -26 -62z"/>
<path d="M2402 648 c-5 -7 -17 -27 -26 -45 -14 -27 -14 -36 -2 -70 7 -21 16
-59 20 -85 6 -42 10 -48 31 -48 13 0 30 -3 39 -6 32 -12 15 144 -25 236 -15
33 -22 36 -37 18z"/>
<path d="M1872 405 c-24 -53 -15 -116 35 -226 25 -57 52 -112 58 -122 23 -33
25 -1 5 58 -22 65 -50 212 -50 266 0 24 -5 39 -16 43 -21 8 -19 9 -32 -19z"/>
<path d="M2018 425 c-8 -9 27 -196 46 -240 l12 -30 28 41 c27 41 27 42 12 95
-8 30 -16 68 -18 84 -2 23 -9 31 -28 33 -14 2 -30 8 -36 13 -6 5 -13 7 -16 4z"/>
<path d="M1936 368 c15 -141 55 -308 74 -308 5 0 18 17 30 37 21 36 22 40 7
83 -17 48 -35 141 -39 200 -3 33 -6 35 -40 38 l-37 3 5 -53z"/>
<path d="M2395 338 c-4 -18 -14 -56 -22 -83 -15 -50 -15 -52 11 -103 15 -29
31 -50 36 -47 15 9 49 110 59 176 12 73 4 89 -44 89 -30 0 -34 -4 -40 -32z"/>
<path d="M2507 353 c-4 -3 -7 -22 -7 -42 0 -43 -21 -127 -48 -198 -11 -29 -17
-53 -12 -53 5 0 11 6 13 13 4 9 6 9 6 0 1 -6 -3 -14 -9 -18 -6 -3 -5 -15 2
-30 14 -31 62 -35 77 -6 6 10 7 21 4 25 -3 3 -1 6 5 6 7 0 12 14 12 30 0 17 4
30 9 30 5 0 16 26 24 58 10 37 15 48 16 30 1 -15 -4 -39 -9 -54 -8 -19 -8 -29
0 -34 8 -5 7 -12 -4 -23 -9 -8 -16 -21 -16 -27 0 -6 -7 -18 -15 -26 -22 -22
-19 -34 8 -34 25 0 57 28 57 49 0 6 11 23 24 36 57 57 66 79 66 163 l0 80 -36
12 c-21 7 -40 8 -45 3 -5 -5 -13 -33 -18 -63 l-9 -55 -1 61 c-1 61 -2 62 -32
68 -40 8 -54 8 -62 -1z"/>
<path d="M2112 174 c-21 -31 -22 -40 -12 -65 14 -34 93 -109 115 -109 12 0 15
14 15 66 0 65 -1 67 -42 105 -24 21 -45 38 -48 38 -3 1 -15 -15 -28 -35z"/>
<path d="M2311 160 c-13 -11 -32 -20 -42 -20 -17 0 -19 -8 -19 -70 l0 -70 39
0 c49 0 101 40 101 76 0 24 -39 104 -50 104 -3 -1 -16 -10 -29 -20z"/>
</g>
</svg>
