<?xml version="1.0" encoding="UTF-8"?>
<svg id="svg276" width="738pt" height="657pt" version="1.0" viewBox="0 0 738 657" xmlns="http://www.w3.org/2000/svg">
	<g id="puerto_vga" transform="matrix(.046231 0 0 -.04456 -83.591 671.34)">
		<path id="path174-3-1" d="m11030 6087c-64.339 0-122.71-4.714-131.05-9.401-25.021-15.235-39.353-72.617-39.353-155.82v-80.868h-51.203c-38.128 0-58.38-7.044-75.061-24.622-21.447-23.438-22.655-51.572-22.655-666.8s1.207-643.33 22.655-666.77c16.681-17.578 36.953-24.622 73.889-24.622h49.999l3.612-98.423c5.958-139.45 15.484-147.67 167.99-147.67 159.66 0 164.41 4.711 164.41 168.77v121.83l44.074 22.289c25.021 11.718 57.215 38.681 71.513 60.946l27.407 39.81v522.68c0 505.08-1.22 523.84-23.859 561.34-14.298 23.437-44.076 48.033-71.481 58.58l-47.654 19.921v126.53c0 167.58-4.773 172.29-163.24 172.29zm7.16-49.375c10.724 0.134 21.454-6.878 48.859-20.941 45.276-22.265 47.623-26.951 47.623-79.684 0-50.391-3.532-57.422-44.043-83.203l-44.105-28.139-51.235 26.956c-50.042 25.781-51.202 28.157-51.202 83.235 0 53.906 2.353 58.558 45.245 79.652 27.405 14.648 38.135 21.977 48.858 22.124zm-249.77-220.19c8.796 0.504 18.927 0 30.545 0 28.595 0 129.87-12.851 225.18-29.257 96.511-15.234 184.65-33.994 198.95-41.026 13.106-7.031 34.567-30.473 46.482-50.394 22.638-35.156 23.827-63.294 23.827-547.28 0-380.86-3.579-516.78-15.493-537.87-34.554-66.796-120.34-93.757-382.47-120.71l-141.79-14.037-21.451 26.956c-21.447 25.781-22.591 59.752-22.591 644.51 0 613.18-2.77 665.58 58.807 669.1zm120.37-129.46c-37.978-0.294-64.826-6.46-76.741-18.179-10.724-9.375-21.456-29.297-25.031-43.36-3.574-14.062-4.772-241.42-3.58-503.91 3.574-458.2 4.789-479.26 26.235-495.66 29.788-21.093 86.982-21.115 210.9 1.152 141.79 25.781 164.44 37.493 190.65 92.571 20.255 43.359 22.623 83.228 22.623 425.41 0 492.18 3.609 482.8-201.33 524.99-56.595 11.718-105.74 17.288-143.72 16.995zm-21.957-49.408c27.87 0.825 86.419-7.711 181.14-26.167 137.02-28.125 127.49 7.027 123.92-466.41l-3.549-410.16-29.847-21.104c-30.979-23.438-264.48-64.436-285.92-51.546-14.298 8.203-16.688 958.58-3.581 971.47 2.681 2.344 8.55 3.637 17.839 3.912zm55.449-189.74c-16.414 0.012-29.724-16.977-29.721-37.936 0-20.959 13.308-37.947 29.721-37.935 16.4 0.011 29.69 16.993 29.688 37.935 0 20.943-13.287 37.925-29.688 37.936zm76.518-89.514c-16.401-0.01-29.692-16.993-29.689-37.936 0.01-20.93 13.298-37.893 29.689-37.903 16.404-0.012 29.71 16.957 29.721 37.903 0 20.959-13.307 37.948-29.721 37.936zm-79.908-46.713c-16.402-0.01-29.693-16.992-29.69-37.936 0-20.943 13.289-37.925 29.69-37.935 16.413-0.012 29.722 16.977 29.72 37.935 0 20.959-13.307 37.948-29.72 37.936zm78.292-84.024c-16.401-0.01-29.692-16.993-29.689-37.936 0-20.943 13.288-37.925 29.689-37.935 16.413-0.012 29.723 16.976 29.721 37.935 0 20.959-13.307 37.948-29.721 37.936zm-79.908-46.713c-16.402-0.01-29.693-16.992-29.69-37.936 0-20.943 13.289-37.925 29.69-37.935 16.413-0.012 29.722 16.977 29.72 37.935 0 20.959-13.307 37.948-29.72 37.936zm75.06-94.116c-16.391-0.011-29.677-16.973-29.688-37.903 0-20.943 13.287-37.925 29.688-37.936 16.414-0.012 29.724 16.977 29.721 37.936-0.01 20.946-13.317 37.915-29.721 37.903zm-79.908-46.713c-16.391-0.01-29.678-16.973-29.689-37.903 0-20.943 13.288-37.926 29.689-37.936 16.413-0.012 29.723 16.977 29.72 37.936-0.01 20.946-13.317 37.915-29.72 37.903zm78.293-105.82c-16.401-0.01-29.692-16.993-29.689-37.936 0.01-20.93 13.298-37.893 29.689-37.903 16.403-0.012 29.709 16.957 29.72 37.903 0 20.959-13.307 37.948-29.72 37.936zm-81.525-55.096c-16.401-0.01-29.692-16.993-29.689-37.936 0.01-20.93 13.298-37.892 29.689-37.902 16.403-0.012 29.709 16.956 29.721 37.902 0 20.959-13.307 37.948-29.721 37.936zm110.17-422.03c9.531 0 35.745-10.548 57.191-23.439 36.936-22.265 39.315-28.132 35.741-77.35-3.575-49.219-8.303-56.215-47.622-79.652l-45.31-24.623-44.074 24.623c-40.51 23.437-45.252 30.433-48.826 79.652-3.574 49.218-1.195 55.085 35.74 77.35 21.446 12.891 47.628 23.439 57.16 23.439z"/>
		<path id="path1088" transform="matrix(16.223 0 0 -16.831 1653 14583)" d="m581.38 542.97a1.6931 2.0914 0 0 0-1.6914 2.0918 1.6931 2.0914 0 0 0 1.6914 2.0918 1.6931 2.0914 0 0 0 1.6934-2.0918 1.6931 2.0914 0 0 0-1.6934-2.0918zm0.64062 8.2539a1.6931 2.0914 0 0 0-1.6934 2.0918 1.6931 2.0914 0 0 0 1.6934 2.0918 1.6931 2.0914 0 0 0 1.6914-2.0918 1.6931 2.0914 0 0 0-1.6914-2.0918zm-0.25976 8.4551a1.6931 2.0914 0 0 0-1.6914 2.0918 1.6931 2.0914 0 0 0 1.6914 2.0898 1.6931 2.0914 0 0 0 1.6934-2.0898 1.6931 2.0914 0 0 0-1.6934-2.0918zm-0.0703 8.5215a1.6931 2.0914 0 0 0-1.6914 2.0898 1.6931 2.0914 0 0 0 1.6914 2.0918 1.6931 2.0914 0 0 0 1.6934-2.0918 1.6931 2.0914 0 0 0-1.6934-2.0898zm-0.14062 8.7324a1.6931 2.0914 0 0 0-1.6934 2.0898 1.6931 2.0914 0 0 0 1.6934 2.0918 1.6931 2.0914 0 0 0 1.6934-2.0918 1.6931 2.0914 0 0 0-1.6934-2.0898z"/>
		<path id="path1140" transform="matrix(16.223 0 0 -16.831 1653 14583)" d="m569.02 531.31c-1.8998-0.13849-1.1711 2.1046-1.3757 3.3121-0.40247 15.546-0.0702 31.103 0.0534 46.652 0.166 2.7714-0.1797 5.6688 0.4899 8.3524 5.9655-0.18938 12.071-0.97644 17.646-3.2257 1.3499-0.58063 2.6209-1.4078 2.1024-3.0886-2e-3 -14.208 0.53887-28.426 0.0141-42.628-0.22195-2.4041-0.20039-5.9154-3.0623-6.7484-5.1703-1.3558-10.528-2.327-15.868-2.626zm3.4826 11.549c2.1849 0.23522 2.275 4.1638-0.0347 4.1604-2.1174-0.25804-2.0252-3.9688 0.0347-4.1604zm8.9255 0.25308c2.0361 0.40269 1.8078 3.7323-0.1601 3.8942-1.929-0.52901-1.8235-3.5836 0.1601-3.8942zm-4.0069 5.0743c2.3092 0.30704 1.7976 4.7178-0.57548 4.0916-1.8341-0.77619-1.5341-4.0203 0.57548-4.0916zm-4.9918 2.7861c2.2636 0.2666 1.8924 4.7716-0.55292 4.1351-1.6355-0.65381-1.3304-4.153 0.55292-4.1351zm9.5478 0.44784c2.1778 0.13467 1.9289 4.3408-0.35211 3.6752-1.6303-0.5543-1.4704-3.612 0.35211-3.6752zm-4.8553 4.6391c2.0746-0.04 2.2351 3.1102 0.60574 3.9299-1.3532 0.73315-2.4317-1.3034-2.089-2.4851 0.0897-0.79119 0.63748-1.4825 1.4833-1.4448zm-4.6682 2.7327c2.0902 0.24687 1.9339 4.4339-0.38897 3.9833-2.193-0.17096-1.8416-4.1528 0.38897-3.9833zm9.2892 1.0772c1.8512 0.19684 2.0156 4.0338-0.13094 3.7671-1.8316-0.40017-1.8379-3.6382 0.13094-3.7671zm-4.8498 4.4047c1.9655 0.31239 2.256 3.8305 0.20137 4.145-1.889 0.30648-2.3529-2.7097-1.1257-3.6669 0.27694-0.2005 0.56543-0.4676 0.92429-0.47811zm-4.9411 2.8329c2.3124 0.24927 2.0963 4.2769-0.26078 4.1197-1.9403-0.39941-1.7525-4.0467 0.26078-4.1197zm9.7601 1.3534c2.3103 0.0203 1.7111 4.4803-0.59474 3.5552-1.4735-0.48699-1.2251-3.923 0.59474-3.5552zm-4.8558 5.0622c2.3631-0.0308 1.944 4.6382-0.43684 3.8655-1.8595-0.48852-1.7672-4.1309 0.43684-3.8655zm-5.0754 3.1168c2.2206 0.20123 2.0644 4.6262-0.35047 4.1241-1.8535-0.54717-1.6864-4.044 0.35047-4.1241zm9.8916 0.55898c1.7201 0.15832 1.8 3.1845 0.30755 3.6141-2.3357 0.55017-2.5837-3.7953-0.30755-3.6141z" style="fill:#3771c8"/>
	</g>
	<g id="case" transform="matrix(.046231 0 0 -.04456 -44.152 671.34)">
		<path id="path4" d="m5923 13960c-44-10-76-33-110-77l-28-36-3-703-2-704 568-2 568-3 49-26c35-18 59-39 80-74l30-48 3-199 4-198h358c197 0 365-2 373-5 11-5 15 17 20 123 21 397 142 733 379 1044 73 97 226 253 286 293 23 15 42 32 42 36 0 5-320 9-719 9-702 0-720 0-726-19-11-35-85-99-132-115-92-32-186-11-252 56-22 22-43 48-46 59-6 18-17 19-156 19h-151l-58 58v522l-172-1c-95-1-188-4-205-9z"/>
		<path id="path6" d="m11615 13958c-2-7-6-127-7-266l-3-254-28-24c-27-23-33-24-187-24h-159l-15-29c-39-75-141-127-230-118-86 9-143 45-196 126-11 17-23 22-44 19-27-3-27-4 35-55 337-273 564-668 634-1103 22-137 23-426 1-565-103-676-592-1240-1255-1449-106-34-277-66-388-73-51-3-93-10-93-15 0-4-27-8-60-8s-60 4-60 9c0 4-39 11-87 15-124 9-321 52-433 93-536 197-936 604-1120 1143l-39 115v-633l-1-634-68-68h-1594l-68 68v1594l68 68h812v178c0 225-15 266-113 307-31 13-114 15-587 15h-550v-5112.1c747.03 209.53 1523.7 8.4507 2190 8.4507l2 1284.7 3 1141 56 48h2987l4 123c3 115 5 126 31 165 16 24 49 54 80 72l52 30h1015v1840c0 1827 0 1841-20 1880-11 22-39 52-62 67l-41 28-229 3c-183 3-229 1-233-10z"/>
		<path id="path66" d="m10980 10171c-135.32-121.15 122.27-284.66 0-411h466c250 0 382-4 396-11 48-26 48-31 48-774v-770h310v2015c-423.43 6.48-883.28 51.127-1220-49z"/>
		<path id="path88" d="m11890 7130v-1090h310v2180h-310z"/>
		<path id="path120" d="m5788.5 5735.8c781.3 95.398 1508.9 36.416 2181.5 33.803v1610.4c-343.94 4.4699-1176.2-8.1018-1721 0h-469c-26.115-548.15-4.7437-1096.1 8.4507-1644.2zm2087.5 791.23c-1009.9 29.5-322.17-374.03 0 0z"/>
		<path id="path202" d="m5780 5998c0-2-3-900-7-1995l-3-2186.7c785.59-35.955 1449.3 102.07 2200-93.662v4267.3h-45c-44 0-45-1-45-32-366.51-44.007-1456 141.1-2100 40zm2096-647c-717.45 54.915-395.28-1271.6 0 0z"/>
		<path id="path236" d="m11890 5210v-780h310v1635c-153.76 19.678-161.92 19.612-310 15z"/>
		<path id="path266" d="m11890 3740v-735c121.68 52.097 182.64 15 310 15v1450l-310-15z"/>
		<path id="path268" d="m11890 2186v-864l-62-52h-1893c-1447 0-1900 3-1920 12-51 23-52 38-47 371l5 307h-2203v-132c0-73 3-285 7-470l6-338h59c69 0 69 7 8-126-21-45-36-85-32-88 7-8 6352-8 6352 0 0 3-18 47-40 99s-40 99-40 104c0 7 23 11 55 11h55v2030h-310z"/>
	</g>
	<g id="puerto_ps2_1" transform="matrix(.046231 0 0 -.04456 -44.152 671.34)">
		<path id="path262-7" d="m9946.5 3932.6c-28.867 0.7624-58.479-1.9045-88.496-8.1197-197.04-39.461-335.55-254.14-292.45-453.03 35.405-162.58 135.47-269.91 287.86-304.64 147.78-36.305 303.23 25.236 387.89 149.94 90.82 137.33 96.996 293.61 16.952 423.05-75.042 121.84-186.66 189.5-311.75 192.8zm-14.29-124.49c50.738 0.8534 102.34-12.285 147.46-39.908 66.189-42.619 103.13-116.8 106.21-211.51 3.079-168.9-115.43-290.44-266.28-273.08-89.281 9.471-118.53 23.68-173.95 85.24-93.899 104.18-89.284 268.34 10.773 367.79 46.757 46.17 110.55 70.37 175.79 71.466zm-25.316-68.015v-165.91h59.409v165.91zm-108.08-82.906a21.706 27.262 0 0 1-21.704-27.252 21.706 27.262 0 0 1 21.704-27.252 21.706 27.262 0 0 1 21.704 27.252 21.706 27.262 0 0 1-21.704 27.252zm272.46 0a21.706 27.262 0 0 1-21.704-27.252 21.706 27.262 0 0 1 21.704-27.252 21.706 27.262 0 0 1 21.704 27.252 21.706 27.262 0 0 1-21.704 27.252zm-297.62-98.357a21.706 27.262 0 0 1-21.704-27.285 21.706 27.262 0 0 1 21.704-27.252 21.706 27.262 0 0 1 21.704 27.252 21.706 27.262 0 0 1-21.704 27.285zm321.6-4.7668a21.706 27.262 0 0 1-21.705-27.252 21.706 27.262 0 0 1 21.705-27.252 21.706 27.262 0 0 1 21.704 27.252 21.706 27.262 0 0 1-21.704 27.252zm-238.21-118.51a21.706 27.262 0 0 1-21.704-27.285 21.706 27.262 0 0 1 21.704-27.252 21.706 27.262 0 0 1 21.736 27.252 21.706 27.262 0 0 1-21.736 27.285zm149.68-2.367a21.706 27.262 0 0 1-21.704-27.285 21.706 27.262 0 0 1 21.704-27.252 21.706 27.262 0 0 1 21.704 27.252 21.706 27.262 0 0 1-21.704 27.285z"/>
		<path id="path936" transform="matrix(16.223 0 0 -16.831 799.93 14583)" d="m562.8 640.22c-7.8493-3e-3 -15.882 6.7454-15.238 14.968-0.44383 3.8329 0.85572 7.6012 3.3507 10.508 4.4427 5.926 13.255 7.2375 19.697 4.0691 5.8272-2.9432 8.4659-9.8151 7.7916-16.069-0.17539-6.5449-5.4649-12.283-11.922-13.177-1.211-0.22984-2.4464-0.33208-3.6787-0.29956zm0.39681 4.1984c3.1415-0.7523 1.1319 3.6465 1.6915 5.476 0.4989 2.8881-0.0756 4.7028-3.285 3.8826-0.22857-2.9236-0.0322-6.2722-0.098-9.3586h1.6915zm8.3712 4.8022c2.0961 0.22525 0.98338 4.0405-0.82008 2.6392-0.88639-0.77234-0.50611-2.6796 0.82008-2.6392zm-16.816 0.0786c2.2798 0.16395 0.68998 4.1946-0.96402 2.5085-0.42297-0.86943-0.32573-2.5515 0.96402-2.5085zm-1.5087 5.897c2.0961 0.22526 0.98338 4.0405-0.82008 2.6392-0.88639-0.77234-0.50612-2.6796 0.82008-2.6392zm20.032 0.58355c1.7546 0.1903 0.18891 4.1286-1.08 2.2439-0.49965-0.90149-0.4829-2.7637 1.08-2.2439zm-14.938 6.6657c2.2798 0.16395 0.68998 4.1946-0.96402 2.5085-0.42297-0.86943-0.32573-2.5515 0.96402-2.5085zm9.0855 0.31901c1.8964-0.0469 1.6716 3.2353-0.14783 2.8127-1.3284-0.21178-1.357-2.9984 0.14783-2.8127z" style="fill:#c0f"/>
	</g>
	<g id="puerto_ps2" transform="matrix(.046231 0 0 -.04456 -44.152 671.34)">
		<path id="path123" transform="matrix(16.223 0 0 -16.831 799.93 14583)" d="m621.68 633.91c-1.7794-0.0453-3.6028 0.11121-5.4531 0.48047-12.146 2.3446-20.684 15.099-18.027 26.916 2.1824 9.6596 8.3484 16.036 17.742 18.1 9.1092 2.157 18.693-1.4994 23.912-8.9082 5.5983-8.1591 5.979-17.445 1.0449-25.135-4.6258-7.2388-11.508-11.257-19.219-11.453zm-0.87891 7.3965c3.1276-0.0507 6.3085 0.72795 9.0898 2.3691 4.0801 2.5321 6.3571 6.9394 6.5469 12.566 0.18986 10.035-7.1151 17.256-16.414 16.225-5.5035-0.56269-7.3067-1.4069-10.723-5.0644-5.7881-6.1896-5.5036-15.943 0.66406-21.852 2.8822-2.7431 6.8148-4.179 10.836-4.2441zm-2.0098 4.1133v9.8594h3.6621v-9.8594zm-6.5312 4.4004a1.338 1.6197 0 0 0-1.3379 1.6211 1.338 1.6197 0 0 0 1.3379 1.6191 1.338 1.6197 0 0 0 1.3379-1.6191 1.338 1.6197 0 0 0-1.3379-1.6211zm16.795 0a1.338 1.6197 0 0 0-1.3379 1.6211 1.338 1.6197 0 0 0 1.3379 1.6191 1.338 1.6197 0 0 0 1.3379-1.6191 1.338 1.6197 0 0 0-1.3379-1.6211zm-18.346 5.8457a1.338 1.6197 0 0 0-1.3379 1.6191 1.338 1.6197 0 0 0 1.3379 1.6191 1.338 1.6197 0 0 0 1.3379-1.6191 1.338 1.6197 0 0 0-1.3379-1.6191zm19.824 0.28125a1.338 1.6197 0 0 0-1.3379 1.6191 1.338 1.6197 0 0 0 1.3379 1.6211 1.338 1.6197 0 0 0 1.3379-1.6211 1.338 1.6197 0 0 0-1.3379-1.6191zm-14.684 7.043a1.338 1.6197 0 0 0-1.3379 1.6191 1.338 1.6197 0 0 0 1.3379 1.6191 1.338 1.6197 0 0 0 1.3398-1.6191 1.338 1.6197 0 0 0-1.3398-1.6191zm9.2266 0.14063a1.338 1.6197 0 0 0-1.3379 1.6191 1.338 1.6197 0 0 0 1.3379 1.6191 1.338 1.6197 0 0 0 1.3379-1.6191 1.338 1.6197 0 0 0-1.3379-1.6191z" style="stroke-width:.094333"/>
		<path id="path940" transform="matrix(16.223 0 0 -16.831 799.93 14583)" d="m620.62 641.29c-8.2942-0.068-16.119 7.5384-15.294 15.985-0.43597 5.7437 3.7775 10.664 8.2634 13.675 6.8326 3.2805 16.468 1.7488 20.346-5.2745 2.7346-3.8264 2.4648-8.6736 2.0806-13.119-1.3088-6.4044-7.4106-10.958-13.814-11.225-0.52627-0.0378-1.0543-0.0531-1.5818-0.0412zm-0.0576 4.3315c3.1415-0.7523 1.1318 3.6465 1.6915 5.476 0.49891 2.8881-0.0756 4.7028-3.285 3.8826-0.22857-2.9236-0.0322-6.2722-0.098-9.3586h1.6915zm-8.1915 4.4085c2.1229 0.25499 0.79585 4.1813-0.92201 2.5723-0.7939-0.78845-0.343-2.669 0.92201-2.5723zm17.187 0.0296c1.8127 0.84051-0.30033 4.2441-1.4931 2.258-0.55118-1.1663 0.19206-2.4406 1.4931-2.258zm-18.793 5.9818c1.8839-0.1275 1.1064 3.4861-0.4824 2.6874-0.92365-0.79458-1.269-2.7521 0.4824-2.6874zm19.845 0.14083c2.079 0.30423 0.8973 3.799-0.87299 2.5093-0.78571-0.67695-0.36762-2.6814 0.87299-2.5093zm-14.653 6.994c2.1229 0.25499 0.79585 4.1813-0.92201 2.5723-0.7939-0.78845-0.343-2.669 0.92201-2.5723zm9.1672 0.0739c2.1162 0.27839 0.7355 4.2465-0.94691 2.4338-0.50062-0.90571-0.376-2.463 0.94691-2.4338z" style="fill:#00d4aa"/>
	</g>
	<g id="puerto_serial" transform="matrix(.046231 0 0 -.04456 -44.152 671.34)">
		<path id="path174-3" d="m11030 6087c-64.339 0-122.71-4.714-131.05-9.401-25.021-15.235-39.353-72.617-39.353-155.82v-80.868h-51.203c-38.128 0-58.38-7.044-75.061-24.622-21.447-23.438-22.655-51.572-22.655-666.8s1.207-643.33 22.655-666.77c16.681-17.578 36.953-24.622 73.889-24.622h49.999l3.612-98.423c5.958-139.45 15.484-147.67 167.99-147.67 159.66 0 164.41 4.711 164.41 168.77v121.83l44.074 22.289c25.021 11.718 57.215 38.681 71.513 60.946l27.407 39.81v522.68c0 505.08-1.22 523.84-23.859 561.34-14.298 23.437-44.076 48.033-71.481 58.58l-47.654 19.921v126.53c0 167.58-4.773 172.29-163.24 172.29zm7.16-49.375c10.724 0.134 21.454-6.878 48.859-20.941 45.276-22.265 47.623-26.951 47.623-79.684 0-50.391-3.532-57.422-44.043-83.203l-44.105-28.139-51.235 26.956c-50.042 25.781-51.202 28.157-51.202 83.235 0 53.906 2.353 58.558 45.245 79.652 27.405 14.648 38.135 21.977 48.858 22.124zm-249.77-220.19c8.796 0.504 18.927 0 30.545 0 28.595 0 129.87-12.851 225.18-29.257 96.511-15.234 184.65-33.994 198.95-41.026 13.106-7.031 34.567-30.473 46.482-50.394 22.638-35.156 23.827-63.294 23.827-547.28 0-380.86-3.579-516.78-15.493-537.87-34.554-66.796-120.34-93.757-382.47-120.71l-141.79-14.037-21.451 26.956c-21.447 25.781-22.591 59.752-22.591 644.51 0 613.18-2.77 665.58 58.807 669.1zm120.37-129.46c-37.978-0.294-64.826-6.46-76.741-18.179-10.724-9.375-21.456-29.297-25.031-43.36-3.574-14.062-4.772-241.42-3.58-503.91 3.574-458.2 4.789-479.26 26.235-495.66 29.788-21.093 86.982-21.115 210.9 1.152 141.79 25.781 164.44 37.493 190.65 92.571 20.255 43.359 22.623 83.228 22.623 425.41 0 492.18 3.609 482.8-201.33 524.99-56.595 11.718-105.74 17.288-143.72 16.995zm-21.957-49.408c27.87 0.825 86.419-7.711 181.14-26.167 137.02-28.125 127.49 7.027 123.92-466.41l-3.549-410.16-29.847-21.104c-30.979-23.438-264.48-64.436-285.92-51.546-14.298 8.203-16.688 958.58-3.581 971.47 2.681 2.344 8.55 3.637 17.839 3.912zm55.449-189.74c-16.414 0.012-29.724-16.977-29.721-37.936 0-20.959 13.308-37.947 29.721-37.935 16.4 0.011 29.69 16.993 29.688 37.935 0 20.943-13.287 37.925-29.688 37.936zm76.518-89.514c-16.401-0.01-29.692-16.993-29.689-37.936 0.01-20.93 13.298-37.893 29.689-37.903 16.404-0.012 29.71 16.957 29.721 37.903 0 20.959-13.307 37.948-29.721 37.936zm-79.908-46.713c-16.402-0.01-29.693-16.992-29.69-37.936 0-20.943 13.289-37.925 29.69-37.935 16.413-0.012 29.722 16.977 29.72 37.935 0 20.959-13.307 37.948-29.72 37.936zm78.292-84.024c-16.401-0.01-29.692-16.993-29.689-37.936 0-20.943 13.288-37.925 29.689-37.935 16.413-0.012 29.723 16.976 29.721 37.935 0 20.959-13.307 37.948-29.721 37.936zm-79.908-46.713c-16.402-0.01-29.693-16.992-29.69-37.936 0-20.943 13.289-37.925 29.69-37.935 16.413-0.012 29.722 16.977 29.72 37.935 0 20.959-13.307 37.948-29.72 37.936zm75.06-94.116c-16.391-0.011-29.677-16.973-29.688-37.903 0-20.943 13.287-37.925 29.688-37.936 16.414-0.012 29.724 16.977 29.721 37.936-0.01 20.946-13.317 37.915-29.721 37.903zm-79.908-46.713c-16.391-0.01-29.678-16.973-29.689-37.903 0-20.943 13.288-37.926 29.689-37.936 16.413-0.012 29.723 16.977 29.72 37.936-0.01 20.946-13.317 37.915-29.72 37.903zm78.293-105.82c-16.401-0.01-29.692-16.993-29.689-37.936 0.01-20.93 13.298-37.893 29.689-37.903 16.403-0.012 29.709 16.957 29.72 37.903 0 20.959-13.307 37.948-29.72 37.936zm-81.525-55.096c-16.401-0.01-29.692-16.993-29.689-37.936 0.01-20.93 13.298-37.892 29.689-37.902 16.403-0.012 29.709 16.956 29.721 37.902 0 20.959-13.307 37.948-29.721 37.936zm110.17-422.03c9.531 0 35.745-10.548 57.191-23.439 36.936-22.265 39.315-28.132 35.741-77.35-3.575-49.219-8.303-56.215-47.622-79.652l-45.31-24.623-44.074 24.623c-40.51 23.437-45.252 30.433-48.826 79.652-3.574 49.218-1.195 55.085 35.74 77.35 21.446 12.891 47.628 23.439 57.16 23.439z"/>
		<path id="path932" transform="matrix(16.223 0 0 -16.831 799.93 14583)" d="m622.87 531.55c-3.1664-0.83563-2.4439 2.364-2.5544 4.3989-0.53677 16.909-0.34401 33.844 0.17123 50.75-0.51378 2.8293 1.4058 3.3032 3.778 2.6408 5.454-0.58904 11.352-1.192 16.022-4.1868 0.0671-15.313 0.96878-30.655 0.0724-45.954 0.0241-2.4894-1.2948-5.2196-4.042-5.4861-4.4114-1.0363-8.9154-1.9226-13.447-2.163zm2.3311 11.328c2.1403 0.30687 2.3741 3.4618 0.25754 4.0491-2.4565 0.53754-2.6339-4.147-0.25754-4.0491zm4.8287 5.1454c2.2011 0.61727 1.6077 4.7007-0.66213 4.4591-1.8784-1.0401-1.5976-3.902 0.47151-4.4645l0.0529-3e-3zm-4.8855 2.7886c2.1884 0.51922 1.775 4.6915-0.47618 4.4233-2.1103-0.67199-1.7514-4.3655 0.47618-4.4233zm4.7664 5.2348c2.6934 0.31679 1.3349 5.5568-1.1469 3.6896-1.3095-0.97903-0.86159-4.0718 1.1469-3.6896zm-4.9197 2.7979c2.86 0.15731 1.368 5.0734-1.1228 3.8771-1.0242-0.89757-0.80313-4.3042 1.1228-3.8771zm4.6661 5.536c1.8207 0.0455 1.8314 3.2111 0.58511 4.0164-2.4869 0.79745-3.6496-3.3192-1.0745-3.9253 0.15838-0.0508 0.32296-0.0842 0.4894-0.091zm-4.9734 2.7621c2.582 0.31815 1.7524 5.0817-0.84109 3.9938-1.509-0.83528-1.303-4.2966 0.84109-3.9938zm4.9415 6.3739c2.6455 0.0982 1.2069 5.38-1.1321 3.8125-1.4106-1.016-1.0511-4.205 1.1321-3.8125zm-5.2146 3.2368c2.24 0.26799 2.1215 3.6514 0.021 4.0568-2.3366 0.39825-2.3907-4.2245-0.021-4.0568z" style="fill:#c0f"/>
	</g>
	<g id="usb_traseros" transform="matrix(.046231 0 0 -.04456 -44.152 671.34)">
		<path id="path76" d="m9220.6 7697.9 4.4723-407.5 163.99-4.3975c90.941-2.9317 178.9 0 198.28 4.3975l32.798 7.329-2.981 400.17-4.473 398.7-198.28 4.3975-196.79 4.3974zm161.01-5.8633v-337.14l-40.253 4.3975-41.743 4.3974-4.4723 334.21-2.9823 332.74h89.45z" style="stroke-width:1.4783"/>
		<path id="path76-0" d="m9742.1 7686.4 4.472-407.5 163.99-4.397c90.942-2.932 178.9 0 198.28 4.397l32.798 7.329-2.981 400.17-4.473 398.7-198.28 4.397-196.79 4.397zm161.01-5.864v-337.14l-40.253 4.397-41.743 4.398-4.472 334.2-2.982 332.74h89.45z"/>
		<path id="path76-9" d="m10263 7681.7 4.472-407.5 163.99-4.397c90.942-2.932 178.9 0 198.28 4.397l32.798 7.329-2.981 400.17-4.473 398.7-198.28 4.397-196.79 4.397zm161.01-5.864v-337.14l-40.253 4.397-41.743 4.398-4.472 334.2-2.982 332.74h89.45z"/>
		<path id="path76-01" d="m10798 7691.1 4.472-407.5 163.99-4.397c90.941-2.932 178.9 0 198.28 4.397l32.798 7.329-2.981 400.17-4.473 398.7-198.28 4.397-196.79 4.397zm161.01-5.864v-337.14l-40.253 4.397-41.742 4.398-4.473 334.2-2.982 332.74h89.45z"/>
		<path id="path76-05" d="m10268 6733.4 4.473-407.5 163.99-4.397c90.941-2.932 178.9 0 198.28 4.397l32.798 7.329-2.981 400.17-4.473 398.7-198.28 4.397-196.79 4.397zm161.01-5.864v-337.14l-40.252 4.397-41.743 4.398-4.473 334.2-2.982 332.74h89.45z"/>
		<path id="path76-8" d="m10789 6733.4 4.473-407.5 163.99-4.397c90.941-2.932 178.9 0 198.28 4.397l32.798 7.329-2.981 400.17-4.473 398.7-198.28 4.397-196.79 4.397zm161.01-5.864v-337.14l-40.253 4.397-41.743 4.398-4.472 334.2-2.983 332.74h89.451z"/>
	</g>
	<g id="puerto_rj45" transform="matrix(.046231 0 0 -.04456 -44.152 671.34)">
		<path id="path110" d="m9406.8 7054.4c-3.103-9.989-9.31-49.945-10.861-89.901l-4.655-71.35-65.168-4.281c-58.962-4.281-66.72-8.562-66.72-39.956 0-28.54-7.758-34.248-46.549-34.248h-46.549v-285.4h46.549c38.791 0 46.549-5.7079 46.549-35.675 0-32.821 6.206-35.675 69.823-35.675h69.823v-171.24h512.04v214.05l-1.9653-43.67c-20.831-32.879-137.68-17.184-137.68 7.995s18.619 21.405 69.823 21.405c38.79 0 69.823 7.135 69.823 14.27 0 8.562-31.033 14.27-69.823 14.27-51.204 0-69.823 5.708-69.823 21.405 0 15.697 18.619 21.405 69.823 21.405 38.79 0 69.823 7.135 69.823 14.27 0 8.562-31.033 14.27-69.823 14.27-51.204 0-69.823 5.708-69.823 21.405 0 15.697 18.619 21.405 69.823 21.405 38.79 0 69.823 7.135 69.823 14.27 0 8.562-32.584 14.27-71.375 14.27-58.962 0-69.823 4.281-65.168 25.686 4.655 18.551 20.171 24.259 71.375 24.259 35.687 0 65.168 4.281 65.168 11.416 0 5.708-31.033 9.989-69.823 9.989-51.204 0-69.823 5.708-69.823 21.405s18.619 21.405 69.823 21.405c38.79 0 69.823 7.135 69.823 14.27 0 8.562-32.584 14.27-71.375 14.27-58.962 0-69.823 4.281-65.168 25.686 3.103 17.124 24.826 27.113 74.478 32.821l69.823 8.562-74.478 1.427c-62.065 2.854-74.478 7.135-69.823 28.54 3.103 17.124 23.274 25.686 71.375 28.54l65.168 4.281v141.27h-248.26c-186.2 0-251.36-4.281-256.02-17.124z" style="stroke-width:1.488"/>
		<path id="path965" transform="matrix(-.53448 0 0 1 15205 0)" d="m9911 6930.2-1.9653-473.2" style="fill:none;stroke-width:16.524px;stroke:#000"/>
		<path id="path971" transform="matrix(16.223 0 0 -16.831 799.93 14583)" d="m561.08 476.02c-2.2185 0.58738-4.5426 0.28627-6.7912 0.64673-0.75873 0.11838-1.7211 0.63984-1.6188 1.532 0.10512 0.85217 1.0502 1.2618 1.8124 1.3493 2.089 0.29996 4.2194 0.0682 6.2777 0.49779 0.34075 0.22159 0.84753 0.0227 0.77158-0.42844 2.1e-4 -1.0903 0.0513-2.183 7e-3 -3.2722-0.0809-0.20233-0.22421-0.35554-0.45871-0.32515z" style="fill:#fc0"/>
		<path id="path973" transform="matrix(16.223 0 0 -16.831 799.93 14583)" d="m561.05 471.77c-2.2802 0.66445-4.7006 0.24228-7.0082 0.71229-0.73921 0.15568-1.5745 0.80539-1.3526 1.648 0.21884 0.912 1.3007 1.0957 2.0878 1.2056 2.072 0.26978 4.1979 0.0271 6.2401 0.53395 0.58375 0.0244 0.5257-0.69357 0.53442-1.0933-0.0138-0.91614 0.063-1.8513-0.0384-2.7548-0.0411-0.19561-0.28083-0.28611-0.46313-0.2517z" style="fill:#fc0"/>
		<path id="path975" transform="matrix(16.223 0 0 -16.831 799.93 14583)" d="m561.07 467.26c-2.1267 0.3988-4.2854 0.14884-6.4214 0.5019-0.92806 0.15806-1.8066 0.88528-1.8368 1.8779-0.11497 0.62205 0.33771 1.1739 0.92787 1.3137 1.3479 0.35021 2.7761 0.20613 4.1456 0.31514 1.046 0.0591 2.116 0.0944 3.1465 0.37093 0.59787 5e-3 0.50749-0.73314 0.52541-1.141-0.0115-0.9917 0.0614-1.997-0.0688-2.9805-0.0709-0.17017-0.24595-0.24888-0.41855-0.25804z" style="fill:#fc0"/>
		<path id="path977" transform="matrix(16.223 0 0 -16.831 799.93 14583)" d="m561.05 463.28c-1.9023 0.56651-3.8909 0.37293-5.8458 0.55599-0.86933 0.0874-1.9991 0.17707-2.4311 1.0687-0.35009 0.73416 0.24037 1.5584 0.96831 1.7449 1.4248 0.42807 2.9479 0.28702 4.4099 0.38889 0.95714 0.0448 1.9156 0.0677 2.8495 0.25027 0.48812 0.0865 0.64812-0.43352 0.56435-0.82251-0.0297-0.9764 0.0598-1.9726-0.0455-2.9364-0.0407-0.19803-0.28665-0.28734-0.46973-0.24977z" style="fill:#fc0"/>
		<path id="path985" transform="matrix(16.223 0 0 -16.831 799.93 14583)" d="m561.09 458.47c-1.7103 0.20484-3.4287 0.36755-5.1258 0.66593-0.91772 0.20823-1.9617 0.42663-2.5746 1.2078-0.28886 0.42389-0.43113 1.0584-0.13509 1.5134 0.4952 0.50055 1.2692 0.50527 1.9259 0.56468 1.7738 0.12708 3.5693 1e-3 5.3141 0.32815 0.22921 0.0155 0.49404 0.21789 0.70065 0.0925 0.1173-0.58211 0.0405-1.1949 0.0679-1.7882-0.0149-0.84257 0.0306-1.6942-0.053-2.5314-0.0209-0.0466-0.0757-0.0559-0.12001-0.0528z" style="fill:#fc0"/>
		<path id="path987" transform="matrix(16.223 0 0 -16.831 799.93 14583)" d="m560.91 454.66c-2.0119 0.17614-4.054 0.14961-6.036 0.57635-0.76791 0.16341-1.5874 0.63646-1.7506 1.4651-0.13825 0.45783 0.0499 1.0014 0.51411 1.183 0.9819 0.42295 2.0828 0.4085 3.1311 0.49048 1.4617 0.066 2.9252 0.0852 4.3882 0.0963 0.22175-0.17735 0.0436-0.58042 0.10086-0.84692-0.0139-0.97746 0.0277-1.9669-0.0206-2.9369-0.0596-0.10523-0.23096-0.0205-0.32708-0.0274z" style="fill:#fc0"/>
		<path id="path989" transform="matrix(16.223 0 0 -16.831 799.93 14583)" d="m561.19 480.5c-1.4529 0.53728-3.0283 0.38534-4.547 0.47013-1.0056 0.0698-2.0514-0.0638-3.0293 0.21979-0.51452 0.19487-0.80858 0.90396-0.56819 1.3983 0.53811 0.74087 1.5317 0.92001 2.368 1.1289 1.7396 0.31678 3.6334 0.47168 5.2969-0.24697 0.25386-0.17357 0.72724-0.27881 0.76928-0.62899-0.26149-0.1821-0.10619-0.58721-0.15653-0.86859-0.0238-0.48309 0.0482-0.98753-0.0381-1.4562-0.0308 0.0297-0.0639-0.0337-0.095-0.0164z" style="fill:#fc0"/>
	</g>
	<g id="toma_corriente" transform="matrix(.046231 0 0 -.04456 -44.152 671.34)">
		<path id="path62" d="m6254 11844c-12-3-30-14-40-26-18-19-19-54-19-793 0-746 1-774 19-794l19-21h779c765 0 778 0 798 20s20 33 20 795 0 775-20 795c-19 19-33 20-337 20-175 0-516 2-758 4-242 3-450 3-461 0zm1293-116 23-21v-674c0-657 0-673-20-693-11-11-30-22-42-25-13-3-249-4-525-3l-502 3-46 46v1351l24 19c22 18 46 19 544 19h521z"/>
		<path id="path64" d="m6609 11621-29-29v-1094l58-58h630l65 68c35 37 85 91 111 120l46 53v746l-135 111-134 112h-583zm404-198c4-15 3-87-2-115 0-5-61-8-135-8-109 0-138 3-150 16-18 18-21 60-6 98l10 26h139c125 0 140-2 144-17zm347-342c5-11 10-32 10-46s-5-35-10-46c-10-17-23-19-160-19s-152 2-170 20c-26 26-25 58 2 87 21 22 28 23 169 23 136 0 149-2 159-19zm-345-386v-60l-140-3c-123-2-141 0-152 15-16 21-17 67-3 94 10 18 21 19 153 17l142-3z"/>
	</g>
	<g id="puerto_audio" transform="matrix(.070172 0 0 -.066535 -352.23 884.08)">
		<path id="path68" d="m10771 9148c-60-31-83-65-89-132-8-102 61-176 165-176 86 0 152 61 160 147 13 130-121 221-236 161zm111-8c11 0 38-17 59-39 36-35 39-43 39-92 0-37-7-65-20-87-36-59-126-80-187-42-86 52-95 160-21 230 24 22 75 41 96 34 8-2 23-4 34-4z"/>
		<path id="path70" d="m10779 9071c-78-78 5-203 104-156 63 30 77 107 28 156-22 21-39 29-66 29s-44-8-66-29z"/>
		<path id="path930" transform="matrix(10.688 0 0 -11.272 4917.2 12964)" d="m553.33 338.93c-8.3738 0.18996-15.044 10.478-10.712 18.001 2.8749 5.2693 9.3247 8.3338 15.182 6.6136 5.6518-0.90348 9.5027-6.3464 9.5757-11.878 0.19283-3.0701-0.52777-6.394-3.1827-8.2766-2.416-2.6888-5.7279-4.777-9.4795-4.4533-0.46087-2e-3 -0.92174-0.0178-1.3826-7e-3zm1.788 3.965c4.7638 0.16491 9.1753 5.135 8.0172 9.9484-0.5311 4.9716-6.305 7.6613-10.768 6.966-5.798-0.97717-9.0076-9.1084-4.6295-13.397 1.7831-2.2584 4.515-3.7999 7.38-3.5176z" style="fill:#c0f"/>
	</g>
	<g id="puerto_micro" transform="matrix(.069459 0 0 -.064472 -345.77 865.63)">
		<path id="path72" d="m11219 9147c-151-78-94-307 76-307 60 0 106 25 143 80 20 29 23 45 20 91-5 68-35 114-92 140-55 25-94 24-147-4zm139-18c104-51 105-201 2-254-61-32-147-9-185 48-45 70-18 169 58 206 53 26 70 26 125 0z"/>
		<path id="path74" d="m11229 9071c-38-38-39-87-4-129 42-50 98-50 144-1 52 57 5 159-74 159-27 0-44-8-66-29z"/>
		<path id="path938" transform="matrix(10.798 0 0 -11.633 4874.8 13093)" d="m594.35 339.27c-7.8556 0.0319-14.929 8.2852-12.37 16.059 2.654 8.4712 14.78 11.217 21.272 5.4371 4.9045-3.725 5.935-11.362 2.0144-16.156-2.5816-3.2717-6.7161-5.4231-10.916-5.3399zm0.21864 4.0568c6.0788-0.26473 11.142 7.2745 7.5838 12.54-2.4204 3.3252-6.9063 4.837-10.779 3.3893-3.7165-1.9549-7.033-6.7965-4.7812-10.967 1.5007-2.9109 4.7348-4.9208 7.976-4.9625z" style="fill:#37c837"/>
	</g>
	<g id="ventilacion" transform="matrix(.046231 0 0 -.04456 -44.152 671.34)">
		<path id="path28" d="m8534 13348c-293-249-477-512-587-838-50-148-75-279-89-472-11-152-10-171 5-203 12-26 17-62 17-128 0-207 117-523 282-764 247-360 623-627 1027-728 107-27 287-55 349-55 23 0 44-4 47-10 3-5 22-10 41-10s34 5 34 10c0 6 22 10 50 10 27 0 99 7 160 15 620 87 1140 479 1394 1052 264 596 175 1305-229 1818-62 78-202 221-299 303l-49 42h-282l25-20c14-11 29-20 33-20 16 0 183-120 257-184 239-207 428-515 506-823 23-93 54-293 54-354v-30l-82 3-83 3-7 85c-46 558-413 1048-942 1259-193 76-223 81-535 81-304 0-345-6-504-69-199-79-345-171-491-311-260-248-424-591-454-955l-7-90-168-6 7 83c34 412 190 759 470 1046 98 101 256 227 337 267 27 14 49 28 49 30 0 3-65 5-144 5h-143zm1046-137v-78l-72-7c-310-31-614-207-811-471-122-163-215-403-234-610l-8-80-77-3-78-3v33c0 54 29 227 50 307 43 155 133 338 226 458 60 77 185 205 257 260 176 136 419 238 629 262 130 15 118 22 118-68zm242 63c623-85 1108-601 1164-1236l7-78h-163v44c0 69-28 213-61 310-83 247-251 466-470 612-167 111-332 172-535 196l-104 12v78c0 92-13 87 162 62zm18-260c464-83 830-477 889-959 5-43 7-83 5-87-9-14-164-10-168 5-2 6-8 48-14 92-25 186-105 354-236 493-44 46-107 103-140 127-133 94-298 158-448 172l-68 6v175l48-5c26-2 85-11 132-19zm-260-68v-83l-59-7c-347-39-653-308-756-663-14-48-29-119-33-158l-7-70-79-3c-44-2-83 1-88 6-12 12 9 163 38 272 73 271 266 521 514 663 113 65 313 125 423 126l47 1zm0-261c0-101-1-105-22-105-45 0-180-43-233-75-186-112-290-273-330-507l-6-38h-192l6 76c8 85 52 229 98 315 75 140 220 281 364 354 76 39 227 84 283 85h32zm253 81c224-57 423-206 546-411 47-77 101-240 108-325l6-71-103 3-104 3-12 65c-51 273-258 486-523 537l-91 18v205h39c21 0 82-11 134-24zm-1647-986c40-347 177-634 418-876 244-244 565-395 892-420l84-7v-167h-27c-56 1-240 30-318 50-317 84-555 225-778 460-254 267-410 617-442 993l-7 78 166-6zm280 15c51-407 283-739 638-914 140-69 326-121 439-121h37v-163l-72 7c-306 30-581 155-800 364-231 221-371 515-404 850l-7 73 79-3 78-3zm258 83c2-7 9-49 16-93 56-368 336-664 700-741 36-7 82-14 103-14h37v-90c0-49-2-90-4-90-32 0-177 26-232 41-229 63-434 201-576 389-64 83-150 262-177 365-21 83-42 224-34 238 8 13 163 8 167-5zm271-25c26-155 84-272 185-373 102-102 220-164 344-179l51-6 3-97 3-98h-26c-49 0-180 32-247 60-174 74-333 222-417 387-43 85-81 205-88 279l-6 64h192zm1491-30c-4-37-18-101-32-141-75-224-219-389-429-492-111-54-185-76-293-86l-72-7v97c0 53 1 96 3 96 153 22 271 67 371 142 119 89 200 214 232 359 9 40 18 80 20 87 2 8 32 12 105 12h102zm246 12c-6-90-51-256-97-353-168-355-502-584-912-626l-63-7v178l80 6c116 9 280 66 391 136 153 96 287 248 356 401 29 66 73 230 73 274 0 18 3 36 7 40s43 5 88 4l80-3zm250-15c-8-169-81-401-179-562-161-267-414-474-704-576-107-38-250-69-357-78l-82-7v160l88 7c207 15 451 110 622 241 78 60 209 198 260 274 103 154 171 333 193 514l11 98 76-3 75-3zm293-7c-56-634-449-1156-1048-1392-141-56-402-110-529-111h-38v170h54c142 0 425 74 580 152 364 183 646 515 756 890 32 111 60 258 60 318 0 20 3 40 7 43 3 4 42 7 86 7h79z"/>
		<path id="path30" d="m9400 13249c-95-16-292-88-385-141-319-181-550-475-645-821-30-110-53-289-37-299 15-10 79-10 93 0 6 4 14 39 17 78 17 182 105 416 218 580 114 165 312 328 498 409 95 42 235 80 334 90l67 7v108l-52-1c-29-1-78-5-108-10z"/>
		<path id="path32" d="m9680 13210v-57l71-7c410-38 788-295 971-661 68-135 128-348 128-453 0-44 10-52 63-52 52 0 55 7 46 90-14 125-39 230-80 335-148 380-448 666-835 794-106 35-175 49-321 65l-43 4z"/>
		<path id="path34" d="m9680 12946v-63l63-6c304-29 599-237 742-521 45-91 95-258 95-321 0-44 19-57 77-53l48 3-1 60c-2 138-88 367-191 512-127 179-330 330-540 402-65 22-215 51-264 51-29 0-29 0-29-64z"/>
		<path id="path36" d="m9433 12995c-317-57-593-270-744-574-57-115-100-269-102-366l-2-70 54-3c61-4 71 4 71 59 0 20 9 70 20 112 72 283 244 505 493 633 86 44 249 94 308 94 29 0 29 0 29 65 0 64 0 65-27 64-16 0-60-7-100-14z"/>
		<path id="path38" d="m9475 12755c-167-38-283-102-406-224-129-129-212-288-241-462-14-85-10-89 74-89 65 0 71 6 82 79 18 121 115 295 212 380 94 82 212 141 319 156l45 7v84c0 61-3 84-12 83-7 0-40-7-73-14z"/>
		<path id="path40" d="m9680 12686c0-82 1-86 22-86 47 0 157-34 233-73 106-54 235-181 287-282 38-74 78-192 78-230 0-28 17-35 88-35 84 0 88 5 74 85-68 364-365 648-734 701l-48 6z"/>
		<path id="path42" d="m8039 11865c-9-8 10-168 32-269 98-465 418-878 847-1095 163-82 376-143 585-166l57-6v131h-43c-142 0-392 71-567 161-345 178-613 497-724 861-33 107-66 274-66 332 0 31-5 46-16 50-18 7-99 8-105 1z"/>
		<path id="path44" d="m8334 11862c-27-18 27-287 86-429 184-440 553-727 1028-798 53-8 100-15 105-15 4 0 7 27 7 60v60h-39c-109 0-315 60-452 131-232 121-431 335-534 576-41 94-82 248-91 341-4 37-12 70-18 74s-27 8-46 8-40-4-46-8z"/>
		<path id="path46" d="m8583 11854c-16-42 35-250 92-371 98-208 235-357 432-472 93-53 287-118 381-127l73-7-6 128-60 7c-260 32-512 198-656 432-55 89-114 257-125 353-4 32-12 61-18 65s-33 8-59 8c-34 0-49-4-54-16z"/>
		<path id="path48" d="m8831 11861c-11-7-11-20 2-83 69-340 345-603 685-652l42-6v75c0 73 0 75-27 80-169 34-261 82-369 190-92 92-141 179-174 308-11 43-22 82-25 87-8 12-115 13-134 1z"/>
		<path id="path50" d="m10306 11858c-2-7-11-43-20-80-33-139-106-256-218-349-94-78-200-124-360-154-28-5-28-7-28-80 0-88-7-85 136-56 276 57 519 268 611 532 35 101 48 180 31 190-21 14-148 11-152-3z"/>
		<path id="path52" d="m10593 11864c-7-3-13-18-13-34 0-15-11-70-24-123-86-338-360-598-716-682-36-8-79-15-97-15-58 0-63-6-63-75v-63l43 5c304 34 583 182 760 403 120 150 215 379 220 529l2 56-50 2c-27 1-56 0-62-3z"/>
		<path id="path54" d="m10865 11862c-6-4-16-45-23-92-63-445-370-815-800-964-103-36-228-63-312-68l-45-3-3-59-3-58 53 6c364 44 633 169 854 396 220 225 336 467 372 772 7 54 6 68-6 73-20 7-75 6-87-3z"/>
		<path id="path56" d="m11143 11864c-7-3-13-23-13-44 0-59-27-196-60-309-136-458-502-828-970-980-126-41-216-60-327-68l-93-6v-129l68 7c425 41 783 211 1063 502 148 155 254 316 329 502 65 160 116 391 108 486-3 40-3 40-48 42-25 1-51 0-57-3z"/>
		<path id="path58" d="m8902 13380c-13-6-76-46-141-90-184-124-334-275-456-455-58-87-155-285-189-385-33-98-74-306-78-395l-3-70 48-3c27-2 54 2 61 7 8 6 16 46 20 94 21 274 143 576 321 796 186 231 436 404 695 481 39 11 70 23 70 25 0 9-325 4-348-5z"/>
		<path id="path60" d="m10025 13380c11-5 52-18 90-30 168-50 377-175 535-319 265-241 451-612 477-951 3-47 11-88 17-92 14-10 104-10 109 0 8 14-12 177-33 282-64 305-209 570-439 801-128 128-199 184-343 270l-81 49-176-1c-108 0-168-4-156-9z"/>
	</g>
	<g id="puerto_paralelo" transform="matrix(.046231 0 0 -.04456 -44.152 671.34)">
		<path id="path270" transform="matrix(16.223 0 0 -16.831 799.93 14583)" d="m564.29 744.3c-43.157 0-56.915 0.22205-58.539 0.95703-1.1964 0.51449-2.7343 1.983-3.418 3.2324l-1.2832 2.4258h-6.8379c-4.273 0-7.349 0.36833-7.9473 0.88281-0.59823 0.51448-1.0234 3.1591-1.0234 6.834 0 3.6749 0.42521 6.3214 1.0234 6.8359 0.59822 0.51448 3.3336 0.88086 6.4102 0.88086h5.3848v2.207c0 1.2495 0.76894 2.8654 1.709 3.6738 1.7092 1.4699 2.8205 1.4687 64.352 1.4687 59.651 0 62.814-0.0708 64.096-1.3203 0.85461-0.73498 1.4512-2.4263 1.4512-3.6758v-2.3535h5.4707c7.0077 0 7.7754-0.73456 7.7754-7.7168 0-7.2028-0.5961-7.7168-9.0566-7.7168-6.5804 0-6.7513-0.073-8.0332-2.1309-2.8202-4.7038 0.5107-4.4844-61.533-4.4844zm27.904 1.5391c22.261 0.0552 27.325 0.31856 28.928 1.0352 1.4528 0.66147 2.8193 2.0574 3.332 3.5273 0.76911 1.9844 3.4185 16.389 3.5039 19.035 0 0.29399-0.59808 1.0292-1.3672 1.6172-1.1964 1.029-8.0342 1.1758-62.729 1.1758s-61.53-0.14682-62.727-1.1758c-1.6238-1.3965-1.6242-0.29423-0.0859-9.7754 1.5383-9.3342 3.2468-13.596 5.8106-14.625 1.2819-0.51448 19.572-0.80859 56.832-0.80859 11.751-0.0184 21.082-0.0242 28.502-6e-3zm-55.57 2.2305c-21.047 0.0207-22.648 0.31052-24.635 1.3027-2.8202 1.5434-3.8446 4.1894-5.041 12.936-0.51276 3.3074-0.34245 4.3377 0.93945 5.5137 1.5383 1.47 2.8215 1.4688 56.148 1.4688 53.498 0 54.521 1e-3 56.23-1.4688 1.8801-1.6169 1.7957-3.7502-0.51171-12.129-2.3074-8.0112 2.7347-7.3498-54.865-7.5703-12.071-0.0367-21.25-0.0595-28.266-0.0527zm8.7773 2.832c5.2309 4e-3 11.283 0.0137 18.291 0.0137 41.277 0 48.8 0.1461 50.338 1.1016 1.2819 0.80847 1.9638 2.4268 2.8184 6.9102 0.59823 3.2339 0.76808 6.1742 0.51172 6.6152-0.42731 0.58798-16.492 0.80664-53.582 0.80664-47.687 0-52.985-0.14487-53.498-1.1738-0.25637-0.66147 1e-3 -3.4559 0.59961-6.3223 1.5703-7.5886-2.0949-7.9733 34.521-7.9512zm-24.213 2.1602a2.07 2.0529 0 0 0-2.0703 2.0527 2.07 2.0529 0 0 0 2.0703 2.0527 2.07 2.0529 0 0 0 2.0703-2.0527 2.07 2.0529 0 0 0-2.0703-2.0527zm78.865 0.0781a2.07 2.0529 0 0 0-2.0703 2.0527 2.07 2.0529 0 0 0 2.0703 2.0527 2.07 2.0529 0 0 0 2.0703-2.0527 2.07 2.0529 0 0 0-2.0703-2.0527zm-69.83 0.0391a2.07 2.0529 0 0 0-2.0684 2.0527 2.07 2.0529 0 0 0 2.0684 2.0527 2.07 2.0529 0 0 0 2.0703-2.0527 2.07 2.0529 0 0 0-2.0703-2.0527zm60.936 0.0996a2.07 2.0529 0 0 0-2.0703 2.0527 2.07 2.0529 0 0 0 2.0703 2.0527 2.07 2.0529 0 0 0 2.0703-2.0527 2.07 2.0529 0 0 0-2.0703-2.0527zm-51.682 0.0293a2.07 2.0529 0 0 0-2.0703 2.0527 2.07 2.0529 0 0 0 2.0703 2.0527 2.07 2.0529 0 0 0 2.0703-2.0527 2.07 2.0529 0 0 0-2.0703-2.0527zm16.99 0.0332a2.07 2.0529 0 0 0-2.0703 2.0527 2.07 2.0529 0 0 0 2.0703 2.0527 2.07 2.0529 0 0 0 2.0684-2.0527 2.07 2.0529 0 0 0-2.0684-2.0527zm18.373 2e-3a2.07 2.0529 0 0 0-2.0703 2.0527 2.07 2.0529 0 0 0 2.0703 2.0527 2.07 2.0529 0 0 0 2.0703-2.0527 2.07 2.0529 0 0 0-2.0703-2.0527zm-9.7598 0.11523a2.07 2.0529 0 0 0-2.0703 2.0527 2.07 2.0529 0 0 0 2.0703 2.0527 2.07 2.0529 0 0 0 2.0684-2.0527 2.07 2.0529 0 0 0-2.0684-2.0527zm-16.99 0.10547a2.07 2.0529 0 0 0-2.0703 2.0527 2.07 2.0529 0 0 0 2.0703 2.0527 2.07 2.0529 0 0 0 2.0703-2.0527 2.07 2.0529 0 0 0-2.0703-2.0527zm35.082 0.0352a2.07 2.0529 0 0 0-2.0703 2.0527 2.07 2.0529 0 0 0 2.0703 2.0527 2.07 2.0529 0 0 0 2.0703-2.0527 2.07 2.0529 0 0 0-2.0703-2.0527zm-65.631 5.5781a2.07 2.0529 0 0 0-2.0703 2.0527 2.07 2.0529 0 0 0 2.0703 2.0547 2.07 2.0529 0 0 0 2.0703-2.0547 2.07 2.0529 0 0 0-2.0703-2.0527zm8.873 0.25781a2.07 2.0529 0 0 0-2.0684 2.0527 2.07 2.0529 0 0 0 2.0684 2.0527 2.07 2.0529 0 0 0 2.0703-2.0527 2.07 2.0529 0 0 0-2.0703-2.0527zm35.139 0.13867a2.07 2.0529 0 0 0-2.0703 2.0527 2.07 2.0529 0 0 0 2.0703 2.0527 2.07 2.0529 0 0 0 2.0703-2.0527 2.07 2.0529 0 0 0-2.0703-2.0527zm18.232 2e-3a2.07 2.0529 0 0 0-2.0703 2.0527 2.07 2.0529 0 0 0 2.0703 2.0527 2.07 2.0529 0 0 0 2.0703-2.0527 2.07 2.0529 0 0 0-2.0703-2.0527zm-44.377 0.1289a2.07 2.0529 0 0 0-2.0703 2.0527 2.07 2.0529 0 0 0 2.0703 2.0527 2.07 2.0529 0 0 0 2.0703-2.0527 2.07 2.0529 0 0 0-2.0703-2.0527zm51.398 0a2.07 2.0529 0 0 0-2.0703 2.0527 2.07 2.0529 0 0 0 2.0703 2.0527 2.07 2.0529 0 0 0 2.0703-2.0527 2.07 2.0529 0 0 0-2.0703-2.0527zm-16.6 0.0352a2.07 2.0529 0 0 0-2.0703 2.0527 2.07 2.0529 0 0 0 2.0703 2.0527 2.07 2.0529 0 0 0 2.0703-2.0527 2.07 2.0529 0 0 0-2.0703-2.0527zm-26.348 0.082a2.07 2.0529 0 0 0-2.0703 2.0527 2.07 2.0529 0 0 0 2.0703 2.0527 2.07 2.0529 0 0 0 2.0703-2.0527 2.07 2.0529 0 0 0-2.0703-2.0527zm52.807 0.28125a2.07 2.0529 0 0 0-2.0703 2.0527 2.07 2.0529 0 0 0 2.0703 2.0527 2.07 2.0529 0 0 0 2.0703-2.0527 2.07 2.0529 0 0 0-2.0703-2.0527zm-44.129 0.0586a2.07 2.0529 0 0 0-2.0684 2.0527 2.07 2.0529 0 0 0 2.0684 2.0527 2.07 2.0529 0 0 0 2.0703-2.0527 2.07 2.0529 0 0 0-2.0703-2.0527zm53.09 0.14062a2.07 2.0529 0 0 0-2.0703 2.0527 2.07 2.0529 0 0 0 2.0703 2.0527 2.07 2.0529 0 0 0 2.0703-2.0527 2.07 2.0529 0 0 0-2.0703-2.0527z" style="stroke-width:.079253"/>
		<path id="path1142" transform="matrix(16.223 0 0 -16.831 799.93 14583)" d="m545.45 750.76c-7.6162 0.0562-15.238-0.0827-22.85 0.18387-3.0264 0.23418-6.1974 0.19472-9.0379 1.3995-1.4084 0.57203-2.1612 2.0094-2.3367 3.4541-0.5439 2.9088-1.2493 5.8343-1.2576 8.8063-0.0445 1.2019 1.4052 1.2743 2.2709 1.4009 7.0742 0.62075 14.189 0.37309 21.282 0.45849 24.409 0.0127 48.818 0.0644 73.226-0.13684 3.3791-0.10327 6.7865 0.0258 10.142-0.43628 0.95422-0.0487 0.85893-1.1328 0.80433-1.8118-0.30143-3.5237-0.77617-7.1038-2.089-10.409-0.50718-1.353-1.8238-2.2407-3.2546-2.3065-5.2184-0.6729-10.497-0.36865-15.743-0.49537-17.052-0.0886-34.104-0.11348-51.156-0.10722zm-24.231 2.5462c1.35-0.0411 2.384 1.7322 1.4434 2.812-0.8052 1.4884-3.4118 0.70433-3.2961-0.98839-0.0204-0.99276 0.86615-1.8503 1.8527-1.8236zm78.911 0.11939c1.4662-0.0575 2.3639 1.9518 1.2811 2.9693-0.93587 1.0868-2.9367 0.5657-3.1487-0.87808-0.27444-1.1371 0.73227-2.1798 1.8676-2.0912zm-69.78 0.0193c1.7048-0.0375 2.3571 2.5604 0.81783 3.3027-1.1806 0.91643-2.9809-0.29943-2.7223-1.7116 0.0166-0.97533 0.98651-1.6265 1.9044-1.5911zm60.967 0.10646c1.706-0.0285 2.2516 2.5958 0.78813 3.3255-1.1668 0.70787-2.9147-0.21222-2.785-1.6282 3e-3 -1.0198 1.0223-1.775 1.9969-1.6973zm-51.77 0.0393c1.6839-0.12473 2.3926 2.434 0.96116 3.2755-1.2976 0.9924-3.3097-0.4078-2.813-1.9735 0.19177-0.8266 1.0261-1.3531 1.8519-1.302zm35.426 0.0113c1.3578 8e-3 2.3056 1.9006 1.2726 2.9093-0.91446 1.3629-3.4137 0.50435-3.191-1.1628-0.0669-1.0353 0.91958-1.8183 1.9185-1.7465zm-18.444 0.0143c1.5989-0.10758 2.3219 2.1955 1.1246 3.1421-1.1185 1.0798-3.3233 0.0469-2.9786-1.5493 0.0905-0.98696 0.87298-1.665 1.8541-1.5928zm8.5811 0.0952c1.1895-0.0641 2.0465 1.1972 1.6745 2.2901-0.29464 1.4728-2.5173 1.8168-3.2312 0.4693-0.81439-1.1872 0.12724-2.8454 1.5567-2.7594zm-16.993 0.13447c1.1644-0.0263 2.0758 1.1372 1.713 2.2563-0.29785 1.6761-3.1309 1.7631-3.4546 0.0674-0.35101-1.1671 0.4365-2.4247 1.7416-2.3237zm35.346 0.0399c1.5077 0.091 2.073 2.3168 0.84562 3.1616-1.0104 0.91861-2.8086 0.23367-2.9016-1.1317-0.21613-1.3277 0.78056-2.1359 2.056-2.0299zm-65.782 5.5675c1.5787-0.0267 2.263 2.2793 0.99334 3.1707-1.0326 0.84739-2.9912 0.19841-2.9143-1.2745-0.11439-1.1431 0.7975-1.9901 1.9209-1.8962zm8.6812 0.22007c1.3162-0.047 2.3523 1.4797 1.6728 2.651-0.64793 1.3986-3.073 1.2095-3.3415-0.37412-0.32643-1.0979 0.47779-2.3204 1.6687-2.2769zm53.409 0.13781c1.6399-0.0696 2.5351 2.3409 1.1306 3.267-1.0357 0.77277-2.8877 0.18741-2.8862-1.2409-0.13451-1.0432 0.6468-2.098 1.7556-2.026zm-18.113 8.4e-4c1.8833-0.0802 2.324 3.0445 0.52762 3.4845-0.92617 0.33759-2.0328-0.0823-2.3536-1.0434-0.47333-1.2146 0.56988-2.4751 1.826-2.4411zm-26.152 0.15515c1.303 0.0202 2.1962 1.6639 1.4682 2.7833-0.79959 1.3299-3.2108 0.91716-3.3398-0.70726-0.21166-1.1044 0.69553-2.2199 1.8717-2.0761zm51.337-2.9e-4c1.3238-0.0233 2.431 1.7081 1.4412 2.7861-0.79436 1.423-3.2603 0.79401-3.3049-0.83627-0.11658-1.0378 0.82725-2.0093 1.8637-1.9498zm-16.485 0.0498c1.5787-0.0267 2.263 2.2793 0.99335 3.1707-1.0418 0.84862-3.0443 0.21298-2.9157-1.3006-0.12598-1.1284 0.83872-1.9633 1.9223-1.87zm-26.329 0.0655c1.3991 0.0512 2.2563 2.018 1.1752 3.0062-0.93152 1.1086-3.0112 0.52248-3.1473-0.94768-0.18805-1.146 0.81854-2.1707 1.9721-2.0585zm52.773 0.28719c1.3364-7e-3 2.3043 1.8563 1.2935 2.8612-0.82403 1.2694-3.041 0.73123-3.2188-0.75842-0.22548-1.1608 0.74484-2.1945 1.9253-2.1028zm-44.233 0.0713c1.5475-0.12295 2.2983 1.969 1.3067 3.015-1.0017 1.1217-3.2186 0.3615-3.1481-1.2068-0.0375-0.9887 0.82546-1.9145 1.8414-1.8082zm53.023 0.13836c1.4476-0.15641 2.2996 1.6173 1.5735 2.7693-0.88589 1.5501-3.5321 0.60842-3.3621-1.1078 0.0303-0.9338 0.86974-1.6859 1.7886-1.6615z" style="fill:#d5f"/>
	</g>
</svg>
