<svg width="400pt" height="301pt" version="1.0" viewBox="0 0 400 301" xmlns="http://www.w3.org/2000/svg">
	<g id="cpu" transform="matrix(.012746 0 0 -.013651 33.41 152.91)">
		<path d="m6940 7714c-64-8-136-26-185-45-224-88-553-215-655-254-63-24-200-77-305-118-178-70-383-150-555-217-41-16-169-65-285-110-115-45-266-104-335-131-69-26-170-66-225-87l-100-38-7-75c-22-224-27-461-28-1199 0-448-5-1447-10-2219-7-1211-7-1408 6-1432 9-19 14-61 14-131 0-57 4-108 8-114s95-39 202-73 206-66 220-71 144-47 290-94c146-46 400-128 565-181 519-168 827-266 920-295 50-15 152-48 229-74l139-45 406 65c223 35 534 85 691 110 301 48 359 58 780 124 145 23 272 45 280 50 9 5 28 25 41 44s40 43 60 52 55 35 77 58c79 82 75-24 65 1742-4 858-7 1633-7 1724 1 91 5 419 8 730s9 788 12 1060 1 554-4 625l-9 130-42 61-43 62-82 15c-44 9-238 46-431 82-192 36-442 83-555 105s-266 51-340 65-227 44-340 66c-240 47-327 53-470 33zm109-2201c-2-1182 0-2618 4-3193l8-1045 32-52c52-85 133-162 204-196 63-29 64-29 211-25 107 4 228 18 447 52 165 26 433 67 595 92 258 39 387 59 520 80l35 5-46-29c-25-16-55-43-67-59-23-33 23-24-672-134-102-16-268-43-370-59-102-17-257-41-345-55s-286-46-440-70c-154-25-289-45-301-45-18 0-22 13-44 147l-23 147 6 2021c11 3126 18 4477 26 4510 7 29 10 30 87 41 43 6 92 12 108 13l29 1zm137 2110c18-36 19-92 24-1203l5-1165 40-62c37-58 45-64 110-89 93-34 237-48 755-74 228-11 512-25 630-31 291-15 371-11 404 20l26 24v-100c0-111-11-144-57-174-33-22-167-25-428-9-88 5-295 17-460 25s-388 20-495 25c-287 15-354 25-419 63-67 40-117 106-146 196l-22 66 10 1180c9 1147 8 1224-19 1323-11 38 22 26 42-15zm234-8c189-35 994-188 1160-220 102-19 246-47 320-60 221-41 221-41 255-88 28-40 29-48 37-187 9-172 8-484-2-499-7-12 16-16-1150 170-173 27-387 61-475 74-88 14-187 29-220 35-33 5-63 10-67 10s-9 168-11 373c-2 204-7 384-11 398l-8 27 49-10c26-5 82-15 123-23zm-664-1092c-4-593-9-2060-13-3261-4-1649-9-2182-17-2179-7 3-115 35-242 72-126 37-341 100-478 141-138 40-253 71-258 68-4-3-8 0-8 5 0 6-6 11-14 11-7 0-87 22-177 49s-375 110-634 185c-258 76-499 147-535 159l-65 22 4 2125c2 1169 6 2231 10 2360l6 234 75 29c41 15 129 48 195 71 66 24 188 69 270 100 83 32 204 77 270 101s188 69 270 100c83 31 204 76 270 100s138 50 160 59c39 15 326 121 610 226 77 28 171 63 208 77l68 26-3 61c-3 58-4 61-28 58-13-2-76-24-140-49-63-25-144-56-180-68-36-13-135-50-220-83-85-32-306-115-490-185-739-278-1292-487-1301-492-5-4-9 2-9 12 0 14 36 32 163 80 89 34 239 91 332 128 268 104 513 199 735 285 113 43 314 121 445 173 132 51 294 115 360 140s172 66 235 91 119 45 124 46c5 0 6-440 2-1077zm372-192-11-1190 23-73c43-140 148-248 256-263 88-12 276-26 554-40 162-8 421-22 575-30s348-15 430-16c140-1 153 0 189 22l39 23-6-124c-4-68-7-182-7-254v-131l-24 35c-19 29-37 39-108 63-76 24-98 27-229 27-79 0-349 7-599 15s-522 15-605 17l-150 3-70-36c-67-34-71-38-106-110l-37-75-3-1395c-3-1623-8-1519 88-1591 74-56 154-71 285-51 227 34 1003 146 1207 175 205 29 227 34 269 62 25 16 52 43 61 58 39 68 43 2 5-75-43-88-17-80-529-157-148-22-326-49-395-60-457-73-658-100-756-100-96 0-109 2-163 29-60 31-123 94-167 167l-25 42-7 1913c-10 2632-4 4408 13 4352 11-34 11-254 3-1232zm-428 1123c0-21-8-29-42-42-119-47-2313-858-2316-857-2 2 0 13 3 26 5 21 33 34 198 96 106 39 444 167 752 283s693 261 855 322 345 130 405 153c134 52 145 53 145 19zm785-699c88-14 203-32 255-40s151-24 220-35 253-40 410-64c157-25 401-63 543-85 142-23 262-41 267-41 6 0 10-81 10-211v-211l-37 6c-21 3-200 27-398 52-579 73-1038 132-1210 154-88 12-186 24-217 27l-58 6v479l28-6c15-3 99-17 187-31zm-125-485c36-5 243-32 460-60 217-27 571-72 785-100 215-28 434-55 488-62l97-12v-177l-32 6c-18 3-226 28-463 55-236 27-487 56-556 64-332 40-750 89-804 95l-60 6-3 98c-2 74 0 97 10 97 7 0 42-5 78-10zm312-265c211-24 518-61 683-80s336-39 380-45c44-5 157-18 250-29 94-12 178-21 188-21 16 0 17-19 11-342-4-189-11-344-15-346-5-2-18-21-31-43-17-30-29-40-57-46-20-3-146-1-281 6-135 6-380 18-545 26-662 32-781 43-866 75-47 18-60 29-87 75l-32 53v381c0 241 4 381 10 381 5 0 182-20 392-45zm548-1671c80-3 281-9 446-14 377-10 396-15 457-104l40-60 10-2562-43-62c-60-89-88-107-190-120-84-11-878-126-1220-177-243-37-319-28-382 42-36 40-38 109-38 1516v1380l30 64c27 58 36 67 83 89l52 24 305-5c168-3 370-8 450-11zm-3425-2719c237-69 482-141 545-160 63-18 171-50 240-69 69-20 154-45 190-56 226-67 298-89 836-246l132-39 21-119c11-66 19-121 17-123s-68 17-147 42c-326 105-426 137-669 215-140 45-379 121-530 170s-354 114-450 144c-542 174-650 211-650 223 0 19 15 17 115-16 50-16 209-66 355-111s335-104 420-130c85-27 265-83 400-125s315-98 400-125c695-217 690-216 701-199 5 8 8 37 7 64-3 57 16 46-193 110-228 70-1572 480-1875 571-173 53-319 101-325 106-7 7-3 8 10 5 11-4 214-63 450-132zm-250 21c631-191 1077-327 1205-367 52-16 284-87 515-157l420-128 3-32c2-18 0-32-4-32s-78 22-163 49c-86 27-221 70-301 95-80 24-241 75-359 111-118 37-219 68-225 69-6 2-83 26-171 54-133 42-1060 331-1117 348-11 3-18 15-18 30 0 19 4 24 18 20 9-3 98-30 197-60z"/>
		<path d="m8088 7343c-9-2-19-12-22-21-9-31 19-481 30-492 6-6 93-25 194-42 178-29 184-30 197-12 11 15 12 64 7 254-4 152-10 239-18 247-6 7-85 26-174 42-163 31-181 33-214 24zm197-82 140-28 6-199c4-109 5-201 3-203s-68 7-146 20l-143 24-7 135c-3 74-8 168-11 208-3 48 0 72 7 72 6-1 74-13 151-29z"/>
		<path d="m7456 7282c-11-17-16-108-8-121 6-8 49-20 102-28 115-18 125-13 114 64-3 28-9 56-13 62-13 21-184 41-195 23z"/>
		<path d="m7726 7224c-20-19-21-97-2-113 17-14 167-37 189-28 13 5 17 19 17 59 0 29-4 58-8 65-4 6-36 14-72 18-36 3-75 8-87 11-12 2-29-3-37-12z"/>
		<path d="m6676 7342c-10-16-16-315-21-1072-3-415-10-1137-15-1605-29-2655-34-3495-21-3495 22 0 19-149 41 2115 5 556 12 1172 15 1370s8 765 11 1260 7 905 9 912c10 30 6 518-3 521-6 2-13-1-16-6z"/>
		<path d="m4955 5618c-16-6-46-22-65-36-19-15-43-26-54-27-27 0-70-65-96-145-12-35-27-75-35-90-40-79-42-252-5-427 21-103 86-244 122-267 30-18 116-36 177-36 44 0 54 5 102 48 30 26 55 50 57 54 2 3 16 26 32 50 65 98 123 441 100 595-20 136-80 231-172 273-47 21-115 25-163 8z"/>
		<path d="m4597 3473c-3-5-8-258-12-563-6-461-5-558 7-567 11-9 71-24 253-63 22-5 150-34 285-65 135-30 252-55 262-55 22 0 24 37 26 580 1 250 5 501 9 557 4 73 2 107-6 117s-44 16-114 20c-56 3-221 13-367 21s-282 17-302 20-39 2-41-2z"/>
		<g transform="matrix(-9.0867 0 0 -13.996 10819 9995.5)">
			<ellipse transform="matrix(.89516 -.44575 .43897 .8985 0 0)" cx="90.05" cy="284.5" rx="23.307" ry="23.716" style="fill:#0ff"/>
			<ellipse cx="205.28" cy="215.46" rx="17.69" ry="18.499"/>
			<path d="m204.77 213.29c-2.9541-2.0561-0.84668-3.9199-5.3037-8.5253-2.2627 1.778-4.9326 5.4241-4.9329 10.241-3.3e-4 6.5872 4.6985 11.927 10.635 11.927 5.9361-4.3e-4 10.748-5.3402 10.748-11.927-3.2e-4 -5.2799-2.0542-8.7539-4.6659-10.002-4.2505 4.366-5.3032 8.286-6.4802 8.2859z" style="fill:#0ff"/>
			<path d="m205.29 205.27a8.7571 9.9188 0 0 0-8.7568 9.9199 8.7571 9.9188 0 0 0 8.7568 9.9185 8.7571 9.9188 0 0 0 8.7568-9.9185 8.7571 9.9188 0 0 0-8.7568-9.9199z"/>
			<rect x="204.13" y="201.02" width="2.1101" height="11.7" ry="0" style="fill:#0ff"/>
		</g>
	</g>
	<g id="impresora" transform="matrix(.016347 0 0 -.014605 245.53 272.06)">
		<path d="m2704 5279c-100-12-178-43-229-93-38-37-47-56-93-196-94-285-210-683-251-865-23-99-49-210-57-247l-16-68-37 5c-168 24-944 79-995 71-27-5-56-22-101-63-35-31-61-61-58-67 3-5 2-6-4-3-13 8-76-57-66-68 5-4 3-5-3-2-6 4-25-8-42-26-17-17-51-52-76-76-25-25-42-49-39-54 3-6 1-7-4-4-15 10-106-91-99-109 3-9 1-12-4-9-15 9-30-40-26-86 4-50 31-88 77-111 39-20 754-130 1477-228 152-20 236-36 264-50 21.729-10.371 116.87-97.634 152.04-96.076 78.288 3.467 127.87 9.2431 34.52 9.8287-13 8-161.56 86.247-146.56 86.247 16 0 346-47 378-54 8-2-4.554-10.419-30-12 0 0-275.79-13.483-235.96-30.076 119.58-9.4355 110.05-4.5382 212.55 6.8736 50.149 10.041 67.579 15.826 71.404 18.202 6 8 12 11 12 7 0-5 6-4 13 2 12 11 309-26 1212-148 443-60 722-91 807-91 207 1 418 96 510 228 18 26 89 150 159 275l126 226-41 11c-59 16-545 94-794 127l-214 29 7 90c23 311 42 465 96 783 97 572 92 531 79 582-6 25-23 58-38 73-25 27-120 82-127 75-2-2 21-16 51-32 84-44 102-97 78-223-30-157-124-718-124-743 0-4-7-7-15-7-18 0-18 2-4 26 8 12 9 24 2 35-7 12-16-26-32-139-13-86-20-163-17-171s2-13-3-10c-4 3-11-18-14-47-16-155-40-276-56-280-9-2 0-2 19 0 28 3 32 1 20-7-12-9-10-10 12-6 34 8 58-2 51-20-3-8 0-14 6-14s11-4 11-10c0-5-7-10-15-10s-15 3-15 8c0 4-15 8-33 9-17 0-115 15-217 32-171 28-309 48-815 116-104 14-251 34-325 45-74 10-166 22-205 26-49 5-64 10-50 15 11 5-4 6-34 2-36-4-52-3-48 4s-9 10-36 10c-23 0-94 7-157 16s-182 24-265 32c-250 25-247 24-240 45 3 11 26 107 50 214 34 153 116 470 162 629 6 21 4 21 333 2 447-26 1483-103 1878-141 41-4 62-2 62 5 0 6-10 11-22 12-22 1-22 1 2 9 14 4 21 9 15 9-5 1-2 6 8 12 14 8 17 18 12 40-4 16-2 29 3 29 13 0 25 149 17 205-6 38-11 45-30 45-13 0-25-5-27-12-3-9-6-9-12 0-4 7-2 12 3 12 16 0 13 30-3 36-8 3-24 0-36-6-27-14-73 11-64 35 4 10 0 15-14 15-12 0-25 6-29 13-11 18-69 41-82 32-6-3-11 1-11 10 0 8-10 20-22 24-21 8-21 10-5 16 10 4 29 3 43-3 14-7 24-8 24-2 0 14-46 23-78 17-31-6-59 22-41 40 7 7 1 13-17 17-22 6-25 9-13 17 7 5 21 9 29 9 13 0 13-2 0-11-12-9-12-10 3-5 10 3 22 6 25 6 4 0 0 5-8 10-16 11 20 9 149-9 41-6 77-9 79-6 3 3 1 5-4 5s-36 5-69 10c-117 20-269 39-277 34-4-3-72 2-150 10-495 52-1119 84-1274 65z"/>
		<path d="m5892 3184c-3-47-195-523-277-684-33-65-76-113-136-151-26-18-46-36-43-40 3-5-2-6-10-3s-28-2-45-10c-52-27-190-55-326-66-290-23-410-68-489-183-20-29-43-73-52-99-13-41-19-47-37-43-12 2-65 9-117 15-242 29-970 137-1405 209-264 44-581 96-705 115-1067 168-1528 248-1543 270-4 6-5 19-3 29 2 9 0 15-5 11-8-5-13 13-12 44 1 7-2 11-5 8-9-10-34 33-26 46 4 6 3 8-3 5-6-4-19 6-29 21-20 31-70 80-120 118-19 15-31 31-27 37 3 5 1 7-5 3-6-3-37 9-69 27-32 19-90 53-129 75-39 23-80.888 58-97.888 77l-14.174 35.124-9.9403 36.644-4.0048 54.241 10.834 52.188 634.33 630.83s228.62 48.141 235.22 52.663c43.854 30.059-233.29-18.446-253.46-35.899-91.237-78.94-302.67-276.96-457.65-430.3-90.515-89.556-161.75-141.73-191.81-207.44-7.2264-43.718 19.545-200.05 19.545-200.05 18-146 81-505 159-904 19-97 44-195 55-218 29-56 99-100 244-152l118-43-57-57c-31-31-123-106-205-165-156-114-165-126-133-172 26-37 184-108 315-141 39-10 69-22 67-27-1-5-85-80-187-167-103-87-187-165-189-173s6-29 17-48c18-29 29-35 83-46 35-6 72-16 83-20 11-5 90-25 175-45 98-23 173-47 205-65 29-17 191-70 393-130l342-101 333-39c238-27 393-51 547-84 118-25 305-59 415-75 110-17 217-33 237-37 36-6 39-5 53 29 14 33 215 326 268 389l22 27 80-14c181-30 479-44 545-26 19 5 45 42 110 157 47 82 107 185 133 227 42 68 52 77 78 77 18 0 29-5 29-14 0-44 618-20 767 30 92 31 130 63 172 144 45 86 176 382 228 515 100 257 120 327 152 525 31.854 203.59 91.399 767.75 97.458 1020.9-30.09-8.5528-412.37 145.37-299.46 177.08 199.44-100.03 296-148 295-174zm-4406-953c-3-5 35-9 88-9 51 0 102-5 112-10 10-6 82-17 159-26 122-14 242-30 310-41 11-2 35-4 53-4 23-1 31-5 26-13s-2-9 11-4c19 7 89-6 160-30 22-7 60-15 85-18s68-10 95-17c28-6 60-11 73-11 12 0 22-3 22-7 0-7 27-10 169-15 57-3 107-8 110-13 3-4 35-8 71-8s90-6 120-12c73-16 235-41 340-53 47-6 104-17 127-26 24-8 47-13 53-9 13 8 161-14 174-26 6-5 36-9 68-9s58-4 58-8c0-17-158-479-199-582-66-166-154-323-263-469-149-200-121-181-236-161-53 10-182 34-287 53-104 20-282 52-395 72-350 61-616 114-850 170-124 29-295 68-380 85-85 18-231 52-325 76-93 24-213 54-265 65-52 12-101 24-108 28s59 61 178 150c203 153 277 222 342 317 40 58 149 272 241 472 26 56 52 102 58 102 5 0 8-4 5-9z"/>
		<g transform="matrix(7.0993,0,0,-7.0932,2801.4,3697.3)">
			<ellipse transform="matrix(.89516 -.44575 .43897 .8985 0 0)" cx="90.05" cy="284.5" rx="23.307" ry="23.716" style="fill:#0ff"/>
			<ellipse cx="205.28" cy="215.46" rx="17.69" ry="18.499"/>
			<path d="m204.77 213.29c-2.9541-2.0561-0.84668-3.9199-5.3037-8.5253-2.2627 1.778-4.9326 5.4241-4.9329 10.241-3.3e-4 6.5872 4.6985 11.927 10.635 11.927 5.9361-4.3e-4 10.748-5.3402 10.748-11.927-3.2e-4 -5.2799-2.0542-8.7539-4.6659-10.002-4.2505 4.366-5.3032 8.286-6.4802 8.2859z" style="fill:#0ff"/>
			<path d="m205.29 205.27a8.7571 9.9188 0 0 0-8.7568 9.9199 8.7571 9.9188 0 0 0 8.7568 9.9185 8.7571 9.9188 0 0 0 8.7568-9.9185 8.7571 9.9188 0 0 0-8.7568-9.9199z"/>
			<rect x="204.13" y="201.02" width="2.1101" height="11.7" ry="0" style="fill:#0ff"/>
		</g>
	</g>
	<g id="monitor" transform="matrix(.17948 0 0 .19844 249.42 60.242)">
		<g id="pantalla" transform="matrix(.1 0 0 -.1 0 430)">
			<path d="m177 4276c-18-19-23-31-8-22 14 9 20-343 31-1952 6-832 14-1520 17-1530 15-40 43-41 345-7 123 13 374 40 558 60s373 40 420 45 193 21 325 35 257 28 278 31c28 4 37 2 37-9 0-27-43-122-69-151-48-53-55-55-456-101-327-38-290-28-333-92l-37-56 35-29c19-16 123-74 230-130 107-55 291-149 407-209 117-60 232-113 255-119 52-11 147 1 443 59 211 42 677 121 709 121 18 0 55 6 82 14s77 20 111 27c81 15 100 35 85 88-11 34-36 58-208 192-380 298-371 291-420 297-24 2-139-8-254-23-115-16-213-26-216-22-4 4 1 35 10 69 29 106 35 117 70 123 52 9 604.39 64.861 721 76l150 14c17 2 116 13 220 24 630 75 158.5 21.794 630 75 121 13 163 21 173 34 9 12 12 144 12 581 0 311 2 638 5 726s7 397 10 686c5 540 3 582-33 593-10 3-96 15-192 26s-249 30-340 40c-91 11-419 49-730 85-807 93-1040 120-1375 161-117 14-217 25-555 64-248 29-584 68-775 91-264 32-347 35-368 15zm368.1-245.83c3930.4-446.51 0 0 3775.8-427.18 15.203-1154.6 1.5631-927.48-13.784-1981.8l-3750.9-263.88zm1436.9-3802.2c87-48 162-88 168-88 12 0 13-20 0-40-8-12-11-12-27 2-10 9-63 39-118 68-215 112-241 130-231 156 7 17-12 26 208-98z"/>
		</g>
		<g id="btn_encendido" transform="matrix(.63079 0 0 .64248 286.61 154.06)">
			<ellipse transform="matrix(.89516 -.44575 .43897 .8985 0 0)" cx="90.05" cy="284.5" rx="23.307" ry="23.716" style="fill:#0ff"/>
			<ellipse cx="205.28" cy="215.46" rx="17.69" ry="18.499"/>
			<path d="m204.77 213.29c-2.9541-2.0561-0.84668-3.9199-5.3037-8.5253-2.2627 1.778-4.9326 5.4241-4.9329 10.241-3.3e-4 6.5872 4.6985 11.927 10.635 11.927 5.9361-4.3e-4 10.748-5.3402 10.748-11.927-3.2e-4 -5.2799-2.0542-8.7539-4.6659-10.002-4.2505 4.366-5.3032 8.286-6.4802 8.2859z" style="fill:#0ff"/>
			<path d="m205.29 205.27a8.7571 9.9188 0 0 0-8.7568 9.9199 8.7571 9.9188 0 0 0 8.7568 9.9185 8.7571 9.9188 0 0 0 8.7568-9.9185 8.7571 9.9188 0 0 0-8.7568-9.9199z"/>
			<rect x="204.13" y="201.02" width="2.1101" height="11.7" ry="0" style="fill:#0ff"/>
		</g>
	</g>
	<g id="mouse" transform="matrix(.027828 0 0 -.027622 162.01 199.93)">
		<path d="m1075 1870c-27-11-86-46-130-77l-80-57-220-1c-250-1-332-16-454-80-91-48-181-137-181-178 0-27 17-20 40 18 50 81 166 154 300 190 74 20 435 34 451 18 5-5-26-39-80-85-148-128-197-202-180-276 12-55 74-135 219-287 195-202 365-413 540-674 83-122 87-127 155-161s73-39.12 185-45.535c98.472 7.4156 124 15.535 169 33.535 80 34 168 99 222 167 62 75 76 107 95 203 41 206-32 458-199 686-115 158-452 461-638 574-87 53-141 61-214 32zm165-25c53-27 253-175 334-247l49-44-54-41c-118-92-112-85-101-138 17-78 7-81-60-20-33 30-77 65-99 78-30 17-39 28-39 50 0 36-72 115-133 145-24 12-67 23-94 25-31 2-61 11-80 25-17 12-43 26-58 32l-28 11 79 56c142 100 196 113 284 68zm-295-177c25-16 35-30 35-49 0-29 32-63 134-138 62-47 72-52 116-50 43 2 55-2 102-38 29-22 71-57 93-76 39-36 40-36 14-37-15 0-43 7-62 15-20 8-41 15-46 15s-86-70-180-155-176-155-182-155c-15 0-299 231-342 280-46 50-71 104-63 136s121 151 215 226c83 66 99 69 166 26zm182-53c98-49 167-153 113-170-30-10-58 3-135 60-89 67-119 100-112 119 10 25 76 20 134-9zm638-197c132-136 194-219 260-353 85-171 113-334 85-486-34-179-214-346-408-379-89-15-164-2-251 42l-63 33-38 116c-70 213-174 397-300 528-59 61-61 65-43 81 10 9 86 78 170 154l152 137 55-17c52-16 56-16 82 1 26 16 26 20 21 81l-6 63 75 61c58 46 79 58 92 51 9-5 62-56 117-113zm-940-333c231-182 322-287 424-492 47-94 114-268 88-229-148 224-390 528-567 711-74 77-146 156-160 175-23 34-22 33 26-10 27-25 112-94 189-155z"/>
	</g>
	<g id="teclado" transform="matrix(.009364 0 0 -.0098189 85.602 270.1)">
		<path d="m187 4426c-62-17-116-61-147-122l-25-48-3-766c-1-506 1-760 8-750 5.3678 8.4351-30.447-2072.1-22.28-2277.1 2.4833-62.355 37.764-213.34 38.234-177.47 1.3311 101.48 4.0459 2399.6 10.046 2441.6 2 15 6 361 10 768 3 430 10 753 15 772 14 45 45 80 90 103 38 20 85 20 5849 20s5811 0 5849-20c45-23 76-58 90-103 5-19 12-342 15-772 3-407 2.297-780.55 7.297-799.55l4.127-2461.6-11889-23.151-88.404 252.21c17.357 23.247-6.8718-365.14 23.499-365.08 790.42 1.5698 12005 3.7984 12004 50.025-4.033 439.02-31.762 2602.1-25.452 2592.2 7-10 9 244 8 750l-3 765-25 50c-31 62-92 110-160 124-81 17-11569 14-11633-3z"/>
		<path d="m430 3993c-50-19-50-20-50-288 0-240 1-254 21-279l20-26h254c234 0 255 1 276 19l24 19v261c0 236-2 262-18 278s-43 18-265 20c-136 1-254-1-262-4zm493-49c15-5 17-31 17-239 0-223-1-233-21-251-19-17-40-19-228-21-113-1-218 1-233 4l-28 5 2 237 3 236 2-228 3-227 228 2 227 3 3 225c1 123 1 229-2 235-2 6-24 9-50 7-44-4-45-5-31-25 12-17 15-55 15-170 0-130 3-153 21-188 26-51 18-61-20-25-27 26-35 28-145 33l-116 6-50-31c-28-17-50-29-50-27s9 24 20 50c17 40 20 69 20 193 0 121 3 148 17 164 15 17 14 18-15 18-18 0-32 4-32 9 0 11 417 15 443 5z"/>
		<path d="m1262 3990c-12-5-27-21-32-35-6-15-10-133-10-266v-240l25-24 24-25h976c962 0 975 0 995 20 19 19 20 33 20 278 0 141-4 262-8 268-22 33-44 34-1009 33-550 0-968-4-981-9zm283-60c129 0 125 5 125-181 0-130 3-155 20-189 26-52 26-69-2-43-44 39-65 44-181 41-108-2-112-3-154-35-24-18-43-31-43-29s9 25 20 51c17 39 20 69 20 188 0 93 5 150 13 167 12 24 50 41 75 34 8-2 56-4 107-4zm598-22c14-17 17-42 17-167 0-124 3-153 20-190 22-48 20-62-5-37-39 39-74 47-183 45-99-2-110-4-149-30-24-16-43-26-43-23s9 22 20 44c17 34 20 59 20 193 0 201-6 194 179 189 92-3 108-6 124-24zm372 22c128 0 125 5 125-178 0-136 2-151 25-200 14-30 25-56 25-58s-20 11-43 29c-43 32-47 34-149 36-110 2-159-9-187-42-26-32-31-17-10 26 20 38 22 55 20 187-1 102 2 152 11 170 13 24 51 41 76 34 8-2 56-4 107-4zm600-23c12-17 15-54 15-170 0-128 3-153 20-187 11-22 20-42 20-45 0-4-19 7-42 24-42 29-46 30-155 30-106 0-114-2-157-30-25-15-46-26-46-23 0 2 9 22 20 44 17 34 20 59 20 187 0 206-5 200 182 195 97-3 109-5 123-25z"/>
		<path d="m3484 3990c-12-5-24-13-28-18-3-5-7-127-8-271l-3-263 24-19c22-18 53-19 997-19 961 0 974 0 994 20 19 19 20 33 20 278 0 207-3 262-14 278-14 19-37 19-988 21-537 1-983-2-994-7zm396-80c5-8 10-80 10-160 0-133 2-150 25-197 23-51 21-69-6-37-29 35-66 44-180 44-109 0-112 0-151-31-21-17-40-30-42-28s6 24 17 49c18 39 21 62 19 185-4 204-4 204 190 195 82-4 111-9 118-20zm968 7c9-6 12-50 12-160 0-140 2-156 24-202 14-27 23-52 21-54s-18 8-35 23c-42 35-61 38-183 34-96-3-107-5-140-31-41-31-46-23-19 26 14 27 17 58 17 188 0 169 5 185 53 191 45 5 236-6 250-15zm485-4c15-14 17-36 17-164 0-125 3-154 20-194 11-26 20-49 20-51 0-3-20 9-45 26-44 30-47 31-153 29-107-1-142-10-177-45-25-26-28-10-6 35 18 35 21 58 21 188 0 205-5 201 180 195 78-3 110-8 123-19zm-969-5c13-18 16-53 16-168 0-123 3-152 20-189 11-24 19-45 17-47-1-1-23 11-47 27-45 30-46 30-162 27-112-3-118-4-145-30-16-16-32-28-36-28-7 0 12 61 24 75 5 5 9 79 9 164 0 201-8 191 161 191 121 0 129-1 143-22z"/>
		<path d="m5710 3993c-38-14-40-30-40-299 0-260 0-263 22-278 20-14 131-16 993-16s973 2 993 16c22 15 22 18 22 278 0 211-3 266-14 282-14 19-37 19-988 21-535 1-980-1-988-4zm1843-80c15-14 17-36 17-165s3-155 20-190c29-59 25-64-22-29-41 30-44 31-158 31-115 0-116 0-153-31-21-17-40-29-42-27-3 3 5 24 16 48 18 38 21 60 20 184-2 204-2 204 183 198 75-3 106-8 119-19zm-1453-2c5-11 10-82 10-160 0-127 2-146 24-196 14-30 23-55 20-55s-21 12-41 27c-33 26-44 28-152 31l-117 4-47-36c-26-20-47-34-47-33 0 2 11 27 25 55 23 48 25 63 25 198 0 81 5 154 10 165 10 17 22 19 145 19s135-2 145-19zm482 2c16-14 18-33 18-164 0-125 3-154 20-194 11-26 20-49 20-51s-17 7-38 21c-34 22-53 26-155 32l-115 6-43-31c-23-18-44-30-46-28s5 21 16 42c19 34 21 56 21 189 0 203-7 195 157 195 104 0 130-3 145-17zm489 0c10-12 14-56 16-168 1-132 4-159 22-196 12-23 19-44 16-47-2-2-21 10-42 27-37 31-38 31-154 31-113 0-117-1-157-30-48-34-50-31-22 28 17 35 20 61 20 187 0 82 5 155 10 166 10 17 22 19 144 19 112 0 136-3 147-17z"/>
		<path d="m7900 3989c-13-6-28-15-32-22s-8-127-8-268c0-205 3-259 14-275 14-18 35-19 772-22 668-2 760-1 780 13l24 15v263c0 144-4 267-8 273-22 33-48 34-784 33-457 0-742-4-758-10zm1510-59c6-11 10-104 10-227 0-219-6-251-45-261-38-10-1414-12-1440-2l-25 10 2 222 3 223 2-217 3-218h450v230c0 127-1 233-2 238-3 6-23 7-82 3-18-1-18-2-3-13 14-11 17-36 18-163 2-134 4-156 25-203 13-29 24-55 24-58s-16 8-35 25c-46 40-63 44-188 39-96-3-107-5-140-31-42-32-46-24-17 33 17 34 20 59 20 189 0 120 3 153 15 165 20 20 19 25-5 19-11-3-20-1-20 4 0 7 256 11 710 11 689 1 710 1 720-18z"/>
		<path d="m8430 3700v-240h450v468c0 7-100 11-100 4 0-2 7-10 15-18 12-12 15-45 15-159 0-131 2-149 24-200 24-53 22-71-5-39-27 33-63 42-176 42l-113 1-45-34c-25-19-45-32-45-30 0 3 10 27 23 53 22 43 23 58 21 187-1 104 2 147 12 167 8 15 14 28 14 30s-20 4-45 5l-45 2z"/>
		<path d="m8940 3701v-241h449l3 236c2 130 0 238-3 240-4 2-27 1-52-2-40-6-44-8-31-21 8-8 14-20 14-26 1-7 1-74 0-149-1-128 1-140 25-187 14-28 23-51 19-51-3 0-23 14-44 30-37 29-40 30-152 30s-116-1-156-30c-23-16-44-30-47-30s4 19 16 43c20 38 22 55 20 187-1 112 2 151 13 173 12 21 12 27 2 27-8 0-28 3-45 6l-31 7z"/>
		<path d="m405 3005-25-24v-1253c0-1118 2-1256 16-1276l15-22h3643c3576 0 3643 0 3660 19 16 18 18 98 17 1282 0 1144-1 1263-16 1278-14 15-332 16-3651 19l-3635 2zm406-64c17-20 19-40 19-173 0-131 3-154 21-189 11-23 18-43 16-45-2-3-19 7-37 22-31 27-34 27-162 25-130-2-132-2-170-33l-39-30 18 38c9 22 24 48 33 58 8 11 11 17 5 14-15-9-7 292 8 310 21 26 51 32 160 29 101-2 110-4 128-26zm479 4c18-17 20-30 20-167 0-129 3-155 20-190 28-59 25-64-17-32-37 28-38 28-163 25-126-2-145-7-184-46-21-21-20-17 4 40 17 39 20 69 20 191 0 84 5 154 11 165 17 32 47 38 161 35 88-2 111-6 128-21zm486 3c14-13 17-42 19-175 1-140 4-163 23-200 30-57 28-60-13-24-20 17-43 31-53 32h-131c-112 0-115-1-152-31-36-28-38-29-30-8 5 13 16 37 25 53 13 24 16 63 16 187v157l27 15c42 21 246 17 269-6zm485-7c17-20 19-41 19-166 0-122 3-150 20-191 11-26 19-48 17-50s-17 7-33 21c-31 27-29 27-184 25-94-1-109-3-139-25-19-13-37-23-39-21s6 22 17 45c19 35 21 58 21 193 0 84 4 158 8 164 19 28 50 34 160 32 106-3 115-5 133-27zm487 2c8-12 12-62 12-165 0-139 2-152 25-198 14-27 25-52 25-55s-17 8-37 24c-37 29-40 30-165 32-131 2-147-2-192-46-22-22-20-12 6 38 19 38 21 55 19 175-3 145 8 198 43 213 11 5 73 7 136 4 92-4 117-9 128-22zm485-5c15-18 18-40 16-170-1-131 2-153 20-190 11-23 19-43 18-45-2-1-20 9-40 22-34 23-44 25-164 25h-128l-40-32c-22-18-37-28-34-23 45 81 49 104 49 253 0 155 5 175 45 185 11 3 70 4 130 1 96-4 112-8 128-26zm478 6c17-15 19-32 19-165 0-136 2-153 25-204l24-56-37 31-37 30h-131c-120 0-134-2-160-22-16-12-32-27-36-33-16-22-7 17 12 55 17 34 20 59 20 190 0 147 1 152 25 176s28 24 140 20c93-3 120-8 136-22zm485 1c11-14 14-55 14-167 0-139 2-152 25-198 33-65 32-68-10-31l-36 31h-133c-122 0-136-2-162-22-16-12-32-27-36-33-16-22-7 8 16 53 21 42 23 57 19 132-2 47-1 119 4 160 10 97 18 102 171 98 99-3 116-6 128-23zm486-4c16-20 18-42 18-173s3-154 21-189c11-23 19-43 17-45s-21 8-41 23c-36 25-42 26-160 24-111-2-125-4-156-26-19-14-36-23-38-21s6 24 17 50c17 41 20 69 20 194 0 81 4 152 8 159 16 25 60 33 166 30 99-3 111-6 128-26zm477 5c20-18 21-29 21-168 0-148 7-183 48-252 3-6-13 5-35 23l-40 32h-250c-7-1-28-15-48-32-41-36-41-35-15 22 17 38 20 66 20 197 0 151 0 153 26 179 25 24 28 25 139 22 94-3 117-7 134-23zm488 1c16-15 18-39 20-172 1-131 5-161 22-201 25-56 26-60 5-39-41 41-58 45-188 46l-128 1-39-32c-39-31-39-31-29-5 5 14 16 38 25 55 11 22 15 64 15 178 0 155 5 175 45 185 11 3 68 5 127 4 88-2 111-5 125-20zm484-6c17-20 19-40 19-166 0-121 3-151 20-190 26-61 26-62-14-31-32 24-41 26-159 27-124 1-152-5-185-38-24-23-25-7-3 36 19 35 21 58 21 194 0 200-2 198 173 194 101-2 110-4 128-26zm485 4c11-14 14-55 14-166 0-135 2-151 25-204l26-57-76 62h-260l-38-31c-20-17-37-28-37-26s10 26 22 53c19 44 21 64 19 191-4 201-1 204 177 200 99-2 116-5 128-22zm977-3c15-13 17-35 17-168 0-129 3-159 20-198 10-25 17-46 14-46-4 0-19 11-36 25-16 14-35 25-41 25-7 0-175 1-374 2l-362 1-35-27c-20-15-36-25-36-22 0 2 9 25 20 51 17 39 20 69 20 186 0 147 6 174 43 189 12 4 182 6 377 3 300-5 358-8 373-21zm-6540-500c15-13 17-35 17-162 0-134 2-150 24-196 13-27 22-51 21-53-2-1-20 9-39 24-36 27-37 27-221 30-102 2-209 0-239-4s-53-4-50 1c3 4 1 8-5 8-5 0-12-4-15-9s-22-18-41-29l-34-21 19 50c17 41 20 74 20 190 0 147 6 174 43 188 12 5 126 6 252 4 187-5 233-8 248-21zm490-3c14-18 17-43 17-170 0-142 1-152 26-201l26-52-23 17c-13 9-35 25-48 35-20 14-48 17-145 18-125 1-129 0-177-50-25-26-24-5 2 46 19 37 21 57 20 193l-2 153 28 22c26 21 34 22 143 16 101-5 117-9 133-27zm445 20c19-4 39-14 43-21 5-7 9-80 9-161 0-138 2-151 25-197 14-27 25-52 25-55s-17 8-38 24c-37 30-40 31-162 34l-124 3-43-33c-24-18-43-31-43-29s9 25 21 51c18 41 21 69 23 202 1 151 2 155 25 174 21 17 38 20 114 18 49-1 105-5 125-10zm511-8c19-11 21-21 23-139 1-70 1-139 0-155-1-15 9-50 23-77 14-28 23-50 19-50-3 0-19 11-36 25-32 27-28 27-177 29-100 1-107 0-144-27-38-28-39-28-32-5 4 13 14 35 21 50 10 19 14 70 14 177 0 143 1 151 23 172 21 20 29 21 134 16 61-3 120-10 132-16zm494-12c14-18 17-43 17-171 0-131 3-154 21-189 11-23 19-43 17-45s-20 8-40 22c-32 23-46 26-154 28l-119 3-47-34-48-35 25 54c23 49 25 64 25 204 0 198-1 197 175 189 96-4 112-8 128-26zm476 7c20-18 21-29 21-170 0-129 3-157 20-195 11-24 19-46 17-48-2-1-17 8-33 22s-38 26-49 26c-192 12-222 8-289-36l-29-19 12 21c28 53 33 85 31 214-1 146 7 184 42 199 13 5 71 8 129 7 89-2 110-5 128-21zm487-1c10-14 14-57 14-167 0-139 2-152 25-198 14-27 25-52 25-55 0-2-21 11-46 30l-46 35-121-6c-109-5-125-8-154-30-17-13-34-24-36-24-3 0 4 19 15 42 18 38 21 61 20 186-2 208 2 213 177 209 98-3 115-6 127-22zm481 2c16-15 18-39 19-171 2-132 5-159 23-199 28-60 27-66-6-35-46 43-64 47-182 44-107-3-114-4-156-34l-43-30 24 54c22 50 24 68 24 203 0 193-1 192 172 188 87-2 111-6 125-20zm484-6c17-20 19-41 19-170 0-124 3-153 20-190 11-24 19-45 17-47-1-1-22 10-45 26-42 28-46 29-155 26-110-3-139-10-172-42-25-25-27-11-5 37 17 38 20 66 20 196v152l28 21c25 20 36 22 140 18 105-3 115-5 133-27zm456 18c15-5 31-16 35-22 4-7 8-79 8-160 0-138 2-151 25-197 14-27 25-52 25-56 0-3-19 9-42 28-42 33-43 33-158 34-111 2-116 1-158-27-24-16-45-29-48-29-2 0 5 19 17 43 20 38 22 55 20 177-2 153 5 190 40 207 30 16 197 17 236 2zm511-13c14-14 17-40 18-169 1-133 3-158 22-201 12-27 22-50 22-53 0-2-18 11-41 29l-41 33-123-1c-118 0-125-1-159-28-41-31-44-26-16 32 17 35 20 61 20 192 0 196-5 190 168 186 90-2 117-6 130-20zm484-6c15-19 18-44 18-171 0-137 2-153 24-199 13-28 21-50 18-50s-21 15-40 33l-33 32h-126c-76 0-131-4-137-11-16-16-66-47-66-41 0 3 9 24 20 48 17 38 20 66 20 195 0 197-1 196 175 190 98-4 111-7 127-26zm478 5c18-16 20-32 20-166 0-135 2-153 24-203l24-54-42 30c-42 29-47 30-164 31s-121 0-157-27c-20-15-38-26-39-25-2 2 6 24 16 48 17 37 20 65 19 187-2 151 4 178 42 194 12 5 71 8 130 6 86-3 112-7 127-21zm733-7c14-17 17-41 17-163 0-121 3-151 20-190 25-58 25-63 1-40-20 17-20 14-23-206-3-219-3-225 20-267 13-24 22-45 20-47-2-3-21 8-42 23-37 26-45 27-200 33-89 4-162 3-164-2s-9-9-15-9c-7 0-29-9-50-20-20-11-40-20-43-20s5 19 19 43c24 41 25 48 28 282l4 240-52-3c-44-2-59-8-90-37-20-19-39-32-41-31-2 2 8 27 22 55 24 47 26 59 26 199 0 155 5 176 45 185 11 2 124 2 250-1 215-4 231-5 248-24zm-6009-477c26-5 52-14 57-22s9-80 9-162c0-136 2-151 25-199 14-28 25-53 25-55s-17 10-38 27c-37 30-43 31-157 35-89 4-121 2-127-7-6-10-8-10-8-1 0 7-17-3-37-22-21-19-39-33-40-31-2 2 6 25 18 52 19 43 22 65 20 189-2 153 6 184 49 196 34 10 145 9 204 0zm539-22c14-18 17-43 17-171s3-155 20-190c11-23 19-43 17-44-2-2-20 9-41 24-37 26-44 27-161 27-68 0-121-3-118-7 2-5-1-8-7-8-7 0-23-9-37-20-15-11-28-19-30-17s6 24 17 48c17 38 20 66 20 195 0 197-1 197 175 189 97-4 112-7 128-26zm486 7c13-14 16-43 17-170 2-132 5-159 23-201 11-26 21-49 21-52 0-2-17 9-37 26-36 28-44 29-153 34-122 4-149-2-197-46-29-26-29-22 2 41 23 48 25 63 25 199 0 82 4 153 8 160 16 25 59 33 166 29 83-3 112-8 125-20zm484-3c15-14 17-36 17-163 0-137 2-152 26-206l26-59-24 21c-41 38-67 45-180 49-114 4-134 0-175-38-22-20-23-20-23-1 1 10 7 30 15 44 11 18 14 63 15 172 0 80 3 154 6 163 4 10 21 24 38 31 43 20 233 10 259-13zm490-4c14-18 17-43 17-169 0-125 3-155 19-191 11-24 18-45 16-47s-19 8-37 22c-31 25-40 27-156 29-67 1-122-2-122-6 0-5-4-5-10-2-5 3-10 2-10-2 0-5-13-17-30-26-36-21-36-21-10 34 17 38 20 66 20 195 0 198-1 197 175 189 96-5 112-8 128-26zm444 21c47 0 53-20 53-181 0-140 2-153 25-199 31-61 31-69 3-43-42 38-70 46-182 49l-110 3-48-34c-26-19-48-33-48-30s12 29 26 58c26 51 27 55 20 180-5 99-3 135 8 161 17 41 33 46 146 41 47-3 95-5 107-5zm526-17c15-14 17-36 17-164 0-126 3-154 20-195 11-26 19-48 17-50s-17 7-33 21-33 25-39 26c-83 4-222 2-218-3 2-5-1-8-6-8-6 0-11 5-11 11s-20-5-45-25c-25-21-45-35-45-32 0 2 9 25 20 51 17 39 20 69 20 191 0 152 6 179 43 194 35 15 239 1 260-17zm487 1c12-11 16-51 20-177 4-122 9-171 22-199 20-45 14-48-23-12-25 24-33 25-154 29-70 2-125 2-122-2 6-5-75-53-81-48-2 2 6 22 18 45 20 39 22 58 21 194-1 83 2 156 7 163 17 26 59 33 167 27 77-4 115-10 125-20zm442 16c53 0 58-17 58-181 0-139 2-153 25-201 31-63 31-67 3-41-13 11-34 26-46 33-30 15-246 24-237 10 3-6-1-7-10-4-9 4-30-5-50-20-40-31-44-22-15 34 18 35 19 53 15 177-7 196 1 206 150 198 44-3 92-5 107-5zm531-21c14-18 17-43 17-171 0-131 3-154 21-189 22-45 19-61-6-35-34 34-60 39-182 38-117-1-125-3-150-27-24-22-43-32-43-22 0 2 9 22 20 45 17 35 20 61 20 187 0 84 5 155 11 166 17 33 48 39 164 34 95-5 112-9 128-26zm487 5c12-12 15-47 17-169 2-132 5-162 23-201 11-26 19-48 17-50-1-2-17 11-35 27l-33 31h-129c-125-1-131-2-165-28-19-14-35-24-35-21s9 26 20 52c17 40 20 69 20 194 0 194-1 193 175 185 79-3 114-9 125-20zm-5358-1c16-14 18-33 18-159 0-130 2-147 25-195 13-29 22-55 20-57-2-3-18 7-35 22-17 14-39 26-48 27-74 3-262 0-270-5-6-3-12 0-15 6-3 10-7 10-18 2-8-6-23-9-34-7-37 9-215 11-215 3 0-5-8-7-17-6-9 2-27-8-40-22-32-35-37-23-13 29 17 37 20 66 20 189 0 115 3 150 16 168 15 22 17 22 301 22 253 0 289-2 305-17zm5840 0c16-14 18-34 18-167 0-129 3-157 20-195 11-24 19-46 16-48-2-2-17 8-34 22-28 23-40 25-152 30l-122 5-38-30c-21-16-41-30-44-30s3 23 14 50c17 42 20 75 20 193 0 194-6 187 157 187 104 0 130-3 145-17zm-5576-497c11-15 14-56 14-169 0-139 2-152 25-199 14-27 25-52 25-55s-15 8-34 24c-40 36-77 43-208 40-82-2-100-5-120-23-27-25-53-41-46-28 35 57 40 93 38 236-2 147-2 147 25 173 25 26 28 27 146 23 106-3 122-5 135-22zm481 2c10-8 13-53 13-165 0-144 2-157 25-203 14-27 25-52 25-55s-17 8-37 24c-37 30-41 30-164 33l-127 3-41-33c-23-18-41-31-41-29s10 23 21 47c19 39 22 63 23 201 1 172 5 186 59 191 62 6 232-4 244-14zm486-5c15-14 17-36 17-164 0-137 2-153 25-205 26-59 24-60-31-12-17 15-42 19-143 22-121 3-122 3-162-26-23-16-42-28-44-26-1 2 6 23 17 48 17 38 19 66 18 189-1 171 5 188 72 193 94 7 213-3 231-19zm969 0c16-14 18-35 18-165 0-138 2-152 25-200 14-28 25-54 25-56s-18 10-39 27c-38 31-43 32-158 35-124 3-137 0-190-48-29-25-29-17 2 44 23 46 25 59 25 197 0 81 4 153 8 160 14 22 50 28 159 25 81-2 112-7 125-19zm490 0c16-14 18-36 18-167 0-139 2-155 25-204l24-53-42 30c-40 28-47 30-164 33l-123 4-37-32c-21-18-39-31-41-30-1 2 7 23 18 47 17 38 20 66 20 194 0 208-5 202 180 197 78-3 109-7 122-19zm491-5c14-17 17-42 17-172 0-129 3-157 20-195 11-24 20-45 20-48 0-2-17 10-38 26-36 29-42 31-155 34l-118 4-49-33-49-34 24 53c23 48 25 64 25 203 0 197-5 191 173 186 98-3 114-6 130-24zm429 22c64 0 68-12 68-181 0-139 2-153 25-201 14-28 25-54 25-56s-16 10-35 27c-20 17-39 31-43 32-4 0-59 2-122 3-119 3-134-1-184-46-29-27-30-15-2 40 24 47 25 58 24 201-1 159 4 177 45 183 12 2 54 2 92 1 39-1 87-2 107-3zm541-17c15-14 17-36 17-164 0-136 2-153 24-204 14-30 21-55 15-55-5 0-9 3-9 8 0 4-15 17-34 30-31 21-47 24-152 26l-118 2-43-33c-24-18-43-30-43-28 0 3 9 23 19 43 16 31 19 62 20 192 3 214-3 207 181 202 78-3 110-8 123-19zm490-5c14-17 17-42 17-170 0-129 3-155 20-190 28-59 25-65-15-29-32 27-43 31-98 32-34 0-87 2-117 5-57 5-70 0-130-45l-32-24 26 51c25 49 26 60 26 205 0 201-6 194 172 189 100-3 115-5 131-24zm-4825 10c8-8 12-58 12-158 0-128 6-185 27-255 3-12-5-6-18 14l-24 33-218 2c-121 0-222-1-226-4s-15-16-25-30l-18-25 7 25c4 14 10 106 14 205 3 99 10 186 14 193 11 17 438 17 455 0zm1906-10c13-18 16-53 16-171 0-128 3-154 20-189 28-59 25-65-15-29-29 25-45 31-83 32-26 0-82 1-125 3-68 2-82-1-109-21-18-12-35-29-40-35-16-25-8 10 12 53 17 38 20 66 20 193 0 195-8 186 161 186 121 0 129-1 143-22zm3398 5c16-14 18-33 18-165 0-139 2-152 25-198 14-27 25-52 25-55s-17 7-37 24c-37 28-43 29-161 34-123 4-123 4-163-25-42-31-48-24-22 25 13 26 16 57 14 174-2 139 4 176 33 195 6 4 65 8 130 8 97 0 123-3 138-17zm1326 1c21-14 22-22 22-162 0-136 2-151 25-200 14-30 25-56 25-58 0-3-17 9-37 25l-38 30-547 3c-302 2-548 0-548-4s-6-8-13-8c-8 0-24-11-37-25s-25-23-27-21 6 24 17 50c17 41 20 69 20 199 0 126 3 153 17 169 15 17 46 18 557 18 474 0 544-2 564-16zm-6552-492c27-18 34-56 34-189s1-140 29-195c16-32 28-58 26-58s-22 16-45 35l-42 35h-240c-231 0-241-1-271-22-18-12-33-26-35-30s-7-8-12-8-2 12 5 28c33 65 37 91 35 226-1 110 2 143 15 162l15 24h238c130 0 242-4 248-8zm636-9c16-14 18-33 18-165 0-114 4-156 15-178 9-17 20-42 26-57l10-28-23 21c-44 40-62 44-255 46l-189 3-42-33c-23-19-42-31-42-29 0 3 9 27 21 54 19 42 21 65 20 185-2 108 1 143 14 167l16 31h196c169 0 199-2 215-17zm628-3c18-18 20-33 20-168 0-128 3-154 20-190 19-40 28-78 12-57-4 6-20 21-36 33-27 21-38 22-225 22h-197l-34-30c-19-16-38-29-42-30-4 0 4 24 17 53 23 48 25 64 25 201 0 125 3 152 17 168s35 18 210 18c180 0 194-1 213-20zm2662 3c16-14 18-33 18-163 0-144 1-148 30-204 17-31 27-56 24-56-4 0-22 14-41 30l-34 30h-1215c-881 0-1221-3-1237-11-12-6-32-21-44-32-28-25-28-22-1 39 19 43 22 63 20 174-3 125 7 187 30 202 7 4 557 8 1222 8 1111 0 1211-1 1228-17zm630 0c16-14 18-33 18-164 0-126 3-154 20-195 11-26 19-48 17-50s-18 7-35 20c-30 22-43 24-210 28-189 5-222 1-259-33-31-30-37-20-16 22 14 27 19 68 23 197 4 147 7 165 24 178 16 11 62 14 210 14 162 0 192-2 208-17zm628-3c18-18 20-33 20-169 0-127 3-156 20-196 20-48 26-68 12-50-4 6-21 21-38 33-29 20-43 21-224 22l-193 2-43-31-43-30 24 56c23 51 25 68 25 201 0 121 3 148 17 164s35 18 210 18c180 0 194-1 213-20zm622 3c16-14 18-33 18-165 0-114 4-156 15-178 9-17 20-41 25-55l10-26-38 30-37 30-388 2-44-30c-24-17-43-29-43-27s9 23 20 47c16 37 20 66 20 181 0 133 9 185 33 200 7 4 97 8 201 8 162 0 192-2 208-17zm746 1c21-14 22-21 22-165 0-115 4-157 15-179 9-17 20-42 25-56l10-26-31 26c-17 14-40 28-52 31-32 6-516 12-519 5-4-8-88-72-88-66 0 2 11 24 25 47 24 42 25 52 25 203 0 134 3 162 17 178 15 17 37 18 272 18 216 0 260-2 279-16z"/>
		<path d="m7925 3018c-11-6-23-16-27-22s-8-239-8-518c0-495 1-509 20-528 20-20 33-20 759-20 713 0 740 1 762 19l24 19-1 512c-1 466-2 513-18 528-15 16-77 17-754 19-539 2-742 0-757-9zm392-71c16-15 18-39 20-175 1-141 4-162 23-196 27-48 20-56-20-22-31 25-36 26-163 26h-132l-38-31c-39-32-41-23-5 36 15 25 18 53 18 185 0 85 4 160 8 166 19 28 50 34 159 32 92-3 116-6 130-21zm492-1c20-18 21-29 21-167 0-125 3-154 20-194 26-61 26-62-14-31-33 25-40 26-163 26-122 0-131-1-163-25-18-14-35-23-37-22-2 2 5 19 14 38 14 27 19 68 23 194 3 88 9 166 14 173 16 25 51 32 157 29 89-2 110-5 128-21zm468 13c15-5 31-16 35-22 4-7 8-79 8-160 0-138 2-151 25-197 14-27 25-52 25-55 0-4-17 7-37 24l-38 31h-260l-38-31-37-31 21 54c19 47 21 71 20 200-2 145-2 148 23 173 23 23 32 25 125 25 55 0 112-5 128-11zm-957-515c12-12 15-46 17-172 1-134 5-163 21-197 11-22 19-42 17-44s-18 8-35 23c-17 14-37 26-43 27-210 11-228 10-273-21-24-16-44-28-44-25 0 2 9 24 20 50 17 40 20 69 20 193 0 81 4 152 8 158 20 30 48 35 162 29 83-4 119-10 130-21zm493-5c14-18 17-43 17-168 0-124 3-153 20-190 11-24 19-45 17-47s-19 8-39 22c-33 24-45 26-154 28-108 2-122 0-149-20-54-39-57-38-38 3 13 29 19 74 23 198 3 88 9 166 14 173 16 26 52 32 161 27 97-4 112-7 128-26zm474 21c1 0 9-7 17-16 13-13 16-42 16-165 0-140 2-153 25-199 31-61 31-69 3-43-43 39-68 45-189 46l-119 1-40-33c-22-17-40-30-40-28s10 23 21 47c19 38 21 63 23 203 1 157 1 159 26 179 23 19 35 20 140 15 63-3 116-6 117-7z"/>
		<path d="m9615 3018c-11-6-23-16-27-22s-8-578-8-1272c0-1209 1-1262 18-1277 17-16 102-17 1013-17 547 0 999 4 1006 8 6 4 16 19 21 32 6 16 9 505 8 1272-1 1183-2 1248-19 1265s-72 18-1005 20c-725 2-992 0-1007-9zm396-77c17-20 19-40 19-173 0-131 3-154 21-189 11-23 18-43 16-45-2-3-18 7-35 21-29 24-35 25-162 25h-132l-39-31-38-30 24 56c23 51 25 68 25 205 0 195-4 190 162 187 113-2 121-3 139-26zm466 18c15-5 31-16 35-22 4-7 8-77 8-157 0-133 2-149 25-198 24-53 32-77 17-57-4 6-21 21-39 33-28 20-43 22-162 22h-130l-36-31c-37-33-38-29-8 39 10 24 15 77 16 188 2 196 1 194 147 194 54 0 111-5 127-11zm519-14c24-25 25-28 23-174-1-113 3-155 14-177 8-16 18-40 22-54 7-23 7-23-10-6-46 46-61 49-193 47-118-2-129-4-159-27-39-29-39-29-13 31 17 40 20 69 20 193 0 81 4 152 8 158 17 26 53 33 155 34 102 0 109-1 133-25zm477 14c12-7 25-17 29-23s8-77 8-157c0-135 2-151 25-204l26-57-41 32-40 32-128-1c-105-1-131-5-152-19-49-36-52-35-33 5 13 29 19 74 23 201 6 207 3 202 157 202 59 0 114-5 126-11zm-1466-512c15-15 19-42 23-185 4-135 9-173 23-200 24-44 18-48-20-11-32 29-34 29-158 32-69 2-125-1-125-5s-5-8-11-8-22-9-36-20c-15-11-28-19-30-17s6 24 17 48c17 38 20 66 20 194 0 83 4 155 8 161 19 28 50 34 159 32 92-3 116-6 130-21zm488-2c24-23 25-28 25-175 0-133 2-156 21-191 26-51 18-61-20-25-29 28-33 28-159 31l-129 3-36-35c-42-39-46-31-17 27 17 34 20 59 20 190 0 147 1 152 25 175 23 24 31 25 135 25s112-1 135-25zm494 1c20-18 21-29 21-168 0-114 4-156 15-178 9-17 20-41 25-55 9-23 7-23-35 9l-44 34-118-2c-102-1-123-4-148-22-53-37-55-36-34 12 18 40 21 65 20 195-2 148-2 149 24 175 25 25 29 26 139 22 95-2 117-6 135-22zm499 8 22-15v-392c0-216-3-408-6-427l-6-35h-153c-145 0-153 1-155 20-1 11-4 200-6 419l-4 399 22 24c20 22 29 23 143 23 93 0 126-4 143-16zm-1480-508c14-14 17-41 19-170 2-128 6-162 23-201 11-26 20-49 20-51 0-3-18 9-40 27l-39 32-123-1c-68 0-125-1-128-1-3-1-18-13-33-27-37-34-43-26-18 27 18 37 21 62 21 194 0 198-1 197 173 192 85-3 111-7 125-21zm493-5c17-20 19-42 19-173s3-154 21-189c24-48 18-61-14-32-41 37-60 42-175 38-99-4-116-7-149-29-20-14-39-24-41-22s6 22 17 45c19 35 21 58 21 191 0 149 0 151 26 177 25 25 28 25 141 21 106-4 117-6 134-27zm490 3c17-15 19-32 19-165 0-125 3-154 20-194 25-59 25-60-7-37-43 30-69 35-187 34-90-1-114-4-135-20-49-35-51-34-30 15 18 41 21 67 20 188-2 203 2 207 177 200 81-3 108-7 123-21zm1-501c14-12 17-40 20-171 3-156 5-168 47-247 5-10-9-1-59 40-23 18-40 20-147 20h-121l-41-33c-23-18-41-31-41-29 0 3 10 26 21 53 19 43 22 65 20 189-2 151 7 185 47 195 12 3 71 4 130 2 78-3 111-7 124-19zm492 6 26-20v-800l62-122-48 39-47 39-117 4c-124 3-149-3-197-48-34-32-35-26-8 35l25 56v389c0 397 3 433 39 442 9 3 66 5 127 6 98 1 114-1 138-20zm-1478-3c17-13 19-29 21-170 1-132 5-162 22-202 12-26 21-48 21-51 0-2-18 10-39 28-39 31-40 31-165 33-97 2-129-1-138-11-6-8-24-23-40-35l-30-21 26 51c25 49 26 60 26 206 0 127 3 157 16 170 21 22 250 23 280 2zm498-8c13-18 16-53 16-168 0-134 2-149 25-199l25-54-22 17c-13 9-33 23-46 32-17 13-48 16-141 17-123 1-140-4-186-49-17-17-17-17-10 6 4 14 14 37 21 52 10 19 14 69 14 175 0 201-7 193 160 193 122 0 130-1 144-22zm3-500c22-21 23-28 23-173 0-143 1-155 25-200l26-47-43 31-42 31h-753l-41-30-41-29 18 40c10 21 21 42 24 46 4 3 7 74 7 157 0 121 3 156 16 174l15 22h371c368 0 372 0 395-22zm485 5c16-14 18-33 18-165 0-149 4-171 48-252 3-6-12 4-34 22-38 30-41 31-164 34-69 2-129 0-135-4-5-4-25-19-42-34-18-14-33-24-33-21 0 2 10 26 22 53 19 44 21 64 19 180-2 99 1 139 13 167l15 37h127c105 0 131-3 146-17z"/>
		<path d="m8374 1495c-18-27-13-58 8-50 8 3 22 0 32-8 15-11 17-22 10-86-4-40-10-67-14-61-6 9-13 9-29 1-19-11-21-20-21-115 0-157 10-150-236-154-165-3-202-6-216-19-16-15-18-41-18-275 0-245 1-259 20-278 20-20 33-20 748-20 693 0 730 1 745 18 15 16 17 51 17 279 0 235-2 261-18 276-14 13-51 16-214 19-173 3-199 5-215 21-15 14-19 39-21 135l-4 118-29-2-30-2 3 76c3 77 3 77 31 76 21 0 27 4 27 21 0 12-8 29-18 38-16 15-51 17-280 17h-262zm328-34c109-1 108 1 108-182 0-141 2-153 26-200 14-28 24-53 22-54-2-2-19 9-37 26-19 16-36 29-40 29-3 1-58 2-121 4-120 2-136-2-187-48-29-24-29-17-2 36 19 36 22 61 23 192 1 83 6 159 10 168 9 20 59 37 96 32 14-1 60-3 102-3zm-386-515c17-13 19-29 21-174 1-140 4-164 22-200 29-56 27-58-18-23-38 30-41 31-160 33l-120 2-45-32-45-33 24 53c23 49 25 65 25 202 0 194-7 186 155 186 89 0 126-4 141-14zm476-3c16-14 18-33 18-165 0-139 2-152 25-198 14-27 25-52 25-56 0-3-18 8-39 25-39 31-41 32-161 32-121 1-122 1-166-30l-44-32 10 25c5 15 15 38 23 54 9 19 12 68 11 167-2 134 3 170 30 187 6 4 65 8 130 8 97 0 123-3 138-17zm480 0c16-14 18-33 18-163 0-136 2-152 25-205l25-57-43 32c-42 30-47 31-158 32-118 2-141-4-186-45-28-25-29-18-3 34 18 34 21 61 23 198 1 117 6 162 16 174 20 25 256 25 283 0z"/>
	</g>
</svg>
