<?xml version="1.0" standalone="no"?>
<!DOCTYPE svg PUBLIC "-//W3C//DTD SVG 20010904//EN"
 "http://www.w3.org/TR/2001/REC-SVG-20010904/DTD/svg10.dtd">
<svg version="1.0" xmlns="http://www.w3.org/2000/svg"
 width="300.000000pt" height="300.000000pt" viewBox="0 0 300.000000 300.000000"
 preserveAspectRatio="xMidYMid meet">
<metadata>
Created by potrace 1.15, written by Peter Selinger 2001-2017
</metadata>
<g transform="translate(0.000000,300.000000) scale(0.100000,-0.100000)"
fill="#000000" stroke="none">
<path d="M625 2920 c-155 -8 -325 -31 -369 -51 -14 -7 -28 -19 -31 -27 -8 -21
-6 -2652 2 -2692 3 -17 14 -35 24 -41 10 -5 83 -19 161 -31 310 -46 867 -16
948 50 20 17 21 24 27 1347 3 732 3 1342 0 1357 -8 31 -31 40 -167 62 -211 35
-307 39 -595 26z m238 -1754 c49 -20 69 -57 65 -121 -1 -29 -5 -52 -9 -50 -3
2 -13 -5 -22 -15 -9 -11 -29 -22 -44 -25 -15 -4 -36 -11 -47 -16 -13 -7 -16
-7 -11 0 3 6 -1 11 -10 11 -10 0 -32 15 -51 34 -26 26 -34 42 -34 70 0 51 25
95 63 111 41 18 60 18 100 1z m-344 -892 c30 -6 31 -8 31 -58 0 -67 -9 -96
-28 -96 -13 0 -12 3 3 19 16 19 16 20 -3 18 -11 0 -18 -5 -16 -9 3 -4 0 -9 -5
-9 -26 -3 -30 -4 -37 -11 -13 -14 -34 -8 -34 8 0 14 2 15 17 3 11 -10 14 -10
9 -1 -4 7 -2 12 6 13 7 0 3 4 -9 9 -20 8 -23 17 -23 65 0 54 1 55 29 55 16 0
43 -3 60 -6z"/>
<path d="M1945 2909 c-177 -9 -279 -23 -311 -44 -19 -12 -20 -21 -18 -97 5
-125 4 -2159 0 -2167 -3 -4 -6 -113 -8 -242 -2 -181 0 -240 10 -252 7 -8 34
-20 60 -26 62 -14 425 -32 527 -26 44 2 143 7 220 10 167 7 309 23 348 39 l28
11 0 1360 c-1 748 -1 1365 -1 1372 0 46 -483 82 -855 62z m18 -169 c432 -2
654 -18 692 -50 7 -6 10 -22 8 -38 -4 -26 -4 -26 11 -8 15 18 16 15 18 -55 1
-71 1 -72 8 -24 4 28 5 -272 3 -665 -3 -393 -6 -721 -9 -727 -2 -7 -15 -13
-29 -13 -18 0 -25 5 -25 20 0 17 -7 20 -52 21 -29 1 -41 4 -25 6 21 3 27 10
27 29 0 14 4 23 9 20 5 -3 7 -15 4 -26 -4 -15 0 -20 16 -20 18 0 21 6 21 40
l0 40 -76 0 c-41 0 -73 4 -70 9 3 4 18 6 32 3 21 -4 25 -2 19 9 -6 11 -5 12 6
2 19 -18 39 -16 40 5 1 16 2 16 6 0 6 -25 43 -23 43 2 0 19 -7 20 -90 20 l-90
0 0 -65 0 -65 38 -1 c20 0 31 -3 25 -6 -7 -2 -13 -13 -13 -23 0 -10 6 -21 13
-23 6 -3 0 -6 -15 -6 -32 -1 -38 -24 -10 -40 16 -10 16 -10 0 -11 -10 0 -18
-6 -18 -14 0 -16 45 -30 62 -20 7 5 8 2 3 -6 -24 -38 -12 -150 16 -150 6 0 8
4 5 9 -11 17 19 19 38 2 11 -9 16 -10 12 -3 -5 9 3 12 28 12 25 0 36 -4 36
-15 0 -8 6 -15 13 -15 8 0 7 -4 -3 -10 -13 -9 -13 -10 0 -10 13 0 13 -1 0 -11
-11 -8 -12 -12 -2 -16 6 -2 12 -9 12 -14 0 -6 -4 -8 -8 -5 -4 2 -8 -4 -8 -14
0 -10 4 -16 8 -14 13 8 9 -41 -4 -55 -10 -11 -10 -13 0 -7 9 5 12 -4 12 -33 0
-23 -4 -41 -10 -41 -5 0 -10 -16 -10 -36 0 -21 4 -33 10 -29 6 3 10 -1 10 -10
0 -9 -4 -13 -10 -10 -6 4 -10 -17 -10 -54 0 -57 -2 -61 -22 -60 -17 1 -19 2
-5 6 9 2 17 13 17 24 0 11 -7 19 -17 20 -15 1 -15 2 -2 6 23 6 24 133 1 134
-16 1 -16 2 -1 6 13 3 17 17 17 69 0 52 -3 64 -17 65 -14 1 -13 2 2 6 9 2 17
13 17 24 0 16 -7 19 -45 19 -38 0 -45 -3 -45 -20 0 -15 7 -20 25 -20 21 0 25
-5 25 -30 0 -22 -5 -30 -17 -29 -11 0 -13 3 -5 6 20 8 14 43 -8 43 -15 0 -20
-7 -21 -27 l-2 -28 -4 28 c-3 19 -10 27 -24 27 -25 0 -27 -40 -1 -41 16 -1 16
-2 0 -6 -20 -5 -24 -33 -5 -34 10 0 10 -2 0 -6 -7 -2 -13 -13 -13 -24 0 -10 6
-19 13 -19 9 0 8 -3 -2 -9 -8 -6 -13 -29 -13 -67 0 -36 -3 -51 -7 -40 -5 13
-10 16 -14 9 -4 -6 -2 -17 5 -25 7 -7 13 -22 13 -33 0 -14 9 -22 30 -26 l30
-7 -28 -1 c-29 -1 -80 -25 -106 -49 -12 -12 -12 -15 0 -23 12 -8 12 -10 -1
-19 -9 -6 -10 -10 -3 -10 9 0 8 -8 -3 -27 -16 -31 -19 -77 -5 -68 5 3 13 0 17
-6 4 -7 3 -9 -4 -5 -5 3 -12 0 -15 -6 -2 -7 -7 -10 -10 -7 -8 7 -11 665 -3
678 4 5 -3 15 -14 21 -11 6 -20 8 -20 4 0 -3 -8 0 -17 7 -9 8 -14 10 -11 4 6
-10 -311 -10 -339 0 -10 3 -13 50 -13 186 0 100 -2 180 -4 178 -3 -3 -6 -84
-7 -181 -1 -97 -5 -182 -10 -189 -7 -11 -17 503 -11 571 4 50 4 71 -1 120 -4
40 -4 45 2 20 6 -24 9 14 10 117 0 83 -2 158 -5 167 -5 13 -26 16 -128 16
-123 0 -161 9 -139 31 15 15 229 7 261 -10 17 -9 22 -9 24 1 1 7 5 -70 8 -172
l6 -185 2 190 c1 105 -2 195 -6 202 -7 12 -127 22 -263 23 l-66 0 -1 268 c-1
147 3 276 8 287 7 16 9 17 9 3 1 -9 20 -30 43 -47 39 -29 47 -31 131 -31 81 0
92 2 128 28 44 31 50 59 17 89 -40 36 -65 43 -154 43 -76 0 -91 -3 -118 -23
-49 -37 -56 -40 -56 -22 0 10 5 13 13 9 7 -5 6 0 -3 11 -8 10 -10 16 -4 12 7
-4 17 0 24 8 7 8 24 15 39 16 23 0 24 1 6 9 -17 6 -13 9 20 14 22 4 50 11 63
17 29 12 41 11 22 -1 -12 -7 -10 -9 7 -7 12 0 21 4 21 7 0 3 1 12 2 20 2 11 3
11 7 -2 3 -14 15 -18 56 -18z m-240 -1254 c6 -8 10 -7 14 2 5 13 25 17 21 5
-2 -5 2 -8 7 -8 6 0 9 3 8 8 -2 4 2 7 7 7 6 0 10 -4 10 -10 0 -5 5 -10 11 -10
5 0 7 5 4 10 -4 6 25 10 79 10 l86 0 0 -274 0 -275 -130 0 c-80 0 -130 4 -130
10 0 6 5 7 10 4 14 -9 12 8 -2 25 -7 8 -3 6 9 -4 26 -22 53 -15 53 14 0 26
-25 36 -45 20 -9 -7 -18 -10 -22 -6 -3 3 -1 6 5 6 7 0 12 9 12 20 0 11 5 20
11 20 5 0 7 5 3 12 -4 7 -3 8 5 4 6 -4 8 -12 5 -18 -4 -6 -1 -9 7 -6 8 2 15
17 17 31 3 23 -1 27 -21 27 -13 0 -27 3 -31 8 -4 4 -12 8 -17 8 -5 1 -12 2
-15 3 -4 0 -1 7 5 15 14 16 4 49 -13 39 -6 -3 -7 -2 -3 2 4 5 15 10 25 12 38
6 78 12 95 12 10 1 17 7 16 14 -4 32 2 100 8 93 4 -4 6 -24 4 -44 -2 -38 -2
-38 36 -37 l37 2 1 46 1 47 -43 0 c-24 0 -43 5 -43 10 0 6 -24 10 -52 11 -29
0 -46 3 -38 6 28 11 60 49 69 81 6 21 6 30 0 26 -16 -10 -107 7 -112 20 -6 16
25 17 36 2z m277 -571 c0 -17 2 -17 10 -5 7 11 12 12 18 3 5 -8 50 -11 155
-10 81 1 147 -1 147 -5 0 -4 -114 -7 -252 -8 -139 -1 -260 -1 -268 -1 -8 0
-22 1 -30 3 -11 2 -16 -8 -18 -39 l-3 -43 323 -1 c178 -1 311 -4 295 -6 -15
-2 -25 -9 -22 -14 4 -5 -1 -9 -10 -9 -9 0 -13 -5 -10 -10 4 -7 -56 -10 -179
-10 -110 1 -188 5 -192 11 -3 6 -12 5 -22 -3 -9 -7 -13 -8 -9 -2 4 7 -1 18
-11 25 -15 13 -16 12 -4 -3 18 -22 8 -25 -73 -23 -85 3 -85 3 -85 15 0 5 8 7
18 4 9 -2 7 0 -5 7 -26 14 -36 48 -27 95 5 25 3 34 -7 35 -42 4 71 14 158 14
96 0 103 -1 103 -20z m326 -172 c12 -4 13 -8 3 -14 -10 -6 -10 -11 2 -25 13
-15 12 -16 -11 -10 -19 6 -21 5 -10 -3 8 -6 24 -11 35 -12 18 -1 18 -2 2 -6
-19 -5 -17 -30 2 -25 6 1 11 -2 11 -8 0 -6 -107 -10 -301 -10 -232 0 -300 3
-297 12 3 7 15 16 29 20 23 7 22 7 -3 4 -16 -2 -28 0 -28 5 0 12 43 39 63 39
10 0 15 5 12 10 -4 6 21 10 67 10 56 0 80 -5 103 -20 34 -23 45 -25 45 -8 0 6
-3 8 -6 5 -4 -3 -16 -1 -27 4 -16 9 -17 13 -6 20 8 5 -36 8 -111 8 -69 0 -116
-4 -106 -8 18 -7 18 -8 2 -14 -25 -10 -26 -9 -26 13 0 19 8 19 270 19 149 0
277 -2 286 -6z m-108 -390 c-31 -8 -19 -23 12 -16 17 3 30 2 29 -3 -7 -37 1
-44 52 -44 31 0 48 -4 44 -10 -3 -5 -17 -10 -31 -10 -14 0 -23 -4 -19 -9 3 -5
20 -8 38 -6 28 4 30 3 12 -8 -14 -8 -94 -11 -275 -9 -351 3 -327 2 -310 13 13
7 13 10 1 18 -9 6 -10 11 -2 15 6 4 8 13 5 19 -5 8 -3 8 7 0 19 -19 236 -17
269 2 35 20 57 20 40 0 -8 -9 -9 -15 -2 -15 18 0 24 18 13 39 -14 25 -5 28 74
28 33 0 52 -2 43 -4z"/>
<path d="M2485 2170 c-9 -15 4 -30 28 -31 12 0 16 -3 10 -6 -8 -3 -13 -24 -13
-54 0 -28 -4 -48 -8 -45 -5 3 -7 24 -5 47 3 39 -7 58 -29 59 -5 0 -8 -31 -8
-70 l0 -70 40 0 c39 0 40 1 40 35 0 19 4 35 9 35 5 0 7 -16 4 -35 -4 -30 -2
-35 16 -35 18 0 21 6 21 46 0 44 -1 46 -24 40 -23 -6 -24 -4 -19 44 4 50 4 50
-26 50 -16 0 -33 -4 -36 -10z"/>
<path d="M2270 1444 c0 -39 2 -43 28 -47 l27 -4 -27 -2 c-21 -1 -28 -6 -28
-21 0 -17 7 -20 40 -20 33 0 40 3 40 19 0 11 -6 22 -12 24 -10 4 -10 6 0 6 7
1 12 16 12 39 0 23 3 32 9 24 4 -7 6 -24 3 -38 -3 -19 0 -24 17 -24 18 0 21 6
21 37 0 20 3 33 7 30 3 -4 6 -20 5 -37 0 -23 4 -30 19 -30 16 0 19 7 19 40 0
45 9 41 -112 45 l-68 2 0 -43z"/>
<path d="M2460 1439 c0 -39 2 -41 25 -37 22 5 25 2 25 -23 0 -29 0 -29 65 -29
l65 0 0 65 0 65 -40 0 c-36 0 -40 -2 -40 -25 0 -14 -5 -25 -10 -25 -6 0 -8 11
-4 25 5 21 3 25 -15 25 -16 0 -21 -6 -21 -25 0 -17 -5 -25 -17 -24 -11 0 -13
3 -5 6 20 8 14 43 -8 43 -17 0 -20 -7 -20 -41z"/>
<path d="M2171 1299 c-1 -82 0 -89 18 -89 14 0 21 8 24 28 4 25 4 25 6 -5 1
-29 -2 -33 -24 -33 -18 0 -25 -5 -25 -19 0 -16 8 -19 64 -20 53 -1 65 2 69 17
4 16 5 16 6 0 1 -11 9 -18 20 -18 16 0 19 8 20 62 0 39 -4 65 -12 70 -9 6 -9
8 1 8 6 0 12 9 12 20 0 18 -7 20 -65 20 -64 0 -65 0 -66 -27 -2 -28 -2 -28 -6
-3 -3 14 -9 27 -13 30 -4 3 -2 11 6 18 8 7 14 8 14 2 0 -5 9 -10 20 -10 13 0
20 7 20 19 0 16 -7 19 -44 19 l-44 0 -1 -89z"/>
<path d="M2361 1275 c-1 -58 1 -65 19 -65 14 0 20 8 23 38 3 35 4 34 5 -9 2
-44 1 -46 -22 -42 -23 5 -24 3 -24 -66 l0 -71 42 3 c41 2 41 2 44 45 3 37 1
42 -17 42 -16 0 -21 -7 -22 -27 -2 -28 -2 -28 -6 -3 -3 14 -10 28 -17 32 -12
8 3 11 42 8 16 -1 22 4 22 19 0 12 -6 21 -12 21 -10 0 -10 2 -1 8 8 5 12 31
12 70 -1 53 -4 62 -19 62 -13 0 -20 -9 -23 -27 l-4 -28 -2 28 c-1 19 -6 27
-20 27 -16 0 -19 -8 -20 -65z"/>
</g>
</svg>
