<?xml version="1.0" encoding="UTF-8"?>
<svg id="svg276" width="500pt" height="300pt" version="1.0" viewBox="0 0 500 300" xmlns="http://www.w3.org/2000/svg">
	<g id="puerto_vga">
		<path id="path174-3-1" d="m277.15 178.68c-1.61 0-3.0707 0.10592-3.2794 0.21124-0.62612 0.34234-0.98477 1.6318-0.98477 3.5014v1.8172h-1.2813c-0.95412 0-1.4609 0.15828-1.8783 0.55327-0.53669 0.52666-0.56692 1.1588-0.56692 14.983s0.0302 14.456 0.56692 14.983c0.41743 0.39499 0.92471 0.55328 1.849 0.55328h1.2512l0.0904 2.2116c0.1491 3.1335 0.38747 3.3182 4.2038 3.3182 3.9953 0 4.1142-0.10586 4.1142-3.7924v-2.7376l1.1029-0.50085c0.62612-0.26331 1.4318-0.86919 1.7895-1.3695l0.68583-0.89456v-11.745c0-11.349-0.0305-11.771-0.59705-12.614-0.35779-0.52664-1.103-1.0793-1.7887-1.3163l-1.1925-0.44763v-2.8432c0-3.7656-0.11944-3.8715-4.0849-3.8715zm0.17917 1.1095c0.26836-3e-3 0.53686 0.15456 1.2226 0.47056 1.133 0.50031 1.1917 0.60561 1.1917 1.7906 0 1.1323-0.0884 1.2903-1.1021 1.8696l-1.1037 0.6323-1.2821-0.60572c-1.2523-0.57931-1.2813-0.6327-1.2813-1.8703 0-1.2113 0.0589-1.3158 1.1322-1.7898 0.68578-0.32915 0.95429-0.49383 1.2226-0.49714zm-6.2502 4.9478c0.22011-0.0113 0.47362 0 0.76435 0 0.71556 0 3.2499 0.28876 5.6349 0.65742 2.4151 0.34231 4.6207 0.76386 4.9785 0.92188 0.32797 0.15799 0.86501 0.68474 1.1632 1.1324 0.56649 0.78998 0.59624 1.4222 0.59624 12.298 0 8.5582-0.0896 11.612-0.38769 12.086-0.86468 1.501-3.0114 2.1068-9.5709 2.7124l-3.5482 0.31542-0.53679-0.60572c-0.53669-0.57931-0.56532-1.3427-0.56532-14.483 0-13.779-0.0693-14.956 1.4716-15.035zm3.0121 2.909c-0.95036 7e-3 -1.6222 0.14516-1.9204 0.40849-0.26836 0.21066-0.53692 0.65832-0.62638 0.97433-0.0894 0.31598-0.11941 5.4248-0.0896 11.323 0.0894 10.296 0.11984 10.769 0.6565 11.138 0.74542 0.47398 2.1766 0.47447 5.2776-0.0259 3.5482-0.57932 4.115-0.84249 4.7708-2.0801 0.50686-0.9743 0.56612-1.8702 0.56612-9.5592 0-11.06 0.0903-10.849-5.0381-11.797-1.4162-0.26331-2.646-0.38847-3.5964-0.38188zm-0.54945 1.1102c0.69742-0.0185 2.1626 0.17327 4.5328 0.58798 3.4288 0.63199 3.1903-0.1579 3.101 10.481l-0.0888 9.2165-0.74689 0.47422c-0.77522 0.52666-6.6184 1.4479-7.1549 1.1583-0.35779-0.18433-0.4176-21.54-0.0896-21.83 0.0671-0.0527 0.21395-0.0817 0.4464-0.0879zm1.3876 4.2636c-0.41075-2.7e-4 -0.74382 0.38148-0.74374 0.85244 0 0.47096 0.33302 0.85269 0.74374 0.85242 0.41039-2.4e-4 0.74296-0.38184 0.74291-0.85242 0-0.4706-0.33249-0.85219-0.74291-0.85244zm1.9148 2.0114c-0.41041 2.3e-4 -0.74301 0.38184-0.74293 0.85245 2.5e-4 0.47031 0.33277 0.85147 0.74293 0.8517 0.4105 2.7e-4 0.74347-0.38103 0.74374-0.8517 0-0.47097-0.33299-0.85272-0.74374-0.85245zm-1.9996 1.0497c-0.41045 2.3e-4 -0.74304 0.38182-0.74297 0.85245 0 0.4706 0.33255 0.85219 0.74297 0.85242 0.41072 2.7e-4 0.74376-0.38149 0.74371-0.85242 0-0.47097-0.33299-0.85272-0.74371-0.85245zm1.9592 1.8881c-0.41042 2.2e-4 -0.74302 0.38184-0.74294 0.85244 0 0.47061 0.33252 0.8522 0.74294 0.85243 0.41071 2.7e-4 0.74378-0.38146 0.74373-0.85243 0-0.47096-0.33299-0.85271-0.74373-0.85244zm-1.9996 1.0497c-0.41045 2.2e-4 -0.74304 0.38182-0.74296 0.85244 0 0.47061 0.33254 0.8522 0.74296 0.85243 0.41072 2.7e-4 0.74376-0.38149 0.74371-0.85243 0-0.47096-0.33299-0.85271-0.74371-0.85244zm1.8783 2.1148c-0.41017 2.5e-4 -0.74264 0.3814-0.74291 0.85171 0 0.4706 0.33249 0.85219 0.74291 0.85244 0.41074 2.7e-4 0.74381-0.38148 0.74374-0.85244-2.5e-4 -0.47067-0.33325-0.85198-0.74374-0.85171zm-1.9996 1.0497c-0.41017 2.3e-4 -0.74266 0.38139-0.74294 0.8517 0 0.47061 0.33252 0.85222 0.74294 0.85245 0.41072 2.7e-4 0.74379-0.38148 0.74371-0.85245-2.5e-4 -0.47066-0.33324-0.85197-0.74371-0.8517zm1.9592 2.3778c-0.41042 2.2e-4 -0.74302 0.38184-0.74294 0.85244 2.5e-4 0.47031 0.33277 0.85148 0.74294 0.85171 0.41046 2.7e-4 0.74343-0.38104 0.74371-0.85171 0-0.47096-0.333-0.85271-0.74371-0.85244zm-2.0401 1.238c-0.41041 2.3e-4 -0.74301 0.38184-0.74293 0.85245 2.5e-4 0.4703 0.33277 0.85145 0.74293 0.85168 0.41047 2.7e-4 0.74344-0.38102 0.74374-0.85168 0-0.47097-0.33299-0.85272-0.74374-0.85245zm2.7569 9.4833c0.2385 0 0.89448 0.23702 1.4312 0.52669 0.92428 0.5003 0.98381 0.63214 0.89438 1.7381-0.0895 1.106-0.20778 1.2632-1.1917 1.7898l-1.1338 0.55329-1.1029-0.55329c-1.0137-0.52665-1.1324-0.68385-1.2218-1.7898-0.0894-1.106-0.0299-1.2378 0.89436-1.7381 0.53666-0.28967 1.1918-0.52669 1.4304-0.52669z" style="stroke-width:.023713"/>
		<path id="path1088" d="m278.52 193.12a0.68734 0.79097 0 0 0-0.68664 0.79113 0.68734 0.79097 0 0 0 0.68664 0.79112 0.68734 0.79097 0 0 0 0.68746-0.79112 0.68734 0.79097 0 0 0-0.68746-0.79113zm0.26007 3.1216a0.68734 0.79097 0 0 0-0.68746 0.79113 0.68734 0.79097 0 0 0 0.68746 0.79112 0.68734 0.79097 0 0 0 0.68665-0.79112 0.68734 0.79097 0 0 0-0.68665-0.79113zm-0.10545 3.1977a0.68734 0.79097 0 0 0-0.68665 0.79113 0.68734 0.79097 0 0 0 0.68665 0.79036 0.68734 0.79097 0 0 0 0.68746-0.79036 0.68734 0.79097 0 0 0-0.68746-0.79113zm-0.0285 3.2229a0.68734 0.79097 0 0 0-0.68665 0.79036 0.68734 0.79097 0 0 0 0.68665 0.79113 0.68734 0.79097 0 0 0 0.68746-0.79113 0.68734 0.79097 0 0 0-0.68746-0.79036zm-0.0571 3.3026a0.68734 0.79097 0 0 0-0.68746 0.79037 0.68734 0.79097 0 0 0 0.68746 0.79113 0.68734 0.79097 0 0 0 0.68746-0.79113 0.68734 0.79097 0 0 0-0.68746-0.79037z" style="stroke-width:.39184"/>
		<path id="path1140" d="m273.5 188.71c-0.77125-0.0524-0.47542 0.79597-0.55848 1.2526-0.16339 5.8795-0.0285 11.763 0.0217 17.644 0.0674 1.0482-0.0729 2.144 0.19888 3.1589 2.4218-0.0716 4.9004-0.3693 7.1636-1.22 0.54801-0.2196 1.064-0.53244 0.8535-1.1681-8.2e-4 -5.3735 0.21876-10.751 6e-3 -16.122-0.0901-0.90924-0.0813-2.2372-1.2432-2.5523-2.099-0.51277-4.274-0.88008-6.4418-0.99317zm1.4138 4.3679c0.88699 0.089 0.92356 1.5748-0.0141 1.5735-0.85959-0.0976-0.82216-1.501 0.0141-1.5735zm3.6234 0.0957c0.82658 0.1523 0.7339 1.4116-0.065 1.4728-0.78311-0.20008-0.74028-1.3553 0.065-1.4728zm-1.6267 1.9191c0.93746 0.11613 0.72976 1.7843-0.23362 1.5475-0.74458-0.29356-0.62279-1.5205 0.23362-1.5475zm-2.0265 1.0537c0.91894 0.10083 0.76825 1.8046-0.22447 1.5639-0.66395-0.24727-0.54009-1.5707 0.22447-1.5639zm3.8761 0.16938c0.8841 0.0509 0.78306 1.6417-0.14295 1.39-0.66184-0.20964-0.59693-1.3661 0.14295-1.39zm-1.9711 1.7545c0.84221-0.0151 0.90737 1.1763 0.24591 1.4863-0.54936 0.27728-0.98719-0.49295-0.84806-0.93988 0.0364-0.29923 0.25879-0.56068 0.60216-0.54642zm-1.8951 1.0335c0.84855 0.0934 0.7851 1.6769-0.1579 1.5065-0.89028-0.0647-0.74763-1.5706 0.1579-1.5065zm3.7711 0.4074c0.75152 0.0745 0.81826 1.5256-0.0532 1.4247-0.74356-0.15135-0.74612-1.376 0.0532-1.4247zm-1.9688 1.6659c0.79793 0.11815 0.91586 1.4487 0.0817 1.5676-0.76687 0.11591-0.95519-1.0248-0.45699-1.3868 0.11243-0.0758 0.22954-0.17685 0.37523-0.18082zm-2.0059 1.0714c0.93875 0.0943 0.85102 1.6175-0.10587 1.5581-0.78769-0.15106-0.71145-1.5305 0.10587-1.5581zm3.9622 0.51186c0.9379 8e-3 0.69465 1.6945-0.24144 1.3446-0.59819-0.18418-0.49735-1.4837 0.24144-1.3446zm-1.9713 1.9145c0.95934-0.0117 0.7892 1.7542-0.17734 1.4619-0.75489-0.18476-0.71742-1.5623 0.17734-1.4619zm-2.0604 1.1788c0.90149 0.0761 0.83807 1.7496-0.14228 1.5598-0.75245-0.20695-0.68462-1.5295 0.14228-1.5598zm4.0156 0.21141c0.6983 0.0599 0.73073 1.2044 0.12485 1.3669-0.94821 0.20808-1.0489-1.4354-0.12485-1.3669z" style="fill:#3771c8;stroke-width:.39184"/>
	</g>
	<g id="case">
		<path id="path4" d="m170.7 1.7702c-1.101 0.22471-1.9018 0.74153-2.7526 1.7302l-0.70068 0.80894-0.0751 15.797-0.05 15.819 14.214 0.04494 14.214 0.06741 1.2262 0.58424c0.87584 0.40447 1.4764 0.87635 2.0019 1.6628l0.75072 1.0786 0.0751 4.4716 0.10009 4.4492h8.9586c4.9297 0 9.1338 0.04494 9.334 0.11235 0.27526 0.11235 0.37536-0.382 0.50047-2.7639 0.52551-8.9208 3.5534-16.471 9.4841-23.459 1.8268-2.1796 5.6554-5.6851 7.1569-6.5839 0.57555-0.33706 1.051-0.71906 1.051-0.80894 0-0.11235-8.0077-0.20224-17.992-0.20224-17.567 0-18.017 0-18.167 0.42694-0.27526 0.78647-2.127 2.2246-3.3032 2.5841-2.3022 0.71906-4.6545 0.24718-6.306-1.2584-0.55053-0.49435-1.076-1.0786-1.1511-1.3258-0.15014-0.40447-0.4254-0.42694-3.9037-0.42694h-3.7786l-1.4514-1.3033v-11.73l-4.3041 0.022471c-2.3773 0.022471-4.7045 0.089882-5.1299 0.20224z" style="stroke-width:.023713"/>
		<path id="path6" d="m313.14 1.8152c-0.05 0.15729-0.15014 2.8538-0.17517 5.9772l-0.0751 5.7075-0.70067 0.5393c-0.67565 0.51682-0.82579 0.53929-4.6795 0.53929h-3.9788l-0.37536 0.65165c-0.97594 1.6853-3.5284 2.8538-5.7555 2.6515-2.1521-0.20224-3.5784-1.0112-4.9047-2.8313-0.27526-0.382-0.57555-0.49435-1.101-0.42694-0.67565 0.06741-0.67565 0.08988 0.87584 1.2359 8.4331 6.1345 14.114 15.01 15.865 24.785 0.55053 3.0785 0.57556 9.5725 0.025 12.696-2.5775 15.19-14.814 27.864-31.405 32.56-2.6526 0.764-6.9316 1.4831-9.7093 1.6404-1.2762 0.06741-2.3272 0.22471-2.3272 0.33706 0 0.08988-0.67565 0.17976-1.5014 0.17976s-1.5014-0.08988-1.5014-0.20224c0-0.08988-0.97593-0.24718-2.1771-0.33706-3.103-0.20224-8.0327-1.1685-10.835-2.0898-13.413-4.4267-23.422-13.572-28.027-25.684l-0.97593-2.5841v14.224l-0.025 14.246-1.7016 1.528h-39.888l-1.7016-1.528v-35.818l1.7016-1.528h20.319v-3.9998c0-5.0559-0.37536-5.9772-2.8277-6.8985-0.77574-0.29212-2.8527-0.33706-14.689-0.33706h-13.763v114.87c18.694-4.7083 38.129-0.18989 54.803-0.18989l0.05-28.868 0.0751-25.639 1.4014-1.0786h74.747l0.1001-2.7639c0.0751-2.5841 0.12512-2.8313 0.77575-3.7077 0.40038-0.53929 1.2262-1.2134 2.0019-1.6179l1.3012-0.67412h25.399v-41.346c0-41.054 0-41.368-0.50048-42.245-0.27526-0.49435-0.97593-1.1685-1.5515-1.5055l-1.026-0.62918-5.7305-0.067412c-4.5794-0.067412-5.7305-0.022471-5.8306 0.22471z" style="stroke-width:.023713"/>
		<path id="path66" d="m297.25 86.911c-3.3862 2.7223 3.0597 6.3965 0 9.2354h11.661c6.256 0 9.5592 0.08988 9.9095 0.24718 1.2012 0.58424 1.2012 0.69659 1.2012 17.392v17.302h7.7574v-45.278c-10.596-0.14561-22.103-1.1489-30.529 1.1011z" style="stroke-width:.023713"/>
		<path id="path88" d="m320.02 155.24v24.493h7.7574v-48.986h-7.7574z" style="stroke-width:.023713"/>
		<path id="path120" d="m167.34 186.57c19.551-2.1436 37.759-0.81829 54.59-0.75957v-36.187c-8.6068-0.10044-29.433 0.18206-43.066 0h-11.736c-0.6535 12.317-0.1187 24.63 0.21147 36.946zm52.238-17.779c-25.272-0.66288-8.062 8.4047 0 0z" style="stroke-width:.023713"/>
		<path id="path202" d="m167.12 180.68c0 0.0449-0.0751 20.224-0.17517 44.829l-0.0751 49.136c19.659 0.80793 36.267-2.2936 55.053 2.1046v-95.889h-1.1261c-1.101 0-1.1261 0.0225-1.1261 0.71906-9.1715 0.98886-36.435-3.1706-52.55-0.89883zm52.45 14.538c-17.953-1.234-9.8915 28.574 0 0z" style="stroke-width:.023713"/>
		<path id="path236" d="m320.02 198.39v17.527h7.7574v-36.739c-3.8477-0.44218-4.0519-0.44069-7.7574-0.33706z" style="stroke-width:.023713"/>
		<path id="path266" d="m320.02 231.42v16.516c3.0449-1.1706 4.5704-0.33706 7.7574-0.33706v-32.582l-7.7574 0.33706z" style="stroke-width:.023713"/>
		<path id="path268" d="m320.02 266.34v19.415l-1.5515 1.1685h-47.37c-36.21 0-47.546-0.0674-48.046-0.26965-1.2762-0.51682-1.3012-0.85388-1.1761-8.3366l0.12512-6.8985h-55.128v2.9661c0 1.6404 0.0751 6.4041 0.17517 10.561l0.15015 7.5951h1.4764c1.7267 0 1.7267-0.1573 0.20019 2.8313-0.5255 1.0112-0.90086 1.91-0.80077 1.9774 0.17517 0.17976 158.95 0.17976 158.95 0 0-0.0674-0.45043-1.0561-1.001-2.2246s-1.001-2.2246-1.001-2.337c0-0.15729 0.57556-0.24717 1.3763-0.24717h1.3763v-45.615h-7.7574z" style="stroke-width:.023713"/>
	</g>
	<g id="puerto_ps2_1">
		<path id="path262-7" d="m271.39 227.09c-0.72237-0.0171-1.4634 0.0428-2.2145 0.18245-4.9307 0.88672-8.3968 5.7107-7.3183 10.18 0.88597 3.6533 3.39 6.065 7.2034 6.8454 3.698 0.8158 7.588-0.56707 9.7066-3.3692 2.2727-3.0859 2.4272-6.5976 0.42421-9.5062-1.8778-2.7378-4.671-4.2582-7.8012-4.3323zm-0.35759 2.7974c1.2697-0.0192 2.561 0.27605 3.69 0.89676 1.6563 0.95767 2.5807 2.6246 2.6578 4.7528 0.077 3.7953-2.8885 6.5264-6.6634 6.1363-2.2342-0.21282-2.9661-0.53211-4.3529-1.9154-2.3497-2.341-2.2342-6.0298 0.26958-8.2645 1.17-1.0375 2.7664-1.5812 4.399-1.6059zm-0.63351 1.5283v3.7281h1.4866v-3.7281zm-2.7046 1.863a0.54317 0.61259 0 0 0-0.54312 0.61237 0.54317 0.61259 0 0 0 0.54312 0.61237 0.54317 0.61259 0 0 0 0.54313-0.61237 0.54317 0.61259 0 0 0-0.54313-0.61237zm6.818 0a0.54317 0.61259 0 0 0-0.54312 0.61237 0.54317 0.61259 0 0 0 0.54312 0.61237 0.54317 0.61259 0 0 0 0.54312-0.61237 0.54317 0.61259 0 0 0-0.54312-0.61237zm-7.4476 2.2101a0.54317 0.61259 0 0 0-0.54312 0.61311 0.54317 0.61259 0 0 0 0.54312 0.61237 0.54317 0.61259 0 0 0 0.54312-0.61237 0.54317 0.61259 0 0 0-0.54312-0.61311zm8.0477 0.10711a0.54317 0.61259 0 0 0-0.54315 0.61237 0.54317 0.61259 0 0 0 0.54315 0.61237 0.54317 0.61259 0 0 0 0.54312-0.61237 0.54317 0.61259 0 0 0-0.54312-0.61237zm-5.961 2.663a0.54317 0.61259 0 0 0-0.54312 0.61311 0.54317 0.61259 0 0 0 0.54312 0.61237 0.54317 0.61259 0 0 0 0.54392-0.61237 0.54317 0.61259 0 0 0-0.54392-0.61311zm3.7456 0.0532a0.54317 0.61259 0 0 0-0.54312 0.61311 0.54317 0.61259 0 0 0 0.54312 0.61237 0.54317 0.61259 0 0 0 0.54313-0.61237 0.54317 0.61259 0 0 0-0.54313-0.61311z" style="stroke-width:.023713"/>
		<path id="path936" d="m270.98 229.9c-3.1865-1e-3 -6.4475 2.5511-6.1861 5.6609-0.18018 1.4496 0.34739 2.8748 1.3603 3.9742 1.8036 2.2412 5.381 2.7372 7.9963 1.539 2.3656-1.1131 3.4368-3.7121 3.1631-6.0773-0.0712-2.4753-2.2186-4.6455-4.8399-4.9836-0.49162-0.0869-0.99315-0.12559-1.4934-0.11329zm0.16109 1.5878c1.2753-0.28452 0.45951 1.3791 0.68669 2.071 0.20253 1.0923-0.0307 1.7786-1.3336 1.4684-0.0928-1.1057-0.0131-2.3722-0.0398-3.5394zm3.3984 1.8162c0.85094 0.0852 0.39921 1.5281-0.33293 0.99816-0.35984-0.2921-0.20546-1.0134 0.33293-0.99816zm-6.8267 0.0297c0.92552 0.062 0.28011 1.5864-0.39136 0.94872-0.17171-0.32882-0.13223-0.96498 0.39136-0.94872zm-0.61248 2.2303c0.85094 0.0852 0.39922 1.5281-0.33292 0.99815-0.35984-0.2921-0.20547-1.0134 0.33292-0.99815zm8.1323 0.2207c0.7123 0.072 0.0767 1.5614-0.43844 0.84865-0.20284-0.34094-0.19604-1.0452 0.43844-0.84865zm-6.0643 2.521c0.92552 0.062 0.28011 1.5864-0.39135 0.94872-0.17171-0.32882-0.13224-0.96498 0.39135-0.94872zm3.6884 0.12065c0.76987-0.0177 0.67861 1.2236-0.06 1.0638-0.53928-0.0801-0.55089-1.134 0.06-1.0638z" style="fill:#c0f;stroke-width:.39184"/>
	</g>
	<g id="puerto_ps2">
		<path id="path123" d="m294.88 227.52c-0.72237-0.0171-1.4626 0.0421-2.2138 0.18172-4.9308 0.88673-8.397 5.7105-7.3183 10.18 0.88598 3.6533 3.3892 6.0649 7.2026 6.8455 3.698 0.81578 7.5887-0.56708 9.7074-3.3691 2.2727-3.0858 2.4273-6.5978 0.4242-9.5061-1.8779-2.7377-4.6718-4.2574-7.8022-4.3316zm-0.35681 2.7974c1.2697-0.0192 2.561 0.27531 3.6901 0.896 1.6564 0.95765 2.5808 2.6245 2.6578 4.7525 0.0771 3.7953-2.8885 6.5263-6.6635 6.1363-2.2342-0.21281-2.9663-0.53209-4.3532-1.9154-2.3498-2.3409-2.2343-6.0297 0.26958-8.2645 1.1701-1.0374 2.7666-1.5805 4.399-1.6051zm-0.81591 1.5557v3.7288h1.4867v-3.7288zm-2.6514 1.6642a0.54318 0.61257 0 0 0-0.54314 0.61311 0.54318 0.61257 0 0 0 0.54314 0.61235 0.54318 0.61257 0 0 0 0.54314-0.61235 0.54318 0.61257 0 0 0-0.54314-0.61311zm6.8182 0a0.54318 0.61257 0 0 0-0.54314 0.61311 0.54318 0.61257 0 0 0 0.54314 0.61235 0.54318 0.61257 0 0 0 0.54314-0.61235 0.54318 0.61257 0 0 0-0.54314-0.61311zm-7.4478 2.2109a0.54318 0.61257 0 0 0-0.54314 0.61235 0.54318 0.61257 0 0 0 0.54314 0.61235 0.54318 0.61257 0 0 0 0.54314-0.61235 0.54318 0.61257 0 0 0-0.54314-0.61235zm8.0478 0.10637a0.54318 0.61257 0 0 0-0.54314 0.61235 0.54318 0.61257 0 0 0 0.54314 0.61311 0.54318 0.61257 0 0 0 0.54314-0.61311 0.54318 0.61257 0 0 0-0.54314-0.61235zm-5.9612 2.6637a0.54318 0.61257 0 0 0-0.54314 0.61235 0.54318 0.61257 0 0 0 0.54314 0.61235 0.54318 0.61257 0 0 0 0.54391-0.61235 0.54318 0.61257 0 0 0-0.54391-0.61235zm3.7457 0.0532a0.54318 0.61257 0 0 0-0.54314 0.61235 0.54318 0.61257 0 0 0 0.54314 0.61235 0.54318 0.61257 0 0 0 0.54314-0.61235 0.54318 0.61257 0 0 0-0.54314-0.61235z" style="stroke-width:.036963"/>
		<path id="path940" d="m294.45 230.31c-3.3672-0.0257-6.5437 2.851-6.2088 6.0456-0.17699 2.1723 1.5335 4.0332 3.3546 5.1719 2.7738 1.2407 6.6854 0.6614 8.2598-1.9948 1.1102-1.4472 1.0006-3.2804 0.84465-4.9616-0.53132-2.4222-3.0084-4.1443-5.608-4.2453-0.21365-0.0143-0.42801-0.0201-0.64215-0.0156zm-0.0234 1.6382c1.2753-0.28453 0.45947 1.3791 0.68669 2.071 0.20254 1.0923-0.0307 1.7786-1.3336 1.4684-0.0928-1.1057-0.0131-2.3722-0.0398-3.5394zm-3.3254 1.6673c0.86182 0.0964 0.32308 1.5814-0.37431 0.97285-0.32229-0.29819-0.13924-1.0094 0.37431-0.97285zm6.9773 0.0112c0.7359 0.31788-0.12192 1.6051-0.60614 0.85398-0.22376-0.4411 0.078-0.92304 0.60614-0.85398zm-7.6293 2.2623c0.76479-0.0482 0.44916 1.3184-0.19584 1.0164-0.37497-0.30051-0.51517-1.0408 0.19584-1.0164zm8.0564 0.0533c0.844 0.11506 0.36427 1.4368-0.3544 0.94903-0.31897-0.25603-0.14924-1.0141 0.3544-0.94903zm-5.9486 2.6452c0.86183 0.0964 0.32309 1.5814-0.3743 0.97285-0.32229-0.29819-0.13925-1.0094 0.3743-0.97285zm3.7216 0.028c0.8591 0.10529 0.29859 1.606-0.38441 0.92047-0.20324-0.34254-0.15264-0.93151 0.38441-0.92047z" style="fill:#00d4aa;stroke-width:.39184"/>
	</g>
	<g id="puerto_serial">
		<path id="path174-3" d="m298.5 178.68c-1.61 0-3.0707 0.10592-3.2794 0.21124-0.62613 0.34234-0.98477 1.6318-0.98477 3.5014v1.8172h-1.2813c-0.95411 0-1.4609 0.15828-1.8783 0.55327-0.53669 0.52666-0.56692 1.1588-0.56692 14.983s0.0302 14.456 0.56692 14.983c0.41742 0.39499 0.92471 0.55328 1.849 0.55328h1.2512l0.0904 2.2116c0.14909 3.1335 0.38747 3.3182 4.2038 3.3182 3.9953 0 4.1142-0.10586 4.1142-3.7924v-2.7376l1.1029-0.50085c0.62613-0.26331 1.4318-0.86919 1.7895-1.3695l0.68584-0.89456v-11.745c0-11.349-0.0305-11.771-0.59705-12.614-0.35779-0.52664-1.103-1.0793-1.7887-1.3163l-1.1925-0.44763v-2.8432c0-3.7656-0.11944-3.8715-4.0849-3.8715zm0.17917 1.1095c0.26836-3e-3 0.53687 0.15456 1.2226 0.47056 1.133 0.50031 1.1917 0.60561 1.1917 1.7906 0 1.1323-0.0884 1.2903-1.1021 1.8696l-1.1037 0.6323-1.2821-0.60572c-1.2522-0.57931-1.2813-0.6327-1.2813-1.8703 0-1.2113 0.0589-1.3158 1.1322-1.7898 0.68578-0.32915 0.95429-0.49383 1.2226-0.49714zm-6.2502 4.9478c0.22011-0.0113 0.47363 0 0.76436 0 0.71556 0 3.2499 0.28876 5.6349 0.65742 2.4151 0.34231 4.6207 0.76386 4.9785 0.92188 0.32796 0.15799 0.865 0.68474 1.1632 1.1324 0.5665 0.78998 0.59625 1.4222 0.59625 12.298 0 8.5582-0.0896 11.612-0.3877 12.086-0.86468 1.501-3.0114 2.1068-9.5709 2.7124l-3.5482 0.31542-0.53679-0.60572c-0.53669-0.57931-0.56532-1.3427-0.56532-14.483 0-13.779-0.0693-14.956 1.4716-15.035zm3.0121 2.909c-0.95036 7e-3 -1.6222 0.14516-1.9204 0.40849-0.26835 0.21066-0.53691 0.65832-0.62637 0.97433-0.0894 0.31598-0.11942 5.4248-0.0896 11.323 0.0894 10.296 0.11984 10.769 0.65651 11.138 0.74541 0.47398 2.1766 0.47447 5.2776-0.0259 3.5482-0.57932 4.1149-0.84249 4.7708-2.0801 0.50686-0.9743 0.56612-1.8702 0.56612-9.5592 0-11.06 0.0903-10.849-5.0381-11.797-1.4162-0.26331-2.646-0.38847-3.5964-0.38188zm-0.54945 1.1102c0.69742-0.0185 2.1626 0.17327 4.5328 0.58798 3.4288 0.63199 3.1903-0.1579 3.101 10.481l-0.0888 9.2165-0.74689 0.47422c-0.77522 0.52666-6.6184 1.4479-7.1549 1.1583-0.3578-0.18433-0.41761-21.54-0.0896-21.83 0.0671-0.0527 0.21396-0.0817 0.44641-0.0879zm1.3876 4.2636c-0.41074-2.7e-4 -0.74381 0.38148-0.74374 0.85244 0 0.47096 0.33302 0.85269 0.74374 0.85242 0.4104-2.4e-4 0.74297-0.38184 0.74292-0.85242 0-0.4706-0.3325-0.85219-0.74292-0.85244zm1.9148 2.0114c-0.41042 2.3e-4 -0.74301 0.38184-0.74294 0.85245 2.5e-4 0.47031 0.33277 0.85147 0.74294 0.8517 0.41049 2.7e-4 0.74346-0.38103 0.74374-0.8517 0-0.47097-0.333-0.85272-0.74374-0.85245zm-1.9996 1.0497c-0.41044 2.3e-4 -0.74304 0.38182-0.74296 0.85245 0 0.4706 0.33254 0.85219 0.74296 0.85242 0.41072 2.7e-4 0.74377-0.38149 0.74371-0.85242 0-0.47097-0.33299-0.85272-0.74371-0.85245zm1.9592 1.8881c-0.41042 2.2e-4 -0.74301 0.38184-0.74294 0.85244 0 0.47061 0.33252 0.8522 0.74294 0.85243 0.41072 2.7e-4 0.74379-0.38146 0.74374-0.85243 0-0.47096-0.333-0.85271-0.74374-0.85244zm-1.9996 1.0497c-0.41044 2.2e-4 -0.74303 0.38182-0.74296 0.85244 0 0.47061 0.33254 0.8522 0.74296 0.85243 0.41072 2.7e-4 0.74377-0.38149 0.74372-0.85243 0-0.47096-0.333-0.85271-0.74372-0.85244zm1.8783 2.1148c-0.41016 2.5e-4 -0.74263 0.3814-0.74291 0.85171 0 0.4706 0.3325 0.85219 0.74291 0.85244 0.41075 2.7e-4 0.74382-0.38148 0.74374-0.85244-2.5e-4 -0.47067-0.33324-0.85198-0.74374-0.85171zm-1.9996 1.0497c-0.41017 2.3e-4 -0.74267 0.38139-0.74294 0.8517 0 0.47061 0.33252 0.85222 0.74294 0.85245 0.41072 2.7e-4 0.74378-0.38148 0.74371-0.85245-2.5e-4 -0.47066-0.33324-0.85197-0.74371-0.8517zm1.9592 2.3778c-0.41042 2.2e-4 -0.74301 0.38184-0.74294 0.85244 2.5e-4 0.47031 0.33277 0.85148 0.74294 0.85171 0.41047 2.7e-4 0.74344-0.38104 0.74371-0.85171 0-0.47096-0.33299-0.85271-0.74371-0.85244zm-2.0401 1.238c-0.41042 2.3e-4 -0.74301 0.38184-0.74294 0.85245 2.5e-4 0.4703 0.33277 0.85145 0.74294 0.85168 0.41047 2.7e-4 0.74344-0.38102 0.74374-0.85168 0-0.47097-0.333-0.85272-0.74374-0.85245zm2.7569 9.4833c0.23851 0 0.89449 0.23702 1.4312 0.52669 0.92429 0.5003 0.98382 0.63214 0.89438 1.7381-0.0895 1.106-0.20777 1.2632-1.1917 1.7898l-1.1338 0.55329-1.1029-0.55329c-1.0137-0.52665-1.1324-0.68385-1.2218-1.7898-0.0894-1.106-0.0299-1.2378 0.89436-1.7381 0.53667-0.28967 1.1918-0.52669 1.4304-0.52669z" style="stroke-width:.023713"/>
		<path id="path932" d="m295.36 188.8c-1.2854-0.31604-0.99214 0.89407-1.037 1.6637-0.21791 6.395-0.13966 12.8 0.0695 19.194-0.20857 1.07 0.57071 1.2493 1.5337 0.99876 2.2141-0.22278 4.6085-0.45082 6.5044-1.5835 0.0272-5.7914 0.39329-11.594 0.0294-17.38 0.01-0.94149-0.52564-1.9741-1.6409-2.0748-1.7909-0.39194-3.6193-0.72714-5.459-0.81806zm0.94634 4.2843c0.86888 0.11606 0.9638 1.3093 0.10455 1.5314-0.99725 0.2033-1.0693-1.5684-0.10455-1.5314zm1.9603 1.946c0.89357 0.23346 0.65267 1.7778-0.2688 1.6864-0.76257-0.39337-0.64857-1.4758 0.19141-1.6885l0.0215-1e-3zm-1.9833 1.0547c0.88841 0.19637 0.72059 1.7743-0.19331 1.6729-0.85671-0.25415-0.71101-1.651 0.19331-1.6729zm1.935 1.9798c1.0934 0.11982 0.54192 2.1016-0.4656 1.3954-0.53161-0.37027-0.34978-1.54 0.4656-1.3954zm-1.9972 1.0582c1.161 0.0595 0.55536 1.9188-0.45582 1.4663-0.41579-0.33947-0.32604-1.6279 0.45582-1.4663zm1.8943 2.0937c0.73914 0.0172 0.74348 1.2144 0.23753 1.519-1.0096 0.3016-1.4816-1.2553-0.43621-1.4846 0.0643-0.0192 0.13111-0.0318 0.19868-0.0344zm-2.019 1.0446c1.0482 0.12033 0.71142 1.9219-0.34145 1.5105-0.6126-0.31591-0.52897-1.625 0.34145-1.5105zm2.0061 2.4106c1.074 0.0371 0.48995 2.0347-0.4596 1.4419-0.57265-0.38425-0.42671-1.5903 0.4596-1.4419zm-2.117 1.2242c0.90936 0.10136 0.86126 1.381 9e-3 1.5343-0.94858 0.15062-0.97054-1.5977-9e-3 -1.5343z" style="fill:#c0f;stroke-width:.39184"/>
	</g>
	<g id="usb_traseros">
		<path id="path76" d="m253.22 142.48 0.11191 9.1568 4.1037 0.0988c2.2757 0.0659 4.4768 0 4.9618-0.0988l0.82073-0.16469-0.0746-8.9921-0.11194-8.959-4.9618-0.0988-4.9245-0.0988zm4.0291 0.13175v7.5757l-1.0073-0.0988-1.0446-0.0988-0.11191-7.5099-0.0746-7.4769h2.2384z" style="stroke-width:.035055"/>
		<path id="path76-0" d="m266.27 142.74 0.11191 9.1568 4.1037 0.0988c2.2757 0.0659 4.4768 0 4.9618-0.0988l0.82073-0.16469-0.0746-8.9921-0.11194-8.959-4.9618-0.0988-4.9245-0.0988zm4.0291 0.13177v7.5757l-1.0073-0.0988-1.0446-0.0988-0.11191-7.5097-0.0746-7.4769h2.2384z" style="stroke-width:.023713"/>
		<path id="path76-9" d="m279.31 142.85 0.1119 9.1568 4.1037 0.0988c2.2757 0.0659 4.4768 0 4.9618-0.0988l0.82073-0.16469-0.0746-8.9921-0.11193-8.959-4.9618-0.0988-4.9245-0.0988zm4.0291 0.13177v7.5757l-1.0073-0.0988-1.0446-0.0988-0.11191-7.5097-0.0746-7.4769h2.2384z" style="stroke-width:.023713"/>
		<path id="path76-01" d="m292.69 142.64 0.1119 9.1568 4.1037 0.0988c2.2757 0.0659 4.4768 0 4.9618-0.0988l0.82073-0.16469-0.0746-8.9921-0.11193-8.959-4.9618-0.0988-4.9245-0.0988zm4.0291 0.13177v7.5757l-1.0073-0.0988-1.0446-0.0988-0.11194-7.5097-0.0746-7.4769h2.2384z" style="stroke-width:.023713"/>
		<path id="path76-05" d="m279.43 164.16 0.11193 9.1568 4.1037 0.0988c2.2757 0.0659 4.4768 0 4.9618-0.0988l0.82074-0.16469-0.0746-8.9921-0.11193-8.959-4.9618-0.0988-4.9245-0.0988zm4.0291 0.13177v7.5757l-1.0073-0.0988-1.0446-0.0988-0.11194-7.5097-0.0746-7.4769h2.2384z" style="stroke-width:.023713"/>
		<path id="path76-8" d="m292.47 164.16 0.11193 9.1568 4.1037 0.0988c2.2757 0.0659 4.4768 0 4.9618-0.0988l0.82073-0.16469-0.0746-8.9921-0.11194-8.959-4.9618-0.0988-4.9245-0.0988zm4.0291 0.13177v7.5757l-1.0073-0.0988-1.0446-0.0988-0.11191-7.5097-0.0746-7.4769h2.2384z" style="stroke-width:.023713"/>
	</g>
	<g id="puerto_rj45">
		<path id="path110" d="m257.88 156.94c-0.0777 0.22446-0.23298 1.1223-0.27179 2.0201l-0.11649 1.6033-1.6308 0.0962c-1.4755 0.0962-1.6696 0.1924-1.6696 0.89784 0 0.64131-0.19414 0.76957-1.1648 0.76957h-1.1648v6.4131h1.1648c0.9707 0 1.1648 0.12826 1.1648 0.80164 0 0.73751 0.1553 0.80164 1.7472 0.80164h1.7472v3.8479h12.813v-4.8098l-0.0492 0.98129c-0.52128 0.73881-3.4453 0.38614-3.4453-0.17965s0.46593-0.48098 1.7473-0.48098c0.97068 0 1.7472-0.16033 1.7472-0.32066 0-0.19239-0.77657-0.32065-1.7472-0.32065-1.2813 0-1.7473-0.12827-1.7473-0.48099s0.46593-0.48098 1.7473-0.48098c0.97068 0 1.7472-0.16033 1.7472-0.32066 0-0.19239-0.77657-0.32065-1.7472-0.32065-1.2813 0-1.7473-0.12826-1.7473-0.48098 0-0.35273 0.46593-0.48099 1.7473-0.48099 0.97068 0 1.7472-0.16033 1.7472-0.32065 0-0.1924-0.81539-0.32066-1.7861-0.32066-1.4755 0-1.7472-0.0962-1.6308-0.57718 0.11649-0.41685 0.50476-0.54511 1.7861-0.54511 0.89303 0 1.6308-0.0962 1.6308-0.25653 0-0.12826-0.77657-0.22446-1.7472-0.22446-1.2813 0-1.7473-0.12826-1.7473-0.48098s0.46593-0.48098 1.7473-0.48098c0.97068 0 1.7472-0.16033 1.7472-0.32066 0-0.19239-0.81539-0.32065-1.7861-0.32065-1.4755 0-1.7472-0.0962-1.6308-0.57718 0.0777-0.38479 0.62125-0.60925 1.8637-0.73751l1.7472-0.19239-1.8637-0.0321c-1.5531-0.0641-1.8637-0.16033-1.7473-0.64131 0.0777-0.38479 0.58241-0.57718 1.7861-0.64131l1.6308-0.0962v-3.1744h-6.2125c-4.6595 0-6.29 0.0962-6.4066 0.38479z" style="stroke-width:.035285"/>
		<path id="path965" d="m270.42 159.73 0.0263 10.633" style="fill:none;stroke-width:.28646px;stroke:#000"/>
		<path id="path971" d="m270.28 167.8c-0.90063 0.22215-1.8441 0.10827-2.757 0.2446-0.30801 0.0448-0.6987 0.24199-0.65717 0.57941 0.0427 0.32229 0.42634 0.47721 0.73577 0.51031 0.84806 0.11344 1.7129 0.0258 2.5485 0.18826 0.13833 0.0838 0.34407 9e-3 0.31323-0.16204 9e-5 -0.41235 0.0208-0.82561 3e-3 -1.2376-0.0328-0.0765-0.091-0.13447-0.18622-0.12297z" style="fill:#fc0;stroke-width:.39184"/>
		<path id="path973" d="m270.27 166.2c-0.92568 0.2513-1.9083 0.0916-2.8451 0.26939-0.30009 0.0589-0.63919 0.3046-0.54911 0.62328 0.0888 0.34492 0.52804 0.4144 0.84758 0.45596 0.84115 0.10203 1.7042 0.0102 2.5332 0.20194 0.23699 9e-3 0.21342-0.26231 0.21696-0.41348-6e-3 -0.34649 0.0256-0.70017-0.0156-1.0419-0.0167-0.074-0.11401-0.10821-0.18801-0.0952z" style="fill:#fc0;stroke-width:.39184"/>
		<path id="path975" d="m270.28 164.49c-0.86337 0.15083-1.7397 0.0563-2.6069 0.18982-0.37676 0.0598-0.73342 0.33481-0.74568 0.71023-0.0467 0.23526 0.1371 0.44397 0.37669 0.49684 0.5472 0.13245 1.127 0.078 1.683 0.11919 0.42464 0.0223 0.85902 0.0357 1.2774 0.14028 0.24271 2e-3 0.20602-0.27727 0.2133-0.43152-5e-3 -0.37507 0.0249-0.75528-0.0279-1.1272-0.0288-0.0644-0.0999-0.0941-0.16992-0.0976z" style="fill:#fc0;stroke-width:.39184"/>
		<path id="path977" d="m270.27 162.98c-0.77227 0.21426-1.5796 0.14105-2.3732 0.21028-0.35291 0.0331-0.81156 0.067-0.98694 0.40419-0.14212 0.27766 0.0976 0.58939 0.3931 0.65992 0.57842 0.1619 1.1967 0.10855 1.7903 0.14708 0.38857 0.0169 0.77767 0.0256 1.1568 0.0947 0.19816 0.0327 0.26311-0.16396 0.22911-0.31107-0.0121-0.36928 0.0243-0.74605-0.0185-1.1106-0.0165-0.0749-0.11636-0.10867-0.19069-0.0945z" style="fill:#fc0;stroke-width:.39184"/>
		<path id="path985" d="m270.28 161.17c-0.69432 0.0775-1.3919 0.13901-2.0809 0.25185-0.37257 0.0788-0.79638 0.16136-1.0452 0.4568-0.11727 0.16031-0.17502 0.40029-0.0548 0.57237 0.20103 0.18931 0.51525 0.19109 0.78185 0.21356 0.72009 0.0481 1.449 3.8e-4 2.1573 0.12411 0.0931 6e-3 0.20056 0.0824 0.28444 0.035 0.0476-0.22015 0.0164-0.45191 0.0276-0.6763-6e-3 -0.31866 0.0124-0.64075-0.0215-0.95738-8e-3 -0.0176-0.0307-0.0211-0.0487-0.02z" style="fill:#fc0;stroke-width:.39184"/>
		<path id="path987" d="m270.21 159.72c-0.81676 0.0666-1.6458 0.0566-2.4504 0.21797-0.31174 0.0618-0.64442 0.24071-0.71068 0.55411-0.0561 0.17315 0.0203 0.37873 0.20871 0.44741 0.39862 0.15996 0.84555 0.1545 1.2711 0.1855 0.5934 0.025 1.1875 0.0322 1.7814 0.0364 0.09-0.0671 0.0177-0.21951 0.0409-0.3203-6e-3 -0.36968 0.0112-0.74389-8e-3 -1.1108-0.0242-0.0398-0.0938-8e-3 -0.13278-0.0104z" style="fill:#fc0;stroke-width:.39184"/>
		<path id="path989" d="m270.32 169.5c-0.58982 0.2032-1.2294 0.14574-1.8459 0.17781-0.40823 0.0264-0.83279-0.0241-1.2298 0.0831-0.20888 0.0737-0.32826 0.34188-0.23067 0.52884 0.21846 0.2802 0.62182 0.34795 0.96133 0.42696 0.70621 0.1198 1.475 0.17839 2.1504-0.0934 0.10306-0.0656 0.29523-0.10545 0.3123-0.23788-0.10616-0.0689-0.0431-0.22209-0.0636-0.32851-0.01-0.1827 0.0196-0.37348-0.0155-0.55074-0.0125 0.0112-0.0259-0.0127-0.0386-6e-3z" style="fill:#fc0;stroke-width:.39184"/>
	</g>
	<g id="toma_corriente">
		<path id="path62" d="m178.98 49.318c-0.30029 0.06741-0.75072 0.31459-1.001 0.58424-0.45043 0.42694-0.47546 1.2134-0.47546 17.819 0 16.763 0.025 17.392 0.47546 17.842l0.47546 0.47188h19.494c19.143 0 19.469 0 19.969-0.44941s0.50048-0.74153 0.50048-17.864 0-17.415-0.50048-17.864c-0.47545-0.42694-0.82579-0.44941-8.4331-0.44941-4.3792 0-12.912-0.04494-18.968-0.08988-6.0558-0.06741-11.261-0.06741-11.536 0zm32.356 2.6066 0.57555 0.47188v15.145c0 14.763 0 15.123-0.50048 15.572-0.27526 0.24718-0.75072 0.49435-1.051 0.56176-0.32532 0.06741-6.231 0.08988-13.138 0.06741l-12.562-0.06741-1.1511-1.0336v-30.358l0.60058-0.42694c0.55053-0.40447 1.1511-0.42694 13.613-0.42694h13.038z" style="stroke-width:.023713"/>
		<path id="path64" d="m187.87 54.329-0.7257 0.65165v24.583l1.4514 1.3033h15.765l1.6266-1.528c0.87585-0.83141 2.127-2.0448 2.7777-2.6965l1.1511-1.1909v-16.763l-3.3782-2.4942-3.3532-2.5167h-14.589zm10.11 4.4492c0.10009 0.33706 0.0751 1.9549-0.05 2.5841 0 0.11235-1.5265 0.17976-3.3782 0.17976-2.7276 0-3.4533-0.06741-3.7536-0.35953-0.45043-0.40447-0.52551-1.3482-0.15015-2.2021l0.25024-0.58424h3.4783c3.128 0 3.5034 0.04494 3.6035 0.382zm8.6833 7.6849c0.12512 0.24718 0.25024 0.71906 0.25024 1.0336s-0.12512 0.78647-0.25024 1.0336c-0.25024 0.382-0.57555 0.42694-4.0038 0.42694-3.4283 0-3.8036-0.04494-4.2541-0.44941-0.65062-0.58424-0.6256-1.3033 0.05-1.9549 0.5255-0.49435 0.70067-0.51682 4.2291-0.51682 3.4033 0 3.7286 0.04494 3.9788 0.42694zm-8.6333 8.6737v1.3482l-3.5034 0.06741c-3.078 0.04494-3.5284 0-3.8036-0.33706-0.40039-0.47188-0.42541-1.5055-0.0751-2.1122 0.25024-0.40447 0.52551-0.42694 3.8287-0.382l3.5534 0.06741z" style="stroke-width:.023713"/>
	</g>
	<g id="puerto_audio">
		<path id="path68" d="m264.84 115.81c-2.279 1.0401-3.1526 2.1809-3.3805 4.4289-0.30386 3.4223 2.317 5.9052 6.2672 5.9052 3.2665 0 5.7734-2.0467 6.0772-4.9322 0.49378-4.3618-4.5959-7.415-8.964-5.4019zm4.2161 0.26842c0.41781 0 1.4433 0.57038 2.241 1.3085 1.3674 1.1743 1.4813 1.4427 1.4813 3.0868 0 1.2414-0.26588 2.1809-0.75965 2.919-1.3674 1.9796-4.7858 2.6842-7.1028 1.4092-3.2665-1.7447-3.6084-5.3683-0.79764-7.717 0.91159-0.73815 2.8487-1.3756 3.6464-1.1408 0.30386 0.0671 0.8736 0.13421 1.2914 0.13421z" style="stroke-width:.035699"/>
		<path id="path70" d="m265.14 118.39c-2.9627 2.6171 0.18992 6.8111 3.9502 5.2341 2.3929-1.0066 2.9247-3.5901 1.0635-5.2341-0.83562-0.70459-1.4813-0.97301-2.5069-0.97301s-1.6712 0.26842-2.5069 0.97301z" style="stroke-width:.035699"/>
		<path id="path930" d="m267.13 115.95c-3.3994 0.0718-6.1073 3.9628-4.3486 6.808 1.1671 1.9928 3.7855 3.1518 6.1633 2.5013 2.2944-0.3417 3.8577-2.4002 3.8874-4.4922 0.0783-1.1611-0.21425-2.4182-1.292-3.1302-0.9808-1.0169-2.3253-1.8066-3.8483-1.6842-0.1871-7.6e-4 -0.37419-7e-3 -0.56128-3e-3zm0.72586 1.4996c1.9339 0.0624 3.7248 1.9421 3.2547 3.7625-0.2156 1.8803-2.5596 2.8975-4.3714 2.6345-2.3538-0.36957-3.6567-3.4448-1.8794-5.0667 0.72387-0.85412 1.8329-1.4371 2.996-1.3304z" style="fill:#c0f;stroke-width:.39183"/>
	</g>
	<g id="puerto_micro">
		<path id="path72" d="m281.02 116.05c-5.6771 2.5359-3.5341 9.9811 2.8574 9.9811 2.2558 0 3.9853-0.81279 5.3764-2.6009 0.75194-0.94284 0.86473-1.463 0.75194-2.9586-0.18798-2.2108-1.3159-3.7063-3.4589-4.5516-2.0678-0.81279-3.5341-0.78028-5.5268 0.13005zm5.226 0.58521c3.9101 1.6581 3.9477 6.5349 0.0752 8.258-2.2934 1.0404-5.5267 0.29261-6.9554-1.5606-1.6919-2.2758-0.67675-5.4945 2.1806-6.6974 1.9926-0.84531 2.6318-0.84531 4.6996 0z" style="stroke-width:.034962"/>
		<path id="path74" d="m281.4 118.52c-1.4287 1.2354-1.4663 2.8285-0.15039 4.194 1.5791 1.6256 3.6845 1.6256 5.414 0.0325 1.955-1.8532 0.18798-5.1694-2.7822-5.1694-1.0151 0-1.6543 0.2601-2.4814 0.94284z" style="stroke-width:.034962"/>
		<path id="path938" d="m283.79 116.07c-3.1892 0.0121-6.0608 3.1336-5.0219 6.0737 1.0774 3.2039 6.0003 4.2424 8.6358 2.0564 1.9911-1.4088 2.4094-4.2972 0.81779-6.1104-1.048-1.2374-2.7265-2.0511-4.4316-2.0196zm0.0888 1.5343c2.4678-0.10013 4.5233 2.7513 3.0788 4.7427-0.98261 1.2576-2.8038 1.8294-4.376 1.2819-1.5088-0.73936-2.8552-2.5705-1.941-4.1478 0.60924-1.1009 1.9222-1.8611 3.238-1.8769z" style="fill:#37c837;stroke-width:.39184"/>
	</g>
	<g id="ventilacion">
		<path id="path28" d="m236.04 15.522c-7.332 5.5952-11.936 11.505-14.689 18.83-1.2512 3.3256-1.8768 6.2693-2.2271 10.606-0.27527 3.4155-0.25025 3.8425 0.12511 4.5615 0.30029 0.58424 0.42541 1.3932 0.42541 2.8762 0 4.6514 2.9278 11.752 7.0568 17.168 6.1809 8.0894 15.59 14.089 25.7 16.359 2.6776 0.60671 7.1819 1.2359 8.7334 1.2359 0.57556 0 1.1011 0.08988 1.1761 0.22471 0.0751 0.11235 0.55053 0.22471 1.026 0.22471 0.47545 0 0.85081-0.11235 0.85081-0.22471 0-0.13482 0.55053-0.22471 1.2512-0.22471 0.67565 0 2.4774-0.15729 4.0038-0.33706 15.515-1.9549 28.527-10.763 34.883-23.639 6.6063-13.392 4.3792-29.324-5.7305-40.852-1.5515-1.7527-5.0548-4.966-7.4822-6.8086l-1.2262-0.94376h-7.0568l0.6256 0.44941c0.35034 0.24718 0.7257 0.44941 0.8258 0.44941 0.40038 0 4.5794 2.6965 6.4312 4.1346 5.9807 4.6514 10.71 11.572 12.662 18.493 0.57555 2.0898 1.3513 6.5839 1.3513 7.9546v0.67412l-2.052-0.06741-2.077-0.06741-0.17517-1.91c-1.1511-12.539-10.335-23.549-23.573-28.29-4.8296-1.7078-5.5804-1.8201-13.388-1.8201-7.6073 0-8.6333 0.13482-12.612 1.5505-4.9798 1.7752-8.6333 3.8425-12.287 6.9884-6.5062 5.5727-10.61 13.28-11.361 21.459l-0.17517 2.0224-4.204 0.13482 0.17517-1.8651c0.85082-9.2579 4.7546-17.055 11.761-23.504 2.4524-2.2695 6.4061-5.1008 8.4331-5.9996 0.67564-0.31459 1.2262-0.62918 1.2262-0.67412 0-0.06741-1.6266-0.11235-3.6034-0.11235h-3.5784zm26.175 3.0785v1.7527l-1.8017 0.15729c-7.7574 0.69659-15.365 4.6514-20.294 10.584-3.0529 3.6627-5.3802 9.0557-5.8556 13.707l-0.2002 1.7976-1.9268 0.06741-1.9519 0.06741v-0.74153c0-1.2134 0.7257-5.1008 1.2512-6.8985 1.076-3.4829 3.3282-7.5951 5.6554-10.292 1.5014-1.7302 4.6294-4.6065 6.4312-5.8424 4.4042-3.056 10.485-5.348 15.74-5.8873 3.2531-0.33706 2.9528-0.49435 2.9528 1.528zm6.0558-1.4156c15.59 1.91 27.727 13.505 29.128 27.774l0.17517 1.7527h-4.0789v-0.98871c0-1.5505-0.70067-4.7862-1.5265-6.9659-2.077-5.5502-6.281-10.471-11.761-13.752-4.179-2.4942-8.308-3.8649-13.388-4.4042l-2.6025-0.26965v-1.7527c0-2.0673-0.32531-1.9549 4.0539-1.3932zm0.45043 5.8424c11.611 1.8651 20.77 10.718 22.246 21.549 0.12512 0.96624 0.17517 1.8651 0.12512 1.9549-0.22522 0.31459-4.1039 0.22471-4.204-0.11235-0.0501-0.13482-0.20019-1.0786-0.35034-2.0673-0.6256-4.1795-2.6275-7.9546-5.9057-11.078-1.1011-1.0336-2.6776-2.3145-3.5034-2.8538-3.3282-2.1122-7.4572-3.5504-11.211-3.8649l-1.7016-0.13482v-3.9324l1.2012 0.11235c0.65062 0.04494 2.127 0.24718 3.3032 0.42694zm-6.5062 1.528v1.8651l-1.4764 0.15729c-8.6833 0.87635-16.341 6.9209-18.918 14.898-0.35033 1.0786-0.72569 2.674-0.82579 3.5504l-0.17517 1.5729-1.9769 0.06741c-1.1011 0.04494-2.077-0.02247-2.2021-0.13482-0.30029-0.26965 0.22521-3.6627 0.95091-6.112 1.8268-6.0895 6.6564-11.707 12.862-14.898 2.8277-1.4606 7.8325-2.8088 10.585-2.8313l1.1761-0.02247zm0 5.8648c0 2.2695-0.025 2.3594-0.55052 2.3594-1.1261 0-4.5043 0.96624-5.8306 1.6853-4.6545 2.5167-7.257 6.1345-8.2579 11.393l-0.15014 0.85388h-4.8046l0.15014-1.7078c0.2002-1.91 1.3012-5.1458 2.4524-7.0782 1.8768-3.1459 5.5053-6.3142 9.1087-7.9546 1.9018-0.87635 5.6804-1.8875 7.0818-1.91h0.80077zm6.3311-1.8201c5.6054 1.2808 10.585 4.6289 13.663 9.2354 1.1761 1.7302 2.5274 5.3929 2.7026 7.3029l0.15015 1.5954-2.5775-0.06741-2.6025-0.06741-0.30029-1.4606c-1.2762-6.1345-6.4562-10.921-13.088-12.067l-2.2772-0.40447v-4.6065h0.97594c0.5255 0 2.052 0.24718 3.3532 0.53929zm-41.215 22.156c1.001 7.7973 4.4292 14.246 10.46 19.684 6.1058 5.4828 14.139 8.8759 22.321 9.4377l2.102 0.15729v3.7526h-0.67565c-1.4013-0.02247-6.0058-0.67412-7.9576-1.1235-7.9326-1.8875-13.888-5.0559-19.469-10.336-6.3561-5.9996-10.26-13.864-11.061-22.313l-0.17516-1.7527 4.154 0.13482zm7.0067-0.33706c1.2762 9.1455 7.0818 16.606 15.965 20.538 3.5034 1.5505 8.1578 2.7189 10.986 2.7189h0.92588v3.6627l-1.8017-0.15729c-7.6574-0.67412-14.539-3.4829-20.019-8.1793-5.7806-4.966-9.2839-11.572-10.11-19.1l-0.17517-1.6404 1.9769 0.06741 1.9519 0.06741zm6.4562-1.8651c0.05 0.15729 0.22522 1.1011 0.40038 2.0898 1.4014 8.2692 8.4081 14.92 17.517 16.651 0.90087 0.15729 2.052 0.31459 2.5775 0.31459h0.92588v2.0224c0 1.1011-0.05 2.0224-0.10009 2.0224-0.80077 0-4.4292-0.58424-5.8056-0.9213-5.7305-1.4156-10.86-4.5166-14.414-8.7411-1.6015-1.8651-3.7536-5.8873-4.4292-8.2018-0.52551-1.8651-1.051-5.0334-0.85082-5.348 0.20019-0.29212 4.0789-0.17976 4.179 0.11235zm6.7815 0.56176c0.65063 3.4829 2.102 6.112 4.6294 8.3815 2.5524 2.292 5.5053 3.6852 8.6083 4.0222l1.2762 0.13482 0.0751 2.1796 0.0751 2.2021h-0.65063c-1.2262 0-4.5043-0.71906-6.1809-1.3482-4.3542-1.6628-8.333-4.9885-10.435-8.6961-1.076-1.91-2.027-4.6065-2.2021-6.2693l-0.15014-1.4381h4.8046zm37.311 0.67412c-0.1001 0.83141-0.45043 2.2695-0.80077 3.1684-1.8768 5.0334-5.4803 8.7411-10.735 11.056-2.7777 1.2134-4.6294 1.7078-7.332 1.9325l-1.8017 0.15729v-2.1796c0-1.1909 0.025-2.1572 0.0751-2.1572 3.8287-0.49435 6.7815-1.5055 9.2839-3.1908 2.9778-1.9999 5.0048-4.8087 5.8056-8.0669 0.22521-0.89882 0.45043-1.7976 0.50048-1.9549 0.05-0.17976 0.80076-0.26965 2.6275-0.26965h2.5524zm6.1559-0.26965c-0.15014 2.0224-1.2762 5.7525-2.4273 7.9321-4.204 7.9771-12.562 13.123-22.822 14.067l-1.5765 0.1573v-3.9998l2.0019-0.13482c2.9028-0.20224 7.0067-1.4831 9.7844-3.056 3.8287-2.1572 7.1819-5.5727 8.9085-9.0107 0.7257-1.4831 1.8268-5.1682 1.8268-6.1569 0-0.40447 0.0751-0.80894 0.17517-0.89882 0.1001-0.08988 1.076-0.11235 2.2021-0.08988l2.0019 0.06741zm6.256 0.33706c-0.20019 3.7975-2.0269 9.0107-4.4793 12.628-4.0289 5.9996-10.36 10.651-17.617 12.943-2.6776 0.85388-6.256 1.5505-8.9336 1.7527l-2.052 0.15729v-3.5953l2.2021-0.15729c5.18-0.33706 11.286-2.4718 15.565-5.4154 1.9519-1.3482 5.23-4.4492 6.5062-6.1569 2.5775-3.4605 4.2791-7.4827 4.8296-11.55l0.27526-2.2021 1.9018 0.06741 1.8768 0.06741zm7.332 0.15729c-1.4013 14.246-11.236 25.976-26.225 31.279-3.5284 1.2584-10.06 2.4718-13.238 2.4942h-0.95091v-3.82h1.3513c3.5534 0 10.635-1.6628 14.514-3.4155 9.1087-4.1121 16.166-11.572 18.918-19.999 0.80077-2.4942 1.5014-5.7974 1.5014-7.1457 0-0.44941 0.0751-0.89882 0.17517-0.96624 0.0751-0.08988 1.051-0.15729 2.1521-0.15729h1.9769z" style="stroke-width:.023713"/>
		<path id="path30" d="m257.71 17.747c-2.3773 0.35953-7.307 1.9774-9.6342 3.1684-7.9826 4.0672-13.763 10.674-16.14 18.448-0.75072 2.4718-1.3263 6.494-0.92589 6.7187 0.37536 0.22471 1.9769 0.22471 2.3272 0 0.15014-0.08988 0.35033-0.87635 0.42541-1.7527 0.4254-4.0896 2.6275-9.3478 5.4552-13.033 2.8527-3.7076 7.8075-7.3704 12.462-9.1905 2.3773-0.94376 5.8806-1.7976 8.358-2.0224l1.6766-0.15729v-2.4268l-1.3012 0.02247c-0.7257 0.02247-1.9519 0.11235-2.7026 0.22471z" style="stroke-width:.023713"/>
		<path id="path32" d="m264.72 18.623v1.2808l1.7767 0.15729c10.26 0.85388 19.719 6.6288 24.298 14.853 1.7016 3.0335 3.2031 7.8198 3.2031 10.179 0 0.98871 0.25024 1.1685 1.5765 1.1685 1.3012 0 1.3763-0.15729 1.1511-2.0224-0.35034-2.8088-0.97594-5.1682-2.0019-7.5277-3.7036-8.5388-11.211-14.965-20.895-17.842-2.6525-0.78647-4.3792-1.1011-8.0327-1.4606l-1.076-0.08988z" style="stroke-width:.023713"/>
		<path id="path34" d="m264.72 24.555v1.4156l1.5765 0.13482c7.6073 0.65165 14.989 5.3255 18.568 11.707 1.1261 2.0448 2.3773 5.7974 2.3773 7.2131 0 0.98871 0.47546 1.2808 1.9268 1.1909l1.2012-0.06741-0.025-1.3482c-0.05-3.1009-2.2021-8.2467-4.7796-11.505-3.178-4.0222-8.2579-7.4153-13.513-9.0332-1.6266-0.49435-5.3802-1.146-6.6063-1.146-0.7257 0-0.7257 0-0.7257 1.4381z" style="stroke-width:.023713"/>
		<path id="path36" d="m258.54 23.454c-7.9326 1.2808-14.839 6.0671-18.618 12.898-1.4264 2.5841-2.5024 6.0446-2.5524 8.2242l-0.05 1.5729 1.3513 0.06741c1.5265 0.08988 1.7767-0.08988 1.7767-1.3258 0-0.44941 0.22522-1.5729 0.50048-2.5167 1.8017-6.3592 6.1059-11.348 12.337-14.224 2.1521-0.98871 6.231-2.1122 7.7074-2.1122 0.72569 0 0.72569 0 0.72569-1.4606 0-1.4381 0-1.4606-0.67565-1.4381-0.40038 0-1.5014 0.15729-2.5024 0.31459z" style="stroke-width:.023713"/>
		<path id="path38" d="m259.59 28.847c-4.179 0.85388-7.0818 2.292-10.16 5.0334-3.2281 2.8987-5.3051 6.4715-6.0308 10.381-0.35034 1.91-0.25025 1.9999 1.8518 1.9999 1.6266 0 1.7767-0.13482 2.052-1.7752 0.45043-2.7189 2.8778-6.6288 5.3051-8.5388 2.3522-1.8426 5.3051-3.1684 7.9826-3.5054l1.1261-0.15729v-1.8875c0-1.3707-0.0751-1.8875-0.30029-1.8651-0.17516 0-1.001 0.15729-1.8268 0.31459z" style="stroke-width:.023713"/>
		<path id="path40" d="m264.72 30.398c0 1.8426 0.025 1.9325 0.55053 1.9325 1.1761 0 3.9288 0.764 5.8306 1.6404 2.6526 1.2134 5.8806 4.0672 7.1819 6.3367 0.95091 1.6628 1.9519 4.3144 1.9519 5.1682 0 0.62918 0.42541 0.78647 2.2021 0.78647 2.102 0 2.2021-0.11235 1.8518-1.91-1.7016-8.1793-9.1338-14.561-18.368-15.752l-1.2012-0.13482z" style="stroke-width:.023713"/>
		<path id="path42" d="m223.65 48.846c-0.22522 0.17976 0.25024 3.7751 0.80077 6.0446 2.4524 10.449 10.46 19.729 21.195 24.605 4.0789 1.8426 9.409 3.2133 14.639 3.7301l1.4264 0.13482v-2.9436h-1.076c-3.5534 0-9.8094-1.5954-14.189-3.6178-8.6333-3.9998-15.34-11.168-18.117-19.347-0.82579-2.4044-1.6516-6.1569-1.6516-7.4602 0-0.69659-0.12512-1.0336-0.40038-1.1235-0.45043-0.1573-2.4774-0.17976-2.6275-0.02247z" style="stroke-width:.023713"/>
		<path id="path44" d="m231.03 48.914c-0.67565 0.40447 0.67565 6.4491 2.1521 9.6399 4.6044 9.8871 13.838 16.336 25.725 17.932 1.3263 0.17976 2.5024 0.33706 2.6275 0.33706 0.1001 0 0.17517-0.60671 0.17517-1.3482v-1.3482h-0.97593c-2.7276 0-7.8826-1.3482-11.311-2.9436-5.8056-2.7189-10.785-7.5277-13.363-12.943-1.026-2.1122-2.052-5.5727-2.2772-7.6625-0.1001-0.83141-0.30029-1.5729-0.45043-1.6628-0.15015-0.08988-0.67565-0.17976-1.1511-0.17976-0.47545 0-1.001 0.08988-1.1511 0.17976z" style="stroke-width:.023713"/>
		<path id="path46" d="m237.27 49.093c-0.40038 0.94376 0.87585 5.6176 2.3022 8.3366 2.4524 4.6739 5.8806 8.022 10.81 10.606 2.3272 1.1909 7.1819 2.6515 9.5341 2.8538l1.8268 0.15729-0.15015-2.8762-1.5014-0.15729c-6.5062-0.71906-12.812-4.4492-16.416-9.7073-1.3763-1.9999-2.8527-5.7749-3.128-7.9321-0.1001-0.71906-0.30029-1.3707-0.45043-1.4606-0.15015-0.08988-0.82579-0.17976-1.4764-0.17976-0.85081 0-1.2262 0.08988-1.3513 0.35953z" style="stroke-width:.023713"/>
		<path id="path48" d="m243.47 48.936c-0.27527 0.1573-0.27527 0.44941 0.05 1.8651 1.7267 7.64 8.6333 13.55 17.141 14.651l1.051 0.13482v-1.6853c0-1.6404 0-1.6853-0.67565-1.7976-4.229-0.764-6.5313-1.8426-9.2338-4.2694-2.3022-2.0673-3.5284-4.0222-4.3542-6.9209-0.27526-0.96624-0.55052-1.8426-0.6256-1.9549-0.20019-0.26965-2.8778-0.29212-3.3532-0.02247z" style="stroke-width:.023713"/>
		<path id="path50" d="m280.38 49.003c-0.05 0.15729-0.27527 0.96624-0.50048 1.7976-0.82579 3.1234-2.6526 5.7525-5.4552 7.8422-2.3522 1.7527-5.0048 2.7864-9.0086 3.4605-0.70068 0.11235-0.70068 0.15729-0.70068 1.7976 0 1.9774-0.17517 1.91 3.4033 1.2584 6.9066-1.2808 12.987-6.0221 15.29-11.954 0.87584-2.2695 1.2012-4.0447 0.77574-4.2694-0.5255-0.31459-3.7036-0.24718-3.8036 0.06741z" style="stroke-width:.023713"/>
		<path id="path52" d="m287.56 48.869c-0.17516 0.06741-0.32531 0.40447-0.32531 0.764 0 0.33706-0.27526 1.5729-0.60057 2.7639-2.1521 7.5951-9.0086 13.437-17.917 15.325-0.90086 0.17976-1.9769 0.33706-2.4273 0.33706-1.4514 0-1.5765 0.13482-1.5765 1.6853v1.4156l1.076-0.11235c7.6073-0.764 14.589-4.0896 19.018-9.0557 3.0029-3.3706 5.3802-8.5164 5.5053-11.887l0.05-1.2584-1.2512-0.04494c-0.67564-0.02247-1.4013 0-1.5515 0.06741z" style="stroke-width:.023713"/>
		<path id="path54" d="m294.37 48.914c-0.15014 0.08988-0.40038 1.0112-0.57555 2.0673-1.5765 9.9994-9.2589 18.314-20.019 21.662-2.5775 0.80894-5.7055 1.4156-7.8075 1.528l-1.1261 0.06741-0.0751 1.3258-0.0751 1.3033 1.3263-0.13482c9.1087-0.98871 15.84-3.7975 21.37-8.8984 5.5053-5.0559 8.4081-10.494 9.3089-17.347 0.17517-1.2134 0.15015-1.528-0.15014-1.6404-0.50048-0.15729-1.8768-0.13482-2.1771 0.06741z" style="stroke-width:.023713"/>
		<path id="path56" d="m301.33 48.869c-0.17517 0.06741-0.32532 0.51682-0.32532 0.98871 0 1.3258-0.67564 4.4042-1.5014 6.9434-3.4033 10.292-12.562 18.606-24.273 22.021-3.153 0.9213-5.4052 1.3482-8.1828 1.528l-2.3272 0.13482v2.8987l1.7016-0.15729c10.635-0.9213 19.594-4.7413 26.601-11.28 3.7036-3.4829 6.3561-7.1007 8.2329-11.28 1.6266-3.5953 2.9028-8.786 2.7026-10.921-0.0751-0.89882-0.0751-0.89882-1.2012-0.94376-0.6256-0.02247-1.2762 0-1.4264 0.06741z" style="stroke-width:.023713"/>
		<path id="path58" d="m245.25 14.803c-0.32531 0.13482-1.9018 1.0336-3.5284 2.0224-4.6044 2.7864-8.358 6.1794-11.411 10.224-1.4514 1.9549-3.8787 6.4041-4.7295 8.6512-0.8258 2.2021-1.8518 6.876-1.9519 8.8759l-0.0751 1.5729 1.2012 0.06741c0.67565 0.04494 1.3513-0.04494 1.5265-0.15729 0.20019-0.13482 0.40038-1.0336 0.50048-2.1122 0.5255-6.1569 3.5784-12.943 8.0327-17.887 4.6545-5.1907 10.91-9.0781 17.392-10.808 0.97594-0.24718 1.7517-0.51682 1.7517-0.56176 0-0.20224-8.1328-0.08988-8.7084 0.11235z" style="stroke-width:.023713"/>
		<path id="path60" d="m273.35 14.803c0.27527 0.11235 1.3012 0.40447 2.2522 0.67412 4.204 1.1235 9.434 3.9324 13.388 7.1681 6.6314 5.4154 11.286 13.752 11.936 21.37 0.0751 1.0561 0.27526 1.9774 0.42541 2.0673 0.35034 0.22471 2.6025 0.22471 2.7276 0 0.20019-0.31459-0.30029-3.9773-0.8258-6.3367-1.6015-6.8535-5.23-12.808-10.986-17.999-3.2031-2.8762-4.9798-4.1346-8.5832-6.0671l-2.027-1.1011-4.4042 0.02247c-2.7026 0-4.204 0.08988-3.9038 0.20224z" style="stroke-width:.023713"/>
	</g>
	<g id="puerto_paralelo">
		<path id="path270" d="m271.58 269.27c-17.52 0-23.105 0.084-23.765 0.36195-0.4857 0.19458-1.11 0.74997-1.3876 1.2225l-0.52093 0.91744h-2.776c-1.7347 0-2.9834 0.13931-3.2263 0.33389-0.24286 0.19457-0.41546 1.1948-0.41546 2.5846 0 1.3899 0.17262 2.3908 0.41546 2.5854 0.24286 0.19458 1.3533 0.33314 2.6023 0.33314h2.186v0.8347c0 0.47256 0.31217 1.0837 0.6938 1.3894 0.69387 0.55592 1.145 0.55546 26.125 0.55546 24.216 0 25.5-0.0268 26.021-0.49934 0.34695-0.27797 0.58914-0.91763 0.58914-1.3902v-0.8901h2.2209c2.8449 0 3.1565-0.27781 3.1565-2.9185 0-2.7241-0.24199-2.9185-3.6766-2.9185-2.6714 0-2.7408-0.0276-3.2612-0.80592-1.1449-1.779 0.20733-1.696-24.98-1.696zm11.328 0.58209c9.0372 0.0209 11.093 0.12048 11.744 0.39151 0.58979 0.25017 1.1445 0.77812 1.3527 1.334 0.31223 0.7505 1.3878 6.1984 1.4225 7.1991 0 0.11118-0.2428 0.38924-0.55503 0.61163-0.4857 0.38917-3.2616 0.44469-25.466 0.44469s-24.979-0.0555-25.465-0.44469c-0.6592-0.52816-0.65936-0.11128-0.0349-3.6971 0.6245-3.5302 1.3181-5.142 2.3589-5.5312 0.5204-0.19458 7.9455-0.30581 23.072-0.30581 4.7705-7e-3 8.5585-9e-3 11.571-2e-3zm-22.559 0.84358c-8.5443 8e-3 -9.1943 0.11744-10.001 0.49268-1.1449 0.58372-1.5608 1.5844-2.0465 4.8924-0.20817 1.2509-0.13903 1.6405 0.38138 2.0853 0.62449 0.55596 1.1454 0.5555 22.794 0.5555 21.718 0 22.134 3.8e-4 22.827-0.5555 0.76325-0.61152 0.72899-1.4183-0.20773-4.5872-0.93673-3.0299 1.1102-2.7797-22.273-2.8631-4.9004-0.0139-8.6267-0.0225-11.475-0.0199zm3.5633 1.0711c2.1236 2e-3 4.5805 5e-3 7.4255 5e-3 16.757 0 19.811 0.0553 20.435 0.41663 0.52041 0.30576 0.79724 0.91782 1.1442 2.6135 0.24286 1.2231 0.31182 2.3351 0.20774 2.5019-0.17347 0.22238-6.6952 0.30508-21.752 0.30508-19.359 0-21.51-0.0548-21.718-0.44394-0.10408-0.25017 4.1e-4 -1.307 0.24342-2.3911 0.63749-2.87-0.85045-3.0155 14.014-3.0072zm-9.8296 0.81699a0.84035 0.77641 0 0 0-0.84047 0.77634 0.84035 0.77641 0 0 0 0.84047 0.77634 0.84035 0.77641 0 0 0 0.84047-0.77634 0.84035 0.77641 0 0 0-0.84047-0.77634zm32.016 0.0295a0.84035 0.77641 0 0 0-0.84047 0.77634 0.84035 0.77641 0 0 0 0.84047 0.77633 0.84035 0.77641 0 0 0 0.84047-0.77633 0.84035 0.77641 0 0 0-0.84047-0.77634zm-28.348 0.0148a0.84035 0.77641 0 0 0-0.8397 0.77634 0.84035 0.77641 0 0 0 0.8397 0.77633 0.84035 0.77641 0 0 0 0.84047-0.77633 0.84035 0.77641 0 0 0-0.84047-0.77634zm24.738 0.0377a0.84035 0.77641 0 0 0-0.84047 0.77633 0.84035 0.77641 0 0 0 0.84047 0.77634 0.84035 0.77641 0 0 0 0.84047-0.77634 0.84035 0.77641 0 0 0-0.84047-0.77633zm-20.981 0.0111a0.84035 0.77641 0 0 0-0.84047 0.77634 0.84035 0.77641 0 0 0 0.84047 0.77633 0.84035 0.77641 0 0 0 0.84047-0.77633 0.84035 0.77641 0 0 0-0.84047-0.77634zm6.8973 0.0126a0.84035 0.77641 0 0 0-0.84047 0.77633 0.84035 0.77641 0 0 0 0.84047 0.77634 0.84035 0.77641 0 0 0 0.83969-0.77634 0.84035 0.77641 0 0 0-0.83969-0.77633zm7.4588 7.5e-4a0.84035 0.77641 0 0 0-0.84047 0.77634 0.84035 0.77641 0 0 0 0.84047 0.77634 0.84035 0.77641 0 0 0 0.84047-0.77634 0.84035 0.77641 0 0 0-0.84047-0.77634zm-3.9621 0.0436a0.84035 0.77641 0 0 0-0.84047 0.77634 0.84035 0.77641 0 0 0 0.84047 0.77634 0.84035 0.77641 0 0 0 0.8397-0.77634 0.84035 0.77641 0 0 0-0.8397-0.77634zm-6.8973 0.0399a0.84035 0.77641 0 0 0-0.84046 0.77634 0.84035 0.77641 0 0 0 0.84046 0.77633 0.84035 0.77641 0 0 0 0.84047-0.77633 0.84035 0.77641 0 0 0-0.84047-0.77634zm14.242 0.0133a0.84035 0.77641 0 0 0-0.84047 0.77634 0.84035 0.77641 0 0 0 0.84047 0.77634 0.84035 0.77641 0 0 0 0.84046-0.77634 0.84035 0.77641 0 0 0-0.84046-0.77634zm-26.644 2.1097a0.84035 0.77641 0 0 0-0.84047 0.77633 0.84035 0.77641 0 0 0 0.84047 0.7771 0.84035 0.77641 0 0 0 0.84047-0.7771 0.84035 0.77641 0 0 0-0.84047-0.77633zm3.6021 0.0975a0.84035 0.77641 0 0 0-0.8397 0.77634 0.84035 0.77641 0 0 0 0.8397 0.77633 0.84035 0.77641 0 0 0 0.84047-0.77633 0.84035 0.77641 0 0 0-0.84047-0.77634zm14.265 0.0524a0.84035 0.77641 0 0 0-0.84047 0.77633 0.84035 0.77641 0 0 0 0.84047 0.77634 0.84035 0.77641 0 0 0 0.84047-0.77634 0.84035 0.77641 0 0 0-0.84047-0.77633zm7.4015 7.5e-4a0.84035 0.77641 0 0 0-0.84046 0.77634 0.84035 0.77641 0 0 0 0.84046 0.77634 0.84035 0.77641 0 0 0 0.84047-0.77634 0.84035 0.77641 0 0 0-0.84047-0.77634zm-18.015 0.0487a0.84035 0.77641 0 0 0-0.84046 0.77634 0.84035 0.77641 0 0 0 0.84046 0.77634 0.84035 0.77641 0 0 0 0.84047-0.77634 0.84035 0.77641 0 0 0-0.84047-0.77634zm20.866 0a0.84035 0.77641 0 0 0-0.84047 0.77634 0.84035 0.77641 0 0 0 0.84047 0.77634 0.84035 0.77641 0 0 0 0.84047-0.77634 0.84035 0.77641 0 0 0-0.84047-0.77634zm-6.739 0.0133a0.84035 0.77641 0 0 0-0.84047 0.77633 0.84035 0.77641 0 0 0 0.84047 0.77634 0.84035 0.77641 0 0 0 0.84047-0.77634 0.84035 0.77641 0 0 0-0.84047-0.77633zm-10.696 0.031a0.84035 0.77641 0 0 0-0.84046 0.77633 0.84035 0.77641 0 0 0 0.84046 0.77634 0.84035 0.77641 0 0 0 0.84047-0.77634 0.84035 0.77641 0 0 0-0.84047-0.77633zm21.438 0.10637a0.84035 0.77641 0 0 0-0.84047 0.77633 0.84035 0.77641 0 0 0 0.84047 0.77634 0.84035 0.77641 0 0 0 0.84047-0.77634 0.84035 0.77641 0 0 0-0.84047-0.77633zm-17.915 0.0222a0.84035 0.77641 0 0 0-0.83969 0.77634 0.84035 0.77641 0 0 0 0.83969 0.77633 0.84035 0.77641 0 0 0 0.84047-0.77633 0.84035 0.77641 0 0 0-0.84047-0.77634zm21.553 0.0532a0.84035 0.77641 0 0 0-0.84047 0.77634 0.84035 0.77641 0 0 0 0.84047 0.77634 0.84035 0.77641 0 0 0 0.84047-0.77634 0.84035 0.77641 0 0 0-0.84047-0.77634z" style="stroke-width:.031054"/>
		<path id="path1142" d="m263.94 271.71c-3.0919 0.0212-6.1861-0.0313-9.2763 0.0695-1.2286 0.0886-2.5159 0.0736-3.6691 0.52929-0.57177 0.21634-0.87738 0.75996-0.94862 1.3064-0.22081 1.1001-0.50717 2.2066-0.51054 3.3306-0.0181 0.45456 0.57046 0.48194 0.9219 0.52982 2.8719 0.23477 5.7602 0.14111 8.6397 0.1734 9.9092 5e-3 19.818 0.0244 29.727-0.0518 1.3718-0.0391 2.7551 0.01 4.1173-0.165 0.38738-0.0184 0.3487-0.42843 0.32653-0.68523-0.12237-1.3327-0.3151-2.6867-0.84806-3.9367-0.2059-0.51171-0.7404-0.84744-1.3212-0.87233-2.1185-0.25449-4.2614-0.13942-6.3911-0.18735-6.9225-0.0335-13.845-0.0429-20.768-0.0405zm-9.8369 0.96298c0.54806-0.0155 0.96782 0.65512 0.58597 1.0635-0.32688 0.56292-1.3851 0.26638-1.3381-0.37381-8e-3 -0.37546 0.35163-0.69979 0.75213-0.68969zm32.035 0.0452c0.59522-0.0217 0.95966 0.73818 0.52008 1.123-0.37993 0.41103-1.1922 0.21395-1.2783-0.3321-0.11142-0.43005 0.29727-0.8244 0.75818-0.79089zm-28.328 7e-3c0.69209-0.0142 0.9569 0.96835 0.33201 1.2491-0.47928 0.3466-1.2101-0.11325-1.1052-0.64733 7e-3 -0.36888 0.40048-0.61515 0.77312-0.60176zm24.75 0.0403c0.69258-0.0108 0.91407 0.98174 0.31996 1.2577-0.47368 0.26771-1.1833-0.0803-1.1306-0.61579 1e-3 -0.3857 0.41502-0.67131 0.81067-0.64193zm-21.017 0.0149c0.6836-0.0472 0.97131 0.92054 0.39019 1.2388-0.52677 0.37533-1.3436-0.15423-1.142-0.74638 0.0779-0.31263 0.41656-0.51175 0.7518-0.49242zm14.382 4e-3c0.55122 3e-3 0.93599 0.71881 0.51663 1.1003-0.37124 0.51546-1.3858 0.19075-1.2954-0.43977-0.0272-0.39155 0.37332-0.68769 0.77884-0.66053zm-7.4876 5e-3c0.6491-0.0407 0.94261 0.83034 0.45655 1.1884-0.45407 0.40838-1.3491 0.0177-1.2092-0.58595 0.0367-0.37327 0.3544-0.62971 0.7527-0.6024zm3.4836 0.036c0.48289-0.0242 0.8308 0.45279 0.67978 0.86612-0.11961 0.55702-1.0219 0.68712-1.3118 0.1775-0.33061-0.44901 0.0517-1.0761 0.63197-1.0436zm-6.8986 0.0509c0.47271-0.01 0.8427 0.43009 0.69542 0.85334-0.12092 0.6339-1.271 0.66681-1.4024 0.0255-0.1425-0.4414 0.1772-0.91703 0.70702-0.87883zm14.349 0.0151c0.61207 0.0344 0.84156 0.87622 0.34329 1.1957-0.41019 0.34742-1.1402 0.0884-1.178-0.42802-0.0877-0.50214 0.31688-0.8078 0.83467-0.76771zm-26.705 2.1056c0.6409-0.0101 0.9187 0.86204 0.40326 1.1992-0.4192 0.32049-1.2143 0.075-1.1831-0.48202-0.0464-0.43232 0.32376-0.75266 0.77982-0.71715zm3.5243 0.0832c0.53433-0.0178 0.95495 0.55963 0.6791 1.0026-0.26304 0.52895-1.2475 0.45744-1.3565-0.14149-0.13252-0.41523 0.19396-0.87758 0.67743-0.86113zm21.682 0.0521c0.66574-0.0263 1.0292 0.88534 0.45898 1.2356-0.42045 0.29227-1.1723 0.0709-1.1717-0.46931-0.0546-0.39454 0.26258-0.79347 0.71271-0.76624zm-7.3532 3.2e-4c0.76455-0.0303 0.94346 1.1514 0.21419 1.3178-0.37599 0.12768-0.82524-0.0311-0.95548-0.39462-0.19215-0.45936 0.23136-0.93609 0.7413-0.92323zm-10.617 0.0587c0.52897 8e-3 0.89158 0.62929 0.59603 1.0526-0.3246 0.50297-1.3035 0.34687-1.3558-0.26749-0.0859-0.41768 0.28236-0.83957 0.75984-0.78518zm20.841-1.1e-4c0.53742-9e-3 0.9869 0.64601 0.58508 1.0537-0.32249 0.53818-1.3236 0.3003-1.3417-0.31628-0.0473-0.3925 0.33584-0.75992 0.7566-0.73742zm-6.6923 0.0188c0.64089-0.0101 0.91869 0.86203 0.40326 1.1992-0.42293 0.32095-1.2359 0.0806-1.1837-0.49189-0.0511-0.42676 0.34049-0.74252 0.78039-0.70724zm-10.689 0.0248c0.56799 0.0194 0.91598 0.76321 0.47709 1.137-0.37816 0.41928-1.2224 0.1976-1.2777-0.35841-0.0763-0.43343 0.3323-0.82097 0.8006-0.77853zm21.424 0.10861c0.54253-3e-3 0.93546 0.70206 0.52511 1.0821-0.33452 0.48009-1.2345 0.27655-1.3067-0.28684-0.0915-0.43902 0.30237-0.82997 0.7816-0.79528zm-17.957 0.027c0.62823-0.0465 0.93303 0.74468 0.53047 1.1403-0.40665 0.42423-1.3066 0.13672-1.278-0.45641-0.0152-0.37393 0.33511-0.72407 0.74755-0.68387zm21.525 0.0523c0.58767-0.0592 0.93355 0.61166 0.63878 1.0474-0.35964 0.58626-1.4339 0.23011-1.3649-0.41897 0.0123-0.35316 0.35308-0.63761 0.72611-0.62838z" style="fill:#d5f;stroke-width:.39184"/>
	</g>
</svg>
