<?xml version="1.0" encoding="UTF-8"?>
<svg id="svg22" width="738pt" height="657pt" version="1.0" viewBox="0 0 738 657" xmlns="http://www.w3.org/2000/svg">
	<g id="case_delantero">
		<path id="path4" d="m368.22 32.032c-4.7334 0.68063-10.054 2.212-13.671 3.8285-16.534 7.4869-40.821 18.292-48.35 21.61-4.6507 2.0419-14.764 6.551-22.514 10.039-13.139 5.9555-28.271 12.762-40.968 18.462-3.0264 1.3613-12.475 5.5301-21.038 9.3586-8.4888 3.8285-19.635 8.8482-24.728 11.145-5.0938 2.212-12.549 5.6152-16.609 7.4018l-7.3821 3.233-0.47769 6.3809c-1.5076 19.058-1.7498 39.221-1.4253 102.01 0.24192 38.115 0.41123 123.11 0.45797 188.79 0.13574 103.03 0.24212 119.79 1.2174 121.83 0.6765 1.6165 1.0693 5.1898 1.1071 11.145 0.0308 4.8495 0.35442 9.1885 0.65377 9.699s7.0536 3.3181 14.993 6.2107c7.9392 2.8927 15.285 5.6152 16.324 6.0406 1.0391 0.42539 10.685 3.9987 21.518 7.9974 10.833 3.9136 29.68 10.89 41.923 15.399 38.511 14.293 61.364 22.631 68.264 25.098 3.7094 1.2762 11.278 4.0838 16.992 6.2958l10.314 3.8285 30.02-5.5301c16.489-2.9778 39.484-7.2317 51.093-9.3586 22.256-4.0838 26.544-4.9346 57.674-10.55 10.721-1.9568 20.111-3.8285 20.7-4.2539 0.66354-0.4254 2.0592-2.127 3.0113-3.7435 0.95209-1.6165 2.9378-3.6584 4.4135-4.4241 1.4757-0.7657 4.0526-2.9778 5.6687-4.9346 5.8038-6.9764 5.565 2.0419 3.8711-148.21-0.75941-72.997-1.4-138.93-1.4491-146.68 0.0249-7.7422 0.14387-35.648 0.19802-62.107 0.0541-26.459 0.24072-67.042 0.31593-90.183 0.0752-23.141-0.22513-47.134-0.6336-53.174l-0.73644-11.06-3.1421-5.1898-3.2166-5.2749-6.0783-1.2762c-3.262-0.76571-17.643-3.9136-31.95-6.9764-14.233-3.0628-32.765-7.0615-41.141-8.9332-8.3769-1.8717-19.719-4.339-25.204-5.5301s-16.828-3.7435-25.205-5.6152c-17.792-3.9987-24.235-4.5092-34.81-2.8076zm9.2574 187.26c0.49021 100.56 1.4137 222.74 2.0203 271.66l1.1565 88.907 2.3969 4.4241c3.8953 7.2317 9.933 13.783 15.207 16.675 4.6793 2.4673 4.7534 2.4673 15.633 2.127 7.9187-0.34031 16.868-1.5314 33.062-4.4241 12.2-2.212 32.017-5.7003 43.996-7.8272 19.078-3.3181 28.616-5.0196 38.451-6.8063l2.5882-0.42539-3.3896 2.4673c-1.842 1.3613-4.0482 3.6584-4.9279 5.0196-1.6848 2.8076 1.7156 2.0419-49.674 11.401-7.5421 1.3613-19.816 3.6584-27.358 5.0196-7.5415 1.4463-19.003 3.4882-25.509 4.6793s-21.147 3.9136-32.534 5.9555c-11.387 2.127-21.369 3.8285-22.258 3.8285-1.3325 0-1.6356-1.106-3.3366-12.507l-1.782-12.507-0.64716-171.94c-0.87371-265.96-1.085-380.9-0.51066-383.7 0.50253-2.4673 0.72407-2.5524 6.4182-3.4882 3.1799-0.51047 6.804-1.0209 7.9879-1.106l2.1462-0.08508zm9.0023-179.52c1.3519 3.0628 1.4562 7.8272 2.4262 102.35l0.99922 99.117 2.9946 5.2749c2.7703 4.9346 3.3658 5.445 8.191 7.572 6.9028 2.8927 17.57 4.0838 55.93 6.2958 16.884 0.93587 37.915 2.127 46.654 2.6374 21.55 1.2762 27.47 0.93586 29.896-1.7016l1.9117-2.0419 0.054 8.5079c0.0599 9.4437-0.73654 12.251-4.1256 14.804-2.431 1.8717-12.349 2.127-31.679 0.76571-6.517-0.4254-21.847-1.4463-34.066-2.127s-28.733-1.7016-36.657-2.127c-21.254-1.2762-26.219-2.127-31.051-5.36-4.9814-3.4031-8.7184-9.0183-10.914-16.675l-1.6642-5.6152 0.10308-100.39c0.0469-97.585-0.0687-104.14-2.1209-112.56-0.83481-3.233 1.6145-2.212 3.1172 1.2762zm17.327 0.68063c14.01 2.9778 73.684 15.995 85.99 18.717 7.561 1.6165 18.236 3.9987 23.721 5.1047 16.382 3.4882 16.382 3.4882 18.924 7.4869 2.0943 3.4031 2.1727 4.0838 2.84 15.91 0.75912 14.634 0.85357 41.178 0.1214 42.454-0.51171 1.021 1.1931 1.3613-85.222-14.463-12.821-2.2971-28.681-5.1898-35.203-6.2958-6.5219-1.1911-13.859-2.4673-16.305-2.9778-2.4456-0.42539-4.6691-0.85078-4.9652-0.85078-0.2961 0-0.75695-14.293-1.0157-31.734-0.25822-17.356-0.72555-32.67-1.0292-33.861l-0.6068-2.2971 3.6327 0.85078c1.9274 0.42539 6.0783 1.2762 9.1177 1.9568zm-48.564 92.906c0.0241 50.452 0.44614 175.26 0.79856 277.44 0.59433 140.29 0.51202 185.64-0.0818 185.39-0.5198-0.25524-8.532-2.9778-17.953-6.1257-9.3473-3.1479-25.297-8.5079-35.461-11.996-10.237-3.4031-18.767-6.0406-19.136-5.7853-0.29449 0.25524-0.59221 0-0.59491-0.42539-3e-3 -0.51047-0.4501-0.93587-1.0423-0.93587-0.51819 0-6.4522-1.8717-13.129-4.1688-6.677-2.2971-27.819-9.3586-47.033-15.74-19.14-6.466-37.019-12.507-39.69-13.527l-4.8236-1.8717-0.85137-180.79c-0.4832-99.457-0.76056-189.81-0.53411-200.79l0.3178-19.908 5.5363-2.4673c3.027-1.2762 9.5235-4.0838 14.397-6.0406 4.8728-2.0419 13.88-5.8704 19.933-8.5079 6.1269-2.7225 15.06-6.551 19.933-8.5929 4.8728-2.0419 13.88-5.8704 19.933-8.5079 6.1275-2.6374 15.06-6.466 19.933-8.5079 4.8728-2.0419 10.189-4.2539 11.812-5.0196 2.8789-1.2762 24.067-10.295 45.034-19.228 5.6849-2.3822 12.625-5.36 15.356-6.551l5.0198-2.212-0.25502-5.1898c-0.2534-4.9346-0.32904-5.1898-2.1041-4.9346-0.96127 0.17016-5.6131 2.0419-10.337 4.1688-4.6502 2.127-10.63 4.7644-13.288 5.7853-2.6579 1.106-9.9666 4.2539-16.241 7.0615-6.275 2.7225-22.59 9.784-36.173 15.74-54.556 23.652-95.379 41.433-96.043 41.859-0.36797 0.34032-0.66732-0.17015-0.67272-1.0209-8e-3 -1.1911 2.6477-2.7225 12.023-6.8063 6.57-2.8927 17.643-7.7422 24.508-10.89 19.783-8.8482 37.868-16.931 54.256-24.247 8.3418-3.6584 23.179-10.295 32.848-14.719 9.744-4.339 21.702-9.784 26.574-11.911 4.8723-2.127 12.697-5.6152 17.347-7.7422 4.6502-2.127 8.7849-3.8285 9.1545-3.9136 0.37014 0 0.68176 37.435 0.72963 91.63zm27.642 16.335-0.17171 101.24 1.742 6.2107c3.2587 11.911 11.09 21.099 19.093 22.376 6.5208 1.0209 20.445 2.212 41.032 3.4031 11.997 0.68063 31.177 1.8717 42.581 2.5524 11.404 0.68063 25.769 1.2762 31.84 1.3613 10.364 0.0851 11.326 0 13.979-1.8717l2.8746-1.9568-0.3772 10.55c-0.25939 5.7853-0.41991 15.484-0.38103 21.61l0.0707 11.145-1.7955-2.9778c-1.4222-2.4673-2.76-3.3181-8.0289-5.36-5.639-2.0419-7.2692-2.2971-16.967-2.2971-5.8481 0-25.839-0.59555-44.35-1.2762-18.511-0.68062-38.65-1.2762-44.795-1.4463l-11.106-0.25524-5.1624 3.0628c-4.9414 2.8927-5.2354 3.233-7.7874 9.3586l-2.6985 6.3809 0.53121 118.68c0.65432 138.08 0.22803 129.23 7.3735 135.36 5.5082 4.7644 11.438 6.0406 21.125 4.339 16.786-2.8927 74.17-12.421 89.256-14.889 15.16-2.4673 16.786-2.8927 19.88-5.2749 1.842-1.3612 3.8262-3.6584 4.4843-4.9346 2.8503-5.7854 3.1821-0.17016 0.41063 6.3809-3.1356 7.4869-1.2152 6.8063-39.075 13.357-10.944 1.8717-24.106 4.1688-29.208 5.1047-33.791 6.2107-48.656 8.5079-55.91 8.5079-7.1066 0-8.07-0.17016-12.082-2.4673-4.4583-2.6374-9.156-7.9974-12.453-14.208l-1.8733-3.5733-1.5512-162.76c-2.1615-223.93-2.6764-375.03-1.3877-370.26 0.83265 2.8927 0.95145 21.61 0.88735 104.82zm-32.29-95.543c0.0113 1.7866-0.57656 2.4673-3.0864 3.5733-8.7838 3.9987-170.76 72.997-170.98 72.912-0.14913-0.17015-7e-3 -1.106 0.20804-2.212 0.3588-1.7866 2.4245-2.8927 14.605-8.1675 7.8258-3.3181 32.778-14.208 55.515-24.077 22.738-9.8691 51.159-22.206 63.119-27.395s25.469-11.06 29.898-13.017c9.8915-4.4241 10.705-4.5092 10.724-1.6165zm58.488 59.47c6.5219 1.1911 15.045 2.7225 18.898 3.4031 3.8537 0.68063 11.191 2.0419 16.305 2.9778 5.1138 0.93587 18.75 3.4032 30.385 5.445 11.636 2.127 29.719 5.36 40.242 7.2317 10.524 1.9568 19.417 3.4882 19.787 3.4882 0.44416 0 0.78401 6.8914 0.85421 17.952l0.11394 17.952-2.7422-0.51047c-1.5562-0.25524-14.82-2.2971-29.491-4.4241-42.901-6.2107-76.911-11.23-89.655-13.102-6.5208-1.0209-13.782-2.0419-16.078-2.2971l-4.2968-0.51047-0.25866-40.753 2.076 0.51047c1.112 0.25524 7.3378 1.4463 13.86 2.6374zm-8.9914 41.263c2.6677 0.42539 18.006 2.7225 34.085 5.1047 16.078 2.2971 42.308 6.1257 58.165 8.5079 15.931 2.3822 32.157 4.6793 36.158 5.2749l7.1871 1.0209 0.0956 15.059-2.3721-0.51047c-1.3341-0.25524-16.745-2.3822-34.304-4.6793-17.485-2.2971-36.081-4.7644-41.193-5.445-24.598-3.4032-55.568-7.572-59.569-8.0825l-4.4448-0.51047-0.275-8.3377c-0.18801-6.2958-0.0524-8.2526 0.68789-8.2526 0.51818 0 3.1118 0.42539 5.7795 0.85079zm23.239 22.546c15.633 2.0419 38.379 5.1898 50.603 6.8063 12.225 1.6165 24.894 3.3181 28.154 3.8285 3.2599 0.42539 11.632 1.5314 18.522 2.4673 6.965 1.0209 13.188 1.7866 13.928 1.7866 1.1844 0 1.2687 1.6165 0.99897 29.097-0.19405 16.08-0.62854 29.267-0.92356 29.437-0.36906 0.17016-1.3211 1.7866-2.2716 3.6584-1.2422 2.5524-2.1252 3.4031-4.1947 3.9136-1.4789 0.25523-10.807 0.0851-20.805-0.51048-9.9968-0.51047-28.14-1.5314-40.359-2.212-49.023-2.7225-57.838-3.6584-64.148-6.3809-3.489-1.5314-4.4573-2.4673-6.4808-6.3809l-2.3975-4.5092-0.20574-32.415c-0.13014-20.504 0.0904-32.415 0.53453-32.415 0.37013 0 13.484 1.7016 29.043 3.8285zm41.469 142.17c5.9237 0.25523 20.806 0.7657 33.023 1.1911 27.913 0.85078 29.323 1.2762 33.886 8.8482l2.9935 5.1047 2.1237 217.97-3.1497 5.2749c-4.3935 7.572-6.4566 9.1034-14 10.209-6.2123 0.93586-64.927 10.72-90.217 15.059-17.968 3.1479-23.599 2.3822-28.301-3.5733-2.6866-3.4032-2.8719-9.2736-3.6316-128.98l-0.74519-117.41 2.1862-5.445c1.9674-4.9346 2.6288-5.7003 6.0962-7.572l3.8364-2.0419 22.581 0.42539c12.438 0.25524 27.394 0.68063 33.318 0.93587zm-252.07 231.33c17.582 5.8704 35.757 11.996 40.431 13.613 4.6734 1.5314 12.686 4.2539 17.804 5.8704 5.1186 1.7016 11.424 3.8285 14.095 4.7644 16.766 5.7003 22.108 7.572 62.019 20.929l9.7926 3.3181 1.6188 10.124c0.84993 5.6152 1.4718 10.295 1.3249 10.465s-5.043-1.4463-10.905-3.5733c-24.189-8.9332-31.609-11.656-49.64-18.292-10.388-3.8285-28.121-10.295-39.326-14.463s-26.267-9.699-33.39-12.251c-40.216-14.804-48.231-17.952-48.238-18.973-0.0103-1.6165 1.1012-1.4463 8.5217 1.3613 3.71 1.3613 15.507 5.6152 26.339 9.4437 10.832 3.8285 24.855 8.8482 31.161 11.06 6.3068 2.2971 19.662 7.0615 29.678 10.635s23.371 8.3377 29.678 10.635c51.566 18.462 51.195 18.377 52 16.931 0.36581-0.68062 0.57223-3.1479 0.48362-5.445-0.25285-4.8495 1.1596-3.9136-14.347-9.3586-16.916-5.9555-116.63-40.838-139.11-48.58-12.835-4.5092-23.669-8.5929-24.116-9.0183-0.52197-0.59555-0.2264-0.68063 0.73756-0.42539 0.81646 0.34031 15.876 5.36 33.383 11.23zm-18.518-1.7866c46.814 16.25 79.903 27.821 89.4 31.224 3.858 1.3613 21.071 7.4018 38.208 13.357l31.16 10.89 0.23936 2.7225c0.15777 1.5314 0.0173 2.7225-0.27883 2.7225-0.2961 0-5.786-1.8717-12.093-4.1688-6.3809-2.2971-16.398-5.9555-22.333-8.0825-5.9351-2.0419-17.881-6.3809-26.635-9.4437-8.7551-3.1479-16.249-5.7853-16.693-5.8704-0.44524-0.17016-6.1582-2.212-12.688-4.5942-9.8682-3.5733-78.647-28.161-82.876-29.607-0.81591-0.25523-1.3406-1.2762-1.3487-2.5524-0.0103-1.6165 0.28314-2.0419 1.3217-1.7016 0.66786 0.25523 7.2708 2.5524 14.616 5.1047z" style="stroke-width:.07936"/>
		<path id="path14" d="m348.88 63.681c-0.73163 1.3613-1.0143 26.8-0.97569 91.204 2e-3 35.308-0.1263 96.734-0.24372 136.55-0.7131 225.88-0.62964 297.35 0.33271 297.35 1.6286 0 1.487 12.677 1.893-179.94 0.0699-47.304 0.25545-99.712 0.37061-116.56 0.11516-16.846 0.17912-65.085 0.13391-107.2-0.0452-42.114 0.0295-76.996 0.17377-77.592 0.72406-2.5524 0.16444-44.071-0.50342-44.326-0.44524-0.17016-0.9618 0.08508-1.1812 0.51047z" style="stroke-width:.07936"/>
		<path id="path16" d="m222.41 210.36c-1.1812 0.51048-3.3933 1.8717-4.7923 3.0628-1.3984 1.2762-3.1691 2.212-3.9829 2.2971-1.9987 0-5.1468 5.5301-7.0282 12.336-0.86942 2.9778-1.9582 6.3809-2.5423 7.6571-2.9184 6.7212-2.973 21.44-0.13956 36.329 1.6102 8.7631 6.498 20.759 9.1754 22.716 2.2305 1.5314 8.6065 3.0628 13.122 3.0628 3.2572 0 3.9947-0.42539 7.5248-4.0838 2.2068-2.212 4.0445-4.2539 4.1904-4.5942 0.14643-0.25524 1.1704-2.212 2.3418-4.2539 4.7588-8.3377 8.8671-37.52 7.0814-50.622-1.554-11.571-6.0469-19.653-12.88-23.226-3.4906-1.7866-8.5266-2.127-12.071-0.68063z" style="stroke-width:.07936"/>
		<path id="path18" d="m197.07 392.85c-0.21938 0.42539-0.4529 21.95-0.58431 47.899-0.19522 39.221-0.0688 47.474 0.82436 48.24 0.81915 0.76571 5.2688 2.0419 18.763 5.36 1.6313 0.42539 11.122 2.8927 21.133 5.5301 10.01 2.5524 18.684 4.6793 19.425 4.6793 1.6286 0 1.7567-3.1479 1.6115-49.346-0.061-21.27 0.0996-42.624 0.36546-47.389 0.25669-6.2107 0.0903-9.1034-0.50734-9.9542-0.59761-0.85078-3.2658-1.3613-8.4498-1.7016-4.1471-0.25524-16.367-1.106-27.179-1.7866s-20.885-1.4463-22.367-1.7016c-1.4822-0.25524-2.8881-0.17016-3.034 0.17016z" style="fill:#999;stroke-width:.07936"/>
		<path id="path267" d="m227.29 207.94c-10.321 1.8623-19.865 9.1104-21.723 17.978-5.0089 12.288-7.1418 25.278-4.6228 38.161 1.9334 10.78 3.2438 22.864 11.579 31.702 6.7861 4.0779 18.921 5.305 23.355-2.0059 14.982-17.893 12.188-40.984 12.383-61.639-0.15778-9.6616-7.7031-23.577-20.971-24.195z" style="fill:#999;stroke-width:.75662"/>
		<path id="path269" d="m347.05 59.658c-57.246 24.078-114.3 48.481-171.32 72.903-3.1682 6.5201-0.43331 14.669-1.3468 21.808 0.29511 120.51-0.74432 241.03 1.1676 361.53 1.1147 7.0264-1.5064 15.283 2.034 21.538 58.639 20.27 117.64 39.75 176.49 59.583 7.2013-1.719 1.7656-11.595 3.5058-16.624 0.85936-154.45 0.59419-308.91-1.9083-463.35-1.177-3.8 2.0095-9.8572-2.8605-12.085-5.8387 4.6597-1.0983-6.0736-2.6161-8.9534-0.418-11.859 1.6743-23.982-0.0459-35.716-1.0405-0.23544-1.8518-1.4339-3.0979-0.63852zm-119.61 150.44c12.662 0.61465 19.233 13.273 18.409 22.418-0.53271 20.042 3.3901 42.145-11.089 59.746-3.8472 6.5896-15.99 6.1444-21.443 1.3469-10.606-13.679-10.87-31.136-10.698-46.682 1.3499-12.914 3.8098-29.288 19.453-35.8 1.6907-0.61538 3.5171-1.0022 5.3687-1.0286zm0.5646 186.21c9.1778 0.92551 19.296 0.80467 27.832 2.8805 1.93 29.575 0.64184 59.429 0.57698 89.051-0.37494 4.8213 0.35852 9.798-1.2704 14.499-18.825-4.5078-37.446-9.5824-56.131-14.47 0.42785-31.275-0.8769-62.659 0.74538-93.853l28.247 1.893z" style="stroke-width:.75662"/>
		<path id="path271" d="m414.48 317.02c-12.311-1.2046-19.394 9.8008-18.909 18.673-1.2144 60.594 0.34547 121.21 0.77509 181.82 0.9816 19.942-0.88887 40.11 2.4912 59.902 2.1113 9.9516 17.171 10.111 26.418 7.8449 33.89-5.655 68.072-10.646 101.59-17.521 7.0475-5.2799 13.38-12.84 11.445-21.099-0.72574-70.719-0.75299-141.51-1.9188-212.18-3.1316-6.7147-8.8405-14.182-18.738-13.822-34.254-2.6167-68.777-3.0567-103.15-3.6085z" style="stroke-width:.75662"/>
		<path id="path277" d="m395.05 153.04c-6.259 2.4412-3.2606 10.025-2.6992 14.546 0.088 7.6182 11.912 4.8303 17.861 6.7847 41.385 5.3318 82.664 11.736 124.15 16.253 6.1393-1.8518 3.283-8.8686 3.4594-13.05-0.56449-6.6533-11.763-4.2506-17.051-6.2578-41.872-6.2076-83.701-12.898-125.72-18.277z" style="stroke-width:.75662"/>
		<path id="path279" d="m197.93 394.29c-1.0093 30.916 0.71647 62.22 0.75776 93.281 16.195 7.1442 36.217 11.175 54.717 14.462 7.973-4.8865 2.0227-17.143 4.4574-24.527-0.71901-25.89 3.0612-52.457-2.5357-77.96-10.677-5.7682-26.219-2.8019-38.541-4.9466-6.1838 0.17808-12.967-1.9088-18.855-0.31756z" style="fill:#333;stroke-width:.75662"/>
		<path id="path281" d="m227.2 209.55c-22.751 2.932-24.233 26.735-24.622 41.76 0.81974 15.182-2.0534 37.378 17.123 45.702 16.68 1.8444 23.165-16.012 25.481-26.592 2.6425-19.252 8.405-43.24-9.757-58.542-2.2897-1.5628-5.2446-2.4749-8.2264-2.3282z" style="fill:#333;stroke-width:.75662"/>
	</g>
	<g id="usb_delantero">
		<path id="path8" d="m406.65 68.786c-0.80511 1.4463-1.1261 9.1885-0.52687 10.295 0.44848 0.68063 3.6381 1.7016 7.5658 2.3822 8.5228 1.5314 9.2604 1.106 8.4045-5.445-0.2372-2.3822-0.69648-4.7644-0.99583-5.2749-0.97369-1.7866-13.643-3.4882-14.448-1.9568z" style="stroke-width:.07936"/>
		<path id="path10" d="m426.67 73.721c-1.4703 1.6165-1.5022 8.2526-0.087 9.6139 1.266 1.1911 12.382 3.1479 14.006 2.3822 0.95964-0.42539 1.2482-1.6165 1.2266-5.0196-0.0157-2.4673-0.32743-4.9346-0.62731-5.5301-0.29935-0.51047-2.6725-1.1911-5.3396-1.5314-2.6666-0.25524-5.5563-0.68063-6.4462-0.93586-0.8894-0.17016-2.1452 0.25524-2.7325 1.0209z" style="stroke-width:.07936"/>
	</g>
	<g id="btn_encendido" transform="matrix(.76535 .24266 -.04528 1.1779 329.18 -215.46)">
		<ellipse id="path22" transform="matrix(.89516 -.44575 .43897 .8985 0 0)" cx="90.05" cy="284.5" rx="23.307" ry="23.716" style="fill:#0ff"/>
		<ellipse id="path18-6" cx="205.28" cy="215.46" rx="17.69" ry="18.499"/>
		<path id="path18-4" d="m204.77 213.29c-2.9541-2.0561-0.84668-3.9199-5.3037-8.5253-2.2627 1.778-4.9326 5.4241-4.9329 10.241-3.3e-4 6.5872 4.6985 11.927 10.635 11.927 5.9361-4.3e-4 10.748-5.3402 10.748-11.927-3.2e-4 -5.2799-2.0542-8.7539-4.6659-10.002-4.2505 4.366-5.3032 8.286-6.4802 8.2859z" style="fill:#0ff"/>
		<path id="path18-47" d="m205.29 205.27a8.7571 9.9188 0 0 0-8.7568 9.9199 8.7571 9.9188 0 0 0 8.7568 9.9185 8.7571 9.9188 0 0 0 8.7568-9.9185 8.7571 9.9188 0 0 0-8.7568-9.9199z"/>
		<rect id="rect20" x="204.13" y="201.02" width="2.1101" height="11.7" ry="0" style="fill:#0ff"/>
	</g>
</svg>
