<?xml version="1.0" standalone="no"?>
<!DOCTYPE svg PUBLIC "-//W3C//DTD SVG 20010904//EN"
 "http://www.w3.org/TR/2001/REC-SVG-20010904/DTD/svg10.dtd">
<svg version="1.0" xmlns="http://www.w3.org/2000/svg"
 width="228.000000pt" height="221.000000pt" viewBox="0 0 228.000000 221.000000"
 preserveAspectRatio="xMidYMid meet">
<metadata>
Created by potrace 1.15, written by Peter Selinger 2001-2017
</metadata>
<g transform="translate(0.000000,221.000000) scale(0.100000,-0.100000)"
fill="#000000" stroke="none">
<path d="M990 1833 l-1 -138 -42 48 c-23 26 -44 47 -47 47 -3 0 -5 -13 -4 -30
0 -21 17 -48 58 -94 l58 -65 59 62 c48 51 58 68 58 97 l1 35 -45 -47 c-24 -27
-47 -48 -50 -48 -3 0 -5 61 -5 135 0 128 -1 135 -20 135 -19 0 -20 -7 -20
-137z"/>
<path d="M1005 1506 c-67 -31 -100 -72 -124 -154 -21 -70 -40 -184 -41 -239 0
-29 4 -33 58 -53 31 -12 94 -29 139 -37 77 -14 84 -18 103 -49 28 -48 48 -53
77 -20 12 15 23 32 23 39 0 7 -9 -3 -20 -20 -22 -37 -23 -37 -50 -23 -42 22
-69 184 -70 407 0 67 4 133 10 147 9 25 8 26 -23 26 -17 0 -55 -11 -82 -24z"/>
<path d="M1246 1521 c-3 -4 -1 -32 4 -62 10 -60 6 -392 -5 -426 -7 -21 -5 -22
31 -17 52 7 166 35 161 40 -2 3 -30 -2 -63 -11 -32 -8 -72 -15 -90 -15 l-31 0
8 43 c4 23 9 112 10 197 2 85 4 142 7 126 l4 -29 82 6 c59 5 86 3 95 -6 24
-22 1 35 -29 73 -40 51 -168 107 -184 81z"/>
<path d="M1139 1414 c-9 -11 -13 -42 -13 -91 1 -61 4 -78 21 -95 29 -28 66
-18 83 22 15 36 8 143 -10 165 -17 20 -64 19 -81 -1z"/>
<path d="M1219 582 c-37 -10 -85 -30 -106 -45 -21 -15 -46 -27 -55 -27 -8 0
-21 -7 -28 -15 -8 -9 -8 -15 -2 -15 6 0 14 -9 17 -20 10 -31 82 -63 141 -63
59 0 133 31 163 69 10 13 22 20 26 16 3 -4 5 -2 4 3 -2 6 4 21 13 35 27 41 30
65 10 68 -84 11 -124 10 -183 -6z"/>
</g>
</svg>
