<?xml version="1.0" standalone="no"?>
<!DOCTYPE svg PUBLIC "-//W3C//DTD SVG 20010904//EN"
 "http://www.w3.org/TR/2001/REC-SVG-20010904/DTD/svg10.dtd">
<svg version="1.0" xmlns="http://www.w3.org/2000/svg"
 width="640.000000pt" height="480.000000pt" viewBox="0 0 640.000000 480.000000"
 preserveAspectRatio="xMidYMid meet">
<metadata>
Created by potrace 1.15, written by Peter Selinger 2001-2017
</metadata>
<g transform="translate(0.000000,480.000000) scale(0.100000,-0.100000)"
fill="#000000" stroke="none">
<path d="M0 3559 c1 -1169 2 -1241 18 -1235 16 6 16 5 0 -8 -13 -9 -18 -27
-18 -61 0 -46 1 -47 18 -32 10 10 24 17 30 17 7 0 24 14 39 30 14 17 32 30 39
30 7 0 18 9 24 20 6 11 19 20 30 20 10 0 21 4 25 9 3 6 19 17 36 25 l30 15 -6
-32 c-7 -32 -7 -32 12 -12 10 11 31 38 46 60 15 22 27 36 27 32 0 -4 26 17 57
48 31 30 62 55 69 55 15 0 94 98 94 116 0 8 9 14 19 14 11 0 23 5 26 10 3 6
16 10 29 10 12 0 26 4 31 9 12 11 81 21 89 14 3 -4 1 -12 -5 -20 -9 -10 -8
-13 4 -13 8 0 23 3 31 6 15 6 15 8 -1 19 -15 12 -15 13 5 19 12 4 22 12 22 17
0 5 18 9 40 9 47 0 54 -17 8 -22 -17 -2 -34 -9 -36 -17 -4 -11 2 -12 24 -7 63
14 109 18 94 7 -15 -10 -11 -11 163 -10 50 0 59 -3 64 -20 3 -12 17 -21 39
-26 19 -3 34 -10 34 -16 0 -5 11 -14 25 -19 39 -15 85 -52 78 -63 -3 -6 -2 -7
4 -4 12 8 75 -51 118 -108 16 -22 33 -42 36 -45 23 -18 141 -320 152 -387 1
-10 5 -22 9 -28 7 -11 68 -259 72 -290 1 -12 5 -25 8 -30 3 -6 13 -41 23 -79
9 -38 21 -79 25 -92 5 -12 11 -42 15 -65 3 -24 12 -71 19 -104 8 -33 20 -89
26 -125 7 -36 14 -74 16 -85 5 -20 32 -182 41 -242 3 -18 10 -33 15 -33 6 0 5
-6 -2 -15 -7 -9 -8 -15 -2 -15 10 0 11 -75 0 -85 -8 -8 0 -119 11 -148 6 -16
7 -29 1 -32 -5 -3 -9 -72 -8 -153 1 -147 -10 -245 -37 -309 -9 -22 -19 -32
-26 -27 -9 5 -10 2 -6 -11 4 -9 2 -24 -4 -31 -10 -12 27 -14 233 -14 l244 0
11 118 c13 133 10 299 -6 417 -32 231 -43 306 -54 365 -6 36 -12 98 -12 137
l0 73 48 48 c26 26 47 53 47 60 0 7 6 12 13 13 6 0 23 14 37 30 14 17 36 41
49 55 72 73 88 301 31 419 -12 25 -27 45 -33 46 -7 0 -27 18 -44 41 -24 29
-31 46 -27 63 5 21 2 23 -39 26 -25 2 -43 1 -40 -3 6 -11 1 -10 -65 6 -31 8
-97 20 -147 26 -49 6 -142 20 -205 30 -139 24 -132 16 -235 225 -85 172 -119
232 -169 306 -20 28 -35 53 -33 55 2 2 37 10 77 19 88 18 103 29 67 46 -15 7
-27 16 -27 20 0 15 -69 47 -166 78 -104 33 -134 37 -163 22 -9 -5 -22 -6 -28
-3 -16 10 -16 47 -8 507 3 220 3 660 -1 978 l-7 577 -603 0 -604 0 0 -1241z
m2000 -1651 c8 0 24 -7 35 -14 11 -8 29 -14 41 -14 11 0 35 -5 53 -11 28 -10
30 -13 15 -24 -16 -11 -16 -12 0 -18 11 -5 15 -3 10 4 -4 7 -1 10 7 7 8 -3 13
-12 13 -21 -1 -9 7 -19 17 -22 20 -7 27 -35 9 -35 -5 0 -10 5 -10 11 0 5 -5 7
-11 3 -18 -11 18 -26 44 -19 15 4 18 3 8 -3 -10 -7 -10 -11 -1 -17 6 -4 9 -14
5 -22 -4 -13 -3 -14 10 -3 9 7 19 10 23 6 4 -4 -4 -16 -18 -28 -14 -11 -19
-17 -12 -13 13 7 51 -31 52 -52 0 -7 -8 -13 -17 -13 -15 0 -16 -2 -3 -10 12
-7 12 -12 0 -34 -7 -14 -10 -29 -7 -33 4 -3 1 -16 -7 -28 -9 -13 -13 -37 -11
-55 3 -18 0 -40 -5 -49 -7 -13 -10 -12 -19 12 -6 15 -13 27 -16 27 -2 0 0 -12
6 -27 7 -18 6 -30 -1 -37 -7 -7 -10 -4 -10 10 -1 18 -1 18 -11 1 -10 -18 -11
-18 -25 0 -13 16 -13 15 -4 -10 16 -44 12 -67 -5 -37 -14 25 -15 25 -9 -10 l5
-35 -17 30 c-18 31 -32 45 -49 45 -5 0 1 -7 13 -16 13 -9 22 -26 22 -42 0 -26
0 -26 -25 9 -13 20 -32 39 -41 43 -11 4 -8 -3 9 -20 15 -15 27 -33 27 -42 0
-9 -7 -5 -21 12 -11 14 -25 26 -31 26 -7 0 -2 -10 10 -23 l22 -23 -38 0 c-20
-1 -29 1 -19 3 27 7 9 23 -26 23 -29 0 -30 1 -11 15 18 14 18 14 -6 16 -23 1
-23 2 5 8 l30 7 -30 9 -30 8 30 7 c30 8 30 8 3 9 -30 1 -49 21 -21 22 15 0 14
2 -4 11 -34 16 -28 24 15 21 l37 -2 -43 11 c-29 8 -41 15 -38 25 3 8 -2 13
-12 13 -15 1 -15 2 2 15 17 13 18 15 3 15 -20 0 -23 16 -4 23 7 3 5 6 -5 6
-10 1 -18 4 -18 7 0 4 8 13 18 21 16 13 15 14 -4 8 -18 -5 -22 -1 -26 24 -2
17 0 35 6 41 7 7 4 10 -8 10 -9 0 -14 5 -11 10 4 6 0 23 -8 39 -11 22 -12 32
-3 41 7 7 8 13 0 18 -5 4 -11 20 -12 36 -1 16 -7 35 -13 42 -14 17 8 52 36 57
17 2 69 1 135 -5z m133 -1017 c15 -1 17 -13 17 -105 0 -93 -2 -105 -17 -105
-53 1 -163 -25 -163 -37 0 -8 -4 -14 -10 -14 -5 0 -10 14 -10 30 0 31 17 39
38 18 9 -9 12 -6 12 15 0 17 5 27 15 27 12 0 13 4 3 26 -11 23 -10 29 9 44 24
19 21 30 -8 30 -41 0 -23 67 20 73 14 2 37 2 51 1 14 -1 33 -2 43 -3z"/>
<path d="M2112 4792 c8 -21 192 -262 200 -262 4 0 8 -6 8 -12 1 -7 15 -29 32
-48 30 -35 30 -23 -1 15 -16 19 -16 19 9 2 72 -51 187 -84 249 -73 20 4 47 9
61 11 36 7 256 35 315 41 78 8 95 13 95 29 0 8 4 15 10 15 5 0 9 -6 7 -12 -1
-7 7 -13 18 -12 53 2 361 37 445 50 104 16 118 25 189 124 17 25 48 56 68 70
20 14 43 35 51 48 l14 22 -887 0 c-487 0 -885 -4 -883 -8z"/>
<path d="M1928 4458 c-16 -5 -28 -13 -28 -18 0 -4 -16 -11 -35 -14 -34 -7 -85
-57 -114 -113 -16 -32 -15 -48 4 -33 13 10 15 9 15 -8 0 -12 5 -24 10 -27 16
-10 12 -21 -15 -35 -21 -11 -23 -15 -10 -22 19 -11 20 -28 0 -28 -19 0 -19 -4
2 -48 22 -49 116 -138 160 -153 73 -24 164 39 192 132 11 36 10 44 -3 57 -11
12 -16 13 -16 3 0 -8 -7 -10 -20 -6 -16 5 -23 -1 -37 -29 -9 -20 -21 -36 -26
-36 -5 0 -7 -9 -4 -20 3 -10 -1 -24 -9 -31 -8 -6 -14 -18 -14 -25 0 -18 -11
-18 -34 -1 -18 13 -18 16 8 59 14 25 26 52 26 61 0 9 10 17 23 19 26 4 35 45
17 78 -19 35 -24 119 -10 146 19 35 50 32 50 -6 0 -16 5 -30 10 -30 6 0 10 6
10 14 0 8 7 21 15 29 13 13 12 18 -5 40 -38 48 -104 67 -162 45z"/>
<path d="M3245 3968 c-51 -14 -105 -73 -105 -114 0 -13 -5 -24 -11 -24 -6 0
-9 -9 -6 -20 3 -11 0 -33 -5 -48 -13 -34 -2 -106 14 -96 8 5 9 1 4 -11 -10
-28 59 -95 97 -95 23 0 27 3 19 13 -14 17 2 42 22 34 9 -4 16 -13 16 -22 0
-23 24 -18 50 10 25 26 21 47 -4 26 -19 -16 -62 -10 -58 8 2 8 -3 18 -10 24
-10 6 -8 7 4 3 10 -3 20 -1 23 4 3 4 0 10 -5 12 -7 2 -5 16 6 36 19 39 22 119
5 151 -8 14 -8 21 -1 21 5 0 10 -4 10 -10 0 -5 5 -10 10 -10 6 0 10 7 10 15 0
19 5 19 37 -2 l26 -17 -7 29 c-15 61 -81 100 -141 83z m35 -125 c42 -54 6
-164 -55 -171 -22 -3 -35 4 -57 29 -40 45 -39 97 3 138 40 40 79 41 109 4z"/>
<path d="M2205 3169 c-22 -3 -54 -13 -71 -22 -38 -20 -102 -92 -110 -124 -4
-13 -10 -23 -15 -23 -5 0 -9 -4 -9 -10 0 -26 32 -5 49 33 11 23 32 50 45 60
l25 17 -4 -32 c-4 -30 -13 -57 -52 -146 -8 -18 -15 -48 -15 -65 0 -51 26 -177
36 -174 5 2 8 40 7 85 -3 91 15 160 55 220 43 62 101 121 138 138 49 24 48 49
-1 49 -21 0 -56 -2 -78 -6z"/>
<path d="M3732 2728 c-28 -12 -42 -24 -38 -33 2 -7 -2 -16 -10 -19 -9 -3 -12
-1 -9 4 9 15 -11 12 -23 -3 -9 -10 -3 -17 24 -32 97 -52 155 -320 84 -385 -3
-3 -19 -27 -34 -55 -16 -27 -44 -66 -63 -86 l-34 -36 37 -33 c72 -63 144 -76
224 -39 69 31 106 64 140 125 34 58 33 77 -1 56 -18 -12 -19 -11 -10 5 11 20
45 64 37 48 -2 -6 -1 -17 4 -25 6 -10 11 -4 18 21 10 38 6 51 -9 29 -7 -11 -8
-3 -4 25 l6 40 -20 -49 c-20 -49 -49 -88 -60 -82 -3 2 -38 -4 -78 -14 -99 -26
-137 -14 -94 29 18 18 19 31 16 128 -3 109 -15 157 -54 226 -38 69 -22 89 73
90 47 1 72 -5 99 -20 32 -20 36 -20 39 -5 3 12 12 2 31 -30 38 -63 47 -99 48
-188 1 -54 3 -66 8 -45 15 60 1 155 -29 215 -29 57 -91 121 -134 141 -53 24
-129 23 -184 -3z"/>
<path d="M4828 2695 c-70 -39 -188 -188 -165 -211 2 -3 8 7 11 22 8 29 45 88
52 81 2 -2 -5 -21 -16 -42 -20 -39 -30 -156 -11 -126 6 9 10 10 12 2 3 -9 13
-8 34 3 17 9 46 16 65 16 26 0 31 3 20 10 -13 8 -12 10 5 11 11 1 25 2 32 2 7
0 12 2 11 6 -2 21 6 29 35 34 18 2 36 -1 40 -7 5 -6 6 2 2 19 -4 17 -18 45
-32 63 -22 30 -23 32 -4 20 12 -7 21 -18 21 -25 0 -7 5 -13 10 -13 6 0 10 32
10 75 l0 75 -52 0 c-29 -1 -65 -7 -80 -15z"/>
<path d="M3323 2625 c3 -11 15 -45 26 -75 11 -30 22 -66 25 -80 7 -35 25 -34
139 12 38 15 48 37 31 69 -15 29 -71 53 -154 65 -25 4 -51 12 -59 18 -12 9
-13 7 -8 -9z"/>
<path d="M4952 2469 c-1 -9 -19 -27 -39 -40 -28 -18 -38 -31 -38 -50 1 -21 -3
-25 -22 -21 -13 2 -23 11 -23 18 0 18 -29 18 -75 -2 -34 -14 -38 -14 -48 1
-10 12 -12 6 -12 -31 0 -37 5 -50 24 -63 12 -9 39 -30 59 -47 52 -43 142 -71
142 -44 0 6 -12 10 -26 10 -14 0 -23 3 -21 8 3 4 -10 7 -29 8 -19 0 -39 5 -44
10 -7 7 2 9 24 6 26 -3 44 4 79 30 26 18 49 42 52 53 3 11 4 54 2 95 -1 41 -4
68 -5 59z"/>
<path d="M3312 2042 c-47 -61 -111 -83 -297 -102 -178 -17 -265 -31 -258 -42
7 -13 104 -5 297 23 217 31 306 63 340 120 22 37 21 40 -20 37 -28 -2 -42 -10
-62 -36z"/>
<path d="M5235 2026 c-33 -14 -85 -69 -85 -89 0 -7 3 -22 6 -35 l7 -23 22 21
c13 12 38 22 59 23 20 1 36 5 36 10 0 4 7 7 15 7 8 0 15 4 15 9 0 9 72 7 89
-3 17 -11 13 16 -7 40 -21 27 -74 54 -104 54 -13 -1 -37 -7 -53 -14z"/>
<path d="M5128 1824 c-7 -11 13 -99 28 -126 17 -29 61 -76 82 -87 30 -16 84
-14 110 5 21 14 31 36 15 32 -5 -1 -29 8 -55 20 -26 12 -55 22 -64 22 -16 0
-16 1 2 14 17 13 17 15 2 21 -9 4 -26 2 -37 -5 -13 -6 -21 -7 -21 -1 0 6 -11
22 -24 36 -14 15 -26 39 -28 53 -2 15 -6 22 -10 16z"/>
<path d="M2904 1624 c-3 -10 -10 -30 -15 -43 -6 -13 -9 -55 -8 -92 2 -66 2
-67 25 -58 23 8 24 6 24 -32 0 -22 -4 -38 -9 -35 -5 3 -9 0 -8 -7 2 -50 -4
-107 -12 -107 -12 0 -13 120 -1 135 8 9 6 14 -4 18 -12 5 -14 -18 -14 -146 1
-84 3 -135 5 -114 2 20 9 37 15 37 5 0 7 -7 4 -16 -3 -8 -2 -23 3 -33 12 -22
19 -151 9 -151 -5 0 -8 -11 -8 -24 0 -33 -17 -43 -23 -14 -2 13 -5 4 -6 -19
-1 -34 2 -41 14 -37 10 4 15 0 15 -14 0 -27 -17 -37 -23 -15 -4 14 -5 13 -6
-4 0 -13 4 -23 9 -23 14 0 12 -27 -5 -60 -13 -25 -13 -29 1 -34 27 -11 36 -7
29 14 -8 25 11 51 31 43 8 -3 14 -18 14 -33 0 -27 1 -27 75 -34 42 -4 80 -4
86 -1 14 9 10 268 -5 278 -8 5 -6 10 4 17 12 8 13 13 3 30 -9 14 -13 78 -13
225 0 187 1 204 17 198 13 -5 15 -2 10 11 -4 10 -7 47 -7 82 l0 64 -75 0 c-41
0 -75 -4 -75 -9 0 -20 -31 -19 -50 1 -19 20 -20 20 -26 2z"/>
<path d="M3300 1620 c0 -11 -4 -20 -9 -20 -18 0 -21 -54 -27 -413 -4 -258 -3
-367 5 -371 14 -9 15 -76 1 -76 -5 0 -10 -4 -10 -10 0 -5 16 -10 35 -10 19 0
35 4 35 10 0 5 -5 9 -11 7 -6 -1 -14 5 -17 13 -2 8 -1 12 3 7 5 -4 17 1 27 10
21 19 35 10 40 -27 3 -22 8 -25 53 -28 l50 -2 0 437 c0 364 -2 440 -14 449 -8
6 -11 16 -7 22 5 8 -1 13 -16 14 -42 2 -62 -2 -71 -17 -10 -19 -27 -19 -27 -1
0 8 -7 17 -16 20 -23 9 -24 8 -24 -14z m11 -278 c0 -119 3 -211 6 -204 8 20
23 14 23 -9 0 -15 -5 -19 -15 -15 -12 4 -15 -6 -15 -60 0 -41 4 -63 10 -59 6
3 10 -3 10 -15 0 -12 -4 -19 -10 -15 -5 3 -10 -26 -12 -72 -2 -43 -7 -78 -13
-78 -10 0 -20 717 -10 743 3 7 9 10 15 7 6 -4 10 -89 11 -223z"/>
<path d="M6 934 c-10 -25 -7 -103 4 -124 7 -12 16 -17 27 -13 11 4 14 3 9 -5
-4 -7 -17 -12 -29 -13 -12 0 -16 -3 -9 -6 15 -6 16 -30 2 -35 -7 -2 -9 -95 -8
-267 l3 -263 33 46 c18 25 37 44 42 41 14 -9 22 13 11 32 -5 10 -11 104 -12
208 -3 159 -6 191 -19 197 -13 6 -13 7 1 7 12 1 16 9 15 34 -2 17 2 37 7 44
10 14 1 101 -13 123 -5 8 -12 11 -17 7 -4 -5 -1 -12 7 -18 13 -8 13 -10 0 -19
-19 -12 -22 -12 -40 1 -11 8 -12 12 -2 16 14 5 16 23 3 23 -5 0 -12 -7 -15
-16z"/>
<path d="M6026 669 c-40 -31 -56 -71 -56 -139 0 -115 71 -200 168 -200 152 0
167 269 20 346 -40 21 -101 18 -132 -7z"/>
<path d="M3051 433 c-43 -22 -52 -43 -18 -43 20 0 26 -6 31 -34 5 -28 12 -36
36 -41 25 -6 30 -12 31 -38 1 -24 3 -26 6 -9 9 44 23 21 24 -40 1 -35 1 -68 0
-73 0 -6 17 -11 39 -10 45 0 49 10 30 75 -6 22 -6 38 0 44 16 16 12 43 -12 89
-42 81 -106 111 -167 80z"/>
<path d="M2928 369 c-20 -10 -45 -30 -57 -45 -43 -55 -39 -162 8 -217 16 -18
32 -50 37 -72 8 -39 8 -40 12 -9 3 27 7 31 33 32 25 1 32 -5 41 -29 l10 -29
104 0 c86 0 104 3 104 15 0 8 5 15 10 15 6 0 10 -7 10 -15 0 -8 7 -15 15 -15
11 0 12 5 5 26 -6 14 -10 44 -10 66 l0 41 -58 -5 c-69 -7 -122 11 -122 40 0
10 -9 27 -20 37 -17 15 -20 16 -15 3 4 -9 2 -19 -4 -23 -7 -3 -11 2 -11 14 0
12 -4 21 -10 21 -5 0 -7 -7 -4 -15 4 -8 1 -15 -5 -15 -6 0 -11 6 -11 13 0 8
-3 7 -10 -3 -5 -8 -14 -15 -20 -15 -12 0 -12 -14 1 -35 8 -13 10 -13 19 0 13
20 13 4 0 -20 -8 -14 -19 -18 -45 -16 -45 4 -52 11 -33 33 24 28 28 51 12 57
-11 4 -12 10 -5 25 9 16 20 18 76 16 62 -3 67 -2 76 22 12 33 11 53 -2 53 -7
0 -31 15 -53 34 l-42 34 -36 -19z"/>
<path d="M6062 169 c-36 -18 -45 -28 -54 -65 -7 -23 -15 -41 -20 -38 -4 3 -8
1 -8 -5 0 -5 -8 -12 -17 -14 -17 -4 -17 -5 0 -6 10 -1 17 -9 17 -21 0 -19 7
-20 150 -20 141 0 150 1 150 19 0 11 3 21 8 24 4 2 1 2 -6 1 -7 -2 -15 9 -19
26 -3 17 -12 30 -19 30 -8 0 -14 6 -14 13 0 20 -40 52 -79 66 -43 14 -39 15
-89 -10z"/>
</g>
</svg>
