<?xml version="1.0" standalone="no"?>
<!DOCTYPE svg PUBLIC "-//W3C//DTD SVG 20010904//EN"
 "http://www.w3.org/TR/2001/REC-SVG-20010904/DTD/svg10.dtd">
<svg version="1.0" xmlns="http://www.w3.org/2000/svg"
 width="400.000000pt" height="400.000000pt" viewBox="0 0 400.000000 400.000000"
 preserveAspectRatio="xMidYMid meet">
<metadata>
Created by potrace 1.15, written by Peter Selinger 2001-2017
</metadata>
<g transform="translate(0.000000,400.000000) scale(0.100000,-0.100000)"
fill="#000000" stroke="none">
<path d="M2915 2944 c-104 -68 -198 -131 -207 -139 -9 -7 -26 -11 -38 -8 -20
5 -21 3 -15 -18 4 -13 12 -26 17 -27 4 -2 15 -10 23 -19 8 -8 18 -12 23 -9 4
2 8 -4 8 -15 0 -11 -7 -19 -16 -19 -20 0 -70 -23 -70 -32 0 -8 -63 14 -71 25
-8 10 -59 -10 -59 -23 0 -6 -4 -9 -8 -6 -5 3 -16 -4 -25 -15 -9 -10 -25 -19
-34 -19 -16 0 -16 -2 -3 -11 12 -8 9 -9 -12 -5 -16 4 -28 3 -28 -1 0 -5 -12
-16 -27 -25 -20 -12 -23 -18 -11 -18 9 0 20 5 23 10 4 6 11 7 17 4 7 -4 8 -2
4 4 -5 8 1 12 16 12 13 0 48 4 78 10 89 18 148 12 107 -11 -9 -6 -15 -14 -12
-19 3 -5 -7 -13 -22 -16 -25 -7 -25 -8 -8 -15 17 -6 15 -8 -10 -8 -16 -1 -35
-5 -42 -9 -6 -4 32 -7 85 -7 77 -1 109 -6 155 -24 32 -13 57 -25 55 -27 -2 -2
-29 6 -59 18 -38 15 -76 21 -129 20 -163 -1 -277 -84 -300 -219 l-8 -48 -1 40
c0 22 3 55 8 73 13 45 5 40 -20 -12 -22 -47 -29 -122 -15 -171 l8 -30 -21 30
c-28 40 -29 126 -1 178 25 47 25 56 0 28 l-19 -23 -7 26 c-3 14 -12 26 -19 26
-7 0 -15 6 -18 13 -5 15 -97 17 -97 1 0 -6 -13 -14 -28 -17 -15 -3 -40 -17
-55 -31 -16 -14 -33 -26 -39 -26 -5 0 -23 -11 -40 -25 -16 -14 -35 -25 -42
-25 -7 0 -23 -11 -36 -25 -12 -13 -27 -22 -31 -19 -5 3 -9 0 -9 -6 0 -7 -7
-10 -14 -7 -10 4 -13 1 -9 -9 4 -11 0 -15 -13 -12 -11 2 -18 -2 -17 -9 2 -7
-2 -13 -8 -13 -14 0 38 -42 76 -62 567 -295 581 -300 762 -299 215 2 375 63
494 188 86 91 135 209 125 302 -4 43 -3 50 4 32 6 -13 13 -57 17 -97 8 -94
-19 -181 -85 -278 -124 -184 -431 -278 -700 -215 -91 21 -185 62 -494 215
-171 85 -318 152 -325 150 -22 -9 -296 -187 -315 -205 -13 -12 -20 -40 -25
-110 l-6 -94 26 6 c20 6 30 1 52 -26 42 -50 261 -270 360 -362 143 -131 168
-151 173 -137 2 6 7 12 12 12 8 0 -20 -61 -40 -85 -11 -14 -9 -105 4 -136 4
-8 27 -32 51 -52 41 -34 48 -37 110 -37 64 0 68 1 158 63 243 168 469 318 485
324 9 3 46 27 82 53 36 26 144 100 240 165 96 65 184 126 195 135 20 18 45 35
430 295 121 81 230 157 241 167 25 23 39 100 23 130 -8 14 -8 23 0 31 14 14
15 127 0 127 -5 0 -7 5 -4 10 12 19 -125 210 -223 312 -53 55 -135 129 -182
165 -87 66 -301 179 -355 188 -25 4 -59 -15 -220 -121z m-513 -924 c153 -85
324 -78 468 18 34 23 66 42 71 42 5 0 9 6 10 13 0 9 2 9 6 0 10 -27 -106 -115
-181 -137 -33 -10 -93 -16 -155 -16 -144 0 -211 23 -291 100 -33 32 -60 64
-60 71 0 7 17 -3 38 -23 20 -20 63 -50 94 -68z"/>
<path d="M1077 1457 l-57 -41 52 -53 c29 -29 59 -53 68 -53 21 0 110 58 110
72 0 11 -101 119 -110 117 -3 0 -31 -19 -63 -42z"/>
<path d="M642 1273 c-10 -4 -11 -26 -6 -96 l7 -92 227 -230 c125 -126 247
-252 271 -279 l44 -49 6 104 c4 84 3 107 -9 119 -13 13 -14 13 -8 -5 4 -11
-29 16 -74 60 -73 73 -99 107 -67 89 6 -4 -8 14 -33 40 -24 25 -46 46 -49 46
-3 0 8 -13 24 -30 16 -16 24 -30 18 -30 -17 0 -74 70 -67 82 4 6 3 8 -3 5 -12
-7 -36 16 -28 26 3 4 2 5 -2 2 -8 -7 -54 36 -48 45 2 4 -12 22 -33 41 l-37 34
35 -40 35 -40 -42 39 c-23 22 -39 44 -36 49 3 6 2 7 -4 4 -6 -4 -21 6 -34 21
l-24 27 25 -20 25 -20 -19 22 c-10 13 -22 20 -26 18 -9 -6 -42 30 -35 37 9 8
-19 26 -33 21z"/>
<path d="M1367 1168 l-59 -41 60 -60 60 -60 29 18 c15 10 43 29 61 43 l34 24
-58 59 c-32 33 -61 59 -64 58 -3 -1 -31 -19 -63 -41z"/>
</g>
</svg>
