<?xml version="1.0" encoding="UTF-8" standalone="no"?>
<svg
   xmlns:dc="http://purl.org/dc/elements/1.1/"
   xmlns:cc="http://creativecommons.org/ns#"
   xmlns:rdf="http://www.w3.org/1999/02/22-rdf-syntax-ns#"
   xmlns:svg="http://www.w3.org/2000/svg"
   xmlns="http://www.w3.org/2000/svg"
   xmlns:sodipodi="http://sodipodi.sourceforge.net/DTD/sodipodi-0.dtd"
   xmlns:inkscape="http://www.inkscape.org/namespaces/inkscape"
   version="1.0"
   width="1300.000000pt"
   height="863.000000pt"
   viewBox="0 0 1300.000000 863.000000"
   preserveAspectRatio="xMidYMid meet"
   id="svg22"
   sodipodi:docname="image12_cpu_1.svg"
   inkscape:version="0.92.4 (5da689c313, 2019-01-14)">
  <defs
     id="defs26" />
  <sodipodi:namedview
     pagecolor="#ffffff"
     bordercolor="#666666"
     borderopacity="1"
     objecttolerance="10"
     gridtolerance="10"
     guidetolerance="10"
     inkscape:pageopacity="0"
     inkscape:pageshadow="2"
     inkscape:window-width="1366"
     inkscape:window-height="705"
     id="namedview24"
     showgrid="false"
     inkscape:zoom="0.16384615"
     inkscape:cx="129.73769"
     inkscape:cy="984.0737"
     inkscape:window-x="-8"
     inkscape:window-y="-8"
     inkscape:window-maximized="1"
     inkscape:current-layer="svg22" />
  <metadata
     id="metadata2">
Created by potrace 1.15, written by Peter Selinger 2001-2017
<rdf:RDF>
  <cc:Work
     rdf:about="">
    <dc:format>image/svg+xml</dc:format>
    <dc:type
       rdf:resource="http://purl.org/dc/dcmitype/StillImage" />
  </cc:Work>
</rdf:RDF>
</metadata>
  <g
     inkscape:label="btn_encendido"
     transform="matrix(0.72664679,0,0,1.1646374,741.61807,-86.581763)"
     id="btn_encendido">
    <ellipse
       style="opacity:1;fill:#00ffff;fill-opacity:1;fill-rule:nonzero;stroke:none;stroke-width:0.29054588;stroke-linecap:round;stroke-linejoin:round;stroke-miterlimit:4;stroke-dasharray:none;stroke-opacity:1"
       id="path22"
       cx="90.050217"
       cy="284.50171"
       rx="23.307459"
       ry="23.715717"
       transform="matrix(0.89515715,-0.4457507,0.43896522,0.89850406,0,0)" />
    <ellipse
       cx="205.28265"
       cy="215.45551"
       rx="17.689558"
       ry="18.499407"
       style="opacity:1;fill:#000000;fill-opacity:1;fill-rule:nonzero;stroke:none;stroke-width:0.62969494;stroke-linecap:round;stroke-linejoin:round;stroke-miterlimit:4;stroke-dasharray:none;stroke-opacity:1"
       id="path18-6" />
    <path
       style="opacity:1;fill:#00ffff;fill-opacity:1;fill-rule:nonzero;stroke:none;stroke-width:0.33703911;stroke-linecap:round;stroke-linejoin:round;stroke-miterlimit:4;stroke-dasharray:none;stroke-opacity:1"
       d="m 204.7748,213.28629 c -2.95414,-2.05609 -0.84668,-3.91988 -5.3037,-8.52528 -2.2627,1.77796 -4.93258,5.42413 -4.93287,10.24118 -3.3e-4,6.58719 4.69851,11.92723 10.63514,11.92676 5.93606,-4.3e-4 10.74788,-5.3402 10.74756,-11.92676 -3.2e-4,-5.27994 -2.05415,-8.75392 -4.6659,-10.00183 -4.25054,4.36605 -5.30317,8.28602 -6.48023,8.28593 z"
       id="path18-4"
       inkscape:connector-curvature="0"
       sodipodi:nodetypes="ccccccc" />
    <path
       style="opacity:1;fill:#000000;fill-opacity:1;fill-rule:nonzero;stroke:none;stroke-width:0.29362136;stroke-linecap:round;stroke-linejoin:round;stroke-miterlimit:4;stroke-dasharray:none;stroke-opacity:1"
       d="m 205.29487,205.26818 a 8.7570956,9.9187526 0 0 0 -8.75683,9.91992 8.7570956,9.9187526 0 0 0 8.75683,9.91846 8.7570956,9.9187526 0 0 0 8.75684,-9.91846 8.7570956,9.9187526 0 0 0 -8.75684,-9.91992 z"
       id="path18-47"
       inkscape:connector-curvature="0" />
    <rect
       style="opacity:1;fill:#00ffff;fill-opacity:1;fill-rule:nonzero;stroke:none;stroke-width:0.15340993;stroke-linecap:round;stroke-linejoin:round;stroke-miterlimit:4;stroke-dasharray:none;stroke-opacity:1"
       id="rect20"
       width="2.1100907"
       height="11.700302"
       x="204.13062"
       y="201.02234"
       ry="0" />
  </g>
  <g
     transform="matrix(0.1,0,0,-0.1,0,863)"
     id="cpu"
     style="fill:#000000;stroke:none"
     inkscape:label="cpu">
    <path
       d="m 6940,7714 c -64,-8 -136,-26 -185,-45 -224,-88 -553,-215 -655,-254 -63,-24 -200,-77 -305,-118 -178,-70 -383,-150 -555,-217 -41,-16 -169,-65 -285,-110 -115,-45 -266,-104 -335,-131 -69,-26 -170,-66 -225,-87 l -100,-38 -7,-75 c -22,-224 -27,-461 -28,-1199 0,-448 -5,-1447 -10,-2219 -7,-1211 -7,-1408 6,-1432 9,-19 14,-61 14,-131 0,-57 4,-108 8,-114 4,-6 95,-39 202,-73 107,-34 206,-66 220,-71 14,-5 144,-47 290,-94 146,-46 400,-128 565,-181 519,-168 827,-266 920,-295 50,-15 152,-48 229,-74 l 139,-45 406,65 c 223,35 534,85 691,110 301,48 359,58 780,124 145,23 272,45 280,50 9,5 28,25 41,44 13,19 40,43 60,52 20,9 55,35 77,58 79,82 75,-24 65,1742 -4,858 -7,1633 -7,1724 1,91 5,419 8,730 3,311 9,788 12,1060 3,272 1,554 -4,625 l -9,130 -42,61 -43,62 -82,15 c -44,9 -238,46 -431,82 -192,36 -442,83 -555,105 -113,22 -266,51 -340,65 -74,14 -227,44 -340,66 -240,47 -327,53 -470,33 z m 109,-2201 c -2,-1182 0,-2618 4,-3193 l 8,-1045 32,-52 c 52,-85 133,-162 204,-196 63,-29 64,-29 211,-25 107,4 228,18 447,52 165,26 433,67 595,92 258,39 387,59 520,80 l 35,5 -46,-29 c -25,-16 -55,-43 -67,-59 -23,-33 23,-24 -672,-134 -102,-16 -268,-43 -370,-59 -102,-17 -257,-41 -345,-55 -88,-14 -286,-46 -440,-70 -154,-25 -289,-45 -301,-45 -18,0 -22,13 -44,147 l -23,147 6,2021 c 11,3126 18,4477 26,4510 7,29 10,30 87,41 43,6 92,12 108,13 l 29,1 z m 137,2110 c 18,-36 19,-92 24,-1203 l 5,-1165 40,-62 c 37,-58 45,-64 110,-89 93,-34 237,-48 755,-74 228,-11 512,-25 630,-31 291,-15 371,-11 404,20 l 26,24 v -100 c 0,-111 -11,-144 -57,-174 -33,-22 -167,-25 -428,-9 -88,5 -295,17 -460,25 -165,8 -388,20 -495,25 -287,15 -354,25 -419,63 -67,40 -117,106 -146,196 l -22,66 10,1180 c 9,1147 8,1224 -19,1323 -11,38 22,26 42,-15 z m 234,-8 c 189,-35 994,-188 1160,-220 102,-19 246,-47 320,-60 221,-41 221,-41 255,-88 28,-40 29,-48 37,-187 9,-172 8,-484 -2,-499 -7,-12 16,-16 -1150,170 -173,27 -387,61 -475,74 -88,14 -187,29 -220,35 -33,5 -63,10 -67,10 -4,0 -9,168 -11,373 -2,204 -7,384 -11,398 l -8,27 49,-10 c 26,-5 82,-15 123,-23 z M 6756,6523 c -4,-593 -9,-2060 -13,-3261 -4,-1649 -9,-2182 -17,-2179 -7,3 -115,35 -242,72 -126,37 -341,100 -478,141 -138,40 -253,71 -258,68 -4,-3 -8,0 -8,5 0,6 -6,11 -14,11 -7,0 -87,22 -177,49 -90,27 -375,110 -634,185 -258,76 -499,147 -535,159 l -65,22 4,2125 c 2,1169 6,2231 10,2360 l 6,234 75,29 c 41,15 129,48 195,71 66,24 188,69 270,100 83,32 204,77 270,101 66,24 188,69 270,100 83,31 204,76 270,100 66,24 138,50 160,59 39,15 326,121 610,226 77,28 171,63 208,77 l 68,26 -3,61 c -3,58 -4,61 -28,58 -13,-2 -76,-24 -140,-49 -63,-25 -144,-56 -180,-68 -36,-13 -135,-50 -220,-83 -85,-32 -306,-115 -490,-185 -739,-278 -1292,-487 -1301,-492 -5,-4 -9,2 -9,12 0,14 36,32 163,80 89,34 239,91 332,128 268,104 513,199 735,285 113,43 314,121 445,173 132,51 294,115 360,140 66,25 172,66 235,91 63,25 119,45 124,46 5,0 6,-440 2,-1077 z m 372,-192 -11,-1190 23,-73 c 43,-140 148,-248 256,-263 88,-12 276,-26 554,-40 162,-8 421,-22 575,-30 154,-8 348,-15 430,-16 140,-1 153,0 189,22 l 39,23 -6,-124 c -4,-68 -7,-182 -7,-254 v -131 l -24,35 c -19,29 -37,39 -108,63 -76,24 -98,27 -229,27 -79,0 -349,7 -599,15 -250,8 -522,15 -605,17 l -150,3 -70,-36 c -67,-34 -71,-38 -106,-110 l -37,-75 -3,-1395 c -3,-1623 -8,-1519 88,-1591 74,-56 154,-71 285,-51 227,34 1003,146 1207,175 205,29 227,34 269,62 25,16 52,43 61,58 39,68 43,2 5,-75 -43,-88 -17,-80 -529,-157 -148,-22 -326,-49 -395,-60 -457,-73 -658,-100 -756,-100 -96,0 -109,2 -163,29 -60,31 -123,94 -167,167 l -25,42 -7,1913 c -10,2632 -4,4408 13,4352 11,-34 11,-254 3,-1232 z m -428,1123 c 0,-21 -8,-29 -42,-42 -119,-47 -2313,-858 -2316,-857 -2,2 0,13 3,26 5,21 33,34 198,96 106,39 444,167 752,283 308,116 693,261 855,322 162,61 345,130 405,153 134,52 145,53 145,19 z m 785,-699 c 88,-14 203,-32 255,-40 52,-8 151,-24 220,-35 69,-11 253,-40 410,-64 157,-25 401,-63 543,-85 142,-23 262,-41 267,-41 6,0 10,-81 10,-211 v -211 l -37,6 c -21,3 -200,27 -398,52 -579,73 -1038,132 -1210,154 -88,12 -186,24 -217,27 l -58,6 v 239 240 l 28,-6 c 15,-3 99,-17 187,-31 z m -125,-485 c 36,-5 243,-32 460,-60 217,-27 571,-72 785,-100 215,-28 434,-55 488,-62 l 97,-12 v -88 -89 l -32,6 c -18,3 -226,28 -463,55 -236,27 -487,56 -556,64 -332,40 -750,89 -804,95 l -60,6 -3,98 c -2,74 0,97 10,97 7,0 42,-5 78,-10 z m 312,-265 c 211,-24 518,-61 683,-80 165,-19 336,-39 380,-45 44,-5 157,-18 250,-29 94,-12 178,-21 188,-21 16,0 17,-19 11,-342 -4,-189 -11,-344 -15,-346 -5,-2 -18,-21 -31,-43 -17,-30 -29,-40 -57,-46 -20,-3 -146,-1 -281,6 -135,6 -380,18 -545,26 -662,32 -781,43 -866,75 -47,18 -60,29 -87,75 l -32,53 v 381 c 0,241 4,381 10,381 5,0 182,-20 392,-45 z m 548,-1671 c 80,-3 281,-9 446,-14 377,-10 396,-15 457,-104 l 40,-60 5,-1281 5,-1281 -43,-62 c -60,-89 -88,-107 -190,-120 -84,-11 -878,-126 -1220,-177 -243,-37 -319,-28 -382,42 -36,40 -38,109 -38,1516 v 1380 l 30,64 c 27,58 36,67 83,89 l 52,24 305,-5 c 168,-3 370,-8 450,-11 z M 4795,1615 c 237,-69 482,-141 545,-160 63,-18 171,-50 240,-69 69,-20 154,-45 190,-56 226,-67 298,-89 836,-246 l 132,-39 21,-119 c 11,-66 19,-121 17,-123 -2,-2 -68,17 -147,42 -326,105 -426,137 -669,215 -140,45 -379,121 -530,170 -151,49 -354,114 -450,144 -542,174 -650,211 -650,223 0,19 15,17 115,-16 50,-16 209,-66 355,-111 146,-45 335,-104 420,-130 85,-27 265,-83 400,-125 135,-42 315,-98 400,-125 695,-217 690,-216 701,-199 5,8 8,37 7,64 -3,57 16,46 -193,110 -228,70 -1572,480 -1875,571 -173,53 -319,101 -325,106 -7,7 -3,8 10,5 11,-4 214,-63 450,-132 z m -250,21 c 631,-191 1077,-327 1205,-367 52,-16 284,-87 515,-157 l 420,-128 3,-32 c 2,-18 0,-32 -4,-32 -4,0 -78,22 -163,49 -86,27 -221,70 -301,95 -80,24 -241,75 -359,111 -118,37 -219,68 -225,69 -6,2 -83,26 -171,54 -133,42 -1060,331 -1117,348 -11,3 -18,15 -18,30 0,19 4,24 18,20 9,-3 98,-30 197,-60 z"
       id="path4"
       inkscape:connector-curvature="0" />
    <path
       d="m 8088,7343 c -9,-2 -19,-12 -22,-21 -9,-31 19,-481 30,-492 6,-6 93,-25 194,-42 178,-29 184,-30 197,-12 11,15 12,64 7,254 -4,152 -10,239 -18,247 -6,7 -85,26 -174,42 -163,31 -181,33 -214,24 z m 197,-82 140,-28 6,-199 c 4,-109 5,-201 3,-203 -2,-2 -68,7 -146,20 l -143,24 -7,135 c -3,74 -8,168 -11,208 -3,48 0,72 7,72 6,-1 74,-13 151,-29 z"
       id="path6"
       inkscape:connector-curvature="0" />
    <path
       d="m 7456,7282 c -11,-17 -16,-108 -8,-121 6,-8 49,-20 102,-28 115,-18 125,-13 114,64 -3,28 -9,56 -13,62 -13,21 -184,41 -195,23 z"
       id="path8"
       inkscape:connector-curvature="0" />
    <path
       d="m 7726,7224 c -20,-19 -21,-97 -2,-113 17,-14 167,-37 189,-28 13,5 17,19 17,59 0,29 -4,58 -8,65 -4,6 -36,14 -72,18 -36,3 -75,8 -87,11 -12,2 -29,-3 -37,-12 z"
       id="path10"
       inkscape:connector-curvature="0" />
    <path
       d="m 6676,7342 c -10,-16 -16,-315 -21,-1072 -3,-415 -10,-1137 -15,-1605 -29,-2655 -34,-3495 -21,-3495 22,0 19,-149 41,2115 5,556 12,1172 15,1370 3,198 8,765 11,1260 3,495 7,905 9,912 10,30 6,518 -3,521 -6,2 -13,-1 -16,-6 z"
       id="path14"
       inkscape:connector-curvature="0" />
    <path
       d="m 4955,5618 c -16,-6 -46,-22 -65,-36 -19,-15 -43,-26 -54,-27 -27,0 -70,-65 -96,-145 -12,-35 -27,-75 -35,-90 -40,-79 -42,-252 -5,-427 21,-103 86,-244 122,-267 30,-18 116,-36 177,-36 44,0 54,5 102,48 30,26 55,50 57,54 2,3 16,26 32,50 65,98 123,441 100,595 -20,136 -80,231 -172,273 -47,21 -115,25 -163,8 z"
       id="path16"
       inkscape:connector-curvature="0" />
    <path
       d="m 4597,3473 c -3,-5 -8,-258 -12,-563 -6,-461 -5,-558 7,-567 11,-9 71,-24 253,-63 22,-5 150,-34 285,-65 135,-30 252,-55 262,-55 22,0 24,37 26,580 1,250 5,501 9,557 4,73 2,107 -6,117 -8,10 -44,16 -114,20 -56,3 -221,13 -367,21 -146,8 -282,17 -302,20 -20,3 -39,2 -41,-2 z"
       id="path18"
       inkscape:connector-curvature="0" />
  </g>
</svg>
