<?xml version="1.0" encoding="UTF-8"?>
<svg id="lienzo-svg" style="enable-background:new" version="1.0" viewBox="0 0 375 225" xmlns="http://www.w3.org/2000/svg">
	<g id="adobe">
		<rect id="rect178" x="210.77" y="22.086" width="131.09" height="23.89" style="fill:#e6e6e6"/>
		<path id="path2" d="m285.75 23.528c-0.68039-0.0029-1.2216 0.05441-1.3508 0.14635-0.17227 0.12259-0.30154 1.7473-0.30154 3.5864v3.3712l-0.90415-0.58227c-1.206-0.76619-3.8767-0.73578-5.4273 0.06105-4.6947 2.513-4.6512 11.523 0.0865 13.608 1.8951 0.82748 3.7465 0.79653 5.2968-0.15354 1.5505-0.91942 1.8094-0.94992 1.8094-0.15309 0 0.52101 0.3011 0.6128 1.7224 0.6128h1.723l-0.0865-10.205-0.12872-10.175-1.723-0.09203c-0.24764-0.01533-0.48989-0.02282-0.7167-0.02379zm22.827 0c-0.68034-0.0029-1.2216 0.05441-1.3508 0.14635-0.1723 0.12259-0.30097 4.7504-0.30097 10.298v10.052h1.7224c1.4213 0 1.723-0.09179 1.723-0.6128 0-0.79684 0.25829-0.76634 1.8088 0.15308 2.455 1.4711 5.6853 0.58261 7.6235-2.145 0.94755-1.3178 1.0768-1.9308 1.1199-4.5971 0-3.4325-0.77509-5.3633-2.6272-6.6202-1.5505-1.0114-4.3932-1.0114-5.9438 0l-1.0764 0.73582-0.25869-7.2941-1.723-0.09203c-0.24768-0.01533-0.48993-0.02282-0.71674-0.02379zm-43.501 0.57553c-1.1036 0.02299-2.1913 0.15315-2.299 0.36768-0.0862 0.21453-0.94754 2.9422-1.9382 6.0682-0.94755 3.126-2.2825 7.3554-2.9717 9.4394-1.3352 4.1374-1.3352 4.1681 1.2921 3.9842 1.3783-0.09194 1.4214-0.12247 2.2398-2.7889l0.86119-2.6971 5.6853 0.18407 0.81831 2.6663 0.8618 2.6967h3.7898l-0.25804-1.1645c-0.64606-2.4519-5.4704-18.235-5.6862-18.48-0.17231-0.21453-1.292-0.29863-2.3956-0.27564zm-24.873 0.18002c-2.5142 0.0039-4.948 0.0958-5.0341 0.27969-0.12922 0.18388 1.3787 2.9419 3.2739 6.1295 1.9382 3.218 4.2636 7.1718 5.2546 8.7961 0.94755 1.655 1.8952 3.0033 2.0675 3.0033 0.17231 0 0.34432-3.9842 0.38741-8.8571 0.043-6.6505-0.0427-8.9184-0.4303-9.1023-0.40915-0.16856-3.0044-0.25298-5.5186-0.24916zm-17.174 0.01168c-1.0606-0.0077-2.4179 0.0074-4.3131 0.05342l-4.3932 0.09203 0.0435 9.3784c0 5.7004 0.17186 9.2555 0.43027 9.0717 0.21536-0.15324 1.1201-1.5633 2.0246-3.1567 1.5075-2.605 2.6272-4.4745 7.6235-12.964 0.77527-1.2872 1.2922-2.3599 1.1199-2.3905-0.71067-0.04597-1.475-0.07629-2.5357-0.08395zm42.204 3.67c0.17228 0.09194 0.3451 0.42888 0.3451 0.73536 0 0.30647 0.38744 1.9614 0.86119 3.6777 1.1629 4.26 1.2488 4.0455-1.3785 3.9229-1.3782-0.06129-2.2393-0.21465-2.1962-0.42919 0.0431-0.18389 0.51663-2.0838 1.0335-4.1987 0.51681-2.1147 1.1197-3.8003 1.335-3.7083zm64.864 1.4056c-0.49531-0.0038-0.96896 0.0806-1.8088 0.24916-1.6798 0.36777-2.7565 1.1338-4.0486 2.9114-0.99062 1.3178-1.1199 1.9003-1.1199 4.4439 0 4.0148 1.292 5.7617 5.0393 6.8957 1.852 0.55166 3.3598 0.58227 5.5992 0.12256 1.5075-0.27583 1.6365-0.39832 1.5072-1.2871l-0.12931-0.98094-2.6272 0.09203c-2.2397 0.09194-2.7993 0-3.7898-0.6128-1.4213-0.85813-2.3694-3.2486-1.465-3.6777 0.30148-0.15324 2.4554-0.21471 4.7382-0.18406 4.8239 0.09194 4.867 0.09188 4.3932-2.973-0.38763-2.3599-2.1536-4.2907-4.3501-4.7197-0.92602-0.18388-1.4429-0.27585-1.9382-0.27969zm-32.432 0.07722c-0.79521-0.0047-1.5564 0.08009-2.154 0.26397-1.852 0.61295-4.0056 2.4519-4.3932 3.8003-0.17226 0.6436-0.34448 2.3294-0.34448 3.7696 0 2.1453 0.21496 2.8808 1.0764 4.1374 1.4644 2.084 3.4457 3.0033 6.0734 2.8194 2.5842-0.15324 4.3501-1.0725 5.6422-2.9114 0.81834-1.2259 0.99053-1.9001 0.99053-4.5052 0-2.6663-0.1294-3.2793-1.0769-4.5665-0.60299-0.85813-1.5504-1.7775-2.1534-2.084-0.91526-0.45971-2.3352-0.71593-3.6606-0.72368zm0.0612 2.1221c0.54748-0.02 1.0395 0.33896 1.7905 1.1147 0.81835 0.85813 0.94765 1.4098 0.94765 3.8922 0 4.3826-1.5937 6.3437-4.0056 4.9952-1.4644-0.82748-2.1965-3.3406-1.8088-6.2214 0.25843-1.8389 0.5165-2.3294 1.5502-3.0648 0.64066-0.45588 1.1004-0.70051 1.5262-0.71605zm16.027 0.23211c0.24683 0.0122 0.53175 0.10846 0.96784 0.26937 3.1011 1.1953 3.0578 8.9491-0.0864 9.654-2.5412 0.5823-3.4025-0.70477-3.4025-5.0875 0-3.1567 0.0432-3.4022 1.0769-4.1068 0.72682-0.53633 1.0328-0.74942 1.4442-0.72907zm-32.234 9e-3c0.42533 0.0077 0.85615 0.24505 1.5022 0.72009 1.0337 0.70489 1.0764 0.9194 1.0764 4.26 0 3.2486-0.0861 3.5858-0.99057 4.3519-0.81835 0.6436-1.2488 0.79714-2.1533 0.61326-1.4644-0.24519-1.9382-0.88884-2.412-3.4325-0.51684-2.5438 0.086-4.8117 1.5073-5.8537 0.62453-0.44439 1.0447-0.6667 1.47-0.65904zm-51.215 0.26038c-0.12921 0-1.1196 1.5018-2.1533 3.3099-1.0768 1.8082-2.1108 3.4632-2.3262 3.6777-0.68913 0.61295 0.12967 0.95004 2.6278 1.042l2.3256 0.09203 0.94764 1.6243c1.1629 1.9308 1.6367 2.2065 3.8764 2.2065 1.5936 0 1.6365-0.03044 1.335-0.85792-0.12921-0.45971-1.3782-2.6969-2.7565-4.9649-1.3783-2.268-2.7566-4.5971-3.0581-5.1488-0.30149-0.52101-0.64601-0.98094-0.8183-0.98094z" style="stroke-width:.036331"/>
	</g>
	<g id="eset">
		<path id="path5" d="m271.12 60.999c-46.418 0-49.577 0.10439-52.246 0.99214-3.0898 1.0444-6.3198 3.2377-7.7246 5.2743-1.7556 2.5588-2.669 7.7282-2.2476 13.211 0.49159 6.8932 1.4043 8.982 5.0559 11.697l2.9493 2.2451h109.06l3.0891-2.0883c4.073-2.8199 5.5477-6.5276 5.5477-14.1 0-7.3109-1.404-11.019-5.4067-13.839-1.6151-1.1489-4.2133-2.4021-5.8284-2.7676-2.1067-0.46999-15.309-0.6265-52.247-0.6265zm-21.84 2.6108h25.422v11.071c0 6.1098-0.21077 12.689-0.4917 14.621l-0.42171 3.5509h-23.946c-15.098 0-24.999-0.20817-26.755-0.5737-4.0028-0.83554-6.9526-2.6638-8.8489-5.5359-1.4045-2.1411-1.615-3.342-1.615-8.2509-0.0702-6.3187 0.70237-8.7209 3.6518-11.332 3.9325-3.4466 4.7046-3.5509 33.005-3.5509zm56.319 6.2665h17.556v2.0891c0 2.0366-0.0699 2.0883-2.4575 2.0883h-2.4585v12.533h-7.7246v-12.533h-2.4575c-2.3876 0-2.4585-0.05171-2.4585-2.0883zm-14.869 0.05202c2.8265 0 5.6708 0.15712 6.7944 0.47045 2.2472 0.62665 3.8616 3.3421 3.8616 6.4754v2.3499l-7.2323 0.15682-7.2337 0.15604 0.5617 1.6714c0.56175 1.5666 0.84338 1.7235 3.231 1.7235 1.8258 0 2.8788-0.31384 3.5108-1.0449 0.63202-0.78331 1.615-1.0442 4.0026-1.0442 2.8792 0 3.1601 0.1049 3.1601 1.2538 0 0.73109-0.77204 1.9843-1.6849 2.7676-1.5449 1.3577-2.1069 1.462-7.5842 1.6186-7.6544 0.20888-10.323-0.73125-11.657-4.0734-1.1938-2.9244-0.70244-8.4076 0.84248-10.235 0.70223-0.73109 1.8957-1.5144 2.7384-1.7755 1.0533-0.31333 3.8629-0.47045 6.6894-0.47045zm-31.444 0.0436c-1.794-0.01062-3.7733 0.12657-5.8624 0.42684-1.4747 0.20888-3.0198 0.62623-3.371 0.88734-1.3342 0.9922-1.9657 4.3346-1.1932 6.0054 0.91291 1.88 2.9489 2.5068 8.2857 2.5068 2.809 0 4.4946 0.2609 5.1968 0.83532 1.264 0.93998 1.2644 0.88765 0.70259 1.9843-0.56181 1.1489-6.9524 1.2009-7.5842 0.05199-0.28087-0.57443-1.405-0.78332-3.7926-0.78332-3.3005 0-3.441 0.05267-3.1601 1.2538 0.63202 2.3499 2.6685 3.133 8.4268 3.3941 7.1628 0.26111 10.464-0.5219 11.939-2.8196 0.91292-1.41 0.98328-2.2453 0.49171-3.7597-0.77246-2.4022-2.4584-3.0813-9.0596-3.6557-4.6348-0.41777-4.915-0.47014-4.915-1.7234 0-1.1489 0.35052-1.3052 2.5274-1.4618 1.6151-0.10444 2.9495 0.15651 3.6518 0.6265 0.63201 0.46999 2.3175 0.83532 3.9326 0.83532 2.3174 0 2.8792-0.20904 2.8792-0.94013 0-2.2716-3.7135-3.6323-9.0954-3.6641zm-26.411 0.02217c-1.1807-0.01304-2.3616 0.06507-3.4676 0.24785-5.5477 0.88776-6.8115 2.1932-7.1628 7.4676-0.35109 4.4388 0.98292 7.102 4.0025 8.1987 2.6685 0.9922 11.938 0.88781 14.045-0.20883 2.2472-1.1489 2.8093-1.7231 2.8093-3.1853 0-0.9922-0.35166-1.149-3.0201-1.149-2.1769 0-3.1594 0.26084-3.8617 1.0442-1.7556 2.1411-7.1628 0.9922-7.1628-1.5666v-1.5666l5.1258-0.052c2.7387-0.0522 5.8991 0 7.0224 0.052 1.8258 0.0522 1.8958 5.2e-4 1.8958-2.8196 0-2.2455-0.35098-3.1858-1.615-4.2302-1.5274-1.3316-5.069-2.193-8.6108-2.2321z" style="stroke-width:.060557"/>
		<path id="path151" d="m289.69 69.896c-3.3309-0.05761-7.5507 0.24632-8.9214 3.0597-1.3506 3.2921-1.3883 7.0362 0.0167 10.324 1.787 3.5021 7.3441 3.2673 11.336 3.2016 2.9096-0.03332 6.6492 0.11909 8.1579-2.2814 1.1252-0.93374 1.9389-3.1564-0.46998-3.3269-2.4238-0.50794-4.8519 0.1818-6.558 1.5377-1.5859 0.36133-3.8709 0.69934-5.1932-0.22552-0.44075-0.78011-1.2699-2.2811-0.5879-2.6217 4.6569 0.01171 9.3308 0.02951 13.958-0.43804 0.4192-2.312-0.1152-5.1316-1.7754-7.2581-2.0105-2.5676-6.7656-1.7241-9.9625-1.9712z" style="fill:#e6e6e6"/>
		<path id="path155" d="m305.67 69.993c0.15033 1.3442-0.80224 4.2112 2.0112 4.214 2.0414-0.1503 3.4218 0.08203 2.6986 2.029v10.062c2.2534 0.61278 5.1251 0.06561 7.605 0.25346 0.77844-2.2536 0.10021-4.9761 0.32615-7.4076 0.63802-1.5826-1.5643-5.3725 1.7127-4.9042 2.003 0.33733 3.7642-0.92725 3.4187-2.5041 1.0292-2.4624-2.0234-2.0882-4.173-1.9959-4.4842 0.15572-9.3007-0.31219-13.576 0.23529z" style="fill:#e6e6e6"/>
		<path id="path157" d="m254.55 63.434c-10.912 0.17234-21.922-0.28389-32.757 0.89232-5.4201 1.2141-8.8917 5.6156-9.0559 9.8745-0.33604 4.3645-0.82273 9.1757 1.9409 13.153 2.4699 3.3218 7.1823 5.3097 12.1 5.2377 15.254 0.20252 30.532 0.44554 45.78 0.072 2.4783 0.01836 1.3064-2.5072 1.6901-3.6562 0.33232-8.4419 0.33311-16.889 0.47583-25.333-2.8213-0.61384-6.2646-0.06726-9.3177-0.2487-3.6188 3e-3 -7.2377 0.0059-10.856 0.0089zm3.5893 6.722c3.2111 0.16913 7.2491-0.02946 9.526 2.0556 1.0786 0.85336 0.61968 2.318-1.0587 2.1492-3.6803 0.60101-7.0686-2.297-10.619-0.88192-1.5774 0.81342-0.38908 2.7705 1.4367 2.5697 3.6413 0.75388 8.3217 0.17345 11.066 2.5632 2.7736 2.9289-0.33369 7.7164-5.0076 7.5571-4.2824-0.03063-8.9043 0.66735-12.935-0.71554-1.1456-0.65009-2.7095-2.2861-1.6148-3.3041 2.7168-0.73758 5.5907 0.11845 7.9429 1.1711 2.1774 0.48397 6.035 0.52255 6.5221-1.6683-1.1254-2.022-4.7611-1.8219-7.1617-1.9613-2.9228 0.03971-7.2095-0.43002-7.3961-3.303-0.36121-2.0858-0.0279-5.1176 3.2489-5.6048 1.967-0.46798 4.0124-0.60813 6.0504-0.62716zm-25.535 0.12218c3.4726 0.051 8.525 0.33538 9.8254 3.3795 0.5776 1.7449 0.97959 3.6405 0.27346 5.3994h-13.354c-1.059 1.5908 0.0742 4.0091 2.6292 4.3225 3.082 0.89455 4.8746-2.314 7.9579-1.8158 1.3698-0.12492 3.7289-0.10866 3.07 1.4701-1.0606 3.0636-5.9002 3.4567-9.3027 3.3119-3.4889-0.10688-8.4127 0.45142-10.168-2.5925-1.604-2.7943-0.77541-6.0806-0.72338-9.0064 0.31277-3.8415 5.8273-4.5305 9.7927-4.4687z" style="fill:#e6e6e6"/>
	</g>
	<g id="linux-8">
		<path id="path4" d="m265.61 115.09c-3.4062 0.76688-6.8622 3.0675-8.5156 5.6387-2.1038 3.2479-2.5046 7.0824-1.8534 17.864l0.55099 9.5634-1.2022 2.1653c-0.65117 1.1729-2.9053 4.1502-4.959 6.6763-4.3579 5.2326-5.0091 6.4057-7.5136 12.45-1.0519 2.4359-2.6548 5.8193-3.6066 7.4881-1.3525 2.3909-1.7031 3.5637-1.7031 5.5935 0 1.3984 0.10019 2.5261 0.25046 2.5261 0.10018 0 0.75136-0.22555 1.4026-0.4962 2.9553-1.218 6.6619 2.1202 14.326 12.676 5.9609 8.21 6.9629 11.909 3.857 14.706-1.5027 1.3533-2.0036 1.5338-4.408 1.5338-1.5027 0-4.6083-0.4962-6.9628-1.1277-2.3042-0.63153-7.3634-1.7593-11.17-2.4811-3.8069-0.72176-7.2633-1.5788-7.6138-1.8495-0.90164-0.67667-0.90164-1.7142 0.10017-3.8344 0.90163-1.8946 0.75137-4.3756-0.45081-7.1724-1.102-2.6164-0.45083-3.3832 2.7049-3.3832 3.5564 0 5.8608-0.99243 6.712-2.887 0.67913-1.4734 1.8541-5.9049 1.629-6.0281-0.14021-0.0769-1.4181 3.6216-1.8794 4.3142-1.2022 1.7593-3.7568 3.248-5.5599 3.248-2.5046 0-4.5082 0.58644-5.0091 1.4435-0.35063 0.63154-0.30054 1.7593 0.30055 4.0598 0.75136 3.0675 0.75136 3.293-0.30055 6.0899-1.8534 5.0523-1.1521 5.6838 8.0645 7.2627 2.9053 0.49619 8.2147 1.7593 11.771 2.7968 7.764 2.2555 9.5676 2.2104 13.425-0.13534 3.9572-2.3457 5.3095-2.6164 15.178-2.887 10.118-0.27066 12.172 0.0451 13.525 2.0751 1.4026 2.1202 3.5064 2.9773 7.4636 2.9773h3.5564l4.4581-3.2479c2.5046-1.8044 6.8622-4.3304 9.7178-5.6387 5.2094-2.3908 7.5637-4.1953 7.5637-5.7742 0-0.94731-1.5528-2.4811-3.5564-3.3832-2.8552-1.3533-5.2099-8.706-6.2113-12.901-0.40072-1.7593-0.40041 6.2702-0.0498 8.3455 0.45081 2.6615 1.8534 4.1502 5.0592 5.4584 5.61 2.2104 4.6083 4.0147-3.7568 6.9921-3.5564 1.2631-6.4116 2.6164-8.7659 4.2853-1.9535 1.3533-4.1576 2.6615-4.959 2.887-3.1056 1.0826-6.011 0.31577-7.4135-1.8946-0.45081-0.67667-0.65117-3.248-0.65117-8.21-0.0501-3.9695-0.25046-8.4806-0.45083-10.014-0.45081-3.0224-0.20035-4.6914 0.95176-5.729 1.0519-0.94729 2.0036-0.49618 3.306 1.4435 2.1539 3.2028 2.9052 3.699 5.66 3.699 1.9034 0 3.0555-0.27065 4.4581-1.1277 1.0018-0.63153 1.8534-1.3082 1.8534-1.5338 0-0.18043 1.0519-1.3082 2.4044-2.4811l2.3543-2.1202v-4.1502c-0.0501-8.0749-4.2577-17.142-11.671-25.081-5.8107-6.225-7.9142-11.503-8.5656-21.247-0.45081-6.6312-1.3525-9.4731-4.0573-13.217-1.9535-2.6164-4.3579-4.2405-7.9142-5.3681-3.1057-0.99243-9.4669-1.4435-11.871-0.85709zm12.723 14.751c2.204 1.3984 3.7568 6.1351 2.755 8.4806-0.15026 0.40598-0.85156 0.72175-1.5528 0.72175-1.1521 0-1.2022-0.0902-0.90163-1.7593 0.50092-2.6615-0.75136-4.5563-2.9553-4.5563-0.90163 0-1.9535 0.31577-2.3042 0.67667-0.75137 0.81196-1.2022 3.8795-0.65117 4.5563 0.20036 0.27066 2.1038 1.0826 4.1575 1.8495l3.7568 1.3533-0.15026 3.5637c-0.10019 3.4735-0.0501 3.6539 1.9034 6.496 1.102 1.624 2.5046 4.3304 3.1056 6.0899 0.60109 1.7142 1.6029 3.7892 2.2541 4.601 2.1038 2.4811 3.6566 7.4881 4.1575 13.307 0.25046 2.9322 0.6011 5.5036 0.75137 5.7742 0.55098 0.81197 3.5564 0.49621 4.5082-0.45111 1.3023-1.2631 1.6029-6.2702 0.55098-9.7888-0.80144-2.887-3.8069-8.7512-5.2094-10.195-0.40073-0.40598-0.65118-0.90222-0.50092-1.0375 0.40072-0.31578 4.0073 4.0147 5.3095 6.4057 1.7031 3.0224 2.755 9.1573 2.1539 12.225-0.30054 1.3984-0.55098 2.6164-0.55098 2.7066 0 0.0451 0.70129 0.40598 1.5027 0.81196 0.85154 0.40598 1.5027 0.90221 1.5027 1.1729 0 0.31577-0.30054 0.31577-0.80144-0.0902-1.0519-0.81196-5.7106-0.76688-7.4135 0-0.70129 0.36088-1.4527 1.1277-1.6029 1.7142-0.20035 0.72176-0.80143 1.1729-1.7532 1.3533-2.9053 0.49619-3.6065 2.9322-2.8552 9.7437 0.5009 4.1502 0.40072 5.5483-0.35064 9.5634-0.50092 2.6164-1.0519 4.7365-1.2523 4.7365-0.2004 0-0.65119-0.27066-0.95175-0.63154-0.45082-0.4962-0.35063-1.3984 0.45081-3.9246 1.102-3.699 1.3024-6.0448 0.45083-6.5408-0.35065-0.18043-1.4026 0.58646-2.5546 1.8044-1.102 1.1729-2.8552 2.4811-3.857 2.9322-4.5583 2.1202-13.274 2.4359-16.029 0.58647-1.6029-1.0375-3.0555-1.3082-3.0555-0.54134 0 0.22555 0.45082 1.0826 1.0018 1.8946 1.1521 1.7142 1.3024 4.0598 0.30055 4.8269-0.55099 0.40598-0.7013 0.0902-0.90163-1.7593-0.15028-1.4435-0.80144-3.0675-1.8534-4.5563-0.85156-1.2631-1.5528-2.3908-1.5528-2.5713 0-0.18044 0.50092-0.54132 1.102-0.76688 1.6029-0.63154 2.5546-2.5713 1.9535-3.9246-0.25045-0.58644-2.4544-2.6164-4.909-4.4208-9.2667-7.0373-11.12-8.6613-12.022-10.781-1.0018-2.3457-1.1521-6.1803-0.25046-7.4881 0.45082-0.76688 0.55099-0.31577 0.6011 2.4359 0 2.5713 0.25047 3.699 1.102 5.0523 1.8534 2.9773 2.6047 2.2555 2.9553-2.9773 0.15027-2.4811 0.70129-5.5483 1.2022-6.7666 1.1521-2.9773 4.0073-8.0297 4.8589-8.7064 0.55098-0.36088 0.65117-1.218 0.5009-2.887-0.15027-2.075 0.0501-2.7968 1.6029-5.4584 1.0018-1.7142 2.0036-3.8344 2.204-4.7365l0.40072-1.6691 2.1539 2.4811c2.4044 2.7517 4.1074 3.7892 5.5599 3.3833 0.50091-0.13534 2.7049-1.3533 4.8589-2.6615 2.1539-1.3082 4.6586-2.7517 5.5599-3.1577 1.7031-0.76688 2.1539-1.624 0.85157-1.624-0.40074 0-2.5546 0.81196-4.7087 1.8044-4.3579 2.03-7.6639 2.3457-9.8179 1.0826-1.9535-1.1277-1.5027-1.5338 1.7031-1.5338 2.3543 0 4.2076-0.40598 8.3653-1.8946 4.909-1.7593 6.3615-2.6615 5.5098-3.3832-0.15026-0.18044-0.85156 0.18044-1.5027 0.72175-1.7532 1.4886-8.2147 3.2028-11.971 3.2028-2.9053-0.0451-3.2559-0.18044-5.2094-1.7593-1.2022-0.94731-2.1539-2.03-2.1539-2.3909 0-0.31577 1.3525-1.7142 3.0555-3.0224 2.8552-2.3006 3.0555-2.5262 2.8051-3.9695-0.35064-1.8946-1.1521-2.8419-2.4044-2.8419-2.3543 0-3.306 3.293-1.4526 4.962 1.0018 0.90222 0.95175 1.8044 0 1.8044-0.85155 0-2.0036-2.6164-2.0036-4.5111 0-3.2479 2.0036-5.729 4.3078-5.2326 1.5027 0.36088 3.1557 3.293 3.2058 5.5483 0 1.3984 0.10018 1.4886 1.7031 1.4886 0.95174 0 2.0537 0.0902 2.4544 0.27066 0.55098 0.18043 0.70128-0.27066 0.70128-2.2104 0-2.6164 0.85156-4.1502 2.755-5.1426 1.6029-0.76688 3.9572-0.72176 5.3596 0.13532z" style="stroke-width:.047535"/>
		<path id="path48" d="m239.64 184.04c-0.98031 0.0963-1.9991 0.38979-2.7672 0.89865-0.45902 2.0383-0.92211 4.1021-1.8457 6.0222-1.0319 1.6457-3.3212 2.2727-5.3893 2.2923-1.4123 0.14531-3.3625-0.0839-4.16 1.1782-0.453 1.4572 0.57428 2.9032 0.87386 4.2963 0.67111 2.0181 0.53361 4.1945-0.42168 6.1302-0.31097 0.93021-0.66648 2.0548-0.0798 2.9448 1.2006 1.0526 3.073 1.1585 4.6338 1.5969 5.5547 1.1378 11.088 2.3257 16.582 3.6539 2.0293 0.41407 4.0896 0.81338 6.1915 0.64887 1.9713 0.14201 3.4093-1.2505 4.461-2.476 1.4698-1.8418 1.0838-4.218 0.20927-6.1851-1.9615-4.3693-5.0885-8.2659-8.018-12.196-2.2601-2.7937-4.4322-5.755-7.5718-7.9091-0.78189-0.48852-1.6978-0.92035-2.6977-0.89652z" style="fill:#e6e6e6;stroke-width:.20134"/>
		<path id="path50" d="m309.09 185.27c-1.3769 0.92656-2.4801 2.1491-3.6741 3.2481-0.62663 0.6364-1.0107 1.4102-1.8591 1.8815-1.7807 1.5231-4.4837 1.8104-6.8533 1.3369-2.1107-0.63541-2.7449-2.6627-4.0062-4.0436-0.5474-0.71752-1.5775-1.7415-2.6868-1.1714-1.9077 1.1197-1.9464 3.3491-1.8141 5.12 0.69446 6.0292 0.44701 12.122 0.93205 18.177 0.13576 2.4649 3.2417 4.2171 5.9986 3.895 3.0195-0.24651 5.279-2.1793 7.6099-3.6252 2.99-2.0533 6.542-3.348 10.057-4.6648 1.9218-0.85109 4.139-1.5663 5.4369-3.1186 0.60155-0.74988 0.25994-1.762-0.59609-2.258-1.9346-1.5053-4.7828-1.9431-6.3351-3.8358-1.7383-2.0552-1.3253-4.715-1.473-7.0926-0.10407-1.2275 0.0767-2.518-0.26446-3.7087-0.0981-0.0906-0.31988-0.18541-0.47256-0.1399z" style="fill:#e6e6e6;stroke-width:.20134"/>
		<path id="path52" d="m261.42 130.5c-0.82916 0.12189-1.8681-0.20424-2.5601 0.23781-1.8207 2.5317-1.793 5.93 0.0468 8.4413 0.3007 0.36614 0.85582 0.66283 1.3893 0.48703-0.90363 0.90831-2.1416 1.6516-2.7235 2.7522-0.0335 0.94366 1.0308 1.6078 1.6786 2.2779 1.1865 1.0349 2.5039 2.1914 4.3258 2.2439 3.6981 0.29827 7.3947-0.58539 10.805-1.7281 1.413-0.43947 2.6084-1.2079 3.7894-1.9713 0.48683-0.35742 0.38577 0.16492 0.0664 0.32033-2.0794 1.3868-4.6635 2.0819-7.0602 2.9724-2.4725 0.90081-5.1488 1.2293-7.8305 1.2946-0.72207-0.035-2.094 0.28946-1.5615 1.1105 1.6462 1.8298 4.7391 2.0148 7.1456 1.3274 3.0285-0.74989 5.6475-2.3482 8.6247-3.1923 0.29956-0.0946 0.51639 0.054 0.20216 0.25755-1.4648 1.0747-3.254 1.7834-4.7944 2.7807-2.2697 1.27-4.4114 2.7466-6.8583 3.7651-1.8054 0.17265-2.942-1.2869-4.0291-2.2682-1.1472-1.0492-1.9607-2.3526-3.1749-3.334-0.85807-0.0835-0.73638 0.92617-0.95789 1.3887-0.75393 2.8321-2.7294 5.2924-3.7193 8.0475-0.25959 1.56-8e-3 3.1845-0.2207 4.7168-2.3329 2.9086-3.9727 6.1856-5.3266 9.4987-1.148 3.3316-0.97041 6.8455-1.6642 10.235-0.11746 0.25698-0.31236 1.1112-0.70195 0.55314-1.4304-1.4585-2.0767-3.3576-2.0804-5.213-0.17433-1.2256 0.0792-2.5369-0.42025-3.7074-0.54635-0.52754-1.1164 0.22113-1.1942 0.66776-0.49874 1.6413-0.28205 3.3847-0.0731 5.0512 0.3025 2.1322 1.591 4.0763 3.4143 5.5414 4.3468 3.8996 9.4097 7.1802 13.653 11.163 1.2412 1.3034 0.33509 3.3929-1.3205 4.1236-0.60137 0.2773-1.5902 0.72731-1.0741 1.424 1.189 2.2536 2.9902 4.339 3.1766 6.8759 0.23132 0.65333-0.0368 1.6284 0.75374 2.0218 1.0404 0.0542 1.4134-1.0717 1.4469-1.7864 0.33881-1.9034-1.0801-3.5127-1.7823-5.2163-0.17597-0.46949 0.77857-0.1006 0.99034-0.0435 1.5174 0.72365 2.985 1.653 4.785 1.7819 4.4226 0.35815 9.1523 0.16233 13.117-1.7086 2.3497-1.1998 3.841-3.2608 6.0229-4.6238 0.64006 1.8205-0.10497 3.746-0.50398 5.5294-0.30612 1.4736-1.1349 2.9884-0.72098 4.498 0.27256 0.50314 0.96727 1.2673 1.6909 0.91555 0.59775-0.99762 0.64658-2.1966 0.98152-3.2769 0.88634-3.6397 1.2415-7.3851 0.7043-11.085-0.18115-2.5521-0.63952-5.156 0.19517-7.6443 0.37107-1.0663 1.4833-1.8203 2.7556-2.0101 1.751-0.4329 1.5837-2.4939 3.2747-3.0218 1.8324-0.57815 3.8904-0.58414 5.8014-0.31437 0.79799-3e-3 1.42 0.9018 2.2005 0.5327 0.54614-0.65412-0.58014-1.158-1.0794-1.5166-0.52396-0.36981-1.3023-0.58743-1.6813-1.046 0.50847-2.3027 0.89803-4.653 0.49586-6.9934-0.44846-3.5205-1.3223-7.1248-3.7123-10.098-1.123-1.4224-2.1244-2.9869-3.6568-4.123-0.60746-0.35399-1.1304 0.39287-0.64902 0.77976 2.2846 2.867 3.8093 6.1088 5.1206 9.3546 1.1316 2.8965 1.1822 6.007 0.75095 8.9835-0.19219 0.96489-0.62093 2.07-1.8704 2.3547-0.85712 0.24365-1.8657 0.24517-2.7327 0.077-0.56163-1.8367-0.52923-3.7682-0.81261-5.6476-0.49069-4.8133-1.3598-9.8106-4.4807-13.961-1.8407-3.1014-2.6459-6.5748-4.6806-9.6058-0.94143-1.5653-2.3634-3.1118-2.2011-4.9543-0.0605-1.8912 0.0688-3.8365-0.066-5.724-0.5743-0.57003-1.6769-0.65821-2.4495-1.0448-1.8148-0.72266-3.7811-1.2728-5.3998-2.2975-0.27712-1.2644-0.0541-2.661 0.50203-3.8755 0.78754-0.97558 2.7191-1.0312 3.7588-0.312 1.594 1.3054 0.99304 3.3352 0.85761 4.9898 0.12741 1.0309 1.8073 1.0048 2.5854 0.51533 1.2423-0.65662 0.92507-2.0743 0.9635-3.131-0.12916-1.9105-0.81153-3.8683-2.1516-5.3985-2.637-0.0981-5.3275-0.0139-7.985-0.0421-0.83802 0.41911-1.133 1.3796-1.3558 2.1586-0.31808 1.3603-0.26396 2.7592-0.54171 4.124-1.1996-0.35181-2.571-0.14382-3.7427-0.46585-0.24847-1.5191-0.34528-3.1079-1.2448-4.488-0.37741-0.57147-0.58116-1.5972-1.6219-1.3258-0.53463 8e-3 -1.0692 0.0164-1.6039 0.0247zm-0.033 2.5341c1.3245 0.10466 1.6853 1.464 1.9104 2.3732 0.33381 0.82088 0.0174 1.6763-0.73076 2.2476-0.53738 0.49619-1.2537 1.172-1.713 1.4921 0.23469-1.1517-1.2692-1.8469-1.477-2.9247-0.37511-1.211 0.20211-3.1965 2.0103-3.1882z" style="fill:#e6e6e6;stroke-width:.20134"/>
		<path id="path54" d="m275.19 128.95c-1.1632-0.0233-2.4659 0.31388-3.1886 1.1162-0.2749 0.70497 0.8599 0.69886 1.3896 0.6894 1.8382-9e-3 3.7158 0.15336 5.5328-0.0785 0.75443-0.41941-0.16638-1.0171-0.65994-1.2147-0.90464-0.55324-2.0107-0.53506-3.0741-0.51245z" style="fill:#e6e6e6;stroke-width:.20134"/>
		<path id="path56" d="m261.51 129.41c-0.71425 0.0373-1.9846 0.30559-1.8395 1.0982 0.53152 0.56921 1.5743 0.25413 2.3193 0.33813 0.575 0.0692 1.8978-0.0571 1.3488-0.784-0.45436-0.41644-1.1668-0.64303-1.8286-0.6523z" style="fill:#e6e6e6;stroke-width:.20134"/>
	</g>
	<g id="kaspersky">
		<rect id="rect186" x="36.249" y="26.297" width="123.1" height="27.946" style="fill:#e6e6e6"/>
		<path id="path11" d="m70.282 27.398c-1.021 1.618-2.0845 6.2533-1.8718 8.2648 0.12762 1.0058 0.80826 3.1922 1.574 4.9414 1.6165 3.8045 1.6591 5.9909 0.25524 9.4893-0.97842 2.4488-0.97842 2.6238-0.29778 3.1485 1.2337 1.0058 1.7016 0.69967 2.68-1.9241 1.5314-3.8919 1.3613-8.1337-0.4254-12.332-1.6165-3.717-1.6165-5.8597 0-9.3581 0.89334-2.0116 0.89334-2.0553 0.12762-2.6675-1.106-0.83086-1.2337-0.83086-2.0419 0.43729z" style="stroke-width:.043131"/>
		<path id="path13" d="m111.46 27.398c-1.021 1.618-1.8718 4.8977-1.8718 7.3028 0 1.4431 0.46795 3.2797 1.3613 5.5099 1.6591 4.1106 1.7441 6.7343 0.34032 10.101-0.97842 2.2739-0.97842 2.3614-0.2127 2.9299 1.1911 0.91832 1.6165 0.56848 2.7651-2.2739 1.5314-3.8919 1.4464-7.3465-0.38286-11.501-1.2337-2.8424-1.4038-3.6295-1.1911-5.7285 0.0851-1.3556 0.59557-3.2797 1.0635-4.2417 0.8508-1.7054 0.8508-1.7929 0.12762-2.4926-0.97843-0.91832-1.1911-0.87459-1.9994 0.39356z" style="stroke-width:.043131"/>
		<path id="path15" d="m152.21 32.514c-1.021 0.52475-1.574 2.0553-1.2337 3.4109 0.17017 0.69967 0 0.87459-0.80826 0.87459-0.63809 0-1.021 0.26238-1.021 0.65594 0 0.52475 0.68064 0.65594 3.5734 0.65594h3.6159l0.0425-1.4431c0-0.7434 0-1.7929 0.0425-2.2302 0-1.7054-2.4248-2.8424-4.2115-1.9241z" style="stroke-width:.043131"/>
		<path id="path17" d="m80.96 33.214c-0.68064 0.7434-0.59556 0.91832 0.97842 2.4926l1.7016 1.7054-1.5314 1.618c-1.6165 1.7054-1.7016 2.7549-0.34032 3.3234 0.51048 0.17492 1.4038-0.48102 3.0629-2.2302l2.3397-2.4926-2.5099-2.6238c-1.3613-1.3993-2.595-2.58-2.7651-2.58-0.12762 0-0.55302 0.34984-0.93588 0.78713z" style="stroke-width:.043131"/>
		<path id="path19" d="m59.051 35.75c-0.93588 1.6617-2.5524 4.6353-3.6159 6.5594l-1.9143 3.5858 1.0635 0.48102c0.55302 0.26238 1.106 0.48102 1.1911 0.48102s1.1486-1.8804 2.3823-4.1543c1.1911-2.2739 2.3397-4.1543 2.5099-4.1543 0.2127 0 1.3613 1.8804 2.595 4.1543s2.4248 4.1543 2.68 4.1543 0.76572-0.26238 1.1486-0.56848c0.72318-0.52475 0.2127-1.618-5.8705-12.725-0.38286-0.7434-0.6381-0.48102-2.1696 2.1865z" style="stroke-width:.043131"/>
		<path id="path21" d="m101.8 33.651c-0.68065 0.7434-0.59556 0.87459 1.021 2.4488l1.7442 1.6617-1.5314 1.618c-0.8508 0.87459-1.5314 1.7492-1.5314 1.9241 0 0.30611 1.7016 2.7549 4.0838 5.9472 0.34032 0.48102 0.6381 0.48102 1.3613 0.08746 1.2337-0.69967 1.1911-1.0495-0.55303-3.4109-0.80826-1.0932-1.4889-2.2302-1.4889-2.4926 0-0.21865 0.68064-1.137 1.4464-2.0115l1.4889-1.5305-2.2972-2.5363c-1.2762-1.3556-2.5099-2.4926-2.68-2.4926-0.2127 0-0.68064 0.34983-1.0635 0.78713z" style="stroke-width:.043131"/>
		<path id="path23" d="m47.395 36.931-3.3181 3.5858 6.8064 6.9967 0.8508-0.87459 0.8508-0.91832-5.1048-5.1601 2.6375-2.7549c2.595-2.6675 2.595-2.7549 1.8292-3.6295-0.4254-0.48102-0.89334-0.87459-1.021-0.83086-0.12762 0.04373-1.7441 1.6617-3.5308 3.5858z" style="stroke-width:.043131"/>
		<path id="path25" d="m124.27 36.8-3.4032 3.4983 3.6159 3.717c3.5734 3.717 3.6159 3.717 4.4242 2.8424 0.85079-0.87459 0.85079-0.87459-1.8718-3.717-1.6165-1.7054-2.595-3.0173-2.3397-3.1922 0.25523-0.17492 1.4464-1.4431 2.7226-2.7987 1.9569-2.1427 2.2121-2.58 1.7442-3.1485-0.29778-0.39356-0.76572-0.69967-1.021-0.69967s-1.9994 1.5743-3.8712 3.4983z" style="stroke-width:.043131"/>
		<path id="path27" d="m131.58 34.088c-0.63811 0.7434-0.46794 1.0058 2.9353 4.4604l3.6584 3.717 3.3181-3.717c2.7226-3.0173 3.2331-3.8482 2.9353-4.4604-0.63809-1.2244-1.2336-0.96205-3.9988 1.8366l-2.595 2.6238-2.5099-2.6238c-1.4038-1.4431-2.6375-2.6238-2.8077-2.6238-0.12762 0-0.55303 0.34983-0.93588 0.78713z" style="stroke-width:.043131"/>
		<path id="path29" d="m40.674 40.475v6.6906l1.1911-0.04373 1.1486-0.04373 0.12762-6.6906 0.12762-6.6469h-2.595z" style="stroke-width:.043131"/>
		<path id="path31" d="m76.408 40.3v6.5594h2.5524v-13.119h-2.5524z" style="stroke-width:.043131"/>
		<path id="path33" d="m97.252 40.3v6.5594h2.5524v-13.119h-2.5524z" style="stroke-width:.043131"/>
		<path id="path35" d="m117.67 40.3v6.5594h2.5524v-13.119h-2.5524z" style="stroke-width:.043131"/>
		<path id="path37" d="m150.94 41.48c-0.0851 2.1865 0.38286 3.0611 1.9143 3.6733 1.9994 0.7434 4.5518-1.8804 3.4883-3.5858-0.21269-0.34983-0.25522-0.96204-0.1276-1.3993 0.21269-0.65594-0.0851-0.7434-2.4673-0.7434h-2.7226z" style="stroke-width:.043131"/>
	</g>
	<g id="debian">
		<path id="path1" d="m60.372 148c-2.7456 0.89768-8.8634 3.9748-11.718 5.9386-1.2664 0.84901-2.488 1.6064-2.7883 1.6588-1.2008 0.20953-7.0527 6.6737-8.3741 9.2068-0.7687 1.5159-1.89 3.1352-2.4141 3.6452-0.47163 0.45912-1.5012 2.5648-2.1554 4.6889-1.1674 3.6789-1.1587 4.0544 0.01736 10.297 1.4128 7.4998 3.0083 11.032 6.8961 15.211 4.1367 4.5122 7.0566 6.5152 13.554 9.4008 8.7383 3.9189 17.153 5.4655 24.847 4.5001 2.1167-0.28553 3.2575-0.48456 2.5741-0.49094-4.5282-6e-3 -7.1949-0.33588-8.5562-0.97771-0.88745-0.43138-1.9322-0.7097-2.4124-0.62591-0.90063 0.15713-5.0937-0.7025-4.7188-1.019 0.16485-0.11249-1.5872-0.8536-3.8499-1.6731-2.3152-0.7685-4.2102-1.6103-4.2408-1.7724-0.03821-0.20269-0.95618-0.79626-2.0543-1.3583-1.0905-0.52154-2.6634-1.6289-3.4994-2.4461-3.9545-3.8741-4.8222-5.1883-3.4544-4.8406 0.38316 0.0587 0.11904-0.35574-0.55118-0.95063-0.67783-0.63542-1.896-1.1766-2.7748-1.2326-2.8993-0.24786-4.9915-4.1119-6.4052-11.947-0.9022-5.1184-0.88902-5.7069 0.19199-8.1985 0.65622-1.4543 1.2219-3.0604 1.1903-3.5574 0.0166-1.8871 6.9417-8.5804 10.024-9.6626 0.69757-0.2473 1.3417-0.77841 1.4455-1.2152 0.14748-0.86314 3.4532-2.7378 5.4944-3.0941 0.72051-0.1257 1.1178-0.32065 0.91483-0.41084-0.27072-0.12024 0.98804-1.0098 2.7871-1.9936 3.0884-1.7112 3.4411-1.8146 10.729-2.9605 6.7477-1.0516 7.9112-1.129 11.472-0.66154 6.9864 0.87477 14.359 5.1156 16.904 9.7379 1.3064 2.3263 2.8098 9.9779 2.2812 11.451-0.19331 0.61994-0.77634 1.4753-1.2632 1.8534-0.48689 0.37806-0.79264 1.0594-0.7163 1.4649 0.19094 1.0134-3.5384 4.2601-7.4062 6.4423-4.6551 2.6126-10.921 3.9151-15.33 3.2191-3.3884-0.53939-7.374-2.2726-9.3918-4.0979-2.0183-1.8252-3.3202-5.1154-2.952-7.4406 0.90565-5.7269 9.8938-10.686 17.744-9.8366l3.1024 0.33806-1.9245-0.66917c-5.6381-1.9474-12.887-0.26409-17.153 4.0811-4.4916 4.4683-5.5412 9.7596-2.8038 13.428 1.4778 1.9195 5.3149 4.181 9.276 5.458 8.1031 2.5223 19.193-0.1662 26.931-6.4987 1.5055-1.2257 2.6955-2.48 2.6421-2.764 7e-3 -0.29427 0.54483-1.0581 1.2338-1.6808 1.4826-1.3473 2.5275-3.372 2.7843-5.3009 0.0427-0.76112 0.43688-1.9604 0.74261-2.6418 0.91722-2.0442 1.0713-3.2016 0.35077-3.0761-0.36026 0.0628-0.71497-0.50334-0.85244-1.233-0.64911-3.4459-1.4589-5.4399-2.5341-5.8805-1.5642-0.73203-1.6121-1.6448-0.11113-1.9067 0.72051-0.12568 1.442 0.0834 1.7138 0.53842 0.80766 1.3246 1.4813 0.62088 0.92802-0.9993-0.72788-2.2178-6.2819-6.0222-10.972-7.5486-2.0445-0.64822-4.1186-1.1238-4.6588-1.0296-0.54038 0.0943-1.5096-0.11344-2.2618-0.4847-0.95512-0.46144-1.7061-0.49791-2.9965-0.10529-0.93777 0.28922-2.0261 0.43721-2.4169 0.33792-2.3752-0.75799-6.8281-0.69299-12.307 0.17913-3.43 0.55652-6.2376 0.79512-6.7116 0.58467-0.81214-0.36076-0.99226-0.32933-4.038 0.62075z" style="stroke-width:.3389"/>
		<path id="path1090" transform="matrix(.94791 0 0 .80674 5.6278 10.879)" d="m102.18 206.69-23.183 42.932" style="opacity:0;stroke-width:.75px"/>
		<path id="path1094" d="m79.074 150.98c-4.5366 0.16904-8.9872 1.0644-13.419 1.8466-3.0377 0.55912-5.7409 2.0315-8.0384 3.7634-0.21764 0.31199-0.35804 0.64162-0.8733 0.65358-2.2084 0.45029-4.3219 1.5324-5.6975 3.0815-0.93116 1.4126-3.0021 1.8022-4.2756 2.9491-2.6915 2.0871-5.2297 4.4143-6.9809 7.1488-0.55466 1.4397-0.83496 2.9558-1.5015 4.373-1.0066 2.0921-1.011 4.392-0.55985 6.5885 0.7206 3.9466 1.3186 8.0534 3.5519 11.628 0.80793 1.3181 2.302 2.3538 4.0708 2.4976 0.9636 0.30871 1.8278 0.89273 2.435 1.5772-0.72477-0.0431-0.77335 0.66567-0.35531 1.0114 2.2154 2.8112 4.8492 5.4805 8.3101 7.2259 1.0639 0.76514 2.1505 1.5131 3.4842 1.9233 1.8779 0.74891 3.8871 1.3166 5.614 2.2748 0.98875 0.78992 2.5258 0.82549 3.7975 1.0735 1.7342 0.037 3.3081 0.59109 4.928 1.0777 2.2461 0.4833 4.6603 0.7374 6.9361 0.43783 6.6296-10.48 13.371-20.913 19.848-31.461-0.12269-0.88359-1.1881-0.0496-1.5501 0.24372-4.648 3.5077-10.494 5.8946-16.663 6.5408-3.8469 0.30396-7.8535 0.0123-11.321-1.5996-2.955-1.3302-6.1509-2.8875-7.5897-5.6022-1.8516-3.7197-0.24174-7.9866 2.5104-11.091 2.8009-3.3025 7.2957-5.5898 12.124-5.7507 1.8517-0.11207 4.0301 0.17486 5.559 0.73007-4.7007-0.61188-9.6057 0.4783-13.406 2.8972-3.1852 2.0121-6.0584 5.1538-5.5877 8.7204 0.33539 3.1038 2.3795 6.0828 5.5956 7.6412 2.9049 1.525 6.2241 2.7923 9.7172 2.5722 5.6105 0.0537 11.005-2.0405 15.299-5.0072 1.74-1.3482 3.7158-2.6357 4.812-4.4473 0.14506-0.74354 0.31784-1.5118 1.0147-2.0488 0.9608-1.0044 1.4663-2.2901 1.1877-3.5821-0.34682-3.2131-0.94514-6.4517-2.2436-9.4931-2.1725-3.9662-6.542-6.7346-11.097-8.5506-3.0149-1.153-6.3232-1.841-9.6362-1.8434z" style="opacity:0;stroke-width:.076077"/>
	</g>
	<g id="windows">
		<path id="path1_" d="m75.778 71.513c-0.34558 0-0.24796 0.10554 0.23288 0.31635 0.57096 0.25766 0.63102 0.32794 0.24035 0.35135-0.3005 0-0.54057 0.14063-0.54057 0.32804 0 0.18739-0.24062 0.3981-0.5111 0.46838-0.45075 0.14054-0.45086 0.21072-0.09024 0.37469 0.36061 0.16398 0.36061 0.30456 0 0.86672-0.45075 0.72614-0.54064 0.98403-0.751 2.2255-0.09016 0.49191-0.42088 1.2647-0.75145 1.7098-0.33055 0.46848-0.60088 1.2416-0.60088 1.7335s-0.18043 1.0305-0.42084 1.1711c-0.24043 0.16397-0.4509 0.46858-0.42084 0.6794 0 0.21081-0.24017 0.98372-0.51062 1.6865-0.27047 0.7027-0.63142 1.7569-0.81173 2.3425-0.18031 0.5856-0.42035 1.1475-0.54057 1.2881-0.12021 0.11712-0.45094 1.0775-0.75142 2.1082-0.30052 1.0306-0.57104 1.9676-0.66119 2.1082-0.21037 0.42161-0.84123 1.2181-1.292 1.6631-0.39066 0.37478-0.39104 0.39823 0.08979 0.25769 0.27047-0.07027 0.5111-0.04676 0.5111 0.07034 0 0.14054-0.18022 0.23428-0.36053 0.25769-0.21035 0 0.06007 0.1405 0.57093 0.28104 0.81139 0.23425 0.09002 0.28126-4.3578 0.30469-4.5977 0-5.7998 0.0937-8.8351 0.60904-3.6362 0.63248-8.0539 1.8036-8.0539 2.1315 0 0.49194 1.1721 0.35133 4.598-0.51535 3.7863-0.96036 7.0623-1.4991 10.909-1.7801 3.8765-0.3045 9.1354 0.81973 13.703 2.9279 1.0818 0.51532 2.1939 0.93705 2.4343 0.93705 0.66112 0 0.72113-0.09377 5.4392-12.883 1.4124-3.7947 2.8248-7.5893 3.1554-8.4326l0.63124-1.5225-0.84168-0.53871c-1.4124-0.91352-6.8514-2.8579-8.9852-3.2092-1.2922-0.21082-2.0813-0.31635-2.4269-0.31635zm16.079 6.3317c-0.33782-0.04982-0.73756 0.81868-1.8119 3.6353-0.78133 2.0379-2.6145 7.027-4.1473 11.08-2.4642 6.6994-3.2756 8.5262-3.2756 7.4722 0-0.21081 0.21036-0.89001 0.45075-1.5224 0.63109-1.6397 0.51091-2.1084-0.12018-0.56239-1.1419 2.6705-1.1422 2.6705 0.39048 3.5135 3.2756 1.7334 8.8657 3.3028 13.553 3.7712 3.1254 0.32792 7.2724 0.0937 11.419-0.60906 3.2756-0.5856 8.2041-1.8035 8.5647-2.1548 0.12019-0.11712 1.0516-2.5064 2.0734-5.3407 1.0518-2.8343 2.1338-5.7858 2.4343-6.5588 0.51087-1.3352 0.99187-2.5766 2.4344-6.5119 0.33055-0.91352 0.81113-2.2253 1.0816-2.9046 0.24043-0.67929 0.39081-1.382 0.30067-1.5928-0.30052-0.5856-1.0821-0.39827-1.2925 0.28102-0.0901 0.37479-0.87152 2.3894-1.6829 4.5209-0.8114 2.1316-1.7729 4.6614-2.0734 5.6217-0.7513 2.2019-0.87129 2.5297-2.1936 6.0901-0.60103 1.6162-1.3227 3.5371-1.5931 4.2866-0.48082 1.3118-0.57082 1.4054-2.0734 1.9442-0.87152 0.30451-1.863 0.56204-2.1936 0.56204-0.30051 0-0.63146 0.0939-0.69155 0.21102-0.15026 0.32792-6.401 1.4286-9.2557 1.6394-2.6746 0.18741-6.6112 2.6e-4 -8.8049-0.42132-2.8248-0.53876-7.6628-2.3658-6.2506-2.3658 0.18032 0 0.33059 0.0936 0.33059 0.21067 0 0.1171 0.3304 0.25787 0.72105 0.30469 0.5409 0.0937 0.84156-0.0472 1.2022-0.53905 0.27048-0.35135 0.4807-0.79613 0.4807-1.0304 0-0.21081 0.21024-0.70298 0.4807-1.0778 0.24041-0.3982 0.57122-1.2179 0.7215-1.8035 0.39066-1.7568 1.322-4.1225 1.6525-4.3099 0.15026-0.09366 0.30054-0.35145 0.33059-0.5857 0.06008-0.72614 1.7129-5.8091 1.9233-5.926 0.12021-0.07027 0.48096-0.9369 0.75145-1.9441 0.30051-0.9838 0.63124-1.8038 0.75145-1.8038 0.09016 0 0.11999-0.44499 0.05989-0.98375-0.1202-0.79642-0.06007-0.93685 0.3306-0.81973 0.27047 0.07028 0.57104 0.04678 0.66119-0.07033 0.09015-0.0937-0.0301-0.25784-0.21042-0.30469-0.24041-0.07028-0.18044-0.14034 0.15012-0.14034 0.90154-0.02343 0.36067-0.39825-2.4942-1.6631-1.4725-0.65586-2.7646-1.2886-2.8547-1.4291-0.07888-0.09662-0.15359-0.15698-0.23155-0.16847zm-38.638 2.6471c-0.04665-0.0081-0.09183 0.03363-0.13691 0.12147-0.12021 0.18739-0.66104 1.7101-1.2621 3.3966-0.57096 1.6631-1.3223 3.7245-1.6829 4.5676-0.42073 1.0072-0.54105 1.5225-0.30066 1.5928 0.42073 0.11712 0.45064 0.74937 0.02991 0.74937-0.15026 0-0.30023-0.11703-0.30023-0.28102 0-0.46848-0.33085-0.02341-0.60133 0.79639-0.15026 0.42163-0.5409 1.5929-0.90154 2.6235-0.36061 1.0072-0.57085 1.8975-0.4807 1.9678 0.1202 0.07024 0.18047-0.04685 0.18047-0.25769 0-0.23424 0.15029-0.39835 0.33061-0.39835 0.15025 0 0.21033 0.09382 0.12018 0.23436-0.09016 0.11714-0.03021 0.23403 0.15011 0.23403 0.21035 0 0.27031-0.18737 0.1501-0.53873-0.27046-0.63247-0.27046-0.63232 0-1.2647 0.12021-0.28112 0.39096-0.44522 0.60133-0.39835 0.2404 0.09367 0.42035-0.25751 0.54057-1.1008 0.1202-0.65586 0.33078-1.3351 0.5111-1.4991 0.15024-0.14054 0.39055-0.93706 0.4807-1.7335 0.1202-0.77298 0.33076-1.4288 0.51106-1.4288 0.15026 0 0.21045-0.25764 0.09025-0.53871-0.09016-0.32794 0.02984-0.74976 0.27029-1.0074 0.24041-0.23424 0.45075-0.84319 0.45075-1.3351 0-0.63245 0.12009-0.86673 0.4807-0.86673 0.33057 0 0.42099-0.14043 0.27074-0.46838-0.27047-0.65586 0.18007-1.1714 0.51065-0.56237 0.18032 0.35135 0.21053 0.30451 0.18048-0.25769-0.03003-0.3982 0-0.81962 0.09025-0.93675 0.09015-0.14055 0.05977-0.5623-0.03036-0.93706-0.0939-0.30746-0.17579-0.45932-0.25356-0.47284zm14.588 17.713c-0.54094 0.02339-0.57096 0.04701-0.12019 0.14069 0.36062 0.07024 0.51099 0.25761 0.42084 0.53868-0.09017 0.30451 0 0.39841 0.27073 0.30469 0.27045-0.07024 0.06007 0.3512-0.45075 1.0071-0.57096 0.72617-1.1421 1.9909-1.5328 3.373-0.36061 1.218-0.7513 2.2722-0.90154 2.3425-0.15026 0.0702-0.33068 0.39822-0.42084 0.70273-0.63109 2.5766-1.0818 3.865-1.3523 3.9353-0.18031 0.0469-0.3306 0.53869-0.3306 1.0774 0 0.53876-0.12003 1.0776-0.27028 1.2181-0.33057 0.25764-1.4424 3.1387-1.7129 4.4035-0.09015 0.51533-0.36092 1.1479-0.60133 1.4525-0.36061 0.42164-0.36039 0.53869-0.05989 0.63235 0.30052 0.0937 0.30039 0.14036 0.02991 0.14036-0.21036 0.0234-0.39048 0.18763-0.39048 0.37504 0 0.18738-0.24062 0.35125-0.51106 0.37469-0.42073 0-0.45086 0.047-0.09024 0.14068 1.3222 0.39823 4.2374 1.5458 4.1171 1.6161-0.06014 0.0702-0.84145-0.0936-1.6829-0.3747-5.349-1.6397-12.712-1.4291-20.916 0.58537-2.8549 0.70273-2.885 0.70296-2.0135 0.11735 0.39066-0.25769 1.142-0.51548 1.6829-0.58573 1.0518-0.16394 1.3825-0.8197 0.42084-0.8197-0.30051 0-0.54101-0.11725-0.54101-0.23439 0-0.14053 0.27075-0.23435 0.60132-0.23435 0.75127 0 1.0817-0.5856 0.60088-1.0541-0.27046-0.23424-0.27035-0.35137-0.02991-0.35137 0.1803 0 0.3306-0.21078 0.3306-0.44502 0-0.25769 0.14996-0.53881 0.30021-0.60906 0.18032-0.0937 0.24071-0.25759 0.15056-0.37469-0.12021-0.1171-0.06014-0.2107 0.12019-0.2107 0.15024 0 0.3904-0.46845 0.51062-1.0541 0.09015-0.58561 0.33045-1.0541 0.4807-1.0541 0.18031 0 0.21046-0.37492 0.09025-0.93708-0.15025-0.74958-0.12026-0.93709 0.24034-0.93709 0.30053 0 0.54098-0.42148 0.78137-1.3584 0.66112-2.6469 0.84171-3.2089 1.1723-3.7243 0.21038-0.28107 0.27033-0.67948 0.15012-0.91372-0.1202-0.28108-0.0903-0.35149 0.15011-0.23436 0.33056 0.16394 0.4509-0.0702 0.75145-1.4992 0.1803-0.86667 0.33077-1.2649 0.51106-1.4054 0.39066-0.28108 0.90135-1.4523 0.72105-1.6631-0.09015-0.14054-0.02984-0.37468 0.18048-0.56204 0.24042-0.23425 0.24042-0.35125 0-0.46838-0.24042-0.1171-0.15043-0.28122 0.27028-0.49204 0.33057-0.18737 0.54079-0.5154 0.4807-0.77309-0.06007-0.30448 0.18054-0.56194 0.84168-0.84301l0.9614-0.37504-0.9614 0.14065c-0.5409 0.09371-1.743 0.3749-2.7046 0.6794-1.2621 0.3748-1.773 0.65579-1.9233 1.0774-0.1202 0.32794-0.57096 1.5227-1.0217 2.6938-0.42073 1.1478-1.6528 4.4268-2.7046 7.2611-1.0518 2.8343-2.4643 6.6291-3.1255 8.4093-1.3523 3.5371-1.4725 4.2399-0.78137 4.4273 0.24042 0.0937 1.743-0.21102 3.3658-0.65603 7.0019-1.8739 13.283-2.4362 17.67-1.5695 2.8549 0.56219 5.2589 1.3588 8.0536 2.6705 2.5544 1.1946 2.6144 1.1477 3.8467-2.1785 2.2539-6.1606 6.1004-16.42 6.7617-18.083 0.39066-1.0073 0.66112-1.9207 0.57093-2.0378-0.69118-0.84326-8.8955-3.7948-10.458-3.7245zm14.602 5.4286c-0.07137 0.0119-0.08672 0.0995-0.08672 0.2635 0 0.21081-0.24038 0.98399-0.57093 1.7101-0.48085 1.1946-1.2922 3.3261-3.6062 9.6742-0.30052 0.84326-0.84116 2.2953-1.2018 3.2089-0.33056 0.93698-0.90188 2.483-1.2625 3.3966-0.33056 0.93698-0.81124 2.1316-1.0517 2.6469-0.24041 0.53876-0.42084 1.1243-0.42084 1.3351 0 0.18741-0.30057 0.44509-0.66119 0.5154-0.66112 0.14054-0.6008 0.18755 0.5111 0.7497 3.9666 1.9442 8.3244 3.1856 13.283 3.7712 2.9751 0.35138 3.8768 0.35128 6.6413 0.11703 4.0869-0.37479 6.7013-0.79663 10.278-1.7102 3.3056-0.84324 3.5158-0.9369 3.8765-1.9442 0.15025-0.39821 1.0217-2.7407 1.9233-5.1768 0.9316-2.4595 2.0135-5.4107 2.4643-6.5586 3.8165-10.025 3.8765-10.213 3.3958-10.447-0.21035-0.11714-0.45076-0.11703-0.57093-0.0234-0.15027 0.14057-2.4338 6.1837-4.0266 10.704-1.1119 3.092-4.3578 11.665-4.4177 11.712-0.0601 0-1.5626 0.46836-3.3958 1.0071-9.7064 2.8343-18.421 2.6705-25.724-0.53873-0.99169-0.44507-1.9535-0.81973-2.1037-0.81973-0.15025 0-0.27028-0.11721-0.27028-0.23435 0-0.14054-0.21037-0.23435-0.45079-0.23435-0.24042 0-0.45075-0.11689-0.45075-0.23403 0-0.1405 0.12002-0.23432 0.27029-0.23432 0.1803 0 0.391 0.0938 0.48115 0.23432 0.09016 0.11714 0.45049 0.23403 0.751 0.23403 0.30051 0 0.60095 0.14083 0.69114 0.28137 0.15024 0.42164 1.112-0.21105 1.112-0.72639 0-0.21085 0.12046-0.49196 0.27073-0.60907 0.12021-0.14053 0.42058-0.77295 0.60088-1.4054 0.21037-0.6559 0.481-1.3818 0.63128-1.6394 0.27047-0.53876 1.0517-2.5065 1.0517-2.6938 0-0.0702 0.0902-0.23424 0.21042-0.35137 0.2404-0.30451 1.1419-3.6776 1.1419-4.3099 0-0.23425 0.21037-0.49205 0.45079-0.58573 0.30051-0.0937 0.45079-0.46828 0.45079-1.1944s0.18027-1.2182 0.57093-1.5461c0.36061-0.30451 0.63124-0.98367 0.75145-1.9675 0.24041-1.8505 0.42035-2.2255 0.99136-2.2255 0.33056 0 0.39092-0.16372 0.27073-0.58537-0.12021-0.37479 0-0.79663 0.30066-1.1714 0.30051-0.35138 0.36047-0.58537 0.15011-0.58537-0.18031 0-0.60103-0.18749-0.90154-0.42169-0.33056-0.21084-0.78144-0.5153-0.99177-0.63239-0.21037-0.14054-0.63098-0.375-0.93149-0.56238-0.2254-0.14058-0.35298-0.2049-0.42438-0.19317z" style="stroke-width:.026532"/>
		<path id="path61" d="m94.292 79.966c3.1238 1.1131 6.4731 1.8654 9.8956 2.2224 2.8648 0.29885 5.7863 0.32101 8.6468 0 2.6053-0.29236 5.1435-0.86629 7.6093-1.5653 1.6443-0.46618 3.2606-0.98869 4.8422-1.5653" style="enable-background:new;fill:none;stroke-width:.21496px;stroke:#000"/>
		<path id="path159" d="m53.081 80.613 2.1724-6.2104" style="fill:none;stroke-width:.21496px;stroke:#000"/>
		<path id="path163" d="m75.778 71.513c-3.7096-0.35915-7.513-0.25454-11.169 0.30717-3.2934 0.50599-6.4662 1.3819-9.3548 2.5828" style="fill:none;stroke-width:.21496px;stroke:#000"/>
		<path id="path192" d="m123.15 79.981c-4.96 1.2633-9.9555 2.5965-15.181 2.2441-3.6926 0.26343-7.2832-0.94736-10.927-0.81194-1.3371 0.39824-0.32913 2.0303-1.116 2.8824-1.9573 5.3277-3.7782 10.683-6.0031 15.934-0.42662 1.0272-1.6237 2.7937 0.27848 3.2116 4.59 1.9667 9.8166 0.99813 14.695 0.87059 3.5342-0.49828 7.5568-0.69542 10.498-2.6644 3.4053-6.5175 5.4159-13.575 7.9482-20.399 0.0325-0.35792 0.66519-1.2621-0.19212-1.2675z" style="fill:#e6e6e6"/>
		<path id="path194" d="m70.364 71.434c-5.0219 0.24623-10.439 0.71376-14.754 3.1921-1.9753 2.4343-1.9568 5.8099-2.4492 8.4923-0.87801 0.27847-0.70781 1.4768-1.3098 2.0862-1.2453 2.6643-1.2772 5.7878-2.8034 8.2961-1.2536 0.62898-1.0514 3.4127 0.80561 2.4839 5.7007-1.8971 11.91-1.1264 17.779-2.0591 0.05852-0.91107 0.61472-1.9461 1.3332-2.7974 1.9819-5.532 4.1976-11.062 5.9919-16.665-0.15909-0.97912 0.57197-1.5384 0.93976-2.2802-1.0252-1.2646-4.0493-0.51-5.5333-0.74879z" style="fill:#e6e6e6"/>
		<path id="path1020" transform="matrix(.86907 0 0 .78216 13.387 15.032)" d="m63.116 106.56c-3.34-0.59381-6.7465-0.81311-10.135-0.65248-3.803 0.18028-7.5831 0.8396-11.223 1.9574" style="fill:none;stroke-width:.225;stroke:#000"/>
		<path id="path1024" transform="matrix(.86907 0 0 .78216 13.387 15.032)" d="m83.047 115.85c2.58 0.9189 5.2378 1.6194 7.9356 2.0915 8.8054 1.541 18.033 0.59313 26.341-2.706" style="fill:none;stroke-width:.375;stroke:#000"/>
		<path id="path1036" d="m60.549 97.748c-3.6008 0.18101-7.4144 0.30149-10.694 1.7881-0.72792 0.42059-0.92168 1.2461-1.2885 1.8949 0.1691 0.53785-0.44273 0.90005-0.34374 1.4799-0.65375 1.2805-1.1899 2.6027-1.5504 3.9763-0.46006 0.41565-0.60876 0.95377-0.73677 1.5344-0.83145 1.7174-0.83025 3.7335-2.0366 5.2934-0.28041 1.2766-0.47343 2.7214-1.347 3.7552 0.13997 0.57164-0.68583 0.9962-0.5438 1.6431 0.05021 0.53253 0.01537 1.0363-0.45359 1.3683-0.08155 0.45148 0.10537 0.86694-0.32704 1.2089-0.1404 0.94471 1.2566 0.4156 1.7846 0.29597 5.4528-1.173 11.124-1.5907 16.688-0.81359 0.58575 0.43607 1.6952-0.1858 0.89423-0.69879-0.93976-0.17363 0.46394-0.61113 0.1867-1.1935 0.62807-1.365 1.1104-2.9218 1.616-4.38 0.59467-1.39 1.2173-2.7753 1.4856-4.2435 1.0095-1.8445 1.2178-3.953 2.2583-5.7794 0.51347-1.859 1.4766-3.5698 2.225-5.3438 0.35421-0.88787-0.61799-1.5701-1.5487-1.4585-2.0808-0.21645-4.1723-0.38235-6.2692-0.32741z" style="fill-opacity:.96133;fill:#ccc;stroke-linecap:round;stroke-linejoin:round;stroke-width:.10144;stroke:#79afaf"/>
		<path id="path1038" d="m114.75 105.45c-4.007 1.0836-8.0257 2.0078-12.226 2.1776-5.417 0.33452-10.894-0.23823-16.084-1.7231-0.85237-0.4019-1.5708 0.32091-1.403 1.0796 0.24562 0.74401-0.89089 0.6711-0.91553 1.3645-0.46705 1.3269-0.46635 2.8097-1.3595 3.9872-0.34662 0.95114-0.35552 2.0003-1.0705 2.8035-1.0466 3.7681-2.4119 7.4643-4.0572 11.032 0.1295 0.7099-1.4231 0.9162-0.75013 1.6081 3.7002 1.7923 7.9166 2.7878 12.115 2.9605 6.1551 0.26159 12.179-1.2023 17.954-2.9665 1.2293-2.426 1.9515-5.1362 2.9867-7.6711 1.7448-4.7761 3.5937-9.5263 5.208-14.338-0.0233-0.19099-0.17897-0.34519-0.39845-0.31425z" style="fill-opacity:.96133;fill:#e6e6e6;stroke-linecap:round;stroke-linejoin:round;stroke-width:.10144;stroke:#79afaf"/>
	</g>
</svg>
