<?xml version="1.0" standalone="no"?>
<!DOCTYPE svg PUBLIC "-//W3C//DTD SVG 20010904//EN"
 "http://www.w3.org/TR/2001/REC-SVG-20010904/DTD/svg10.dtd">
<svg version="1.0" xmlns="http://www.w3.org/2000/svg"
 width="536.000000pt" height="507.000000pt" viewBox="0 0 536.000000 507.000000"
 preserveAspectRatio="xMidYMid meet">
<metadata>
Created by potrace 1.15, written by Peter Selinger 2001-2017
</metadata>
<g transform="translate(0.000000,507.000000) scale(0.100000,-0.100000)"
fill="#000000" stroke="none">
<path d="M1014 4907 c-2 -7 -3 -98 -2 -202 l3 -190 30 0 30 0 -3 75 c-5 91 4
86 48 -32 33 -89 37 -93 78 -82 l22 6 -2 212 -3 211 -33 3 -34 3 7 -90 c4 -51
4 -91 -1 -91 -5 0 -24 40 -42 89 -26 68 -39 91 -55 95 -32 8 -37 7 -43 -7z"/>
<path d="M4370 4899 c-45 -27 -50 -36 -50 -84 0 -36 6 -45 75 -111 41 -39 75
-77 75 -82 0 -6 -10 -18 -22 -26 -24 -17 -46 -10 -90 32 l-28 26 0 -61 c0 -57
2 -63 30 -83 68 -48 153 -32 185 36 31 66 9 123 -71 184 -81 61 -70 90 34 90
l42 0 0 50 0 50 -72 0 c-57 0 -81 -5 -108 -21z"/>
<path d="M4582 4721 c2 -110 6 -203 11 -207 4 -4 42 -1 85 7 l77 14 3 54 3 53
-60 -7 c-57 -7 -61 -6 -61 14 0 14 8 22 25 26 14 3 36 7 50 10 22 5 25 11 25
45 0 38 -1 39 -37 42 -30 2 -38 7 -38 23 0 17 8 21 50 25 l50 5 3 48 3 47 -96
0 -96 0 3 -199z"/>
<path d="M1902 4679 l3 -234 30 0 30 0 -3 90 c-5 107 4 104 43 -15 39 -121 39
-121 75 -108 l30 10 0 239 0 239 -33 0 -33 0 4 -107 c4 -125 -2 -124 -49 15
-24 71 -35 92 -49 92 -10 0 -26 3 -34 6 -15 6 -16 -17 -14 -227z"/>
<path d="M2418 4890 c-45 -24 -58 -46 -58 -100 0 -52 17 -85 86 -162 45 -50
54 -67 52 -92 -2 -24 -8 -32 -28 -34 -18 -3 -33 6 -62 40 l-37 43 0 -70 c0
-74 4 -83 57 -128 42 -34 81 -35 121 -1 65 55 61 164 -11 254 -22 27 -44 50
-49 50 -4 0 -16 14 -25 32 -15 30 -15 32 2 45 10 7 42 13 71 13 l54 0 -3 63
-3 62 -65 2 c-49 2 -74 -2 -102 -17z"/>
<path d="M563 4893 c-10 -3 -13 -49 -13 -179 l0 -174 24 -6 c53 -13 61 -4 58
63 l-4 62 39 3 c37 3 38 4 41 46 l3 42 -44 0 c-29 0 -47 5 -50 14 -8 21 2 26
59 26 57 0 64 8 64 78 l0 32 -82 -1 c-46 0 -89 -3 -95 -6z"/>
<path d="M2140 4777 c0 -68 3 -185 7 -260 l6 -137 84 0 84 0 -3 73 -3 72 -51
-2 c-49 -3 -52 -1 -57 25 -7 38 -2 42 49 42 24 0 45 3 45 8 7 34 5 89 -4 100
-5 6 -22 12 -38 12 -33 0 -40 9 -32 38 4 17 14 22 52 24 l46 3 3 63 3 62 -96
0 -95 0 0 -123z"/>
<path d="M2994 4643 c3 -142 10 -260 14 -263 4 -3 41 -4 82 -1 l75 6 3 74 3
74 -55 -6 c-49 -5 -56 -3 -61 14 -10 30 13 49 56 49 21 0 41 4 44 10 3 5 3 32
-1 59 -6 49 -7 50 -43 53 -31 3 -36 6 -36 28 0 23 5 25 50 30 l50 5 3 63 3 62
-97 0 -97 0 7 -257z"/>
<path d="M905 4878 c-3 -7 -6 -78 -7 -158 l-3 -145 -25 0 -25 0 0 140 0 140
-37 3 -36 3 -8 -98 c-14 -191 23 -283 115 -283 72 0 100 63 100 220 0 58 -3
123 -7 145 -6 34 -11 40 -35 43 -16 2 -29 -2 -32 -10z"/>
<path d="M3240 4881 l-35 -6 0 -217 c0 -119 3 -220 7 -224 4 -3 38 -3 75 2
l68 9 3 69 c3 74 3 75 -63 50 -16 -6 -16 6 -10 160 5 95 4 165 -1 165 -5 -1
-25 -4 -44 -8z"/>
<path d="M3541 4883 l-24 -5 7 -221 c4 -122 11 -226 15 -230 4 -4 20 -3 36 3
l28 11 -6 74 c-3 41 -2 75 3 75 4 0 14 -38 20 -84 16 -102 20 -112 48 -97 14
8 21 25 26 66 3 30 9 80 12 111 9 75 20 52 29 -59 6 -83 8 -88 28 -85 21 3 22
9 25 98 1 52 -1 149 -5 215 l-8 120 -32 3 c-34 3 -32 9 -64 -158 -6 -36 -15
-69 -19 -73 -5 -5 -21 47 -37 114 -30 129 -32 132 -82 122z"/>
<path d="M1320 4866 c-97 -53 -107 -301 -15 -393 62 -62 138 -36 166 58 16 52
7 69 -36 69 -29 0 -35 -4 -35 -20 0 -25 -21 -34 -55 -26 -24 6 -25 8 -25 101
l0 95 40 0 c36 0 40 -2 40 -26 0 -23 3 -25 37 -22 48 4 52 22 20 92 -17 37
-35 60 -56 70 -36 19 -48 19 -81 2z"/>
<path d="M2758 4869 c-16 -9 -18 -32 -18 -244 l0 -235 43 0 c65 0 114 18 137
49 70 99 61 332 -17 413 -22 24 -35 28 -77 28 -28 0 -59 -5 -68 -11z m122
-224 l0 -125 -35 0 -35 0 0 113 c0 120 6 137 47 137 23 0 23 -1 23 -125z"/>
<path d="M3888 4865 c-14 -8 -37 -36 -49 -62 -20 -39 -24 -64 -24 -138 0 -143
43 -225 119 -225 119 0 160 309 54 407 -31 29 -67 36 -100 18z m80 -212 l-3
-98 -37 -3 -38 -3 0 100 0 101 40 0 41 0 -3 -97z"/>
<path d="M4210 4716 l0 -164 -25 -4 c-14 -3 -28 -1 -31 4 -3 5 -4 73 -2 151
l3 142 -36 3 -36 3 -7 -118 c-10 -176 11 -261 68 -283 49 -18 97 10 127 75 15
32 19 65 19 166 0 70 -3 141 -6 158 -6 27 -10 31 -40 31 l-34 0 0 -164z"/>
<path d="M1704 4855 c-53 -36 -85 -179 -64 -280 23 -112 64 -165 126 -165 61
0 104 94 104 225 0 170 -83 279 -166 220z m86 -221 l0 -105 -37 3 -38 3 -3 89
c-2 49 -1 95 2 103 3 7 21 13 41 13 l35 0 0 -106z"/>
<path d="M1515 4588 c4 -73 11 -137 15 -141 4 -5 20 -7 36 -5 28 3 29 6 36 68
3 36 7 97 9 135 l2 70 -52 3 -53 3 7 -133z"/>
<path d="M2344 4118 c-28 -13 -46 -53 -38 -84 4 -14 23 -36 45 -50 58 -36 46
-84 -20 -84 -22 0 -27 -16 -12 -38 14 -22 77 -4 106 30 38 46 28 96 -25 118
-63 26 -59 74 6 68 33 -3 39 0 42 18 5 32 -58 45 -104 22z"/>
<path d="M2811 4036 c-71 -40 -64 -150 12 -175 42 -14 76 -3 106 35 36 45 21
113 -30 140 -34 17 -57 17 -88 0z"/>
<path d="M410 3855 l0 -135 78 0 c69 0 81 3 99 23 30 32 35 58 18 91 -13 24
-13 35 -3 63 22 62 -19 93 -124 93 l-68 0 0 -135z"/>
<path d="M3932 3848 l3 -133 78 0 c71 0 81 2 98 24 23 28 25 84 4 101 -13 11
-13 15 0 41 20 38 19 46 -10 74 -21 22 -33 25 -100 25 l-76 0 3 -132z"/>
<path d="M857 3963 c-4 -3 -7 -19 -7 -35 0 -15 -4 -28 -10 -28 -5 0 -10 -9
-10 -20 0 -11 5 -20 10 -20 6 0 10 -25 10 -55 0 -64 26 -101 63 -91 12 3 25 6
30 6 4 0 7 9 7 21 0 15 -5 19 -19 14 -26 -8 -43 17 -39 62 3 33 7 38 31 41 37
4 39 42 2 42 -21 0 -25 5 -25 29 0 17 -6 31 -16 35 -19 7 -19 7 -27 -1z"/>
<path d="M4370 3935 c0 -14 -6 -34 -12 -45 -10 -15 -10 -22 0 -32 7 -7 12 -37
12 -69 0 -66 13 -82 62 -77 43 4 52 35 11 40 -26 3 -28 7 -31 50 -3 44 -2 47
25 50 40 4 42 34 3 42 -22 4 -31 11 -29 23 3 34 -1 43 -21 43 -15 0 -20 -7
-20 -25z"/>
<path d="M678 3895 c-30 -17 -52 -71 -43 -108 10 -40 48 -69 90 -69 42 0 80
29 90 69 9 38 -13 91 -45 108 -36 18 -57 18 -92 0z"/>
<path d="M999 3881 c-51 -51 -37 -130 27 -157 29 -12 39 -12 68 0 41 17 56 42
56 91 0 48 -44 95 -90 95 -22 0 -41 -9 -61 -29z"/>
<path d="M1254 3896 c-13 -10 -23 -11 -31 -4 -7 6 -20 8 -28 4 -13 -5 -15 -21
-13 -88 3 -75 5 -83 23 -83 18 0 20 8 23 63 3 55 6 64 27 74 40 18 55 -3 55
-78 0 -57 2 -64 20 -64 18 0 20 7 20 78 0 64 -4 82 -18 95 -23 21 -52 22 -78
3z"/>
<path d="M4179 3871 c-21 -22 -29 -39 -29 -66 0 -81 100 -126 155 -70 36 35
35 106 -1 140 -38 35 -87 34 -125 -4z"/>
<path d="M4516 3874 c-36 -37 -37 -104 -1 -139 55 -56 155 -11 155 70 0 82
-97 125 -154 69z"/>
<path d="M4770 3891 c-8 -6 -27 -7 -42 -4 l-28 6 0 -86 c0 -62 4 -86 13 -90
25 -9 34 8 34 60 0 59 16 85 47 81 19 -3 21 -11 24 -70 2 -50 7 -68 19 -72 28
-11 35 10 31 89 -2 53 -8 79 -18 85 -19 12 -61 12 -80 1z"/>
<path d="M3637 3675 c-136 -102 -250 -185 -256 -185 -5 0 -11 7 -14 15 -7 17
-215 121 -224 111 -3 -3 11 -13 33 -22 21 -9 42 -21 46 -28 21 -31 59 -149 51
-155 -53 -35 -213 -165 -213 -172 0 -30 39 -14 132 55 57 41 106 72 110 68 18
-18 102 -284 128 -407 29 -137 40 -245 40 -405 0 -215 -30 -460 -75 -614 -19
-65 -50 -90 -86 -68 -14 9 -25 9 -39 2 -34 -18 -89 -12 -117 14 -14 13 -39 27
-55 30 -19 4 -27 10 -22 17 5 9 -3 11 -28 6 -20 -3 -40 -1 -46 5 -6 6 -33 12
-60 12 -27 1 -57 8 -67 16 -15 13 -19 12 -30 -3 -15 -21 -25 -22 -25 -2 0 9
-9 15 -22 15 -12 0 -29 7 -39 16 -15 14 -17 14 -15 -2 0 -11 -7 -20 -19 -22
-11 -2 -27 -6 -35 -9 -8 -3 -23 -5 -32 -4 -10 1 -18 -3 -18 -10 0 -9 -3 -9
-14 0 -11 9 -20 10 -36 1 -11 -6 -25 -8 -30 -5 -6 3 -10 1 -10 -4 0 -6 -17
-11 -38 -11 -21 0 -41 -3 -45 -6 -3 -4 -25 -7 -48 -8 -27 -2 -45 -8 -51 -19
-5 -9 -14 -17 -20 -17 -6 0 -20 -8 -30 -17 -16 -14 -23 -15 -38 -5 -26 16 -43
15 -37 -2 7 -17 -45 -29 -90 -20 -17 3 -33 1 -37 -4 -8 -13 -46 -3 -46 12 0 6
-8 2 -17 -9 -12 -15 -14 -16 -10 -3 3 9 0 19 -7 21 -17 7 -62 153 -85 278 -59
321 -51 645 23 935 23 91 93 314 101 322 4 4 111 -55 208 -115 63 -38 97 -46
97 -22 0 5 -30 28 -67 52 -38 24 -101 65 -140 90 -40 26 -73 51 -73 56 0 5 9
34 21 63 l20 54 95 37 c79 32 169 56 303 83 13 3 21 7 19 9 -7 7 -165 -21
-233 -40 -105 -30 -248 -93 -302 -133 l-32 -24 -227 137 c-124 75 -248 151
-275 168 -48 30 -67 31 -56 4 3 -7 65 -50 139 -94 392 -238 393 -239 391 -264
-1 -13 -29 -104 -63 -202 -102 -295 -130 -489 -130 -886 0 -208 2 -240 31
-406 66 -386 72 -492 44 -857 -20 -258 -5 -370 67 -512 98 -196 285 -341 503
-392 65 -15 118 -19 280 -18 204 1 309 15 379 49 16 8 34 15 40 15 26 0 173
98 226 149 66 66 144 181 176 261 48 117 53 260 24 633 -14 180 -3 362 34 552
36 186 48 315 42 435 -3 58 -8 159 -11 225 -15 325 -70 601 -170 853 -20 51
-35 97 -33 102 2 5 115 94 253 197 137 104 249 192 248 198 -1 5 -6 11 -11 13
-5 1 -120 -81 -255 -183z m-917 -2307 c0 -2 -11 -25 -25 -52 -31 -62 -34 -89
-5 -58 26 28 65 37 96 23 40 -18 42 -41 4 -73 -19 -15 -37 -28 -41 -28 -4 0
-22 12 -40 28 -27 22 -31 24 -24 7 5 -11 9 -36 9 -55 1 -31 -2 -35 -28 -38
-34 -4 -72 27 -93 76 -24 57 6 124 72 160 17 10 75 17 75 10z m441 -381 c-6
-44 -11 -103 -10 -131 1 -52 3 -52 13 -3 4 15 11 27 18 27 6 0 16 8 23 17 11
15 14 15 35 -5 27 -25 43 -135 27 -192 -8 -33 -56 -95 -65 -85 -3 2 -14 -2
-26 -10 -29 -21 -34 -19 -38 18 -3 32 -13 -7 -33 -138 -5 -35 -9 -40 -33 -40
-16 0 -40 8 -55 18 -14 9 -30 17 -35 17 -10 0 -57 49 -66 70 -3 8 -14 29 -25
45 -13 21 -15 32 -7 38 8 6 7 10 -1 14 -7 2 -13 12 -13 22 0 24 34 116 49 135
8 9 10 16 6 16 -4 0 7 16 24 35 17 20 31 44 31 53 0 10 8 25 18 33 9 9 37 40
62 69 25 29 59 66 75 82 l30 29 3 -27 c2 -15 -1 -63 -7 -107z m-873 56 c12
-13 22 -28 22 -33 0 -6 9 -15 20 -22 11 -7 20 -16 20 -21 0 -4 18 -32 40 -62
22 -30 40 -58 40 -62 0 -4 9 -19 20 -33 11 -14 20 -38 20 -53 0 -16 4 -26 10
-22 5 3 12 -7 16 -22 4 -15 10 -32 13 -38 15 -23 3 -107 -20 -145 -5 -8 -15
-30 -23 -47 -8 -18 -22 -33 -30 -33 -9 0 -16 -4 -16 -10 0 -15 -49 -43 -80
-45 -27 -2 -28 0 -34 59 -14 129 -19 155 -27 150 -5 -3 -7 -10 -4 -15 4 -5 3
-18 0 -29 -6 -18 -12 -20 -43 -14 -76 13 -149 97 -157 179 -4 42 13 143 35
199 7 19 16 24 39 24 38 -1 66 -30 91 -94 l19 -49 0 45 c1 58 -15 219 -24 245
-5 17 -4 16 12 -4 10 -13 28 -34 41 -48z m222 -14 c0 -45 20 -51 30 -8 6 23 9
24 93 25 l87 2 0 -34 c0 -22 -5 -34 -14 -34 -8 0 -16 -7 -20 -15 -6 -16 -56
-21 -56 -5 0 5 7 7 15 4 8 -4 15 -2 15 4 0 14 -49 25 -63 14 -7 -5 -33 -7 -59
-4 l-48 4 0 44 c0 24 5 44 10 44 6 0 10 -18 10 -41z"/>
<path d="M2663 3804 c-3 -9 -3 -151 0 -315 l6 -298 -35 -11 c-44 -15 -90 -54
-110 -93 -19 -36 -23 -142 -14 -337 5 -106 10 -141 24 -162 20 -31 72 -66 114
-77 l27 -7 5 -230 c4 -195 7 -229 20 -229 13 0 15 30 11 228 l-4 228 23 6 c48
13 106 51 125 84 19 32 20 49 17 247 -2 230 -8 261 -56 304 -15 13 -46 30 -69
39 l-42 17 -2 298 c-2 165 -5 305 -8 312 -6 17 -24 15 -32 -4z"/>
<path d="M240 3385 c0 -126 1 -135 19 -135 20 0 31 18 31 51 0 16 7 19 55 19
48 0 60 4 80 26 37 40 35 106 -4 145 -27 27 -35 29 -105 29 l-76 0 0 -135z"/>
<path d="M4663 3513 c-8 -3 -13 -23 -13 -49 l0 -44 -44 6 c-41 6 -48 4 -75
-24 -21 -21 -31 -40 -31 -62 0 -37 23 -85 45 -94 24 -9 68 -7 84 3 9 6 21 5
32 -2 10 -6 20 -9 22 -7 3 3 6 65 8 139 4 132 1 146 -28 134z"/>
<path d="M3590 3490 c-12 -12 -20 -33 -20 -55 0 -30 6 -39 40 -63 21 -15 42
-34 45 -42 8 -19 -30 -50 -62 -50 -18 0 -24 -5 -21 -17 2 -13 14 -19 41 -21
30 -3 43 2 67 27 18 18 30 40 30 56 0 27 -37 70 -70 80 -52 16 -22 70 30 55
25 -7 30 -5 36 12 8 26 -10 38 -58 38 -25 0 -45 -7 -58 -20z"/>
<path d="M1049 3411 c-59 -59 -25 -165 52 -162 19 0 51 1 72 1 l37 0 0 90 c0
83 -1 90 -20 90 -11 0 -20 -5 -20 -11 0 -5 -10 -3 -22 5 -34 24 -66 19 -99
-13z"/>
<path d="M1480 3412 c-78 -78 3 -207 100 -157 81 42 60 167 -32 182 -32 5 -41
1 -68 -25z"/>
<path d="M705 3422 c-6 -4 -9 -42 -7 -89 3 -74 6 -83 23 -83 17 0 19 7 19 60
0 54 2 62 24 72 44 20 56 6 56 -67 0 -63 1 -66 23 -63 19 3 22 10 25 58 4 62
16 82 46 78 18 -3 22 -12 26 -68 4 -58 7 -65 28 -68 21 -3 22 0 22 65 0 103
-33 134 -105 101 -19 -9 -28 -9 -37 0 -15 15 -53 15 -81 1 -16 -9 -22 -9 -25
0 -4 12 -22 14 -37 3z"/>
<path d="M3773 3415 c-27 -19 -46 -75 -37 -109 3 -15 18 -35 31 -46 41 -32
133 -22 133 15 0 11 -11 13 -48 8 -36 -4 -51 -1 -60 10 -12 13 -6 16 42 22 65
8 81 22 67 58 -20 51 -84 73 -128 42z"/>
<path d="M4385 3420 c-4 -6 -21 -8 -41 -4 l-35 6 3 -88 c3 -81 5 -89 23 -89
18 0 20 8 23 67 3 63 5 68 28 74 36 9 47 -7 49 -76 2 -65 6 -76 30 -67 21 9
21 134 -1 165 -16 23 -67 31 -79 12z"/>
<path d="M4754 3407 c-60 -52 -26 -167 50 -167 17 0 38 4 46 10 9 5 19 5 26
-1 28 -23 39 0 39 86 l0 85 -30 -1 c-16 0 -46 3 -66 6 -29 6 -41 2 -65 -18z"/>
<path d="M5185 3407 c-18 -15 -28 -36 -32 -64 -5 -37 -2 -45 25 -73 73 -72
185 -4 152 94 -22 66 -94 88 -145 43z"/>
<path d="M4096 3379 c-16 -98 22 -151 90 -129 29 10 38 10 44 0 4 -7 15 -10
24 -7 13 5 16 23 16 92 0 78 -2 85 -20 85 -17 0 -20 -7 -20 -39 0 -53 -14 -88
-40 -96 -35 -11 -50 11 -50 76 0 51 -3 59 -19 59 -14 0 -20 -10 -25 -41z"/>
<path d="M357 3002 c-10 -10 -17 -33 -17 -51 0 -26 7 -36 36 -53 45 -26 44
-60 -1 -68 -41 -7 -40 -34 2 -38 24 -2 39 3 58 23 36 35 31 72 -15 103 -46 31
-47 57 -1 57 36 0 53 21 30 36 -24 15 -75 10 -92 -9z"/>
<path d="M4117 3013 c-2 -5 -4 -55 -3 -113 1 -98 2 -105 21 -105 17 0 21 8 25
55 l5 55 24 -57 c31 -73 52 -76 76 -10 26 71 35 73 35 9 0 -50 2 -57 20 -57
19 0 20 7 20 115 0 107 -1 115 -19 115 -15 0 -27 -19 -52 -85 -17 -46 -35 -83
-39 -80 -3 2 -22 40 -41 84 -23 56 -39 81 -51 81 -9 0 -19 -3 -21 -7z"/>
<path d="M509 2931 c-30 -24 -33 -89 -5 -120 23 -25 82 -28 112 -6 21 16 17
18 -40 19 -57 1 -56 22 1 32 38 7 49 14 51 31 8 52 -72 82 -119 44z"/>
<path d="M742 2927 c-29 -30 -30 -89 -2 -117 31 -31 120 -26 120 7 0 11 -7 13
-30 8 -32 -7 -70 1 -70 15 0 5 24 12 52 17 61 9 70 25 38 66 -28 35 -77 37
-108 4z"/>
<path d="M1257 2938 c-26 -21 -38 -63 -26 -98 13 -35 35 -50 78 -50 68 0 99
97 45 139 -30 24 -72 27 -97 9z"/>
<path d="M1601 2933 c-32 -27 -38 -82 -11 -115 19 -25 27 -27 85 -26 l64 1 -1
72 0 73 -45 6 c-64 9 -68 8 -92 -11z"/>
<path d="M4391 2924 c-44 -57 -13 -134 54 -134 43 0 65 9 65 26 0 11 -9 13
-38 8 -27 -4 -41 -2 -51 9 -10 13 -5 16 41 24 61 9 70 25 38 66 -29 37 -80 37
-109 1z"/>
<path d="M389 2573 c-11 -26 -31 -76 -44 -111 -20 -55 -21 -64 -8 -69 10 -4
23 4 35 20 16 21 28 27 59 27 32 0 41 -4 51 -25 11 -26 48 -35 48 -12 0 6 -18
57 -39 112 -31 77 -44 101 -60 103 -17 3 -25 -7 -42 -45z"/>
<path d="M557 2613 c-3 -5 -3 -55 -1 -113 l3 -105 60 -3 c54 -2 61 0 80 24 29
37 27 79 -5 111 -22 22 -31 24 -65 19 l-39 -6 0 40 c0 28 -4 40 -14 40 -8 0
-17 -3 -19 -7z"/>
<path d="M3824 2602 c-32 -25 -44 -55 -44 -106 0 -85 78 -138 149 -102 29 15
39 35 25 49 -3 3 -21 -2 -40 -11 -32 -15 -36 -15 -62 5 -33 25 -42 82 -17 120
17 26 16 25 100 11 30 -5 30 26 0 40 -37 17 -86 14 -111 -6z"/>
<path d="M4758 2573 c-2 -21 -9 -29 -28 -31 -14 -2 -34 -12 -46 -23 -20 -19
-21 -19 -39 1 -10 11 -24 20 -32 20 -15 0 -18 -26 -3 -35 26 -16 30 -43 10
-68 -11 -14 -20 -30 -20 -36 0 -19 28 -12 44 11 l16 22 23 -22 c13 -12 29 -22
35 -22 15 0 16 26 2 35 -26 16 -30 43 -9 68 31 40 49 25 49 -39 0 -47 3 -56
22 -63 12 -4 30 -6 40 -3 24 6 23 32 -1 32 -23 0 -34 28 -25 64 4 17 13 26 25
26 10 0 19 7 19 15 0 8 -9 15 -20 15 -14 0 -20 7 -20 24 0 13 -7 27 -16 30
-22 9 -22 9 -26 -21z"/>
<path d="M870 2525 c-29 -31 -31 -89 -3 -116 29 -29 75 -34 103 -11 29 24 20
40 -12 25 -24 -11 -68 -1 -68 15 0 5 23 12 50 16 45 6 50 9 50 31 0 60 -77 86
-120 40z"/>
<path d="M3996 2519 c-31 -37 -33 -67 -6 -102 26 -33 63 -41 99 -23 49 26 57
91 16 131 -35 35 -76 33 -109 -6z"/>
<path d="M4462 2527 c-26 -27 -29 -82 -7 -114 19 -27 61 -37 97 -22 45 18 35
37 -18 36 -65 -3 -68 19 -4 27 47 6 50 8 50 36 0 56 -77 80 -118 37z"/>
<path d="M5070 2525 c-35 -37 -33 -90 4 -122 21 -17 35 -23 50 -18 12 4 36 7
54 6 l32 -1 0 76 c0 76 0 76 -24 70 -14 -3 -28 -2 -31 4 -12 19 -61 10 -85
-15z"/>
<path d="M393 2183 c-41 -100 -71 -193 -64 -198 15 -9 39 5 44 26 4 16 14 19
55 19 42 0 52 -3 57 -20 6 -20 45 -29 45 -11 0 16 -70 194 -82 208 -19 23 -39
14 -55 -24z"/>
<path d="M808 2135 c-34 -19 -48 -77 -27 -114 18 -32 63 -50 88 -34 11 7 23 8
34 1 29 -16 36 0 34 75 -2 69 -3 72 -27 74 -14 1 -36 4 -50 7 -14 3 -37 -1
-52 -9z"/>
<path d="M1316 2128 c-68 -58 0 -185 74 -138 9 5 19 5 27 -1 23 -20 33 2 33
76 l0 74 -27 0 c-16 -1 -40 2 -54 6 -19 5 -33 1 -53 -17z"/>
</g>
</svg>
