<?xml version="1.0" encoding="UTF-8" standalone="no"?>
<svg
   xmlns:dc="http://purl.org/dc/elements/1.1/"
   xmlns:cc="http://creativecommons.org/ns#"
   xmlns:rdf="http://www.w3.org/1999/02/22-rdf-syntax-ns#"
   xmlns:svg="http://www.w3.org/2000/svg"
   xmlns="http://www.w3.org/2000/svg"
   xmlns:sodipodi="http://sodipodi.sourceforge.net/DTD/sodipodi-0.dtd"
   xmlns:inkscape="http://www.inkscape.org/namespaces/inkscape"
   version="1.0"
   width="1202.000000pt"
   height="445.000000pt"
   viewBox="0 0 1202.000000 445.000000"
   preserveAspectRatio="xMidYMid meet"
   id="svg30"
   sodipodi:docname="image15_teclado.svg"
   inkscape:version="0.92.4 (5da689c313, 2019-01-14)">
  <defs
     id="defs34" />
  <sodipodi:namedview
     pagecolor="#ffffff"
     bordercolor="#666666"
     borderopacity="1"
     objecttolerance="10"
     gridtolerance="10"
     guidetolerance="10"
     inkscape:pageopacity="0"
     inkscape:pageshadow="2"
     inkscape:window-width="1366"
     inkscape:window-height="705"
     id="namedview32"
     showgrid="false"
     inkscape:zoom="0.35440932"
     inkscape:cx="359.34487"
     inkscape:cy="420.95465"
     inkscape:window-x="-8"
     inkscape:window-y="-8"
     inkscape:window-maximized="1"
     inkscape:current-layer="svg30" />
  <metadata
     id="metadata2">
Created by potrace 1.15, written by Peter Selinger 2001-2017
<rdf:RDF>
  <cc:Work
     rdf:about="">
    <dc:format>image/svg+xml</dc:format>
    <dc:type
       rdf:resource="http://purl.org/dc/dcmitype/StillImage" />
  </cc:Work>
</rdf:RDF>
</metadata>
  <g
     transform="matrix(0.0971311,0,0,-0.09141804,14.997508,441.30976)"
     id="teclado"
     style="fill:#000000;stroke:none"
     inkscape:label="teclado">
    <path
       d="M 187,4426 C 125,4409 71,4365 40,4304 L 15,4256 12,3490 C 11,2984 13,2730 20,2740 25.367784,2748.4351 -10.447238,667.92999 -2.2803967,462.86609 0.20294654,400.511 35.48357,249.52472 35.954097,285.39508 37.285238,386.87376 40,2685 46,2727 c 2,15 6,361 10,768 3,430 10,753 15,772 14,45 45,80 90,103 38,20 85,20 5849,20 5764,0 5811,0 5849,-20 45,-23 76,-58 90,-103 5,-19 12,-342 15,-772 3,-407 2.297,-780.5528 7.297,-799.5528 L 11975.424,233.80858 86.123954,210.65797 -2.2803967,462.86609 C 15.076817,486.11313 -9.1522213,97.730005 21.218779,97.790315 811.64202,99.360065 12025.877,101.58876 12025.452,147.81512 12021.419,586.83246 11993.69,2749.9158 12000,2740 c 7,-10 9,244 8,750 l -3,765 -25,50 c -31,62 -92,110 -160,124 -81,17 -11569,14 -11633,-3 z"
       id="path4"
       inkscape:connector-curvature="0"
       sodipodi:nodetypes="cccccssccccscccccccsscccscc" />
    <path
       d="m 430,3993 c -50,-19 -50,-20 -50,-288 0,-240 1,-254 21,-279 l 20,-26 h 254 c 234,0 255,1 276,19 l 24,19 v 261 c 0,236 -2,262 -18,278 -16,16 -43,18 -265,20 -136,1 -254,-1 -262,-4 z m 493,-49 c 15,-5 17,-31 17,-239 0,-223 -1,-233 -21,-251 -19,-17 -40,-19 -228,-21 -113,-1 -218,1 -233,4 l -28,5 2,237 3,236 2,-228 3,-227 228,2 227,3 3,225 c 1,123 1,229 -2,235 -2,6 -24,9 -50,7 -44,-4 -45,-5 -31,-25 12,-17 15,-55 15,-170 0,-130 3,-153 21,-188 26,-51 18,-61 -20,-25 -27,26 -35,28 -145,33 l -116,6 -50,-31 c -28,-17 -50,-29 -50,-27 0,2 9,24 20,50 17,40 20,69 20,193 0,121 3,148 17,164 15,17 14,18 -15,18 -18,0 -32,4 -32,9 0,11 417,15 443,5 z"
       id="path6"
       inkscape:connector-curvature="0" />
    <path
       d="m 1262,3990 c -12,-5 -27,-21 -32,-35 -6,-15 -10,-133 -10,-266 v -240 l 25,-24 24,-25 h 976 c 962,0 975,0 995,20 19,19 20,33 20,278 0,141 -4,262 -8,268 -22,33 -44,34 -1009,33 -550,0 -968,-4 -981,-9 z m 283,-60 c 129,0 125,5 125,-181 0,-130 3,-155 20,-189 26,-52 26,-69 -2,-43 -44,39 -65,44 -181,41 -108,-2 -112,-3 -154,-35 -24,-18 -43,-31 -43,-29 0,2 9,25 20,51 17,39 20,69 20,188 0,93 5,150 13,167 12,24 50,41 75,34 8,-2 56,-4 107,-4 z m 598,-22 c 14,-17 17,-42 17,-167 0,-124 3,-153 20,-190 22,-48 20,-62 -5,-37 -39,39 -74,47 -183,45 -99,-2 -110,-4 -149,-30 -24,-16 -43,-26 -43,-23 0,3 9,22 20,44 17,34 20,59 20,193 0,201 -6,194 179,189 92,-3 108,-6 124,-24 z m 372,22 c 128,0 125,5 125,-178 0,-136 2,-151 25,-200 14,-30 25,-56 25,-58 0,-2 -20,11 -43,29 -43,32 -47,34 -149,36 -110,2 -159,-9 -187,-42 -26,-32 -31,-17 -10,26 20,38 22,55 20,187 -1,102 2,152 11,170 13,24 51,41 76,34 8,-2 56,-4 107,-4 z m 600,-23 c 12,-17 15,-54 15,-170 0,-128 3,-153 20,-187 11,-22 20,-42 20,-45 0,-4 -19,7 -42,24 -42,29 -46,30 -155,30 -106,0 -114,-2 -157,-30 -25,-15 -46,-26 -46,-23 0,2 9,22 20,44 17,34 20,59 20,187 0,206 -5,200 182,195 97,-3 109,-5 123,-25 z"
       id="path8"
       inkscape:connector-curvature="0" />
    <path
       d="m 3484,3990 c -12,-5 -24,-13 -28,-18 -3,-5 -7,-127 -8,-271 l -3,-263 24,-19 c 22,-18 53,-19 997,-19 961,0 974,0 994,20 19,19 20,33 20,278 0,207 -3,262 -14,278 -14,19 -37,19 -988,21 -537,1 -983,-2 -994,-7 z m 396,-80 c 5,-8 10,-80 10,-160 0,-133 2,-150 25,-197 23,-51 21,-69 -6,-37 -29,35 -66,44 -180,44 -109,0 -112,0 -151,-31 -21,-17 -40,-30 -42,-28 -2,2 6,24 17,49 18,39 21,62 19,185 -4,204 -4,204 190,195 82,-4 111,-9 118,-20 z m 968,7 c 9,-6 12,-50 12,-160 0,-140 2,-156 24,-202 14,-27 23,-52 21,-54 -2,-2 -18,8 -35,23 -42,35 -61,38 -183,34 -96,-3 -107,-5 -140,-31 -41,-31 -46,-23 -19,26 14,27 17,58 17,188 0,169 5,185 53,191 45,5 236,-6 250,-15 z m 485,-4 c 15,-14 17,-36 17,-164 0,-125 3,-154 20,-194 11,-26 20,-49 20,-51 0,-3 -20,9 -45,26 -44,30 -47,31 -153,29 -107,-1 -142,-10 -177,-45 -25,-26 -28,-10 -6,35 18,35 21,58 21,188 0,205 -5,201 180,195 78,-3 110,-8 123,-19 z m -969,-5 c 13,-18 16,-53 16,-168 0,-123 3,-152 20,-189 11,-24 19,-45 17,-47 -1,-1 -23,11 -47,27 -45,30 -46,30 -162,27 -112,-3 -118,-4 -145,-30 -16,-16 -32,-28 -36,-28 -7,0 12,61 24,75 5,5 9,79 9,164 0,201 -8,191 161,191 121,0 129,-1 143,-22 z"
       id="path10"
       inkscape:connector-curvature="0" />
    <path
       d="m 5710,3993 c -38,-14 -40,-30 -40,-299 0,-260 0,-263 22,-278 20,-14 131,-16 993,-16 862,0 973,2 993,16 22,15 22,18 22,278 0,211 -3,266 -14,282 -14,19 -37,19 -988,21 -535,1 -980,-1 -988,-4 z m 1843,-80 c 15,-14 17,-36 17,-165 0,-129 3,-155 20,-190 29,-59 25,-64 -22,-29 -41,30 -44,31 -158,31 -115,0 -116,0 -153,-31 -21,-17 -40,-29 -42,-27 -3,3 5,24 16,48 18,38 21,60 20,184 -2,204 -2,204 183,198 75,-3 106,-8 119,-19 z m -1453,-2 c 5,-11 10,-82 10,-160 0,-127 2,-146 24,-196 14,-30 23,-55 20,-55 -3,0 -21,12 -41,27 -33,26 -44,28 -152,31 l -117,4 -47,-36 c -26,-20 -47,-34 -47,-33 0,2 11,27 25,55 23,48 25,63 25,198 0,81 5,154 10,165 10,17 22,19 145,19 123,0 135,-2 145,-19 z m 482,2 c 16,-14 18,-33 18,-164 0,-125 3,-154 20,-194 11,-26 20,-49 20,-51 0,-2 -17,7 -38,21 -34,22 -53,26 -155,32 l -115,6 -43,-31 c -23,-18 -44,-30 -46,-28 -2,2 5,21 16,42 19,34 21,56 21,189 0,203 -7,195 157,195 104,0 130,-3 145,-17 z m 489,0 c 10,-12 14,-56 16,-168 1,-132 4,-159 22,-196 12,-23 19,-44 16,-47 -2,-2 -21,10 -42,27 -37,31 -38,31 -154,31 -113,0 -117,-1 -157,-30 -48,-34 -50,-31 -22,28 17,35 20,61 20,187 0,82 5,155 10,166 10,17 22,19 144,19 112,0 136,-3 147,-17 z"
       id="path12"
       inkscape:connector-curvature="0" />
    <path
       d="m 7900,3989 c -13,-6 -28,-15 -32,-22 -4,-7 -8,-127 -8,-268 0,-205 3,-259 14,-275 14,-18 35,-19 772,-22 668,-2 760,-1 780,13 l 24,15 v 263 c 0,144 -4,267 -8,273 -22,33 -48,34 -784,33 -457,0 -742,-4 -758,-10 z m 1510,-59 c 6,-11 10,-104 10,-227 0,-219 -6,-251 -45,-261 -38,-10 -1414,-12 -1440,-2 l -25,10 2,222 3,223 2,-217 3,-218 h 225 225 v 230 c 0,127 -1,233 -2,238 -3,6 -23,7 -82,3 -18,-1 -18,-2 -3,-13 14,-11 17,-36 18,-163 2,-134 4,-156 25,-203 13,-29 24,-55 24,-58 0,-3 -16,8 -35,25 -46,40 -63,44 -188,39 -96,-3 -107,-5 -140,-31 -42,-32 -46,-24 -17,33 17,34 20,59 20,189 0,120 3,153 15,165 20,20 19,25 -5,19 -11,-3 -20,-1 -20,4 0,7 256,11 710,11 689,1 710,1 720,-18 z"
       id="path14"
       inkscape:connector-curvature="0" />
    <path
       d="m 8430,3700 v -240 h 225 225 v 230 c 0,127 0,233 0,238 0,7 -100,11 -100,4 0,-2 7,-10 15,-18 12,-12 15,-45 15,-159 0,-131 2,-149 24,-200 24,-53 22,-71 -5,-39 -27,33 -63,42 -176,42 l -113,1 -45,-34 c -25,-19 -45,-32 -45,-30 0,3 10,27 23,53 22,43 23,58 21,187 -1,104 2,147 12,167 8,15 14,28 14,30 0,2 -20,4 -45,5 l -45,2 z"
       id="path16"
       inkscape:connector-curvature="0" />
    <path
       d="m 8940,3701 v -241 h 225 224 l 3,236 c 2,130 0,238 -3,240 -4,2 -27,1 -52,-2 -40,-6 -44,-8 -31,-21 8,-8 14,-20 14,-26 1,-7 1,-74 0,-149 -1,-128 1,-140 25,-187 14,-28 23,-51 19,-51 -3,0 -23,14 -44,30 -37,29 -40,30 -152,30 -112,0 -116,-1 -156,-30 -23,-16 -44,-30 -47,-30 -3,0 4,19 16,43 20,38 22,55 20,187 -1,112 2,151 13,173 12,21 12,27 2,27 -8,0 -28,3 -45,6 l -31,7 z"
       id="path18"
       inkscape:connector-curvature="0" />
    <path
       d="m 405,3005 -25,-24 V 1728 C 380,610 382,472 396,452 l 15,-22 h 3643 c 3576,0 3643,0 3660,19 16,18 18,98 17,1282 0,1144 -1,1263 -16,1278 -14,15 -332,16 -3651,19 l -3635,2 z m 406,-64 c 17,-20 19,-40 19,-173 0,-131 3,-154 21,-189 11,-23 18,-43 16,-45 -2,-3 -19,7 -37,22 -31,27 -34,27 -162,25 -130,-2 -132,-2 -170,-33 l -39,-30 18,38 c 9,22 24,48 33,58 8,11 11,17 5,14 -15,-9 -7,292 8,310 21,26 51,32 160,29 101,-2 110,-4 128,-26 z m 479,4 c 18,-17 20,-30 20,-167 0,-129 3,-155 20,-190 28,-59 25,-64 -17,-32 -37,28 -38,28 -163,25 -126,-2 -145,-7 -184,-46 -21,-21 -20,-17 4,40 17,39 20,69 20,191 0,84 5,154 11,165 17,32 47,38 161,35 88,-2 111,-6 128,-21 z m 486,3 c 14,-13 17,-42 19,-175 1,-140 4,-163 23,-200 30,-57 28,-60 -13,-24 -20,17 -43,31 -53,32 -9,0 -68,0 -131,0 -112,0 -115,-1 -152,-31 -36,-28 -38,-29 -30,-8 5,13 16,37 25,53 13,24 16,63 16,187 v 157 l 27,15 c 42,21 246,17 269,-6 z m 485,-7 c 17,-20 19,-41 19,-166 0,-122 3,-150 20,-191 11,-26 19,-48 17,-50 -2,-2 -17,7 -33,21 -31,27 -29,27 -184,25 -94,-1 -109,-3 -139,-25 -19,-13 -37,-23 -39,-21 -2,2 6,22 17,45 19,35 21,58 21,193 0,84 4,158 8,164 19,28 50,34 160,32 106,-3 115,-5 133,-27 z m 487,2 c 8,-12 12,-62 12,-165 0,-139 2,-152 25,-198 14,-27 25,-52 25,-55 0,-3 -17,8 -37,24 -37,29 -40,30 -165,32 -131,2 -147,-2 -192,-46 -22,-22 -20,-12 6,38 19,38 21,55 19,175 -3,145 8,198 43,213 11,5 73,7 136,4 92,-4 117,-9 128,-22 z m 485,-5 c 15,-18 18,-40 16,-170 -1,-131 2,-153 20,-190 11,-23 19,-43 18,-45 -2,-1 -20,9 -40,22 -34,23 -44,25 -164,25 h -128 l -40,-32 c -22,-18 -37,-28 -34,-23 45,81 49,104 49,253 0,155 5,175 45,185 11,3 70,4 130,1 96,-4 112,-8 128,-26 z m 478,6 c 17,-15 19,-32 19,-165 0,-136 2,-153 25,-204 l 24,-56 -37,31 -37,30 h -131 c -120,0 -134,-2 -160,-22 -16,-12 -32,-27 -36,-33 -16,-22 -7,17 12,55 17,34 20,59 20,190 0,147 1,152 25,176 24,24 28,24 140,20 93,-3 120,-8 136,-22 z m 485,1 c 11,-14 14,-55 14,-167 0,-139 2,-152 25,-198 33,-65 32,-68 -10,-31 l -36,31 h -133 c -122,0 -136,-2 -162,-22 -16,-12 -32,-27 -36,-33 -16,-22 -7,8 16,53 21,42 23,57 19,132 -2,47 -1,119 4,160 10,97 18,102 171,98 99,-3 116,-6 128,-23 z m 486,-4 c 16,-20 18,-42 18,-173 0,-131 3,-154 21,-189 11,-23 19,-43 17,-45 -2,-2 -21,8 -41,23 -36,25 -42,26 -160,24 -111,-2 -125,-4 -156,-26 -19,-14 -36,-23 -38,-21 -2,2 6,24 17,50 17,41 20,69 20,194 0,81 4,152 8,159 16,25 60,33 166,30 99,-3 111,-6 128,-26 z m 477,5 c 20,-18 21,-29 21,-168 0,-148 7,-183 48,-252 3,-6 -13,5 -35,23 l -40,32 h -119 c -65,0 -124,0 -131,0 -7,-1 -28,-15 -48,-32 -41,-36 -41,-35 -15,22 17,38 20,66 20,197 0,151 0,153 26,179 25,24 28,25 139,22 94,-3 117,-7 134,-23 z m 488,1 c 16,-15 18,-39 20,-172 1,-131 5,-161 22,-201 25,-56 26,-60 5,-39 -41,41 -58,45 -188,46 l -128,1 -39,-32 c -39,-31 -39,-31 -29,-5 5,14 16,38 25,55 11,22 15,64 15,178 0,155 5,175 45,185 11,3 68,5 127,4 88,-2 111,-5 125,-20 z m 484,-6 c 17,-20 19,-40 19,-166 0,-121 3,-151 20,-190 26,-61 26,-62 -14,-31 -32,24 -41,26 -159,27 -124,1 -152,-5 -185,-38 -24,-23 -25,-7 -3,36 19,35 21,58 21,194 0,200 -2,198 173,194 101,-2 110,-4 128,-26 z m 485,4 c 11,-14 14,-55 14,-166 0,-135 2,-151 25,-204 l 26,-57 -38,31 -38,31 h -130 -130 l -38,-31 c -20,-17 -37,-28 -37,-26 0,2 10,26 22,53 19,44 21,64 19,191 -4,201 -1,204 177,200 99,-2 116,-5 128,-22 z m 977,-3 c 15,-13 17,-35 17,-168 0,-129 3,-159 20,-198 10,-25 17,-46 14,-46 -4,0 -19,11 -36,25 -16,14 -35,25 -41,25 -7,0 -175,1 -374,2 l -362,1 -35,-27 c -20,-15 -36,-25 -36,-22 0,2 9,25 20,51 17,39 20,69 20,186 0,147 6,174 43,189 12,4 182,6 377,3 300,-5 358,-8 373,-21 z M 1053,2442 c 15,-13 17,-35 17,-162 0,-134 2,-150 24,-196 13,-27 22,-51 21,-53 -2,-1 -20,9 -39,24 -36,27 -37,27 -221,30 -102,2 -209,0 -239,-4 -30,-4 -53,-4 -50,1 3,4 1,8 -5,8 -5,0 -12,-4 -15,-9 -3,-5 -22,-18 -41,-29 l -34,-21 19,50 c 17,41 20,74 20,190 0,147 6,174 43,188 12,5 126,6 252,4 187,-5 233,-8 248,-21 z m 490,-3 c 14,-18 17,-43 17,-170 0,-142 1,-152 26,-201 l 26,-52 -23,17 c -13,9 -35,25 -48,35 -20,14 -48,17 -145,18 -125,1 -129,0 -177,-50 -25,-26 -24,-5 2,46 19,37 21,57 20,193 l -2,153 28,22 c 26,21 34,22 143,16 101,-5 117,-9 133,-27 z m 445,20 c 19,-4 39,-14 43,-21 5,-7 9,-80 9,-161 0,-138 2,-151 25,-197 14,-27 25,-52 25,-55 0,-3 -17,8 -38,24 -37,30 -40,31 -162,34 l -124,3 -43,-33 c -24,-18 -43,-31 -43,-29 0,2 9,25 21,51 18,41 21,69 23,202 1,151 2,155 25,174 21,17 38,20 114,18 49,-1 105,-5 125,-10 z m 511,-8 c 19,-11 21,-21 23,-139 1,-70 1,-139 0,-155 -1,-15 9,-50 23,-77 14,-28 23,-50 19,-50 -3,0 -19,11 -36,25 -32,27 -28,27 -177,29 -100,1 -107,0 -144,-27 -38,-28 -39,-28 -32,-5 4,13 14,35 21,50 10,19 14,70 14,177 0,143 1,151 23,172 21,20 29,21 134,16 61,-3 120,-10 132,-16 z m 494,-12 c 14,-18 17,-43 17,-171 0,-131 3,-154 21,-189 11,-23 19,-43 17,-45 -2,-2 -20,8 -40,22 -32,23 -46,26 -154,28 l -119,3 -47,-34 -48,-35 25,54 c 23,49 25,64 25,204 0,198 -1,197 175,189 96,-4 112,-8 128,-26 z m 476,7 c 20,-18 21,-29 21,-170 0,-129 3,-157 20,-195 11,-24 19,-46 17,-48 -2,-1 -17,8 -33,22 -16,14 -38,26 -49,26 -192,12 -222,8 -289,-36 l -29,-19 12,21 c 28,53 33,85 31,214 -1,146 7,184 42,199 13,5 71,8 129,7 89,-2 110,-5 128,-21 z m 487,-1 c 10,-14 14,-57 14,-167 0,-139 2,-152 25,-198 14,-27 25,-52 25,-55 0,-2 -21,11 -46,30 l -46,35 -121,-6 c -109,-5 -125,-8 -154,-30 -17,-13 -34,-24 -36,-24 -3,0 4,19 15,42 18,38 21,61 20,186 -2,208 2,213 177,209 98,-3 115,-6 127,-22 z m 481,2 c 16,-15 18,-39 19,-171 2,-132 5,-159 23,-199 28,-60 27,-66 -6,-35 -46,43 -64,47 -182,44 -107,-3 -114,-4 -156,-34 l -43,-30 24,54 c 22,50 24,68 24,203 0,193 -1,192 172,188 87,-2 111,-6 125,-20 z m 484,-6 c 17,-20 19,-41 19,-170 0,-124 3,-153 20,-190 11,-24 19,-45 17,-47 -1,-1 -22,10 -45,26 -42,28 -46,29 -155,26 -110,-3 -139,-10 -172,-42 -25,-25 -27,-11 -5,37 17,38 20,66 20,196 v 152 l 28,21 c 25,20 36,22 140,18 105,-3 115,-5 133,-27 z m 456,18 c 15,-5 31,-16 35,-22 4,-7 8,-79 8,-160 0,-138 2,-151 25,-197 14,-27 25,-52 25,-56 0,-3 -19,9 -42,28 -42,33 -43,33 -158,34 -111,2 -116,1 -158,-27 -24,-16 -45,-29 -48,-29 -2,0 5,19 17,43 20,38 22,55 20,177 -2,153 5,190 40,207 30,16 197,17 236,2 z m 511,-13 c 14,-14 17,-40 18,-169 1,-133 3,-158 22,-201 12,-27 22,-50 22,-53 0,-2 -18,11 -41,29 l -41,33 -123,-1 c -118,0 -125,-1 -159,-28 -41,-31 -44,-26 -16,32 17,35 20,61 20,192 0,196 -5,190 168,186 90,-2 117,-6 130,-20 z m 484,-6 c 15,-19 18,-44 18,-171 0,-137 2,-153 24,-199 13,-28 21,-50 18,-50 -3,0 -21,15 -40,33 l -33,32 h -126 c -76,0 -131,-4 -137,-11 -16,-16 -66,-47 -66,-41 0,3 9,24 20,48 17,38 20,66 20,195 0,197 -1,196 175,190 98,-4 111,-7 127,-26 z m 478,5 c 18,-16 20,-32 20,-166 0,-135 2,-153 24,-203 l 24,-54 -42,30 c -42,29 -47,30 -164,31 -117,1 -121,0 -157,-27 -20,-15 -38,-26 -39,-25 -2,2 6,24 16,48 17,37 20,65 19,187 -2,151 4,178 42,194 12,5 71,8 130,6 86,-3 112,-7 127,-21 z m 733,-7 c 14,-17 17,-41 17,-163 0,-121 3,-151 20,-190 25,-58 25,-63 1,-40 -20,17 -20,14 -23,-206 -3,-219 -3,-225 20,-267 13,-24 22,-45 20,-47 -2,-3 -21,8 -42,23 -37,26 -45,27 -200,33 -89,4 -162,3 -164,-2 -2,-5 -9,-9 -15,-9 -7,0 -29,-9 -50,-20 -20,-11 -40,-20 -43,-20 -3,0 5,19 19,43 24,41 25,48 28,282 l 4,240 -52,-3 c -44,-2 -59,-8 -90,-37 -20,-19 -39,-32 -41,-31 -2,2 8,27 22,55 24,47 26,59 26,199 0,155 5,176 45,185 11,2 124,2 250,-1 215,-4 231,-5 248,-24 z M 1574,1961 c 26,-5 52,-14 57,-22 5,-8 9,-80 9,-162 0,-136 2,-151 25,-199 14,-28 25,-53 25,-55 0,-2 -17,10 -38,27 -37,30 -43,31 -157,35 -89,4 -121,2 -127,-7 -6,-10 -8,-10 -8,-1 0,7 -17,-3 -37,-22 -21,-19 -39,-33 -40,-31 -2,2 6,25 18,52 19,43 22,65 20,189 -2,153 6,184 49,196 34,10 145,9 204,0 z m 539,-22 c 14,-18 17,-43 17,-171 0,-128 3,-155 20,-190 11,-23 19,-43 17,-44 -2,-2 -20,9 -41,24 -37,26 -44,27 -161,27 -68,0 -121,-3 -118,-7 2,-5 -1,-8 -7,-8 -7,0 -23,-9 -37,-20 -15,-11 -28,-19 -30,-17 -2,2 6,24 17,48 17,38 20,66 20,195 0,197 -1,197 175,189 97,-4 112,-7 128,-26 z m 486,7 c 13,-14 16,-43 17,-170 2,-132 5,-159 23,-201 11,-26 21,-49 21,-52 0,-2 -17,9 -37,26 -36,28 -44,29 -153,34 -122,4 -149,-2 -197,-46 -29,-26 -29,-22 2,41 23,48 25,63 25,199 0,82 4,153 8,160 16,25 59,33 166,29 83,-3 112,-8 125,-20 z m 484,-3 c 15,-14 17,-36 17,-163 0,-137 2,-152 26,-206 l 26,-59 -24,21 c -41,38 -67,45 -180,49 -114,4 -134,0 -175,-38 -22,-20 -23,-20 -23,-1 1,10 7,30 15,44 11,18 14,63 15,172 0,80 3,154 6,163 4,10 21,24 38,31 43,20 233,10 259,-13 z m 490,-4 c 14,-18 17,-43 17,-169 0,-125 3,-155 19,-191 11,-24 18,-45 16,-47 -2,-2 -19,8 -37,22 -31,25 -40,27 -156,29 -67,1 -122,-2 -122,-6 0,-5 -4,-5 -10,-2 -5,3 -10,2 -10,-2 0,-5 -13,-17 -30,-26 -36,-21 -36,-21 -10,34 17,38 20,66 20,195 0,198 -1,197 175,189 96,-5 112,-8 128,-26 z m 444,21 c 47,0 53,-20 53,-181 0,-140 2,-153 25,-199 31,-61 31,-69 3,-43 -42,38 -70,46 -182,49 l -110,3 -48,-34 c -26,-19 -48,-33 -48,-30 0,3 12,29 26,58 26,51 27,55 20,180 -5,99 -3,135 8,161 17,41 33,46 146,41 47,-3 95,-5 107,-5 z m 526,-17 c 15,-14 17,-36 17,-164 0,-126 3,-154 20,-195 11,-26 19,-48 17,-50 -2,-2 -17,7 -33,21 -16,14 -33,25 -39,26 -83,4 -222,2 -218,-3 2,-5 -1,-8 -6,-8 -6,0 -11,5 -11,11 0,6 -20,-5 -45,-25 -25,-21 -45,-35 -45,-32 0,2 9,25 20,51 17,39 20,69 20,191 0,152 6,179 43,194 35,15 239,1 260,-17 z m 487,1 c 12,-11 16,-51 20,-177 4,-122 9,-171 22,-199 20,-45 14,-48 -23,-12 -25,24 -33,25 -154,29 -70,2 -125,2 -122,-2 6,-5 -75,-53 -81,-48 -2,2 6,22 18,45 20,39 22,58 21,194 -1,83 2,156 7,163 17,26 59,33 167,27 77,-4 115,-10 125,-20 z m 442,16 c 53,0 58,-17 58,-181 0,-139 2,-153 25,-201 31,-63 31,-67 3,-41 -13,11 -34,26 -46,33 -30,15 -246,24 -237,10 3,-6 -1,-7 -10,-4 -9,4 -30,-5 -50,-20 -40,-31 -44,-22 -15,34 18,35 19,53 15,177 -7,196 1,206 150,198 44,-3 92,-5 107,-5 z m 531,-21 c 14,-18 17,-43 17,-171 0,-131 3,-154 21,-189 22,-45 19,-61 -6,-35 -34,34 -60,39 -182,38 -117,-1 -125,-3 -150,-27 -24,-22 -43,-32 -43,-22 0,2 9,22 20,45 17,35 20,61 20,187 0,84 5,155 11,166 17,33 48,39 164,34 95,-5 112,-9 128,-26 z m 487,5 c 12,-12 15,-47 17,-169 2,-132 5,-162 23,-201 11,-26 19,-48 17,-50 -1,-2 -17,11 -35,27 l -33,31 h -129 c -125,-1 -131,-2 -165,-28 -19,-14 -35,-24 -35,-21 0,3 9,26 20,52 17,40 20,69 20,194 0,194 -1,193 175,185 79,-3 114,-9 125,-20 z m -5358,-1 c 16,-14 18,-33 18,-159 0,-130 2,-147 25,-195 13,-29 22,-55 20,-57 -2,-3 -18,7 -35,22 -17,14 -39,26 -48,27 -74,3 -262,0 -270,-5 -6,-3 -12,0 -15,6 -3,10 -7,10 -18,2 -8,-6 -23,-9 -34,-7 -37,9 -215,11 -215,3 0,-5 -8,-7 -17,-6 -9,2 -27,-8 -40,-22 -32,-35 -37,-23 -13,29 17,37 20,66 20,189 0,115 3,150 16,168 15,22 17,22 301,22 253,0 289,-2 305,-17 z m 5840,0 c 16,-14 18,-34 18,-167 0,-129 3,-157 20,-195 11,-24 19,-46 16,-48 -2,-2 -17,8 -34,22 -28,23 -40,25 -152,30 l -122,5 -38,-30 c -21,-16 -41,-30 -44,-30 -3,0 3,23 14,50 17,42 20,75 20,193 0,194 -6,187 157,187 104,0 130,-3 145,-17 z M 1396,1446 c 11,-15 14,-56 14,-169 0,-139 2,-152 25,-199 14,-27 25,-52 25,-55 0,-3 -15,8 -34,24 -40,36 -77,43 -208,40 -82,-2 -100,-5 -120,-23 -27,-25 -53,-41 -46,-28 35,57 40,93 38,236 -2,147 -2,147 25,173 25,26 28,27 146,23 106,-3 122,-5 135,-22 z m 481,2 c 10,-8 13,-53 13,-165 0,-144 2,-157 25,-203 14,-27 25,-52 25,-55 0,-3 -17,8 -37,24 -37,30 -41,30 -164,33 l -127,3 -41,-33 c -23,-18 -41,-31 -41,-29 0,2 10,23 21,47 19,39 22,63 23,201 1,172 5,186 59,191 62,6 232,-4 244,-14 z m 486,-5 c 15,-14 17,-36 17,-164 0,-137 2,-153 25,-205 26,-59 24,-60 -31,-12 -17,15 -42,19 -143,22 -121,3 -122,3 -162,-26 -23,-16 -42,-28 -44,-26 -1,2 6,23 17,48 17,38 19,66 18,189 -1,171 5,188 72,193 94,7 213,-3 231,-19 z m 969,0 c 16,-14 18,-35 18,-165 0,-138 2,-152 25,-200 14,-28 25,-54 25,-56 0,-2 -18,10 -39,27 -38,31 -43,32 -158,35 -124,3 -137,0 -190,-48 -29,-25 -29,-17 2,44 23,46 25,59 25,197 0,81 4,153 8,160 14,22 50,28 159,25 81,-2 112,-7 125,-19 z m 490,0 c 16,-14 18,-36 18,-167 0,-139 2,-155 25,-204 l 24,-53 -42,30 c -40,28 -47,30 -164,33 l -123,4 -37,-32 c -21,-18 -39,-31 -41,-30 -1,2 7,23 18,47 17,38 20,66 20,194 0,208 -5,202 180,197 78,-3 109,-7 122,-19 z m 491,-5 c 14,-17 17,-42 17,-172 0,-129 3,-157 20,-195 11,-24 20,-45 20,-48 0,-2 -17,10 -38,26 -36,29 -42,31 -155,34 l -118,4 -49,-33 -49,-34 24,53 c 23,48 25,64 25,203 0,197 -5,191 173,186 98,-3 114,-6 130,-24 z m 429,22 c 64,0 68,-12 68,-181 0,-139 2,-153 25,-201 14,-28 25,-54 25,-56 0,-2 -16,10 -35,27 -20,17 -39,31 -43,32 -4,0 -59,2 -122,3 -119,3 -134,-1 -184,-46 -29,-27 -30,-15 -2,40 24,47 25,58 24,201 -1,159 4,177 45,183 12,2 54,2 92,1 39,-1 87,-2 107,-3 z m 541,-17 c 15,-14 17,-36 17,-164 0,-136 2,-153 24,-204 14,-30 21,-55 15,-55 -5,0 -9,3 -9,8 0,4 -15,17 -34,30 -31,21 -47,24 -152,26 l -118,2 -43,-33 c -24,-18 -43,-30 -43,-28 0,3 9,23 19,43 16,31 19,62 20,192 3,214 -3,207 181,202 78,-3 110,-8 123,-19 z m 490,-5 c 14,-17 17,-42 17,-170 0,-129 3,-155 20,-190 28,-59 25,-65 -15,-29 -32,27 -43,31 -98,32 -34,0 -87,2 -117,5 -57,5 -70,0 -130,-45 l -32,-24 26,51 c 25,49 26,60 26,205 0,201 -6,194 172,189 100,-3 115,-5 131,-24 z m -4825,10 c 8,-8 12,-58 12,-158 0,-128 6,-185 27,-255 3,-12 -5,-6 -18,14 l -24,33 -218,2 c -121,0 -222,-1 -226,-4 -4,-3 -15,-16 -25,-30 l -18,-25 7,25 c 4,14 10,106 14,205 3,99 10,186 14,193 11,17 438,17 455,0 z m 1906,-10 c 13,-18 16,-53 16,-171 0,-128 3,-154 20,-189 28,-59 25,-65 -15,-29 -29,25 -45,31 -83,32 -26,0 -82,1 -125,3 -68,2 -82,-1 -109,-21 -18,-12 -35,-29 -40,-35 -16,-25 -8,10 12,53 17,38 20,66 20,193 0,195 -8,186 161,186 121,0 129,-1 143,-22 z m 3398,5 c 16,-14 18,-33 18,-165 0,-139 2,-152 25,-198 14,-27 25,-52 25,-55 0,-3 -17,7 -37,24 -37,28 -43,29 -161,34 -123,4 -123,4 -163,-25 -42,-31 -48,-24 -22,25 13,26 16,57 14,174 -2,139 4,176 33,195 6,4 65,8 130,8 97,0 123,-3 138,-17 z m 1326,1 c 21,-14 22,-22 22,-162 0,-136 2,-151 25,-200 14,-30 25,-56 25,-58 0,-3 -17,9 -37,25 l -38,30 -547,3 c -302,2 -548,0 -548,-4 0,-4 -6,-8 -13,-8 -8,0 -24,-11 -37,-25 -13,-14 -25,-23 -27,-21 -2,2 6,24 17,50 17,41 20,69 20,199 0,126 3,153 17,169 15,17 46,18 557,18 474,0 544,-2 564,-16 z M 1026,952 c 27,-18 34,-56 34,-189 0,-133 1,-140 29,-195 16,-32 28,-58 26,-58 -2,0 -22,16 -45,35 l -42,35 H 788 c -231,0 -241,-1 -271,-22 -18,-12 -33,-26 -35,-30 -2,-4 -7,-8 -12,-8 -5,0 -2,12 5,28 33,65 37,91 35,226 -1,110 2,143 15,162 l 15,24 h 238 c 130,0 242,-4 248,-8 z m 636,-9 c 16,-14 18,-33 18,-165 0,-114 4,-156 15,-178 9,-17 20,-42 26,-57 l 10,-28 -23,21 c -44,40 -62,44 -255,46 l -189,3 -42,-33 c -23,-19 -42,-31 -42,-29 0,3 9,27 21,54 19,42 21,65 20,185 -2,108 1,143 14,167 l 16,31 h 196 c 169,0 199,-2 215,-17 z m 628,-3 c 18,-18 20,-33 20,-168 0,-128 3,-154 20,-190 19,-40 28,-78 12,-57 -4,6 -20,21 -36,33 -27,21 -38,22 -225,22 h -197 l -34,-30 c -19,-16 -38,-29 -42,-30 -4,0 4,24 17,53 23,48 25,64 25,201 0,125 3,152 17,168 14,16 35,18 210,18 180,0 194,-1 213,-20 z m 2662,3 c 16,-14 18,-33 18,-163 0,-144 1,-148 30,-204 17,-31 27,-56 24,-56 -4,0 -22,14 -41,30 l -34,30 H 3734 c -881,0 -1221,-3 -1237,-11 -12,-6 -32,-21 -44,-32 -28,-25 -28,-22 -1,39 19,43 22,63 20,174 -3,125 7,187 30,202 7,4 557,8 1222,8 1111,0 1211,-1 1228,-17 z m 630,0 c 16,-14 18,-33 18,-164 0,-126 3,-154 20,-195 11,-26 19,-48 17,-50 -2,-2 -18,7 -35,20 -30,22 -43,24 -210,28 -189,5 -222,1 -259,-33 -31,-30 -37,-20 -16,22 14,27 19,68 23,197 4,147 7,165 24,178 16,11 62,14 210,14 162,0 192,-2 208,-17 z m 628,-3 c 18,-18 20,-33 20,-169 0,-127 3,-156 20,-196 20,-48 26,-68 12,-50 -4,6 -21,21 -38,33 -29,20 -43,21 -224,22 l -193,2 -43,-31 -43,-30 24,56 c 23,51 25,68 25,201 0,121 3,148 17,164 14,16 35,18 210,18 180,0 194,-1 213,-20 z m 622,3 c 16,-14 18,-33 18,-165 0,-114 4,-156 15,-178 9,-17 20,-41 25,-55 l 10,-26 -38,30 -37,30 -194,1 -194,1 -44,-30 c -24,-17 -43,-29 -43,-27 0,2 9,23 20,47 16,37 20,66 20,181 0,133 9,185 33,200 7,4 97,8 201,8 162,0 192,-2 208,-17 z m 746,1 c 21,-14 22,-21 22,-165 0,-115 4,-157 15,-179 9,-17 20,-42 25,-56 l 10,-26 -31,26 c -17,14 -40,28 -52,31 -32,6 -516,12 -519,5 -4,-8 -88,-72 -88,-66 0,2 11,24 25,47 24,42 25,52 25,203 0,134 3,162 17,178 15,17 37,18 272,18 216,0 260,-2 279,-16 z"
       id="path20"
       inkscape:connector-curvature="0" />
    <path
       d="m 7925,3018 c -11,-6 -23,-16 -27,-22 -4,-6 -8,-239 -8,-518 0,-495 1,-509 20,-528 20,-20 33,-20 759,-20 713,0 740,1 762,19 l 24,19 -1,512 c -1,466 -2,513 -18,528 -15,16 -77,17 -754,19 -539,2 -742,0 -757,-9 z m 392,-71 c 16,-15 18,-39 20,-175 1,-141 4,-162 23,-196 27,-48 20,-56 -20,-22 -31,25 -36,26 -163,26 h -132 l -38,-31 c -39,-32 -41,-23 -5,36 15,25 18,53 18,185 0,85 4,160 8,166 19,28 50,34 159,32 92,-3 116,-6 130,-21 z m 492,-1 c 20,-18 21,-29 21,-167 0,-125 3,-154 20,-194 26,-61 26,-62 -14,-31 -33,25 -40,26 -163,26 -122,0 -131,-1 -163,-25 -18,-14 -35,-23 -37,-22 -2,2 5,19 14,38 14,27 19,68 23,194 3,88 9,166 14,173 16,25 51,32 157,29 89,-2 110,-5 128,-21 z m 468,13 c 15,-5 31,-16 35,-22 4,-7 8,-79 8,-160 0,-138 2,-151 25,-197 14,-27 25,-52 25,-55 0,-4 -17,7 -37,24 l -38,31 h -130 -130 l -38,-31 -37,-31 21,54 c 19,47 21,71 20,200 -2,145 -2,148 23,173 23,23 32,25 125,25 55,0 112,-5 128,-11 z m -957,-515 c 12,-12 15,-46 17,-172 1,-134 5,-163 21,-197 11,-22 19,-42 17,-44 -2,-2 -18,8 -35,23 -17,14 -37,26 -43,27 -210,11 -228,10 -273,-21 -24,-16 -44,-28 -44,-25 0,2 9,24 20,50 17,40 20,69 20,193 0,81 4,152 8,158 20,30 48,35 162,29 83,-4 119,-10 130,-21 z m 493,-5 c 14,-18 17,-43 17,-168 0,-124 3,-153 20,-190 11,-24 19,-45 17,-47 -2,-2 -19,8 -39,22 -33,24 -45,26 -154,28 -108,2 -122,0 -149,-20 -54,-39 -57,-38 -38,3 13,29 19,74 23,198 3,88 9,166 14,173 16,26 52,32 161,27 97,-4 112,-7 128,-26 z m 474,21 c 1,0 9,-7 17,-16 13,-13 16,-42 16,-165 0,-140 2,-153 25,-199 31,-61 31,-69 3,-43 -43,39 -68,45 -189,46 l -119,1 -40,-33 c -22,-17 -40,-30 -40,-28 0,2 10,23 21,47 19,38 21,63 23,203 1,157 1,159 26,179 23,19 35,20 140,15 63,-3 116,-6 117,-7 z"
       id="path22"
       inkscape:connector-curvature="0" />
    <path
       d="m 9615,3018 c -11,-6 -23,-16 -27,-22 -4,-6 -8,-578 -8,-1272 0,-1209 1,-1262 18,-1277 17,-16 102,-17 1013,-17 547,0 999,4 1006,8 6,4 16,19 21,32 6,16 9,505 8,1272 -1,1183 -2,1248 -19,1265 -17,17 -72,18 -1005,20 -725,2 -992,0 -1007,-9 z m 396,-77 c 17,-20 19,-40 19,-173 0,-131 3,-154 21,-189 11,-23 18,-43 16,-45 -2,-3 -18,7 -35,21 -29,24 -35,25 -162,25 h -132 l -39,-31 -38,-30 24,56 c 23,51 25,68 25,205 0,195 -4,190 162,187 113,-2 121,-3 139,-26 z m 466,18 c 15,-5 31,-16 35,-22 4,-7 8,-77 8,-157 0,-133 2,-149 25,-198 24,-53 32,-77 17,-57 -4,6 -21,21 -39,33 -28,20 -43,22 -162,22 h -130 l -36,-31 c -37,-33 -38,-29 -8,39 10,24 15,77 16,188 2,196 1,194 147,194 54,0 111,-5 127,-11 z m 519,-14 c 24,-25 25,-28 23,-174 -1,-113 3,-155 14,-177 8,-16 18,-40 22,-54 7,-23 7,-23 -10,-6 -46,46 -61,49 -193,47 -118,-2 -129,-4 -159,-27 -39,-29 -39,-29 -13,31 17,40 20,69 20,193 0,81 4,152 8,158 17,26 53,33 155,34 102,0 109,-1 133,-25 z m 477,14 c 12,-7 25,-17 29,-23 4,-6 8,-77 8,-157 0,-135 2,-151 25,-204 l 26,-57 -41,32 -40,32 -128,-1 c -105,-1 -131,-5 -152,-19 -49,-36 -52,-35 -33,5 13,29 19,74 23,201 6,207 3,202 157,202 59,0 114,-5 126,-11 z m -1466,-512 c 15,-15 19,-42 23,-185 4,-135 9,-173 23,-200 24,-44 18,-48 -20,-11 -32,29 -34,29 -158,32 -69,2 -125,-1 -125,-5 0,-4 -5,-8 -11,-8 -6,0 -22,-9 -36,-20 -15,-11 -28,-19 -30,-17 -2,2 6,24 17,48 17,38 20,66 20,194 0,83 4,155 8,161 19,28 50,34 159,32 92,-3 116,-6 130,-21 z m 488,-2 c 24,-23 25,-28 25,-175 0,-133 2,-156 21,-191 26,-51 18,-61 -20,-25 -29,28 -33,28 -159,31 l -129,3 -36,-35 c -42,-39 -46,-31 -17,27 17,34 20,59 20,190 0,147 1,152 25,175 23,24 31,25 135,25 104,0 112,-1 135,-25 z m 494,1 c 20,-18 21,-29 21,-168 0,-114 4,-156 15,-178 9,-17 20,-41 25,-55 9,-23 7,-23 -35,9 l -44,34 -118,-2 c -102,-1 -123,-4 -148,-22 -53,-37 -55,-36 -34,12 18,40 21,65 20,195 -2,148 -2,149 24,175 25,25 29,26 139,22 95,-2 117,-6 135,-22 z m 499,8 22,-15 v -392 c 0,-216 -3,-408 -6,-427 l -6,-35 h -153 c -145,0 -153,1 -155,20 -1,11 -4,200 -6,419 l -4,399 22,24 c 20,22 29,23 143,23 93,0 126,-4 143,-16 z m -1480,-508 c 14,-14 17,-41 19,-170 2,-128 6,-162 23,-201 11,-26 20,-49 20,-51 0,-3 -18,9 -40,27 l -39,32 -123,-1 c -68,0 -125,-1 -128,-1 -3,-1 -18,-13 -33,-27 -37,-34 -43,-26 -18,27 18,37 21,62 21,194 0,198 -1,197 173,192 85,-3 111,-7 125,-21 z m 493,-5 c 17,-20 19,-42 19,-173 0,-131 3,-154 21,-189 24,-48 18,-61 -14,-32 -41,37 -60,42 -175,38 -99,-4 -116,-7 -149,-29 -20,-14 -39,-24 -41,-22 -2,2 6,22 17,45 19,35 21,58 21,191 0,149 0,151 26,177 25,25 28,25 141,21 106,-4 117,-6 134,-27 z m 490,3 c 17,-15 19,-32 19,-165 0,-125 3,-154 20,-194 25,-59 25,-60 -7,-37 -43,30 -69,35 -187,34 -90,-1 -114,-4 -135,-20 -49,-35 -51,-34 -30,15 18,41 21,67 20,188 -2,203 2,207 177,200 81,-3 108,-7 123,-21 z m 1,-501 c 14,-12 17,-40 20,-171 3,-156 5,-168 47,-247 5,-10 -9,-1 -59,40 -23,18 -40,20 -147,20 h -121 l -41,-33 c -23,-18 -41,-31 -41,-29 0,3 10,26 21,53 19,43 22,65 20,189 -2,151 7,185 47,195 12,3 71,4 130,2 78,-3 111,-7 124,-19 z m 492,6 26,-20 V 1029 629 l 31,-61 31,-61 -48,39 -47,39 -117,4 c -124,3 -149,-3 -197,-48 -34,-32 -35,-26 -8,35 l 25,56 v 389 c 0,397 3,433 39,442 9,3 66,5 127,6 98,1 114,-1 138,-20 z m -1478,-3 c 17,-13 19,-29 21,-170 1,-132 5,-162 22,-202 12,-26 21,-48 21,-51 0,-2 -18,10 -39,28 -39,31 -40,31 -165,33 -97,2 -129,-1 -138,-11 -6,-8 -24,-23 -40,-35 l -30,-21 26,51 c 25,49 26,60 26,206 0,127 3,157 16,170 21,22 250,23 280,2 z m 498,-8 c 13,-18 16,-53 16,-168 0,-134 2,-149 25,-199 l 25,-54 -22,17 c -13,9 -33,23 -46,32 -17,13 -48,16 -141,17 -123,1 -140,-4 -186,-49 -17,-17 -17,-17 -10,6 4,14 14,37 21,52 10,19 14,69 14,175 0,201 -7,193 160,193 122,0 130,-1 144,-22 z m 3,-500 c 22,-21 23,-28 23,-173 0,-143 1,-155 25,-200 l 26,-47 -43,31 -42,31 h -376 -377 l -41,-30 -41,-29 18,40 c 10,21 21,42 24,46 4,3 7,74 7,157 0,121 3,156 16,174 l 15,22 h 371 c 368,0 372,0 395,-22 z m 485,5 c 16,-14 18,-33 18,-165 0,-149 4,-171 48,-252 3,-6 -12,4 -34,22 -38,30 -41,31 -164,34 -69,2 -129,0 -135,-4 -5,-4 -25,-19 -42,-34 -18,-14 -33,-24 -33,-21 0,2 10,26 22,53 19,44 21,64 19,180 -2,99 1,139 13,167 l 15,37 h 127 c 105,0 131,-3 146,-17 z"
       id="path24"
       inkscape:connector-curvature="0" />
    <path
       d="m 8374,1495 c -18,-27 -13,-58 8,-50 8,3 22,0 32,-8 15,-11 17,-22 10,-86 -4,-40 -10,-67 -14,-61 -6,9 -13,9 -29,1 -19,-11 -21,-20 -21,-115 0,-157 10,-150 -236,-154 -165,-3 -202,-6 -216,-19 -16,-15 -18,-41 -18,-275 0,-245 1,-259 20,-278 20,-20 33,-20 748,-20 693,0 730,1 745,18 15,16 17,51 17,279 0,235 -2,261 -18,276 -14,13 -51,16 -214,19 -173,3 -199,5 -215,21 -15,14 -19,39 -21,135 l -4,118 -29,-2 -30,-2 3,76 c 3,77 3,77 31,76 21,0 27,4 27,21 0,12 -8,29 -18,38 -16,15 -51,17 -280,17 h -262 z m 328,-34 c 109,-1 108,1 108,-182 0,-141 2,-153 26,-200 14,-28 24,-53 22,-54 -2,-2 -19,9 -37,26 -19,16 -36,29 -40,29 -3,1 -58,2 -121,4 -120,2 -136,-2 -187,-48 -29,-24 -29,-17 -2,36 19,36 22,61 23,192 1,83 6,159 10,168 9,20 59,37 96,32 14,-1 60,-3 102,-3 z M 8316,946 c 17,-13 19,-29 21,-174 1,-140 4,-164 22,-200 29,-56 27,-58 -18,-23 -38,30 -41,31 -160,33 l -120,2 -45,-32 -45,-33 24,53 c 23,49 25,65 25,202 0,194 -7,186 155,186 89,0 126,-4 141,-14 z m 476,-3 c 16,-14 18,-33 18,-165 0,-139 2,-152 25,-198 14,-27 25,-52 25,-56 0,-3 -18,8 -39,25 -39,31 -41,32 -161,32 -121,1 -122,1 -166,-30 l -44,-32 10,25 c 5,15 15,38 23,54 9,19 12,68 11,167 -2,134 3,170 30,187 6,4 65,8 130,8 97,0 123,-3 138,-17 z m 480,0 c 16,-14 18,-33 18,-163 0,-136 2,-152 25,-205 l 25,-57 -43,32 c -42,30 -47,31 -158,32 -118,2 -141,-4 -186,-45 -28,-25 -29,-18 -3,34 18,34 21,61 23,198 1,117 6,162 16,174 20,25 256,25 283,0 z"
       id="path26"
       inkscape:connector-curvature="0" />
  </g>
</svg>
