<?xml version="1.0" standalone="no"?>
<!DOCTYPE svg PUBLIC "-//W3C//DTD SVG 20010904//EN"
 "http://www.w3.org/TR/2001/REC-SVG-20010904/DTD/svg10.dtd">
<svg version="1.0" xmlns="http://www.w3.org/2000/svg"
 width="1024.000000pt" height="1024.000000pt" viewBox="0 0 1024.000000 1024.000000"
 preserveAspectRatio="xMidYMid meet">
<metadata>
Created by potrace 1.15, written by Peter Selinger 2001-2017
</metadata>
<g transform="translate(0.000000,1024.000000) scale(0.100000,-0.100000)"
fill="#000000" stroke="none">
<path d="M4750 9780 c-164 -7 -270 -18 -365 -39 -22 -5 -62 -14 -90 -20 -27
-6 -66 -15 -85 -20 -19 -6 -51 -14 -70 -19 -52 -14 -322 -105 -420 -142 -130
-48 -191 -70 -240 -86 -25 -8 -54 -19 -65 -24 -27 -11 -112 -42 -220 -80 -49
-18 -126 -45 -170 -60 -44 -16 -127 -45 -185 -64 -137 -46 -490 -168 -560
-194 -30 -11 -82 -30 -115 -42 -95 -35 -113 -47 -124 -84 -15 -57 12 -6900 29
-7335 11 -254 9 -250 98 -289 48 -21 76 -31 272 -102 164 -60 457 -170 530
-200 25 -10 155 -62 290 -115 135 -53 261 -104 280 -112 19 -8 45 -19 58 -24
12 -5 32 -13 45 -18 43 -19 283 -110 357 -136 162 -58 312 -89 600 -127 124
-16 912 -16 1150 0 96 7 249 17 340 22 91 6 226 15 300 20 74 5 205 14 290 20
85 6 218 15 295 20 77 5 228 14 335 20 530 29 616 38 681 71 24 12 41 30 49
51 16 43 27 368 36 1088 7 530 6 574 -9 562 -9 -8 -66 -95 -127 -193 -182
-293 -264 -391 -347 -417 -84 -26 -153 59 -172 213 -17 129 -33 517 -30 681 4
150 4 150 41 225 51 103 189 280 438 562 50 57 140 184 180 253 70 123 81 167
91 369 4 99 10 1326 11 2725 l3 2545 -42 86 c-40 82 -99 170 -132 197 -37 30
-91 50 -161 60 -156 23 -629 57 -1135 82 -340 17 -725 40 -1000 60 -179 13
-723 19 -935 10z m725 -80 c241 -18 449 -30 680 -40 444 -19 671 -30 820 -41
83 -6 247 -12 365 -14 118 -2 243 -9 278 -14 34 -6 95 -16 135 -22 81 -14 160
-46 150 -62 -7 -12 -32 -11 -813 33 -102 6 -268 15 -370 20 -102 6 -264 15
-360 20 -96 6 -254 15 -350 20 -96 5 -254 14 -350 20 -96 5 -258 14 -360 20
-541 29 -600 34 -600 49 0 28 462 35 775 11z m-955 -62 c7 -24 16 -54 20 -68
33 -105 67 -457 76 -801 5 -185 4 -240 -6 -260 -10 -18 -13 -93 -13 -314 1
-248 3 -296 17 -328 24 -55 34 -545 16 -766 -10 -119 -10 -174 -2 -217 19
-104 20 -99 -10 -102 -33 -4 -36 -18 -8 -40 38 -31 42 -154 38 -1334 -3 -1061
-4 -1115 -22 -1150 -21 -43 -16 -68 13 -68 27 0 31 -18 31 -150 l0 -119 -95
-48 c-52 -26 -96 -52 -99 -59 -2 -6 0 -31 5 -55 5 -24 14 -64 18 -89 47 -239
50 -250 76 -260 26 -10 35 -29 35 -78 0 -20 4 -84 10 -142 5 -58 15 -185 22
-282 17 -260 2 -304 -118 -357 -37 -17 -44 -24 -40 -43 23 -118 29 -148 36
-178 8 -33 16 -68 40 -175 6 -25 15 -65 20 -90 6 -25 14 -64 20 -87 5 -24 14
-68 21 -98 6 -30 16 -68 22 -83 7 -19 7 -44 -1 -80 -6 -29 -16 -92 -22 -142
-6 -49 -16 -121 -23 -160 -8 -46 -11 -184 -10 -406 l1 -336 -71 -36 c-112 -55
-136 -62 -217 -60 -94 3 -215 40 -390 121 -67 31 -306 128 -350 142 -14 5 -63
22 -110 40 -47 17 -110 40 -140 50 -30 10 -107 37 -170 60 -63 23 -140 50
-170 60 -30 10 -91 32 -135 48 -44 17 -116 44 -160 60 -242 90 -499 205 -524
236 -12 15 -30 3925 -27 6170 l1 1328 1060 354 c583 194 1065 353 1071 354 13
0 34 -123 26 -152 -5 -19 -67 -51 -217 -113 -49 -20 -94 -40 -100 -45 -5 -4
-19 -10 -30 -13 -11 -3 0 -3 25 0 25 3 72 13 105 23 33 10 94 29 135 41 41 12
82 28 91 35 15 13 24 51 50 212 7 39 16 72 20 72 26 0 27 -75 10 -1250 -9
-656 -13 -1937 -14 -4005 0 -2833 4 -3495 23 -3495 9 0 16 231 31 1005 8 398
11 1223 8 2450 -7 3134 -5 3328 33 3930 16 246 16 520 1 665 -39 367 -44 452
-29 537 16 90 52 183 71 183 6 0 18 -19 25 -42z m235 -41 c77 -17 155 -23 445
-38 498 -24 598 -29 780 -39 107 -5 276 -14 375 -20 347 -19 562 -30 795 -40
789 -34 805 -36 901 -137 59 -61 69 -81 69 -137 0 -62 -22 -61 -97 5 -31 27
-87 64 -123 82 -62 30 -71 32 -185 32 -134 0 -163 -8 -296 -76 l-79 -41 -183
6 c-629 21 -1122 44 -1227 57 -110 14 -137 23 -245 87 -49 29 -106 57 -125 63
-180 54 -353 53 -535 -2 -32 -9 -63 -15 -67 -13 -4 3 -8 25 -8 50 0 24 -4 44
-9 44 -12 0 -97 -103 -115 -139 -50 -100 -56 -389 -56 -2763 l0 -2116 50 -55
c28 -31 93 -87 144 -127 91 -69 135 -106 299 -253 205 -186 335 -227 656 -206
239 15 205 33 -84 44 -205 9 -289 24 -403 76 -59 27 -150 120 -182 184 -47 97
-99 162 -187 236 -137 115 -153 130 -193 189 -77 113 -84 175 -71 589 11 344
17 962 26 2701 6 1002 15 1332 40 1379 19 37 64 80 105 101 61 31 136 40 317
40 l177 0 70 -49 c97 -67 180 -106 251 -119 33 -7 195 -16 360 -22 165 -6 352
-15 415 -20 167 -15 324 -30 415 -40 246 -27 239 -28 440 43 39 14 104 35 145
47 41 12 86 26 99 31 45 18 162 12 216 -11 99 -42 138 -89 172 -204 8 -28 22
-62 31 -76 16 -23 17 -99 17 -885 0 -809 -5 -967 -26 -860 -4 22 -8 87 -8 143
-1 80 3 110 16 132 15 26 15 39 5 118 -7 49 -17 182 -24 296 -9 168 -9 211 2
231 15 27 9 170 -9 217 -30 79 -159 97 -871 118 -444 14 -1059 37 -1295 50
-99 6 -299 14 -445 20 -146 5 -327 12 -402 16 l-137 6 -5 -23 c-7 -35 -15
-425 -22 -1124 -5 -468 -4 -639 6 -702 11 -75 23 -104 36 -90 11 11 12 55 13
466 l1 423 38 -5 c20 -3 298 -13 617 -21 674 -19 1367 -44 1575 -57 80 -5 303
-8 495 -7 l350 3 -3 -320 c-5 -394 -14 -541 -36 -563 -14 -14 -148 -16 -1368
-14 -1293 1 -1686 -7 -988 -22 179 -3 510 -11 735 -16 226 -5 640 -14 920 -19
281 -6 565 -13 633 -17 l123 -6 -2 -128 c-1 -70 2 -133 6 -140 5 -7 12 -327
16 -710 5 -384 13 -725 18 -759 12 -72 14 -63 -86 -314 -42 -103 -73 -190 -69
-194 4 -4 33 20 66 52 33 32 63 56 66 52 7 -6 -21 -51 -124 -199 l-39 -56 -7
-199 c-7 -207 -21 -359 -37 -402 -15 -37 -103 -150 -244 -311 -142 -163 -222
-278 -254 -363 -18 -48 -21 -80 -21 -195 0 -126 23 -634 35 -762 21 -243 28
-292 45 -312 23 -29 47 -18 66 29 9 21 30 53 47 71 32 33 119 72 163 72 24 0
26 -2 20 -35 -4 -19 -3 -35 2 -35 5 0 71 94 146 209 75 114 152 226 171 247
l34 39 1 -38 c0 -67 -61 -189 -194 -387 l-50 -75 -8 -335 c-4 -184 -10 -349
-13 -366 -15 -83 -99 -111 -500 -165 -310 -43 -624 -59 -1191 -62 -574 -2
-612 1 -674 63 -29 29 -38 48 -48 102 -22 120 -6 438 24 468 8 8 20 7 40 0 48
-19 219 -16 249 4 43 28 29 36 -60 36 -149 0 -208 32 -425 233 -288 266 -515
502 -559 580 -25 45 -25 47 -6 47 54 0 177 -101 440 -359 240 -235 292 -271
425 -286 71 -8 131 -44 170 -100 49 -72 67 -61 104 61 33 109 45 216 56 518
21 550 10 660 -79 789 -16 24 -112 129 -213 233 -101 104 -198 213 -216 241
-52 82 -62 141 -60 384 2 267 -5 294 -116 405 -81 81 -341 260 -352 243 -6
-11 -19 -180 -30 -414 -6 -134 -10 -165 -23 -165 -13 0 -121 93 -121 103 0 5
12 6 26 3 15 -4 38 -9 53 -12 l26 -5 0 2638 c0 2720 0 2673 -37 2833 -6 25
-28 97 -49 161 -22 65 -39 127 -39 139 0 21 3 22 48 17 26 -3 79 -12 117 -20z
m805 -1127 c124 -5 344 -14 490 -20 146 -6 373 -15 505 -20 132 -5 364 -14
515 -20 151 -6 367 -15 479 -20 112 -6 252 -10 312 -10 84 0 111 -3 123 -16
14 -14 16 -69 16 -453 0 -355 -3 -441 -14 -456 -14 -20 -45 -20 -1511 25 -165
5 -496 14 -735 20 -239 6 -518 14 -620 18 l-185 7 -7 115 c-25 453 -19 727 19
819 l14 34 187 -7 c103 -4 288 -11 412 -16z m-657 -4269 c43 -30 197 -184 235
-234 50 -67 80 -279 62 -435 -6 -54 -13 -103 -16 -110 -5 -17 -134 71 -217
147 -61 57 -123 141 -148 201 -11 27 -14 79 -12 220 3 250 12 270 96 211z
m3157 -188 c0 -117 -56 -273 -97 -273 -14 0 -15 14 -10 108 7 117 34 231 63
263 17 19 19 19 31 3 8 -11 13 -49 13 -101z m-3435 -280 c158 -106 382 -302
656 -574 402 -399 421 -430 400 -682 -6 -73 -15 -202 -21 -287 -28 -410 -37
-461 -87 -519 -44 -52 -98 -73 -149 -60 -76 21 -140 69 -339 255 -193 179
-250 229 -355 307 -166 123 -200 165 -200 247 0 57 22 69 73 42 42 -23 219
-163 384 -303 48 -42 104 -86 123 -98 57 -35 122 -26 161 23 19 22 53 124 64
191 4 22 11 60 16 85 35 174 46 328 29 423 -22 124 -65 184 -299 417 -102 102
-240 228 -306 281 -190 153 -225 191 -225 252 0 35 23 36 75 0z m82 -252 c57
-73 58 -87 57 -536 0 -390 -5 -485 -23 -485 -25 0 -47 169 -56 415 -9 291 -24
578 -31 619 -9 50 8 46 53 -13z m269 -334 c127 -130 166 -180 208 -267 42 -88
42 -83 9 -667 -4 -72 -9 -93 -20 -93 -30 0 -112 67 -232 189 l-123 126 6 200
c3 110 6 298 6 418 0 176 3 217 14 217 7 0 67 -55 132 -123z m329 -283 c34
-61 45 -152 31 -269 -8 -78 -15 -100 -27 -103 -17 -3 -20 12 -34 168 -3 30
-10 92 -17 136 -16 121 2 148 47 68z m-579 -1001 c9 -20 18 -52 21 -70 7 -44
17 -42 33 10 7 23 16 45 20 50 4 4 17 -24 30 -62 l23 -69 57 -21 c106 -39 306
-236 368 -361 27 -55 27 -56 30 -305 2 -151 7 -262 14 -280 15 -40 64 -92 108
-115 55 -28 286 -59 445 -61 102 -1 126 -14 40 -22 -102 -10 -1395 -8 -1395 1
0 5 25 39 55 77 l55 69 0 136 c0 298 35 1011 51 1043 15 26 29 20 45 -20z
m3262 -299 c4 -164 -15 -484 -31 -531 -16 -48 -64 -113 -83 -113 -7 0 -16 5
-19 10 -10 16 -6 358 5 466 10 95 39 188 83 261 33 56 42 37 45 -93z"/>
<path d="M4306 9042 c-14 -24 -41 -585 -28 -607 9 -18 11 -11 33 200 16 153
23 395 11 407 -6 6 -12 6 -16 0z"/>
<path d="M3826 8287 c-8 -12 -36 -66 -61 -120 l-46 -98 11 -792 c13 -1005 29
-2456 39 -3664 4 -519 10 -945 13 -948 14 -14 23 1210 23 3197 0 2175 0 2186
20 2215 32 44 58 108 70 169 11 55 -40 86 -69 41z"/>
<path d="M3940 8249 c0 -5 6 -40 14 -77 29 -135 36 -190 46 -327 6 -84 10
-1075 11 -2475 2 -2185 9 -3211 25 -3270 l6 -25 11 25 c13 29 24 1952 26 4423
l1 1529 -36 71 c-52 104 -104 167 -104 126z"/>
<path d="M3265 7697 c-8 -30 12 -658 25 -801 6 -61 12 -133 14 -161 2 -27 2
137 0 365 -3 228 -7 461 -11 518 -5 98 -16 128 -28 79z"/>
<path d="M2311 7551 c-23 -42 -35 -278 -23 -442 14 -200 32 -251 63 -176 11
24 14 88 13 262 -2 288 -21 417 -53 356z"/>
<path d="M2695 7115 c-80 -15 -178 -48 -213 -71 -15 -10 -33 -13 -53 -9 -33 7
-36 -2 -18 -55 l12 -33 13 26 c12 23 21 26 91 32 134 11 406 46 448 57 44 11
75 34 75 55 0 18 -256 16 -355 -2z"/>
<path d="M2945 7005 c-27 -7 -97 -18 -155 -25 -208 -25 -335 -61 -348 -99 -4
-11 2 -12 24 -8 54 12 249 36 389 47 168 14 217 22 222 35 5 15 -46 65 -65 64
-9 0 -39 -7 -67 -14z"/>
<path d="M2745 6838 c-142 -22 -165 -29 -165 -47 0 -10 9 -26 20 -36 28 -25
25 -39 -10 -52 -33 -12 -37 -30 -19 -81 6 -18 19 -32 33 -36 20 -5 46 -42 46
-66 0 -16 -27 -11 -62 10 -18 11 -46 20 -61 20 -27 0 -28 2 -22 30 5 25 3 30
-12 30 -10 0 -27 -7 -37 -15 -25 -19 -52 -19 -60 0 -4 10 6 21 31 33 39 18 61
60 62 119 1 37 -13 47 -79 58 -25 3 -53 9 -62 11 -29 8 -21 -17 18 -57 41 -42
40 -69 0 -69 -14 0 -32 -7 -40 -16 -29 -29 -19 -69 34 -138 73 -95 76 -106 55
-162 -17 -44 -19 -46 -50 -40 -27 5 -35 3 -40 -13 -10 -31 14 -153 40 -203
l24 -48 -34 0 -35 0 0 -50 c0 -44 5 -56 38 -93 48 -52 54 -68 41 -107 -8 -22
-17 -30 -34 -30 -28 0 -55 -24 -55 -49 0 -10 20 -44 45 -75 43 -56 45 -61 45
-128 0 -38 4 -77 10 -87 5 -10 36 -38 69 -62 34 -24 61 -48 61 -53 0 -5 -40
-6 -90 -4 -63 4 -90 2 -90 -6 -3 -63 -10 -112 -20 -136 -13 -31 -8 -60 10 -60
5 0 10 9 10 20 0 11 3 20 6 20 3 0 17 -9 31 -20 28 -22 64 -26 94 -10 30 17
23 42 -26 90 -42 41 -57 70 -36 70 5 0 32 -16 60 -35 41 -29 60 -35 101 -35
27 0 50 -2 50 -5 0 -3 -12 -24 -27 -46 -17 -25 -23 -43 -17 -49 11 -11 212
-34 241 -28 14 3 18 14 18 53 0 48 1 50 29 53 l28 4 -7 -54 -7 -53 31 29 c29
28 69 121 57 133 -3 3 -37 5 -75 4 -74 -2 -87 7 -75 54 6 26 29 35 95 35 73 0
78 -8 81 -140 l3 -115 98 -3 c74 -2 97 0 98 10 2 39 -3 211 -10 333 -9 168 -7
179 27 170 22 -5 24 -4 18 17 -4 13 -13 154 -21 313 -8 160 -20 375 -25 480
-13 224 -16 231 -94 220 l-48 -6 21 33 c33 53 45 78 38 84 -3 3 -30 7 -59 8
l-53 1 4 -35 c7 -59 6 -75 -4 -79 -13 -6 -52 74 -59 123 -11 69 -20 76 -84 75
-31 -1 -84 -6 -117 -11z m395 -547 c15 -4 26 -15 28 -28 5 -32 -43 -53 -121
-53 -71 0 -91 12 -85 52 2 17 11 24 38 29 47 9 110 9 140 0z m-500 -140 c35
-10 41 -56 8 -65 -30 -8 -152 -8 -172 0 -25 9 -20 53 7 64 26 10 121 11 157 1z
m504 -121 c21 -8 26 -16 26 -44 0 -32 -3 -36 -35 -42 -39 -7 -161 -2 -170 8
-3 3 -2 21 3 39 7 30 13 35 48 40 63 10 101 10 128 -1z m-21 -272 c38 -8 47
-14 47 -31 -1 -45 -26 -61 -98 -65 -37 -1 -73 1 -80 6 -15 10 -27 74 -18 97 6
17 48 16 149 -7z m-6 -264 c22 -4 33 -14 42 -41 11 -29 11 -37 0 -45 -20 -13
-111 -3 -148 16 -39 20 -44 62 -8 69 36 7 82 7 114 1z"/>
<path d="M2438 5074 c-15 -14 -8 -24 30 -42 60 -30 115 -40 317 -52 225 -15
282 -8 305 33 13 23 13 29 1 36 -8 5 -89 12 -180 15 -91 3 -233 9 -316 12 -82
3 -153 2 -157 -2z"/>
<path d="M2540 4933 c-19 -7 -40 -33 -40 -49 0 -6 24 -14 58 -18 91 -11 464
-26 489 -20 28 7 32 50 6 58 -59 18 -480 42 -513 29z"/>
<path d="M3256 4798 c-6 -41 7 -372 20 -523 4 -38 12 -79 18 -90 9 -16 12 0
17 85 7 108 -6 455 -19 524 -10 55 -28 56 -36 4z"/>
<path d="M2406 4795 c-4 -10 0 -28 9 -41 15 -24 17 -24 203 -24 116 0 229 -6
297 -16 61 -8 134 -18 163 -21 l52 -5 0 40 0 40 -47 7 c-87 13 -275 25 -474
32 -182 5 -196 4 -203 -12z"/>
<path d="M2504 4657 c-14 -37 2 -45 106 -52 112 -8 440 3 440 15 0 15 -101 26
-427 46 -99 6 -113 5 -119 -9z"/>
<path d="M2507 4533 c-27 -4 -58 -46 -44 -59 13 -14 417 -44 580 -44 109 0
101 23 -20 56 -127 35 -429 63 -516 47z"/>
<path d="M2610 4388 c0 -15 51 -51 93 -67 44 -17 179 -14 215 5 59 29 52 32
-118 53 -195 24 -190 24 -190 9z"/>
<path d="M2540 4298 c1 -34 41 -99 67 -109 33 -13 130 -26 266 -35 l97 -7 0
36 c0 20 -4 39 -10 42 -5 3 -49 10 -97 16 -137 15 -214 30 -261 51 -51 21 -62
22 -62 6z"/>
<path d="M2403 4152 c-19 -3 -23 -10 -23 -37 0 -31 4 -35 38 -45 63 -18 342
-34 356 -20 15 16 -30 52 -86 67 -88 25 -236 43 -285 35z"/>
<path d="M2860 4102 c0 -5 14 -26 30 -47 17 -21 30 -42 30 -47 0 -33 -175 -50
-287 -29 -166 32 -194 34 -212 16 -15 -15 -15 -17 1 -29 10 -7 59 -19 110 -25
111 -15 264 -48 297 -66 40 -21 6 -28 -82 -16 -45 5 -125 15 -177 21 -52 6
-116 13 -142 16 l-48 6 0 -45 c0 -25 4 -49 10 -52 5 -3 44 -10 87 -15 43 -5
186 -23 318 -40 335 -44 375 -47 375 -27 0 24 -32 37 -118 47 -42 5 -90 13
-107 18 -34 10 -40 35 -10 41 18 3 177 -13 233 -25 20 -4 22 -1 22 41 0 51
-24 108 -43 102 -7 -2 -13 -25 -15 -50 l-3 -47 -57 1 c-31 1 -70 4 -87 8 -36
7 -59 48 -49 86 6 25 9 26 53 21 105 -14 106 -14 106 19 0 25 5 32 33 40 17 5
32 12 32 16 0 15 -100 43 -190 54 -30 3 -67 8 -82 11 -16 3 -28 1 -28 -4z"/>
<path d="M2414 3745 c-10 -26 8 -49 47 -57 220 -50 257 -56 281 -44 26 13 37
54 16 60 -11 3 -103 19 -305 53 -25 4 -34 1 -39 -12z"/>
<path d="M2843 3688 c-12 -15 -2 -48 18 -64 8 -6 41 -16 74 -24 33 -7 76 -16
95 -21 19 -5 50 -9 68 -9 31 0 32 2 32 39 0 44 -13 52 -115 69 -126 22 -161
24 -172 10z"/>
<path d="M2383 3603 c-10 -25 10 -45 58 -58 129 -36 444 -47 444 -16 0 15 -41
25 -215 50 -47 7 -107 16 -135 21 -117 20 -145 21 -152 3z"/>
<path d="M2961 3526 c-17 -20 -6 -50 22 -63 38 -17 134 -36 151 -30 10 4 16
18 16 36 0 41 -29 58 -110 66 -53 6 -68 4 -79 -9z"/>
<path d="M2400 3459 c0 -42 117 -71 531 -129 201 -28 199 -28 199 15 0 41 5
39 -125 55 -55 6 -125 16 -155 20 -30 5 -91 14 -135 20 -44 5 -128 17 -186 25
-133 19 -129 19 -129 -6z"/>
<path d="M2381 3341 c-42 -42 -25 -51 125 -75 55 -9 123 -21 153 -26 66 -12
121 -13 121 -2 0 17 -47 51 -93 66 -50 17 -159 40 -239 51 -39 6 -49 4 -67
-14z"/>
<path d="M2862 3268 c-13 -17 1 -54 25 -66 26 -14 199 -52 234 -52 27 0 29 3
29 39 0 47 -13 54 -150 76 -115 18 -125 18 -138 3z"/>
<path d="M2402 3189 c3 -34 3 -34 68 -42 212 -25 298 -42 549 -108 81 -22 84
-22 97 -4 16 21 18 51 6 59 -18 11 -522 102 -670 121 l-53 7 3 -33z"/>
<path d="M2387 3093 c-12 -11 -7 -60 7 -72 7 -6 87 -18 177 -26 207 -18 239
-25 374 -76 62 -23 129 -42 155 -43 44 -1 45 0 48 33 2 20 -2 37 -10 42 -19
13 -104 35 -178 48 -71 12 -285 51 -449 82 -119 22 -115 21 -124 12z"/>
<path d="M2573 2769 c-35 -36 -6 -49 220 -95 75 -15 139 -25 142 -22 11 11 -7
36 -43 55 -94 53 -291 91 -319 62z"/>
<path d="M2424 2686 c-10 -27 1 -50 33 -68 75 -44 304 -64 311 -27 3 17 -80
47 -245 89 -97 24 -92 24 -99 6z"/>
<path d="M2410 2566 c0 -64 196 -158 430 -205 188 -38 214 -37 190 9 -14 26
-85 62 -186 94 -74 23 -416 116 -428 116 -3 0 -6 -6 -6 -14z"/>
<path d="M2350 2251 c0 -33 108 -76 370 -145 144 -38 170 -45 435 -126 237
-72 441 -122 500 -124 44 -1 50 2 53 21 4 28 -11 36 -128 63 -162 38 -360 97
-586 175 -248 85 -360 118 -455 134 -80 13 -189 14 -189 2z"/>
<path d="M2270 2150 c0 -5 10 -35 21 -66 48 -129 134 -182 434 -269 196 -56
346 -102 530 -163 272 -89 415 -127 514 -138 118 -13 23 24 -439 174 -85 28
-315 102 -510 166 l-356 116 -88 95 c-82 89 -106 108 -106 85z"/>
<path d="M4875 9078 c-8 -58 -2 -474 8 -484 4 -4 10 -4 15 0 9 9 16 448 7 494
-8 45 -23 40 -30 -10z"/>
<path d="M5850 8929 c0 -34 22 -113 35 -127 9 -10 45 -14 120 -15 l107 -2 29
35 c16 20 30 50 31 69 4 53 -20 61 -184 61 -133 0 -138 -1 -138 -21z"/>
<path d="M6354 8941 c-55 -9 -99 -38 -84 -55 5 -8 28 -16 49 -20 25 -4 47 -15
60 -32 30 -38 18 -53 -47 -56 -54 -3 -57 -5 -60 -30 -3 -27 -1 -28 40 -28 24
0 63 6 88 14 62 18 76 47 61 129 -6 33 -14 64 -18 68 -14 13 -48 16 -89 10z"/>
<path d="M7460 8919 c-64 -39 -82 -89 -56 -151 32 -75 110 -107 176 -73 83 43
77 185 -9 230 -41 20 -69 19 -111 -6z"/>
<path d="M6550 8924 c0 -5 18 -26 40 -48 28 -27 40 -47 40 -67 0 -29 22 -40
35 -19 9 15 25 12 25 -4 0 -21 -39 -46 -71 -46 -20 0 -30 7 -39 30 -14 35 -30
38 -54 11 -29 -32 -17 -55 34 -62 166 -24 227 92 95 178 -35 23 -105 41 -105
27z"/>
<path d="M6950 8900 c-36 -4 -73 -11 -82 -15 -22 -9 -23 -44 -4 -89 12 -29 19
-34 61 -39 56 -8 213 2 221 14 2 5 -1 17 -8 28 -10 16 -10 23 0 33 6 6 12 22
12 35 0 41 -51 50 -200 33z"/>
<path d="M6538 8603 c-63 -5 -61 -19 5 -27 104 -12 527 -20 527 -9 0 18 -38
24 -210 33 -165 9 -234 10 -322 3z"/>
<path d="M5016 7261 c-7 -11 40 -18 199 -31 157 -13 315 -13 315 0 0 13 -25
18 -149 30 -127 12 -358 13 -365 1z"/>
<path d="M5345 6981 c-39 -7 -39 -7 30 -19 91 -15 414 -21 415 -7 2 20 -98 33
-250 33 -85 -1 -173 -4 -195 -7z"/>
<path d="M5480 6819 c-78 -15 -91 -19 -85 -29 8 -12 170 -12 296 0 103 10 132
17 123 31 -7 11 -273 10 -334 -2z"/>
<path d="M5020 6662 c0 -38 316 -72 671 -72 231 1 286 11 119 24 -47 3 -139
10 -205 16 -452 38 -585 45 -585 32z"/>
<path d="M4880 6458 c-28 -93 -8 -844 24 -875 16 -16 24 21 35 153 19 234 11
624 -14 742 -8 36 -31 26 -45 -20z"/>
<path d="M5110 6010 c-30 -11 -56 -20 -57 -20 -2 0 -3 -5 -3 -11 0 -19 427 4
446 24 20 19 -31 27 -176 26 -125 0 -166 -4 -210 -19z"/>
<path d="M6235 5938 c-164 -21 -109 -36 140 -37 188 -1 265 5 265 19 0 11
-167 30 -256 29 -43 -1 -110 -6 -149 -11z"/>
<path d="M5772 5796 c-97 -21 -59 -31 106 -29 157 3 262 16 262 34 0 13 -303
9 -368 -5z"/>
<path d="M5323 5532 c-177 -1 -283 -6 -283 -12 0 -6 51 -10 128 -10 70 -1 278
-5 462 -10 184 -5 697 -10 1140 -10 1088 -1 1148 0 1125 10 -11 5 -105 9 -210
9 -104 1 -338 6 -520 11 -336 11 -1330 17 -1842 12z"/>
<path d="M5452 5285 c-18 -15 -39 -42 -46 -60 -19 -45 -30 -241 -21 -390 6
-112 10 -129 31 -154 36 -43 107 -54 299 -47 88 3 529 9 979 12 l820 6 32 32
c39 39 54 102 54 224 0 108 -17 304 -31 354 l-10 38 -552 0 c-304 0 -770 3
-1037 6 l-485 6 -33 -27z m2072 -47 c8 -33 7 -511 -2 -524 -6 -9 -1003 -28
-2002 -38 l-65 -1 -3 280 c-1 154 0 285 3 292 3 10 214 13 1034 13 l1029 0 6
-22z"/>
<path d="M4836 5245 c-18 -48 -1 -424 26 -545 24 -115 91 -204 215 -288 105
-71 101 -58 -38 109 -62 74 -118 142 -126 151 -11 12 -17 62 -24 180 -19 349
-32 446 -53 393z"/>
<path d="M7960 4568 c-75 -111 -307 -321 -428 -385 -120 -65 -308 -113 -440
-113 -87 0 -112 11 -112 47 0 36 -72 103 -152 141 -120 58 -194 76 -303 76
-149 1 -206 -25 -365 -168 -119 -105 -150 -119 -277 -118 -144 1 -166 9 -477
171 -92 47 -126 60 -126 45 0 -15 79 -100 134 -143 103 -81 185 -115 336 -137
155 -22 322 -15 387 18 12 6 38 44 58 84 40 80 87 128 164 166 41 20 60 23
171 22 130 0 171 -9 262 -55 58 -30 130 -100 162 -160 123 -226 34 -548 -179
-645 -44 -20 -70 -25 -136 -25 -111 0 -185 35 -278 128 -116 119 -166 251
-141 376 25 124 111 238 221 295 120 62 107 85 -16 28 -117 -54 -220 -164
-260 -276 -20 -58 -21 -217 -1 -293 21 -82 71 -169 129 -227 130 -130 302
-146 474 -44 151 90 247 218 289 387 l16 67 160 0 c190 0 282 13 363 50 95 43
242 166 222 186 -4 4 -58 -19 -251 -110 -155 -73 -204 -86 -320 -86 -101 0
-101 0 -146 36 -54 43 -64 58 -47 72 7 6 89 15 183 21 182 12 206 16 299 62
124 61 379 318 453 457 56 104 34 142 -28 50z"/>
<path d="M6558 4171 c-52 -11 -119 -42 -112 -52 3 -5 56 -8 117 -7 85 0 121
-3 144 -15 58 -31 122 -122 138 -197 4 -19 16 -42 27 -51 l21 -16 -22 -68
c-30 -91 -54 -137 -99 -187 -40 -44 -125 -88 -171 -88 -47 0 -91 -12 -91 -25
0 -34 151 -50 207 -22 48 25 149 141 182 209 31 63 52 172 46 234 -14 122 -24
151 -77 201 -74 71 -205 106 -310 84z"/>
<path d="M6477 4086 c-46 -17 -72 -39 -102 -86 -57 -91 -80 -213 -53 -291 35
-102 126 -179 213 -179 29 0 55 3 58 6 4 4 -13 19 -36 34 -136 86 -201 249
-146 364 22 49 67 84 142 111 51 19 61 39 25 49 -34 9 -59 7 -101 -8z"/>
<path d="M7620 1450 c-14 -4 -52 -13 -85 -20 -113 -23 -131 -40 -70 -66 69
-28 172 -5 209 47 31 45 11 60 -54 39z"/>
<path d="M5780 8270 c-85 -10 -236 -28 -335 -40 -99 -12 -209 -24 -245 -27
-57 -6 -61 -7 -35 -14 16 -5 70 -4 120 1 49 5 153 14 230 20 77 6 185 15 240
20 55 5 134 12 175 15 81 7 107 16 96 34 -9 14 -58 13 -246 -9z"/>
<path d="M6985 7744 c-64 -8 -135 -26 -135 -35 0 -20 382 -5 455 18 l20 6 -20
8 c-19 7 -260 9 -320 3z"/>
<path d="M8005 3468 c-22 -33 -95 -138 -163 -232 -195 -273 -219 -334 -209
-541 12 -254 53 -487 94 -535 68 -81 189 12 296 226 l36 71 8 469 c9 510 8
604 -10 604 -7 0 -30 -28 -52 -62z m-15 -345 c30 -119 22 -397 -16 -548 -36
-141 -85 -248 -112 -243 -31 6 -45 83 -46 253 -1 179 18 292 77 454 51 143 76
165 97 84z m-235 -880 c-7 -47 -20 -56 -29 -20 -25 103 -35 465 -16 630 6 48
18 106 28 130 17 41 17 34 20 -328 2 -203 0 -389 -3 -412z"/>
<path d="M9343 1290 c-62 -14 -124 -65 -154 -123 -17 -32 -20 -55 -17 -148 2
-79 6 -109 16 -109 6 0 13 -8 14 -17 4 -48 29 -133 39 -133 5 0 9 7 9 15 0 11
12 15 53 15 61 0 83 -11 73 -35 -5 -15 -16 -17 -68 -12 -39 3 -56 2 -47 -4 8
-5 38 -9 67 -9 40 0 56 5 69 20 10 11 23 20 30 20 7 0 13 5 13 11 0 5 -8 9
-17 8 -34 -3 -43 1 -43 21 0 21 -32 34 -71 28 -16 -2 -23 -9 -21 -20 2 -13 -4
-18 -22 -18 -21 0 -26 6 -34 47 -6 26 -7 50 -2 53 4 3 10 16 11 29 3 19 11 24
47 26 39 3 42 2 43 -23 l1 -27 10 28 c13 35 24 34 32 -3 8 -40 26 -38 26 3 0
48 10 52 41 17 30 -33 44 -39 35 -15 -5 14 -4 14 16 0 25 -17 75 -20 97 -6 33
21 53 -52 29 -104 -9 -20 -17 -25 -32 -21 -12 3 -29 6 -39 6 -10 0 -16 4 -12
10 3 5 12 7 20 3 11 -4 13 -1 9 11 -6 16 -39 21 -68 10 -20 -8 -21 -24 -1 -24
8 0 15 -4 15 -10 0 -5 -6 -7 -12 -5 -24 8 -51 -21 -42 -47 l8 -23 6 25 c5 23
11 25 69 28 l64 3 -6 -27 -5 -28 17 23 c9 12 25 54 35 94 11 40 25 82 33 94 8
12 13 26 10 30 -3 4 -8 31 -11 58 -10 74 -11 78 -24 102 -15 28 -15 36 0 27
21 -14 -31 53 -67 84 -54 48 -149 64 -242 42z"/>
<path d="M2346 211 c-7 -11 3380 -21 4721 -14 590 4 1070 10 1067 15 -7 11
-5781 10 -5788 -1z"/>
</g>
</svg>
