<?xml version="1.0" standalone="no"?>
<!DOCTYPE svg PUBLIC "-//W3C//DTD SVG 20010904//EN"
 "http://www.w3.org/TR/2001/REC-SVG-20010904/DTD/svg10.dtd">
<svg version="1.0" xmlns="http://www.w3.org/2000/svg"
 width="1920.000000pt" height="1440.000000pt" viewBox="0 0 1920.000000 1440.000000"
 preserveAspectRatio="xMidYMid meet">
<metadata>
Created by potrace 1.15, written by Peter Selinger 2001-2017
</metadata>
<g transform="translate(0.000000,1440.000000) scale(0.100000,-0.100000)"
fill="#000000" stroke="none">
<path d="M5880 13942 c-19 -9 -48 -37 -65 -60 l-30 -44 -3 -698 -2 -699 579
-3 579 -3 44 -30 c23 -17 54 -51 68 -75 24 -43 25 -53 28 -242 l3 -198 375 -2
374 -3 0 65 c0 94 18 272 36 365 40 197 146 449 269 635 98 149 290 357 377
408 16 9 28 20 28 24 0 4 -322 8 -715 8 l-715 0 -24 -37 c-31 -49 -52 -68
-106 -92 -104 -47 -229 -14 -295 78 l-37 51 -148 0 -148 0 -26 31 -26 31 0
254 0 254 -192 0 c-164 0 -198 -3 -228 -18z"/>
<path d="M11610 13706 l0 -254 -26 -31 -26 -31 -155 0 -156 0 -61 -64 c-65
-68 -102 -86 -181 -86 -88 0 -145 34 -223 134 -13 16 -52 23 -52 8 0 -4 12
-15 28 -25 52 -31 259 -242 320 -325 170 -231 277 -478 339 -782 24 -121 25
-478 1 -605 -84 -444 -298 -813 -633 -1093 -284 -238 -598 -367 -1005 -413
-171 -20 -212 -21 -223 -10 -6 6 -31 11 -55 11 -116 0 -344 49 -494 105 -517
197 -917 612 -1089 1135 l-38 115 -1 -628 c0 -672 0 -670 -49 -697 -13 -7
-287 -10 -811 -10 -868 0 -829 -3 -862 58 -19 37 -19 1577 0 1614 31 58 34 58
466 58 l396 0 0 193 c0 217 -5 233 -76 278 l-39 24 -562 3 -563 3 0 -2481 0
-2480 485 0 c437 0 488 2 511 17 33 21 104 21 135 0 15 -11 43 -17 76 -17 47
0 53 2 53 21 0 60 73 116 139 105 50 -8 84 -36 101 -84 13 -37 18 -42 45 -42
17 0 49 9 70 20 43 23 92 20 129 -6 11 -8 39 -14 62 -14 39 0 41 2 53 39 18
63 92 105 150 86 39 -12 80 -55 87 -91 6 -32 9 -34 45 -34 l39 0 0 1120 c0
1205 -2 1148 50 1195 22 20 39 20 1516 23 l1494 2 0 111 c0 124 14 165 72 214
67 57 57 56 603 55 l505 0 0 1835 c0 1998 4 1871 -56 1927 -48 44 -72 48 -310
48 l-224 0 0 -254z m-4692 -5381 c61 -51 66 -132 13 -186 -77 -76 -198 -30
-209 81 -4 48 -3 52 36 90 35 35 45 40 85 40 34 0 53 -6 75 -25z m611 -1 c40
-34 56 -89 39 -139 -18 -54 -58 -80 -120 -80 -45 0 -53 4 -84 37 -27 30 -34
46 -34 78 0 81 47 129 127 130 30 0 50 -7 72 -26z m-301 -191 c30 -18 62 -71
62 -101 0 -38 -30 -92 -61 -107 -15 -8 -49 -15 -75 -15 -39 0 -51 5 -80 34
-30 30 -34 40 -34 84 0 40 6 57 26 81 41 49 107 59 162 24z m572 11 c91 -37
107 -163 28 -218 -34 -24 -119 -21 -151 5 -31 23 -52 86 -43 122 9 38 54 86
89 96 18 5 33 10 34 10 2 1 21 -6 43 -15z m-875 -114 c54 -51 57 -130 6 -181
-52 -51 -130 -48 -183 8 -18 20 -23 36 -23 80 0 51 3 57 39 90 35 33 42 35 87
31 33 -4 58 -13 74 -28z m596 7 c91 -61 62 -202 -47 -223 -72 -13 -144 46
-144 118 0 104 106 163 191 105z m-293 -197 c69 -42 79 -131 22 -189 -36 -36
-78 -46 -125 -31 -52 17 -85 62 -85 116 0 56 12 79 53 104 41 25 93 25 135 0z
m592 5 c42 -22 63 -68 57 -122 -16 -142 -217 -147 -243 -7 -13 71 46 144 117
144 22 0 53 -7 69 -15z m-900 -115 c61 -44 63 -137 4 -189 -103 -91 -252 26
-189 149 8 16 25 36 37 44 33 23 113 21 148 -4z m598 6 c46 -24 70 -88 52
-140 -23 -69 -88 -103 -156 -80 -56 19 -84 58 -84 118 0 41 5 53 34 82 29 29
41 34 80 34 26 0 59 -6 74 -14z"/>
<path d="M6800 8312 c-49 -24 -68 -77 -45 -125 30 -63 107 -77 156 -28 52 53
33 135 -38 162 -32 12 -32 12 -73 -9z"/>
<path d="M7413 8315 c-31 -13 -63 -59 -63 -90 0 -29 28 -71 55 -83 45 -21 84
-15 116 17 39 40 40 89 2 130 -34 36 -68 44 -110 26z"/>
<path d="M7125 8121 c-98 -41 -69 -191 37 -191 42 0 86 36 94 75 15 81 -57
146 -131 116z"/>
<path d="M7715 8119 c-62 -36 -74 -111 -26 -160 71 -70 192 2 161 96 -6 18
-19 40 -29 49 -24 22 -80 30 -106 15z"/>
<path d="M6804 8026 c-37 -16 -67 -74 -58 -111 9 -38 59 -75 101 -75 82 0 125
106 66 162 -36 33 -70 40 -109 24z"/>
<path d="M7413 8025 c-40 -17 -69 -71 -59 -110 19 -75 112 -100 167 -46 39 40
40 89 2 130 -34 36 -68 44 -110 26z"/>
<path d="M7114 7822 c-88 -55 -53 -182 50 -182 49 0 86 34 93 86 4 35 1 46
-23 73 -37 40 -79 48 -120 23z"/>
<path d="M7730 7833 c-8 -3 -27 -17 -42 -31 -60 -56 -17 -162 65 -162 42 0 92
37 101 75 17 67 -61 141 -124 118z"/>
<path d="M6782 7705 c-16 -14 -33 -36 -36 -50 -10 -39 18 -92 57 -111 99 -47
186 79 108 157 -38 38 -87 39 -129 4z"/>
<path d="M7388 7701 c-85 -76 8 -210 109 -157 64 32 69 130 10 166 -45 28 -81
25 -119 -9z"/>
<path d="M8530 13343 c-222 -188 -368 -370 -483 -600 -113 -224 -168 -432
-189 -709 -10 -136 -10 -157 5 -196 11 -28 17 -73 17 -126 0 -145 53 -334 149
-537 152 -320 425 -611 741 -790 212 -120 476 -201 723 -221 48 -4 90 -11 93
-15 7 -12 74 -12 74 0 0 4 44 11 98 15 405 28 803 205 1098 489 236 227 385
465 478 767 62 203 71 267 71 530 -1 206 -4 248 -23 340 -59 271 -167 513
-325 725 -67 90 -282 308 -344 349 -39 26 -43 27 -174 24 l-134 -3 35 -19
c132 -70 313 -216 416 -334 231 -264 358 -539 408 -883 9 -59 16 -125 16 -148
l0 -42 -82 3 -83 3 -7 80 c-50 569 -411 1052 -947 1265 -184 73 -230 80 -526
80 -327 0 -395 -14 -622 -120 -465 -218 -787 -691 -831 -1220 l-7 -85 -84 -3
-84 -3 7 93 c28 385 191 749 460 1026 115 119 243 222 333 270 29 15 53 30 53
35 0 4 -62 7 -138 7 l-137 0 -55 -47z m1050 -131 l0 -78 -88 -12 c-255 -34
-472 -137 -656 -312 -223 -211 -346 -478 -379 -820 -2 -24 -5 -25 -79 -28
l-78 -3 0 38 c0 54 27 226 47 298 152 553 647 961 1206 993 l27 2 0 -78z m318
52 c368 -74 712 -318 903 -641 106 -180 166 -370 184 -580 l8 -83 -80 0 -80 0
-6 78 c-8 104 -57 291 -100 385 -184 398 -554 660 -994 703 l-73 7 0 79 0 80
83 -7 c45 -4 115 -13 155 -21z m-32 -254 c246 -49 505 -217 656 -426 123 -172
188 -345 214 -566 l6 -58 -86 0 c-61 0 -88 4 -90 13 -2 6 -8 48 -14 92 -39
295 -239 567 -517 701 -97 47 -209 80 -311 90 l-64 7 0 87 0 87 58 -5 c31 -2
98 -12 148 -22z m-286 -63 l0 -82 -101 -18 c-390 -66 -702 -406 -746 -812 l-8
-70 -89 -3 -88 -3 7 68 c28 276 138 515 321 697 176 177 445 303 652 305 l52
1 0 -83z m0 -261 l0 -104 -47 -7 c-136 -20 -254 -86 -362 -201 -95 -101 -148
-215 -175 -376 l-7 -38 -96 0 -96 0 6 78 c17 225 167 477 363 609 123 83 267
137 382 142 l32 1 0 -104z m316 63 c221 -74 412 -242 515 -455 45 -93 79 -216
79 -286 l0 -48 -105 0 -105 0 0 28 c0 47 -40 174 -78 247 -25 47 -63 96 -117
150 -100 100 -206 157 -337 183 l-88 17 0 104 0 104 71 -7 c40 -3 114 -20 165
-37z m-1722 -871 c2 -7 9 -59 15 -114 78 -683 630 -1222 1309 -1280 l82 -7 0
-83 0 -84 -36 0 c-71 0 -248 32 -368 66 -449 128 -837 471 -1031 912 -69 156
-116 344 -131 520 l-7 82 82 0 c57 0 83 -4 85 -12z m290 -63 c9 -95 49 -257
86 -344 133 -311 381 -543 695 -650 92 -31 241 -61 301 -61 l34 0 0 -81 0 -82
-77 7 c-289 25 -573 154 -786 356 -239 227 -381 520 -413 858 l-7 72 80 0 80
0 7 -75z m268 10 c12 -97 56 -234 104 -324 135 -254 379 -426 662 -464 l82
-11 0 -89 0 -88 -57 6 c-258 30 -463 127 -644 305 -118 117 -146 155 -212 285
-60 119 -93 235 -112 393 l-7 53 88 -3 89 -3 7 -60z m262 43 c3 -13 10 -47 15
-75 25 -125 104 -260 203 -347 68 -59 195 -121 278 -137 36 -6 71 -13 78 -15
8 -2 12 -31 12 -100 l0 -97 -67 7 c-74 8 -187 42 -262 81 -123 62 -267 199
-341 325 -49 82 -99 230 -107 315 l-6 65 96 0 c92 0 97 -1 101 -22z m1496 -16
c0 -65 -37 -192 -84 -287 -83 -168 -205 -288 -381 -375 -110 -54 -193 -79
-297 -87 l-68 -6 0 102 0 101 38 0 c142 0 357 119 458 253 61 82 124 241 124
314 0 23 2 23 105 23 l105 0 0 -38z m244 -19 c-18 -173 -93 -374 -192 -512
-185 -262 -483 -433 -814 -466 l-68 -7 0 89 0 90 73 6 c128 11 276 62 404 139
73 44 204 166 258 242 82 116 145 274 160 401 4 33 9 63 12 68 2 4 42 7 89 7
l84 0 -6 -57z m251 -15 c-48 -504 -365 -926 -845 -1123 -94 -38 -288 -83 -391
-91 l-89 -7 0 82 0 81 44 0 c67 0 206 27 309 60 306 98 562 323 703 615 57
118 99 266 110 383 l7 72 79 0 80 0 -7 -72z m295 40 c-1 -131 -60 -388 -124
-541 -238 -568 -781 -956 -1405 -1003 l-91 -7 0 85 0 85 93 7 c528 40 1019
384 1231 863 68 154 126 386 126 506 l0 37 85 0 85 0 0 -32z"/>
<path d="M9460 13253 c-250 -41 -440 -123 -630 -272 -196 -155 -359 -390 -438
-631 -28 -87 -62 -257 -62 -314 l0 -46 50 0 c55 0 50 -9 65 112 22 174 101
378 205 534 67 100 222 254 320 318 157 103 329 169 492 188 l98 12 0 53 0 53
-37 -1 c-21 -1 -49 -4 -63 -6z"/>
<path d="M9680 13206 l0 -53 82 -7 c351 -29 696 -239 895 -543 99 -151 169
-344 188 -513 12 -103 9 -100 67 -100 l51 0 -7 80 c-3 44 -19 130 -35 192
-111 438 -456 801 -896 942 -78 26 -248 56 -312 56 l-33 0 0 -54z"/>
<path d="M9680 12948 l0 -65 68 -6 c99 -8 184 -32 291 -83 270 -127 465 -371
524 -654 9 -41 19 -92 22 -112 l6 -38 59 0 c60 0 60 0 60 29 0 92 -63 301
-127 419 -168 313 -484 525 -845 568 l-58 6 0 -64z"/>
<path d="M9425 12990 c-125 -27 -177 -45 -277 -97 -231 -122 -418 -339 -505
-590 -32 -93 -63 -231 -63 -284 0 -29 1 -29 59 -29 l59 0 7 43 c16 109 51 230
91 314 136 285 391 482 682 527 l77 12 3 62 c3 73 9 71 -133 42z"/>
<path d="M9485 12755 c-210 -46 -372 -150 -495 -315 -77 -104 -139 -245 -154
-350 -4 -25 -9 -57 -12 -72 l-6 -28 75 0 74 0 12 61 c18 89 62 196 108 265 92
135 254 247 398 277 l70 14 3 81 c2 45 -1 82 -5 81 -4 0 -35 -7 -68 -14z"/>
<path d="M9680 12686 l0 -83 60 -6 c122 -13 299 -111 391 -216 86 -98 150
-231 165 -340 l7 -51 82 0 83 0 -5 43 c-35 294 -260 574 -546 681 -59 22 -196
56 -227 56 -6 0 -10 -32 -10 -84z"/>
<path d="M8040 11816 c0 -148 75 -416 171 -607 236 -474 746 -823 1262 -865
l87 -7 0 56 0 56 -57 6 c-706 78 -1233 578 -1333 1264 -23 159 -14 141 -75
141 l-55 0 0 -44z"/>
<path d="M8330 11828 c0 -108 55 -317 118 -451 131 -276 329 -481 598 -615
133 -67 337 -126 464 -134 l45 -3 3 51 3 52 -88 12 c-532 75 -947 478 -1023
995 -19 135 -14 125 -70 125 -50 0 -50 0 -50 -32z"/>
<path d="M8580 11836 c0 -39 28 -164 56 -251 113 -347 437 -627 799 -690 131
-23 125 -25 125 44 l0 58 -90 17 c-298 54 -537 231 -671 497 -37 75 -89 245
-89 294 0 48 -9 55 -71 55 -56 0 -59 -1 -59 -24z"/>
<path d="M8830 11821 c0 -50 33 -157 76 -246 72 -150 200 -282 353 -363 76
-41 213 -82 270 -82 l31 0 0 68 0 67 -74 17 c-152 34 -297 126 -383 241 -59
79 -89 145 -115 252 l-21 85 -69 0 -68 0 0 -39z"/>
<path d="M10292 11793 c-27 -148 -143 -319 -277 -407 -69 -46 -182 -91 -267
-107 l-68 -12 0 -73 0 -73 38 5 c256 35 445 140 589 326 78 102 153 285 153
375 l0 33 -78 0 -77 0 -13 -67z"/>
<path d="M10586 11848 c-2 -7 -11 -53 -20 -103 -53 -275 -237 -511 -501 -641
-96 -47 -234 -89 -327 -99 l-58 -6 0 -60 c0 -58 0 -59 29 -59 113 0 337 68
466 143 120 69 256 189 337 297 78 104 150 272 183 425 24 116 25 115 -45 115
-40 0 -62 -4 -64 -12z"/>
<path d="M10856 11848 c-3 -7 -7 -38 -10 -69 -17 -163 -102 -385 -203 -527
-209 -294 -527 -475 -905 -517 l-58 -6 0 -55 0 -54 58 6 c243 26 486 114 672
245 106 74 264 237 334 343 115 174 193 387 211 574 l8 72 -52 0 c-33 0 -53
-5 -55 -12z"/>
<path d="M11136 11838 c-3 -13 -7 -50 -11 -83 -9 -97 -59 -284 -105 -391 -117
-275 -329 -522 -585 -681 -200 -125 -440 -204 -687 -228 l-68 -7 0 -55 0 -56
103 7 c226 15 516 112 717 241 290 185 502 434 633 745 59 141 117 383 117
493 l0 37 -55 0 c-49 0 -55 -2 -59 -22z"/>
<path d="M8910 13379 c-50 -20 -210 -130 -307 -212 -232 -195 -422 -492 -502
-784 -38 -140 -50 -200 -59 -306 l-8 -87 57 0 58 0 6 58 c10 91 53 308 76 375
33 101 134 297 201 393 77 108 236 268 346 347 100 72 262 155 362 186 41 13
79 27 85 32 13 12 -284 10 -315 -2z"/>
<path d="M10035 13382 c6 -5 50 -21 99 -37 362 -115 700 -425 867 -795 71
-157 106 -290 134 -512 l6 -48 56 0 56 0 -7 93 c-12 175 -68 371 -162 562
-137 280 -330 492 -614 673 l-104 67 -171 3 c-101 2 -166 0 -160 -6z"/>
<path d="M6217 11822 c-16 -17 -17 -87 -17 -799 0 -743 1 -781 18 -796 17 -16
86 -17 794 -17 l775 0 21 23 22 23 0 770 0 771 -23 21 -23 22 -776 0 c-738 0
-776 -1 -791 -18z m1310 -75 c17 -9 33 -24 37 -32 3 -9 6 -318 6 -686 l0 -670
-26 -24 -27 -25 -514 0 -515 0 -29 29 -29 29 0 664 c0 593 2 666 16 686 9 13
24 26 35 30 10 4 243 9 517 11 439 3 502 1 529 -12z"/>
<path d="M6631 11636 c-51 -28 -50 -23 -51 -599 l0 -539 29 -29 29 -29 315 0
315 0 106 114 106 113 -1 384 0 384 -130 108 -130 107 -282 0 c-215 -1 -288
-4 -306 -14z m383 -212 c3 -9 6 -33 6 -54 0 -71 3 -70 -151 -70 -153 0 -159 2
-159 70 0 68 6 70 159 70 117 0 140 -2 145 -16z m346 -343 c5 -11 10 -32 10
-46 0 -14 -5 -35 -10 -46 -10 -17 -23 -19 -160 -19 -137 0 -152 2 -170 20 -26
26 -25 58 2 87 21 22 28 23 169 23 136 0 149 -2 159 -19z m-345 -386 l0 -60
-140 -3 c-156 -3 -165 1 -165 64 0 66 -3 65 159 62 l146 -3 0 -60z"/>
<path d="M11206 10089 c-48 -11 -92 -42 -110 -77 -7 -15 -17 -75 -21 -134 l-7
-107 381 -3 381 -3 27 -28 28 -27 3 -715 2 -715 155 0 155 0 0 910 0 910 -477
-1 c-263 -1 -495 -5 -517 -10z"/>
<path d="M10770 9147 c-147 -78 -96 -307 69 -307 52 0 79 11 118 47 59 55 64
163 11 220 -28 31 -93 62 -129 63 -14 0 -45 -10 -69 -23z m112 -7 c20 -6 50
-26 67 -46 26 -29 31 -43 31 -87 0 -90 -54 -147 -137 -147 -73 0 -143 68 -143
139 0 26 41 120 53 121 1 0 20 7 42 15 49 17 42 17 87 5z"/>
<path d="M10779 9071 c-53 -53 -35 -138 35 -161 41 -13 75 -2 105 36 49 62 4
154 -74 154 -27 0 -44 -8 -66 -29z"/>
<path d="M11235 9156 c-17 -7 -45 -29 -62 -49 -125 -143 62 -348 216 -236 85
61 95 166 23 243 -50 53 -116 69 -177 42z m115 -22 c106 -43 118 -186 21 -251
-62 -42 -155 -22 -196 40 -45 70 -18 169 58 206 51 25 65 26 117 5z"/>
<path d="M11229 9071 c-38 -38 -39 -87 -4 -129 30 -36 70 -45 111 -26 90 43
59 184 -41 184 -27 0 -44 -8 -66 -29z"/>
<path d="M10190 8220 l0 -270 130 0 130 0 0 270 0 270 -130 0 -130 0 0 -270z
m110 0 l0 -230 -30 0 -30 0 0 230 0 230 30 0 30 0 0 -230z"/>
<path d="M10550 8220 l0 -270 130 0 130 0 0 270 0 270 -130 0 -130 0 0 -270z
m110 0 l0 -230 -30 0 -30 0 0 230 0 230 30 0 30 0 0 -230z"/>
<path d="M10900 8220 l0 -270 135 0 135 0 0 270 0 270 -135 0 -135 0 0 -270z
m120 0 l0 -230 -30 0 -30 0 0 230 0 230 30 0 30 0 0 -230z"/>
<path d="M11270 8220 l0 -270 135 0 135 0 0 270 0 270 -135 0 -135 0 0 -270z
m120 0 l0 -230 -30 0 -30 0 0 230 0 230 30 0 30 0 0 -230z"/>
<path d="M8136 8289 c-36 -43 -35 -91 3 -130 22 -21 39 -29 65 -29 85 0 131
106 71 165 -18 19 -35 25 -69 25 -37 0 -48 -5 -70 -31z"/>
<path d="M8746 8295 c-41 -38 -39 -97 5 -137 41 -39 90 -38 130 1 38 39 39 87
3 130 -34 41 -97 44 -138 6z"/>
<path d="M11892 7133 l3 -1088 153 -3 152 -3 0 1091 0 1090 -155 0 -155 0 2
-1087z"/>
<path d="M8478 8114 c-57 -31 -66 -107 -19 -155 35 -34 72 -37 118 -9 61 37
53 138 -13 166 -41 17 -52 17 -86 -2z"/>
<path d="M9084 8120 c-30 -12 -64 -58 -64 -87 0 -56 48 -103 105 -103 13 0 37
11 53 25 56 47 51 118 -10 155 -36 22 -51 23 -84 10z"/>
<path d="M8183 8032 c-12 -2 -34 -17 -48 -33 -75 -89 38 -209 129 -138 51 40
54 98 10 143 -26 25 -54 34 -91 28z"/>
<path d="M8794 8032 c-12 -2 -34 -16 -49 -32 -39 -41 -38 -95 4 -132 43 -39
92 -38 132 1 67 67 8 178 -87 163z"/>
<path d="M8483 7825 c-91 -39 -59 -185 42 -185 101 0 131 141 40 185 -39 18
-41 18 -82 0z"/>
<path d="M9084 7830 c-30 -12 -64 -58 -64 -87 0 -86 94 -132 158 -78 56 47 47
126 -18 160 -32 17 -45 18 -76 5z"/>
<path d="M8158 7714 c-76 -41 -58 -159 27 -180 40 -10 93 19 111 61 12 30 12
40 0 69 -26 61 -81 82 -138 50z"/>
<path d="M8761 7714 c-13 -9 -29 -32 -37 -50 -20 -47 1 -97 49 -120 94 -45
182 72 114 151 -29 34 -92 44 -126 19z"/>
<path d="M10910 7415 l0 -275 130 0 130 0 0 275 0 275 -130 0 -130 0 0 -275z
m110 -1 l0 -235 -27 3 -28 3 -3 233 -2 232 30 0 30 0 0 -236z"/>
<path d="M11270 7415 l0 -275 135 0 135 0 0 275 0 275 -135 0 -135 0 0 -275z
m120 -1 l0 -235 -27 3 -28 3 -3 233 -2 232 30 0 30 0 0 -236z"/>
<path d="M10340 7600 l0 -60 -44 0 c-41 0 -45 -2 -48 -27 -2 -22 -9 -29 -31
-31 l-28 -3 3 -92 c3 -91 3 -92 28 -92 20 0 26 -6 28 -28 3 -25 7 -27 47 -27
l44 0 3 -57 3 -58 163 -3 162 -2 0 55 0 55 -45 0 c-33 0 -45 4 -45 15 0 11 12
15 45 15 25 0 45 5 45 10 0 6 -20 10 -45 10 -33 0 -45 4 -45 15 0 11 12 15 45
15 25 0 45 5 45 10 0 6 -20 10 -45 10 -33 0 -45 4 -45 15 0 11 12 15 45 15 25
0 45 5 45 10 0 6 -21 10 -46 10 -38 0 -45 3 -42 18 2 12 16 19 48 23 l45 6
-47 1 c-35 2 -48 6 -48 17 0 11 12 15 45 15 25 0 45 5 45 10 0 6 -20 10 -45
10 -38 0 -45 3 -45 19 0 16 8 21 48 24 l47 3 -47 2 c-41 2 -48 5 -48 22 0 17
7 20 45 20 l45 0 0 45 0 45 -165 0 -165 0 0 -60z"/>
<path d="M7109 7515 c-21 -11 -49 -58 -49 -81 0 -2 45 -4 100 -4 95 0 100 1
100 21 0 11 -13 34 -29 50 -33 33 -78 38 -122 14z"/>
<path d="M7689 7501 c-16 -16 -29 -39 -29 -50 0 -20 5 -21 100 -21 55 0 100 3
100 6 0 3 -7 21 -15 39 -30 61 -107 74 -156 26z"/>
<path d="M8461 7504 c-19 -16 -31 -35 -31 -50 0 -24 1 -24 95 -24 90 0 95 1
95 21 0 11 -13 34 -29 50 -39 38 -87 39 -130 3z"/>
<path d="M9073 7520 c-21 -8 -53 -57 -53 -80 0 -6 37 -10 100 -10 57 0 100 4
100 10 0 24 -26 63 -51 76 -31 16 -63 17 -96 4z"/>
<path d="M5780 6710 l0 -670 495 0 494 0 -24 36 c-68 100 22 229 135 195 80
-24 112 -128 62 -198 l-23 -33 70 0 c52 0 81 5 108 20 21 11 49 20 63 20 14 0
42 -9 63 -20 25 -14 56 -20 98 -20 l61 0 -26 31 c-53 63 -26 166 54 199 65 27
151 -22 164 -94 7 -35 -18 -116 -35 -116 -5 0 -9 -4 -9 -10 0 -19 123 -11 165
10 49 25 81 25 123 0 22 -14 50 -20 87 -20 l55 0 0 670 0 670 -41 0 c-33 0
-49 -7 -80 -35 -32 -29 -47 -35 -84 -35 -37 0 -51 6 -84 36 -30 26 -47 35 -68
32 -23 -2 -27 -7 -25 -26 2 -12 -6 -42 -18 -66 -56 -117 -230 -79 -230 50 0
38 -3 44 -21 44 -12 0 -39 -16 -60 -35 -31 -28 -47 -35 -80 -35 -47 0 -94 22
-109 50 -8 15 -21 20 -50 20 -38 0 -40 -2 -40 -31 0 -75 -54 -132 -125 -132
-72 0 -125 54 -125 128 l0 35 -470 0 -470 0 0 -670z m1459 531 c35 -25 57 -85
47 -127 -4 -15 -22 -42 -41 -61 -27 -27 -41 -33 -74 -33 -83 0 -131 45 -131
121 0 51 32 102 74 120 32 13 91 4 125 -20z m572 14 c38 -20 69 -71 69 -113 0
-73 -52 -122 -131 -122 -33 0 -47 6 -74 33 -43 43 -52 79 -34 131 25 73 103
105 170 71z m-893 -120 c106 -89 24 -256 -107 -216 -55 16 -83 51 -89 111 -4
48 -3 52 36 90 35 35 45 40 85 40 34 0 53 -6 75 -25z m611 -1 c37 -31 55 -87
41 -133 -13 -46 -36 -69 -82 -82 -109 -29 -195 80 -143 181 32 63 129 81 184
34z m-309 -187 c32 -16 70 -73 70 -104 0 -47 -30 -91 -77 -114 -39 -19 -50
-20 -83 -10 -56 16 -90 61 -90 117 0 56 12 79 53 104 36 23 91 26 127 7z m600
-2 c86 -44 75 -183 -17 -221 -62 -26 -134 2 -159 63 -18 42 -18 67 1 107 29
61 110 84 175 51z m-920 -88 c34 -17 70 -74 70 -111 0 -64 -63 -126 -128 -126
-35 0 -92 36 -110 70 -29 56 4 146 63 170 30 13 77 11 105 -3z m621 -10 c124
-83 12 -281 -121 -212 -44 23 -70 62 -70 107 0 103 107 162 191 105z m-301
-190 c41 -21 72 -76 67 -119 -15 -113 -143 -156 -216 -72 -53 59 -39 153 28
189 32 18 88 19 121 2z m600 -2 c83 -43 76 -175 -11 -221 -59 -30 -139 -1
-165 61 -20 48 -18 77 9 116 39 58 106 76 167 44z m-905 -109 c33 -22 58 -82
51 -125 -6 -42 -63 -100 -98 -102 -68 -3 -98 10 -129 58 -39 58 -11 150 54
179 36 16 88 12 122 -10z m590 8 c104 -49 89 -203 -23 -233 -77 -22 -152 39
-152 124 0 49 27 90 74 111 41 18 61 17 101 -2z m-274 -207 c39 -26 66 -89 55
-130 -11 -47 -56 -88 -103 -94 -83 -11 -143 37 -143 114 0 108 105 168 191
110z m579 10 c63 -32 88 -124 51 -181 -26 -40 -57 -55 -109 -56 -84 0 -142 93
-108 173 26 64 106 95 166 64z"/>
<path d="M7098 7217 c-70 -65 -26 -171 70 -171 27 0 41 8 64 33 26 29 30 39
25 75 -11 80 -102 115 -159 63z"/>
<path d="M7689 7211 c-52 -52 -33 -138 36 -161 48 -16 101 8 121 55 18 45 10
78 -28 110 -42 35 -91 34 -129 -4z"/>
<path d="M6802 7125 c-38 -17 -66 -71 -56 -110 9 -38 59 -75 101 -75 25 0 43
8 64 29 52 53 33 135 -38 162 -30 11 -31 11 -71 -6z"/>
<path d="M7404 7122 c-90 -57 -51 -182 56 -182 21 0 41 9 61 29 39 39 40 89 2
131 -36 39 -78 47 -119 22z"/>
<path d="M7130 6933 c-8 -3 -25 -15 -37 -26 -81 -73 20 -209 118 -157 22 12
49 61 49 89 0 65 -70 116 -130 94z"/>
<path d="M7715 6928 c-62 -34 -74 -110 -26 -159 38 -38 87 -39 129 -4 38 32
46 65 28 109 -22 53 -85 80 -131 54z"/>
<path d="M6801 6833 c-20 -10 -39 -30 -47 -50 -42 -99 81 -180 157 -104 39 40
40 89 2 130 -36 37 -69 44 -112 24z"/>
<path d="M7413 6835 c-40 -17 -69 -71 -59 -110 19 -75 112 -100 167 -46 39 40
40 89 2 130 -34 36 -68 44 -110 26z"/>
<path d="M7120 6633 c-48 -25 -66 -64 -51 -113 31 -103 173 -90 188 16 4 35 1
45 -23 72 -37 40 -70 47 -114 25z"/>
<path d="M7730 6643 c-8 -3 -27 -17 -42 -31 -60 -56 -17 -162 65 -162 42 0 92
37 101 75 17 66 -61 141 -124 118z"/>
<path d="M6783 6516 c-39 -32 -47 -66 -29 -110 21 -49 67 -72 117 -57 47 14
69 44 69 93 0 51 -33 88 -86 95 -33 4 -45 1 -71 -21z"/>
<path d="M7389 6512 c-82 -73 -8 -196 97 -162 96 32 79 173 -22 187 -36 5 -46
1 -75 -25z"/>
<path d="M7103 6325 c-13 -9 -28 -33 -34 -55 -31 -103 104 -168 172 -82 28 36
21 98 -16 129 -31 27 -90 31 -122 8z"/>
<path d="M7689 6311 c-22 -23 -29 -39 -29 -68 0 -108 156 -132 189 -30 33 98
-87 171 -160 98z"/>
<path d="M6747 7359 c-7 -24 7 -66 30 -91 24 -26 75 -33 111 -14 38 20 52 44
52 90 l0 36 -94 0 c-87 0 -94 -2 -99 -21z"/>
<path d="M7355 7360 c-14 -45 27 -106 80 -116 63 -11 122 45 113 108 -3 22 -7
23 -95 26 -84 3 -92 1 -98 -18z"/>
<path d="M8110 7345 c0 -76 66 -120 135 -91 40 17 68 67 58 104 -5 21 -11 22
-99 22 l-94 0 0 -35z"/>
<path d="M8718 7362 c-10 -37 15 -86 54 -105 69 -34 138 10 138 88 l0 35 -94
0 c-82 0 -94 -2 -98 -18z"/>
<path d="M8461 7214 c-26 -22 -31 -33 -31 -70 0 -34 6 -51 25 -69 39 -40 98
-37 138 6 38 41 37 90 -2 130 -39 38 -87 39 -130 3z"/>
<path d="M9071 7226 c-73 -40 -64 -139 15 -172 53 -22 117 10 129 67 18 80
-72 145 -144 105z"/>
<path d="M8174 7130 c-34 -13 -64 -59 -64 -97 0 -48 45 -93 94 -93 52 0 98 44
98 92 0 46 -25 84 -64 97 -36 13 -36 13 -64 1z"/>
<path d="M8774 7126 c-37 -16 -65 -70 -57 -109 8 -39 57 -77 100 -77 25 0 43
8 64 29 39 40 40 89 2 130 -34 37 -68 45 -109 27z"/>
<path d="M8478 6924 c-85 -45 -51 -184 45 -184 101 0 133 148 41 186 -41 17
-52 17 -86 -2z"/>
<path d="M9084 6931 c-30 -13 -64 -59 -64 -88 0 -36 25 -78 55 -91 45 -21 75
-14 112 23 31 31 35 40 30 72 -11 65 -78 107 -133 84z"/>
<path d="M8183 6842 c-34 -5 -73 -58 -73 -99 0 -25 8 -43 29 -64 21 -21 39
-29 64 -29 43 0 92 38 100 77 13 65 -51 126 -120 115z"/>
<path d="M8794 6842 c-12 -2 -34 -16 -49 -32 -39 -41 -38 -95 4 -132 43 -39
92 -38 132 1 67 67 8 178 -87 163z"/>
<path d="M10367 6792 c-13 -14 -17 -39 -17 -105 l0 -87 -44 0 c-28 0 -52 -7
-67 -19 l-24 -19 0 -551 c0 -623 -6 -580 82 -591 l48 -5 3 -85 c3 -113 11
-120 138 -120 129 0 134 5 134 144 l0 104 37 19 c20 11 46 32 57 47 20 27 21
41 24 474 3 509 4 499 -75 537 l-42 20 -1 108 c0 143 -4 147 -138 147 -83 0
-102 -3 -115 -18z m164 -42 c40 -21 40 -22 37 -72 -3 -46 -6 -52 -40 -71 l-37
-22 -38 22 c-35 20 -38 26 -41 72 -3 49 -2 50 35 70 47 25 37 25 84 1z m3
-199 c113 -20 151 -38 173 -82 10 -18 13 -135 13 -465 0 -432 0 -442 -21 -468
-11 -14 -33 -33 -47 -40 -34 -17 -190 -45 -302 -53 -73 -5 -88 -3 -103 11 -16
16 -17 61 -17 549 0 633 -10 583 114 573 45 -4 130 -15 190 -25z m1 -1148 c33
-16 35 -20 35 -65 0 -44 -3 -49 -39 -74 l-39 -25 -41 25 c-39 25 -41 29 -41
74 0 45 3 50 33 65 41 20 49 20 92 0z"/>
<path d="M10313 6446 c-21 -26 -21 -35 -20 -440 2 -392 3 -415 21 -435 23 -25
54 -26 167 -6 122 23 142 31 164 68 19 30 20 55 23 357 2 247 0 335 -10 365
-23 68 -84 96 -249 111 -74 6 -76 6 -96 -20z m157 -31 c109 -19 136 -30 150
-64 7 -19 10 -130 8 -360 -3 -332 -3 -333 -26 -351 -26 -21 -98 -39 -193 -47
l-66 -6 -6 94 c-9 121 -9 536 -1 657 8 107 -2 101 134 77z"/>
<path d="M11164 6796 c-16 -12 -20 -29 -22 -105 l-4 -91 -39 0 c-29 0 -47 -7
-64 -25 l-25 -24 0 -539 c0 -530 0 -540 21 -566 16 -21 29 -26 64 -26 l43 0 4
-91 c4 -116 8 -119 137 -119 53 0 101 4 107 8 25 16 34 56 34 149 l0 98 40 17
c31 13 45 27 60 60 18 40 20 68 20 467 0 409 -1 426 -21 467 -15 31 -31 48
-59 60 l-38 17 -4 114 c-3 100 -6 117 -22 129 -28 20 -205 20 -232 0z m159
-42 c41 -22 47 -31 47 -79 0 -35 -5 -43 -35 -62 -43 -28 -49 -28 -91 -2 -31
19 -34 25 -34 70 0 45 3 51 33 69 39 24 40 24 80 4z m-53 -194 c155 -24 197
-37 224 -73 20 -28 21 -40 24 -465 3 -490 3 -490 -68 -524 -43 -21 -184 -46
-304 -55 -79 -6 -90 -4 -102 12 -11 15 -14 120 -14 556 0 603 -4 569 73 569
23 0 98 -9 167 -20z m68 -1160 c28 -18 32 -25 32 -65 0 -41 -3 -47 -40 -70
l-40 -25 -40 22 c-38 22 -40 25 -40 75 0 46 3 53 28 66 38 21 62 20 100 -3z"/>
<path d="M11115 6457 c-19 -15 -20 -29 -23 -414 -2 -219 0 -412 3 -430 13 -69
42 -75 207 -43 80 15 108 25 128 45 l25 25 3 355 c3 389 2 399 -56 429 -34 17
-107 33 -197 41 -54 5 -74 3 -90 -8z m155 -42 c112 -20 136 -31 149 -67 7 -19
11 -147 11 -340 0 -360 -2 -370 -72 -389 -80 -21 -195 -36 -212 -27 -14 8 -16
53 -16 417 0 224 3 411 7 414 10 10 39 9 133 -8z"/>
<path d="M8483 6635 c-91 -39 -59 -185 42 -185 27 0 44 8 66 29 76 77 -8 199
-108 156z"/>
<path d="M9093 6643 c-30 -6 -73 -59 -73 -89 0 -33 25 -81 49 -94 39 -20 81
-12 117 24 38 38 42 62 18 107 -12 24 -72 64 -86 58 -2 -1 -13 -4 -25 -6z"/>
<path d="M8164 6530 c-50 -20 -70 -96 -38 -145 60 -92 212 -12 170 89 -24 57
-75 79 -132 56z"/>
<path d="M8775 6531 c-52 -22 -73 -89 -45 -141 18 -34 74 -53 116 -40 62 21
84 105 42 155 -25 28 -79 41 -113 26z"/>
<path d="M8461 6314 c-26 -22 -31 -33 -31 -70 0 -36 5 -50 26 -69 61 -56 164
-12 164 70 0 27 -8 44 -29 66 -39 38 -87 39 -130 3z"/>
<path d="M9055 6317 c-37 -31 -44 -93 -16 -129 44 -55 126 -53 161 5 23 37 25
56 8 92 -25 54 -107 72 -153 32z"/>
<path d="M6791 6234 c-13 -9 -29 -32 -37 -50 -12 -29 -12 -39 0 -69 42 -99
186 -72 186 35 0 79 -86 128 -149 84z"/>
<path d="M7388 6221 c-81 -72 -6 -195 98 -161 57 19 79 82 49 141 -29 55 -97
65 -147 20z"/>
<path d="M8158 6234 c-73 -39 -62 -148 17 -174 78 -26 152 50 121 124 -26 61
-81 82 -138 50z"/>
<path d="M8773 6240 c-48 -20 -69 -91 -43 -140 18 -34 75 -53 115 -40 94 31
83 173 -15 185 -19 3 -45 0 -57 -5z"/>
<path d="M7069 5976 c-25 -55 43 -134 106 -122 37 7 85 58 85 90 0 52 -6 56
-96 56 -79 0 -85 -1 -95 -24z"/>
<path d="M7667 5993 c-4 -3 -7 -23 -7 -43 0 -42 34 -84 75 -94 65 -16 142 64
116 121 -10 21 -16 23 -94 23 -46 0 -87 -3 -90 -7z"/>
<path d="M8437 5994 c-13 -13 -7 -79 8 -101 20 -29 75 -46 107 -34 40 15 69
60 66 100 l-3 36 -85 3 c-47 1 -89 0 -93 -4z"/>
<path d="M9026 5984 c-18 -48 18 -115 69 -128 54 -14 125 44 125 102 0 34 -21
42 -106 42 -65 0 -83 -3 -88 -16z"/>
<path d="M5780 4000 l0 -1990 1090 0 1090 0 2 1990 3 1990 -42 0 c-43 0 -43 0
-43 -37 0 -43 -27 -90 -62 -109 -39 -22 -103 -17 -136 11 -35 30 -56 76 -50
110 l5 25 -86 0 -86 0 41 -20 c48 -24 69 -57 69 -110 0 -72 -48 -120 -120
-120 -77 0 -125 47 -125 121 0 56 33 104 83 118 26 8 18 9 -49 10 l-81 1 5
-29 c9 -61 -58 -131 -126 -131 -72 0 -122 48 -122 117 l0 43 -92 0 -93 0 41
-19 c42 -19 74 -67 74 -111 0 -36 -31 -90 -61 -105 -61 -32 -146 -10 -174 45
-38 73 1 163 80 183 11 2 -217 5 -507 6 l-528 1 0 -1990z m1436 1771 c64 -29
90 -100 59 -161 -25 -48 -62 -70 -117 -70 -43 0 -54 4 -84 34 -30 30 -34 41
-34 84 0 57 25 96 74 118 41 18 53 17 102 -5z m607 -3 c28 -15 57 -69 57 -108
0 -40 -28 -88 -62 -106 -13 -8 -42 -13 -65 -14 -33 0 -50 7 -77 31 -114 100
12 268 147 197z m-914 -93 c30 -15 61 -69 61 -105 0 -32 -28 -87 -54 -103
-110 -73 -242 46 -181 163 29 55 113 77 174 45z m612 -2 c36 -21 62 -85 53
-127 -11 -49 -32 -74 -79 -92 -54 -20 -102 -7 -140 37 -27 33 -35 103 -14 140
28 53 123 75 180 42z m-298 -194 c48 -26 77 -91 62 -138 -22 -70 -106 -113
-168 -87 -52 21 -77 60 -77 118 0 43 4 54 34 84 29 29 41 34 81 34 25 0 56 -5
68 -11z m605 -5 c69 -48 68 -162 -3 -208 -34 -22 -98 -23 -130 -2 -33 21 -65
74 -65 104 0 37 30 91 59 107 35 19 111 19 139 -1z m-903 -114 c82 -77 38
-207 -74 -218 -45 -4 -52 -2 -87 31 -36 33 -39 39 -39 92 0 53 3 59 39 92 35
33 42 35 87 31 33 -4 58 -13 74 -28z m610 0 c83 -78 27 -220 -88 -220 -32 0
-46 7 -78 39 -33 33 -39 45 -39 81 0 48 21 90 59 114 37 24 114 16 146 -14z
m-296 -195 c113 -96 13 -263 -126 -210 -51 20 -73 54 -73 115 0 73 49 119 127
120 30 0 50 -7 72 -25z m581 8 c91 -54 73 -195 -29 -223 -134 -37 -216 125
-109 215 35 30 96 33 138 8z"/>
<path d="M7113 5749 c-30 -16 -56 -73 -48 -108 8 -39 45 -71 88 -78 32 -5 41
-1 73 31 33 33 36 40 31 78 -3 22 -14 50 -25 60 -23 23 -88 32 -119 17z"/>
<path d="M7689 5731 c-77 -78 9 -204 107 -158 69 33 80 113 22 162 -42 35 -91
34 -129 -4z"/>
<path d="M6794 5651 c-44 -27 -61 -79 -40 -120 35 -67 107 -82 157 -32 48 49
38 125 -21 156 -38 20 -58 19 -96 -4z"/>
<path d="M7415 5661 c-37 -16 -60 -51 -60 -93 0 -71 83 -121 146 -88 22 12 49
61 49 89 0 70 -71 118 -135 92z"/>
<path d="M7098 5441 c-27 -24 -33 -36 -33 -71 0 -100 135 -136 181 -49 26 52
10 110 -37 135 -42 21 -75 17 -111 -15z"/>
<path d="M7708 5455 c-100 -56 -30 -214 79 -178 40 14 76 70 68 108 -12 65
-90 102 -147 70z"/>
<path d="M6783 5342 c-73 -56 -33 -172 60 -172 53 0 97 43 97 95 0 76 -97 124
-157 77z"/>
<path d="M7385 5336 c-32 -32 -40 -69 -25 -107 17 -40 47 -59 93 -59 53 0 97
43 97 95 0 82 -108 128 -165 71z"/>
<path d="M7121 5158 c-14 -7 -34 -28 -44 -46 -17 -29 -18 -39 -8 -73 30 -101
174 -88 188 17 4 35 1 46 -23 73 -33 36 -78 47 -113 29z"/>
<path d="M7730 5163 c-8 -3 -27 -17 -42 -31 -60 -56 -17 -162 65 -162 42 0 92
37 101 75 17 67 -61 141 -124 118z"/>
<path d="M11892 5213 l3 -778 153 -3 152 -3 0 781 0 780 -155 0 -155 0 2 -777z"/>
<path d="M6791 5944 c-100 -72 -12 -226 97 -170 86 45 63 170 -33 182 -28 4
-47 0 -64 -12z"/>
<path d="M7388 5931 c-27 -24 -33 -36 -33 -71 0 -100 135 -136 181 -49 26 52
10 110 -37 135 -42 21 -75 17 -111 -15z"/>
<path d="M8158 5944 c-76 -41 -58 -159 27 -180 40 -10 93 19 111 61 12 30 12
40 0 69 -26 61 -81 82 -138 50z"/>
<path d="M8770 5947 c-14 -7 -33 -29 -43 -49 -16 -33 -17 -40 -3 -72 10 -23
27 -42 49 -52 116 -56 195 116 80 175 -28 14 -52 14 -83 -2z"/>
<path d="M8459 5731 c-51 -51 -36 -133 30 -161 43 -17 93 1 116 44 54 100 -66
196 -146 117z"/>
<path d="M9071 5746 c-55 -30 -66 -99 -23 -146 36 -40 77 -47 120 -20 61 38
66 108 10 155 -32 27 -70 31 -107 11z"/>
<path d="M8165 5658 c-62 -34 -74 -110 -26 -159 52 -51 128 -33 157 37 12 29
12 39 0 68 -22 53 -85 79 -131 54z"/>
<path d="M8764 5651 c-42 -26 -58 -72 -40 -116 29 -69 105 -87 157 -36 49 49
35 128 -28 160 -31 16 -53 14 -89 -8z"/>
<path d="M8484 5460 c-53 -21 -72 -105 -34 -153 40 -51 126 -43 155 14 45 86
-33 175 -121 139z"/>
<path d="M9071 5457 c-56 -33 -66 -100 -22 -149 60 -67 166 -28 166 62 0 71
-83 121 -144 87z"/>
<path d="M8139 5331 c-78 -78 12 -197 114 -150 65 30 65 138 0 168 -43 20 -82
13 -114 -18z"/>
<path d="M8749 5332 c-25 -22 -31 -36 -31 -67 0 -52 45 -95 98 -95 50 0 94 45
94 95 0 27 -8 44 -29 66 -40 39 -89 40 -132 1z"/>
<path d="M8455 5135 c-19 -18 -25 -35 -25 -69 0 -37 5 -48 31 -70 43 -36 91
-35 130 3 38 39 39 87 3 130 -22 26 -33 31 -70 31 -34 0 -51 -6 -69 -25z"/>
<path d="M9046 5129 c-29 -34 -33 -67 -12 -108 26 -49 86 -64 137 -34 85 50
47 173 -55 173 -37 0 -48 -5 -70 -31z"/>
<path d="M10362 4834 c-196 -97 -170 -386 39 -448 65 -20 73 -20 137 -1 103
31 175 125 176 229 1 183 -189 301 -352 220z m203 -73 c69 -39 93 -158 48
-231 -48 -77 -149 -102 -229 -55 -78 46 -104 147 -60 234 38 73 158 99 241 52z"/>
<path d="M11190 4844 c-129 -56 -189 -200 -133 -324 45 -102 165 -164 269
-141 97 22 173 97 194 193 15 66 3 116 -43 184 -60 90 -190 130 -287 88z m189
-83 c49 -34 64 -66 65 -133 1 -76 -24 -123 -82 -156 -102 -57 -233 6 -248 120
-13 92 36 173 113 188 52 11 123 2 152 -19z"/>
<path d="M11890 3740 l0 -640 155 0 155 0 0 640 0 640 -155 0 -155 0 0 -640z"/>
<path d="M11895 3040 c-3 -6 -5 -395 -4 -865 1 -715 -1 -857 -12 -871 -38 -45
29 -44 -1951 -44 -1763 0 -1875 1 -1908 18 -59 29 -60 36 -60 375 l0 307
-1090 0 -1090 0 0 -470 0 -470 60 0 c33 0 60 -3 60 -7 0 -5 -18 -50 -41 -101
-23 -51 -40 -94 -37 -97 3 -3 1431 -4 3175 -3 l3170 3 -43 100 -43 100 60 3
59 3 0 1014 0 1015 -149 0 c-90 0 -152 -4 -156 -10z"/>
<path d="M9249 2145 c-14 -8 -32 -28 -39 -45 -12 -30 -13 -30 -94 -30 -50 0
-87 -5 -94 -12 -7 -7 -12 -43 -12 -93 0 -50 5 -86 12 -93 7 -7 39 -12 75 -12
l63 0 0 -30 c0 -17 9 -39 20 -50 20 -20 33 -20 750 -20 717 0 730 0 750 20 11
11 20 33 20 50 l0 30 63 0 c36 0 68 5 75 12 7 7 12 43 12 93 0 50 -5 86 -12
93 -7 7 -44 12 -94 12 -79 0 -82 1 -88 25 -4 14 -21 34 -39 45 -31 19 -53 20
-687 20 -546 -1 -659 -3 -681 -15z m1346 -15 c35 -13 50 -54 69 -182 20 -130
20 -133 0 -152 -14 -14 -94 -16 -734 -16 -819 0 -756 -7 -745 84 11 91 36 219
46 239 6 10 20 22 32 27 31 12 1299 13 1332 0z"/>
<path d="M9334 2096 c-37 -16 -48 -43 -65 -156 -20 -132 -88 -120 660 -120
659 1 658 1 673 41 7 18 -16 150 -34 193 -23 56 -25 56 -640 56 -451 -1 -569
-3 -594 -14z m1182 -34 c22 -14 34 -53 41 -127 l6 -75 -631 0 c-347 0 -633 3
-635 8 -10 15 23 165 39 183 16 18 44 19 593 19 317 0 581 -4 587 -8z"/>
</g>
</svg>
