<?xml version="1.0" standalone="no"?>
<!DOCTYPE svg PUBLIC "-//W3C//DTD SVG 20010904//EN"
 "http://www.w3.org/TR/2001/REC-SVG-20010904/DTD/svg10.dtd">
<svg version="1.0" xmlns="http://www.w3.org/2000/svg"
 width="1921.000000pt" height="1081.000000pt" viewBox="0 0 1921.000000 1081.000000"
 preserveAspectRatio="xMidYMid meet">
<metadata>
Created by potrace 1.15, written by Peter Selinger 2001-2017
</metadata>
<g transform="translate(0.000000,1081.000000) scale(0.100000,-0.100000)"
fill="#000000" stroke="none">
<path d="M2761 10684 l-31 -26 0 -179 0 -179 75 0 75 0 0 -75 0 -75 176 0 176
0 29 29 29 29 0 222 0 222 -29 29 -29 29 -220 0 -220 0 -31 -26z m270 -106
c21 -24 39 -45 39 -48 0 -3 -22 -28 -50 -55 -27 -27 -50 -43 -50 -36 0 7 -19
30 -42 51 l-43 39 45 45 c24 25 48 46 53 46 5 0 26 -19 48 -42z"/>
<path d="M1839 10683 c-3 -22 -5 -66 -9 -133 -2 -47 -5 -60 -7 -35 -6 72 -14
106 -24 100 -5 -4 -6 -11 -3 -17 4 -6 6 -77 6 -157 -1 -80 3 -164 8 -186 5
-24 5 -44 0 -51 -17 -19 1 -24 82 -24 71 0 78 2 78 20 0 16 -5 19 -28 14 l-28
-6 -32 209 c-38 247 -39 253 -12 253 11 0 20 5 20 10 0 11 -50 14 -51 3z"/>
<path d="M1547 10643 c-3 -10 -5 -91 -6 -180 l-1 -163 70 0 70 0 0 -60 0 -60
48 0 47 0 0 203 0 202 -55 5 c-54 5 -55 6 -58 38 -3 32 -4 32 -57 32 -43 0
-55 -4 -58 -17z"/>
<path d="M632 10507 c-31 -32 -28 -48 6 -41 21 4 36 -1 58 -18 16 -14 37 -28
47 -31 17 -6 16 -9 -4 -36 -12 -16 -35 -35 -50 -42 -33 -13 -38 -29 -11 -29
24 0 46 17 77 59 33 46 34 109 2 139 -33 31 -96 30 -125 -1z"/>
<path d="M1913 10508 c3 -13 9 -47 13 -75 4 -31 11 -50 16 -47 7 4 8 -10 4
-37 -3 -28 -2 -35 3 -19 6 21 11 12 26 -55 10 -44 21 -83 24 -87 4 -4 26 -1
51 6 53 16 54 24 19 142 -25 84 -34 92 -20 18 5 -27 8 -51 6 -53 -9 -9 -34 29
-29 43 9 24 -4 68 -18 60 -7 -5 -9 -2 -6 8 4 8 -2 22 -13 32 -24 20 -29 20
-29 1 0 -8 7 -15 15 -15 8 0 17 -14 21 -35 3 -19 10 -32 15 -29 5 3 6 -3 3
-13 -3 -10 -8 -25 -11 -33 -6 -21 -44 63 -51 113 -4 33 -1 43 18 57 30 22 18
40 -27 40 -31 0 -35 -2 -30 -22z"/>
<path d="M2710 9054 l0 -215 83 2 82 2 3 -87 3 -86 212 2 212 3 3 298 2 297
-300 0 -300 0 0 -216z m390 91 c53 -27 84 -80 88 -151 l4 -64 -121 0 c-74 0
-121 -4 -121 -10 0 -20 39 -49 74 -56 24 -4 50 -1 76 10 22 9 43 16 45 16 3 0
5 -20 5 -43 0 -37 -4 -46 -25 -55 -43 -20 -145 -15 -183 8 -85 52 -96 187 -20
250 13 11 19 19 15 20 -13 0 -60 -33 -85 -60 l-23 -25 6 39 c14 87 77 136 173
136 36 0 75 -6 92 -15z"/>
<path d="M2720 8553 c-35 -14 -40 -50 -7 -63 20 -8 21 -9 2 -10 -15 -1 -12 -4
10 -11 25 -7 33 -6 46 11 15 17 18 18 29 5 15 -18 42 -19 87 -3 37 13 41 23
17 36 -9 5 -15 14 -13 19 2 6 14 0 27 -12 22 -20 22 -23 7 -38 -15 -15 -7 -16
96 -14 62 1 105 3 95 5 -11 2 -16 14 -16 38 0 27 -4 34 -19 34 -15 0 -21 -8
-24 -37 l-4 -38 -1 38 c-2 48 -29 52 -34 5 -3 -29 -6 -33 -33 -33 -27 0 -31 4
-35 35 -5 34 -11 37 -69 31 -6 -1 -11 -16 -13 -33 -3 -29 -6 -33 -33 -33 -27
0 -31 4 -36 40 -3 22 -7 34 -8 26 0 -8 -4 -11 -8 -7 -5 4 -13 -9 -20 -31 l-11
-38 -1 43 c-1 42 -4 45 -31 35z"/>
<path d="M2722 7790 c-8 -14 -12 -77 -12 -215 l0 -195 40 0 c22 0 40 2 40 4 0
2 -7 21 -16 42 -20 48 -15 154 9 201 23 44 75 93 122 114 54 25 157 25 210 0
191 -87 194 -358 5 -456 -55 -29 -153 -29 -222 0 -15 6 -18 1 -18 -34 l0 -41
203 0 c145 0 206 3 215 12 18 18 16 546 -2 571 -12 15 -38 17 -287 17 -263 0
-275 -1 -287 -20z"/>
<path d="M2857 7540 l-59 -29 64 -33 c34 -18 67 -35 71 -37 5 -2 4 6 -2 18
-12 21 -10 21 79 21 88 0 90 -1 80 -20 -14 -27 -11 -26 65 16 l66 36 -53 29
c-59 31 -83 36 -75 15 5 -12 -10 -15 -74 -18 -92 -3 -100 -2 -92 18 7 20 -4
17 -70 -16z"/>
<path d="M1911 7489 c-13 -5 -38 -11 -55 -13 -30 -3 -31 -5 -34 -57 -4 -68 20
-125 62 -145 28 -14 29 -13 12 0 -24 19 -56 67 -56 84 0 8 18 12 55 12 l55 0
0 65 c0 68 -1 69 -39 54z"/>
<path d="M1736 6329 c-123 -30 -229 -188 -210 -312 11 -67 30 -97 63 -97 16 0
32 6 34 13 4 10 6 10 6 0 1 -7 12 -13 26 -13 22 0 25 -4 26 -37 2 -75 4 -86
18 -91 8 -3 11 0 7 6 -3 6 2 13 11 15 13 3 10 5 -7 6 -19 1 -22 3 -11 10 13 8
13 12 0 27 -13 15 -12 16 11 11 14 -4 19 -4 13 -1 -26 12 -12 25 20 19 l32 -6
-30 16 c-68 37 -97 84 -97 155 0 57 21 101 63 131 33 23 110 36 153 25 35 -9
91 -60 106 -97 10 -22 15 -27 21 -17 5 7 9 9 9 3 0 -5 11 -11 25 -11 14 -1 25
2 25 7 0 5 7 9 15 9 27 0 26 23 0 79 -30 61 -71 103 -133 132 -49 24 -140 33
-196 18z"/>
<path d="M599 6053 c-25 -17 -57 -33 -70 -36 -20 -3 -18 -5 8 -6 30 -1 32 -3
35 -43 3 -42 4 -43 38 -43 34 0 35 1 38 43 3 41 4 42 41 42 42 0 61 14 61 47
0 44 -84 43 -151 -4z"/>
<path d="M480 5838 c0 -53 1 -56 33 -69 57 -24 154 -18 220 15 59 29 72 49 17
26 -36 -15 -172 -8 -178 9 -2 6 -9 11 -15 11 -6 0 -26 14 -44 32 l-33 32 0
-56z"/>
<path d="M330 4670 l0 -211 81 3 81 3 24 40 c33 57 64 125 64 142 0 8 5 24 12
36 6 12 11 36 10 54 -1 18 4 33 10 33 17 0 3 -118 -20 -170 -16 -33 -18 -46
-9 -52 8 -5 6 -8 -5 -8 -10 0 -18 -4 -18 -9 0 -4 -18 -29 -40 -54 -35 -40 -40
-51 -40 -96 l0 -51 205 0 205 0 0 275 0 275 -280 0 -280 0 0 -210z"/>
<path d="M1733 4846 c-50 -16 -113 -60 -141 -99 -21 -31 -19 -45 17 -89 8 -10
12 -34 9 -62 -2 -26 0 -46 4 -46 5 0 8 14 8 31 0 19 4 28 11 24 6 -4 8 -14 5
-22 -4 -9 1 -21 11 -28 9 -7 18 -24 20 -39 3 -24 1 -26 -31 -26 -28 0 -35 4
-39 23 -3 13 -5 8 -6 -15 -1 -32 2 -38 20 -38 11 0 17 5 14 10 -3 6 -1 10 4
10 6 0 11 -4 11 -9 0 -5 8 -8 18 -7 15 1 17 -7 14 -54 -3 -55 -2 -56 33 -73
58 -28 79 -23 100 23 10 22 21 40 24 40 4 0 13 15 21 33 7 17 16 37 18 42 3 6
-2 4 -12 -4 -22 -19 -90 -17 -121 3 -81 53 -83 177 -3 226 29 17 50 20 166 20
72 0 132 4 132 8 0 23 -85 92 -135 111 -63 24 -111 26 -172 7z"/>
<path d="M10 255 l0 -245 945 0 c623 0 945 3 945 10 0 6 92 10 255 10 163 0
255 -4 255 -10 0 -7 232 -10 675 -10 443 0 675 3 675 10 0 6 92 10 255 10 163
0 255 -4 255 -10 0 -7 2487 -10 7440 -10 l7440 0 3 238 2 237 3 -237 c2 -231
3 -238 22 -238 19 0 20 7 20 245 l0 245 -9595 0 -9595 0 0 -245z m2874 137 c4
-7 7 -117 6 -239 0 -23 -2 -23 -135 -23 l-135 0 0 98 c0 106 11 139 50 159 28
14 206 18 214 5z m617 -12 c24 -13 24 -29 2 -46 -15 -11 -16 -16 -5 -33 23
-38 15 -80 -22 -117 -19 -19 -43 -34 -54 -34 -11 0 -22 -4 -24 -9 -1 -5 -21
-6 -43 -2 -36 6 -40 10 -38 34 2 31 -5 33 -33 12 -29 -22 -34 -18 -34 26 0 81
81 145 172 137 45 -5 48 -4 48 18 0 27 3 28 31 14z m12289 -35 c0 -19 5 -35
10 -35 6 0 10 -27 10 -60 0 -33 -4 -60 -10 -60 -5 0 -10 -13 -10 -30 l0 -30
-310 0 -310 0 0 125 0 125 310 0 310 0 0 -35z m-13655 15 c3 -5 37 -10 76 -10
l69 0 0 -100 0 -100 -27 -1 c-77 -3 -225 1 -233 6 -6 3 -10 53 -10 111 l0 104
59 0 c33 0 63 -4 66 -10z m-1145 -30 c26 -26 26 -74 -1 -101 -16 -16 -30 -20
-57 -16 -32 4 -42 -1 -74 -31 -49 -46 -62 -33 -16 16 30 31 35 42 31 72 -9 67
70 107 117 60z m17909 -40 c-1 -32 -5 -57 -8 -55 -4 2 -40 0 -81 -4 -74 -8
-74 -8 -20 -10 41 -1 51 -4 38 -11 -9 -6 -19 -24 -23 -41 -7 -30 -7 -30 -22
-10 -10 14 -25 21 -49 21 l-34 0 0 85 0 85 101 0 100 0 -2 -60z m-14761 -24
c4 -63 -12 -101 -53 -126 -61 -38 -100 -15 -57 33 16 19 16 19 -4 13 -28 -8
-72 11 -80 36 -10 31 6 79 29 87 12 5 54 8 92 7 l70 -1 3 -49z m12465 7 c3
-16 3 -40 0 -55 l-5 -28 -89 0 -89 0 0 55 0 55 89 0 89 0 5 -27z"/>
<path d="M15204 337 c-3 -8 -4 -52 -2 -98 l3 -84 278 -3 277 -2 0 100 0 100
-275 0 c-221 0 -277 -3 -281 -13z"/>
</g>
</svg>
