<?xml version="1.0" encoding="UTF-8" standalone="no"?>
<svg
   xmlns:dc="http://purl.org/dc/elements/1.1/"
   xmlns:cc="http://creativecommons.org/ns#"
   xmlns:rdf="http://www.w3.org/1999/02/22-rdf-syntax-ns#"
   xmlns:svg="http://www.w3.org/2000/svg"
   xmlns="http://www.w3.org/2000/svg"
   xmlns:sodipodi="http://sodipodi.sourceforge.net/DTD/sodipodi-0.dtd"
   xmlns:inkscape="http://www.inkscape.org/namespaces/inkscape"
   version="1.0"
   width="1210.5284pt"
   height="657pt"
   viewBox="0 0 1210.5284 657"
   preserveAspectRatio="xMidYMid meet"
   id="svg230"
   sodipodi:docname="escritorio-windows (6).svg"
   inkscape:version="0.92.4 (5da689c313, 2019-01-14)">
  <metadata
     id="metadata236">
    <rdf:RDF>
      <cc:Work
         rdf:about="">
        <dc:format>image/svg+xml</dc:format>
        <dc:type
           rdf:resource="http://purl.org/dc/dcmitype/StillImage" />
        <dc:title></dc:title>
      </cc:Work>
    </rdf:RDF>
  </metadata>
  <defs
     id="defs234" />
  <sodipodi:namedview
     pagecolor="#ffffff"
     bordercolor="#666666"
     borderopacity="1"
     objecttolerance="10"
     gridtolerance="10"
     guidetolerance="10"
     inkscape:pageopacity="0"
     inkscape:pageshadow="2"
     inkscape:window-width="1366"
     inkscape:window-height="705"
     id="namedview232"
     showgrid="false"
     fit-margin-top="0"
     fit-margin-left="0"
     fit-margin-right="0"
     fit-margin-bottom="0"
     inkscape:zoom="2.5115372"
     inkscape:cx="1349.7585"
     inkscape:cy="17.905815"
     inkscape:window-x="-8"
     inkscape:window-y="-8"
     inkscape:window-maximized="1"
     inkscape:current-layer="svg230" />
  <g
     transform="matrix(0.06308121,0,0,-0.06140187,0,657.00001)"
     id="g228"
     style="fill:#000000;stroke:none">
    <path
       d="m 2742,10677 c -21,-22 -22,-32 -22,-204 v -181 l 70,-7 70,-7 v -69 -69 h 185 c 184,0 186,0 210,25 l 25,24 v 229 c 0,217 -1,231 -21,256 l -20,26 h -238 c -235,0 -238,0 -259,-23 z m 308,-154 c 0,-7 -18,-31 -40,-53 l -40,-40 -42,46 -41,45 43,44 44,45 38,-37 c 21,-20 38,-43 38,-50 z m 60,-69 c -37,-8 -88,-9 -84,-2 3,4 26,7 52,7 26,-1 40,-3 32,-5 z m -100,-34 c 0,-5 -5,-10 -11,-10 -5,0 -7,5 -4,10 3,6 8,10 11,10 2,0 4,-4 4,-10 z m 109,-6 c 9,-8 -75,-3 -88,5 -8,5 5,7 35,4 27,-3 51,-7 53,-9 z m -49,-23 c 0,-4 -21,-9 -46,-9 -25,-1 -43,1 -41,5 7,10 87,13 87,4 z m -113,-37 c -3,-3 -12,-4 -19,-1 -8,3 -5,6 6,6 11,1 17,-2 13,-5 z m 71,-31 c -21,-2 -55,-2 -75,0 -21,2 -4,4 37,4 41,0 58,-2 38,-4 z m -55,-30 c -7,-2 -19,-2 -25,0 -7,3 -2,5 12,5 14,0 19,-2 13,-5 z m 24,-29 c -3,-3 -12,-4 -19,-1 -8,3 -5,6 6,6 11,1 17,-2 13,-5 z"
       id="path2"
       inkscape:connector-curvature="0" />
    <path
       d="m 1843,10683 c -18,-4 -23,-11 -23,-38 0,-27 -3,-32 -18,-28 -10,2 -28,-5 -41,-17 -18,-14 -35,-19 -60,-17 -32,4 -37,8 -41,38 l -5,34 h -60 l -60,-1 v -184 -185 l 53,-2 c 78,-2 77,-1 74,-81 l -4,-71 -41,-4 -42,-4 48,-1 c 41,-2 47,1 47,18 0,19 7,20 118,21 64,1 148,3 185,5 72,4 131,27 124,47 -3,7 -24,83 -48,170 -47,167 -45,165 -106,148 -36,-10 -35,-13 -51,103 -7,51 -12,56 -49,49 z m -54,-445 c 1,-21 -3,-38 -9,-38 -6,0 -10,32 -9,78 1,68 2,72 10,37 4,-22 8,-57 8,-77 z m 158,70 c -3,-8 -6,-5 -6,6 -1,11 2,17 5,13 3,-3 4,-12 1,-19 z m 28,-107 c -9,-8 -14,5 -20,49 l -5,45 14,-45 c 8,-24 13,-46 11,-49 z"
       id="path4"
       inkscape:connector-curvature="0" />
    <path
       d="m 642,10519 c -20,-6 -37,-20 -45,-36 -10,-22 -8,-28 11,-43 12,-10 28,-20 35,-23 9,-4 9,-7 0,-18 -10,-10 -13,-10 -13,0 0,7 -5,9 -11,5 -6,-3 -9,-20 -6,-38 4,-24 -1,-37 -21,-59 -20,-21 -26,-38 -26,-75 -1,-47 -1,-47 48,-71 33,-16 72,-26 122,-29 90,-6 107,4 98,57 -9,52 -21,72 -62,108 l -36,32 22,39 c 28,51 28,94 0,126 -27,29 -70,38 -116,25 z m 28,-259 c 0,-5 -4,-10 -8,-10 -5,0 -14,-10 -20,-22 -10,-22 -11,-21 -11,10 -1,26 3,32 19,32 11,0 20,-4 20,-10 z"
       id="path6"
       inkscape:connector-curvature="0" />
    <path
       d="m 1559,10246 c 9,-10 8,-16 -4,-26 -19,-16 -19,-54 0,-70 17,-15 16,-15 34,25 8,17 16,24 18,18 10,-27 23,-11 23,27 v 40 h -41 c -34,0 -39,-2 -30,-14 z"
       id="path8"
       inkscape:connector-curvature="0" />
    <path
       d="m 2757,10241 c 3,-10 0,-22 -6,-25 -15,-9 -14,-49 1,-64 18,-18 25,-15 32,13 7,26 31,34 39,13 3,-7 6,8 6,35 l 1,47 h -39 c -33,0 -38,-3 -34,-19 z"
       id="path10"
       inkscape:connector-curvature="0" />
    <path
       d="m 1533,10123 c 9,-2 23,-2 30,0 6,3 -1,5 -18,5 -16,0 -22,-2 -12,-5 z"
       id="path12"
       inkscape:connector-curvature="0" />
    <path
       d="m 2733,10123 c 9,-2 23,-2 30,0 6,3 -1,5 -18,5 -16,0 -22,-2 -12,-5 z"
       id="path14"
       inkscape:connector-curvature="0" />
    <path
       d="m 2803,10123 c 15,-2 37,-2 50,0 12,2 0,4 -28,4 -27,0 -38,-2 -22,-4 z"
       id="path16"
       inkscape:connector-curvature="0" />
    <path
       d="m 275,10040 c 5,-9 1,-10 -14,-5 -12,3 -21,3 -20,-2 1,-4 -1,-16 -5,-25 -12,-27 -3,-51 24,-65 23,-12 23,-13 4,-13 -28,0 -48,39 -40,81 9,43 -9,18 -18,-27 -5,-23 -2,-37 13,-55 18,-22 25,-24 88,-20 37,2 84,3 103,2 82,-2 204,0 211,5 4,2 10,0 13,-4 3,-5 17,-7 30,-5 18,4 27,14 32,37 14,57 -1,80 -47,72 -14,-3 -31,0 -38,7 -14,14 -34,16 -42,4 -3,-5 -33,-9 -65,-9 -43,-1 -53,-3 -36,-9 31,-12 28,-16 -8,-11 -17,2 -32,12 -35,23 -8,23 -31,25 -39,3 -3,-9 -11,-12 -18,-8 -8,5 -9,2 -5,-9 4,-11 2,-14 -8,-11 -8,3 -20,2 -27,-2 -9,-6 -4,-11 17,-15 l 30,-7 -28,-1 c -34,-1 -32,-22 4,-33 l 24,-7 -24,2 c -33,3 -50,31 -33,57 10,16 10,20 -2,20 -7,0 -13,8 -12,17 0,10 -7,19 -18,21 -12,3 -16,0 -11,-8 z m 263,-37 c -23,-6 -23,-19 -1,-32 10,-5 16,-12 13,-14 -3,-3 -13,1 -24,8 -22,17 -15,46 11,44 17,-1 17,-2 1,-6 z m 112,-5 -25,-11 30,-7 30,-8 -28,-1 c -34,-1 -32,-22 4,-32 21,-6 21,-7 3,-8 -38,-2 -58,41 -32,67 7,7 19,12 28,11 8,0 4,-5 -10,-11 z m -354,-14 c -3,-9 -6,-20 -6,-25 0,-5 -7,-9 -15,-9 -9,0 -15,9 -15,25 0,19 5,25 21,25 15,0 19,-4 15,-16 z m 174,-12 c -14,-2 -28,-9 -32,-16 -5,-7 -8,-3 -8,10 0,18 5,20 33,15 29,-5 30,-6 7,-9 z m 122,-12 c 3,-16 1,-30 -4,-30 -4,0 -8,14 -8,30 0,17 2,30 4,30 2,0 6,-13 8,-30 z m -119,-27 c -7,-2 -19,-2 -25,0 -7,3 -2,5 12,5 14,0 19,-2 13,-5 z m 64,1 c -3,-3 -12,-4 -19,-1 -8,3 -5,6 6,6 11,1 17,-2 13,-5 z"
       id="path18"
       inkscape:connector-curvature="0" />
    <path
       d="m 810,10039 c 0,-7 -11,-9 -34,-5 -32,6 -35,5 -46,-29 -6,-19 -8,-45 -4,-57 4,-13 7,-26 7,-29 -2,-7 4,-8 127,-11 97,-3 107,-1 128,19 27,27 27,34 2,64 l -20,24 5,-35 c 4,-27 3,-29 -3,-10 -5,15 -15,25 -27,25 -12,0 -22,-9 -26,-25 -6,-21 -7,-22 -8,-4 -1,11 5,26 12,33 10,11 9,13 -3,9 -8,-3 -24,-1 -35,5 -16,8 -18,7 -7,-4 14,-15 17,-83 2,-74 -5,3 -7,12 -3,20 3,10 -1,15 -13,16 -18,0 -17,1 1,9 19,9 19,9 -2,16 -13,3 -23,11 -23,16 0,5 -4,6 -10,3 -5,-3 -7,0 -4,8 3,8 1,18 -5,22 -6,3 -11,1 -11,-6 z m -58,-59 c 3,-16 1,-30 -4,-30 -4,0 -8,14 -8,30 0,17 2,30 4,30 2,0 6,-13 8,-30 z m 78,14 c 0,-16 -23,-44 -35,-44 -15,0 -21,31 -8,43 8,8 43,9 43,1 z m 24,-57 c 7,-6 6,-7 -4,-4 -8,2 -16,12 -17,23 -2,13 -1,15 4,4 3,-8 11,-19 17,-23 z m -51,-4 c -7,-2 -21,-2 -30,0 -10,3 -4,5 12,5 17,0 24,-2 18,-5 z m 154,1 c -3,-3 -12,-4 -19,-1 -8,3 -5,6 6,6 11,1 17,-2 13,-5 z"
       id="path20"
       inkscape:connector-curvature="0" />
    <path
       d="m 1480,10035 c 0,-8 -4,-15 -10,-15 -5,0 -10,5 -10,10 0,16 -40,12 -46,-4 -3,-8 -12,-12 -20,-9 -10,3 -12,0 -8,-10 4,-12 1,-14 -15,-10 -12,3 -21,8 -21,12 0,3 -12,7 -27,8 -15,0 -21,-2 -14,-7 9,-5 6,-9 -8,-13 -29,-7 -28,-45 2,-57 17,-8 18,-9 3,-7 -29,3 -43,33 -28,57 7,11 8,20 4,20 -19,0 -32,-49 -20,-75 13,-28 7,-27 223,-27 93,0 122,4 130,15 9,13 14,12 33,-3 24,-20 62,-16 62,6 0,8 10,14 25,14 14,0 25,5 25,11 0,5 -5,7 -12,3 -6,-4 -8,-3 -4,4 3,6 -2,13 -11,15 -14,4 -13,5 4,6 22,1 26,-5 38,-66 7,-35 28,-43 43,-17 9,16 27,19 90,15 44,-2 66,0 83,9 11,7 19,6 21,-1 3,-10 105,-13 223,-7 22,1 50,-2 61,-6 30,-9 54,17 54,58 0,37 -15,56 -45,55 -19,0 -19,-1 3,-9 30,-13 29,-40 -2,-40 -13,0 -27,-6 -29,-12 -3,-7 -6,-3 -6,8 -1,17 4,20 24,16 15,-2 25,0 25,7 0,6 -11,11 -24,11 -16,0 -27,7 -31,20 -7,23 -33,27 -41,5 -4,-8 -10,-13 -14,-10 -5,3 -11,1 -15,-5 -3,-5 -1,-10 4,-10 6,0 10,-12 10,-27 -1,-21 -2,-23 -6,-8 -3,11 -12,26 -21,33 -11,8 -12,12 -3,12 11,0 11,3 1,15 -15,19 -39,19 -46,1 -3,-8 -16,-12 -32,-9 -15,1 -20,0 -12,-3 8,-4 18,-12 22,-18 11,-16 10,-56 -2,-56 -5,0 -7,7 -4,15 4,9 0,15 -9,15 -22,0 -32,-20 -16,-32 12,-8 11,-9 -1,-5 -27,7 -23,34 7,45 26,9 27,10 8,18 -11,4 -28,16 -38,25 -10,9 -27,14 -38,12 -24,-7 -25,-20 -1,-26 10,-3 6,-5 -10,-6 -16,0 -28,2 -28,7 0,4 -19,7 -41,8 -35,0 -38,-2 -20,-9 14,-7 21,-19 20,-36 l -1,-26 -7,25 c -10,37 -44,33 -52,-5 -6,-28 -7,-28 -8,-4 0,14 4,30 10,36 9,9 7,12 -7,11 -10,0 -28,3 -39,7 -19,7 -19,7 -2,-7 13,-9 17,-23 14,-39 -4,-23 -4,-23 -6,4 0,16 -7,27 -15,27 -8,0 -16,6 -19,13 -3,9 -9,7 -24,-5 -11,-10 -28,-18 -38,-18 -10,0 -27,8 -38,18 -18,15 -20,15 -14,0 5,-14 1,-15 -23,-8 -16,5 -35,12 -41,16 -7,4 -9,3 -6,-3 4,-6 0,-13 -7,-16 -8,-3 -16,-18 -19,-34 -4,-27 -4,-27 -6,5 0,17 4,32 9,32 6,0 10,4 10,10 0,5 -6,7 -14,4 -8,-3 -30,1 -48,9 -57,26 -68,27 -68,12 z m 86,-50 c 9,-36 -2,-57 -28,-53 -12,2 -23,9 -24,16 -1,7 0,8 3,2 2,-5 13,-10 24,-10 25,0 26,45 2,59 -17,10 -17,10 -1,11 11,0 20,-10 24,-25 z m 401,-32 c -3,-10 -5,-2 -5,17 0,19 2,27 5,18 2,-10 2,-26 0,-35 z m -290,19 c -33,-4 -31,-23 4,-34 22,-6 21,-7 -6,-5 -24,2 -31,7 -33,28 -3,24 -1,25 30,20 33,-5 33,-6 5,-9 z m 367,-34 c 7,-5 5,-8 -6,-8 -14,0 -18,8 -17,33 2,27 2,28 6,7 3,-14 10,-28 17,-32 z m -644,23 c 0,-20 -32,-37 -50,-26 -14,9 -13,32 3,38 28,12 47,7 47,-12 z m 425,-24 c 15,-4 14,-5 -7,-6 -21,-1 -28,4 -28,17 0,11 3,13 8,6 4,-7 16,-14 27,-17 z m 360,0 c 16,-5 15,-5 -4,-4 -14,1 -26,9 -28,17 -3,10 -2,11 4,4 4,-7 17,-14 28,-17 z m -268,-3 c -3,-3 -12,-4 -19,-1 -8,3 -5,6 6,6 11,1 17,-2 13,-5 z m 396,-1 c -7,-2 -19,-2 -25,0 -7,3 -2,5 12,5 14,0 19,-2 13,-5 z"
       id="path22"
       inkscape:connector-curvature="0" />
    <path
       d="m 1355,9959 c -4,-6 -4,-13 -1,-16 8,-8 36,5 36,17 0,13 -27,13 -35,-1 z"
       id="path24"
       inkscape:connector-curvature="0" />
    <path
       d="m 2642,10015 c 3,-22 3,-32 1,-22 -3,9 -9,14 -15,11 -7,-5 -9,0 -6,13 5,17 1,20 -18,19 -14,0 -24,-7 -25,-16 0,-10 -3,-8 -9,5 -7,17 -9,16 -9,-10 -1,-16 4,-47 10,-68 l 10,-37 h 67 c 78,0 95,0 182,-1 36,-1 75,-1 88,0 48,2 70,2 153,1 47,-1 89,0 95,1 5,2 40,0 77,-4 53,-6 72,-4 89,7 18,13 24,13 42,1 12,-8 30,-12 41,-9 27,7 34,84 10,104 -14,12 -15,10 -10,-13 6,-24 4,-27 -19,-27 -32,0 -34,-17 -3,-30 22,-10 22,-10 -3,-7 -27,2 -41,40 -21,60 15,15 14,28 -1,25 -22,-5 -46,-32 -51,-58 -4,-21 -4,-20 -6,8 0,17 4,32 9,32 6,0 10,3 10,8 0,4 -16,8 -35,9 -32,2 -34,0 -20,-13 17,-17 21,-64 5,-64 -5,0 -7,7 -4,15 4,10 0,15 -12,16 -18,0 -18,1 1,8 19,8 19,8 0,18 -11,6 -35,14 -52,18 -18,3 -33,10 -33,15 0,4 -9,10 -20,13 -15,4 -22,-1 -26,-19 -3,-13 -12,-24 -20,-24 -18,0 -18,-14 1,-30 20,-17 19,-27 -5,-40 -14,-7 -20,-7 -20,0 0,5 7,10 15,10 20,0 19,19 -1,27 -10,4 -14,13 -10,28 4,15 1,22 -9,22 -8,0 -12,-4 -10,-8 3,-4 -1,-9 -9,-12 -8,-3 -16,-16 -19,-29 -3,-16 -5,-12 -6,13 -1,25 -6,36 -16,36 -9,0 -14,-6 -11,-13 3,-8 0,-11 -9,-8 -8,3 -20,2 -27,-2 -9,-6 -4,-11 17,-15 30,-7 30,-7 3,-8 -16,-1 -28,-8 -31,-18 -3,-12 -5,-8 -6,9 0,15 4,30 9,33 6,3 10,11 10,16 0,6 -4,8 -9,4 -6,-3 -14,3 -20,12 -10,17 -10,17 -11,-2 l -1,-20 -8,20 c -8,19 -8,19 -16,-4 -6,-20 -12,-23 -40,-18 -33,5 -33,5 -31,-26 2,-18 1,-23 -1,-12 -13,55 -72,65 -74,12 -2,-31 -2,-31 -6,-4 -4,22 -9,28 -26,25 -32,-4 -35,-45 -5,-57 13,-6 18,-10 11,-10 -38,-2 -59,39 -33,65 12,12 3,44 -11,44 -5,0 -9,-10 -9,-22 0,-13 -5,-30 -10,-38 -6,-10 -7,-2 -3,25 3,22 2,37 -2,33 -5,-4 -15,-2 -23,4 -12,11 -14,7 -10,-27 z m 564,-51 c 1,-37 1,-38 -3,-4 -3,19 -10,39 -16,43 -8,6 -7,7 3,4 10,-2 15,-17 16,-43 z m -619,14 c -3,-8 -6,-5 -6,6 -1,11 2,17 5,13 3,-3 4,-12 1,-19 z m 215,-8 c -2,-16 -6,-30 -8,-30 -2,0 -4,14 -4,30 0,17 4,30 8,30 5,0 7,-13 4,-30 z m 138,20 c 0,-5 -2,-10 -4,-10 -3,0 -8,5 -11,10 -3,6 -1,10 4,10 6,0 11,-4 11,-10 z m 230,6 c 0,-3 -4,-8 -10,-11 -5,-3 -10,-1 -10,4 0,6 5,11 10,11 6,0 10,-2 10,-4 z m -293,-38 c -3,-7 -5,-2 -5,12 0,14 2,19 5,13 2,-7 2,-19 0,-25 z m 377,-21 c 7,-6 6,-7 -4,-4 -8,2 -16,12 -17,23 -2,13 -1,15 4,4 3,-8 11,-19 17,-23 z m -644,14 c 0,-6 -4,-13 -10,-16 -5,-3 -10,1 -10,9 0,9 5,16 10,16 6,0 10,-4 10,-9 z m 60,-6 c 0,-8 -4,-15 -10,-15 -5,0 -10,7 -10,15 0,8 5,15 10,15 6,0 10,-7 10,-15 z m 270,5 c 0,-5 -4,-10 -10,-10 -5,0 -10,5 -10,10 0,6 5,10 10,10 6,0 10,-4 10,-10 z m -33,-16 c -3,-3 -12,-4 -19,-1 -8,3 -5,6 6,6 11,1 17,-2 13,-5 z m 106,-1 c -7,-2 -19,-2 -25,0 -7,3 -2,5 12,5 14,0 19,-2 13,-5 z"
       id="path26"
       inkscape:connector-curvature="0" />
    <path
       d="m 3375,9990 c -3,-5 3,-10 14,-10 12,0 21,5 21,10 0,6 -6,10 -14,10 -8,0 -18,-4 -21,-10 z"
       id="path28"
       inkscape:connector-curvature="0" />
    <path
       d="m 1386,9838 c -2,-7 -9,-28 -15,-47 -22,-68 -5,-106 31,-67 11,12 15,12 29,0 13,-12 51,-16 163,-17 80,-1 146,1 146,6 0,4 9,3 19,-3 46,-24 104,31 80,76 -7,13 -16,24 -21,24 -5,0 -7,-4 -4,-8 2,-4 -8,-8 -22,-7 -37,0 -44,-41 -10,-55 17,-7 18,-9 4,-7 -29,3 -43,33 -28,57 10,16 10,20 -2,20 -8,0 -23,3 -33,6 -15,5 -16,4 -3,-6 12,-9 10,-11 -12,-6 -14,3 -34,9 -44,13 -12,4 -15,3 -10,-5 9,-15 -18,-16 -45,-2 -14,8 -19,7 -19,-1 0,-11 -25,-8 -66,8 -12,4 -15,3 -10,-5 4,-7 1,-12 -9,-12 -10,0 -13,4 -8,13 4,7 -4,5 -18,-5 -25,-16 -26,-16 -38,15 -10,25 -15,28 -18,15 -2,-10 -9,-18 -14,-18 -6,0 -8,4 -4,9 3,5 1,12 -5,16 -6,3 -12,0 -14,-7 z m 5,-51 c -10,-9 -11,-8 -5,6 3,10 9,15 12,12 3,-3 0,-11 -7,-18 z m 55,-51 c -2,-6 -5,-3 -5,7 -1,12 -10,17 -33,18 -31,2 -32,2 -5,6 23,4 27,8 23,26 -3,12 1,7 10,-12 8,-18 13,-38 10,-45 z m 59,3 c 14,-5 15,-8 5,-8 -22,-1 -40,19 -39,44 1,17 2,17 8,-4 3,-13 15,-28 26,-32 z m 70,0 c 11,-4 15,-8 8,-8 -27,-2 -43,12 -42,38 l 1,26 7,-24 c 3,-13 15,-28 26,-32 z m 95,39 c 0,-5 -12,-8 -26,-8 -32,0 -27,-22 7,-31 21,-6 21,-7 4,-8 -25,-1 -45,17 -45,39 0,10 10,15 30,15 17,0 30,-3 30,-7 z m 56,-15 c -6,-6 -36,9 -36,18 0,5 9,4 20,-3 10,-7 18,-14 16,-15 z m 91,-5 c -3,-8 -6,-5 -6,6 -1,11 2,17 5,13 3,-3 4,-12 1,-19 z m -100,-24 c -3,-3 -12,-4 -19,-1 -8,3 -5,6 6,6 11,1 17,-2 13,-5 z"
       id="path30"
       inkscape:connector-curvature="0" />
    <path
       d="m 2785,9841 c 18,-8 17,-9 -10,-12 -29,-4 -30,-5 -30,-59 0,-43 4,-55 17,-58 15,-3 35,31 30,51 -1,4 2,7 7,7 5,0 11,-14 15,-30 l 6,-31 87,1 c 49,1 121,1 161,0 40,0 76,2 81,5 5,3 20,1 34,-4 34,-13 64,-4 71,22 6,23 -24,99 -31,80 -3,-7 -14,-13 -24,-13 -11,0 -17,5 -14,10 3,6 -1,10 -9,10 -9,0 -16,-3 -16,-8 0,-4 -9,-13 -20,-20 -15,-9 -19,-9 -18,0 2,6 -4,13 -13,15 -12,3 -15,-3 -14,-24 2,-18 1,-20 -2,-5 -4,20 -25,29 -57,23 -4,-1 -14,3 -21,9 -10,8 -14,7 -17,-2 -4,-10 -8,-10 -22,1 -9,8 -20,11 -23,7 -4,-4 -3,-10 3,-14 5,-4 7,-22 3,-42 l -6,-35 -2,38 c -1,26 -6,37 -16,37 -8,0 -15,-5 -15,-11 0,-5 -5,-7 -10,-4 -6,4 -8,9 -6,13 7,12 -18,38 -42,45 -18,4 -22,2 -18,-9 3,-9 -1,-14 -13,-14 -11,0 -22,-6 -25,-12 -3,-7 -4,-2 -3,12 1,18 -3,25 -18,27 l -20,3 z m 8,-58 c -7,-2 -21,-2 -30,0 -10,3 -4,5 12,5 17,0 24,-2 18,-5 z m 214,-30 c -3,-10 -5,-4 -5,12 0,17 2,24 5,18 2,-7 2,-21 0,-30 z m 58,-14 c 14,-5 15,-8 5,-8 -22,-1 -40,19 -39,44 1,17 2,17 8,-4 3,-13 15,-28 26,-32 z m 165,21 c 0,-11 -4,-20 -10,-20 -5,0 -7,7 -4,15 7,18 -17,20 -34,3 -8,-8 -12,-9 -12,-1 0,13 16,21 43,22 11,1 17,-6 17,-19 z m -103,-12 c -3,-8 -6,-5 -6,6 -1,11 2,17 5,13 3,-3 4,-12 1,-19 z"
       id="path32"
       inkscape:connector-curvature="0" />
    <path
       d="m 1922,9827 c -7,-8 -8,-17 -4,-21 4,-5 -4,-6 -17,-4 -35,5 -50,-41 -24,-76 17,-22 24,-24 86,-21 38,2 74,8 80,14 8,6 18,5 28,-2 17,-13 218,-15 257,-3 17,6 22,15 22,39 0,18 -5,39 -10,47 -7,11 -10,7 -11,-20 -2,-30 -3,-31 -6,-7 -3,17 -10,27 -21,27 -10,0 -27,7 -38,15 -23,15 -63,13 -75,-6 -4,-7 -16,-8 -30,-4 -13,3 -32,9 -43,12 -11,3 -16,1 -12,-5 3,-5 -3,-12 -15,-15 -15,-4 -18,-2 -10,7 7,8 4,12 -10,12 -10,0 -19,-4 -19,-8 0,-4 -5,-8 -11,-8 -5,0 -7,5 -4,11 4,6 1,10 -6,8 -8,-1 -27,-1 -44,0 -23,1 -27,3 -15,11 13,8 12,10 -2,10 -10,0 -18,-6 -18,-12 0,-10 -2,-10 -9,0 -6,10 -10,10 -19,-1 z m 28,-52 c 0,-19 -4,-35 -8,-35 -4,0 -6,16 -4,35 2,19 6,35 8,35 2,0 4,-16 4,-35 z m 293,-37 c 8,-5 6,-8 -5,-8 -15,0 -18,8 -16,43 1,40 1,40 5,7 3,-19 10,-38 16,-42 z m -335,5 c 14,-12 14,-13 0,-13 -18,0 -29,21 -27,53 2,19 2,19 6,-3 2,-14 12,-31 21,-37 z m 109,10 c -3,-10 -5,-2 -5,17 0,19 2,27 5,18 2,-10 2,-26 0,-35 z m 135,22 c -3,-19 1,-27 19,-35 17,-7 19,-9 5,-7 -24,3 -41,29 -33,51 10,24 15,19 9,-9 z m 143,-36 c 14,-5 15,-8 5,-8 -24,-1 -40,20 -39,49 1,24 2,24 8,-4 3,-16 15,-33 26,-37 z m -175,41 c 0,-5 -12,-10 -26,-10 -32,0 -27,-22 7,-31 21,-6 21,-7 4,-8 -46,-2 -61,45 -17,52 15,2 28,5 30,6 1,0 2,-3 2,-9 z m 80,-20 c 0,-5 -4,-10 -10,-10 -5,0 -10,5 -10,10 0,6 5,10 10,10 6,0 10,-4 10,-10 z"
       id="path34"
       inkscape:connector-curvature="0" />
    <path
       d="m 3130,9809 c 0,-5 5,-7 10,-4 6,3 10,8 10,11 0,2 -4,4 -10,4 -5,0 -10,-5 -10,-11 z"
       id="path36"
       inkscape:connector-curvature="0" />
    <path
       d="m 1263,9776 c 1,-10 10,-24 19,-30 14,-8 20,-6 32,9 17,24 12,35 -17,34 -17,-1 -18,-2 -4,-6 9,-2 17,-9 17,-14 0,-15 -34,-6 -42,11 -6,11 -7,10 -5,-4 z"
       id="path38"
       inkscape:connector-curvature="0" />
    <path
       d="m 2700,9042 v -217 h 80 80 v -77 -77 l -72,-4 c -40,-1 59,-4 220,-5 l 292,-2 v 300 300 h -300 -300 z m 405,73 c 44,-33 64,-72 72,-135 l 6,-49 -124,-3 c -118,-3 -124,-4 -121,-23 7,-39 42,-56 107,-52 33,2 68,7 78,12 15,6 17,1 17,-33 0,-45 -5,-49 -85,-58 -92,-11 -159,28 -185,109 -15,48 -5,90 32,133 33,37 55,46 38,15 -5,-11 -10,-22 -10,-25 0,-3 32,-6 70,-6 79,0 89,12 45,55 -42,43 -126,26 -194,-38 -32,-31 -33,-31 -26,-7 14,47 46,90 88,115 56,35 140,30 192,-10 z"
       id="path40"
       inkscape:connector-curvature="0" />
    <path
       d="m 472,9068 3,-121 115,-39 c 63,-21 118,-45 123,-54 6,-11 12,-13 16,-5 5,8 23,6 63,-8 31,-11 59,-17 62,-14 11,11 7,241 -4,248 -6,4 -39,15 -73,25 -34,10 -109,35 -166,54 -152,52 -142,59 -139,-86 z"
       id="path42"
       inkscape:connector-curvature="0" />
    <path
       d="m 2000,9167 c -14,-7 -29,-22 -35,-35 -11,-25 -25,-28 -43,-10 -19,19 -15,-12 5,-34 15,-16 15,-18 0,-18 -9,0 -21,-10 -28,-21 -9,-18 -13,-19 -20,-8 -14,21 -41,-18 -33,-45 14,-43 78,-61 94,-26 4,8 14,29 23,45 75,140 83,175 37,152 z"
       id="path44"
       inkscape:connector-curvature="0" />
    <path
       d="m 1920,9150 c 0,-5 5,-10 10,-10 6,0 10,5 10,10 0,6 -4,10 -10,10 -5,0 -10,-4 -10,-10 z"
       id="path46"
       inkscape:connector-curvature="0" />
    <path
       d="m 1907,8876 c -9,-7 -17,-20 -17,-29 0,-9 -11,-19 -25,-23 -14,-3 -25,-13 -25,-22 0,-13 -4,-11 -16,6 -9,13 -26,22 -41,22 -13,0 -39,10 -55,22 -25,17 -34,19 -50,9 -10,-6 -24,-9 -30,-5 -6,4 -9,3 -6,-2 16,-29 21,-56 21,-114 l -1,-65 7,54 6,53 32,-30 c 17,-17 51,-36 75,-42 24,-6 51,-13 60,-16 9,-3 21,3 27,13 8,14 12,15 19,5 6,-8 18,-11 35,-7 44,12 48,25 27,104 -10,40 -20,74 -22,76 -2,2 -11,-2 -21,-9 z"
       id="path48"
       inkscape:connector-curvature="0" />
    <path
       d="m 560,8841 c 0,-5 37,-20 83,-35 71,-22 88,-24 120,-14 20,6 37,16 37,21 0,5 -8,6 -17,2 -40,-15 -74,-17 -105,-5 -73,27 -118,39 -118,31 z"
       id="path50"
       inkscape:connector-curvature="0" />
    <path
       d="m 540,8781 c 25,-23 50,-41 55,-41 6,1 1,7 -10,16 -11,8 -19,23 -17,32 2,12 1,14 -6,4 -7,-10 -15,-8 -38,9 -16,11 -9,2 16,-20 z"
       id="path52"
       inkscape:connector-curvature="0" />
    <path
       d="m 372,8802 c -17,-5 13,-19 123,-55 l 146,-48 52,17 c 60,19 81,34 50,34 -12,0 -27,2 -35,3 -7,2 -10,2 -5,0 16,-10 6,-21 -15,-15 -13,3 -19,1 -15,-5 5,-7 -1,-9 -14,-6 -19,5 -20,8 -7,17 16,12 10,22 -22,41 -9,5 -8,0 4,-13 11,-12 14,-22 8,-22 -6,0 -14,4 -17,10 -3,5 -16,15 -28,21 -14,7 -8,-3 16,-26 21,-21 36,-39 34,-41 -7,-8 -256,80 -251,88 3,4 4,8 2,7 -2,-1 -13,-4 -26,-7 z"
       id="path54"
       inkscape:connector-curvature="0" />
    <path
       d="m 1556,8789 c 3,-6 1,-21 -6,-34 -15,-28 -6,-75 14,-75 8,0 17,11 20,25 7,26 31,34 39,13 3,-7 6,8 6,35 l 1,47 h -41 c -26,0 -38,-4 -33,-11 z"
       id="path56"
       inkscape:connector-curvature="0" />
    <path
       d="m 2756,8789 c 3,-6 1,-21 -6,-34 -14,-27 -6,-75 13,-75 7,0 18,15 25,33 12,31 13,31 27,13 14,-18 15,-16 15,27 v 47 h -41 c -26,0 -38,-4 -33,-11 z"
       id="path58"
       inkscape:connector-curvature="0" />
    <path
       d="m 1558,8663 c 23,-2 59,-2 80,0 20,2 1,4 -43,4 -44,0 -61,-2 -37,-4 z"
       id="path60"
       inkscape:connector-curvature="0" />
    <path
       d="m 275,8580 c 3,-5 -3,-10 -14,-10 -15,0 -21,-6 -21,-21 0,-14 5,-19 18,-17 9,2 16,10 15,16 -2,7 2,12 7,12 6,0 10,7 10,15 0,8 -5,15 -11,15 -5,0 -7,-4 -4,-10 z"
       id="path62"
       inkscape:connector-curvature="0" />
    <path
       d="m 800,8578 c 0,-9 -9,-18 -19,-21 -15,-4 -21,-16 -24,-48 l -4,-44 -1,43 c -2,35 -5,42 -22,42 -15,0 -20,-7 -20,-28 0,-15 5,-33 12,-40 8,-8 8,-12 1,-12 -13,0 -23,23 -23,56 0,14 -6,24 -14,24 -8,0 -23,2 -33,5 -11,3 -9,1 5,-6 12,-7 22,-16 22,-22 0,-6 -5,-5 -12,1 -7,5 -26,12 -43,15 -16,3 -39,8 -50,12 -18,6 -18,5 -2,-5 26,-17 21,-40 -8,-40 -30,0 -34,-27 -5,-33 17,-4 16,-4 -2,-3 -16,1 -24,8 -26,24 -3,18 1,22 22,22 14,0 26,5 26,10 0,9 -5,11 -42,14 -6,1 -15,-11 -19,-26 -12,-44 18,-73 71,-70 23,2 49,-3 57,-10 21,-17 41,-18 47,-2 8,20 112,19 120,-1 7,-19 33,-19 44,0 9,17 57,23 84,11 12,-5 25,0 43,18 30,30 31,37 6,67 l -18,23 2,-30 c 1,-16 0,-21 -2,-11 -5,19 -13,24 -53,31 -14,2 -34,7 -45,11 -16,6 -17,5 -5,-4 8,-6 10,-11 4,-11 -17,0 -70,29 -66,36 2,3 1,8 -2,12 -3,3 -6,-2 -6,-10 z m -162,-95 c 14,-12 14,-13 0,-13 -18,0 -29,21 -27,53 2,19 2,19 6,-3 2,-14 12,-31 21,-37 z m 248,12 c -4,-15 -13,-25 -24,-25 -16,1 -16,1 1,11 9,5 17,20 17,31 0,12 3,19 6,15 4,-3 4,-18 0,-32 z m 31,3 c -3,-7 -5,-2 -5,12 0,14 2,19 5,13 2,-7 2,-19 0,-25 z m -237,-8 c 0,-5 -5,-10 -11,-10 -5,0 -7,5 -4,10 3,6 8,10 11,10 2,0 4,-4 4,-10 z m 277,-16 c -3,-3 -12,-4 -19,-1 -8,3 -5,6 6,6 11,1 17,-2 13,-5 z"
       id="path64"
       inkscape:connector-curvature="0" />
    <path
       d="m 1384,8579 c -3,-5 -2,-9 3,-9 4,0 1,-5 -7,-10 -8,-5 -15,-15 -16,-22 0,-7 -2,-21 -2,-30 -4,-35 -21,-17 -24,25 -2,34 -7,42 -23,42 -17,0 -20,-8 -23,-50 -4,-81 -28,-74 288,-76 63,0 117,-2 121,-5 19,-11 39,12 48,57 13,61 13,59 0,59 -5,0 -7,-5 -3,-12 5,-8 2,-9 -11,-4 -36,14 -132,19 -139,7 -5,-7 -1,-9 11,-5 17,6 17,6 1,-7 -9,-8 -19,-27 -21,-44 -3,-25 -4,-23 -6,11 l -1,40 h -54 c -40,0 -53,-3 -49,-13 9,-23 -7,-63 -25,-63 -16,1 -16,1 1,11 9,5 17,19 17,29 0,10 -8,24 -17,29 -12,7 -13,11 -5,11 11,0 11,2 0,13 -17,18 -57,27 -64,16 z m -67,-51 c -3,-8 -6,-5 -6,6 -1,11 2,17 5,13 3,-3 4,-12 1,-19 z m 356,15 c -7,-2 -19,-2 -25,0 -7,3 -2,5 12,5 14,0 19,-2 13,-5 z m -158,-13 c -3,-6 6,-11 22,-11 l 28,-2 -28,-4 c -33,-5 -31,-25 4,-34 14,-4 17,-7 7,-8 -32,-2 -48,11 -48,40 0,16 5,29 11,29 5,0 7,-4 4,-10 z m 202,-42 c -2,-13 -4,-5 -4,17 -1,22 1,32 4,23 2,-10 2,-28 0,-40 z m -27,13 c 0,-24 -4,-28 -27,-27 -19,1 -28,7 -29,19 -2,13 -1,14 3,2 5,-18 34,-16 41,3 2,6 -5,12 -15,13 -16,0 -16,1 2,9 11,5 21,9 23,9 1,1 2,-12 2,-28 z m -337,-28 c -7,-2 -21,-2 -30,0 -10,3 -4,5 12,5 17,0 24,-2 18,-5 z"
       id="path66"
       inkscape:connector-curvature="0" />
    <path
       d="m 1797,8576 c -9,-24 -9,-98 1,-114 5,-7 33,-13 70,-14 40,-1 63,-6 66,-15 7,-18 33,-17 43,2 7,12 37,15 161,16 150,0 153,1 168,25 15,22 15,26 0,48 -14,22 -19,24 -48,15 -41,-11 -47,-11 -28,1 13,8 12,10 -2,10 -12,0 -18,8 -19,23 0,21 -1,21 -9,2 -6,-13 -9,-15 -9,-5 -1,10 -6,7 -17,-9 -12,-16 -23,-21 -38,-17 -20,5 -22,2 -18,-25 3,-19 12,-34 26,-39 l 21,-9 h -21 c -22,-1 -34,16 -34,49 0,11 -9,24 -19,30 -25,13 -42,13 -18,-1 11,-6 17,-22 17,-43 0,-30 -3,-33 -27,-32 -38,1 -44,33 -9,42 28,7 36,24 12,24 -8,0 -21,3 -30,6 -16,6 -20,1 -30,-48 -4,-18 -13,-28 -24,-28 -16,1 -16,1 1,11 20,12 23,55 5,62 -7,2 -5,3 5,1 9,-1 15,1 12,5 -5,9 -117,7 -132,-2 -6,-4 -16,0 -23,8 -7,8 -18,15 -25,15 -8,0 -15,5 -17,12 -3,7 -7,5 -11,-6 z m 111,-33 c -10,-2 -18,-8 -18,-13 0,-5 8,-14 18,-19 9,-6 13,-10 7,-11 -5,0 -16,4 -24,9 -18,12 -6,41 16,40 17,-1 17,-2 1,-6 z m 379,-40 c -3,-10 -5,-4 -5,12 0,17 2,24 5,18 2,-7 2,-21 0,-30 z m -427,23 c 0,-2 -11,-6 -25,-8 -14,-3 -25,-1 -25,3 0,5 11,9 25,9 14,0 25,-2 25,-4 z m 401,-46 c 12,0 20,-3 16,-6 -3,-4 -18,-4 -32,0 -18,5 -25,13 -24,29 v 22 l 9,-22 c 6,-14 18,-23 31,-23 z m -91,20 c 0,-5 -4,-10 -10,-10 -5,0 -10,5 -10,10 0,6 5,10 10,10 6,0 10,-4 10,-10 z m -213,-22 c -3,-8 -6,-5 -6,6 -1,11 2,17 5,13 3,-3 4,-12 1,-19 z m -97,0 c 0,-5 -11,-8 -25,-8 -14,0 -25,3 -25,8 0,4 11,7 25,7 14,0 25,-3 25,-7 z m 55,2 c -3,-5 -14,-10 -23,-9 -14,0 -13,2 3,9 27,11 27,11 20,0 z"
       id="path68"
       inkscape:connector-curvature="0" />
    <path
       d="m 1853,8575 c 0,-9 4,-14 9,-13 5,2 10,8 10,13 0,5 -5,11 -10,13 -5,1 -9,-4 -9,-13 z"
       id="path70"
       inkscape:connector-curvature="0" />
    <path
       d="m 2520,8582 c 0,-7 5,-22 11,-34 6,-11 9,-22 6,-24 -2,-3 -11,10 -20,28 l -16,32 -7,-27 c -6,-24 0,-94 8,-102 3,-3 200,-6 283,-4 17,0 97,0 179,-1 112,0 151,3 158,12 14,22 9,95 -7,108 -13,10 -15,9 -15,-9 0,-11 -4,-21 -9,-21 -5,0 -7,8 -4,19 3,10 0,22 -6,25 -6,4 -11,2 -11,-4 0,-7 -7,-10 -15,-6 -23,8 -50,-25 -49,-59 l 2,-30 -5,29 c -4,23 -8,27 -28,23 -14,-2 -22,0 -19,4 3,5 -1,9 -10,9 -8,0 -23,3 -33,6 -14,4 -15,4 -4,-4 14,-10 -52,-9 -159,3 -43,5 -52,4 -40,-5 12,-10 10,-11 -10,-6 -14,3 -28,6 -32,6 -5,0 -9,10 -9,23 -1,16 -2,18 -6,5 -2,-10 -9,-18 -14,-18 -6,0 -8,4 -4,9 3,6 -3,9 -14,8 -10,0 -17,-6 -14,-13 2,-6 -3,-14 -12,-17 -12,-5 -14,-1 -9,21 5,25 4,25 -7,7 -7,-11 -13,-22 -15,-24 -2,-2 -12,7 -23,20 -12,14 -20,18 -21,11 z m 539,-40 c -5,-2 -10,-20 -10,-40 l -2,-37 -6,40 c -9,52 -4,69 14,52 7,-7 9,-13 4,-15 z m -312,-24 c -3,-7 -5,-2 -5,12 0,14 2,19 5,13 2,-7 2,-19 0,-25 z m -140,-10 c -3,-7 -5,-2 -5,12 0,14 2,19 5,13 2,-7 2,-19 0,-25 z m 195,7 c -3,-19 1,-27 19,-35 17,-7 19,-9 5,-7 -24,3 -41,29 -33,51 10,24 15,19 9,-9 z m 55,-12 c -3,-10 -5,-4 -5,12 0,17 2,24 5,18 2,-7 2,-21 0,-30 z m 63,-8 c 0,-3 -9,0 -20,7 -11,7 -20,18 -20,25 0,8 8,5 20,-7 11,-11 20,-22 20,-25 z m -243,3 c -3,-7 -5,-2 -5,12 0,14 2,19 5,13 2,-7 2,-19 0,-25 z m 425,2 c 3,-16 1,-30 -4,-30 -4,0 -8,14 -8,30 0,17 2,30 4,30 2,0 6,-13 8,-30 z m -121,-20 c 12,0 20,-3 16,-6 -3,-4 -18,-4 -32,0 -18,5 -25,13 -24,29 v 22 l 9,-22 c 6,-14 18,-23 31,-23 z m -421,19 c 0,8 2,12 5,9 3,-3 2,-13 -1,-22 -5,-14 -9,-15 -15,-4 -5,7 -9,18 -9,23 0,6 5,3 10,-5 8,-12 10,-12 10,-1 z m 187,-21 c -3,-8 -6,-5 -6,6 -1,11 2,17 5,13 3,-3 4,-12 1,-19 z m -34,-5 c -7,-2 -19,-2 -25,0 -7,3 -2,5 12,5 14,0 19,-2 13,-5 z m 194,1 c -3,-3 -12,-4 -19,-1 -8,3 -5,6 6,6 11,1 17,-2 13,-5 z"
       id="path72"
       inkscape:connector-curvature="0" />
    <path
       d="m 3167,8577 c -10,-25 -9,-99 2,-116 6,-10 36,-13 117,-13 73,0 102,-3 91,-10 -9,-5 -17,-13 -17,-18 0,-17 25,-11 50,12 16,15 34,21 55,19 26,-2 34,2 40,21 14,41 10,60 -15,76 -18,11 -21,12 -12,2 20,-22 14,-40 -13,-40 -31,0 -33,-18 -2,-30 13,-5 16,-9 7,-9 -33,-2 -55,49 -28,65 7,4 8,3 4,-4 -5,-8 0,-12 13,-12 22,0 30,19 9,21 -41,4 -56,7 -78,13 -25,6 -25,6 -2,-5 12,-7 22,-19 22,-27 0,-13 -3,-12 -14,3 -16,23 -46,14 -46,-14 0,-11 8,-25 18,-30 15,-9 15,-10 1,-11 -9,0 -20,7 -23,16 -9,24 -7,54 4,54 6,0 1,9 -10,20 -24,24 -27,24 -46,6 -12,-13 -11,-15 6,-21 11,-3 20,-11 20,-17 0,-7 -5,-6 -14,1 -8,7 -28,13 -45,13 -17,1 -36,7 -42,15 -16,18 -29,16 -30,-4 -1,-10 -4,-4 -8,12 -5,25 -8,27 -14,12 z m 61,-48 c -2,-6 -7,-10 -11,-10 -4,1 -15,1 -24,2 -15,0 -15,2 2,9 28,12 37,12 33,-1 z m 29,-26 c -3,-10 -5,-4 -5,12 0,17 2,24 5,18 2,-7 2,-21 0,-30 z m 53,-23 c -8,-6 -24,-9 -35,-9 l -20,1 20,5 c 11,3 24,9 29,14 5,5 12,6 15,3 3,-3 -1,-9 -9,-14 z m 100,10 c 0,-5 -5,-10 -11,-10 -5,0 -7,5 -4,10 3,6 8,10 11,10 2,0 4,-4 4,-10 z m -180,-10 c 0,-5 -12,-10 -27,-9 l -28,1 25,8 c 14,4 26,8 28,9 1,1 2,-3 2,-9 z"
       id="path74"
       inkscape:connector-curvature="0" />
    <path
       d="m 3223,8575 c 0,-9 4,-14 9,-13 5,2 10,8 10,13 0,5 -5,11 -10,13 -5,1 -9,-4 -9,-13 z"
       id="path76"
       inkscape:connector-curvature="0" />
    <path
       d="m 218,8567 c -11,-26 -10,-89 2,-107 7,-12 32,-14 132,-12 82,2 125,7 130,15 12,17 5,80 -9,84 -7,3 -9,-3 -6,-16 4,-17 1,-21 -21,-21 -32,0 -34,-17 -3,-30 13,-5 16,-9 6,-9 -18,-1 -39,18 -39,36 0,7 11,13 25,13 14,0 25,5 25,10 0,6 -6,10 -14,10 -7,0 -25,9 -40,21 -20,16 -26,17 -26,6 0,-9 6,-18 13,-20 6,-3 2,-6 -10,-6 -15,-1 -21,3 -17,13 4,11 0,13 -15,9 -11,-3 -18,-10 -14,-16 4,-6 -4,-8 -21,-3 -22,5 -29,3 -33,-12 -3,-14 -11,-18 -24,-15 -14,4 -19,0 -19,-17 0,-17 4,-20 20,-15 11,4 20,2 20,-4 0,-6 -11,-11 -25,-11 -22,0 -24,4 -27,58 -2,37 -6,51 -10,39 z m 118,-83 c -3,-8 -13,-13 -23,-13 -17,1 -17,2 0,6 21,5 22,22 2,29 -8,4 -15,12 -15,20 0,10 6,8 21,-7 11,-11 18,-27 15,-35 z m 58,-6 c 7,-5 5,-8 -6,-8 -14,0 -18,8 -17,33 2,27 2,28 6,7 3,-14 10,-28 17,-32 z"
       id="path78"
       inkscape:connector-curvature="0" />
    <path
       d="m 2045,8499 c -4,-6 -4,-13 -1,-16 8,-8 36,5 36,17 0,13 -27,13 -35,-1 z"
       id="path80"
       inkscape:connector-curvature="0" />
    <path
       d="m 2713,7793 c -10,-3 -13,-57 -13,-217 v -213 l 43,1 c 32,1 41,5 38,16 -2,8 -10,37 -17,63 -29,107 26,224 131,280 56,30 155,29 211,0 48,-26 101,-82 122,-132 21,-52 18,-143 -8,-196 -24,-51 -78,-101 -129,-122 -46,-20 -137,-19 -185,1 -21,9 -40,16 -42,16 -2,0 -4,-18 -4,-39 v -40 l -47,-4 c -27,-2 71,-3 217,-3 l 265,1 3,289 c 2,225 -1,291 -10,298 -14,8 -554,10 -575,1 z"
       id="path82"
       inkscape:connector-curvature="0" />
    <path
       d="m 1918,7740 c -65,-9 -120,-19 -122,-21 -6,-6 -9,-57 -8,-136 l 2,-73 h 135 135 v 125 c 0,94 -3,125 -12,124 -7,-1 -66,-9 -130,-19 z"
       id="path84"
       inkscape:connector-curvature="0" />
    <path
       d="m 1729,7716 c -3,-3 -46,-10 -97,-17 l -92,-12 v -88 -89 h 105 105 v 105 c 0,93 -5,117 -21,101 z"
       id="path86"
       inkscape:connector-curvature="0" />
    <path
       d="m 2852,7541 c -57,-29 -71,-40 -60,-48 14,-12 134,-73 142,-73 3,0 1,11 -4,25 l -10,25 h 80 c 44,0 80,-3 80,-6 0,-3 -5,-14 -10,-25 -6,-10 -8,-19 -6,-19 11,0 156,75 156,80 0,5 -98,58 -144,79 -5,2 -6,-8 -2,-23 l 6,-26 h -78 c -79,0 -79,0 -74,25 2,14 3,25 1,25 -2,-1 -37,-18 -77,-39 z"
       id="path88"
       inkscape:connector-curvature="0" />
    <path
       d="m 456,7555 c -7,-19 20,-46 39,-39 9,4 15,0 15,-8 0,-7 9,-19 20,-25 16,-11 21,-10 30,7 7,14 7,20 0,20 -5,0 -10,7 -10,15 0,15 -48,45 -73,45 -8,0 -17,-7 -21,-15 z"
       id="path90"
       inkscape:connector-curvature="0" />
    <path
       d="m 420,7495 c 0,-39 27,-85 50,-85 21,0 28,34 10,45 -6,4 -8,10 -5,15 10,16 -15,50 -35,50 -15,0 -20,-7 -20,-25 z"
       id="path92"
       inkscape:connector-curvature="0" />
    <path
       d="m 1840,7481 -56,-6 2,-90 c 2,-117 -1,-110 36,-113 17,-1 49,-16 72,-32 45,-33 62,-36 90,-15 11,8 32,15 48,15 23,0 28,4 28,24 0,14 4,35 9,48 5,13 12,46 15,73 6,42 4,54 -12,73 -17,19 -32,23 -98,26 -44,2 -104,1 -134,-3 z m 172,-23 59,-23 -3,-45 -3,-45 h -53 -52 v -56 c 0,-31 -3,-58 -6,-61 -8,-9 -42,25 -36,36 3,5 0,6 -6,2 -9,-6 -82,71 -82,88 0,3 25,6 55,6 h 55 v 60 c 0,33 3,60 6,60 4,0 33,-10 66,-22 z"
       id="path94"
       inkscape:connector-curvature="0" />
    <path
       d="m 1540,7425 v -54 l 63,-3 c 34,-2 61,-6 60,-10 -2,-5 -3,-39 -3,-77 v -70 l -47,-4 -48,-3 53,-2 52,-2 v 46 47 l 40,-6 40,-5 v 83 c 0,46 3,90 6,99 5,14 -8,16 -105,16 h -111 z"
       id="path96"
       inkscape:connector-curvature="0" />
    <path
       d="m 519,7441 c -23,-19 -23,-21 -7,-37 25,-25 54,-24 69,2 26,49 -17,72 -62,35 z"
       id="path98"
       inkscape:connector-curvature="0" />
    <path
       d="m 630,7305 c 0,-25 -5,-45 -10,-45 -6,0 -49,14 -97,30 -93,32 -107,35 -98,21 3,-6 50,-24 104,-42 l 99,-33 71,23 c 39,12 73,26 76,31 7,11 -26,30 -80,47 -62,20 -65,18 -65,-32 z"
       id="path100"
       inkscape:connector-curvature="0" />
    <path
       d="m 2862,7325 c 0,-16 2,-22 5,-12 2,9 2,23 0,30 -3,6 -5,-1 -5,-18 z"
       id="path102"
       inkscape:connector-curvature="0" />
    <path
       d="m 1557,7321 c 3,-10 0,-22 -6,-25 -15,-9 -14,-49 1,-64 17,-17 28,-15 28,6 0,27 21,44 37,31 10,-9 13,-3 13,30 v 41 h -39 c -33,0 -38,-3 -34,-19 z"
       id="path104"
       inkscape:connector-curvature="0" />
    <path
       d="m 2757,7321 c 3,-10 0,-22 -6,-25 -15,-9 -14,-49 1,-64 17,-17 28,-15 28,6 0,27 21,44 37,31 10,-9 13,-3 13,30 v 41 h -39 c -33,0 -38,-3 -34,-19 z"
       id="path106"
       inkscape:connector-curvature="0" />
    <path
       d="m 1528,7203 c 7,-3 16,-2 19,1 4,3 -2,6 -13,5 -11,0 -14,-3 -6,-6 z"
       id="path108"
       inkscape:connector-curvature="0" />
    <path
       d="m 2728,7203 c 7,-3 16,-2 19,1 4,3 -2,6 -13,5 -11,0 -14,-3 -6,-6 z"
       id="path110"
       inkscape:connector-curvature="0" />
    <path
       d="m 273,7108 c 2,-13 2,-17 0,-10 -3,6 -18,12 -34,12 -27,0 -29,-3 -29,-37 0,-77 18,-102 46,-65 13,16 15,16 25,0 6,-11 22,-18 39,-18 16,0 35,-7 44,-15 13,-13 18,-13 49,5 26,16 40,18 59,11 14,-5 43,-6 68,-1 26,5 52,4 62,-1 12,-6 32,-6 58,1 25,7 47,7 57,2 22,-12 65,-5 75,11 13,21 9,54 -11,78 l -20,24 6,-42 c 4,-28 2,-43 -5,-43 -6,0 -9,7 -6,15 4,9 0,15 -9,15 -22,0 -32,-20 -16,-32 12,-8 11,-9 -1,-5 -26,7 -24,36 4,43 30,7 35,24 7,24 -11,0 -21,5 -23,12 -3,8 -12,5 -28,-10 -13,-12 -26,-19 -29,-16 -3,4 0,9 7,11 22,8 13,23 -13,21 -20,-2 -23,-6 -19,-25 5,-20 2,-23 -20,-23 -32,0 -34,-17 -3,-30 13,-5 16,-9 7,-9 -19,-1 -40,18 -40,36 0,7 11,13 25,13 14,0 25,5 25,10 0,6 -7,10 -16,10 -8,0 -12,4 -9,10 3,6 -1,7 -10,4 -9,-4 -22,1 -30,12 -14,18 -16,18 -28,2 -8,-10 -17,-15 -20,-11 -4,3 -7,2 -7,-4 0,-6 -9,-13 -20,-16 -13,-3 -18,-1 -13,6 4,6 0,8 -9,4 -9,-3 -21,0 -27,6 -8,8 -11,8 -11,-1 0,-7 -7,-12 -16,-12 -8,0 -13,3 -10,8 2,4 -13,7 -34,7 -21,0 -36,-3 -34,-7 3,-5 -5,-8 -18,-7 -13,0 -17,3 -10,6 9,3 7,10 -9,24 -28,24 -30,24 -26,-3 z m 2,-48 c -3,-5 -16,-10 -28,-9 -20,1 -20,2 3,9 14,4 26,8 28,9 2,1 0,-3 -3,-9 z m 75,-15 c 0,-14 -4,-25 -10,-25 -5,0 -7,7 -4,15 7,17 -31,22 -39,5 -3,-6 -4,-5 -3,2 1,7 13,15 27,19 13,4 25,7 27,8 1,1 2,-10 2,-24 z m 86,-10 c -4,-15 -13,-25 -24,-25 -16,1 -16,1 1,11 9,5 17,20 17,31 0,12 3,19 6,15 4,-3 4,-18 0,-32 z m 84,25 c 0,-5 -12,-10 -26,-10 -32,0 -27,-22 7,-31 21,-6 21,-7 4,-8 -46,-2 -61,45 -17,52 15,2 28,5 30,6 1,0 2,-3 2,-9 z m 147,-32 c -3,-8 -6,-5 -6,6 -1,11 2,17 5,13 3,-3 4,-12 1,-19 z m -280,-10 c -3,-8 -6,-5 -6,6 -1,11 2,17 5,13 3,-3 4,-12 1,-19 z"
       id="path112"
       inkscape:connector-curvature="0" />
    <path
       d="m 1460,7119 c -8,-5 -27,-6 -41,-3 -36,7 -41,-12 -22,-75 12,-43 18,-51 38,-51 13,0 26,6 28,13 4,10 6,10 6,0 1,-17 33,-17 49,-1 10,10 15,10 20,1 8,-13 181,-21 200,-9 7,4 20,3 29,-2 9,-6 26,-6 38,-2 12,4 55,4 95,0 96,-11 110,-3 110,56 0,42 -2,45 -21,39 -13,-5 -19,-3 -15,3 3,5 -2,9 -12,8 -9,0 -23,-12 -30,-26 -12,-23 -13,-23 -8,-2 3,17 0,22 -16,22 -15,0 -18,-5 -14,-22 4,-15 1,-12 -9,7 -8,17 -14,25 -15,18 0,-7 -11,-10 -28,-7 -26,4 -28,2 -27,-23 2,-20 1,-21 -2,-5 -3,17 -10,22 -26,20 -32,-4 -35,-45 -5,-57 15,-7 17,-10 7,-10 -22,-1 -41,23 -38,46 4,24 -10,63 -22,63 -13,0 -44,-30 -32,-30 4,0 0,-5 -9,-11 -10,-5 -18,-19 -18,-29 0,-10 8,-24 18,-29 9,-6 12,-11 7,-11 -30,-1 -49,63 -22,73 7,4 6,6 -5,6 -9,1 -24,4 -34,8 -10,3 -15,2 -11,-3 3,-5 -6,-14 -19,-21 -13,-6 -24,-7 -24,-2 0,5 5,9 10,9 6,0 10,5 10,11 0,5 -4,8 -9,5 -4,-3 -17,1 -27,9 -26,20 -33,19 -45,-7 l -10,-23 5,23 c 2,12 0,19 -5,16 -6,-3 -15,-1 -22,5 -8,6 -18,6 -27,0 z m 10,-18 c 0,-6 -4,-13 -10,-16 -5,-3 -10,1 -10,9 0,9 5,16 10,16 6,0 10,-4 10,-9 z m 260,-41 c 0,-22 -3,-40 -8,-40 -4,0 -6,18 -4,40 2,22 6,40 8,40 2,0 4,-18 4,-40 z m -313,-2 c -3,-8 -6,-5 -6,6 -1,11 2,17 5,13 3,-3 4,-12 1,-19 z m 60,0 c -3,-8 -6,-5 -6,6 -1,11 2,17 5,13 3,-3 4,-12 1,-19 z m 513,-23 c 0,-3 -9,0 -20,7 -11,7 -20,18 -20,25 0,8 8,5 20,-7 11,-11 20,-22 20,-25 z m -483,13 c -3,-8 -6,-5 -6,6 -1,11 2,17 5,13 3,-3 4,-12 1,-19 z m 130,-25 c -3,-10 -5,-2 -5,17 0,19 2,27 5,18 2,-10 2,-26 0,-35 z m -197,7 c 0,-5 -4,-10 -10,-10 -5,0 -10,5 -10,10 0,6 5,10 10,10 6,0 10,-4 10,-10 z m 55,0 c 3,-5 1,-10 -4,-10 -6,0 -11,5 -11,10 0,6 2,10 4,10 3,0 8,-4 11,-10 z m 370,0 c 3,-5 1,-10 -4,-10 -6,0 -11,5 -11,10 0,6 2,10 4,10 3,0 8,-4 11,-10 z m 55,0 c 0,-5 -5,-10 -11,-10 -5,0 -7,5 -4,10 3,6 8,10 11,10 2,0 4,-4 4,-10 z m 63,-17 c -7,-2 -19,-2 -25,0 -7,3 -2,5 12,5 14,0 19,-2 13,-5 z"
       id="path114"
       inkscape:connector-curvature="0" />
    <path
       d="m 2060,7115 c -9,-11 -8,-35 6,-102 5,-25 39,-32 47,-10 4,10 7,10 18,0 17,-17 54,-16 68,1 23,27 24,80 3,106 l -19,24 2,-49 c 1,-28 0,-34 -2,-12 -4,35 -15,44 -47,38 -5,-1 -16,1 -25,5 -28,12 -40,12 -51,-1 z m 28,-57 -1,-53 -4,45 c -3,24 -10,48 -16,52 -8,5 -6,8 6,8 14,0 17,-8 15,-52 z m 53,10 c -4,-35 -6,-38 -9,-15 -3,26 3,57 10,57 2,0 1,-19 -1,-42 z m 36,-54 c -3,-3 -12,-4 -19,-1 -8,3 -5,6 6,6 11,1 17,-2 13,-5 z"
       id="path116"
       inkscape:connector-curvature="0" />
    <path
       d="m 2523,7123 c 9,-2 23,-2 30,0 6,3 -1,5 -18,5 -16,0 -22,-2 -12,-5 z"
       id="path118"
       inkscape:connector-curvature="0" />
    <path
       d="m 3370,7107 c 0,-18 -2,-19 -11,-7 -7,11 -8,3 -4,-30 11,-77 14,-81 46,-76 16,2 32,0 35,-5 8,-13 35,-7 57,12 23,21 18,92 -8,117 -16,16 -17,16 -10,-8 3,-14 3,-20 -2,-14 -4,6 -19,15 -32,19 -20,6 -22,5 -13,-10 5,-10 7,-27 5,-39 -3,-12 -1,-17 4,-10 4,6 17,14 28,18 11,4 16,4 12,0 -4,-4 -2,-13 4,-21 14,-16 -5,-43 -30,-42 -11,0 -9,3 7,9 23,10 29,25 12,35 -6,3 -18,-2 -28,-11 -16,-17 -17,-16 -23,24 -6,45 -12,55 -34,58 -9,1 -15,-6 -15,-19 z m 17,-64 c -2,-16 -4,-5 -4,22 0,28 2,40 4,28 2,-13 2,-35 0,-50 z"
       id="path120"
       inkscape:connector-curvature="0" />
    <path
       d="m 876,7105 c -3,-8 2,-19 12,-24 9,-5 13,-13 8,-18 -5,-4 -11,-2 -13,5 -3,6 -13,12 -24,12 -14,0 -19,-7 -19,-25 0,-33 28,-45 46,-20 8,10 14,14 14,9 0,-16 -22,-34 -41,-34 -18,0 -28,18 -30,53 -1,20 -2,20 -8,-3 -5,-15 -3,-35 5,-52 12,-23 18,-26 46,-21 39,6 59,7 73,3 6,-1 19,-2 31,-1 37,2 29,111 -9,111 -7,0 -7,-4 1,-12 20,-20 14,-38 -14,-38 -32,0 -27,-22 7,-31 21,-6 21,-7 4,-8 -23,-1 -45,16 -45,36 0,7 11,13 25,13 14,0 25,5 25,10 0,6 -11,10 -25,10 -14,0 -29,8 -35,20 -13,24 -26,26 -34,5 z"
       id="path122"
       inkscape:connector-curvature="0" />
    <path
       d="m 2841,7101 c -8,-11 -22,-22 -32,-24 -11,-3 -19,-17 -22,-38 l -4,-34 -1,38 c -1,24 -7,37 -16,37 -8,0 -16,-3 -19,-7 -2,-5 -3,-3 -1,3 1,7 -8,14 -21,16 -21,5 -23,2 -18,-30 6,-36 -6,-52 -39,-52 -12,0 -18,7 -17,23 1,17 2,18 6,4 3,-10 12,-17 21,-15 22,4 26,26 5,31 -17,4 -17,5 0,6 27,2 20,18 -10,24 -16,3 -37,9 -48,13 -17,6 -18,5 -8,-7 9,-11 6,-14 -16,-14 -19,0 -28,5 -27,15 1,10 -10,16 -31,17 l -33,1 v -53 c 0,-55 18,-77 45,-55 7,6 15,6 22,-1 7,-7 60,-10 144,-9 74,1 148,2 166,1 25,-1 33,4 39,21 7,22 7,22 14,2 7,-17 17,-21 61,-22 32,0 57,4 61,11 6,9 8,9 8,-1 0,-9 17,-12 63,-10 34,1 68,-1 75,-6 6,-4 28,-4 47,0 27,5 36,12 41,33 3,14 9,36 14,48 5,11 6,23 3,26 -9,10 -41,-27 -46,-53 -4,-23 -4,-23 -6,4 0,17 6,34 16,41 14,11 12,12 -15,11 -18,0 -32,-4 -32,-7 0,-4 -10,-9 -22,-12 -23,-6 -23,-6 -3,10 18,14 18,15 2,9 -10,-3 -34,-6 -52,-6 -29,0 -33,-3 -29,-22 3,-17 1,-15 -10,7 -9,17 -15,24 -16,17 0,-7 -4,-10 -10,-7 -13,8 -13,-21 0,-46 6,-11 7,-19 1,-19 -5,0 -13,17 -18,37 -6,26 -15,39 -28,41 -16,3 -18,1 -7,-9 20,-21 14,-39 -13,-39 -31,0 -33,-18 -2,-30 13,-5 16,-9 7,-9 -24,-1 -40,20 -39,49 0,14 3,19 6,13 6,-15 43,-18 43,-3 0,5 -18,14 -40,20 -22,6 -40,15 -40,20 0,16 -36,11 -51,-6 -11,-14 -13,-14 -21,0 -12,21 -31,20 -47,-3 z m 38,-31 c 0,-10 -3,-8 -9,5 -12,27 -12,43 0,25 5,-8 9,-22 9,-30 z m -342,-12 c -3,-8 -6,-5 -6,6 -1,11 2,17 5,13 3,-3 4,-12 1,-19 z m 380,0 c -3,-8 -6,-5 -6,6 -1,11 2,17 5,13 3,-3 4,-12 1,-19 z m -80,-35 c -3,-10 -5,-2 -5,17 0,19 2,27 5,18 2,-10 2,-26 0,-35 z m -230,30 c -33,-5 -31,-25 4,-34 l 24,-7 -26,-1 c -25,-1 -39,14 -39,40 0,5 15,8 33,8 31,-2 31,-2 4,-6 z m 610,0 c -33,-5 -31,-25 4,-34 21,-6 21,-7 4,-8 -23,-1 -45,16 -45,36 0,8 12,12 33,12 31,-2 31,-2 4,-6 z m -316,-17 c 5,3 9,0 9,-6 0,-15 -23,-7 -26,8 -1,7 0,8 3,2 2,-5 9,-8 14,-4 z"
       id="path124"
       inkscape:connector-curvature="0" />
    <path
       d="m 2785,7090 c -8,-13 5,-13 25,0 13,8 13,10 -2,10 -9,0 -20,-4 -23,-10 z"
       id="path126"
       inkscape:connector-curvature="0" />
    <path
       d="m 550,6925 c -1,-5 -2,-13 -1,-17 0,-5 -8,-8 -18,-8 -11,0 -21,-5 -23,-11 -3,-8 -14,-8 -41,-1 -36,10 -37,10 -31,-14 5,-20 3,-24 -17,-23 -17,1 -19,3 -6,6 9,2 17,9 17,14 0,6 -8,9 -17,7 -29,-5 -23,-51 7,-59 14,-4 18,-7 8,-8 -49,-3 -67,45 -27,72 20,15 20,15 -5,13 -14,0 -26,-5 -26,-10 0,-5 -6,-3 -14,3 -29,24 -58,-36 -40,-83 7,-19 40,-21 47,-3 4,9 8,9 15,-2 7,-10 31,-13 83,-12 207,5 242,3 271,-19 l 28,-21 23,25 c 16,17 27,22 38,16 9,-5 24,-7 35,-4 26,7 32,85 9,104 -14,12 -15,10 -10,-13 6,-24 4,-27 -19,-27 -32,0 -34,-17 -3,-30 22,-10 22,-10 -3,-7 -27,2 -41,40 -21,60 17,17 13,26 -8,20 -15,-4 -19,0 -17,14 2,10 1,13 -1,6 -5,-14 -32,-25 -44,-17 -6,3 -7,-11 -3,-34 5,-35 3,-41 -15,-47 -26,-8 -41,1 -40,23 1,15 2,15 6,-1 3,-10 12,-17 21,-15 22,4 27,28 5,29 -16,0 -16,1 2,9 l 20,8 -20,8 c -11,4 -27,16 -36,26 -9,10 -20,18 -24,18 -4,0 -15,-8 -24,-18 -9,-10 -24,-21 -33,-25 -26,-9 -22,-46 5,-57 22,-10 22,-10 -3,-7 -27,2 -41,40 -21,60 16,16 14,27 -3,21 -9,-4 -16,3 -19,18 -2,13 -5,19 -7,13 z m -213,-92 c -3,-10 -5,-2 -5,17 0,19 2,27 5,18 2,-10 2,-26 0,-35 z m 136,26 c -4,-15 0,-27 12,-35 20,-15 16,-18 -9,-8 -16,6 -22,45 -9,57 10,11 11,8 6,-14 z m 47,-19 c 0,-5 -4,-10 -10,-10 -5,0 -10,5 -10,10 0,6 5,10 10,10 6,0 10,-4 10,-10 z m 110,0 c 0,-5 -5,-10 -11,-10 -5,0 -7,5 -4,10 3,6 8,10 11,10 2,0 4,-4 4,-10 z m 130,-55 c -7,-9 -15,-13 -17,-11 -6,6 20,36 26,30 2,-2 -2,-10 -9,-19 z"
       id="path128"
       inkscape:connector-curvature="0" />
    <path
       d="m 1238,6910 c -14,-45 -8,-77 17,-104 27,-29 37,-31 66,-15 17,9 21,7 26,-10 6,-25 28,-27 41,-5 9,17 18,18 117,12 33,-2 84,-1 113,2 29,4 55,4 57,0 3,-4 16,-5 29,-3 18,4 27,14 32,37 14,57 -1,80 -47,72 -14,-3 -31,0 -38,7 -14,14 -34,16 -42,4 -11,-16 -80,-16 -86,-1 -6,16 -33,19 -33,4 0,-5 -8,-10 -17,-11 -12,0 -8,-4 10,-11 15,-5 27,-15 27,-21 0,-8 -4,-7 -12,1 -20,20 -46,14 -51,-10 -3,-17 -4,-15 -2,4 1,15 -2,25 -6,22 -4,-2 -10,0 -14,6 -13,22 -23,8 -12,-19 13,-34 4,-61 -20,-60 -17,1 -17,2 0,6 23,6 22,44 -3,66 -11,9 -20,14 -20,10 0,-3 -9,4 -20,17 l -20,23 -2,-54 -1,-54 -6,55 -7,55 -11,-55 c -9,-48 -11,-50 -12,-19 0,19 -8,44 -16,55 -13,18 -14,16 -16,-26 l -2,-45 -6,45 c -5,39 -7,42 -13,20 z m 348,-45 c 3,-13 4,-30 1,-37 -4,-8 -6,-7 -6,5 -1,9 -9,17 -18,18 -16,0 -15,1 2,8 19,8 19,8 0,19 -18,10 -18,11 -3,12 10,0 20,-10 24,-25 z m 104,13 -25,-11 30,-7 30,-8 -28,-1 c -34,-1 -32,-22 4,-32 21,-6 21,-7 4,-8 -25,-1 -45,17 -45,39 0,21 20,40 40,39 8,0 4,-5 -10,-11 z m -58,-38 c 3,-16 1,-30 -4,-30 -4,0 -8,14 -8,30 0,17 2,30 4,30 2,0 6,-13 8,-30 z m -74,-24 c 12,-3 12,-4 -3,-3 -11,1 -20,9 -21,17 0,8 1,10 3,3 2,-6 12,-14 21,-17 z m -62,2 c -9,-5 -24,-7 -34,-5 -12,3 -11,5 6,6 12,0 22,6 22,12 0,5 5,7 11,3 8,-5 6,-10 -5,-16 z m -189,-4 c -3,-3 -12,-4 -19,-1 -8,3 -5,6 6,6 11,1 17,-2 13,-5 z"
       id="path130"
       inkscape:connector-curvature="0" />
    <path
       d="m 1787,6881 c -23,-65 -22,-91 2,-91 11,0 21,6 24,13 3,9 12,7 36,-6 17,-10 39,-16 49,-13 20,7 98,8 252,5 52,-1 120,0 150,2 l 55,4 3,45 c 2,29 -2,52 -12,65 -13,17 -15,17 -16,3 0,-9 6,-19 13,-21 6,-3 2,-6 -10,-6 -17,-1 -21,3 -16,17 5,13 3,14 -7,5 -7,-6 -19,-9 -27,-6 -13,5 -13,2 -4,-16 7,-12 10,-32 8,-44 -4,-19 -4,-19 -6,4 -1,32 -23,52 -56,54 -23,1 -24,-2 -20,-40 2,-22 2,-32 -1,-22 -3,9 -12,17 -19,17 -21,0 -30,-21 -14,-32 12,-8 11,-9 -1,-5 -27,7 -23,34 7,45 l 28,10 -25,10 c -14,6 -20,11 -15,12 6,0 -1,6 -15,13 -26,14 -84,2 -74,-15 3,-4 -2,-8 -10,-8 -21,0 -20,-17 1,-28 20,-12 10,-42 -14,-41 -17,1 -17,2 0,6 21,6 22,22 1,30 -11,4 -14,13 -10,29 4,14 2,24 -4,24 -6,0 -9,4 -5,9 3,5 1,12 -5,16 -5,3 -10,-1 -10,-9 0,-9 -9,-16 -20,-16 -11,0 -20,-4 -20,-10 0,-14 -28,-12 -33,3 -3,9 -7,9 -19,-1 -19,-15 -78,-5 -78,14 0,7 -5,16 -11,20 -12,7 -11,3 7,-63 6,-20 3,-23 -24,-23 -19,0 -32,-6 -35,-15 -4,-11 -4,-10 -3,2 1,12 11,19 29,21 24,3 27,7 21,25 -4,12 -10,24 -14,27 -4,3 -9,11 -11,18 -2,7 -12,-10 -22,-37 z m 14,-14 c -10,-9 -11,-8 -5,6 3,10 9,15 12,12 3,-3 0,-11 -7,-18 z m 441,-22 c -2,-19 -6,-35 -8,-35 -2,0 -4,16 -4,35 0,19 4,35 8,35 4,0 6,-16 4,-35 z m -322,-7 c 0,-5 -9,-3 -20,4 -11,7 -20,16 -20,20 0,5 9,3 20,-4 11,-7 20,-16 20,-20 z m 56,5 c -6,-6 -36,9 -36,18 0,5 9,4 20,-3 10,-7 18,-14 16,-15 z m 146,-3 c 3,-16 1,-30 -4,-30 -4,0 -8,14 -8,30 0,17 2,30 4,30 2,0 6,-13 8,-30 z m 205,-17 c -3,-10 -5,-2 -5,17 0,19 2,27 5,18 2,-10 2,-26 0,-35 z m -352,-3 c -3,-5 -14,-10 -23,-9 -14,0 -13,2 3,9 27,11 27,11 20,0 z m -62,-7 c -7,-2 -19,-2 -25,0 -7,3 -2,5 12,5 14,0 19,-2 13,-5 z"
       id="path132"
       inkscape:connector-curvature="0" />
    <path
       d="m 815,6870 c -3,-5 3,-10 14,-10 12,0 21,5 21,10 0,6 -6,10 -14,10 -8,0 -18,-4 -21,-10 z"
       id="path134"
       inkscape:connector-curvature="0" />
    <path
       d="m 495,6320 c -45,-18 -131,-77 -123,-86 2,-2 30,10 62,26 101,51 172,37 268,-51 56,-52 68,-59 105,-59 33,0 43,4 48,20 8,25 -5,49 -53,92 -80,73 -207,96 -307,58 z"
       id="path136"
       inkscape:connector-curvature="0" />
    <path
       d="m 1683,6306 c -136,-64 -201,-208 -158,-352 l 14,-49 61,1 h 60 v -78 -77 l -77,-4 -78,-3 78,-2 c 70,-2 79,0 84,17 5,18 7,19 45,5 82,-29 188,-11 250,41 16,14 25,25 18,25 -23,0 -70,44 -65,61 5,15 2,16 -32,3 -111,-39 -217,16 -239,124 -17,83 69,182 157,182 52,0 113,-35 137,-79 26,-46 29,-121 7,-177 l -16,-39 25,27 c 14,16 28,23 31,18 4,-6 9,-8 13,-6 4,2 15,-2 25,-9 18,-13 18,-15 1,-39 -20,-31 -14,-44 8,-19 63,72 78,195 34,288 -28,62 -101,128 -163,149 -70,24 -158,21 -220,-8 z"
       id="path138"
       inkscape:connector-curvature="0" />
    <path
       d="m 559,6163 c -1,-10 -2,-30 -2,-45 1,-26 -2,-28 -36,-28 -45,0 -61,-14 -61,-56 0,-35 13,-44 61,-44 25,0 29,-4 29,-29 0,-32 22,-61 46,-61 34,0 54,20 54,55 0,34 1,35 38,35 43,0 62,14 62,46 0,32 -26,54 -66,54 -31,0 -34,3 -34,29 0,50 -9,61 -51,61 -30,0 -39,-4 -40,-17 z"
       id="path140"
       inkscape:connector-curvature="0" />
    <path
       d="m 371,5929 c -13,-5 -22,-11 -20,-14 9,-9 99,-12 99,-4 0,8 -45,31 -53,28 -1,0 -13,-5 -26,-10 z"
       id="path142"
       inkscape:connector-curvature="0" />
    <path
       d="m 460,5831 v -81 l -77,-2 -78,-2 73,-3 c 44,-2 79,1 87,7 9,8 26,8 60,-1 116,-29 271,27 317,116 8,16 4,14 -18,-7 -41,-37 -98,-58 -161,-58 -67,0 -110,19 -163,72 l -40,40 z"
       id="path144"
       inkscape:connector-curvature="0" />
    <path
       d="m 359,5866 c 9,-10 8,-16 -4,-26 -18,-15 -20,-51 -3,-68 17,-17 28,-15 28,6 0,27 21,44 37,31 10,-9 13,-3 13,30 v 41 h -41 c -34,0 -39,-2 -30,-14 z"
       id="path146"
       inkscape:connector-curvature="0" />
    <path
       d="m 1559,5866 c 9,-10 8,-16 -4,-26 -18,-15 -20,-51 -3,-68 17,-17 28,-15 28,6 0,27 21,44 37,31 10,-9 13,-3 13,30 v 41 h -41 c -34,0 -39,-2 -30,-14 z"
       id="path148"
       inkscape:connector-curvature="0" />
    <path
       d="m 336,5655 c 18,-14 17,-15 -7,-6 -25,9 -27,8 -25,-18 0,-20 5,-27 15,-23 11,4 11,1 2,-17 -7,-12 -16,-19 -22,-16 -5,4 -9,-3 -9,-14 0,-27 28,-41 57,-30 13,5 33,5 46,1 33,-12 114,-7 131,7 24,20 29,66 11,102 -10,17 -20,28 -24,22 -3,-5 -14,-12 -23,-16 -28,-10 -24,-75 5,-87 13,-5 16,-9 6,-9 -8,-1 -20,4 -27,11 -15,15 -16,75 0,84 12,8 -13,22 -42,23 -13,1 -13,0 0,-9 12,-8 11,-10 -6,-10 -12,0 -25,-7 -28,-16 -8,-21 -9,-21 17,-20 16,1 22,-5 23,-22 1,-18 1,-19 -3,-2 -5,25 -28,26 -42,3 -9,-16 -10,-15 -11,7 0,14 7,36 16,49 16,22 16,23 -2,13 -11,-5 -28,-6 -39,-1 -32,12 -40,10 -19,-6 z m 181,-67 c -2,-13 -4,-5 -4,17 -1,22 1,32 4,23 2,-10 2,-28 0,-40 z m -159,-13 c -3,-3 -9,2 -12,12 -6,14 -5,15 5,6 7,-7 10,-15 7,-18 z m 63,-23 c -7,-2 -18,1 -23,6 -8,8 -4,9 13,5 13,-4 18,-8 10,-11 z m -91,4 c 0,-2 -7,-7 -16,-10 -8,-3 -12,-2 -9,4 6,10 25,14 25,6 z"
       id="path150"
       inkscape:connector-curvature="0" />
    <path
       d="m 630,5661 c 12,-9 10,-11 -12,-11 -27,0 -28,-2 -28,-55 0,-41 4,-57 16,-62 8,-3 20,-1 26,5 8,8 17,6 33,-4 16,-10 29,-12 47,-5 14,5 31,5 38,1 21,-13 141,-4 151,12 10,15 12,79 3,102 -8,20 -30,21 -37,1 -4,-8 -15,-12 -27,-10 -11,2 -18,0 -15,-6 4,-5 -2,-9 -11,-9 -10,0 -14,3 -11,7 4,3 -3,12 -16,18 -33,17 -74,-8 -71,-44 1,-21 0,-21 -3,-3 -4,19 -10,23 -36,20 -28,-3 -32,0 -32,21 0,14 -7,26 -15,29 -13,3 -13,2 0,-7 z m -13,-63 c -3,-7 -5,-2 -5,12 0,14 2,19 5,13 2,-7 2,-19 0,-25 z m 145,-8 c 2,-22 0,-40 -4,-40 -5,0 -8,18 -8,40 0,22 2,40 4,40 2,0 6,-18 8,-40 z m 87,-7 c -1,-18 -3,-22 -6,-10 -3,10 -12,17 -21,15 -21,-4 -27,-25 -7,-31 12,-4 11,-5 -2,-3 -10,1 -19,9 -21,18 -3,14 12,24 56,37 1,1 1,-11 1,-26 z m -157,-24 c 18,-1 19,-2 5,-6 -22,-6 -47,14 -46,36 0,11 3,9 9,-6 6,-14 19,-23 32,-24 z"
       id="path152"
       inkscape:connector-curvature="0" />
    <path
       d="m 1400,5657 c 0,-8 -7,-28 -15,-43 -16,-32 -20,-19 -6,19 9,22 7,25 -15,23 -23,-1 -25,-4 -20,-36 l 5,-35 -13,39 c -19,60 -29,25 -11,-38 17,-58 36,-74 59,-51 12,13 16,12 26,0 10,-12 16,-12 26,-4 8,6 21,8 31,4 10,-5 29,-8 43,-7 59,2 100,2 170,-1 41,-3 82,0 91,4 9,5 19,5 23,2 11,-12 94,-9 111,3 18,13 15,68 -4,87 -14,14 -43,18 -35,6 3,-5 -2,-9 -11,-9 -9,0 -13,4 -10,10 8,12 -37,9 -46,-4 -4,-5 -13,-5 -20,0 -19,12 -70,14 -64,3 4,-5 -3,-9 -15,-9 -12,0 -18,5 -15,10 3,6 -1,10 -9,10 -8,0 -18,-5 -22,-11 -4,-8 -13,-1 -23,17 l -16,29 -3,-35 c -2,-19 1,-36 7,-38 16,-5 13,-22 -4,-22 -11,0 -15,12 -15,48 -1,42 -2,45 -13,26 -9,-16 -21,-20 -50,-19 -31,2 -35,0 -21,-9 10,-8 14,-21 11,-37 -4,-23 -4,-23 -6,4 -1,20 -6,27 -21,27 -11,0 -20,7 -20,15 0,8 -8,16 -17,17 -33,2 -38,4 -50,11 -8,5 -13,3 -13,-6 z m 7,-59 c -3,-8 -6,-5 -6,6 -1,11 2,17 5,13 3,-3 4,-12 1,-19 z m 355,-8 c -2,-16 -6,-30 -8,-30 -2,0 -4,14 -4,30 0,17 4,30 8,30 5,0 7,-13 4,-30 z m -328,-15 c -5,-20 -9,-24 -18,-14 -8,8 -8,13 2,16 6,3 12,12 12,21 0,8 2,13 5,10 4,-3 3,-18 -1,-33 z m 33,3 c -3,-7 -5,-2 -5,12 0,14 2,19 5,13 2,-7 2,-19 0,-25 z m 262,5 c -1,-17 -3,-21 -6,-10 -5,19 -28,23 -39,6 -3,-6 0,-16 7,-21 12,-8 11,-9 -1,-5 -8,2 -16,11 -18,19 -3,13 13,24 56,37 1,1 1,-11 1,-26 z m 78,-20 c -3,-10 -5,-2 -5,17 0,19 2,27 5,18 2,-10 2,-26 0,-35 z m 82,20 c -1,-18 -3,-22 -6,-10 -3,10 -12,17 -21,15 -21,-4 -27,-25 -7,-31 12,-4 11,-5 -2,-3 -10,1 -19,9 -21,18 -3,14 12,24 56,37 1,1 1,-11 1,-26 z m -519,-12 c 0,-6 -4,-13 -10,-16 -5,-3 -10,1 -10,9 0,9 5,16 10,16 6,0 10,-4 10,-9 z m 137,-17 c -3,-3 -12,-4 -19,-1 -8,3 -5,6 6,6 11,1 17,-2 13,-5 z"
       id="path154"
       inkscape:connector-curvature="0" />
    <path
       d="m 2050,5656 c 0,-9 -7,-16 -15,-16 -16,0 -20,-44 -9,-87 6,-21 12,-23 78,-21 39,0 89,-2 112,-6 31,-5 44,-3 54,8 7,9 10,16 6,16 -3,0 -1,11 4,24 7,19 5,30 -11,48 l -19,23 6,-27 c 6,-25 3,-28 -21,-28 -33,0 -29,-22 6,-31 14,-4 17,-7 7,-8 -28,-2 -48,10 -48,30 0,14 7,19 25,19 14,0 25,5 25,10 0,9 -34,14 -43,8 -2,-2 -11,3 -20,11 -15,12 -17,11 -17,-3 0,-10 -5,-14 -10,-11 -6,4 -8,9 -6,13 2,4 -12,8 -32,9 -31,2 -34,1 -14,-7 17,-7 22,-17 20,-42 l -1,-33 -4,33 c -4,32 -26,44 -37,20 -3,-7 -4,-4 -3,7 1,12 -3,19 -12,17 -8,-2 -11,3 -8,12 4,9 2,18 -3,21 -6,4 -10,-1 -10,-9 z m 127,-93 c -3,-10 -5,-4 -5,12 0,17 2,24 5,18 2,-7 2,-21 0,-30 z"
       id="path156"
       inkscape:connector-curvature="0" />
    <path
       d="m 1960,5606 c 0,-53 8,-76 25,-76 17,0 25,23 25,76 0,48 -16,60 -23,17 l -4,-28 -2,28 c -2,45 -21,30 -21,-17 z"
       id="path158"
       inkscape:connector-curvature="0" />
    <path
       d="m 390,5460 c 12,-8 9,-10 -12,-10 -22,0 -28,-5 -29,-22 -1,-19 -3,-17 -9,7 -7,28 -8,29 -9,4 -1,-36 21,-79 42,-79 21,0 22,26 1,38 -14,8 -14,10 3,14 17,5 20,0 19,-26 -1,-26 -5,-32 -28,-34 -19,-2 -28,2 -31,15 -3,12 -5,8 -6,-9 -1,-27 0,-28 57,-29 241,-2 283,-1 296,10 10,8 16,9 21,1 4,-6 12,-10 18,-9 7,1 27,1 46,0 29,-1 32,-3 20,-17 -11,-14 -10,-15 11,-12 18,2 31,16 47,48 32,64 30,77 -11,78 -25,1 -36,-3 -39,-16 -4,-13 -5,-11 -6,5 -1,30 -50,58 -52,30 0,-7 -4,-3 -9,8 -7,16 -9,17 -9,3 -1,-13 -12,-18 -43,-20 -43,-3 -43,-3 -49,-48 l -6,-45 -1,41 c -2,38 -5,42 -33,48 -42,8 -51,8 -45,-3 3,-5 -3,-11 -14,-14 -28,-7 -26,-45 3,-57 17,-8 18,-9 3,-7 -29,3 -43,33 -28,57 10,17 10,21 0,19 -7,-2 -23,0 -35,5 -13,4 -32,2 -44,-5 -18,-9 -21,-9 -16,4 6,15 -10,37 -27,37 -6,0 -4,-5 4,-10 z m 390,-36 c 0,-2 -9,-4 -21,-4 -11,0 -18,4 -14,10 5,8 35,3 35,-6 z m -306,-3 c 4,-5 -3,-7 -14,-4 -23,6 -26,13 -6,13 8,0 17,-4 20,-9 z m 122,-64 c 9,-3 8,-4 -3,-3 -13,1 -18,10 -19,36 -1,34 -1,34 3,3 2,-17 11,-34 19,-36 z m 61,41 c -3,-7 -5,-2 -5,12 0,14 2,19 5,13 2,-7 2,-19 0,-25 z m 117,-40 c 7,-5 5,-8 -6,-8 -14,0 -18,8 -17,33 2,27 2,28 6,7 3,-14 10,-28 17,-32 z m 54,12 c -10,-30 -12,-32 -19,-14 -11,27 -11,42 0,25 7,-11 10,-9 16,8 4,13 9,21 11,18 2,-2 -1,-19 -8,-37 z m -370,23 c -34,-5 -36,-20 -5,-33 13,-5 16,-9 7,-9 -19,-1 -40,18 -40,36 0,8 12,12 33,12 30,-2 30,-2 5,-6 z m 199,-35 c -3,-8 -6,-5 -6,6 -1,11 2,17 5,13 3,-3 4,-12 1,-19 z"
       id="path160"
       inkscape:connector-curvature="0" />
    <path
       d="m 1628,5452 c -32,-4 -40,-38 -10,-45 15,-4 15,-5 0,-6 -10,-1 -18,-12 -21,-28 -2,-16 -5,-3 -6,27 -1,40 -4,51 -11,40 -11,-18 -13,-80 -2,-96 4,-5 32,-11 62,-13 30,-2 66,-4 79,-5 13,0 26,-7 29,-13 4,-15 32,-18 32,-4 0,17 43,25 113,22 59,-2 67,-1 67,15 0,16 3,15 21,-5 28,-30 49,-12 49,43 0,42 -29,103 -30,64 0,-10 6,-18 13,-18 9,0 8,-3 -2,-9 -9,-6 -12,-20 -9,-40 2,-17 1,-31 -4,-31 -4,0 -8,25 -8,56 0,36 -4,53 -11,49 -6,-4 -8,-13 -5,-21 3,-8 -1,-14 -10,-14 -8,0 -12,5 -9,10 3,6 1,10 -4,10 -6,0 -12,-21 -13,-47 l -1,-48 -4,43 c -5,47 -31,61 -28,15 2,-21 1,-22 -2,-5 -3,17 -10,22 -26,20 -32,-4 -35,-45 -5,-58 17,-7 18,-9 4,-7 -29,3 -44,33 -29,56 10,17 10,20 -5,21 -103,5 -139,4 -127,-3 24,-13 18,-37 -10,-37 -31,0 -33,-17 -2,-30 17,-8 18,-9 3,-7 -27,3 -43,33 -30,54 14,25 -12,49 -48,45 z m 188,-37 c 10,-25 -5,-65 -24,-65 -16,1 -16,1 1,11 9,5 17,19 17,29 0,10 -8,24 -17,29 -17,10 -17,10 0,11 10,0 20,-7 23,-15 z m -162,-65 c -6,-5 -24,21 -24,34 0,6 6,1 14,-10 8,-10 12,-21 10,-24 z"
       id="path162"
       inkscape:connector-curvature="0" />
    <path
       d="m 1685,5410 c -3,-5 3,-10 14,-10 12,0 21,5 21,10 0,6 -6,10 -14,10 -8,0 -18,-4 -21,-10 z"
       id="path164"
       inkscape:connector-curvature="0" />
    <path
       d="m 320,4660 v -210 l 33,-2 c 17,-1 49,-2 69,-4 38,-2 88,25 88,48 0,6 6,19 13,27 18,20 45,88 68,171 l 19,65 -4,-55 c -3,-30 -14,-77 -26,-103 -12,-27 -20,-51 -17,-53 5,-5 -15,-31 -70,-89 -30,-31 -33,-39 -33,-99 v -65 l -42,-4 -43,-4 48,-1 c 36,-2 47,2 47,13 0,13 29,15 205,15 h 205 v 280 280 H 600 320 Z m 448,-129 c -2,-9 -14,-17 -28,-18 -16,-1 -19,0 -7,4 12,3 17,11 14,23 -3,13 0,17 10,13 8,-3 13,-13 11,-22 z"
       id="path166"
       inkscape:connector-curvature="0" />
    <path
       d="m 1745,4853 c -88,-24 -164,-86 -198,-161 -24,-55 -28,-148 -8,-204 12,-36 14,-37 69,-44 l 57,-6 -3,-73 -4,-74 -41,-4 -42,-4 48,-1 c 44,-2 47,-1 47,24 0,19 4,25 14,21 8,-3 34,-11 57,-17 50,-14 47,-16 110,96 45,82 47,91 17,70 -13,-9 -43,-16 -71,-16 -42,0 -54,5 -83,34 -30,30 -34,40 -34,86 0,46 4,56 34,86 42,42 113,50 163,17 13,-8 23,-11 23,-6 0,5 6,10 13,10 6,1 38,2 70,4 48,2 57,5 57,21 0,27 -74,96 -128,119 -48,21 -131,32 -167,22 z"
       id="path168"
       inkscape:connector-curvature="0" />
    <path
       d="m 1737,4656 c -48,-44 -48,-108 0,-152 69,-64 182,8 159,102 -11,41 -53,74 -96,74 -25,0 -45,-8 -63,-24 z"
       id="path170"
       inkscape:connector-curvature="0" />
    <path
       d="m 357,4401 c 3,-10 0,-22 -6,-25 -16,-10 -13,-52 4,-66 18,-15 17,-15 34,25 12,29 13,29 27,10 13,-17 14,-15 14,28 v 47 h -39 c -33,0 -38,-3 -34,-19 z"
       id="path172"
       inkscape:connector-curvature="0" />
    <path
       d="m 1559,4406 c 9,-10 8,-16 -4,-26 -19,-16 -19,-54 0,-70 17,-15 16,-15 34,25 8,17 16,24 18,18 10,-27 23,-11 23,27 v 40 h -41 c -34,0 -39,-2 -30,-14 z"
       id="path174"
       inkscape:connector-curvature="0" />
    <path
       d="m 333,4283 c 9,-2 23,-2 30,0 6,3 -1,5 -18,5 -16,0 -22,-2 -12,-5 z"
       id="path176"
       inkscape:connector-curvature="0" />
    <path
       d="m 1533,4283 c 9,-2 23,-2 30,0 6,3 -1,5 -18,5 -16,0 -22,-2 -12,-5 z"
       id="path178"
       inkscape:connector-curvature="0" />
    <path
       d="m 106,4190 c -4,-14 -10,-32 -13,-40 -3,-8 -7,-30 -10,-47 -4,-29 -2,-33 16,-33 12,0 21,5 21,10 0,6 7,10 16,10 8,0 12,-5 8,-11 -4,-7 4,-10 22,-8 16,1 44,-1 62,-5 25,-6 38,-4 52,9 17,15 20,15 44,0 18,-12 30,-14 42,-7 10,6 29,6 46,1 16,-4 40,-4 52,1 14,5 27,5 33,-1 5,-5 34,-7 66,-3 l 57,7 v 53 c 0,50 -8,66 -37,70 -6,1 -14,-4 -17,-11 -2,-7 -16,-11 -33,-9 -15,2 -21,1 -13,-2 21,-10 30,-25 29,-54 -1,-17 -3,-19 -6,-7 -2,9 -12,17 -21,18 -14,0 -13,2 3,9 19,9 19,9 -2,16 -13,3 -23,9 -23,13 0,4 -9,7 -20,7 -17,0 -19,-5 -15,-36 2,-19 2,-26 -1,-15 -3,11 -13,26 -22,33 -10,8 -12,12 -3,12 9,0 8,4 -3,15 -19,19 -22,19 -43,-2 -11,-11 -17,-32 -17,-53 l 2,-35 -5,33 c -4,27 -8,33 -26,30 -32,-4 -35,-45 -5,-58 17,-7 18,-9 4,-7 -29,3 -43,33 -28,57 15,25 15,27 -3,27 -8,0 -15,-4 -15,-9 0,-5 -6,-6 -12,-1 -19,11 -37,12 -44,2 -9,-14 -46,-11 -38,4 5,8 4,9 -4,2 -16,-16 -2,-66 22,-75 21,-9 21,-9 -1,-9 -17,-1 -24,6 -29,26 -4,15 -17,43 -28,63 -16,26 -22,30 -24,17 -4,-22 -19,-22 -24,1 -3,13 -6,12 -12,-8 z m 5,-43 c -10,-9 -11,-8 -5,6 3,10 9,15 12,12 3,-3 0,-11 -7,-18 z m 52,-19 c 9,-21 12,-38 6,-38 -5,0 -9,7 -9,15 0,10 -11,16 -32,16 -31,2 -32,2 -5,6 23,4 27,8 21,26 -10,33 2,17 19,-25 z m 109,2 c -2,-16 -6,-30 -8,-30 -2,0 -4,14 -4,30 0,17 4,30 8,30 5,0 7,-13 4,-30 z m 320,-10 c 3,-16 1,-30 -4,-30 -4,0 -8,14 -8,30 0,17 2,30 4,30 2,0 6,-13 8,-30 z m -74,-24 c 12,-3 12,-4 -3,-3 -11,1 -20,9 -21,17 0,8 1,10 3,3 2,-6 12,-14 21,-17 z m -73,1 c 16,-5 15,-5 -4,-4 -14,1 -26,9 -28,17 -3,10 -2,11 4,4 4,-7 17,-14 28,-17 z"
       id="path180"
       inkscape:connector-curvature="0" />
    <path
       d="m 708,4201 c 10,-6 7,-10 -12,-13 -14,-3 -26,-1 -26,4 0,5 -4,7 -8,4 -5,-3 -9,-27 -11,-54 -1,-36 3,-53 15,-63 13,-11 18,-11 21,-2 3,9 10,10 22,3 15,-7 139,-12 291,-10 14,0 39,0 55,0 17,0 37,3 45,5 20,6 25,71 8,88 -17,16 -58,21 -58,8 0,-16 -41,-7 -55,12 -15,21 -31,22 -39,2 -3,-9 1,-18 9,-21 24,-9 19,-61 -6,-69 -11,-4 -23,-4 -26,-1 -4,3 1,6 10,6 18,0 33,38 20,50 -4,5 -20,10 -35,12 -15,2 -30,7 -34,11 -15,15 -24,6 -14,-12 5,-11 10,-31 10,-44 0,-20 -5,-24 -27,-23 -39,1 -44,33 -7,42 24,6 25,8 11,19 -9,7 -15,14 -13,16 3,2 -11,4 -29,4 -22,0 -30,-3 -24,-9 17,-18 10,-36 -13,-35 -17,1 -19,2 -5,6 24,6 22,23 -4,23 -13,0 -18,4 -13,12 4,6 3,8 -3,5 -6,-4 -18,2 -28,13 -10,11 -23,20 -29,20 -6,0 -5,-4 2,-9 z m 12,-46 c -13,-16 -50,-21 -50,-6 0,5 9,7 20,4 13,-3 22,1 26,11 4,9 9,15 12,12 3,-3 -1,-12 -8,-21 z m 372,-20 c -2,-14 -6,-25 -8,-25 -2,0 -4,11 -4,25 0,14 4,25 9,25 4,0 6,-11 3,-25 z m -335,-17 c -3,-7 -5,-2 -5,12 0,14 2,19 5,13 2,-7 2,-19 0,-25 z m 160,0 c -3,-7 -5,-2 -5,12 0,14 2,19 5,13 2,-7 2,-19 0,-25 z m 143,20 c 0,-5 -12,-8 -26,-8 -32,0 -27,-22 7,-31 14,-4 17,-7 7,-8 -30,-2 -48,11 -48,33 0,17 6,21 30,21 17,0 30,-3 30,-7 z m -383,-40 c -3,-7 -5,-2 -5,12 0,14 2,19 5,13 2,-7 2,-19 0,-25 z m 116,-5 c -7,-2 -19,-2 -25,0 -7,3 -2,5 12,5 14,0 19,-2 13,-5 z"
       id="path182"
       inkscape:connector-curvature="0" />
    <path
       d="m 1310,4203 c -49,-18 -62,-82 -24,-120 19,-19 102,-25 157,-11 16,4 37,4 48,0 11,-5 45,-5 75,-2 30,3 54,5 54,3 0,-1 -12,-9 -26,-16 -26,-13 -26,-14 -5,-20 13,-3 31,3 46,15 27,21 59,26 86,14 40,-18 69,76 32,105 -15,12 -16,12 -10,-3 4,-12 2,-15 -8,-12 -8,3 -20,2 -27,-2 -9,-6 -4,-11 17,-15 l 30,-7 -27,-1 c -34,-1 -38,-28 -5,-34 19,-3 19,-4 -3,-3 -35,1 -40,47 -8,71 l 23,17 -23,-5 c -15,-3 -25,0 -29,9 -8,22 -28,17 -43,-11 -7,-14 -17,-25 -22,-25 -5,0 -6,5 -2,12 5,8 2,9 -10,5 -10,-4 -22,-7 -27,-7 -16,0 -9,-49 9,-59 15,-9 15,-10 1,-11 -18,0 -29,20 -29,51 0,10 -4,19 -10,19 -5,0 -10,-10 -10,-23 0,-27 -17,-47 -40,-46 -9,0 -6,4 8,10 30,11 27,54 -3,54 -14,0 -22,-9 -26,-30 -7,-30 -7,-30 -8,-3 0,15 4,30 9,33 6,3 10,11 10,17 0,6 -6,6 -15,-2 -12,-10 -19,-10 -27,-2 -7,7 -19,12 -27,11 -10,0 -7,-4 7,-9 16,-7 22,-17 21,-37 l -2,-28 -4,28 c -4,22 -9,28 -26,25 -33,-5 -30,-50 3,-59 14,-4 18,-7 8,-8 -44,-3 -65,37 -35,68 10,11 8,13 -11,8 -19,-4 -21,-3 -11,9 12,15 9,17 -31,15 -23,-1 -23,0 -5,8 22,11 1,13 -25,4 z m -8,-25 c -7,-7 -12,-23 -13,-37 0,-15 -3,-20 -6,-13 -7,19 6,62 19,62 9,0 9,-3 0,-12 z m 56,-55 c -2,-21 -9,-28 -26,-29 -18,-1 -19,-1 -2,3 20,4 29,43 10,43 -5,0 -10,-7 -10,-17 0,-9 -3,-14 -6,-10 -11,11 5,37 21,37 12,0 15,-8 13,-27 z m 272,-13 c 0,-5 -4,-10 -10,-10 -5,0 -10,5 -10,10 0,6 5,10 10,10 6,0 10,-4 10,-10 z"
       id="path184"
       inkscape:connector-curvature="0" />
    <path
       d="m 1824,4200 c -14,-5 -24,-21 -28,-44 -8,-40 4,-70 34,-86 24,-13 87,-13 95,-1 3,6 18,6 37,-1 26,-9 33,-8 43,6 11,14 15,15 40,2 16,-8 33,-12 39,-9 6,4 61,6 124,5 76,-2 111,1 107,8 -3,5 -1,10 4,10 18,0 13,66 -6,81 -15,12 -16,12 -10,-4 4,-11 3,-16 -4,-12 -5,4 -18,3 -27,-1 -14,-6 -11,-9 13,-14 l 30,-8 -27,-1 c -34,-1 -36,-18 -5,-31 17,-8 18,-9 3,-7 -29,3 -43,33 -28,57 6,11 12,23 12,27 0,5 -4,2 -9,-6 -8,-12 -12,-13 -26,-1 -14,12 -15,9 -11,-31 4,-30 3,-35 -2,-14 -4,17 -14,30 -22,30 -8,0 -18,-13 -21,-30 l -7,-30 -1,34 c -1,28 -4,33 -21,28 -11,-3 -20,-1 -20,3 0,5 -9,8 -19,7 -16,-1 -19,-7 -15,-32 3,-26 3,-27 -4,-5 -11,36 -45,33 -53,-5 -7,-30 -7,-30 -8,-3 0,15 4,30 10,34 8,5 7,9 -1,14 -17,11 -47,-18 -53,-50 -4,-23 -4,-23 -6,4 0,17 6,34 16,41 14,11 12,12 -15,11 -18,0 -32,-4 -32,-7 0,-4 -9,-9 -19,-12 -12,-3 -21,-16 -24,-33 -3,-20 -4,-15 -5,16 -1,25 2,40 6,33 4,-7 13,-9 21,-4 10,7 8,12 -10,25 -26,18 -54,22 -44,6 3,-5 -3,-10 -13,-10 -47,0 -56,-65 -12,-87 20,-10 21,-13 6,-13 -47,0 -60,67 -20,99 28,22 24,26 -12,11 z m 56,-65 c 0,-16 -6,-25 -15,-25 -9,0 -15,9 -15,25 0,16 6,25 15,25 9,0 15,-9 15,-25 z m 77,-32 c -3,-10 -5,-2 -5,17 0,19 2,27 5,18 2,-10 2,-26 0,-35 z m 120,-9 c -3,-3 -12,-4 -19,-1 -8,3 -5,6 6,6 11,1 17,-2 13,-5 z"
       id="path186"
       inkscape:connector-curvature="0" />
    <path
       d="m 2165,4170 c 3,-5 10,-10 16,-10 5,0 9,5 9,10 0,6 -7,10 -16,10 -8,0 -12,-4 -9,-10 z"
       id="path188"
       inkscape:connector-curvature="0" />
    <path
       d="m 845,4119 c -4,-6 -4,-13 -1,-16 8,-8 36,5 36,17 0,13 -27,13 -35,-1 z"
       id="path190"
       inkscape:connector-curvature="0" />
    <path
       d="m 507,4004 c -4,-4 -7,-31 -7,-60 0,-60 18,-86 53,-78 12,3 27,6 32,7 6,2 16,6 23,10 7,5 12,4 12,-2 0,-6 3,-10 8,-9 4,0 15,-2 24,-6 27,-12 53,-3 53,19 0,13 -8,21 -22,23 -35,5 -32,52 2,52 18,0 25,5 25,19 0,11 -4,23 -10,26 -5,3 -10,1 -10,-5 0,-6 -22,-9 -62,-5 -43,3 -58,1 -48,-5 10,-7 5,-8 -17,-4 -24,5 -33,3 -34,-7 -1,-8 -4,-4 -8,9 -3,13 -9,20 -14,16 z m 134,-28 c -21,-25 -9,-69 19,-77 21,-6 22,-7 4,-8 -11,-1 -25,4 -32,11 -20,20 -12,88 10,88 6,0 6,-6 -1,-14 z m -44,-43 c -3,-10 -5,-4 -5,12 0,17 2,24 5,18 2,-7 2,-21 0,-30 z m -70,-10 c -3,-10 -5,-4 -5,12 0,17 2,24 5,18 2,-7 2,-21 0,-30 z m 43,12 c 0,-8 -4,-17 -10,-20 -6,-4 -10,5 -10,20 0,15 4,24 10,20 6,-3 10,-12 10,-20 z m 10,-35 c -8,-5 -26,-9 -40,-9 -23,1 -23,2 5,9 43,11 52,11 35,0 z"
       id="path192"
       inkscape:connector-curvature="0" />
    <path
       d="M 0,245 V 0 h 9595 9595 V 245 490 H 9595 0 Z m 18071,156 c -33,-9 -38,-29 -9,-33 15,-2 24,-11 26,-27 5,-30 -10,-45 -37,-36 -16,5 -21,15 -21,44 0,42 14,61 45,60 17,-1 17,-2 -4,-8 z m 117,-3 c 7,-7 8,-17 1,-30 -6,-12 -6,-18 1,-18 5,0 10,-9 10,-19 0,-20 -20,-32 -48,-30 -10,1 -7,4 7,8 33,9 38,29 9,40 -17,7 -18,10 -5,10 10,1 17,9 17,20 0,11 -8,22 -17,24 -14,4 -14,5 -2,6 8,0 20,-4 27,-11 z m 70,5 c -22,-5 -24,-33 -3,-33 8,0 18,-12 21,-26 7,-29 -7,-44 -41,-43 -16,1 -15,2 5,8 35,10 38,38 6,51 -14,5 -26,11 -26,14 0,19 16,36 34,35 16,-1 17,-2 4,-6 z m -855,-10 c -15,-3 -23,-12 -23,-24 0,-13 7,-19 23,-20 22,-2 22,-2 1,-6 -12,-2 -24,-13 -27,-23 -4,-14 1,-20 22,-23 25,-4 24,-4 -4,-6 -30,-1 -30,-1 -31,54 l -1,55 31,-1 c 24,-1 26,-3 9,-6 z m 78,-2 c -34,-9 -36,-25 -6,-39 38,-18 31,-56 -10,-59 -18,-1 -22,1 -10,4 38,10 41,23 11,47 -36,28 -30,56 11,55 27,-1 27,-1 4,-8 z m 98,-9 c 12,-23 -4,-52 -30,-52 -11,0 -18,-4 -15,-8 2,-4 1,-14 -5,-22 -6,-10 -9,4 -9,43 0,54 1,57 25,57 13,0 29,-8 34,-18 z m 409,-34 -2,-53 -3,48 c -2,26 -8,45 -14,42 -5,-4 -9,-1 -9,4 0,6 7,11 15,11 12,0 15,-12 13,-52 z M 2878,308 c -1,-63 2.4473,-116.12211 -2.5527,-77.12211 C 2822.7947,257.69637 2847,243 2822.7947,257.69637 2801.351,270.71598 2809,300 2820,319 c 9,17 8,22 -4,27 -32,12 -51,0 -48,-31 2,-23 1,-27 -7,-15 -6,8 -11,23 -11,33 0,9 -6,17 -13,17 -21,0 -37,-22 -37,-53 0,-16 -4,-26 -10,-22 -5,3 -10,19 -10,35 0,31 -10,43 -27,32 -7,-5 -8,-23 -3,-57 19,-116 45,-133 76,-50 6,17 8,14 13,-15 6,-36 36,-54 46,-28 2,7 9,25 14,40 l 10,28 38,-17 c 21,-10 26.4473,-11.12211 28.4473,-12.12211 1,-1 1.0211,-13.26238 -0.2841,-46.71947 3.904,-45.03222 1.3052,-23.5932 -1.3264,-57.87789 C 2880.8368,122.28053 2825,120 2753,120 h -133 v 109 c 0,106 1,110 26,130 23,18 41,21 130,21 h 104 z m 602,52 c 0,-5 -4,-10 -10,-10 -5,0 -10,5 -10,10 0,6 5,10 10,10 6,0 10,-4 10,-10 z m 12298,-27 c 2,-18 7,-33 13,-33 5,0 9,-25 9,-55 0,-30 -4,-55 -10,-55 -5,0 -10,-16 -10,-35 v -35 h -310 -310 v 125 125 l 308,-2 307,-3 z M 2106,350 c 5,-5 43,-10 84,-12 l 75,-3 3,-92 c 3,-87 1,-93 -17,-93 -16,0 -20,8 -23,43 l -3,42 h -85 -85 l -3,-42 c -3,-35 -7,-43 -23,-43 -18,0 -19,8 -19,99 0,86 2,100 18,104 31,8 68,7 78,-3 z M 400,295 v -45 h -55 -55 v 39 c 0,43 -6,40 93,49 14,2 17,-6 17,-43 z m 525,36 c -17,-4 -35,-17 -45,-34 -14,-25 -13,-30 2,-57 11,-20 13,-30 5,-30 -6,0 -29,-17 -52,-37 l -40,-38 42,45 c 32,34 40,49 33,60 -24,38 13,101 58,99 27,-1 27,-1 -3,-8 z m 540,-21 c 43,0 54,4 58,18 4,13 5,11 6,-5 1,-22 -3,-23 -64,-23 -61,0 -65,1 -64,23 1,16 2,18 6,5 4,-14 15,-18 58,-18 z m 122,-2 c -3,-7 -5,-2 -5,12 0,14 2,19 5,13 2,-7 2,-19 0,-25 z m 17303,-18 c 0,-46 -2,-50 -24,-50 -14,0 -28,-4 -31,-10 -3,-5 -32,-11 -63,-12 -52,-1 -53,-2 -14,-5 42,-4 44,-5 37,-31 -8,-32 -16,-41 -22,-24 -3,7 -22,12 -44,12 h -39 v 85 85 h 100 100 z M 981,313 c 13,-16 12,-17 -3,-4 -10,7 -18,15 -18,17 0,8 8,3 21,-13 z m 2465,11 c 21,-6 20,-8 -17,-76 -22,-39 -39,-75 -39,-79 0,-5 -8,-9 -17,-9 -14,0 -15,-2 -5,-9 19,-12 -8,-22 -38,-14 -17,4 -20,11 -16,29 8,30 -9,39 -38,20 -42,-27 -50,14 -15,71 38,62 110,87 185,67 z M 280,285 c 0,-34 -1,-35 -40,-35 -38,0 -40,2 -40,29 0,32 10,39 53,40 24,1 27,-2 27,-34 z m 16597,19 c -3,-3 -12,-4 -19,-1 -8,3 -5,6 6,6 11,1 17,-2 13,-5 z m 193,-66 c 0,-68 -1,-70 -18,-55 -10,10 -26,17 -35,17 -13,0 -17,9 -17,39 0,33 3,39 25,43 13,3 22,1 19,-3 -3,-5 -12,-9 -20,-9 -26,0 -17,-54 11,-67 l 25,-11 v 59 c 0,32 2,59 5,59 3,0 5,-32 5,-72 z M 4117,290 c 1,0 4,-13 8,-29 10,-47 -21,-109 -67,-132 -22,-11 -42,-18 -45,-16 -2,3 3,19 11,36 21,40 21,41 -14,34 -39,-7 -70,19 -70,59 0,51 16,59 100,54 41,-3 76,-5 77,-6 z M 997,258 c -3,-7 -5,-2 -5,12 0,14 2,19 5,13 2,-7 2,-19 0,-25 z m 533,-13 v -45 h -65 -65 v 45 45 h 65 65 z m 15063,18 c 3,-16 3,-40 0,-55 l -5,-28 h -89 -89 v 55 55 h 89 89 z m -14993,2 c 0,-8 -7,-15 -15,-15 -8,0 -15,7 -15,15 0,8 7,15 15,15 8,0 15,-7 15,-15 z m 1889,-22 c -1,-21 -3,-30 -6,-20 -4,14 -8,16 -18,7 -12,-10 -12,-6 -2,19 16,42 27,39 26,-6 z m 12752,0 34,-38 -37,34 -38,35 -37,-35 -38,-34 34,38 c 19,20 38,37 41,37 3,0 22,-17 41,-37 z m 917,18 c 15,13 16,12 3,-3 -11,-15 -11,-21 0,-35 13,-16 12,-17 -3,-4 -15,11 -21,11 -35,0 -16,-13 -17,-12 -4,4 11,14 11,20 0,35 -13,15 -12,16 4,3 14,-11 20,-11 35,0 z m -308,-5 c 0,-2 -7,-7 -16,-10 -8,-3 -12,-2 -9,4 6,10 25,14 25,6 z M 280,200 c 0,-43 -1,-43 -49,-34 -27,6 -31,10 -31,40 0,33 1,34 40,34 h 40 z m 120,-11 c 0,-48 -1,-51 -22,-45 -13,3 -38,6 -55,6 -32,0 -33,1 -33,45 v 45 h 55 55 z m 590,47 c 0,-2 -8,-10 -17,-17 -16,-13 -17,-12 -4,4 13,16 21,21 21,13 z m 597,-63 c -2,-16 -4,-5 -4,22 0,28 2,40 4,28 2,-13 2,-35 0,-50 z m -644,30 c -7,-2 -19,-2 -25,0 -7,3 -2,5 12,5 14,0 19,-2 13,-5 z m 1235,-28 c -2,-14 -6,-25 -10,-25 h -43 c -27,0 -35,4 -35,18 0,27 9,32 52,32 36,0 39,-2 36,-25 z m 16727,-30 c 0,-44 -3,-50 -22,-53 -13,-2 -23,1 -23,7 0,6 3,10 8,10 30,-5 35,3 13,21 -18,15 -19,20 -7,20 9,0 16,7 16,15 0,8 -9,15 -21,15 -12,0 -17,4 -14,11 4,5 17,9 28,7 19,-3 22,-9 22,-53 z M 1529,168 c -1,-17 -2,-19 -6,-5 -4,13 -15,17 -58,17 -43,0 -54,-4 -58,-17 -4,-14 -5,-12 -6,5 -1,21 3,22 64,22 61,0 65,-1 64,-22 z m 15208,0 c -3,-8 -6,-5 -6,6 -1,11 2,17 5,13 3,-3 4,-12 1,-19 z m 40,0 c -3,-8 -6,-5 -6,6 -1,11 2,17 5,13 3,-3 4,-12 1,-19 z m 97,1 c -3,-5 -10,-7 -15,-3 -5,3 -7,10 -3,15 3,5 10,7 15,3 5,-3 7,-10 3,-15 z m 611,-39 c 11,-27 23,-50 26,-50 4,0 15,22 24,50 9,28 20,50 24,50 5,0 17,-25 28,-55 12,-30 17,-55 12,-55 -5,0 -9,7 -9,15 0,10 -10,15 -30,15 -20,0 -30,-5 -30,-15 0,-8 -9,-15 -20,-15 -11,0 -20,7 -20,15 0,20 -49,20 -56,0 -4,-10 -20,-15 -45,-15 h -39 v 50 c 0,28 5,50 10,50 6,0 10,-20 10,-45 0,-41 2,-45 24,-45 20,0 27,8 41,50 9,28 20,50 24,50 3,0 15,-22 26,-50 z m 399,34 c 13,-34 7,-54 -18,-54 -30,0 -40,14 -32,46 7,27 40,33 50,8 z m 54,-36 c -11,-29 -24,-57 -29,-63 -9,-9 24,86 37,107 13,21 10,3 -8,-44 z m 90,9 c 4,-44 -11,-68 -42,-66 -20,2 -20,2 1,6 34,7 46,80 16,91 -23,7 -28,-30 -7,-45 19,-14 19,-15 -1,-11 -38,7 -31,72 7,66 19,-2 24,-10 26,-41 z m 137,22 c 5,-15 -1,-29 -20,-49 l -27,-28 28,-5 c 28,-4 28,-4 -3,-6 -40,-1 -43,17 -8,47 31,27 32,40 3,52 l -23,9 h 22 c 14,1 24,-7 28,-20 z m 83,-13 c 6,-49 -6,-78 -31,-74 -18,2 -23,10 -25,46 -2,23 1,42 5,42 5,0 7,-18 5,-41 -4,-36 -2,-40 14,-37 14,2 20,14 22,45 3,36 0,42 -20,46 -21,5 -21,5 2,4 20,-2 26,-8 28,-31 z m 140,27 c -9,-2 -19,-10 -22,-18 -8,-22 15,-30 30,-11 10,15 12,11 11,-26 -2,-39 -4,-43 -27,-43 -22,0 -25,4 -26,40 -1,54 4,65 30,64 15,-1 16,-3 4,-6 z m -318,-68 c -12,-31 -24,-54 -26,-52 -2,2 6,29 19,60 12,30 23,54 26,52 2,-2 -7,-29 -19,-60 z m 238,13 -2,-53 -3,48 c -2,26 -8,45 -14,42 -5,-4 -9,-1 -9,4 0,6 7,11 15,11 12,0 15,-12 13,-52 z m -428,-33 c -7,-8 -22,-14 -34,-14 -20,2 -20,2 2,6 12,2 22,9 22,14 0,5 5,9 11,9 8,0 8,-5 -1,-15 z"
       id="path194"
       inkscape:connector-curvature="0"
       sodipodi:nodetypes="cccccccccccccsccscssccccsccscsccccscccscccccscccccccccccsccsscccccsscccsccccssscscccccccccccscscsccssssscssssccccccccscccscccccsscsscccscscccsccccccsccsccscsccsscccccscccccsscssccssccccccssscsccccscssccsccsssccscccscccscccccccccccccccccccccsssssccccccccccccsccccccccccsccsscsscsscsscccsscsscsccccsccsssscscsccsssccsccsccscccccccccccccccssscsssssscscsssscsccsccccscccczcccccccccccccccccsccccccccccccccssccsccccssccccssc" />
    <path
       d="m 18043,344 c -7,-18 11,-39 26,-30 17,11 13,46 -4,46 -9,0 -18,-7 -22,-16 z"
       id="path196"
       inkscape:connector-curvature="0" />
    <path
       d="m 17536,381 c -9,-14 5,-42 18,-38 15,5 14,39 -1,44 -6,2 -14,0 -17,-6 z"
       id="path198"
       inkscape:connector-curvature="0" />
    <path
       d="M 15190,240 V 140 h 283 282 v 100 100 h -282 -283 z m 175,50 c 4,-12 1,-27 -5,-35 -10,-12 -10,-15 -1,-15 8,0 11,-11 9,-27 -2,-21 -9,-29 -27,-31 -13,-2 -27,0 -32,5 -5,5 3,9 18,8 36,0 44,31 11,44 -17,7 -19,10 -5,10 9,1 18,6 19,11 4,29 1,35 -22,41 l -25,7 27,1 c 19,1 29,-5 33,-19 z m 89.255,8.70132 c -7,-2 -33.255,-10.70132 -39.255,-8.70132 -7,3 11,18 25,18 9.661,0 29.447,-15.03395 30.245,-17.88043 6.776,-24.17402 -14.13,9.51162 -15.99,8.58175 z M 15544,301 c 4,-5 -3,-7 -14,-4 -23,6 -26,13 -6,13 8,0 17,-4 20,-9 z m -132,-36 c -7,-41 6,-75 31,-76 17,-1 18,-2 4,-6 -10,-3 -24,1 -32,7 -20,17 -20,100 0,100 1,0 0,-11 -3,-25 z m 68,-20 c 0,-51 -15,-50 -16,1 0,24 3,41 8,38 4,-3 8,-20 8,-39 z m 51,5 c 7,0 10,-2 7,-5 -11,-12 -38,9 -37,29 0,21 0,21 9,-1 5,-13 15,-23 21,-23 z m 93,-16 c 3,-9 6,-23 5,-32 -1,-10 -4,-6 -8,8 -4,15 -14,24 -24,24 -9,-1 -14,2 -11,7 9,14 31,10 38,-7 z m -19,-52 c -3,-3 -11,0 -18,7 -9,10 -8,11 6,5 10,-3 15,-9 12,-12 z"
       id="path200"
       inkscape:connector-curvature="0"
       sodipodi:nodetypes="cccccccccccsccsccccccccccsscccscccccscsccsscccsccccccsccs" />
    <path
       d="m 18747,293 c 18,-2 50,-2 70,0 21,2 7,4 -32,4 -38,0 -55,-2 -38,-4 z"
       id="path202"
       inkscape:connector-curvature="0" />
    <path
       d="m 18747,253 c 18,-2 50,-2 70,0 21,2 7,4 -32,4 -38,0 -55,-2 -38,-4 z"
       id="path204"
       inkscape:connector-curvature="0" />
    <path
       d="m 3321,283 c -9,-10 -10,-18 -3,-25 12,-12 32,-2 32,17 0,21 -13,25 -29,8 z"
       id="path206"
       inkscape:connector-curvature="0" />
    <path
       d="m 3385,291 c -6,-11 9,-23 19,-14 9,9 7,23 -3,23 -6,0 -12,-4 -16,-9 z"
       id="path208"
       inkscape:connector-curvature="0" />
    <path
       d="m 3276,245 c -9,-26 -7,-35 8,-35 23,0 30,20 14,37 -14,13 -16,13 -22,-2 z"
       id="path210"
       inkscape:connector-curvature="0" />
    <path
       d="m 3335,220 c -4,-7 -3,-16 3,-22 14,-14 45,-2 40,15 -6,16 -34,21 -43,7 z"
       id="path212"
       inkscape:connector-curvature="0" />
    <path
       d="m 3963,275 c -42,-47 23,-109 66,-66 25,25 26,44 5,65 -19,20 -55,20 -71,1 z"
       id="path214"
       inkscape:connector-curvature="0" />
    <path
       d="m 1410,245 v -35 h 55 55 v 35 35 h -55 -55 z"
       id="path216"
       inkscape:connector-curvature="0" />
    <path
       d="m 16420,235 v -45 h 80 80 v 45 45 h -80 -80 z m 50,0 c 0,-28 -4,-35 -20,-35 -16,0 -20,7 -20,35 0,28 4,35 20,35 16,0 20,-7 20,-35 z"
       id="path218"
       inkscape:connector-curvature="0" />
    <path
       d="m 17446,134 c -9,-23 -8,-24 14,-24 22,0 23,1 14,24 -8,20 -20,20 -28,0 z"
       id="path220"
       inkscape:connector-curvature="0" />
    <path
       d="m 17547,130 c -4,-15 0,-20 13,-20 13,0 17,5 13,20 -3,11 -9,20 -13,20 -4,0 -10,-9 -13,-20 z"
       id="path222"
       inkscape:connector-curvature="0" />
    <path
       d="m 17847,164 c -16,-16 -7,-44 14,-44 15,0 20,5 17,22 -3,22 -19,33 -31,22 z"
       id="path224"
       inkscape:connector-curvature="0" />
    <path
       d="m 18365,111 c -8,-15 3,-31 21,-31 9,0 14,7 12,17 -4,20 -24,28 -33,14 z"
       id="path226"
       inkscape:connector-curvature="0" />
  </g>
</svg>
