<?xml version="1.0" standalone="no"?>
<!DOCTYPE svg PUBLIC "-//W3C//DTD SVG 20010904//EN"
 "http://www.w3.org/TR/2001/REC-SVG-20010904/DTD/svg10.dtd">
<svg version="1.0" xmlns="http://www.w3.org/2000/svg"
 width="1535.200000pt" height="863.200000pt" viewBox="0 0 1535.200000 863.200000"
 preserveAspectRatio="xMidYMid meet">
<metadata>
Created by potrace 1.13, written by Peter Selinger 2001-2015
</metadata>
<g transform="translate(0.000000,863.200000) scale(0.080000,-0.080000)"
fill="#000000" stroke="none">
<path d="M2751 10674 l-31 -26 0 -179 0 -179 75 0 75 0 0 -75 0 -75 176 0 176
0 29 29 29 29 0 222 0 222 -29 29 -29 29 -220 0 -220 0 -31 -26z m269 -105
c22 -23 40 -44 40 -48 0 -4 -22 -29 -50 -56 -27 -27 -50 -43 -50 -36 0 7 -19
30 -42 51 l-43 39 45 45 c24 25 48 46 52 46 4 0 26 -19 48 -41z m85 -89 c4 -6
-8 -10 -29 -10 -20 0 -36 5 -36 10 0 6 13 10 29 10 17 0 33 -4 36 -10z m25
-30 c0 -6 -27 -10 -61 -10 -37 0 -58 4 -54 10 3 6 31 10 61 10 30 0 54 -4 54
-10z m30 -30 c0 -6 -37 -10 -91 -10 -57 0 -88 4 -84 10 3 6 44 10 91 10 49 0
84 -4 84 -10z m-25 -30 c-3 -5 -47 -10 -96 -10 -58 0 -88 4 -84 10 3 6 47 10
96 10 58 0 88 -4 84 -10z m-30 -30 c-3 -5 -46 -10 -96 -10 -53 0 -89 4 -89 10
0 6 39 10 96 10 61 0 93 -4 89 -10z m-35 -30 c0 -6 -37 -10 -91 -10 -57 0 -88
4 -84 10 3 6 44 10 91 10 49 0 84 -4 84 -10z m-25 -30 c-3 -5 -35 -10 -70 -10
-35 0 -67 5 -70 10 -4 6 22 10 70 10 48 0 74 -4 70 -10z m-35 -30 c0 -5 -18
-10 -41 -10 -24 0 -38 4 -34 10 3 6 22 10 41 10 19 0 34 -4 34 -10z"/>
<path d="M1829 10673 c-3 -22 -5 -66 -9 -133 l-4 -75 -5 68 c-3 37 -10 68 -16
68 -9 1 -9 -160 0 -351 l4 -75 81 -2 c73 -2 80 -1 80 17 0 16 -5 19 -30 14
-27 -6 -30 -4 -30 17 0 13 -14 105 -30 204 -36 218 -37 235 -10 235 11 0 20 5
20 10 0 11 -50 14 -51 3z"/>
<path d="M1537 10633 c-3 -10 -5 -91 -6 -180 l-1 -163 70 0 70 0 0 -60 0 -60
48 0 47 0 0 203 0 202 -55 5 c-54 5 -55 6 -58 38 -3 32 -4 32 -57 32 -43 0
-55 -4 -58 -17z"/>
<path d="M623 10503 c-13 -8 -23 -24 -23 -34 0 -16 5 -18 25 -13 18 5 35 -1
59 -20 19 -14 39 -26 45 -26 19 0 12 -27 -14 -53 -14 -13 -45 -30 -69 -36 -49
-12 -78 -46 -80 -95 -1 -28 4 -34 52 -58 62 -32 152 -46 188 -29 22 10 24 15
18 48 -11 62 -38 103 -69 103 -9 0 -14 4 -10 9 13 23 -15 18 -29 -4 -9 -14
-21 -23 -26 -20 -15 10 -12 23 8 30 9 3 29 25 45 49 54 86 26 167 -59 165 -21
0 -49 -7 -61 -16z m57 -237 c0 -6 -11 -24 -25 -41 l-24 -30 -1 42 c0 23 3 49
6 58 6 14 8 14 25 -1 11 -9 19 -22 19 -28z"/>
<path d="M1903 10498 c3 -13 9 -49 13 -82 3 -32 10 -53 14 -46 4 7 17 -30 30
-82 12 -51 23 -98 25 -105 3 -8 15 -8 47 -1 24 6 47 14 51 18 9 8 -9 88 -30
135 -12 28 -13 27 -7 -25 l7 -55 -21 25 -21 25 -1 -30 -1 -30 -22 37 c-25 41
-74 215 -63 225 4 4 16 2 26 -5 17 -10 20 -10 20 3 0 11 -11 15 -36 15 -32 0
-36 -2 -31 -22z"/>
<path d="M1567 10249 c9 -9 6 -19 -9 -39 -17 -23 -18 -31 -8 -50 12 -23 12
-23 26 9 11 26 18 31 34 26 15 -5 20 -2 20 14 0 37 -11 51 -43 51 -23 0 -28
-3 -20 -11z"/>
<path d="M2772 10248 c1 -7 -6 -25 -16 -40 -14 -22 -15 -30 -5 -49 l12 -23 9
24 c15 40 29 52 45 38 12 -10 14 -6 11 23 -4 29 -9 35 -32 37 -18 2 -26 -1
-24 -10z"/>
<path d="M267 10028 c-35 -12 -47 -53 -22 -76 16 -16 17 -16 10 6 -9 32 3 62
26 62 10 0 19 5 19 10 0 6 -1 10 -2 9 -2 0 -15 -5 -31 -11z"/>
<path d="M3137 10022 c-7 -19 -14 -22 -32 -18 -15 4 -29 0 -39 -10 -19 -19
-20 -26 -3 -43 8 -9 8 -12 0 -7 -6 3 -14 0 -16 -6 -3 -7 -6 7 -6 31 -1 42 -2
43 -28 36 -37 -9 -53 -25 -26 -25 12 0 24 6 26 13 3 7 6 5 6 -5 1 -13 -7 -18
-25 -18 -30 0 -28 -23 2 -29 10 -2 22 -8 26 -14 4 -7 21 -6 52 3 47 13 58 26
31 36 -8 4 -15 12 -15 20 0 11 5 10 20 -3 24 -21 26 -53 3 -53 -25 0 -12 -8
25 -13 17 -3 32 -1 32 4 0 5 7 9 16 9 11 0 14 8 12 32 -4 45 -24 46 -34 1 -8
-38 -8 -38 -14 22 -4 48 -7 55 -13 37z"/>
<path d="M216 10014 c-10 -26 -7 -69 6 -82 20 -20 32 -13 13 8 -13 14 -16 29
-12 55 6 37 3 45 -7 19z"/>
<path d="M736 10014 c-12 -31 -6 -71 14 -89 11 -10 20 -13 20 -8 0 6 -7 17
-16 24 -12 9 -15 24 -11 51 5 40 3 48 -7 22z"/>
<path d="M758 10004 c-13 -27 -3 -54 21 -62 10 -3 10 0 0 16 -10 16 -10 26 -1
46 7 16 8 26 2 26 -6 0 -16 -12 -22 -26z"/>
<path d="M2586 10005 c11 -49 18 -49 29 0 5 23 4 26 -4 15 -10 -13 -12 -13
-21 0 -8 11 -9 7 -4 -15z"/>
<path d="M2662 10018 c-14 -14 -16 -48 -3 -48 9 0 25 49 18 56 -2 2 -9 -2 -15
-8z"/>
<path d="M1440 9976 c0 -25 5 -46 10 -46 6 0 10 18 10 39 0 22 -4 43 -10 46
-6 4 -10 -12 -10 -39z"/>
<path d="M2162 9980 c-1 -29 2 -40 12 -40 23 0 31 41 12 55 -8 7 -13 15 -9 18
3 4 2 7 -4 7 -5 0 -10 -18 -11 -40z"/>
<path d="M2679 9970 c-14 -43 -14 -50 -2 -45 8 3 18 5 21 5 4 0 8 20 8 45 1
25 -2 45 -5 45 -4 0 -14 -23 -22 -50z"/>
<path d="M2940 9972 c0 -39 3 -50 14 -46 10 4 11 15 6 45 -11 59 -20 59 -20 1z"/>
<path d="M368 9997 c15 -17 6 -27 -25 -27 -36 0 -23 -24 15 -28 29 -3 32 -1
32 26 0 18 -6 32 -16 36 -13 5 -14 4 -6 -7z"/>
<path d="M410 9970 c0 -22 5 -40 10 -40 6 0 10 18 10 40 0 22 -4 40 -10 40 -5
0 -10 -18 -10 -40z"/>
<path d="M457 9996 c-21 -9 -21 -9 -2 -14 10 -2 21 1 23 7 2 6 8 9 13 5 16 -9
-1 -24 -27 -24 -16 0 -24 -5 -21 -12 2 -7 12 -13 23 -13 10 0 24 -9 31 -20 11
-18 12 -18 13 -2 0 9 7 17 15 17 8 0 15 5 15 10 0 6 -7 13 -15 16 -8 4 -15 12
-15 19 0 9 8 6 24 -8 25 -22 24 -47 -1 -47 -8 0 -11 -5 -8 -10 4 -7 12 -7 23
-1 10 6 23 6 34 0 12 -6 18 -6 18 1 0 5 -4 10 -10 10 -5 0 -10 16 -10 35 0 19
-3 35 -7 36 -46 5 -98 3 -116 -5z"/>
<path d="M1310 10001 c-36 -10 -39 -48 -6 -61 14 -5 26 -12 26 -15 0 -4 -5 -3
-12 1 -6 4 -8 3 -5 -2 5 -8 60 -11 102 -5 6 0 9 18 7 41 -5 45 -22 45 -22 -1
0 -26 -3 -29 -30 -29 -39 0 -43 36 -5 46 14 3 22 10 19 15 -3 5 -9 7 -14 4 -5
-3 -11 -1 -15 5 -7 11 -9 11 -45 1z m45 -11 c3 -5 -1 -10 -9 -10 -9 0 -16 -7
-16 -15 0 -17 -16 -20 -25 -5 -3 6 -1 10 5 10 6 0 9 4 6 9 -4 5 0 12 6 14 20
8 26 8 33 -3z"/>
<path d="M1486 9994 c-9 -25 -7 -64 4 -64 6 0 10 18 10 40 0 43 -4 50 -14 24z"/>
<path d="M1568 9980 c3 -21 -2 -38 -14 -52 -19 -21 -19 -21 1 -11 11 6 25 9
30 7 6 -3 9 14 7 41 -3 27 -9 45 -16 45 -8 0 -11 -11 -8 -30z"/>
<path d="M1630 9999 c0 -5 -4 -7 -10 -4 -12 8 -24 -40 -15 -62 7 -17 8 -17 14
0 6 17 8 17 20 3 7 -9 21 -16 30 -15 10 0 8 4 -8 10 -19 8 -23 15 -19 44 2 19
0 35 -4 35 -4 0 -8 -5 -8 -11z"/>
<path d="M1670 9997 c-23 -9 -23 -10 -5 -15 10 -2 21 1 23 7 2 6 8 9 13 5 16
-9 -1 -24 -27 -24 -37 0 -24 -24 14 -28 28 -3 32 0 32 21 0 34 -19 47 -50 34z"/>
<path d="M1948 10004 c-5 -4 -8 -20 -8 -35 0 -16 -8 -33 -17 -39 -14 -8 -10
-10 22 -8 33 3 41 7 43 26 5 31 20 28 25 -5 3 -20 4 -15 6 15 1 36 -2 42 -16
40 -23 -4 -32 -17 -34 -48 -1 -14 -5 -5 -8 18 -3 24 -9 40 -13 36z"/>
<path d="M2250 9970 c0 -22 5 -40 10 -40 6 0 10 18 10 40 0 22 -4 40 -10 40
-5 0 -10 -18 -10 -40z"/>
<path d="M2331 10000 c3 -32 -1 -37 -27 -32 -20 4 -25 1 -22 -9 3 -8 18 -14
34 -14 23 0 29 5 30 22 1 12 -3 27 -8 35 -7 10 -9 10 -7 -2z"/>
<path d="M2778 10000 c-4 -8 -9 -30 -12 -47 -6 -35 3 -40 52 -27 16 5 22 14
22 35 0 55 -38 45 -41 -11 -1 -14 -5 -5 -9 20 -3 26 -9 39 -12 30z"/>
<path d="M2848 9965 c4 -40 6 -43 35 -48 18 -3 37 0 42 5 7 7 5 9 -5 6 -26 -9
-50 11 -50 41 0 16 -6 31 -12 34 -10 3 -12 -7 -10 -38z"/>
<path d="M3206 9962 l1 -46 53 -2 c39 -1 57 3 70 16 16 16 20 17 31 4 6 -8 17
-14 23 -14 6 0 3 5 -6 11 -12 6 -18 23 -19 47 0 20 -3 31 -6 24 -2 -6 -9 -10
-14 -6 -5 3 -10 -3 -11 -13 0 -10 -2 -23 -2 -30 -3 -33 -16 -21 -16 15 0 27
-4 42 -13 42 -9 0 -11 -12 -9 -38 4 -36 2 -38 -27 -40 -21 -2 -31 2 -31 12 0
30 11 44 32 38 13 -3 19 -1 15 5 -9 15 -47 23 -47 11 0 -7 -4 -7 -12 0 -10 8
-13 0 -12 -36z"/>
<path d="M3373 9993 c0 -17 34 -17 40 0 4 10 6 10 6 0 1 -7 6 -13 13 -13 9 0
9 3 0 12 -16 16 -59 17 -59 1z"/>
<path d="M590 9974 c0 -24 22 -58 32 -49 2 2 2 20 0 40 -5 41 -32 49 -32 9z"/>
<path d="M924 9986 c-9 -24 4 -48 23 -44 12 2 18 12 18 28 0 29 -32 41 -41 16z"/>
<path d="M1527 9994 c-4 -4 -7 -18 -7 -31 0 -18 5 -24 18 -21 10 2 17 12 17
27 0 24 -15 37 -28 25z"/>
<path d="M1807 9994 c-4 -4 -7 -18 -7 -31 0 -18 5 -24 18 -21 10 2 17 12 17
27 0 24 -15 37 -28 25z"/>
<path d="M1884 9986 c-9 -24 4 -48 23 -44 12 2 18 12 18 28 0 29 -32 41 -41
16z"/>
<path d="M2030 9970 c0 -17 5 -30 13 -30 8 0 7 -4 -3 -10 -17 -11 -14 -12 35
-12 68 0 111 5 88 9 -19 4 -23 11 -23 39 0 21 -4 33 -10 29 -5 -3 -10 -19 -10
-36 0 -26 -3 -29 -30 -29 -23 0 -30 5 -30 19 0 26 -10 51 -21 51 -5 0 -9 -13
-9 -30z"/>
<path d="M2218 9990 c-4 -8 -9 -28 -13 -45 -6 -28 -5 -29 10 -14 10 10 15 27
13 45 -3 19 -6 24 -10 14z"/>
<path d="M2626 9985 c-4 -11 -12 -30 -17 -43 -13 -33 -11 -37 9 -19 10 10 22
14 25 10 9 -8 7 14 -3 47 -7 23 -8 24 -14 5z"/>
<path d="M2714 9986 c-9 -24 3 -46 26 -46 17 0 21 5 18 27 -3 31 -34 44 -44
19z"/>
<path d="M2884 9985 c-9 -22 3 -45 22 -45 14 0 14 3 4 16 -8 8 -9 14 -3 12 11
-3 13 1 13 22 0 16 -30 12 -36 -5z"/>
<path d="M301 9973 c0 -13 -7 -23 -13 -23 -8 0 -5 -7 6 -15 11 -8 31 -15 45
-14 l26 1 -25 7 c-17 5 -27 16 -31 36 -5 24 -7 25 -8 8z"/>
<path d="M890 9960 c0 -16 -3 -29 -7 -29 -21 3 -53 -2 -53 -8 0 -5 15 -7 32
-6 18 1 44 2 58 3 22 0 23 2 8 11 -10 5 -18 21 -18 34 0 14 -4 25 -10 25 -5 0
-10 -13 -10 -30z"/>
<path d="M1848 9963 c-2 -20 -9 -29 -25 -31 -13 -2 -23 -10 -23 -17 0 -12 4
-11 28 0 15 8 36 12 47 9 16 -5 18 -4 8 7 -7 7 -13 23 -13 36 0 32 -18 29 -22
-4z"/>
<path d="M632 9958 c7 -20 58 -23 58 -4 0 11 -10 16 -31 16 -20 0 -29 -4 -27
-12z"/>
<path d="M3372 9958 c7 -20 58 -23 58 -4 0 11 -10 16 -31 16 -20 0 -29 -4 -27
-12z"/>
<path d="M1950 9776 c0 -25 5 -46 10 -46 6 0 10 18 10 39 0 22 -4 43 -10 46
-6 4 -10 -12 -10 -39z"/>
<path d="M2881 9778 c-1 -27 4 -48 9 -48 12 0 12 47 0 75 -6 15 -9 8 -9 -27z"/>
<path d="M1518 9803 c-27 -4 -48 -38 -31 -53 4 -4 28 -15 53 -24 44 -16 45
-16 21 2 -18 15 -23 26 -19 51 2 17 4 30 4 30 -1 -1 -13 -4 -28 -6z"/>
<path d="M1673 9788 c4 -14 -1 -18 -24 -18 -32 0 -39 -17 -11 -26 9 -3 25 -10
35 -15 12 -7 17 -5 17 6 0 9 6 12 15 9 20 -8 19 13 -1 24 -9 5 -15 13 -13 18
2 5 14 -1 27 -13 l23 -21 -20 -19 c-20 -19 -20 -19 14 -15 28 3 32 7 25 21 -5
9 -11 27 -14 41 -4 21 -11 25 -41 25 -30 1 -35 -2 -32 -17z"/>
<path d="M1990 9765 c0 -25 5 -45 10 -45 6 0 10 20 10 45 0 25 -4 45 -10 45
-5 0 -10 -20 -10 -45z"/>
<path d="M2051 9802 c0 -7 -5 -11 -10 -8 -11 7 -21 -17 -21 -52 l0 -26 21 22
c13 15 19 32 16 50 -2 15 -5 21 -6 14z"/>
<path d="M2120 9791 c0 -16 -6 -21 -25 -21 -14 0 -25 -5 -25 -10 0 -11 8 -15
50 -24 24 -5 26 -3 22 29 -5 39 -22 59 -22 26z"/>
<path d="M2846 9794 c-9 -25 -7 -64 4 -64 6 0 10 18 10 40 0 43 -4 50 -14 24z"/>
<path d="M2955 9804 c6 -2 9 -22 7 -43 -4 -36 -2 -39 17 -34 37 10 17 85 -22
82 -7 0 -8 -2 -2 -5z"/>
<path d="M3100 9776 c0 -24 -7 -40 -22 -52 -17 -12 -18 -15 -5 -10 10 3 31 6
45 7 15 0 21 3 15 6 -8 2 -13 22 -13 44 0 21 -4 39 -10 39 -5 0 -10 -15 -10
-34z"/>
<path d="M3134 9775 c0 -25 6 -34 33 -48 18 -9 33 -12 33 -7 0 6 -7 10 -16 10
-12 0 -15 7 -12 25 3 14 1 25 -3 25 -5 0 -9 5 -9 10 0 7 6 7 19 0 25 -13 31
-13 31 0 0 6 -3 9 -7 9 -5 -1 -10 0 -13 1 -3 1 -16 3 -30 4 -22 2 -25 -2 -26
-29z"/>
<path d="M1555 9781 c-8 -25 1 -41 21 -41 8 0 14 -4 14 -8 0 -4 9 -8 21 -9 15
-1 18 1 11 10 -6 7 -12 23 -14 37 -4 33 -43 40 -53 11z"/>
<path d="M1759 9771 c10 -35 46 -36 46 -1 0 20 -5 25 -26 26 -24 1 -26 -2 -20
-25z"/>
<path d="M1894 9785 c-8 -19 2 -45 16 -45 6 0 9 4 6 9 -4 5 -1 11 6 13 14 5 4
38 -12 38 -6 0 -13 -7 -16 -15z"/>
<path d="M2156 9784 c-3 -9 -6 -20 -6 -25 0 -11 70 -41 84 -35 7 3 6 5 -1 5
-8 1 -13 15 -13 36 0 32 -3 35 -29 35 -17 0 -31 -6 -35 -16z m48 -10 c10 -26
7 -32 -13 -27 -13 3 -17 11 -14 24 6 23 19 25 27 3z"/>
<path d="M2230 9774 c0 -14 7 -32 15 -40 8 -9 15 -13 15 -9 0 3 9 1 19 -5 15
-7 22 -7 27 2 4 7 4 10 -1 6 -16 -15 -45 13 -45 42 0 20 -5 30 -15 30 -9 0
-15 -10 -15 -26z"/>
<path d="M2274 9786 c-9 -24 4 -48 23 -44 12 2 18 12 18 28 0 29 -32 41 -41
16z"/>
<path d="M2920 9767 c0 -22 6 -37 16 -41 12 -5 15 1 12 31 -4 48 -28 57 -28
10z"/>
<path d="M3023 9793 c-7 -3 -13 -20 -13 -39 0 -28 4 -34 22 -34 17 0 19 3 10
12 -7 7 -12 23 -11 38 l1 25 7 -25 c4 -16 14 -25 26 -25 15 0 20 7 20 25 0 20
-5 25 -25 26 -14 0 -31 -1 -37 -3z"/>
<path d="M1440 9786 c0 -3 4 -16 10 -30 6 -17 6 -26 0 -26 -6 0 -10 7 -10 16
0 24 -54 14 -59 -11 -3 -19 -3 -19 16 -2 18 16 22 16 33 2 7 -8 24 -15 38 -15
20 0 23 3 14 12 -7 7 -12 22 -12 35 0 14 -6 23 -15 23 -8 0 -15 -2 -15 -4z"/>
<path d="M1820 9769 c0 -16 -9 -33 -22 -42 l-23 -16 23 6 c30 7 46 38 33 61
-9 15 -10 13 -11 -9z"/>
<path d="M2330 9778 c0 -7 -3 -24 -7 -38 -6 -22 -5 -24 10 -11 19 15 23 46 7
56 -5 3 -10 0 -10 -7z"/>
<path d="M3230 9761 c0 -16 -6 -31 -12 -34 -7 -2 -10 -8 -6 -12 4 -4 14 -2 23
5 17 14 20 56 5 65 -6 4 -10 -6 -10 -24z"/>
<path d="M2700 9044 l0 -216 83 3 82 4 3 -88 3 -87 199 0 c109 0 205 3 214 6
14 5 16 41 16 300 l0 293 -300 0 -300 0 0 -215z m367 105 c71 -26 127 -122
116 -196 l-5 -33 -119 0 c-66 0 -119 -4 -119 -8 0 -38 86 -69 141 -51 19 7 40
16 47 22 6 5 12 8 13 6 13 -70 7 -92 -27 -107 -41 -19 -149 -15 -185 7 -85 52
-93 187 -15 253 11 9 16 17 10 18 -6 0 -32 -18 -57 -40 -25 -22 -47 -40 -50
-40 -11 0 18 77 41 109 43 59 139 87 209 60z"/>
<path d="M2954 9053 c-1 -10 -3 -25 -5 -33 -3 -12 7 -15 50 -15 61 0 73 13 42
44 -27 27 -86 29 -87 4z"/>
<path d="M481 9186 c2 -2 81 -30 176 -62 139 -46 173 -61 177 -78 3 -12 6 -60
6 -108 0 -75 -2 -88 -16 -88 -9 0 -88 23 -175 52 l-158 52 -4 106 -3 105 1
-109 0 -109 170 -58 c94 -32 176 -58 183 -58 9 -1 12 29 12 118 l0 118 -42 16
c-64 24 -315 107 -324 107 -4 0 -5 -2 -3 -4z"/>
<path d="M1914 9045 c-3 -8 -3 -18 0 -24 3 -5 2 -11 -3 -13 -5 -1 -3 -12 4
-22 14 -19 15 -19 20 0 4 10 11 27 16 36 12 24 12 25 -12 31 -12 3 -22 0 -25
-8z"/>
<path d="M1566 8786 c3 -8 -2 -25 -10 -39 -15 -23 -13 -57 3 -57 4 0 13 12 20
26 8 19 17 25 32 21 18 -5 20 -1 17 26 -3 28 -7 32 -35 35 -26 3 -32 0 -27
-12z"/>
<path d="M2770 8785 c0 -8 -7 -26 -15 -39 -15 -22 -12 -56 4 -56 4 0 13 12 20
26 8 19 17 25 32 21 18 -5 20 -1 17 26 -2 27 -8 33 -30 35 -20 2 -28 -1 -28
-13z"/>
<path d="M1748 8769 c-23 -13 -11 -39 18 -39 13 0 24 -4 24 -9 0 -5 14 -11 31
-13 22 -3 33 0 40 13 6 11 5 20 -1 24 -5 3 -10 3 -10 -2 0 -4 -5 -1 -10 7 -8
12 -12 13 -19 2 -10 -16 -46 -12 -46 5 0 18 -9 22 -27 12z"/>
<path d="M2522 8526 c-2 -47 0 -55 18 -61 36 -11 55 2 57 40 2 45 -4 44 -24
-2 l-15 -37 -14 24 c-7 14 -13 32 -13 40 0 9 5 5 13 -10 l14 -24 16 38 c20 49
20 60 -1 22 l-16 -30 -14 27 c-7 15 -15 27 -16 27 -1 0 -3 -24 -5 -54z"/>
<path d="M2610 8516 c0 -25 5 -46 10 -46 6 0 10 18 10 39 0 22 -4 43 -10 46
-6 4 -10 -12 -10 -39z"/>
<path d="M285 8532 c-3 -8 -1 -20 4 -25 7 -7 7 -15 -2 -25 -10 -13 -8 -14 13
-7 35 11 37 15 17 29 -9 7 -17 19 -17 26 0 7 12 0 26 -15 25 -27 25 -29 8 -42
-16 -12 -14 -13 18 -13 56 0 64 6 60 45 -5 44 -32 48 -32 6 0 -16 6 -32 13
-34 7 -3 5 -6 -5 -6 -14 -1 -18 7 -18 34 0 19 -3 35 -7 36 -5 0 -22 2 -40 3
-22 3 -34 -1 -38 -12z"/>
<path d="M427 8533 c7 -17 30 -17 37 0 3 6 4 3 3 -8 -2 -14 -9 -19 -25 -17
-16 2 -20 -1 -16 -12 10 -27 51 -20 56 9 6 28 -4 38 -38 40 -14 0 -20 -4 -17
-12z"/>
<path d="M568 8542 c-10 -2 -18 -8 -18 -13 0 -14 27 -11 34 4 3 6 4 3 3 -8 -2
-15 -9 -19 -26 -17 -16 3 -22 -1 -19 -10 3 -7 13 -13 24 -13 10 0 21 -3 24 -6
10 -11 70 -28 70 -19 0 5 -10 10 -22 12 -18 2 -24 11 -26 35 -3 33 -15 42 -44
35z"/>
<path d="M688 8544 c-5 -4 -8 -30 -8 -58 0 -39 3 -47 12 -38 7 7 30 12 53 12
l40 0 -3 45 c-5 56 -22 60 -22 4 0 -38 -1 -40 -27 -37 -24 3 -29 8 -33 41 -3
22 -8 35 -12 31z"/>
<path d="M712 8520 c2 -23 8 -35 18 -35 10 0 16 12 18 35 2 27 0 31 -8 20 -9
-13 -11 -13 -20 0 -8 11 -10 7 -8 -20z"/>
<path d="M802 8510 c-2 -21 1 -41 6 -44 4 -2 9 13 10 34 2 21 -1 41 -6 44 -4
2 -9 -13 -10 -34z"/>
<path d="M888 8519 c2 -16 -2 -37 -9 -46 -12 -15 -12 -16 4 -10 10 4 22 7 26
7 12 0 0 68 -13 73 -8 3 -11 -4 -8 -24z"/>
<path d="M1392 8510 c-2 -23 2 -40 8 -40 5 0 10 18 10 40 0 22 -4 40 -8 40 -4
0 -9 -18 -10 -40z"/>
<path d="M1475 8511 c0 -32 -3 -36 -30 -41 -16 -3 12 -6 63 -7 50 -1 92 2 92
6 0 5 25 1 55 -7 48 -13 58 -14 69 -1 18 19 28 66 16 74 -5 3 -12 -7 -16 -22
-10 -48 -12 -49 -13 -7 -1 26 -6 41 -14 41 -8 0 -11 -12 -9 -36 3 -33 1 -37
-23 -39 -15 -1 -28 4 -31 13 -8 21 14 45 34 38 12 -4 14 -3 7 4 -5 6 -21 13
-35 17 -14 3 -19 3 -12 0 6 -3 9 -10 6 -15 -4 -6 -11 -6 -19 1 -11 9 -15 6
-20 -17 -11 -48 -13 -49 -14 -5 -1 23 -6 42 -11 42 -6 0 -10 -8 -8 -17 2 -13
-5 -19 -25 -21 -33 -4 -31 -23 4 -34 22 -6 21 -7 -6 -5 -26 2 -30 6 -33 34 -5
45 -27 49 -27 4z"/>
<path d="M1872 8535 c-4 -5 -7 -22 -7 -37 0 -23 3 -27 20 -22 30 9 32 14 12
28 -9 7 -17 18 -17 25 0 6 11 1 24 -10 26 -23 25 -46 -2 -51 -11 -3 -7 -6 11
-10 25 -5 27 -3 27 28 0 21 -5 34 -12 34 -9 0 -8 4 2 10 17 11 17 11 -23 14
-16 1 -31 -3 -35 -9z"/>
<path d="M2088 8510 c4 -35 2 -37 -25 -36 -23 1 -28 6 -28 25 0 14 -6 26 -13
29 -7 2 -12 -6 -12 -20 0 -13 -5 -29 -12 -36 -9 -9 -1 -12 38 -13 96 -2 144 5
144 21 0 4 -10 11 -22 14 l-23 6 23 19 c26 22 18 33 -15 20 -14 -5 -23 -17
-23 -29 0 -12 10 -25 23 -30 22 -10 22 -10 -3 -7 -20 2 -26 8 -28 34 -2 17 -9
33 -15 36 -9 3 -11 -7 -9 -33z"/>
<path d="M2708 8543 c-33 -8 -32 -62 1 -64 12 0 12 -2 -4 -8 -17 -7 -16 -9 10
-14 22 -4 34 -1 46 13 15 17 18 18 29 5 15 -18 42 -19 87 -3 37 13 41 23 17
36 -9 5 -15 14 -13 19 2 6 14 0 27 -12 22 -20 22 -23 7 -38 -15 -15 -7 -16 96
-14 62 1 105 3 95 5 -11 2 -16 14 -16 38 0 27 -4 34 -19 34 -15 0 -21 -8 -24
-37 l-4 -38 -1 38 c-2 48 -29 52 -34 5 -3 -29 -6 -33 -33 -33 -27 0 -31 4 -35
35 -5 34 -11 37 -69 31 -6 -1 -11 -16 -13 -33 -3 -29 -6 -33 -33 -33 -27 0
-31 4 -36 40 -3 22 -7 34 -8 26 0 -8 -4 -11 -8 -7 -5 4 -13 -9 -20 -31 l-11
-38 -1 43 c-1 23 -4 41 -8 41 -5 -1 -15 -3 -25 -6z"/>
<path d="M3320 8510 c0 -41 -1 -41 -32 -38 -28 2 -34 8 -36 31 -4 36 -17 35
-17 -3 -1 -26 3 -31 30 -35 16 -3 39 -4 50 -3 11 1 30 -2 42 -6 13 -4 24 -2
29 5 5 8 2 10 -8 6 -21 -8 -38 12 -38 44 0 15 -4 31 -10 34 -6 4 -10 -10 -10
-35z"/>
<path d="M3460 8538 c-22 -10 -23 -12 -6 -16 10 -2 22 1 26 8 5 8 9 7 13 -4 5
-12 0 -16 -24 -16 -38 0 -35 -25 4 -26 29 -1 42 26 23 50 -8 11 -17 12 -36 4z"/>
<path d="M625 8530 c-10 -16 4 -50 21 -50 11 0 14 8 12 27 -3 28 -22 41 -33
23z"/>
<path d="M847 8534 c-4 -4 -7 -18 -7 -31 0 -18 5 -24 18 -21 10 2 17 12 17 27
0 24 -15 37 -28 25z"/>
<path d="M924 8526 c-9 -24 4 -48 23 -44 12 2 18 12 18 28 0 29 -32 41 -41 16z"/>
<path d="M1434 8526 c-8 -22 3 -49 19 -43 6 2 12 14 12 27 0 27 -22 39 -31 16z"/>
<path d="M1967 8534 c-4 -4 -7 -18 -7 -31 0 -18 5 -24 18 -21 10 2 17 12 17
27 0 24 -15 37 -28 25z"/>
<path d="M2200 8505 c0 -22 5 -35 13 -35 9 0 12 11 9 35 -2 19 -8 35 -13 35
-5 0 -9 -16 -9 -35z"/>
<path d="M2234 8526 c-9 -24 4 -48 23 -44 12 2 18 12 18 28 0 29 -32 41 -41
16z"/>
<path d="M2650 8505 c0 -22 5 -35 13 -35 9 0 12 11 9 35 -2 19 -8 35 -13 35
-5 0 -9 -16 -9 -35z"/>
<path d="M2804 8526 c-9 -24 4 -48 23 -44 12 2 18 12 18 28 0 29 -32 41 -41
16z"/>
<path d="M2954 8526 c-9 -24 4 -48 23 -44 12 2 18 12 18 28 0 29 -32 41 -41
16z"/>
<path d="M3100 8510 c0 -16 5 -30 10 -30 6 0 10 14 10 30 0 17 -4 30 -10 30
-5 0 -10 -13 -10 -30z"/>
<path d="M3265 8530 c-10 -16 5 -50 21 -50 8 0 14 5 14 11 0 5 -4 7 -10 4 -5
-3 -10 -1 -10 4 0 6 7 11 15 11 9 0 12 6 9 15 -7 17 -30 20 -39 5z"/>
<path d="M3354 8526 c-9 -23 3 -46 23 -45 11 0 13 3 6 6 -7 2 -13 9 -13 14 0
6 5 7 11 3 7 -4 10 1 7 11 -4 24 -26 31 -34 11z"/>
<path d="M3418 8534 c-5 -4 -8 -22 -8 -40 0 -18 -4 -36 -10 -39 -12 -7 -13
-25 -2 -25 18 1 37 47 32 78 -3 19 -8 30 -12 26z"/>
<path d="M978 8505 c-2 -21 -10 -31 -28 -36 -23 -6 -23 -7 -3 -8 20 -1 53 22
53 37 0 4 -4 13 -9 21 -7 11 -10 7 -13 -14z"/>
<path d="M2288 8505 c-2 -21 -10 -31 -28 -36 -23 -6 -23 -7 -3 -8 20 -1 53 22
53 37 0 4 -4 13 -9 21 -7 11 -10 7 -13 -14z"/>
<path d="M2712 7780 c-8 -14 -12 -76 -12 -213 l0 -193 35 -2 c38 -3 41 2 24
44 -17 46 -13 138 9 186 41 94 125 148 232 148 146 0 253 -107 251 -249 -2
-188 -183 -300 -363 -226 -15 6 -18 1 -18 -34 l0 -41 201 0 c180 0 203 2 215
18 19 25 19 539 0 565 -12 15 -38 17 -287 17 -263 0 -275 -1 -287 -20z m541
-18 c-6 -4 -13 -22 -16 -40 -7 -43 -13 -49 -22 -23 -3 12 -11 18 -17 15 -7 -5
-9 0 -6 13 5 18 1 20 -41 17 -33 -3 -42 -1 -31 6 10 7 -25 10 -113 10 -100 0
-127 -3 -121 -12 4 -7 3 -10 -1 -5 -5 4 -17 0 -27 -10 -10 -9 -21 -13 -25 -9
-4 4 -1 11 6 16 10 6 7 8 -11 7 -19 -2 -24 -6 -21 -22 4 -15 2 -16 -5 -7 -5 8
-13 14 -18 14 -5 0 -20 5 -34 11 -14 6 -29 9 -33 8 -5 -1 -6 3 -2 9 4 6 103
10 278 10 150 0 267 -4 260 -8z"/>
<path d="M467 7553 c-4 -3 -2 -12 4 -20 9 -10 15 -10 25 -2 11 9 16 5 24 -15
5 -14 16 -26 25 -26 23 0 18 16 -16 44 -30 26 -50 32 -62 19z"/>
<path d="M2847 7530 l-59 -29 64 -33 c34 -18 67 -35 71 -37 5 -2 4 6 -2 18
-12 21 -10 21 79 21 89 0 91 0 79 -21 -6 -12 -7 -20 -2 -18 4 2 37 19 72 37
l63 33 -62 30 c-70 33 -70 33 -70 19 0 -5 10 -10 22 -10 12 0 18 -3 15 -7 -4
-3 -39 -6 -79 -5 -40 1 -75 -3 -78 -7 -3 -5 -16 -5 -29 0 -19 8 -21 12 -11 24
20 24 -7 18 -73 -15z"/>
<path d="M433 7473 c6 -33 20 -52 40 -53 14 0 7 28 -10 34 -12 5 -14 9 -5 18
19 19 14 38 -9 38 -19 0 -21 -4 -16 -37z"/>
<path d="M1881 7474 c-24 -7 -47 -11 -52 -9 -27 18 -28 -110 0 -156 15 -25 91
-89 106 -89 2 0 -20 24 -50 53 -30 29 -55 62 -55 73 0 17 6 19 55 16 l55 -4 0
66 c0 36 -3 66 -7 65 -5 -1 -28 -7 -52 -15z"/>
<path d="M1990 7479 c0 -13 49 -31 73 -27 12 2 2 9 -27 19 -25 9 -46 12 -46 8z"/>
<path d="M550 7440 c0 -6 -8 -10 -17 -8 -23 4 -23 -21 -1 -35 12 -8 21 -7 32
2 20 17 21 51 1 51 -8 0 -15 -5 -15 -10z"/>
<path d="M1567 7329 c9 -9 6 -19 -10 -40 -19 -27 -20 -31 -5 -45 15 -15 16
-15 22 4 8 25 37 37 48 20 4 -8 8 4 8 30 0 42 0 42 -37 42 -28 0 -34 -3 -26
-11z"/>
<path d="M1960 7279 l0 -60 40 24 c23 13 49 40 59 60 l19 37 -59 0 -59 0 0
-61z"/>
<path d="M2767 7329 c9 -9 7 -18 -10 -40 -20 -28 -20 -30 -4 -46 10 -10 17
-12 17 -6 0 19 31 45 47 39 11 -5 14 2 11 27 -3 29 -7 32 -38 35 -27 3 -32 1
-23 -9z"/>
<path d="M258 7113 c-11 -3 -18 -14 -18 -30 0 -31 22 -26 30 8 4 16 8 20 13
12 10 -16 -10 -53 -28 -53 -9 0 -15 -9 -14 -22 1 -17 2 -19 6 -5 5 20 19 22
29 5 5 -7 10 -4 15 10 5 12 15 22 24 22 8 0 15 5 15 10 0 6 -5 10 -11 10 -6 0
-18 8 -27 18 -10 11 -25 17 -34 15z"/>
<path d="M1477 7090 c9 -54 17 -55 28 -5 5 21 4 26 -3 16 -8 -11 -12 -10 -21
5 -9 15 -9 12 -4 -16z"/>
<path d="M2189 7100 c11 -34 2 -90 -15 -90 -8 0 -14 -4 -14 -10 0 -15 29 0 40
21 14 26 12 62 -5 85 -14 18 -15 18 -6 -6z"/>
<path d="M3443 7104 c9 -11 14 -24 10 -27 -3 -4 -2 -7 4 -7 6 0 8 -12 5 -26
-3 -20 -2 -25 7 -19 7 4 10 13 7 21 -3 8 -1 14 4 14 14 0 12 -34 -2 -48 -9 -9
-9 -12 0 -12 17 0 29 36 24 71 -4 27 -5 28 -18 12 -12 -17 -13 -16 -14 6 0 13
-3 21 -7 18 -3 -4 -13 -1 -22 5 -12 10 -12 7 2 -8z"/>
<path d="M1416 7085 c11 -49 18 -49 29 0 5 23 4 26 -4 15 -10 -13 -12 -13 -21
0 -8 11 -9 7 -4 -15z"/>
<path d="M1520 7093 c-1 -10 -7 -35 -14 -55 -8 -22 -10 -38 -4 -38 5 0 12 9
15 20 3 11 9 17 14 14 5 -3 9 13 9 35 0 39 -20 61 -20 24z"/>
<path d="M2090 7064 c0 -38 3 -45 18 -42 12 2 18 15 20 42 2 25 0 36 -7 31 -6
-3 -11 -1 -11 4 0 6 -4 11 -10 11 -5 0 -10 -21 -10 -46z"/>
<path d="M2144 7097 c-10 -27 0 -72 16 -72 11 0 15 11 15 39 0 40 -20 61 -31
33z"/>
<path d="M2540 7061 c0 -46 2 -52 15 -41 18 15 21 55 3 44 -7 -5 -9 -2 -6 8 4
8 2 21 -3 29 -6 9 -9 -4 -9 -40z"/>
<path d="M2845 7097 c-6 -7 -7 -32 -4 -57 3 -25 7 -39 7 -32 2 14 32 17 32 2
0 -22 40 -9 46 15 3 14 10 25 15 25 12 0 12 47 0 54 -5 4 -15 -17 -22 -44 -7
-28 -17 -49 -23 -47 -5 2 -17 24 -25 49 -11 33 -19 43 -26 35z"/>
<path d="M2871 7105 c0 -5 6 -26 13 -45 14 -38 13 -39 32 33 6 21 5 21 -9 3
-14 -19 -14 -19 -25 0 -6 10 -11 15 -11 9z"/>
<path d="M3390 7057 c0 -36 4 -56 10 -52 13 8 13 75 0 95 -7 11 -10 -2 -10
-43z"/>
<path d="M560 7060 c0 -42 2 -46 33 -57 31 -11 31 -11 10 4 -14 9 -23 26 -23
42 0 14 -5 33 -10 41 -7 11 -10 3 -10 -30z"/>
<path d="M1567 7093 c-11 -10 -8 -93 3 -93 6 0 10 23 10 50 0 51 -1 55 -13 43z"/>
<path d="M1730 7058 c0 -36 -4 -48 -17 -51 -10 -2 -1 -4 19 -3 23 1 33 5 27
11 -5 5 -9 20 -9 35 0 14 -5 32 -10 40 -7 11 -10 2 -10 -32z"/>
<path d="M2070 7097 c-3 -3 -4 -26 -2 -51 3 -35 8 -46 21 -46 11 0 12 3 4 8
-6 4 -13 27 -15 51 -2 23 -5 41 -8 38z"/>
<path d="M3368 7088 c-2 -7 -1 -31 3 -53 6 -40 6 -39 8 13 1 51 -3 65 -11 40z"/>
<path d="M435 7051 c0 -30 -4 -37 -22 -39 -13 -2 -23 -9 -23 -17 0 -11 5 -11
30 1 16 9 35 12 42 8 8 -5 9 -2 5 10 -4 10 -7 28 -7 41 0 12 -6 25 -12 28 -9
3 -13 -7 -13 -32z"/>
<path d="M520 7070 c0 -15 -7 -20 -26 -20 -37 0 -25 -24 14 -28 31 -3 32 -2
32 32 0 20 -4 36 -10 36 -5 0 -10 -9 -10 -20z"/>
<path d="M618 7083 c-10 -2 -18 -9 -18 -14 0 -14 28 -11 33 4 3 7 6 5 6 -5 1
-13 -7 -18 -25 -18 -16 0 -24 -5 -21 -12 2 -7 14 -13 26 -12 11 0 21 -5 21
-12 0 -19 27 -24 40 -9 7 8 16 13 20 10 4 -3 10 6 12 19 3 15 -2 27 -13 35
-16 9 -19 7 -25 -17 -10 -47 -12 -48 -13 -4 -1 42 -5 45 -43 35z"/>
<path d="M900 7051 c0 -23 5 -41 10 -41 6 0 10 15 10 34 0 19 -4 38 -10 41 -6
4 -10 -10 -10 -34z"/>
<path d="M1640 7047 c0 -40 3 -45 25 -49 27 -6 34 6 10 16 -9 3 -15 18 -15 35
0 16 -4 33 -10 36 -6 4 -10 -11 -10 -38z"/>
<path d="M1910 7082 c-13 -5 -13 -42 0 -42 6 0 10 10 10 22 0 12 3 19 6 15 8
-8 -6 -67 -16 -67 -4 0 -11 12 -15 28 l-7 27 -12 -30 c-12 -28 -11 -30 13 -35
26 -5 90 18 91 33 0 4 -7 10 -15 13 -8 4 -15 14 -15 23 0 9 3 12 8 6 4 -5 14
-16 23 -23 14 -11 16 -9 16 10 0 20 -5 23 -38 23 -22 0 -44 -1 -49 -3z"/>
<path d="M2648 7072 c-5 -17 -13 -22 -38 -22 -21 0 -30 -4 -27 -12 2 -7 12
-13 23 -13 10 0 23 -6 27 -12 4 -7 16 -13 25 -13 13 0 14 2 4 9 -21 13 -10 44
18 51 17 4 21 8 12 14 -6 4 -16 5 -21 2 -5 -4 -11 -1 -13 6 -3 7 -7 2 -10 -10z"/>
<path d="M2708 7049 c3 -32 1 -39 -14 -39 -12 0 -15 -3 -8 -10 5 -5 18 -7 29
-4 17 4 20 12 17 44 -2 21 -9 41 -16 43 -8 3 -10 -8 -8 -34z"/>
<path d="M2791 7046 c-2 -40 0 -44 19 -39 24 6 27 45 4 67 -8 9 -17 16 -18 16
-1 0 -3 -20 -5 -44z"/>
<path d="M3028 7083 c-10 -2 -18 -9 -18 -14 0 -14 28 -11 33 4 3 7 6 5 6 -5 1
-13 -7 -18 -25 -18 -29 0 -29 -23 1 -28 11 -3 15 0 10 8 -4 7 5 4 20 -6 l27
-18 -7 35 c-11 52 -11 52 -47 42z"/>
<path d="M3091 7081 c-12 -8 -13 -14 -3 -35 6 -14 9 -32 6 -40 -4 -10 0 -13
13 -11 75 15 73 14 73 51 0 41 -15 38 -23 -6 -8 -37 -23 -39 -32 -2 -7 25 -8
26 -16 7 -7 -15 -8 -12 -4 13 2 17 3 32 2 32 -1 0 -8 -4 -16 -9z"/>
<path d="M3240 7070 c0 -15 -7 -20 -26 -20 -31 0 -28 -23 4 -28 12 -2 22 -8
22 -13 0 -5 5 -9 10 -9 6 0 10 20 10 45 0 25 -4 45 -10 45 -5 0 -10 -9 -10
-20z"/>
<path d="M3274 7043 c-2 -46 9 -47 20 -2 3 16 1 31 -7 37 -9 8 -12 0 -13 -35z"/>
<path d="M394 7066 c-8 -22 3 -49 19 -43 6 2 12 14 12 27 0 27 -22 39 -31 16z"/>
<path d="M844 7065 c-9 -22 3 -45 23 -45 15 0 16 2 3 10 -13 8 -12 10 4 10 12
0 16 5 12 16 -3 9 -6 18 -6 20 0 11 -31 2 -36 -11z"/>
<path d="M1456 7065 c-4 -11 -12 -30 -17 -43 -12 -31 -12 -32 16 -19 26 13 28
17 15 57 -7 23 -8 24 -14 5z"/>
<path d="M1596 7065 c-3 -9 -6 -27 -6 -40 0 -18 4 -22 21 -18 16 4 19 12 17
36 -3 34 -22 47 -32 22z"/>
<path d="M1674 7065 c-9 -22 3 -45 23 -45 16 0 16 2 3 11 -11 8 -12 12 -2 16
17 7 15 33 -3 33 -9 0 -18 -7 -21 -15z"/>
<path d="M1764 7066 c-9 -24 4 -48 23 -44 12 2 18 12 18 28 0 29 -32 41 -41
16z"/>
<path d="M1820 7051 c0 -18 -8 -34 -22 -44 -22 -15 -21 -15 15 -5 38 12 41 17
31 56 -9 31 -24 27 -24 -7z"/>
<path d="M2750 7046 c0 -21 6 -36 15 -40 12 -4 15 3 15 34 0 29 -4 40 -15 40
-10 0 -15 -10 -15 -34z"/>
<path d="M2970 7045 c0 -19 5 -35 10 -35 6 0 10 16 10 35 0 19 -4 35 -10 35
-5 0 -10 -16 -10 -35z"/>
<path d="M350 7040 c0 -27 -3 -30 -32 -30 -41 0 -28 -13 17 -16 35 -3 35 -3
35 36 0 22 -4 40 -10 40 -5 0 -10 -13 -10 -30z"/>
<path d="M770 7041 c0 -27 -4 -31 -27 -32 -25 0 -25 -1 -8 -8 11 -5 28 -4 38
1 18 9 23 53 7 63 -6 4 -10 -7 -10 -24z"/>
<path d="M932 7038 c7 -20 58 -23 58 -4 0 11 -10 16 -31 16 -20 0 -29 -4 -27
-12z"/>
<path d="M1240 6879 c0 -24 5 -51 10 -59 6 -10 7 3 3 40 -7 69 -13 77 -13 19z"/>
<path d="M1263 6881 c3 -24 10 -48 15 -53 5 -5 6 9 2 37 -9 59 -25 74 -17 16z"/>
<path d="M1330 6882 c0 -24 -5 -53 -11 -64 -10 -18 -9 -20 6 -15 9 4 19 7 21
7 8 0 3 86 -6 100 -7 11 -10 3 -10 -28z"/>
<path d="M1831 6918 c-1 -4 8 -30 19 -57 11 -28 16 -53 11 -55 -5 -3 -11 4
-14 15 -8 29 -47 22 -59 -11 l-9 -24 25 23 c22 21 25 21 34 5 12 -22 42 -27
42 -8 0 8 7 14 15 14 8 0 15 3 15 8 0 9 -37 42 -48 42 -5 0 -13 12 -19 28 -6
15 -11 24 -12 20z"/>
<path d="M1510 6855 c0 -33 -4 -45 -15 -45 -8 0 -15 -3 -15 -7 0 -5 36 -8 80
-8 44 0 80 3 80 8 0 4 -4 7 -10 7 -5 0 -10 15 -10 34 0 31 -23 56 -38 41 -3
-3 -1 -5 4 -5 6 0 8 -16 6 -35 -4 -31 -8 -35 -33 -35 -22 0 -29 5 -29 19 0 11
-3 28 -6 38 -6 15 -4 16 7 6 7 -7 22 -13 33 -13 23 0 13 11 -26 28 l-28 12 0
-45z"/>
<path d="M370 6879 c0 -5 -4 -8 -9 -5 -11 7 -21 -18 -21 -52 1 -24 2 -25 14
-10 8 11 16 14 22 8 5 -5 9 7 9 31 0 21 -3 39 -7 39 -5 0 -8 -5 -8 -11z"/>
<path d="M610 6881 c-33 -9 -41 -50 -11 -58 12 -3 21 -10 21 -15 0 -5 5 -6 10
-3 17 10 11 25 -10 25 -22 0 -25 8 -10 30 9 13 11 13 20 0 8 -12 10 -11 10 8
0 12 -1 22 -2 21 -2 -1 -14 -4 -28 -8z"/>
<path d="M660 6846 c0 -28 5 -46 11 -46 8 0 10 14 6 41 -4 31 -2 38 6 30 6 -6
20 -11 31 -11 27 0 9 17 -26 25 -28 7 -28 6 -28 -39z"/>
<path d="M848 6885 c-3 -4 -35 -11 -59 -14 -4 -1 -9 -16 -11 -33 -3 -18 -8
-42 -12 -53 -7 -18 -6 -18 12 3 13 14 27 20 39 16 17 -5 17 -5 1 6 -10 6 -18
21 -18 34 0 19 4 22 25 18 17 -3 25 0 25 9 0 11 2 11 10 -1 5 -8 12 -12 15 -9
3 4 -1 11 -8 17 -8 7 -16 10 -19 7z"/>
<path d="M1907 6879 c-18 -10 -18 -12 2 -26 17 -11 19 -18 11 -34 -9 -15 -7
-19 5 -19 8 0 15 5 15 10 0 6 7 10 15 10 8 0 15 5 15 10 0 6 -7 13 -15 16 -8
4 -15 15 -15 25 0 21 -7 23 -33 8z"/>
<path d="M1968 6882 c-23 -5 -23 -14 2 -30 22 -13 17 -38 -8 -45 -10 -3 -3 -5
14 -6 31 -1 31 -1 24 39 -9 47 -9 48 -32 42z"/>
<path d="M2028 6884 c-5 -4 -8 -23 -8 -41 0 -31 2 -34 23 -27 31 9 34 14 16
28 -9 6 -18 20 -20 30 -2 10 -7 14 -11 10z"/>
<path d="M2068 6882 c-23 -5 -23 -14 2 -30 22 -13 17 -39 -8 -45 -10 -2 18 -4
60 -4 42 -1 81 -4 86 -7 5 -3 23 0 41 7 24 9 31 17 31 39 0 26 -15 46 -27 35
-3 -4 -9 -21 -13 -39 -8 -33 -8 -33 -9 10 -1 27 -6 42 -14 42 -9 0 -11 -12 -9
-41 4 -39 3 -40 -24 -37 -22 2 -30 10 -36 36 -5 17 -13 32 -18 32 -15 0 -12
-57 3 -63 7 -3 5 -6 -5 -6 -14 -1 -18 7 -18 33 0 35 -12 45 -42 38z"/>
<path d="M2290 6845 c0 -43 1 -45 28 -44 15 0 21 3 15 6 -7 2 -13 20 -13 38 0
20 -6 35 -15 39 -12 4 -15 -4 -15 -39z"/>
<path d="M440 6865 c0 -9 -10 -15 -26 -15 -35 0 -26 -23 12 -31 16 -4 38 -10
49 -14 18 -6 18 -5 3 5 -11 6 -18 23 -18 40 0 17 -4 30 -10 30 -5 0 -10 -7
-10 -15z"/>
<path d="M474 6865 c-10 -26 4 -45 33 -44 24 2 25 2 6 6 -27 5 -29 16 -7 37
14 15 14 16 -6 16 -11 0 -23 -7 -26 -15z"/>
<path d="M1374 6866 c-8 -22 3 -49 19 -43 6 2 12 14 12 27 0 27 -22 39 -31 16z"/>
<path d="M1428 6870 c-4 -8 -9 -26 -12 -40 -4 -22 -2 -25 26 -27 26 -2 29 -1
15 10 -9 7 -17 26 -19 42 -3 19 -6 25 -10 15z"/>
<path d="M1454 6865 c-9 -22 3 -45 23 -44 11 0 13 3 6 6 -18 7 -16 23 2 23 9
0 12 6 9 15 -4 8 -13 15 -20 15 -8 0 -17 -7 -20 -15z"/>
<path d="M1630 6854 c0 -30 21 -54 47 -54 17 1 17 1 1 11 -11 6 -18 22 -18 39
0 20 -5 30 -15 30 -9 0 -15 -10 -15 -26z"/>
<path d="M2330 6850 c0 -16 5 -30 10 -30 6 0 10 14 10 30 0 17 -4 30 -10 30
-5 0 -10 -13 -10 -30z"/>
<path d="M550 6842 c0 -22 6 -30 33 -39 31 -11 31 -11 10 4 -13 9 -23 26 -23
39 0 13 -4 24 -10 24 -5 0 -10 -13 -10 -28z"/>
<path d="M740 6840 c0 -20 -5 -30 -15 -30 -18 0 -20 -16 -2 -22 25 -10 37 4
37 43 0 21 -4 39 -10 39 -5 0 -10 -13 -10 -30z"/>
<path d="M812 6838 c7 -20 58 -23 58 -4 0 11 -10 16 -31 16 -20 0 -29 -4 -27
-12z"/>
<path d="M1672 6838 c7 -20 58 -23 58 -4 0 11 -10 16 -31 16 -20 0 -29 -4 -27
-12z"/>
<path d="M510 6319 c-30 -11 -61 -26 -70 -35 -14 -15 -13 -16 5 -8 11 4 48 10
81 12 76 4 107 -10 186 -84 47 -45 63 -54 92 -54 30 0 37 4 42 26 11 43 -70
113 -170 147 -61 21 -95 20 -166 -4z"/>
<path d="M1724 6317 c-68 -20 -137 -79 -174 -149 -29 -54 -34 -73 -33 -128 0
-41 6 -78 17 -98 16 -31 19 -32 76 -32 l60 0 0 -59 c0 -69 7 -77 84 -93 49
-11 63 -10 110 6 46 16 53 21 41 32 -7 8 -20 14 -27 14 -10 0 -9 3 2 10 11 7
11 10 2 10 -7 0 -11 4 -8 9 4 5 3 16 0 25 -5 12 -21 16 -68 16 -105 0 -166 62
-166 167 0 92 63 153 158 153 80 0 134 -34 163 -104 11 -26 13 -27 20 -10 6
14 8 9 8 -19 1 -34 3 -37 20 -27 11 5 28 10 39 10 20 0 32 18 32 50 0 26 -47
113 -80 147 -65 66 -186 97 -276 70z"/>
<path d="M573 6172 c-6 -4 -13 -25 -15 -47 -3 -34 -7 -40 -28 -43 -62 -7 -70
-11 -70 -42 0 -33 26 -50 76 -50 21 0 24 -4 24 -40 0 -41 6 -46 55 -41 24 2
35 18 35 54 0 24 4 27 33 27 46 0 59 12 55 51 -3 32 -5 34 -48 39 -42 5 -45 7
-46 37 -1 18 -4 39 -8 48 -6 16 -43 20 -63 7z"/>
<path d="M365 5920 c-4 -6 10 -10 35 -10 25 0 39 4 35 10 -3 6 -19 10 -35 10
-16 0 -32 -4 -35 -10z"/>
<path d="M470 5831 c0 -58 2 -62 28 -73 15 -6 61 -11 102 -12 80 0 137 20 195
70 34 29 27 30 -23 5 -91 -46 -182 -35 -257 31 l-45 40 0 -61z"/>
<path d="M367 5869 c9 -9 7 -18 -8 -38 -12 -16 -17 -34 -13 -44 8 -23 17 -21
29 6 6 14 18 22 33 21 18 0 22 5 22 27 0 28 -15 39 -53 39 -16 0 -18 -3 -10
-11z"/>
<path d="M1567 5869 c9 -9 7 -18 -8 -38 -12 -16 -17 -34 -13 -44 8 -23 17 -21
29 6 6 14 18 22 33 21 18 0 22 5 22 27 0 28 -15 39 -53 39 -16 0 -18 -3 -10
-11z"/>
<path d="M311 5647 c9 -7 14 -18 12 -24 -3 -7 0 -13 7 -13 7 0 8 -6 0 -19 -7
-13 -7 -22 0 -26 9 -6 14 8 11 28 0 4 4 7 10 7 7 0 9 -11 6 -27 -5 -26 -3 -28
31 -30 31 -1 33 0 15 8 -18 7 -23 16 -23 47 0 21 6 44 13 52 6 8 -3 2 -20 -14
-31 -28 -33 -28 -33 -9 0 13 -8 23 -22 26 -20 5 -21 4 -7 -6z"/>
<path d="M1406 5630 c10 -54 18 -55 29 -5 5 21 4 26 -3 16 -8 -11 -12 -10 -21
5 -10 16 -11 13 -5 -16z"/>
<path d="M1592 5643 c-1 -13 -6 -23 -12 -23 -5 0 -10 -13 -10 -29 0 -17 -4
-33 -10 -36 -6 -4 -10 10 -10 34 0 23 -4 41 -10 41 -5 0 -10 -15 -10 -33 0
-18 -5 -38 -11 -44 -7 -7 -2 -12 20 -15 17 -3 31 -1 31 4 0 5 11 6 23 3 39
-10 168 -11 174 -2 3 5 11 6 19 3 10 -4 14 4 14 28 0 44 -27 57 -36 18 -10
-47 -12 -48 -13 -4 -1 27 -6 42 -14 42 -9 0 -11 -12 -9 -40 4 -39 3 -40 -27
-40 -28 0 -31 3 -29 28 2 25 5 28 27 24 18 -3 23 -1 16 6 -21 21 -51 23 -69 3
-17 -19 -17 -21 -2 -37 21 -20 13 -32 -10 -14 -13 12 -17 11 -24 0 -6 -10 -10
6 -13 45 -2 33 -4 50 -5 38z"/>
<path d="M474 5627 c-8 -35 -1 -62 16 -62 11 0 15 11 15 39 0 45 -21 60 -31
23z"/>
<path d="M620 5599 c0 -45 2 -50 15 -39 17 14 21 55 4 44 -7 -4 -9 0 -5 14 4
11 2 23 -4 27 -6 4 -10 -12 -10 -46z"/>
<path d="M1321 5640 c0 -8 6 -35 13 -60 8 -25 15 -38 15 -30 0 8 -6 35 -13 60
-8 25 -15 38 -15 30z"/>
<path d="M1346 5625 c4 -16 8 -32 10 -34 6 -7 11 2 18 34 5 22 4 26 -4 15 -9
-13 -11 -13 -20 0 -8 11 -9 7 -4 -15z"/>
<path d="M1990 5600 c0 -29 2 -51 4 -49 8 8 10 88 3 95 -4 4 -7 -17 -7 -46z"/>
<path d="M440 5630 c-11 -7 -11 -11 -1 -24 9 -11 10 -20 2 -35 -15 -27 -14
-30 8 -28 15 1 17 7 13 47 -6 54 -4 51 -22 40z"/>
<path d="M521 5625 c4 -48 -2 -66 -23 -74 -14 -5 -17 -10 -10 -15 16 -10 52
30 52 57 0 12 -5 29 -11 37 -8 12 -10 12 -8 -5z"/>
<path d="M1438 5585 c-15 -52 -14 -54 3 -44 13 6 26 6 42 -1 21 -11 21 -10 -2
8 -20 16 -23 25 -18 56 9 55 -8 43 -25 -19z"/>
<path d="M778 5622 c-21 -4 -25 -57 -5 -65 7 -3 5 -6 -5 -6 -14 -1 -18 7 -18
35 0 41 -23 43 -28 2 -4 -33 14 -46 68 -48 88 -4 86 -4 82 40 -5 45 -22 45
-22 -1 0 -26 -3 -29 -30 -29 -27 0 -30 3 -28 30 2 26 5 29 27 23 15 -4 22 -2
18 4 -8 13 -36 20 -59 15z"/>
<path d="M1810 5584 c0 -29 4 -44 13 -44 7 0 13 11 12 27 0 20 6 28 25 33 27
6 18 16 -23 24 -26 4 -27 3 -27 -40z"/>
<path d="M2132 5587 l-3 -42 42 -2 c34 -2 40 0 35 13 -3 9 -6 26 -6 39 0 12
-6 25 -13 28 -9 3 -12 -6 -11 -32 1 -24 0 -27 -3 -9 -2 16 -12 32 -22 37 -15
9 -18 4 -19 -32z"/>
<path d="M2230 5617 c-22 -9 -23 -11 -6 -15 10 -2 22 2 27 10 7 10 9 9 9 -4 0
-13 -8 -18 -26 -18 -33 0 -27 -24 8 -28 20 -2 26 2 30 22 7 34 -10 47 -42 33z"/>
<path d="M664 5606 c-9 -24 4 -48 23 -44 12 2 18 12 18 28 0 29 -32 41 -41 16z"/>
<path d="M1386 5605 c-4 -11 -12 -30 -17 -43 -13 -33 -11 -37 9 -19 10 10 22
14 25 10 9 -8 7 14 -3 47 -7 23 -8 24 -14 5z"/>
<path d="M1474 5606 c-9 -24 4 -48 23 -44 12 2 18 12 18 28 0 29 -32 41 -41
16z"/>
<path d="M2090 5586 c0 -21 6 -36 15 -40 12 -4 15 3 15 34 0 29 -4 40 -15 40
-10 0 -15 -10 -15 -34z"/>
<path d="M396 5601 c-9 -14 5 -42 18 -38 15 5 14 39 -1 44 -6 2 -14 0 -17 -6z"/>
<path d="M1891 5583 c-1 -25 -6 -33 -23 -36 -20 -4 -19 -4 5 -6 32 -1 44 20
29 52 -10 21 -11 20 -11 -10z"/>
<path d="M2057 5603 c-11 -10 -8 -53 3 -53 6 0 10 14 10 30 0 31 -2 35 -13 23z"/>
<path d="M331 5433 c0 -13 8 -28 19 -35 11 -7 20 -19 20 -26 0 -7 5 -10 10 -7
16 10 12 21 -14 35 -14 7 -27 22 -29 34 -4 20 -4 20 -6 -1z"/>
<path d="M1600 5428 c0 -10 7 -18 15 -18 8 0 15 8 15 18 0 10 -7 19 -15 19 -8
0 -15 -9 -15 -19z"/>
<path d="M1651 5433 c-1 -12 -6 -23 -13 -25 -7 -3 -5 -13 7 -31 9 -15 13 -27
8 -27 -5 0 -15 11 -21 25 -13 29 -32 33 -32 8 0 -22 43 -43 84 -42 29 0 29 1
9 9 -32 13 -33 61 -2 53 12 -3 24 0 29 6 5 10 9 9 13 -3 5 -12 0 -16 -24 -16
-34 0 -37 -25 -3 -25 10 -1 25 -4 32 -8 9 -6 12 1 12 27 0 37 -13 47 -46 35
-23 -8 -38 -1 -47 21 -4 10 -6 8 -6 -7z"/>
<path d="M450 5417 c-22 -9 -23 -11 -6 -15 10 -2 22 2 27 10 7 10 9 9 9 -4 0
-13 -8 -18 -25 -18 -14 0 -25 -5 -25 -10 0 -16 31 -24 40 -11 5 10 9 9 13 -3
11 -29 23 -17 19 18 -5 40 -17 48 -52 33z"/>
<path d="M533 5420 c-34 -14 -29 -46 10 -64 46 -22 117 -25 127 -6 4 8 12 25
18 37 15 28 16 55 2 33 -5 -8 -10 -10 -11 -5 -1 6 -7 -8 -14 -30 l-13 -40 -1
43 c-1 54 -21 56 -21 1 0 -38 -1 -40 -27 -37 -24 3 -28 8 -31 41 -3 40 -5 41
-39 27z"/>
<path d="M582 5400 c2 -23 8 -35 18 -35 10 0 16 12 18 35 2 27 0 31 -8 20 -9
-13 -11 -13 -20 0 -8 11 -10 7 -8 -20z"/>
<path d="M817 5422 c-12 -2 -16 -9 -13 -19 3 -8 6 -20 7 -26 0 -7 7 2 14 18
19 41 19 18 0 -35 -8 -24 -14 -45 -11 -47 8 -8 37 50 41 81 5 33 0 36 -38 28z"/>
<path d="M1918 5420 c-4 -8 -8 -26 -10 -40 -2 -18 -10 -26 -28 -27 l-25 -3 23
10 c30 13 27 55 -3 55 -15 0 -20 -7 -20 -27 1 -16 -3 -28 -7 -28 -4 0 -8 14
-8 32 0 37 -16 27 -22 -12 -2 -17 -10 -26 -25 -28 -13 -2 -23 -10 -23 -19 0
-13 2 -13 16 -2 11 9 43 14 93 14 71 0 76 1 79 23 4 28 20 29 24 0 2 -12 9
-23 16 -24 7 -1 8 0 2 3 -5 2 -10 20 -10 38 0 28 -4 33 -20 32 -21 -1 -37 -37
-25 -56 3 -6 2 -11 -4 -11 -5 0 -11 19 -13 43 -2 24 -6 36 -10 27z"/>
<path d="M727 5413 c-4 -3 -7 -19 -7 -34 0 -19 6 -28 22 -32 12 -4 24 -4 27
-2 2 3 -1 5 -7 5 -7 0 -12 15 -12 35 0 33 -8 43 -23 28z"/>
<path d="M760 5390 c0 -24 4 -30 21 -30 18 0 19 -2 9 -15 -8 -9 -9 -15 -2 -15
19 0 21 16 10 53 -14 45 -38 49 -38 7z"/>
<path d="M1777 5414 c-4 -4 -7 -18 -7 -31 0 -18 5 -24 18 -21 10 2 17 12 17
27 0 24 -15 37 -28 25z"/>
<path d="M2000 5390 c0 -16 5 -30 10 -30 6 0 10 14 10 30 0 17 -4 30 -10 30
-5 0 -10 -13 -10 -30z"/>
<path d="M409 5405 c-4 -5 -9 -22 -13 -37 -6 -27 -5 -28 31 -27 29 0 33 2 18
8 -11 5 -22 21 -25 37 -3 16 -8 25 -11 19z"/>
<path d="M320 4660 l0 -211 81 3 81 3 24 40 c33 57 64 125 64 142 0 8 5 24 12
36 6 12 11 36 10 54 -1 18 4 33 10 33 18 0 2 -129 -21 -174 -16 -31 -18 -42
-8 -48 8 -5 7 -8 -5 -8 -10 0 -18 -4 -18 -9 0 -4 -18 -29 -40 -54 -35 -40 -40
-51 -40 -96 l0 -51 205 0 205 0 0 275 0 275 -280 0 -280 0 0 -210z m448 -128
c3 -19 -1 -22 -30 -21 -23 1 -26 3 -10 6 24 5 30 28 10 37 -7 3 -4 5 7 3 12
-1 21 -11 23 -25z"/>
<path d="M1740 4841 c-128 -41 -209 -143 -210 -262 0 -31 7 -73 15 -93 15 -35
17 -36 70 -36 l55 0 0 -56 c0 -53 1 -55 35 -70 67 -28 78 -22 133 71 51 85 54
97 18 70 -49 -37 -145 -3 -172 60 -25 61 -13 116 36 160 23 21 39 22 233 24
42 1 77 5 77 9 0 17 -73 81 -114 100 -48 23 -140 35 -176 23z"/>
<path d="M370 4405 c0 -9 -7 -26 -16 -40 -13 -19 -13 -28 -3 -46 l12 -23 9 24
c15 40 29 52 44 39 11 -9 14 -5 14 25 0 33 -2 36 -30 36 -20 0 -30 -5 -30 -15z"/>
<path d="M1566 4406 c3 -8 -2 -26 -11 -40 -13 -20 -14 -29 -4 -47 11 -22 11
-22 24 8 13 32 35 52 35 34 0 -6 5 -11 11 -11 6 0 9 14 6 33 -3 28 -7 32 -35
35 -25 3 -31 0 -26 -12z"/>
<path d="M141 4198 c-1 -4 8 -30 19 -58 11 -27 16 -50 11 -50 -5 0 -12 7 -15
16 -4 9 -9 14 -13 11 -11 -12 19 -37 45 -37 20 0 23 3 14 12 -7 7 -12 22 -12
35 0 13 -6 23 -13 23 -7 0 -18 12 -24 28 -6 15 -11 24 -12 20z"/>
<path d="M1876 4192 c-2 -4 -1 -14 5 -22 12 -20 11 -58 -1 -62 -7 -2 -5 -11 4
-23 12 -16 17 -18 27 -7 10 9 10 12 1 12 -8 0 -12 19 -12 55 0 49 -10 69 -24
47z"/>
<path d="M680 4170 c0 -11 6 -20 13 -20 19 0 27 10 20 26 -8 21 -33 17 -33 -6z"/>
<path d="M724 4166 c-8 -18 -8 -30 3 -50 7 -14 10 -26 5 -26 -5 0 -14 11 -20
25 -15 32 -32 32 -32 0 0 -18 4 -23 15 -19 8 4 15 1 15 -5 0 -6 17 -11 38 -11
30 1 34 3 20 11 -10 5 -18 22 -19 37 0 15 -3 35 -7 44 -6 15 -8 14 -18 -6z"/>
<path d="M1302 4178 c-27 -27 -7 -78 30 -78 12 0 18 7 17 23 -1 17 -2 18 -6 4
-3 -10 -10 -16 -16 -14 -13 4 -17 39 -5 47 4 3 4 11 -1 18 -5 9 -10 9 -19 0z"/>
<path d="M1830 4171 c-14 -28 -13 -46 6 -62 15 -12 16 -11 10 7 -3 12 -2 33 3
48 12 31 -3 36 -19 7z"/>
<path d="M422 4138 c-2 -32 1 -39 15 -36 25 5 28 37 6 58 -19 17 -20 17 -21
-22z"/>
<path d="M980 4143 c0 -37 4 -44 30 -58 17 -9 30 -11 30 -6 0 5 -9 11 -20 14
-14 4 -20 14 -20 34 0 15 -5 35 -10 43 -7 11 -10 4 -10 -27z"/>
<path d="M1671 4138 c-1 -34 3 -48 12 -48 9 0 12 9 9 29 -4 26 -2 29 18 24 13
-4 26 0 31 8 7 11 9 10 9 -3 0 -13 -8 -18 -26 -18 -35 0 -26 -25 10 -26 24 -1
27 2 24 30 -2 17 -8 30 -14 29 -6 -1 -23 -4 -37 -7 -18 -3 -27 0 -30 12 -3 9
-5 -4 -6 -30z"/>
<path d="M117 4150 c-4 -15 0 -20 14 -20 21 0 22 1 13 24 -8 22 -21 20 -27 -4z"/>
<path d="M223 4160 c-27 -11 -31 -48 -5 -57 9 -4 23 -13 31 -20 11 -12 16 -11
32 3 16 14 21 15 36 3 15 -11 16 -11 6 1 -7 8 -13 30 -13 50 0 26 -3 31 -10
20 -5 -8 -10 -10 -10 -5 0 6 -5 2 -11 -8 -6 -9 -7 -26 -4 -37 4 -11 2 -20 -4
-20 -6 0 -11 18 -11 40 0 42 -2 44 -37 30z"/>
<path d="M490 4154 c0 -8 -4 -12 -10 -9 -6 4 -10 -5 -10 -20 0 -14 -7 -28 -15
-31 -8 -4 -15 -10 -15 -16 0 -5 6 -5 16 0 9 5 32 6 53 3 66 -12 77 -5 73 40
-5 47 -25 48 -30 1 -3 -28 -7 -32 -33 -32 -26 0 -30 3 -27 22 2 14 12 24 28
28 24 6 22 11 -12 23 -12 4 -18 1 -18 -9z"/>
<path d="M780 4157 c-22 -9 -23 -11 -6 -15 10 -2 22 1 26 8 5 8 9 7 13 -4 5
-12 0 -16 -24 -16 -20 0 -29 -4 -26 -12 2 -7 14 -13 26 -12 11 0 21 -5 21 -13
0 -12 37 -18 85 -13 25 2 23 -2 17 42 -5 42 -22 42 -22 0 0 -24 -4 -28 -31
-30 -29 -2 -31 0 -27 22 7 36 -19 57 -52 43z"/>
<path d="M1060 4150 c0 -15 -7 -20 -26 -20 -30 0 -28 -23 2 -29 10 -2 24 -11
31 -20 10 -13 12 -7 13 37 0 28 -4 52 -10 52 -5 0 -10 -9 -10 -20z"/>
<path d="M1801 4139 c-1 -37 16 -61 47 -65 10 -2 6 5 -11 19 -14 12 -28 35
-30 52 -4 28 -4 27 -6 -6z"/>
<path d="M1960 4121 c0 -40 3 -49 16 -47 9 1 23 11 30 21 12 16 14 17 20 2 3
-10 11 -17 17 -17 7 0 7 4 -1 12 -7 7 -12 22 -12 34 0 39 -27 36 -38 -4 l-10
-37 -1 43 c-1 59 -21 53 -21 -7z"/>
<path d="M2158 4163 c-23 -6 -25 -68 -3 -77 12 -4 15 3 15 34 0 22 3 40 8 40
4 0 6 -18 4 -39 -4 -36 -2 -39 17 -34 28 7 29 58 2 73 -11 5 -21 9 -23 9 -2
-1 -11 -3 -20 -6z"/>
<path d="M2228 4125 c4 -39 7 -43 33 -47 16 -3 34 -1 41 3 7 4 0 9 -18 11 -23
2 -30 9 -32 30 -2 14 -9 31 -15 36 -9 8 -11 0 -9 -33z"/>
<path d="M2280 4157 c-22 -9 -23 -11 -6 -15 10 -2 22 2 27 10 7 10 9 9 9 -4 0
-13 -8 -18 -26 -18 -34 0 -26 -24 9 -28 24 -3 27 0 27 27 0 36 -8 42 -40 28z"/>
<path d="M324 4146 c-9 -24 4 -48 23 -44 12 2 18 12 18 28 0 29 -32 41 -41 16z"/>
<path d="M388 4154 c-5 -4 -8 -18 -8 -31 0 -15 -8 -27 -22 -32 -16 -6 -18 -9
-7 -13 26 -10 51 17 47 52 -2 18 -6 28 -10 24z"/>
<path d="M590 4130 c0 -28 19 -44 21 -17 0 6 2 20 4 30 2 9 -3 17 -11 17 -9 0
-14 -11 -14 -30z"/>
<path d="M927 4153 c-14 -14 -6 -44 14 -51 11 -5 20 -11 20 -15 -1 -4 1 -7 4
-7 3 0 8 0 12 0 3 0 -4 12 -18 26 -13 14 -19 24 -12 22 11 -3 13 1 13 22 0 11
-23 14 -33 3z"/>
<path d="M1099 4150 c0 -8 -2 -27 -3 -42 -2 -15 0 -25 4 -23 12 7 18 53 9 67
-7 10 -9 10 -10 -2z"/>
<path d="M1355 4121 c-1 -32 3 -39 20 -39 86 -4 117 0 105 12 -5 5 -10 20 -10
33 0 13 -4 23 -10 23 -5 0 -10 -11 -10 -25 0 -53 -65 -50 -72 4 -5 40 -23 34
-23 -8z"/>
<path d="M1394 4146 c-9 -24 4 -48 23 -44 12 2 18 12 18 28 0 29 -32 41 -41
16z"/>
<path d="M1484 4146 c-9 -24 4 -48 23 -44 12 2 18 12 18 28 0 29 -32 41 -41
16z"/>
<path d="M1574 4145 c-9 -21 3 -45 21 -45 10 0 15 10 15 30 0 32 -26 43 -36
15z"/>
<path d="M1638 4154 c-5 -4 -8 -22 -8 -40 0 -18 -4 -36 -10 -39 -5 -3 -10 -2
-10 4 0 5 -10 11 -22 13 -17 2 -24 11 -26 31 -4 30 -22 37 -22 8 0 -11 -3 -27
-6 -35 -4 -12 -2 -15 9 -10 8 3 18 1 22 -5 3 -6 15 -11 26 -11 10 0 19 -5 19
-12 0 -7 9 -3 21 8 15 15 20 31 17 58 -2 21 -6 34 -10 30z"/>
<path d="M1914 4133 c-5 -19 -2 -30 12 -40 17 -13 19 -12 22 12 7 54 -22 77
-34 28z"/>
<path d="M2044 4146 c-9 -24 4 -48 23 -44 12 2 18 12 18 28 0 29 -32 41 -41
16z"/>
<path d="M2100 4127 c0 -13 -6 -29 -12 -36 -11 -11 -10 -13 5 -7 10 3 21 6 23
6 2 0 4 14 4 30 0 17 -4 30 -10 30 -5 0 -10 -10 -10 -23z"/>
<path d="M565 3975 c9 -22 9 -35 2 -77 -4 -27 -4 -27 24 -13 18 10 30 11 34 5
3 -6 14 -10 23 -10 13 0 11 4 -7 16 -19 14 -22 23 -18 53 4 29 1 37 -12 37
-12 0 -16 -10 -16 -40 0 -21 -5 -41 -12 -43 -9 -3 -9 3 0 26 10 27 9 33 -7 48
-18 17 -19 17 -11 -2z"/>
<path d="M642 3978 c-16 -16 -15 -53 2 -67 11 -9 12 -7 9 13 -3 13 0 33 6 45
13 23 2 28 -17 9z"/>
<path d="M0 245 l0 -245 945 0 c623 0 945 3 945 10 0 6 92 10 255 10 163 0
255 -4 255 -10 0 -7 232 -10 675 -10 443 0 675 3 675 10 0 6 92 10 255 10 163
0 255 -4 255 -10 0 -7 2487 -10 7440 -10 l7440 0 3 238 2 237 3 -237 c2 -231
3 -238 22 -238 19 0 20 7 20 245 l0 245 -9595 0 -9595 0 0 -245z m18000 110
c0 -30 -4 -55 -10 -55 -5 0 -10 18 -10 40 0 31 -4 40 -17 40 -16 1 -16 2 1 15
31 24 36 18 36 -40z m73 45 c-28 -11 -30 -30 -4 -30 11 0 23 -9 26 -20 3 -11
11 -20 16 -20 5 0 9 -5 9 -11 0 -5 -4 -8 -10 -4 -5 3 -18 0 -28 -6 -41 -26
-68 15 -49 74 7 21 15 27 35 26 26 0 26 -1 5 -9z m125 -14 c4 -19 -13 -36 -37
-36 -11 0 -10 4 4 13 20 15 12 42 -11 33 -8 -3 -14 -1 -14 5 0 19 55 5 58 -15z
m65 17 c-29 -5 -30 -29 -2 -36 16 -4 20 -12 17 -34 -2 -22 -9 -29 -30 -31 -16
-2 -28 1 -28 6 0 6 9 8 20 5 16 -4 20 0 20 21 0 19 -5 26 -20 26 -15 0 -20 7
-20 25 0 22 4 25 33 24 23 -1 26 -3 10 -6z m-855 -10 c-36 -5 -40 -42 -5 -44
l22 -2 -22 -4 c-34 -6 -30 -41 5 -46 22 -3 20 -4 -10 -6 l-38 -1 0 55 0 55 38
-1 c30 -2 32 -3 10 -6z m92 -2 c0 -5 -9 -7 -20 -4 -28 7 -25 -15 6 -44 21 -19
24 -26 14 -38 -14 -16 -60 -21 -60 -6 0 5 8 7 19 4 30 -8 34 14 6 33 -24 16
-33 43 -18 57 10 10 53 8 53 -2z m85 -11 c7 -23 -10 -50 -31 -50 -8 0 -14 -9
-14 -20 0 -11 -4 -20 -10 -20 -5 0 -10 25 -10 55 0 54 0 55 29 55 21 0 32 -6
36 -20z m-14703 -72 c1 -46 1 -92 0 -103 -1 -11 -2 -35 -3 -52 l-1 -33 -134 0
-134 0 0 98 c0 154 18 172 173 172 l97 0 2 -82z m613 58 c19 -14 19 -14 0 -36
-16 -17 -17 -24 -7 -40 23 -37 14 -80 -22 -116 -19 -19 -43 -34 -55 -34 -12 0
-21 -4 -21 -10 0 -5 -10 -8 -22 -6 -13 3 -34 5 -47 5 -21 1 -23 5 -17 31 6 34
0 37 -30 15 -27 -18 -34 -11 -34 33 0 74 84 138 172 130 40 -4 49 -2 47 11 -3
36 5 40 36 17z m525 -5 c0 -6 -15 -11 -32 -13 -25 -2 -33 -8 -33 -22 0 -11 -6
-21 -13 -24 -6 -2 -12 4 -12 13 0 9 -4 13 -10 10 -5 -3 -10 -2 -10 3 0 11 66
41 93 41 9 1 17 -3 17 -8z m11760 -26 c0 -19 5 -35 10 -35 6 0 10 -27 10 -60
0 -33 -4 -60 -10 -60 -5 0 -10 -13 -10 -30 l0 -30 -310 0 -310 0 0 125 0 125
310 0 310 0 0 -35z m-13665 15 c3 -5 40 -10 81 -10 l74 0 0 -100 0 -100 -27
-1 c-77 -3 -225 1 -233 6 -6 3 -10 53 -10 111 l0 104 54 0 c30 0 58 -4 61 -10z
m16083 -22 c-2 -17 -11 -24 -30 -26 -16 -2 -28 1 -28 6 0 6 9 8 20 5 15 -4 20
0 20 16 0 11 5 21 11 21 6 0 9 -10 7 -22z m-17798 -33 l0 -45 -55 0 -55 0 0
39 c0 42 5 45 83 50 26 1 27 -1 27 -44z m580 25 c26 -26 26 -74 -1 -101 -16
-16 -30 -20 -57 -16 -32 4 -42 -1 -74 -31 -49 -46 -62 -33 -16 16 30 31 35 42
31 72 -9 67 70 107 117 60z m485 -10 c43 0 54 4 58 18 4 13 5 11 6 -5 1 -22
-3 -23 -64 -23 -61 0 -65 1 -64 23 1 16 2 18 6 5 4 -14 15 -18 58 -18z m17424
-30 c-1 -32 -5 -57 -8 -55 -4 2 -40 0 -81 -4 -74 -8 -74 -8 -20 -10 41 -1 51
-4 38 -11 -9 -6 -19 -24 -23 -41 -7 -30 -7 -30 -22 -10 -10 14 -25 21 -49 21
l-34 0 0 85 0 85 101 0 100 0 -2 -60z m-18609 10 l0 -40 -41 0 c-39 0 -40 1
-37 33 3 28 7 33 38 38 19 4 36 7 38 8 1 0 2 -17 2 -39z m3846 -7 c18 -71 -26
-155 -88 -168 -38 -9 -43 -3 -24 33 l15 29 -32 1 c-56 1 -85 62 -52 109 13 19
24 21 95 20 76 0 81 -2 86 -24z m12718 11 c-50 -18 -78 -47 -99 -99 l-15 -40
5 35 c3 19 13 46 23 60 21 29 78 60 107 59 12 0 3 -7 -21 -15z m221 -123 c-4
-3 -12 2 -19 12 -7 9 -21 17 -30 17 -12 0 -16 10 -16 40 0 30 4 40 16 40 8 0
23 8 32 17 16 16 17 12 20 -51 2 -38 0 -71 -3 -75z m-15536 47 c-1 -40 -3 -65
-6 -55 -4 13 -15 17 -58 17 -43 0 -54 -4 -58 -17 -4 -14 -5 -12 -6 5 -1 20 4
22 62 24 l62 2 -62 3 -63 4 0 44 0 45 65 0 65 0 -1 -72z m14715 32 c48 -49 39
-67 -9 -20 l-35 34 -35 -34 c-48 -47 -58 -29 -10 20 22 22 42 40 45 40 3 0 23
-18 44 -40z m349 13 c3 -16 3 -40 0 -55 l-5 -28 -89 0 -89 0 0 55 0 55 89 0
89 0 5 -27z m562 7 c22 18 32 3 12 -17 -15 -15 -15 -17 1 -29 9 -7 14 -16 9
-20 -9 -10 -78 56 -71 68 3 5 12 4 20 -3 11 -9 18 -9 29 1z m-296 -13 c-38
-17 -60 -38 -76 -72 l-14 -30 6 30 c7 34 31 64 60 76 31 12 53 9 24 -4z
m-16579 -60 l0 -43 -40 4 c-39 4 -40 5 -40 43 0 39 0 39 40 39 l40 0 0 -43z
m120 -8 l0 -52 -37 7 c-21 3 -46 6 -55 6 -15 0 -18 9 -18 45 l0 45 55 0 55 0
0 -51z m16466 28 c-10 -7 -27 -24 -37 -38 -15 -20 -19 -21 -19 -6 0 22 35 57
57 57 15 0 15 -1 -1 -13z m2042 -46 c-1 -14 1 -32 6 -39 4 -7 2 -19 -4 -27
-14 -17 -60 -20 -60 -5 0 6 9 10 20 10 25 0 26 15 3 25 -17 6 -17 7 0 16 21
12 23 33 2 25 -8 -3 -23 -2 -32 1 -14 6 -12 9 12 19 39 16 57 7 53 -25z
m-1538 -41 c0 -46 2 -50 23 -50 19 0 26 9 38 48 8 26 21 47 29 47 7 0 20 -19
28 -42 7 -24 17 -43 22 -43 5 0 15 19 23 43 7 23 19 42 26 42 7 0 21 -22 32
-49 19 -52 17 -74 -5 -43 -16 21 -42 22 -50 2 -3 -8 -14 -15 -25 -15 -10 0
-21 7 -25 15 -3 8 -15 15 -26 15 -11 0 -23 -7 -26 -15 -4 -10 -20 -15 -45 -15
l-39 0 0 55 c0 30 5 55 10 55 6 0 10 -22 10 -50z m520 29 c13 -23 5 -70 -13
-81 -7 -4 -21 -7 -32 -7 -18 0 -18 1 3 9 25 10 30 30 7 30 -21 0 -35 31 -24
52 13 24 46 23 59 -3z m67 9 c-2 -7 -13 -37 -23 -65 -10 -29 -22 -53 -26 -53
-12 0 -10 9 14 72 13 32 27 58 32 58 4 0 6 -6 3 -12z m73 -8 c12 -22 3 -71
-14 -82 -6 -4 -20 -7 -31 -7 -18 0 -18 1 3 9 27 11 29 30 3 30 -22 0 -35 38
-19 57 16 19 46 16 58 -7z m67 8 c-3 -7 -14 -37 -23 -65 -10 -29 -22 -53 -27
-53 -5 0 -7 6 -5 13 3 6 13 36 22 65 10 28 22 52 28 52 5 0 7 -6 5 -12z m71
-14 c2 -11 -6 -28 -18 -39 -27 -24 -25 -33 8 -38 19 -3 14 -4 -16 -6 -38 -1
-42 1 -33 17 5 10 17 24 25 32 9 7 16 21 16 32 0 15 -5 19 -20 15 -11 -3 -20
-1 -20 5 0 5 12 8 28 6 18 -2 28 -9 30 -24z m84 1 c17 -38 0 -80 -32 -80 -31
0 -46 38 -31 78 14 35 47 36 63 2z m68 -30 c0 -30 -4 -55 -10 -55 -5 0 -10 18
-10 40 0 31 -4 40 -17 40 -16 1 -16 2 1 15 31 24 36 18 36 -40z m86 25 c0 -14
4 -31 8 -38 13 -21 -1 -42 -27 -42 -31 0 -55 26 -39 42 6 6 8 17 5 24 -9 24 6
46 29 42 17 -2 23 -10 24 -28z"/>
<path d="M18047 347 c-3 -8 -1 -20 4 -28 11 -19 34 3 26 25 -8 20 -23 21 -30
3z"/>
<path d="M17540 365 c0 -17 5 -25 13 -22 6 2 12 12 12 22 0 10 -6 20 -12 23
-8 2 -13 -6 -13 -23z"/>
<path d="M2657 303 c13 -86 19 -108 35 -111 11 -2 18 7 22 32 10 51 25 53 32
6 9 -58 35 -50 51 15 7 28 15 60 18 73 4 18 1 22 -20 22 -24 0 -25 -2 -19 -40
8 -52 -11 -54 -23 -2 -12 49 -36 49 -43 -1 -7 -49 -23 -48 -33 2 -10 51 -28
54 -20 4z"/>
<path d="M15192 243 l3 -98 278 -3 277 -2 0 100 0 100 -280 0 -281 0 3 -97z
m173 32 c0 -16 3 -34 6 -40 4 -5 3 -20 -2 -32 -6 -17 -16 -23 -38 -23 -16 0
-33 5 -37 11 -5 9 1 10 21 5 19 -5 31 -3 36 6 10 15 -8 38 -30 39 -10 0 -8 3
7 10 31 12 25 45 -6 42 -14 -2 -21 1 -17 8 4 5 19 9 33 7 23 -2 27 -8 27 -33z
m104 21 c18 -21 10 -97 -11 -110 -29 -18 -53 4 -56 53 -2 23 2 49 9 57 15 18
43 18 58 0z m85 -2 c8 -22 -12 -56 -32 -52 -18 3 -27 30 -18 54 7 19 42 18 50
-2z m42 -9 c-21 -31 -20 -33 7 -37 29 -4 32 -61 3 -66 -24 -5 -38 16 -31 48 5
21 1 18 -20 -13 -15 -21 -29 -37 -31 -34 -7 6 69 127 80 127 4 0 1 -11 -8 -25z"/>
<path d="M15421 277 c-12 -31 0 -82 20 -82 10 0 14 13 14 49 0 55 -19 73 -34
33z"/>
<path d="M15514 285 c-3 -8 -3 -19 1 -25 11 -18 25 -11 25 15 0 27 -17 34 -26
10z"/>
<path d="M15590 215 c0 -17 5 -25 13 -22 6 2 12 12 12 22 0 10 -6 20 -12 23
-8 2 -13 -6 -13 -23z"/>
<path d="M890 310 c-11 -11 -20 -29 -20 -40 0 -26 34 -60 60 -60 26 0 60 34
60 60 0 11 -9 29 -20 40 -11 11 -29 20 -40 20 -11 0 -29 -9 -40 -20z"/>
<path d="M18758 293 c17 -2 47 -2 65 0 17 2 3 4 -33 4 -36 0 -50 -2 -32 -4z"/>
<path d="M18758 253 c17 -2 47 -2 65 0 17 2 3 4 -33 4 -36 0 -50 -2 -32 -4z"/>
<path d="M17028 273 c-19 -5 -27 -63 -9 -63 5 0 16 -3 25 -6 13 -5 16 2 16 35
0 23 -3 40 -7 40 -5 -1 -16 -3 -25 -6z"/>
<path d="M1410 245 l0 -35 55 0 55 0 0 35 0 35 -55 0 -55 0 0 -35z"/>
<path d="M16420 235 l0 -45 80 0 80 0 0 45 0 45 -80 0 -80 0 0 -45z m50 0 c0
-28 -4 -35 -20 -35 -16 0 -20 7 -20 35 0 28 4 35 20 35 16 0 20 -7 20 -35z"/>
<path d="M17843 154 c-8 -20 13 -42 27 -28 12 12 3 44 -11 44 -5 0 -12 -7 -16
-16z"/>
<path d="M17983 154 c-8 -20 13 -42 27 -28 12 12 3 44 -11 44 -5 0 -12 -7 -16
-16z"/>
<path d="M18204 146 c-7 -28 3 -66 16 -66 13 0 23 45 15 69 -9 28 -23 26 -31
-3z"/>
<path d="M18367 105 c-8 -18 11 -31 25 -17 11 11 3 32 -12 32 -4 0 -10 -7 -13
-15z"/>
</g>
</svg>
