<?xml version="1.0" standalone="no"?>
<!DOCTYPE svg PUBLIC "-//W3C//DTD SVG 20010904//EN"
 "http://www.w3.org/TR/2001/REC-SVG-20010904/DTD/svg10.dtd">
<svg version="1.0" xmlns="http://www.w3.org/2000/svg"
 width="1920.000000pt" height="1080.000000pt" viewBox="0 0 1920.000000 1080.000000"
 preserveAspectRatio="xMidYMid meet">
<metadata>
Created by potrace 1.15, written by Peter Selinger 2001-2017
</metadata>
<g transform="translate(0.000000,1080.000000) scale(0.100000,-0.100000)"
fill="#000000" stroke="none">
<path d="M0 10191 l0 -609 93 -4 c81 -3 96 -6 127 -30 19 -14 51 -28 70 -30
l35 -3 -1 -57 c0 -32 3 -55 8 -52 4 3 8 -2 8 -10 0 -9 -4 -16 -8 -16 -4 0 -7
-15 -7 -32 3 -52 4 -58 15 -58 7 0 7 6 0 19 -7 14 -7 22 2 27 7 4 8 3 4 -5 -6
-8 6 -10 43 -6 28 2 51 1 51 -4 0 -5 -4 -11 -9 -13 -5 -1 -2 -10 7 -18 14 -13
15 -12 10 2 -4 10 2 19 18 27 18 8 23 8 18 0 -4 -8 1 -9 17 -5 13 3 18 3 11 0
-6 -3 -12 -13 -12 -22 0 -12 4 -10 17 8 11 16 18 46 19 86 1 34 5 67 8 73 4 6
4 11 -1 10 -21 -4 -33 2 -33 16 0 8 5 15 11 15 5 0 7 -4 4 -10 -3 -5 -1 -10 4
-10 6 0 11 6 11 14 0 8 4 17 9 20 5 4 7 -3 4 -14 -3 -12 0 -20 6 -20 7 0 9 -5
5 -12 -5 -8 2 -9 24 -5 19 4 32 2 32 -3 0 -6 3 -9 8 -7 10 3 12 -6 12 -58 0
-32 -4 -45 -14 -45 -8 0 -17 -7 -20 -16 -5 -12 -2 -15 9 -10 9 3 14 2 10 -3
-8 -14 4 -38 21 -38 10 0 14 11 13 41 -4 96 1 136 16 136 13 0 15 -11 13 -57
-2 -40 -7 -57 -15 -56 -7 2 -13 -2 -13 -7 0 -6 4 -10 9 -10 4 0 6 -11 4 -23
-3 -13 2 -30 10 -38 11 -12 12 -19 3 -30 -6 -9 -16 -14 -22 -12 -6 2 -11 -3
-11 -12 0 -8 6 -15 14 -15 10 0 13 -20 13 -80 0 -77 -3 -86 -32 -81 -5 0 -8
-17 -8 -39 l0 -40 -40 0 -40 0 0 40 c0 40 0 40 -39 40 -39 0 -40 1 -44 38 -2
20 -1 3 2 -38 3 -41 4 -128 3 -192 l-4 -118 40 0 c38 0 41 2 45 33 2 17 3 11
2 -15 l-2 -48 66 0 c60 0 64 -1 41 -13 -14 -7 -27 -10 -30 -7 -8 11 -41 7 -37
-4 2 -7 45 -12 112 -14 l108 -3 -7 23 c-4 13 -9 44 -13 71 l-6 47 42 0 c40 0
41 -1 41 -34 0 -21 -6 -36 -15 -40 -8 -3 -12 -12 -9 -20 3 -8 1 -17 -5 -21
-12 -7 -15 -35 -3 -35 19 1 33 20 34 48 1 26 5 32 22 32 16 0 22 -7 24 -27 3
-34 22 -56 22 -25 0 12 3 22 8 22 4 0 5 40 4 90 l-4 90 41 0 41 0 0 80 0 80
39 0 38 0 5 -107 c3 -60 4 -132 1 -160 l-6 -53 -38 0 c-22 0 -39 -4 -39 -10 0
-5 18 -10 40 -10 22 0 40 -4 40 -9 0 -12 -20 -18 -52 -16 -16 1 -28 -2 -28 -7
0 -4 17 -8 38 -9 20 0 45 -2 54 -4 27 -5 43 21 21 34 -14 7 -3 10 44 8 76 -2
106 17 44 28 l-41 7 0 74 0 74 35 0 35 0 0 120 0 120 85 0 85 0 0 34 c0 31 -3
34 -38 43 -21 5 -56 8 -79 6 -35 -3 -41 -1 -46 18 -6 22 -8 22 -118 16 -62 -4
-113 -8 -114 -9 -2 -2 0 -27 2 -55 l6 -53 73 0 73 0 4 38 4 37 -1 -40 -1 -40
-82 -3 -83 -3 0 38 c0 52 -10 83 -25 83 -7 0 -15 16 -18 38 -3 28 0 42 15 57
15 16 18 16 13 3 -6 -14 -1 -16 27 -12 18 3 39 7 46 9 7 3 6 -5 -5 -22 -16
-24 -16 -26 -2 -21 9 4 22 1 28 -5 15 -15 14 6 -1 22 -11 11 -10 12 1 6 11 -6
13 -4 8 8 -4 11 -2 14 9 10 10 -3 11 -9 5 -17 -5 -6 -7 -16 -3 -22 9 -13 45
-13 54 1 5 7 8 7 8 0 0 -6 11 -11 25 -11 14 0 25 4 25 9 0 5 -7 7 -15 3 -8 -3
-15 -3 -15 0 0 2 10 9 23 14 21 8 21 9 2 9 -12 1 -27 -5 -34 -11 -11 -11 -13
-10 -9 2 3 8 -2 20 -11 27 -13 10 -14 11 -1 10 8 -2 21 -6 27 -10 7 -5 31 -9
54 -10 48 -2 70 20 64 63 -2 22 0 27 11 23 9 -3 14 1 14 12 0 10 -5 14 -12 9
-10 -5 -10 -4 -1 6 10 11 8 17 -9 32 -12 10 -25 18 -29 18 -4 0 -15 3 -25 7
-12 4 -15 3 -10 -6 4 -6 3 -10 -4 -9 -7 2 -16 -7 -20 -19 -8 -20 -7 -21 14
-13 32 12 57 -16 54 -58 -1 -17 -4 -29 -6 -27 -2 2 -17 -1 -33 -5 -18 -5 -31
-5 -35 2 -4 6 -10 5 -16 -3 -7 -11 -9 -11 -7 1 4 43 -2 71 -13 64 -10 -6 -10
-4 -2 7 6 8 14 25 17 39 5 22 5 23 -7 8 -19 -26 -27 -10 -9 18 15 23 14 24 -3
18 -18 -5 -18 -5 -1 6 10 6 27 8 40 4 12 -5 30 -8 39 -9 9 0 19 -3 23 -7 4 -4
14 -4 23 -1 15 4 15 3 2 -6 -12 -9 -11 -11 9 -11 16 0 22 4 17 15 -3 9 0 15 9
15 12 0 15 -15 15 -70 0 -54 -3 -70 -14 -70 -10 0 -13 -8 -11 -27 2 -16 2 -22
-1 -16 -8 19 -35 -12 -28 -31 8 -21 21 -20 33 2 10 16 10 16 11 0 0 -10 5 -18
10 -18 6 0 10 16 10 35 0 29 4 35 21 35 17 0 20 -4 15 -22 -3 -13 -6 -27 -7
-33 -1 -5 -5 4 -9 20 l-8 30 -1 -32 c-1 -26 3 -33 18 -33 10 0 21 -9 24 -20 5
-18 14 -20 76 -20 68 0 72 -1 81 -26 6 -14 10 -41 10 -60 l0 -34 75 0 75 0 0
60 0 60 239 0 c173 -1 241 -4 243 -12 3 -9 13 -9 39 -1 l34 11 -38 1 c-26 1
-37 5 -34 14 5 13 56 11 71 -4 6 -5 23 -9 38 -9 26 0 34 12 29 44 -1 5 5 6 14
2 9 -3 14 -2 11 2 -3 5 8 9 24 9 16 0 27 -4 24 -9 -3 -4 0 -8 5 -8 6 0 11 4
11 8 0 4 9 8 20 9 11 1 18 -2 15 -7 -3 -6 1 -7 10 -4 22 9 12 16 -27 20 -18 2
-39 12 -48 21 -13 14 -13 15 0 6 8 -6 34 -13 57 -17 33 -5 44 -3 51 10 7 13
11 14 17 4 4 -7 2 -16 -6 -21 -11 -7 -10 -9 4 -9 9 0 17 6 17 14 0 8 7 17 16
20 24 9 27 7 10 -10 -9 -8 -16 -23 -15 -32 0 -12 3 -11 9 6 6 13 18 22 30 22
12 0 18 5 15 10 -10 17 0 11 17 -10 17 -19 16 -19 -11 -14 -31 6 -51 -10 -25
-20 10 -4 13 -2 8 6 -5 8 0 9 15 5 27 -7 53 1 45 14 -10 16 8 9 23 -8 8 -10
12 -12 8 -5 -9 17 11 15 29 -4 13 -12 16 -13 16 -2 0 8 -10 19 -22 24 -13 6
-18 9 -12 8 6 -1 17 3 24 9 10 9 11 9 6 0 -5 -9 2 -13 24 -13 21 0 29 4 24 12
-4 6 3 4 17 -5 28 -20 53 -23 43 -4 -5 9 -4 9 6 0 10 -9 10 -16 2 -26 -9 -10
-8 -14 3 -14 7 0 14 3 13 6 -2 21 4 22 18 5 14 -18 15 -18 4 4 -12 24 -6 42
13 42 7 0 6 -4 -3 -10 -13 -8 -12 -10 3 -10 10 0 15 -4 12 -10 -11 -18 10 -11
34 11 17 17 20 24 10 35 -8 9 -10 32 -6 65 7 55 0 109 -14 109 -5 0 -9 -41 -9
-91 l0 -91 -52 4 c-48 3 -53 1 -51 -17 1 -19 1 -19 -11 -2 -9 11 -27 17 -50
17 -23 0 -39 5 -42 15 -4 8 -10 15 -15 15 -5 0 -9 -7 -9 -15 0 -19 -70 -21
-88 -3 -30 30 -2 114 34 102 18 -6 18 -6 0 8 -14 11 -16 17 -6 23 10 6 10 9
-1 15 -8 5 -13 31 -14 64 0 31 2 52 5 48 9 -15 51 -9 45 6 -3 7 -5 16 -5 18 0
2 -7 4 -15 4 -12 0 -15 13 -15 55 0 42 3 55 15 55 11 0 15 -12 15 -49 0 -28 5
-53 10 -56 6 -4 7 -11 4 -17 -4 -7 -2 -8 4 -4 8 4 10 2 6 -7 -7 -20 15 -32 29
-18 9 9 7 10 -7 5 -14 -5 -17 -4 -12 5 5 7 14 10 20 8 7 -3 19 -1 27 4 8 5 10
9 4 10 -17 1 -46 7 -58 12 -8 3 -11 23 -9 56 l4 52 46 -3 47 -3 3 -54 c3 -50
2 -53 -17 -48 -14 3 -19 1 -14 -6 13 -21 11 -36 -3 -30 -8 3 -14 1 -14 -5 0
-6 8 -9 18 -7 9 2 21 4 25 4 5 1 5 5 2 11 -4 6 1 7 11 3 12 -4 15 -3 10 5 -4
7 -3 12 2 12 5 0 12 -10 15 -22 5 -19 22 -19 22 0 0 4 4 13 8 20 6 8 2 12 -12
12 -13 0 -22 8 -25 23 -10 46 -13 78 -8 73 2 -3 14 1 24 9 11 7 26 11 33 9 9
-4 12 4 11 25 -1 17 0 31 3 31 22 -1 30 -24 33 -96 3 -80 3 -80 -21 -76 -18 4
-22 2 -16 -8 5 -8 4 -11 -3 -6 -6 3 -13 2 -17 -4 -3 -5 0 -10 7 -10 10 0 10
-2 0 -9 -11 -6 -6 -16 20 -40 29 -28 39 -32 79 -29 34 2 45 0 42 -9 -4 -9 7
-13 34 -13 32 0 39 4 39 19 0 11 -3 18 -7 15 -4 -2 -16 4 -27 14 -20 16 -20
18 -2 35 13 14 20 15 26 6 4 -8 3 -10 -4 -5 -7 4 -12 3 -12 -2 0 -18 33 -23
43 -7 6 12 17 15 33 11 30 -8 31 2 2 13 -16 6 -26 4 -34 -7 -9 -13 -12 -13
-17 1 -3 9 -2 19 3 22 5 3 2 14 -7 25 -9 10 -18 27 -19 36 -2 10 -5 28 -9 41
-4 16 -1 23 9 23 8 0 17 -16 21 -37 l8 -38 10 38 c11 46 39 47 48 2 5 -24 7
-27 13 -12 5 9 6 23 3 30 -3 8 4 14 18 15 22 2 22 1 8 -40 -14 -42 -12 -68 6
-68 6 0 8 6 5 13 -3 8 2 14 10 14 8 0 13 -4 10 -9 -7 -10 7 -10 25 1 17 11 4
34 -15 27 -15 -6 -30 36 -19 53 8 14 65 14 65 0 0 -5 -10 -9 -22 -7 -27 4 -35
-18 -9 -27 32 -10 47 -34 30 -49 -17 -17 -87 -28 -94 -16 -3 6 -15 6 -29 0
-20 -7 -23 -6 -19 10 3 10 1 26 -5 36 -8 15 -11 13 -17 -14 -8 -38 1 -55 26
-49 12 3 17 1 12 -6 -4 -7 0 -8 12 -4 9 4 24 2 32 -5 22 -18 65 -16 92 4 18
13 27 15 37 7 10 -8 13 -6 11 9 -1 13 -6 18 -17 14 -12 -5 -13 -3 -4 9 7 8 8
23 4 34 -4 11 -5 26 -3 33 3 6 0 12 -6 12 -6 0 -11 6 -11 14 0 18 -22 26 -76
26 -24 0 -44 1 -45 3 0 1 -2 31 -3 67 -2 36 -1 48 1 27 2 -20 8 -35 13 -32 5
3 11 1 15 -5 3 -6 -1 -13 -9 -16 -27 -10 -17 -19 24 -21 l40 -3 0 100 0 100
-45 0 -45 0 0 40 c0 39 -1 40 -35 40 -33 0 -35 2 -35 35 0 34 -1 35 -40 35
-39 0 -40 -1 -40 -35 0 -34 -1 -35 -40 -35 l-40 0 -2 -82 c-1 -46 -3 -64 -5
-40 -4 41 -5 42 -39 42 -33 0 -34 1 -34 39 0 22 -4 43 -10 46 -6 4 -10 -12
-10 -39 0 -43 -2 -46 -26 -46 -26 0 -27 1 -21 56 3 31 2 67 -3 80 -9 24 -9 24
64 24 l73 0 7 133 c4 74 5 162 3 198 -3 35 -2 47 0 27 4 -37 5 -38 44 -36 l39
1 0 84 0 83 -40 0 c-22 0 -40 -5 -40 -11 0 -7 -16 -10 -43 -8 -40 4 -43 2 -39
-18 5 -27 -29 -39 -88 -29 -32 5 -40 3 -40 -9 0 -15 10 -19 40 -16 10 1 8 -2
-5 -10 -19 -12 -19 -12 0 -20 17 -7 18 -8 3 -8 -10 -1 -18 -9 -18 -18 0 -15 2
-16 10 -3 5 8 12 12 15 8 3 -3 -1 -13 -10 -21 -13 -13 -15 -53 -15 -262 0
-162 3 -244 10 -240 6 3 10 1 10 -4 0 -6 -4 -11 -9 -11 -5 0 -18 -3 -28 -6
-13 -4 -14 -3 -5 4 11 7 11 10 -1 15 -9 3 -18 -1 -21 -9 -3 -8 -17 -13 -33
-13 l-28 1 30 7 30 6 -41 13 c-23 6 -44 12 -48 12 -8 0 -7 -43 2 -55 7 -11 92
-14 92 -4 0 3 11 4 25 1 48 -9 24 -17 -50 -17 -60 0 -75 3 -75 15 0 9 -3 11
-8 4 -9 -14 -45 -27 -37 -14 4 6 -8 10 -27 11 -26 0 -29 2 -14 8 20 8 20 8 0
13 -10 3 -27 9 -36 13 -15 6 -18 2 -16 -19 3 -29 12 -35 51 -31 22 3 26 0 18
-9 -11 -14 -71 -9 -71 5 0 5 -8 6 -17 3 -17 -5 -17 -5 0 6 23 15 13 30 -21 31
-27 1 -27 1 3 8 l30 7 -39 17 c-45 20 -46 20 -46 7 0 -5 8 -10 18 -11 14 0 14
-2 -3 -9 -12 -5 -14 -9 -6 -9 8 -1 11 -4 7 -8 -12 -12 -97 -10 -92 2 2 6 10 9
17 7 13 -3 -7 18 -61 63 -13 11 -20 14 -16 8 4 -8 1 -13 -9 -13 -9 0 -15 6
-14 13 1 6 1 130 0 275 l-1 262 -40 0 c-22 0 -40 -4 -40 -10 0 -5 -20 -10 -45
-10 l-45 0 0 40 c0 27 -4 39 -12 38 -8 -2 -14 10 -16 30 -2 23 -8 32 -22 32
-21 0 -30 19 -30 66 l0 34 -995 0 -995 0 0 -609z m995 489 c12 -1 15 -4 7 -7
-10 -4 -9 -9 4 -24 9 -10 21 -16 26 -13 4 3 7 1 6 -4 -2 -5 16 -30 40 -55 l42
-46 0 -240 c0 -212 2 -241 16 -241 8 0 12 -5 9 -10 -4 -6 -11 -8 -16 -5 -7 5
-13 -32 -11 -65 0 -3 -123 -4 -273 -2 -256 3 -274 2 -277 -15 -3 -10 -5 13 -6
51 -1 38 -4 71 -5 72 -2 2 -30 4 -62 6 l-60 3 -3 243 -2 242 65 0 65 0 0 53
c0 30 3 57 7 61 6 6 367 3 428 -4z m251 -852 c5 -7 2 -9 -7 -6 -10 4 -15 -1
-16 -13 -1 -13 5 -19 19 -19 14 0 18 -5 14 -15 -3 -10 1 -15 12 -16 15 0 15
-1 1 -7 -21 -9 -21 -87 1 -87 10 0 16 11 18 33 1 17 3 38 4 46 1 9 16 13 49
13 44 0 47 -1 53 -30 9 -42 -16 -77 -54 -77 -17 0 -30 -5 -30 -12 0 -7 -5 -5
-11 5 -6 10 -15 14 -22 10 -15 -9 -46 -12 -45 -4 0 3 0 26 -1 52 -1 44 -1 45
-36 45 -27 0 -32 -3 -23 -13 8 -11 7 -12 -8 -8 -10 4 -7 -1 8 -10 36 -20 54
-53 38 -69 -8 -8 -9 -6 -4 9 6 16 5 18 -7 8 -16 -15 -65 -17 -74 -3 -6 9 14
14 43 11 6 -1 12 3 12 9 0 9 -14 14 -32 11 -4 0 -10 10 -14 24 -3 14 -10 25
-14 25 -5 0 -6 -9 -3 -20 4 -14 0 -20 -11 -20 -10 0 -14 -5 -10 -11 5 -8 1 -8
-14 0 -33 18 -44 14 -32 -10 9 -16 18 -19 36 -15 13 4 24 2 24 -3 0 -5 -18
-11 -39 -13 -22 -2 -37 0 -35 4 2 3 0 9 -6 13 -14 9 -12 71 3 83 6 6 51 10 99
9 48 0 90 2 94 6 8 7 -5 29 -14 23 -6 -3 -8 36 -3 52 3 7 31 0 37 -10z m908
-15 c4 -10 4 -14 0 -10 -7 7 -33 -21 -34 -35 0 -5 8 -9 18 -9 16 -1 16 -2 -1
-6 -14 -4 -17 -13 -15 -45 1 -23 8 -42 16 -45 7 -3 11 -12 8 -19 -3 -8 2 -14
12 -15 12 0 13 -2 3 -6 -11 -5 -11 -7 0 -14 10 -6 8 -8 -8 -7 -12 1 -19 7 -16
14 3 7 -5 21 -16 31 -15 13 -21 29 -21 60 0 24 -5 43 -11 43 -5 0 -7 -5 -3
-12 4 -6 3 -8 -3 -5 -15 10 -9 -58 7 -79 14 -18 14 -18 -7 -1 -14 12 -23 15
-28 8 -3 -6 -17 -11 -31 -11 -19 0 -24 -5 -24 -26 0 -19 -4 -25 -17 -22 -15 3
-18 13 -15 67 2 36 -2 68 -8 76 -9 11 0 13 52 13 85 0 88 0 88 13 0 5 -4 8 -9
5 -5 -4 -8 1 -7 9 3 18 16 32 16 17 0 -7 8 -12 18 -11 10 0 12 3 5 6 -7 2 -13
9 -13 14 0 4 7 6 15 3 8 -4 15 -1 15 5 0 16 7 13 14 -6z m391 -90 l8 -38 10
38 c11 46 39 47 48 2 5 -24 7 -27 13 -12 5 9 6 24 2 32 -4 10 1 15 15 15 18 0
20 -4 14 -32 -13 -56 -23 -75 -43 -80 -15 -4 -18 -1 -15 12 3 10 1 26 -5 36
-8 15 -11 13 -17 -14 -4 -22 -12 -32 -25 -32 -18 0 -21 -15 -7 -37 11 -18 28
-16 21 1 -7 18 12 30 22 15 4 -8 3 -9 -4 -5 -7 4 -12 2 -12 -3 0 -6 8 -11 18
-11 14 0 15 -2 2 -10 -8 -5 -11 -12 -7 -16 3 -4 13 -1 22 6 11 9 12 16 5 25
-8 10 -8 15 1 21 8 5 9 3 4 -6 -6 -9 -4 -12 7 -8 11 5 15 -4 17 -45 1 -28 7
-57 12 -64 11 -12 4 -33 -11 -33 -4 0 -10 7 -13 14 -4 11 -1 13 10 9 10 -4 14
-2 10 4 -4 6 -18 11 -31 11 -22 0 -23 -2 -10 -15 7 -8 14 -20 14 -26 0 -9 -2
-9 -8 0 -4 7 -16 12 -27 12 -54 1 -74 4 -69 13 3 5 7 31 8 58 1 43 -2 50 -25
64 -21 13 -28 13 -32 4 -4 -10 -8 -10 -16 2 -7 10 -7 18 1 27 5 7 8 19 5 27
-3 8 0 22 8 32 12 18 14 17 26 -11 8 -17 17 -33 22 -36 5 -3 0 -8 -11 -11 -15
-4 -18 -1 -14 17 4 25 -13 42 -24 24 -4 -7 -3 -9 4 -5 7 4 10 -1 9 -14 -1 -11
-6 -20 -12 -20 -5 0 -2 -5 8 -11 9 -5 22 -7 27 -4 6 3 10 -1 10 -10 0 -9 5
-13 10 -10 6 4 8 10 5 15 -3 5 -1 11 3 14 5 3 4 21 -2 40 -6 19 -13 33 -17 30
-4 -2 -5 5 -2 16 9 33 30 23 38 -17z m-1631 -215 c-3 -4 -1 -8 5 -8 5 0 13 5
16 10 8 13 35 13 35 0 0 -5 -8 -7 -17 -3 -15 5 -15 3 2 -10 10 -8 24 -14 30
-13 5 2 7 1 3 -1 -5 -3 -8 -15 -8 -28 0 -13 -12 -33 -28 -47 -44 -36 -48 -50
-16 -44 32 6 47 19 49 43 2 20 12 50 24 73 4 8 22 17 39 21 26 5 31 3 37 -18
3 -13 9 -22 14 -19 12 8 -4 -81 -19 -98 -18 -22 -56 -20 -73 5 -9 13 -17 16
-22 10 -8 -14 3 -33 16 -26 5 4 9 1 9 -5 0 -7 -6 -10 -14 -7 -7 3 -19 0 -26
-6 -10 -9 -11 -9 -6 1 5 9 -4 12 -33 12 -30 0 -41 4 -41 15 0 8 -9 15 -20 15
-22 0 -27 16 -7 23 6 2 5 3 -4 2 -9 -1 -22 7 -29 19 -12 19 -12 20 3 7 13 -10
17 -10 17 -1 0 10 3 10 14 1 18 -15 28 0 22 34 -3 14 -1 25 4 25 5 0 7 6 4 13
-3 8 2 14 10 14 8 0 13 -4 10 -9z m1411 2 c5 8 12 4 22 -9 8 -12 11 -26 8 -31
-3 -6 -2 -10 4 -10 5 0 11 6 13 12 6 16 -1 -109 -7 -137 -3 -11 -18 -28 -35
-37 -17 -10 -28 -12 -24 -6 5 8 0 9 -17 3 -13 -4 -82 -8 -154 -9 -129 -1 -130
-1 -130 22 0 12 3 22 8 22 4 0 7 -7 7 -15 0 -8 4 -15 10 -15 5 0 6 7 3 17 -4
11 -3 14 5 9 7 -4 12 -14 12 -22 0 -8 9 -14 23 -13 20 0 20 1 3 8 -19 7 -19 8
0 15 11 4 20 3 22 -3 5 -16 22 -13 22 4 0 8 5 15 11 15 6 0 9 -9 6 -20 -3 -11
-1 -20 4 -20 5 0 9 8 9 18 0 11 8 18 21 19 18 2 19 0 7 -14 -11 -14 -11 -16 4
-11 9 4 19 4 22 1 10 -10 57 -9 63 1 3 5 1 6 -5 2 -20 -12 -13 10 8 29 17 15
18 20 6 36 -20 29 -8 66 33 101 20 17 28 28 19 25 -9 -3 -22 2 -30 11 -12 15
-11 16 4 4 12 -9 18 -10 23 -2z"/>
<path d="M3050 10760 c0 -39 1 -40 35 -40 34 0 35 -1 35 -40 l0 -40 40 0 40 0
0 -40 c0 -45 -3 -44 99 -34 l61 7 0 38 c0 38 1 39 34 39 19 0 41 2 49 6 11 4
13 -4 9 -45 l-5 -51 37 0 36 0 0 -45 0 -45 -40 0 c-39 0 -40 -1 -40 -35 0 -33
-2 -35 -35 -35 l-35 0 0 -78 0 -77 238 0 237 0 3 -42 c3 -40 5 -42 40 -46 20
-2 -19 -4 -88 -4 -69 0 -108 2 -87 4 36 4 37 5 37 44 l0 39 -110 0 -110 0 0
-35 c0 -22 6 -38 15 -41 10 -4 15 -20 15 -45 l0 -39 60 7 c42 4 60 2 60 -6 0
-6 -17 -11 -40 -11 -38 0 -40 -2 -40 -29 0 -28 3 -30 43 -34 23 -2 -29 -4
-115 -5 l-158 -2 0 -40 c0 -39 1 -40 35 -40 27 0 45 -9 75 -37 22 -20 40 -44
40 -55 0 -14 8 -18 40 -18 l40 0 0 60 0 60 123 -2 c67 -1 103 -3 80 -5 l-43
-4 0 -75 0 -74 40 0 c22 0 40 5 40 10 0 6 18 10 40 10 33 0 40 3 40 20 0 17
-7 20 -42 21 l-43 2 50 7 c28 5 84 8 125 7 41 0 58 -2 38 -4 -37 -4 -38 -5
-38 -44 0 -38 1 -39 35 -39 33 0 35 -2 35 -35 0 -34 1 -35 40 -35 l40 0 0 -40
0 -40 40 0 c39 0 40 1 40 35 0 33 2 35 35 35 34 0 35 1 35 40 0 39 -1 40 -35
40 -34 0 -35 1 -35 40 l0 40 40 0 40 0 0 45 0 45 40 0 40 0 0 -40 0 -40 40 0
40 0 0 149 0 149 -85 7 -85 7 0 39 c0 28 -4 39 -15 39 -11 0 -15 11 -15 41 l0
42 -102 -5 -103 -6 83 11 82 10 0 33 c0 21 5 34 13 34 22 0 67 25 64 35 -2 6
-20 14 -40 19 -20 5 -37 13 -37 18 0 4 -18 8 -40 8 -39 0 -40 1 -40 35 0 34
-1 35 -40 35 -39 0 -40 -1 -40 -34 l0 -34 -82 -7 c-46 -4 -101 -5 -123 -3 -24
3 -9 5 38 6 l77 2 0 40 0 40 -75 0 -75 0 0 60 0 60 -80 0 c-73 0 -80 -2 -80
-19 0 -15 9 -21 38 -24 20 -2 10 -3 -22 -1 -32 2 -85 4 -117 4 -59 0 -59 0
-59 30 0 17 -4 30 -9 30 -4 0 -6 23 -3 50 l5 50 -232 0 -231 0 0 -40z"/>
<path d="M4000 10786 c0 -7 9 -16 21 -19 11 -3 23 -15 26 -26 7 -27 33 -27 33
-1 0 27 8 25 40 -7 23 -23 35 -27 74 -24 36 2 46 -1 46 -13 0 -14 28 -16 240
-16 231 0 240 -1 240 -19 0 -11 17 -36 38 -55 36 -35 39 -36 122 -38 81 -1 82
-2 30 -8 -33 -4 28 -7 157 -8 120 -1 213 2 215 7 2 5 21 10 43 11 55 3 62 1
45 -10 -11 -7 -4 -10 28 -10 40 0 42 -1 42 -30 0 -28 2 -30 40 -30 29 0 40 4
40 15 0 21 18 19 32 -5 7 -11 21 -20 30 -20 11 0 18 -8 18 -20 0 -18 7 -20 80
-20 106 0 104 -18 -2 -23 -67 -2 -60 -3 40 -5 l122 -2 0 35 c0 34 1 35 40 35
40 0 40 0 40 39 0 40 0 40 -42 44 -24 2 12 4 80 5 l122 2 0 75 0 75 40 0 c33
0 40 -3 40 -20 0 -18 7 -20 80 -20 73 0 80 2 80 20 0 16 7 20 30 20 17 0 30 4
30 9 0 11 94 1 98 -10 2 -5 17 -9 34 -9 18 0 36 -7 43 -17 10 -13 30 -18 81
-19 88 -2 84 -1 84 -19 0 -10 10 -15 34 -15 34 0 35 1 39 43 l4 42 1 -42 2
-43 60 0 60 0 0 40 c0 29 4 40 15 40 11 0 15 11 15 40 l0 40 -304 0 c-234 0
-306 -3 -310 -12 -5 -10 -7 -10 -12 0 -7 16 -2234 18 -2234 2 0 -5 -17 -10
-37 -10 -28 0 -34 3 -23 10 12 8 11 10 -7 10 -13 0 -23 -6 -23 -14z"/>
<path d="M7200 10765 l0 -35 -80 0 c-64 0 -80 3 -80 15 0 11 -11 15 -40 15
-33 0 -40 -3 -40 -20 0 -19 7 -20 240 -20 l240 0 0 40 0 40 -120 0 -120 0 0
-35z"/>
<path d="M7770 10760 l0 -40 40 0 40 0 0 -42 0 -41 158 4 c86 3 138 3 115 1
-42 -3 -43 -4 -43 -38 l0 -34 120 0 120 0 0 75 0 75 200 0 200 0 0 40 0 40
-475 0 -475 0 0 -40z"/>
<path d="M13200 10760 l0 -40 40 0 c39 0 40 -1 40 -35 l0 -35 80 0 80 0 0 35
c0 34 1 35 40 35 l40 0 0 -75 0 -75 30 0 c20 0 30 5 30 15 0 8 5 15 10 15 6 0
11 15 11 33 1 19 3 25 6 13 3 -10 19 -30 35 -44 24 -21 40 -25 74 -23 26 1 44
-2 44 -8 0 -6 18 -11 40 -11 l40 0 0 -40 0 -40 70 0 c39 0 70 4 70 9 0 4 22 6
49 3 l50 -4 4 38 4 39 1 -42 2 -43 75 0 c60 0 75 -3 75 -15 0 -11 11 -15 40
-15 33 0 40 -3 40 -20 0 -16 -7 -20 -37 -20 l-38 0 4 -52 c3 -46 8 -57 37 -81
32 -27 34 -28 34 -8 0 20 5 21 80 21 72 0 80 -2 80 -19 0 -17 -10 -19 -95 -23
-52 -2 -97 -7 -101 -11 -8 -7 14 -37 27 -37 5 0 9 6 9 13 0 19 170 37 343 37
l137 0 0 -25 c0 -22 4 -25 40 -25 30 0 40 -4 40 -16 0 -14 10 -15 75 -9 82 7
98 0 111 -49 8 -34 21 -41 40 -22 21 21 30 20 47 -5 11 -15 30 -22 71 -26 l56
-6 2 49 1 49 4 -42 c3 -25 9 -43 16 -43 7 0 18 -9 25 -20 9 -16 23 -20 62 -20
47 0 50 2 50 25 0 23 4 25 40 25 l40 0 0 40 0 40 40 0 40 0 0 -45 0 -45 123 5
c114 4 122 2 60 -20 -31 -10 -29 -37 4 -52 44 -21 163 -16 193 7 20 16 41 20
103 20 70 0 77 2 77 20 0 18 -7 20 -79 20 -55 0 -81 -4 -84 -12 -3 -10 -9 -10
-28 -1 -13 6 -31 14 -39 16 -8 3 40 6 108 6 l122 1 0 34 0 34 79 7 80 7 4 36
c4 37 4 37 5 -5 l2 -43 75 0 75 0 0 -40 0 -40 -40 0 c-33 0 -40 -3 -40 -20 0
-17 7 -20 40 -20 29 0 40 -4 40 -15 0 -9 9 -15 23 -15 12 0 45 -3 73 -6 46 -6
52 -4 57 15 5 19 12 21 86 21 65 0 81 -3 81 -15 0 -11 11 -15 40 -15 39 0 40
1 40 35 0 33 2 35 36 35 l35 0 -3 85 -3 85 50 -2 50 -1 -42 -4 c-43 -4 -43 -4
-43 -44 l0 -39 74 0 74 0 7 80 c6 69 10 80 26 80 17 0 19 -8 19 -80 0 -73 2
-80 19 -80 16 0 21 8 24 43 l4 42 1 -42 c2 -42 3 -43 37 -43 33 0 35 -2 35
-34 0 -34 1 -35 43 -39 l42 -4 -42 -1 c-42 -2 -43 -3 -43 -37 l0 -35 183 0
c100 0 206 -3 235 -6 l52 -7 0 82 c0 65 -3 81 -15 81 -8 0 -15 9 -15 20 0 11
6 20 14 20 8 0 17 10 19 23 2 12 5 3 6 -20 l1 -43 80 0 80 0 0 80 0 80 -39 0
c-39 0 -40 -1 -44 -40 l-4 -40 1 42 1 43 45 0 45 0 -3 -164 -4 -164 74 7 c40
4 76 13 80 19 4 7 9 41 10 77 1 50 2 55 5 23 2 -24 8 -43 13 -43 5 0 20 -11
34 -25 18 -18 36 -25 64 -25 43 0 52 -12 52 -77 0 -31 2 -33 35 -33 34 0 35
-1 35 -40 l0 -40 163 2 c89 1 125 4 80 5 -75 3 -83 6 -83 23 0 18 7 20 80 20
64 0 80 3 80 15 0 11 11 15 40 15 l40 0 0 -41 0 -42 61 7 c34 3 70 6 80 6 15
0 19 8 19 35 l0 35 80 0 80 0 0 -40 0 -40 40 0 40 0 0 -40 0 -40 -200 0 -200
0 0 -40 0 -40 -75 0 -75 0 0 -40 0 -40 235 0 235 0 0 -35 c0 -34 1 -35 40 -35
l40 0 0 -45 0 -45 -40 0 -40 0 0 -120 0 -120 40 0 40 0 0 -40 c0 -33 -3 -40
-20 -40 -18 0 -20 -7 -20 -79 l0 -78 31 -7 c17 -3 46 -5 63 -4 25 1 23 2 -14
8 l-45 7 43 1 42 2 0 315 0 315 -40 0 -40 0 0 40 0 40 40 0 40 0 0 119 0 120
-42 4 -43 4 43 1 42 2 0 435 0 435 -2914 0 -2915 0 -4 -42 -4 -43 -1 43 -2 42
-80 0 -80 0 0 -40z"/>
<path d="M9120 10660 c0 -19 -7 -20 -160 -20 -153 0 -160 -1 -160 -20 0 -17 7
-20 40 -20 22 0 40 5 40 10 0 6 18 10 40 10 22 0 40 -4 40 -10 0 -6 47 -10
120 -10 113 0 120 1 120 20 0 17 7 20 40 20 33 0 40 3 40 20 0 18 -7 20 -80
20 -73 0 -80 -2 -80 -20z"/>
<path d="M6720 10260 c0 -13 7 -20 20 -20 17 0 20 -7 20 -40 l0 -40 80 0 80 0
0 40 0 40 -60 0 c-53 0 -60 2 -60 20 0 17 -7 20 -40 20 -33 0 -40 -3 -40 -20z"/>
<path d="M3520 9775 c0 -12 -16 -15 -82 -16 -46 -1 -90 -1 -98 0 -12 1 -11 -2
3 -13 10 -8 14 -17 9 -20 -11 -6 -4 -46 7 -44 3 0 26 0 50 -1 l44 -1 -6 -55
-6 -55 40 0 c28 0 39 4 39 15 0 12 16 15 80 15 73 0 80 -2 80 -20 0 -17 7 -20
40 -20 28 0 40 4 40 14 0 10 14 16 43 19 23 2 5 4 -40 5 l-83 2 0 80 0 80 -40
0 c-29 0 -40 4 -40 15 0 11 -11 15 -40 15 -29 0 -40 -4 -40 -15z"/>
<path d="M20 9495 c0 -8 -4 -15 -10 -15 -5 0 -10 -9 -10 -20 0 -11 4 -20 9
-20 5 0 11 -18 13 -40 2 -28 0 -40 -9 -40 -10 0 -13 -36 -13 -155 l0 -155 80
0 80 0 0 35 c0 33 2 35 35 35 30 0 35 3 35 23 0 12 3 46 6 75 l7 52 -42 0
c-30 0 -41 -4 -41 -15 0 -18 -12 -19 -28 -3 -16 16 -15 28 2 28 13 0 26 78 26
161 0 39 0 39 -40 39 -29 0 -40 4 -40 15 0 10 -10 15 -30 15 -20 0 -30 -5 -30
-15z"/>
<path d="M1360 9000 l0 -40 -40 0 c-40 0 -40 0 -40 -39 0 -40 0 -40 43 -44
l42 -4 -42 -1 -43 -2 0 -70 0 -70 80 0 80 0 0 35 c0 28 4 35 20 35 17 0 20 7
20 40 0 36 -2 40 -25 40 -25 0 -25 1 -25 80 l0 80 -35 0 c-34 0 -35 -1 -35
-40z"/>
<path d="M1286 8665 c-3 -8 -12 -12 -19 -9 -24 9 -27 -23 -6 -47 l20 -23 -5
28 c-3 16 -2 25 2 21 8 -7 9 -13 11 -50 1 -24 3 -25 76 -25 l75 0 0 40 0 40
-40 0 c-33 0 -40 3 -40 20 0 16 -7 20 -34 20 -21 0 -36 -6 -40 -15z"/>
<path d="M240 8215 c0 -11 -11 -15 -40 -15 -33 0 -40 -3 -40 -19 0 -16 8 -21
43 -24 23 -2 -13 -4 -80 -5 l-123 -2 0 -144 c0 -79 4 -146 9 -148 4 -2 5 -28
0 -58 -4 -30 -8 -88 -8 -127 l-1 -73 40 0 40 0 0 81 0 80 37 -35 c21 -20 40
-36 43 -36 3 0 23 18 44 39 36 37 38 43 34 88 -3 26 -3 42 -1 36 3 -7 20 -13
39 -13 l34 0 0 80 0 80 -35 0 c-35 0 -35 0 -35 45 l0 45 40 0 c22 0 40 5 40
10 0 6 9 10 20 10 29 0 27 37 -2 43 l-23 4 23 2 c29 1 32 41 2 41 -11 0 -20 7
-20 15 0 11 -11 15 -40 15 -29 0 -40 -4 -40 -15z"/>
<path d="M320 7935 c0 -33 4 -55 11 -55 6 0 9 7 6 14 -4 10 -1 13 9 9 7 -3 14
-9 14 -14 0 -5 3 -8 8 -8 24 4 40 -3 45 -21 3 -11 1 -22 -3 -25 -9 -6 -7 -20
5 -49 10 -22 -23 -55 -36 -35 -4 8 -8 7 -12 -2 -4 -11 -7 -12 -15 -1 -14 21
-30 -7 -28 -50 2 -26 -2 -38 -11 -38 -7 0 -13 5 -13 10 0 6 -12 10 -27 10
l-28 -1 23 -18 c12 -11 22 -29 22 -40 0 -13 6 -21 16 -21 12 0 15 -7 11 -25
-3 -20 1 -29 20 -38 21 -12 18 -13 -40 -15 -62 -3 -65 -1 -95 33 -35 39 -42
42 -42 20 0 -11 -11 -15 -40 -15 -29 0 -40 4 -40 15 0 11 -11 15 -40 15 l-40
0 0 -2139 c1 -2015 2 -2140 18 -2144 16 -4 16 -5 0 -6 -17 -1 -18 -87 -18
-1651 l0 -1650 420 0 420 0 0 353 0 352 2982 -3 c2381 -2 2983 0 2990 10 6 10
8 10 8 0 0 -14 21 -12 32 3 4 6 8 -153 8 -352 l0 -363 915 0 c908 0 915 0 915
20 0 20 7 20 355 20 348 0 355 0 355 -20 0 -20 7 -20 4855 -20 l4855 0 0 354
c0 298 -2 355 -14 359 -8 3 -17 1 -20 -6 -3 -9 -5 -9 -5 1 -1 6 -6 12 -12 12
-5 0 -7 -5 -4 -10 4 -7 -147 -9 -447 -8 l-453 3 445 5 c245 3 370 6 278 8
l-168 2 0 40 0 40 -75 0 -75 0 0 35 0 35 -122 2 c-68 1 -106 3 -85 5 36 4 37
5 37 44 0 38 -1 39 -35 39 -28 0 -35 4 -35 20 0 17 -7 20 -40 20 l-40 0 0 -60
0 -60 -60 0 -60 0 0 -80 0 -80 -100 0 -100 0 -2 43 -1 42 -4 -37 c-3 -24 -10
-38 -21 -41 -12 -3 -11 -5 6 -6 12 0 22 -5 22 -11 0 -6 -86 -9 -242 -8 -192 1
-223 3 -148 8 52 4 131 9 175 10 44 1 74 4 68 7 -7 2 -13 11 -13 19 0 11 -18
14 -80 14 -73 0 -80 -2 -80 -20 0 -18 -6 -20 -67 -19 -38 0 -110 4 -161 7 -50
4 -92 4 -92 0 0 -5 -37 -9 -82 -10 -73 -2 -68 -3 42 -8 69 -3 -255 -6 -720 -7
-508 0 -821 3 -786 8 57 8 87 19 53 19 -11 0 -17 11 -20 37 l-4 38 -1 -42 -2
-43 -120 0 -120 0 0 35 c0 34 -1 35 -40 35 -39 0 -40 -1 -40 -35 0 -34 -1 -35
-40 -35 -39 0 -40 1 -40 35 l0 35 -120 0 c-100 0 -120 -2 -120 -15 0 -11 -11
-15 -40 -15 -34 0 -40 -3 -40 -22 0 -21 -2 -21 -120 -15 -75 4 -120 3 -120 -3
0 -6 67 -11 163 -13 89 -1 -1334 -3 -3163 -3 -1829 -1 -3305 2 -3280 6 l45 7
-42 1 -43 2 0 40 0 40 -40 0 -40 0 0 -40 0 -40 -40 0 c-33 0 -40 3 -40 20 0
18 -7 20 -80 20 -73 0 -80 -2 -80 -20 0 -17 -7 -20 -40 -20 -40 0 -40 0 -40
39 0 39 1 40 38 43 l37 3 3 58 3 57 -159 0 -159 0 3 -103 c1 -56 0 -83 -3 -59
l-4 42 -80 0 -79 0 0 34 0 33 -61 7 c-34 3 -88 6 -120 6 l-59 0 0 34 c0 34 -1
35 -42 39 -24 2 -6 4 40 5 l82 2 0 35 0 35 -160 0 -160 0 0 45 c0 45 0 45 -35
45 l-34 0 -4 -82 -3 -83 -2 83 -2 82 -35 0 -34 0 -4 -122 -3 -123 -2 123 -2
122 -80 0 -80 0 0 -39 c0 -39 1 -40 40 -44 l40 -4 -42 1 -43 1 1 57 1 58 -77
0 c-65 0 -79 3 -85 17 -3 10 -2 19 2 20 5 2 7 21 5 43 l-4 40 -159 0 -159 0
-1 33 c0 17 0 74 1 125 l2 93 -79 -3 c-43 -1 -115 -2 -160 0 l-83 2 0 35 0 35
-80 0 -80 0 0 -40 0 -40 -81 0 -81 0 5 -72 c2 -40 2 -56 0 -35 l-4 37 -120 0
c-112 0 -119 1 -119 20 0 17 -7 20 -50 20 -39 0 -53 4 -62 20 -7 11 -24 20
-37 20 l-24 0 5 108 c3 59 4 131 1 161 l-6 53 -58 -6 c-32 -4 -75 -4 -94 0
l-35 6 0 79 c0 72 2 79 20 79 18 0 20 -7 20 -80 l0 -80 35 0 35 0 0 80 0 80
-35 0 c-34 0 -35 1 -35 40 0 23 -5 40 -11 40 -6 0 -9 -9 -6 -20 4 -17 0 -20
-31 -20 -19 0 -44 7 -54 16 -15 14 -20 15 -34 3 -9 -7 -34 -12 -60 -10 -26 1
-44 -2 -44 -8 0 -6 -18 -11 -40 -11 -33 0 -40 3 -40 20 0 17 7 20 42 20 23 0
39 3 35 6 -3 3 -40 3 -81 -1 l-76 -7 0 -34 c0 -33 -1 -34 -39 -34 l-38 0 -7
61 c-3 34 -6 124 -6 200 l0 138 -32 4 c-18 2 2 2 45 0 l77 -5 0 41 c0 40 1 41
35 41 34 0 35 1 35 39 0 39 -1 40 -37 44 -21 2 -1 4 45 5 l82 2 0 35 c0 34 -1
35 -39 35 l-39 0 -7 80 c-6 73 -9 80 -29 80 -11 0 -27 9 -34 20 -14 23 -34 25
-62 8 -17 -11 -22 -10 -29 0 -6 10 -16 9 -51 -3 -24 -8 -71 -15 -104 -14 -49
1 -155 -9 -243 -22 -7 -1 -13 -8 -13 -16 0 -9 -12 -13 -37 -12 -21 1 -74 -1
-118 -4 -44 -4 -97 -7 -117 -7 -27 0 -38 -4 -38 -15 0 -8 -4 -15 -10 -15 -5 0
-10 4 -10 9 0 11 -153 12 -210 1 -25 -5 -148 -16 -275 -25 -126 -9 -263 -18
-302 -22 -49 -3 -73 -2 -73 5 0 6 4 13 10 17 5 3 7 12 3 20 -3 9 1 15 11 15 9
0 16 5 16 10 0 6 -7 10 -15 10 -8 0 -15 9 -15 20 0 11 -6 20 -14 20 -9 0 -12
-7 -9 -20 4 -14 0 -20 -11 -20 -9 0 -16 -4 -16 -10 0 -5 7 -10 15 -10 8 0 15
-4 15 -10 0 -5 -7 -10 -16 -10 -13 0 -14 -3 -5 -14 20 -24 -24 -39 -111 -41
-60 -1 -76 1 -68 10 8 9 5 14 -10 18 -11 3 -20 1 -20 -4 0 -5 -18 -9 -40 -9
-33 0 -40 -3 -40 -20 0 -17 -7 -20 -50 -20 -28 0 -50 -5 -50 -10 0 -6 -15 -10
-32 -9 -18 1 -68 -1 -110 -6 -77 -7 -78 -7 -78 15 0 22 3 23 60 17 l60 -7 0
40 c0 36 -3 40 -25 40 -24 0 -24 1 -23 78 1 42 3 69 5 59 3 -12 15 -17 44 -17
l39 0 0 70 c0 54 3 70 14 70 8 0 18 -5 21 -10 4 -6 1 -9 -7 -8 -9 2 -14 -11
-16 -39 l-3 -43 35 0 c34 0 36 -2 36 -35 l0 -35 80 0 80 0 0 55 0 55 80 0 80
0 1 -42 c0 -33 2 -38 9 -23 7 17 9 17 9 3 1 -27 61 -25 61 1 0 15 8 21 35 23
l35 3 -36 38 c-29 30 -42 37 -75 37 -39 0 -39 0 -39 40 0 33 3 40 20 40 17 0
20 7 20 40 0 33 -3 40 -20 40 -17 0 -20 -7 -20 -40 0 -28 -4 -40 -14 -40 -10
0 -16 -13 -18 -37 -3 -38 -4 -38 -48 -39 -25 -1 -35 0 -22 3 21 4 32 33 13 33
-19 0 -41 -13 -41 -24 0 -6 -9 -12 -20 -13 -11 -1 -20 2 -20 7 0 5 -3 15 -6
24 -5 13 2 16 44 16 l51 0 -2 69 c-2 39 -7 74 -11 78 -5 5 -6 2 -1 -6 6 -11 3
-13 -17 -8 -39 10 -42 -5 -7 -34 30 -24 32 -29 19 -45 -12 -14 -12 -16 -1 -9
9 5 12 4 8 -2 -3 -5 -16 -9 -29 -7 -13 1 -29 3 -35 3 -7 1 -13 6 -13 11 0 6 6
10 13 9 39 -5 52 15 16 26 -24 8 -42 47 -25 57 6 4 12 16 12 28 1 17 -1 18
-14 8 -11 -9 -14 -9 -9 -1 5 8 -1 11 -20 9 -16 -2 -34 -4 -40 -5 -7 0 -13 -8
-13 -16 0 -20 10 -19 26 3 22 29 38 0 35 -65 -1 -32 -4 -59 -6 -61 -1 -2 -40
-4 -85 -6 -60 -2 -86 2 -96 12 -18 18 -18 23 1 16 8 -4 15 -1 15 6 0 6 4 9 10
5 5 -3 10 22 12 62 2 51 7 68 17 68 12 0 15 -17 14 -81 0 -53 4 -81 11 -81 7
0 10 23 9 64 -2 55 0 63 13 53 8 -8 14 -30 14 -56 0 -24 5 -44 10 -44 6 0 13
-1 17 -2 4 -2 9 12 10 30 2 25 -1 32 -15 33 -14 0 -14 2 3 9 17 7 17 9 3 9
-22 1 -39 32 -32 57 3 12 -3 27 -15 38 -17 15 -25 17 -52 7 -18 -6 -34 -9 -37
-7 -2 3 14 10 37 17 36 11 43 10 62 -7 13 -11 19 -27 16 -41 -2 -12 0 -20 4
-17 5 3 9 13 9 22 0 9 8 26 16 37 14 19 16 19 25 3 12 -21 44 -25 36 -4 -3 7
0 19 6 26 9 10 9 12 -4 7 -19 -6 -47 9 -35 20 5 4 10 3 13 -3 2 -5 21 -9 43
-8 22 1 38 -2 35 -6 -3 -4 2 -10 10 -13 9 -4 12 -1 8 9 -3 8 -2 14 3 12 5 -1
26 4 46 11 28 9 36 17 33 32 -5 24 0 24 23 -2 11 -11 18 -30 16 -42 -2 -12 -2
-16 2 -10 4 9 11 10 23 3 15 -8 18 -5 15 15 -3 28 8 32 26 10 10 -12 10 -15
-1 -15 -10 -1 -8 -4 4 -11 25 -15 23 -69 -3 -69 -11 0 -20 -4 -20 -10 0 -5 9
-10 20 -10 17 0 20 -7 20 -40 0 -33 3 -40 20 -40 17 0 20 7 20 40 0 33 -3 40
-20 40 -11 0 -20 5 -20 10 0 6 9 10 19 10 15 0 20 9 23 40 4 41 0 48 -18 30
-6 -6 -15 -6 -24 0 -10 6 -11 10 -3 10 7 0 10 7 7 15 -4 8 -1 15 6 15 6 0 8
-5 5 -10 -3 -5 -2 -10 3 -10 17 0 22 13 10 27 -6 8 -7 13 -2 11 17 -6 17 13
-1 58 -9 25 -22 43 -29 41 -18 -6 -16 -76 3 -88 13 -8 11 -9 -9 -7 -22 3 -25
8 -28 48 -2 24 -9 48 -15 52 -8 5 -8 8 -1 8 14 0 14 33 0 42 -7 5 -4 8 7 8 9
0 17 -4 17 -10 0 -5 9 -10 20 -10 11 0 20 -7 20 -15 0 -8 8 -15 18 -15 12 0
18 -9 20 -26 3 -37 14 -52 22 -29 9 25 -20 75 -39 67 -9 -4 -12 -1 -7 7 5 7
14 10 21 7 7 -2 15 3 18 13 3 13 -3 17 -24 19 -15 1 -30 -2 -34 -8 -3 -5 -11
-10 -16 -10 -6 0 -8 4 -5 8 3 5 -22 9 -55 9 -44 0 -59 -3 -55 -12 3 -8 -5 -12
-20 -12 -21 0 -23 2 -12 16 10 13 10 14 -2 4 -18 -17 -33 -17 -24 0 4 6 -1 5
-12 -4 -10 -9 -32 -15 -49 -14 -16 0 -36 -4 -44 -9 -12 -9 -13 -6 -8 14 5 22
4 23 -7 8 -11 -15 -13 -15 -24 0 -10 16 -11 16 -6 -1 5 -13 2 -16 -10 -11 -8
3 -15 9 -14 12 0 4 0 26 -1 50 l-1 42 -40 0 c-22 0 -40 4 -40 9 0 14 -59 19
-71 5 -7 -8 -6 -13 3 -16 10 -4 10 -8 2 -19 -15 -18 -24 -69 -13 -69 5 0 9 -7
9 -15 0 -17 9 -19 30 -5 8 5 15 19 15 31 0 12 6 24 14 27 10 3 12 -2 7 -22 -5
-21 -1 -32 21 -52 16 -14 22 -23 16 -19 -10 5 -11 0 -3 -20 13 -35 14 -35 -16
-35 -17 0 -23 -4 -18 -12 5 -9 2 -8 -9 1 -23 19 -32 8 -11 -13 9 -10 24 -14
35 -11 11 4 19 2 19 -5 0 -6 4 -8 10 -5 6 4 7 -1 3 -11 -5 -14 -3 -16 11 -11
11 5 16 3 14 -5 -7 -21 -26 -20 -33 1 -5 16 -15 21 -39 21 -19 0 -38 6 -43 13
-17 21 -21 66 -7 78 8 6 12 14 10 18 -3 4 11 5 31 3 24 -3 34 -1 29 6 -4 6
-14 8 -23 5 -12 -5 -14 -3 -8 7 6 10 4 11 -11 5 -24 -10 -41 -10 -76 0 -22 5
-29 3 -34 -10 -8 -20 33 -58 51 -48 5 4 7 3 3 -2 -4 -4 -2 -17 4 -28 8 -16 7
-23 -7 -33 -10 -8 -14 -18 -10 -26 6 -10 5 -11 -6 0 -7 6 -24 12 -37 12 -16 0
-26 7 -29 20 -6 24 -34 23 -40 0 -4 -12 -3 -12 5 -1 7 10 11 1 14 -30 4 -37 2
-47 -18 -62 -13 -10 -22 -23 -19 -27 3 -5 1 -11 -5 -15 -6 -4 -10 4 -10 19 0
13 -6 27 -12 30 -7 3 -2 3 12 0 24 -5 25 -4 22 42 -3 26 1 57 9 71 9 17 10 26
2 31 -6 4 -7 15 -2 27 7 18 8 18 8 -5 1 -21 3 -22 12 -10 9 12 10 12 5 -4 -8
-24 12 -50 29 -36 8 7 12 5 12 -5 0 -8 -4 -12 -9 -9 -4 3 -8 1 -8 -4 0 -15 43
-23 52 -9 4 7 8 15 8 19 0 11 -40 30 -53 25 -7 -3 -13 6 -14 21 0 13 -7 28
-14 33 -14 8 -6 23 14 25 7 0 20 2 30 2 11 1 16 7 11 15 -6 10 -4 10 7 0 21
-20 25 -16 28 28 1 26 -2 38 -9 34 -5 -3 -10 1 -10 9 0 10 -9 16 -25 16 -22 0
-25 -4 -25 -39 0 -22 5 -41 12 -43 7 -3 6 -7 -5 -11 -10 -4 -17 -2 -17 5 0 6
-8 4 -18 -6 -18 -16 -19 -15 -21 16 -5 78 4 91 66 93 18 1 41 9 50 17 10 9 35
21 56 29 24 8 37 19 37 31 0 13 11 19 40 24 39 6 54 27 28 37 -7 3 29 6 80 6
l92 1 0 80 0 80 -51 0 c-46 0 -51 2 -46 20 9 36 -10 30 -29 -8 -10 -20 -22
-39 -25 -42 -3 -3 -17 -23 -31 -45 -41 -65 -185 -205 -211 -205 -6 0 -18 -6
-26 -14 -9 -8 -32 -17 -51 -20 -25 -4 -29 -3 -15 3 l20 9 -20 7 c-11 5 -27 14
-37 22 -9 8 -25 16 -35 18 -10 1 -17 7 -16 13 1 5 -4 16 -12 22 -8 7 -15 9
-15 4 0 -4 -7 1 -15 12 -14 19 -14 19 -15 -1 0 -12 6 -27 13 -34 10 -11 10
-14 0 -18 -15 -5 -17 -23 -4 -23 5 0 13 10 16 21 6 17 9 19 16 8 5 -8 9 -24 9
-36 0 -14 7 -23 23 -26 19 -4 19 -4 -5 -6 -20 -1 -28 4 -31 22 l-4 22 -2 -22
c-1 -23 -25 -31 -36 -13 -7 12 -55 13 -71 2 -6 -4 -14 -14 -18 -22 -3 -8 -4
-5 -2 8 4 22 -8 30 -19 12 -3 -5 -12 -10 -18 -10 -7 0 -6 4 3 11 11 7 3 9 -30
8 -25 -2 -50 -7 -57 -12 -7 -5 -18 -7 -25 -4 -8 4 -7 6 5 6 18 1 23 16 8 25
-5 4 -12 0 -14 -6 -4 -10 -6 -10 -6 0 -1 7 6 15 14 18 11 5 15 21 15 60 0 52
-14 73 -23 37 -4 -15 -5 -14 -6 2 0 12 4 26 11 33 9 9 9 12 0 12 -7 0 -12 4
-12 10 0 5 7 7 15 4 8 -4 15 -1 15 5 0 6 -7 11 -17 11 -20 0 -9 13 15 17 9 2
41 3 70 4 28 1 52 3 52 5 0 6 -74 159 -80 164 -3 3 -6 13 -7 23 -4 80 -5 83
-13 57 -4 -14 -8 -40 -9 -57 -1 -35 -24 -46 -35 -17 -10 25 -7 34 9 34 12 0
13 4 3 26 -7 15 -14 21 -16 15 -2 -6 -21 -11 -43 -11 -39 0 -39 0 -39 -39 0
-22 4 -41 10 -43 5 -2 3 -19 -5 -43 -14 -37 -15 -22 -12 197 1 130 5 239 7
241 3 3 19 7 35 9 27 3 31 8 36 43 l6 40 1 -42 c2 -37 5 -43 25 -44 12 -1 32
-3 45 -4 13 -1 30 4 38 12 9 9 25 13 40 10 13 -2 27 0 30 4 3 5 -1 9 -8 9 -9
0 -9 3 2 10 11 7 7 10 -17 10 -18 0 -33 5 -33 11 0 8 11 9 32 5 17 -3 68 -8
112 -10 45 -2 56 -1 26 2 l-55 5 45 13 45 13 -40 -4 c-22 -3 -59 -8 -81 -11
-24 -4 -44 -2 -48 4 -8 14 4 43 18 41 6 -1 41 -1 78 0 61 1 67 3 70 23 2 18
10 23 41 23 37 1 37 1 37 -39 l0 -39 25 23 c24 23 33 50 17 50 -4 0 -6 18 -4
40 3 26 9 40 18 40 10 0 14 12 14 40 l0 40 -75 0 -75 0 0 40 c0 39 1 40 35 40
l35 0 0 80 0 80 -35 0 c-33 0 -35 2 -35 35 0 28 -4 35 -20 35 -11 0 -20 4 -20
9 0 5 -23 7 -52 5 -48 -4 -51 -3 -33 10 24 18 39 20 29 5 -4 -7 -1 -10 7 -7 8
3 14 13 14 24 0 14 -8 20 -30 22 -16 2 -36 9 -44 15 -11 10 -12 4 -7 -31 l5
-42 -46 0 -46 0 5 45 c6 48 -7 62 -18 20 -7 -29 -24 -34 -24 -6 0 10 7 22 16
25 9 4 14 13 10 22 -3 8 -2 12 4 9 6 -3 10 1 10 10 0 10 -5 14 -12 9 -10 -6
-10 -4 0 7 14 15 16 55 3 63 -15 10 -21 -7 -8 -22 9 -13 9 -14 0 -8 -13 7 -17
-2 -14 -40 2 -15 -7 -23 -36 -32 -20 -6 -39 -9 -41 -7 -2 2 7 7 21 10 22 6 25
12 24 38 -2 18 -6 38 -11 46 -7 10 -5 12 5 6 12 -7 12 -5 1 6 -11 12 -14 12
-22 -1 -6 -8 -10 -24 -9 -35 2 -42 -1 -55 -16 -55 -15 0 -18 18 -17 83 0 17
-3 25 -10 21 -6 -4 -8 -3 -5 3 4 6 27 7 59 3 55 -8 72 -5 63 10 -3 5 8 2 24
-6 25 -12 30 -21 33 -61 3 -37 0 -47 -14 -51 -23 -6 -13 -22 13 -22 11 0 17
-4 14 -10 -3 -5 -2 -17 3 -26 8 -15 10 -15 16 1 3 9 3 21 0 26 -3 5 -2 9 3 8
4 -1 16 -1 27 0 15 1 16 4 6 15 -8 10 -18 12 -33 7 -21 -8 -22 -6 -21 50 1 32
-2 56 -7 53 -5 -3 -5 6 1 20 6 16 6 26 -2 28 -5 2 -2 10 8 18 11 9 15 10 10 3
-4 -8 -1 -13 8 -13 9 0 16 -4 16 -10 0 -5 -7 -10 -15 -10 -8 0 -15 -7 -15 -15
0 -17 20 -20 38 -5 9 7 9 7 2 -2 -16 -19 -12 -94 6 -109 13 -11 14 -9 8 17 -4
16 -7 34 -6 41 1 7 3 19 4 27 1 8 4 15 7 14 18 -2 32 3 27 10 -2 4 6 8 19 8
13 0 21 -4 19 -8 -3 -4 2 -8 11 -8 9 0 13 5 10 11 -4 6 2 5 14 -3 17 -11 25
-11 42 0 16 10 19 10 13 1 -5 -9 -2 -10 9 -6 10 3 17 3 17 -1 0 -4 18 -6 40
-4 45 5 51 -3 53 -70 l2 -43 -40 3 c-43 4 -67 24 -58 50 4 15 3 15 -7 2 -10
-13 -11 -13 -7 0 2 8 10 15 18 16 8 0 24 2 37 2 12 1 22 8 22 16 0 9 -12 12
-40 10 -22 -1 -44 -5 -50 -9 -14 -8 -13 -85 1 -85 6 0 9 7 5 15 -3 8 -1 15 4
15 16 0 11 -28 -6 -38 -15 -8 -15 -10 0 -15 10 -4 15 -3 12 2 -3 5 1 12 10 15
11 4 15 2 11 -7 -3 -8 4 -14 20 -15 16 -1 22 2 17 10 -5 7 -3 8 7 2 19 -12
182 -12 191 1 4 5 8 0 8 -12 0 -15 9 -24 31 -32 41 -14 39 -14 39 9 0 16 -7
20 -30 20 -30 0 -30 1 -30 55 0 32 -4 55 -10 55 -7 0 -9 -16 -7 -40 4 -42 -16
-63 -31 -32 -13 26 -3 102 14 102 8 0 14 -4 14 -10 0 -5 5 -10 11 -10 7 0 10
13 7 33 -3 31 -2 32 33 32 29 0 35 -3 27 -12 -6 -7 -14 -10 -19 -7 -5 3 -9 -2
-9 -10 0 -11 10 -14 43 -11 23 2 42 4 42 5 0 1 10 3 22 4 17 2 20 -1 13 -9 -7
-9 -6 -16 5 -25 10 -8 14 -27 12 -58 -1 -31 2 -47 12 -50 9 -3 11 1 8 14 -3
11 -7 44 -9 74 -2 48 0 55 17 57 19 3 19 3 0 -6 -18 -9 -17 -10 7 -10 19 -1
29 5 33 20 l7 21 23 -22 c14 -13 21 -29 18 -39 -4 -14 -3 -14 6 -1 7 9 11 10
11 3 0 -6 -5 -15 -10 -18 -5 -3 -10 -21 -10 -40 0 -18 -6 -36 -12 -38 -10 -4
-10 -6 0 -6 7 -1 10 -5 7 -11 -9 -15 11 -12 24 4 8 10 9 16 1 21 -7 4 -6 13 2
28 13 25 17 78 6 70 -14 -8 -8 8 8 24 14 15 15 14 12 -3 -3 -18 7 -19 192 -21
427 -5 648 -3 671 5 13 5 182 8 382 6 196 -1 357 1 357 5 0 5 234 8 521 7 286
-1 523 1 525 4 7 7 74 8 74 1 0 -5 585 -6 758 -2 29 1 32 4 32 31 0 20 -5 30
-15 30 -9 0 -12 6 -8 16 5 13 7 13 14 2 7 -10 9 -10 9 0 0 8 15 12 48 11 l47
-2 -40 -7 -40 -7 38 -2 c30 -1 37 -5 37 -21 0 -17 7 -20 40 -20 33 0 40 3 40
20 0 18 7 20 81 20 l82 0 -6 43 c-2 23 -3 37 -1 32 5 -13 84 -7 84 6 0 5 52 9
115 9 l115 0 0 39 0 38 -152 6 c-84 3 -155 1 -158 -3 -3 -5 -28 -4 -55 1 -28
6 -124 10 -215 9 -91 0 -250 1 -355 4 -104 2 -389 6 -632 9 -374 4 -442 3
-447 -9 -4 -10 -22 -14 -61 -14 -31 0 -54 4 -51 8 2 4 -5 9 -17 9 -12 1 -35 4
-52 7 -63 11 -424 15 -460 5 -25 -7 -40 -7 -49 0 -7 6 -69 11 -147 11 -74 1
-163 3 -199 5 -36 3 -195 7 -355 10 -159 4 -315 7 -345 9 -30 1 -63 -1 -72 -6
-13 -6 -18 -5 -18 4 0 9 -3 9 -10 -2 -9 -13 -10 -13 -10 0 0 13 -1 13 -10 0
-9 -13 -10 -13 -10 0 0 13 -1 13 -10 0 -5 -8 -10 -10 -10 -5 0 6 -46 10 -118
10 -64 0 -141 3 -170 6 -41 4 -52 2 -48 -8 4 -10 -2 -12 -22 -7 -26 6 -26 6
-7 -9 11 -8 22 -14 25 -12 5 3 6 -27 1 -65 -1 -13 -2 -13 -11 0 -5 8 -5 19 0
25 10 12 -3 39 -20 41 -5 1 -14 2 -20 3 -5 0 -9 4 -9 9 3 19 -2 32 -12 32 -8
0 -8 -4 -1 -12 8 -10 3 -14 -20 -15 -29 -2 -30 -2 -12 12 17 13 17 14 2 15 -9
0 -22 -8 -27 -17 -10 -17 -10 -17 -11 0 0 11 -8 17 -22 16 -22 0 -22 -1 -3 -9
14 -6 15 -9 5 -10 -12 0 -12 -3 3 -14 21 -16 22 -27 3 -20 -21 8 -19 -73 1
-85 12 -6 10 -9 -10 -13 -14 -3 -26 -2 -25 1 4 36 -4 101 -12 96 -5 -3 -10 -1
-10 4 0 6 5 11 10 11 18 0 -25 36 -45 37 -18 2 -34 -12 -35 -29 0 -5 14 -8 30
-8 30 0 30 -1 30 -54 0 -43 -4 -55 -17 -58 -15 -4 -18 2 -18 46 0 39 -4 51
-15 51 -11 0 -16 -13 -18 -46 -2 -34 -8 -48 -20 -51 -15 -4 -16 2 -12 54 3 32
9 58 14 57 19 -2 24 25 8 38 -23 17 -52 16 -74 -4 -17 -15 -18 -15 -18 5 0 25
-25 27 -111 13 -38 -6 -50 -4 -69 11 -18 15 -25 16 -32 6 -6 -11 -10 -11 -16
0 -7 10 -14 9 -32 -6 -16 -13 -20 -21 -12 -26 7 -4 12 -1 12 8 0 18 17 20 40
6 13 -8 13 -10 0 -14 -8 -3 -24 -7 -35 -9 -11 -1 -25 -6 -31 -10 -6 -3 -14 -3
-18 0 -11 11 -36 12 -36 2 0 -17 32 -23 61 -12 16 7 29 7 29 2 0 -5 7 -9 16
-9 8 0 12 4 9 10 -3 6 1 7 9 4 9 -3 16 -10 16 -16 0 -5 -4 -6 -10 -3 -6 4 -10
-15 -10 -49 0 -43 -3 -56 -15 -56 -12 0 -15 13 -15 55 0 32 -4 55 -11 55 -5 0
-7 -5 -3 -11 5 -8 -1 -10 -19 -5 -16 4 -29 1 -33 -6 -7 -11 2 -18 23 -20 5 0
14 -9 21 -20 11 -15 11 -22 2 -33 -14 -17 -66 -20 -75 -5 -3 5 6 8 21 7 31 -2
44 20 17 30 -34 12 -43 24 -33 43 12 23 -3 35 -26 22 -11 -6 -13 -11 -5 -16 6
-4 11 -18 11 -31 0 -13 6 -26 13 -28 9 -4 9 -6 0 -6 -7 -1 -13 -8 -13 -16 0
-8 -3 -15 -7 -16 -43 -4 -65 -3 -70 4 -2 4 -12 2 -21 -5 -15 -12 -16 -11 -3 5
12 15 12 19 -5 32 -14 10 -15 13 -4 12 8 -1 15 3 15 8 0 6 -4 9 -8 7 -5 -1 -6
2 -2 8 5 7 11 8 19 1 16 -14 56 -2 56 16 0 11 -7 13 -31 8 -22 -5 -29 -4 -25
4 4 6 21 11 37 11 18 0 28 4 24 10 -4 6 -10 8 -15 5 -4 -3 -14 2 -21 11 -12
15 -10 15 23 1 32 -13 38 -14 49 -1 6 7 15 11 20 8 5 -3 9 1 9 9 0 12 -22 15
-117 16 -82 1 -113 -2 -103 -9 13 -8 13 -10 -2 -10 -9 0 -18 5 -20 10 -5 15
-223 26 -232 11 -10 -16 -73 -14 -101 5 -17 11 -51 17 -109 18 -90 2 -116 13
-116 50 0 12 -9 27 -20 34 -28 17 -25 30 8 35 16 2 9 5 -20 6 l-48 1 0 -49 c0
-30 5 -51 13 -54 6 -2 9 -8 5 -12 -10 -11 -84 -8 -107 4 -11 6 -26 8 -34 5 -8
-3 -18 -1 -22 5 -4 7 5 11 24 11 28 0 31 3 31 30 0 18 -5 30 -13 30 -7 0 -18
8 -25 18 -11 14 -28 17 -105 16 -51 -1 -77 0 -59 3 51 7 37 22 -25 26 -41 2
-30 4 36 5 52 1 92 5 89 8 -4 3 -62 7 -131 10 l-124 4 0 -26 c-1 -35 -20 -46
-68 -39 -62 10 -135 11 -135 2 0 -5 -5 -5 -10 -2 -6 4 -8 11 -5 16 4 5 -5 9
-19 9 -24 0 -26 -4 -26 -40 0 -22 5 -40 11 -40 5 0 7 -5 4 -11 -5 -6 -11 -4
-19 6 -10 14 -28 16 -114 12 l-102 -4 0 119 c0 88 3 118 13 118 9 0 9 2 -1 8
-8 5 -10 16 -6 27 4 10 3 16 -2 13 -5 -4 -6 77 -2 204 6 191 8 212 26 228 11
11 22 17 24 15 2 -2 44 3 93 11 80 12 121 19 255 42 l35 6 -35 6 -35 6 45 9
45 9 -45 6 -45 6 32 8 c18 4 43 5 55 2 13 -3 17 -3 11 0 -7 3 -13 12 -13 19 0
21 -50 67 -66 61 -8 -3 -14 -1 -14 4 0 6 18 10 40 10 39 0 40 1 40 35 0 24 5
35 15 35 8 0 24 10 37 23 22 22 23 31 24 155 l0 132 -37 0 c-35 0 -38 -2 -42
-32 -2 -18 -2 0 0 40 l5 72 -41 0 c-39 0 -40 -1 -44 -37 -2 -26 -4 -19 -5 23
-1 34 1 89 4 123 l7 61 78 0 79 0 0 40 0 40 -40 0 -40 0 0 40 0 40 -40 0 c-33
0 -40 3 -40 20 0 17 -7 20 -40 20 -33 0 -40 -3 -40 -20 0 -16 -7 -20 -30 -20
-17 0 -30 5 -30 13 0 8 -4 7 -10 -3 -5 -8 -10 -30 -10 -47 0 -32 2 -33 40 -33
l40 0 0 -65 c0 -58 -2 -65 -20 -65 -11 0 -20 7 -20 15 0 12 -14 15 -62 17 -41
1 -50 3 -26 5 l37 4 3 86 c2 47 0 87 -5 90 -4 2 -5 9 -2 14 4 5 2 9 -3 9 -5 0
-8 15 -6 34 1 23 -3 36 -12 40 -9 4 -14 21 -14 52 0 32 -4 44 -12 41 -7 -2
-12 -14 -10 -25 3 -23 -6 -26 -56 -22 -21 1 -22 -1 -12 -20 9 -17 18 -20 38
-16 24 6 25 5 10 -7 -10 -8 -14 -17 -10 -22 4 -4 -3 -2 -15 6 -18 11 -24 10
-40 -2 -16 -13 -17 -13 -4 4 12 15 9 21 -10 19 -3 -1 -4 17 -2 39 2 26 -1 39
-10 40 -6 0 -1 5 13 11 14 6 36 10 50 9 19 -1 21 0 11 8 -14 9 -29 8 -66 -4
-15 -5 -16 -4 -6 3 8 6 15 24 15 41 1 27 -2 31 -26 31 -16 0 -28 -5 -28 -11 0
-6 9 -8 20 -4 15 5 20 2 20 -12 0 -15 -2 -16 -11 -3 -8 12 -9 9 -4 -9 6 -20 4
-23 -10 -18 -45 18 -90 -25 -78 -74 9 -35 20 -46 45 -44 17 1 23 8 25 28 2 24
-1 27 -23 23 -20 -4 -23 -2 -14 13 6 12 5 22 -3 31 -10 12 -9 12 5 1 10 -7 15
-17 12 -22 -3 -5 -2 -9 3 -8 39 7 49 -1 45 -37 -3 -25 -10 -38 -23 -41 -11 -3
-19 -9 -19 -13 0 -13 -29 -20 -36 -8 -4 7 -3 8 4 4 7 -4 12 -3 12 2 0 13 -29
24 -43 15 -7 -3 -9 -3 -5 1 3 4 0 19 -7 33 -7 14 -11 35 -8 47 2 11 5 27 5 34
1 6 6 12 12 12 6 0 5 5 -2 12 -7 7 -12 16 -12 21 0 5 7 1 16 -8 10 -10 20 -12
28 -7 6 5 22 8 36 6 22 -3 23 -2 8 9 -26 21 -4 50 32 42 25 -6 29 -4 25 14 -2
11 -1 20 3 20 20 -3 32 3 32 16 0 21 -59 20 -77 -2 -14 -17 -14 -17 -9 0 3 10
0 17 -7 17 -8 0 -8 3 2 9 11 7 11 15 0 45 -10 28 -10 39 -1 48 7 7 11 26 11
43 -1 16 -3 22 -6 13 -3 -12 -12 -15 -31 -12 -15 3 -29 8 -32 12 -3 4 -13 8
-22 10 -15 2 -18 -5 -18 -53z m490 -2400 c0 -79 -1 -85 -21 -85 -11 0 -17 5
-14 10 3 6 2 10 -3 10 -6 0 -12 -6 -15 -13 -7 -20 -64 -9 -81 15 -10 14 -12
29 -6 48 5 16 5 31 2 35 -4 4 -2 6 3 5 6 -1 12 -2 15 0 35 13 52 8 70 -23 l20
-32 0 51 c0 28 3 54 7 57 18 18 23 0 23 -78z m1670 55 c3 -1 8 -2 12 -1 4 0 5
-6 2 -14 -4 -9 0 -15 7 -15 10 -1 9 -3 -2 -10 -12 -7 -16 -21 -14 -45 2 -41
11 -53 27 -37 8 8 8 16 -3 28 -9 12 -10 15 -1 10 8 -5 12 -1 12 13 0 24 36 52
58 44 11 -5 14 -2 9 10 -8 21 8 30 40 22 l26 -6 -22 -20 c-15 -14 -19 -27 -15
-44 5 -22 2 -24 -33 -27 -21 -2 -37 -7 -35 -13 2 -5 13 -9 25 -7 18 2 19 0 7
-8 -8 -5 -11 -10 -6 -10 5 0 18 8 29 18 11 9 18 13 15 7 -3 -5 -8 -17 -11 -27
-5 -13 -12 -15 -41 -8 -20 4 -38 4 -41 0 -6 -10 -53 -1 -61 12 -3 5 -6 25 -6
44 0 19 -5 37 -10 40 -6 4 -5 9 3 14 10 7 10 11 0 23 -10 13 -9 15 6 12 10 -2
20 -4 23 -5z m-474 -364 c-3 8 -2 12 3 9 6 -3 9 -14 8 -25 -1 -10 -5 -16 -9
-14 -13 8 -9 -5 9 -33 16 -24 16 -26 1 -21 -16 7 -19 -7 -5 -29 11 -17 4 -83
-10 -83 -6 0 -9 8 -6 19 6 25 -23 36 -36 13 -9 -16 -11 -15 -25 3 -20 27 -15
40 17 40 14 0 29 3 33 8 4 4 -2 7 -14 7 -13 0 -22 6 -22 15 0 22 -18 18 -25
-4 -7 -23 -33 -18 -53 11 -18 24 -32 23 -32 -4 l0 -21 -23 21 c-13 12 -29 22
-35 22 -7 0 -13 8 -13 18 -1 16 -2 16 -6 0 -2 -10 -8 -18 -12 -18 -9 0 -31 22
-31 31 0 3 45 10 100 14 73 5 100 10 100 20 0 11 8 11 46 -1 41 -12 45 -12 40
2z m-1325 -876 c55 0 101 4 104 10 3 6 26 10 51 10 28 0 43 -4 39 -10 -4 -6
13 -10 45 -10 32 0 49 4 45 10 -3 6 -2 10 3 10 5 0 15 -11 22 -25 7 -13 17
-22 22 -19 4 3 8 -4 8 -15 0 -10 -6 -21 -12 -24 -21 -7 -5 -16 36 -19 20 -1
39 -6 42 -10 3 -4 11 -5 18 -2 8 3 17 1 21 -5 3 -6 1 -11 -4 -11 -8 0 -12 -80
-13 -242 l-2 -243 -6 245 -6 245 -2 -257 c-2 -233 0 -258 16 -274 16 -17 16
-18 0 -11 -13 4 -18 1 -18 -9 0 -14 -10 -15 -69 -9 -58 6 -69 4 -74 -10 -4 -9
-3 -14 3 -10 6 3 10 1 10 -4 0 -6 -5 -11 -11 -11 -5 0 -7 -5 -4 -10 7 -12 -24
-8 -45 5 -8 6 -51 22 -95 37 l-80 26 -3 -28 c-2 -22 -8 -28 -27 -26 -13 0 -21
4 -19 7 5 9 -81 79 -96 79 -6 0 -8 5 -5 10 3 6 1 10 -5 10 -7 0 -10 92 -10
306 1 231 4 304 13 295 7 -7 49 -11 108 -11z m839 7 c0 -7 9 -19 20 -27 14
-10 20 -26 20 -52 0 -31 4 -38 20 -38 17 0 20 7 20 40 0 32 4 40 19 40 10 0
46 3 80 6 l61 7 0 -87 c0 -51 4 -86 10 -86 6 0 10 -18 10 -40 0 -36 -3 -40
-25 -40 -36 0 -78 -46 -70 -77 3 -13 3 -58 -1 -99 l-7 -74 -41 2 -41 1 38 4
c27 3 37 9 37 22 0 10 3 46 6 80 l7 61 -82 0 -81 0 0 40 0 40 -40 0 c-39 0
-40 1 -40 35 0 34 -1 35 -40 35 l-40 0 0 45 0 45 -80 0 -80 0 0 -80 0 -80 40
0 40 0 2 43 c1 40 2 41 5 6 2 -19 -1 -47 -6 -62 -9 -22 -17 -27 -46 -27 -24 0
-35 5 -35 15 0 23 -67 20 -73 -2 -4 -14 -5 -12 -6 5 -1 19 4 22 34 22 l34 0 3
83 3 82 43 3 c41 3 42 4 42 38 0 33 1 34 40 34 22 0 40 5 40 10 0 6 27 10 60
10 33 0 60 -4 60 -10 0 -5 9 -10 20 -10 24 0 27 15 4 24 -8 3 -12 10 -9 16 9
14 25 12 25 -3z m-152 -850 c6 -5 12 -4 12 0 0 5 19 8 41 7 l42 -1 -1 -46 c-2
-129 2 -117 -41 -117 -21 0 -44 6 -50 14 -13 16 -12 98 1 90 4 -3 8 0 8 6 0 8
9 10 27 5 l27 -6 -25 19 c-16 14 -26 17 -31 9 -4 -6 -26 -12 -49 -12 -23 -1
-37 1 -31 3 28 9 9 18 -33 16 -24 -2 -47 1 -50 6 -3 4 4 6 15 3 11 -3 20 -1
20 3 0 11 100 11 118 1z m417 4 c-16 -7 -14 -9 15 -14 18 -4 31 -10 27 -13 -3
-3 2 -27 11 -52 l16 -47 22 50 c26 57 28 65 14 65 -5 0 -10 -10 -11 -22 0 -13
-3 -17 -6 -10 -2 6 -9 12 -14 12 -6 0 -6 -8 1 -19 12 -24 13 -31 2 -31 -5 0
-9 6 -9 13 0 6 -4 20 -8 30 -5 12 -2 17 9 17 9 0 16 5 16 10 0 7 -6 7 -18 1
-11 -6 -24 -6 -33 0 -11 7 -8 9 11 9 14 1 40 3 59 5 22 2 29 0 20 -6 -10 -6
-8 -9 9 -9 13 0 22 -6 22 -16 0 -9 5 -13 13 -9 6 4 5 1 -3 -7 -15 -13 -20 -94
-7 -115 5 -7 0 -9 -15 -5 -14 3 -19 1 -14 -6 5 -8 1 -10 -10 -5 -11 4 -13 8
-6 11 7 2 12 22 11 50 l-1 47 -15 -34 c-8 -19 -15 -42 -16 -52 -2 -31 -28 -13
-52 37 l-23 49 -1 -47 c-1 -40 -4 -47 -20 -45 -13 1 -17 5 -11 12 4 5 8 32 8
59 0 33 -3 45 -9 35 -5 -9 -9 -10 -9 -2 0 6 5 15 10 18 8 5 8 11 1 19 -13 15
-4 26 18 25 12 0 11 -2 -4 -8z m528 -5 c6 -8 10 -7 14 2 6 16 28 16 41 -1 7
-8 6 -18 -3 -31 -10 -14 -11 -24 -4 -38 17 -31 6 -43 -35 -40 -35 3 -37 2 -26
-17 12 -24 30 -27 48 -9 9 9 12 8 12 -5 0 -13 -8 -17 -32 -17 -46 1 -66 19
-61 55 1 17 3 39 3 50 1 13 4 15 8 8 5 -7 13 -9 21 -3 8 4 20 6 28 3 16 -6 18
13 1 23 -6 4 -8 3 -5 -3 8 -13 -25 -13 -42 0 -22 18 -41 16 -41 -4 0 -10 6
-19 13 -19 9 0 9 -2 -1 -9 -8 -4 -13 -17 -12 -27 5 -48 -1 -74 -16 -74 -11 0
-14 -5 -10 -16 6 -14 4 -15 -9 -4 -9 7 -12 16 -7 19 4 3 9 28 11 55 2 40 0 48
-12 43 -9 -3 -18 1 -23 11 -10 24 -14 45 -6 37 4 -4 7 -12 7 -18 0 -7 9 -13
20 -15 11 -2 17 -1 13 3 -4 4 -3 16 2 26 7 12 6 19 -2 21 -6 2 13 4 43 4 30 0
58 -5 62 -10z m472 4 c-19 -8 -18 -11 4 -14 5 0 13 -4 17 -8 4 -5 18 -8 31 -8
14 0 21 -4 18 -10 -3 -5 -1 -10 5 -10 6 0 13 6 16 14 3 8 18 12 39 10 19 -1
37 2 41 7 3 5 13 5 25 -1 11 -6 17 -16 13 -22 -4 -7 -9 -6 -14 3 -5 7 -8 -16
-8 -52 l1 -64 -38 -3 c-21 -2 -42 1 -48 7 -15 15 -30 14 -24 -2 6 -16 -68 -10
-81 7 -15 18 -22 85 -10 92 7 4 8 2 4 -4 -5 -8 -2 -10 8 -6 9 3 14 10 11 14
-3 5 -2 10 2 13 5 2 3 2 -4 1 -6 -2 -14 4 -17 12 -3 8 -11 14 -17 14 -8 0 -7
-6 2 -17 13 -16 12 -17 -4 -4 -21 17 -6 41 27 40 20 0 21 -1 1 -9z m-2441 -25
c-5 -11 -1 -14 12 -9 11 3 15 2 8 -3 -7 -5 -7 -20 2 -48 11 -34 13 -36 15 -15
1 14 2 31 2 38 -1 6 8 12 18 12 14 0 21 -9 25 -30 8 -38 27 -27 22 12 -3 16 0
32 5 35 6 3 7 1 3 -5 -4 -7 -1 -12 8 -12 19 0 20 -13 2 -64 -8 -23 -23 -43
-34 -47 -15 -6 -20 -4 -16 5 3 7 1 23 -4 36 -9 23 -9 23 -15 -8 -10 -48 -35
-41 -49 13 -12 46 -28 60 -28 25 0 -30 -21 -68 -40 -73 -12 -3 -17 0 -14 7 3
7 1 23 -4 37 -9 24 -9 24 -16 -8 -4 -18 -14 -33 -21 -33 -7 0 -16 -6 -19 -12
-2 -7 -4 -4 -3 7 2 31 -14 95 -24 95 -5 0 -9 -9 -9 -20 0 -28 -21 -70 -35 -70
-7 0 -16 15 -20 33 l-7 32 -9 -32 c-5 -18 -14 -33 -19 -33 -6 0 -12 0 -15 0
-3 0 -5 1 -4 3 0 1 -8 26 -19 55 -19 50 -19 52 -2 52 10 0 21 6 24 13 3 6 4 3
1 -8 -3 -11 -1 -33 4 -50 l8 -30 7 32 c4 18 5 37 1 43 -10 16 23 24 48 12 20
-10 20 -11 -8 -8 -16 2 -22 1 -12 -1 10 -3 17 -14 17 -29 0 -13 5 -24 11 -24
6 0 8 7 5 17 -8 19 9 33 40 33 17 0 23 -8 29 -37 l8 -38 8 29 c4 16 6 33 3 38
-5 7 26 11 43 6 4 -2 6 -16 4 -32 -2 -18 1 -26 8 -22 6 4 11 18 11 32 0 18 5
24 21 24 11 0 17 5 14 10 -3 6 -3 15 0 20 9 15 15 12 9 -5z m1802 6 c-7 -11
22 -83 32 -77 4 2 8 -11 9 -30 1 -24 -3 -34 -13 -34 -8 0 -14 5 -14 11 0 5 -4
8 -9 5 -5 -3 -8 2 -7 12 2 29 -42 28 -55 -2 -8 -16 -20 -25 -33 -25 -12 0 -35
-1 -53 -3 -18 -2 -31 -2 -29 0 2 2 -2 15 -9 29 -9 17 -11 33 -4 49 4 13 6 24
2 24 -3 0 2 9 12 20 10 11 23 20 28 20 6 0 2 -7 -9 -15 -18 -13 -17 -14 18
-15 39 0 58 -14 33 -24 -8 -3 -15 -1 -15 4 0 20 -31 9 -41 -14 -13 -28 -1 -58
25 -62 18 -3 21 7 6 22 -6 6 -6 15 0 24 7 10 10 11 11 3 1 -7 2 -18 3 -25 0
-6 7 -13 15 -16 10 -3 12 0 7 14 -4 10 -4 15 0 11 9 -9 46 82 38 95 -3 4 9 8
26 8 17 0 29 -4 26 -9z m368 -1212 c20 -6 33 -5 43 2 7 7 16 9 20 5 3 -3 1 -6
-5 -6 -30 0 -7 -19 41 -32 28 -9 82 -27 119 -41 39 -15 70 -22 73 -16 4 5 12
9 18 9 7 0 6 -4 -3 -10 -8 -5 -10 -10 -5 -11 6 -1 15 -3 20 -4 6 -2 16 -3 23
-4 7 0 10 -6 6 -12 -4 -8 -9 -7 -15 2 -10 17 -23 -33 -16 -61 3 -11 1 -23 -4
-26 -5 -3 -9 -17 -9 -31 0 -14 -6 -60 -14 -102 -44 -233 -50 -285 -37 -289 14
-5 -33 -32 -55 -32 -8 0 -14 -4 -14 -8 0 -4 -12 -9 -27 -10 -16 -1 -29 -6 -31
-12 -2 -5 -10 -6 -19 -3 -12 5 -14 3 -8 -7 5 -8 4 -11 -2 -7 -5 3 -33 3 -61
-2 -28 -4 -49 -4 -46 1 3 4 -4 8 -16 8 -11 0 -28 4 -38 9 -35 19 -121 41 -139
35 -14 -5 -15 -4 -4 4 11 8 7 11 -16 16 l-30 7 -22 157 c-47 336 -54 373 -71
367 -8 -3 -4 4 10 15 14 11 32 20 40 20 13 0 13 2 0 11 -13 9 -12 10 3 5 9 -3
27 -2 40 3 12 5 48 17 79 27 31 10 55 21 53 24 -3 4 8 5 23 3 21 -4 24 -2 12
6 -11 8 -7 10 20 5 19 -3 48 -10 64 -15z m-1516 -71 c3 -35 5 -37 48 -44 31
-4 44 -11 44 -23 4 -131 -2 -547 -7 -552 -5 -4 -35 -3 -68 1 -63 9 -77 3 -68
-31 6 -22 -11 -25 -53 -9 -22 9 -25 8 -16 -3 9 -10 8 -14 -3 -14 -7 0 -14 3
-13 6 3 30 -31 48 -52 27 -8 -8 -9 -6 -4 9 4 11 4 17 0 13 -4 -3 -23 0 -41 8
-45 19 -45 19 -45 -16 0 -33 -6 -36 -34 -15 -10 8 -23 12 -29 8 -6 -3 -7 -1
-3 5 7 12 -42 54 -54 47 -5 -3 -12 0 -16 6 -5 8 -2 10 7 5 8 -4 4 1 -8 10 -23
16 -23 17 -23 310 l0 294 218 -2 217 -3 3 -37z m-237 -891 c2 -63 -1 -80 -18
-99 -19 -21 -66 -24 -81 -5 -8 10 -6 13 8 13 10 0 16 -4 14 -8 -6 -10 8 -10
30 -2 22 9 20 34 -3 34 -40 0 -51 11 -51 50 0 22 -5 42 -11 46 -9 5 -10 -1 -5
-21 10 -39 -16 -75 -54 -75 -48 0 -70 55 -39 96 5 6 50 11 109 11 l100 1 1
-41z m1556 29 c4 -5 1 -6 -5 -2 -14 8 -15 -3 -3 -22 6 -10 10 -7 15 12 5 21
12 26 39 26 39 0 51 -8 55 -37 3 -21 -1 -23 -38 -23 -38 0 -40 -1 -30 -21 9
-16 18 -19 36 -15 14 4 24 2 24 -4 0 -5 -16 -10 -35 -10 -19 0 -38 0 -42 0 -8
0 -9 4 -12 35 -2 22 -15 18 -26 -7 -6 -14 -21 -24 -37 -26 -22 -3 -28 -9 -28
-28 0 -15 -6 -24 -15 -24 -16 0 -17 1 -17 60 0 22 1 54 1 71 l1 30 56 -3 c31
-2 58 -7 61 -12z m247 8 c9 -3 14 -10 11 -14 -3 -5 -1 -11 5 -15 5 -3 10 3 10
14 0 18 6 21 38 20 36 0 37 0 15 -16 -17 -11 -23 -25 -23 -54 0 -27 -4 -39
-14 -39 -8 0 -16 -6 -19 -12 -3 -10 -7 -10 -18 -1 -20 16 -60 13 -81 -5 -12
-10 -18 -11 -18 -4 0 7 6 12 13 12 8 0 7 4 -3 11 -12 9 -11 10 5 4 16 -5 18
-4 8 6 -16 16 -17 71 -1 87 13 13 47 16 72 6z m7403 -829 c13 -14 31 -25 41
-24 9 1 34 -5 55 -15 l37 -16 0 -150 0 -149 -32 -17 c-35 -18 -55 -17 -235 17
l-113 21 0 128 0 128 29 7 c22 5 30 13 35 37 11 57 33 71 101 65 48 -5 64 -11
82 -32z m-1735 6 c64 -24 108 -95 108 -171 0 -48 -6 -50 -131 -50 -54 0 -99
-4 -99 -9 0 -16 30 -41 56 -47 24 -6 65 -2 112 12 20 6 22 3 22 -39 0 -50 0
-50 -100 -62 -50 -6 -59 -3 -102 24 -55 35 -75 82 -64 153 8 49 21 69 54 87
13 7 21 15 18 18 -6 7 -72 -33 -98 -61 l-21 -21 6 25 c4 14 7 30 7 37 0 17 50
73 85 94 32 20 107 25 147 10z m787 -35 c12 -11 45 -15 116 -17 l100 -1 -5
-132 c-5 -131 -5 -131 -30 -134 -14 -2 -30 -8 -35 -12 -20 -17 -65 -20 -65 -4
0 11 -15 14 -60 14 -45 0 -60 -3 -60 -14 0 -16 -45 -13 -65 4 -5 4 -21 10 -35
12 l-25 3 -3 134 c-1 74 0 141 2 148 8 19 144 18 165 -1z m9741 -116 l0 -110
-46 0 c-38 0 -50 -5 -73 -30 -31 -34 -50 -33 -76 6 -11 18 -25 24 -50 24 l-35
0 0 110 0 110 140 0 140 0 0 -110z m-11368 8 c2 -51 2 -109 0 -128 l-3 -35
-114 3 -115 3 0 125 0 124 114 0 115 0 3 -92z m8868 -38 l0 -130 -229 0 -230
0 -3 120 c-2 66 -1 125 0 130 2 6 92 10 233 10 l229 0 0 -130z m-15720 65 c0
-37 -4 -55 -12 -56 -10 0 -10 -2 0 -6 8 -3 12 -26 12 -64 0 -58 -1 -59 -27
-59 -16 0 -45 3 -65 6 l-38 7 0 53 c0 36 4 54 13 55 10 0 10 2 0 6 -8 3 -13
24 -13 53 0 53 0 54 98 58 l32 2 0 -55z m13860 -21 c0 -14 4 -23 10 -19 6 4
10 -7 10 -24 0 -17 -4 -31 -10 -31 -5 0 -10 -13 -10 -29 0 -35 -13 -38 -152
-33 l-88 3 0 80 0 79 120 0 120 0 0 -26z"/>
<path d="M18490 380 l0 -100 35 0 c20 0 46 -7 59 -15 23 -15 56 -11 56 6 0 5
25 9 55 9 l55 0 0 100 0 100 -130 0 -130 0 0 -100z"/>
<path d="M7170 355 l0 -115 104 0 104 0 1 115 0 115 -105 0 -104 0 0 -115z"/>
<path d="M15820 350 l0 -110 210 0 210 0 0 110 0 110 -210 0 -210 0 0 -110z"/>
<path d="M14170 340 l0 -60 105 0 105 0 0 60 0 60 -105 0 -105 0 0 -60z"/>
<path d="M606 7759 c4 -8 0 -9 -15 -4 -14 4 -21 2 -22 -7 -1 -7 -3 -23 -4 -35
-1 -12 2 -20 6 -17 5 3 9 0 9 -5 0 -6 -7 -11 -15 -11 -8 0 -15 -7 -15 -15 0
-8 5 -15 11 -15 5 0 7 4 4 10 -3 6 1 7 9 4 9 -3 16 -2 16 4 0 6 3 18 6 27 4
10 2 15 -6 13 -7 -2 -14 2 -17 8 -2 7 5 10 20 7 14 -3 28 1 32 7 5 9 2 10 -13
6 -11 -4 -23 -2 -27 3 -3 6 0 8 8 5 8 -3 18 0 22 6 15 25 22 -12 8 -41 -16
-32 -10 -51 14 -47 9 2 18 -2 20 -8 2 -6 -7 -10 -19 -10 -14 1 -24 -6 -26 -17
-6 -30 7 -67 24 -67 14 0 14 -2 -1 -16 -9 -9 -13 -19 -9 -23 4 -3 9 0 11 7 3
6 9 12 14 12 6 0 8 -4 5 -8 -3 -5 50 -8 117 -8 67 1 131 -3 142 -8 11 -5 28
-13 37 -17 25 -12 31 4 34 92 2 67 0 77 -14 72 -8 -4 -13 -2 -10 3 3 5 1 20
-4 34 -10 24 -11 24 -18 5 -4 -12 -3 -23 4 -27 8 -6 7 -8 -1 -8 -21 0 -73 36
-65 45 4 5 1 5 -5 1 -9 -5 -13 1 -13 19 0 16 -4 24 -11 20 -6 -4 -8 -10 -5
-13 3 -3 -4 -10 -15 -16 -12 -6 -21 -15 -21 -21 0 -5 -7 -18 -15 -27 -15 -17
-14 -18 5 -18 13 0 22 6 22 15 0 8 5 15 10 15 6 0 10 5 10 11 0 6 -7 8 -17 4
-13 -4 -15 -3 -7 5 6 6 18 8 27 5 18 -7 32 -36 15 -32 -6 1 -13 -4 -15 -10 -6
-16 11 -17 40 -2 21 10 21 10 3 -5 -11 -9 -15 -16 -10 -16 6 0 14 4 19 9 12
11 65 2 65 -11 0 -5 4 -7 9 -4 7 5 3 -83 -4 -92 -2 -2 -12 -4 -24 -5 -11 -1
-21 -6 -21 -12 0 -5 -4 -4 -9 4 -8 13 -12 13 -28 0 -16 -12 -17 -12 -6 2 7 9
10 19 7 22 -8 8 4 57 14 56 22 -4 39 3 39 15 0 10 -9 11 -34 6 -18 -5 -33 -4
-33 1 0 5 -6 9 -13 9 -20 0 -21 -77 -2 -87 10 -6 11 -13 5 -23 -7 -11 -10 -11
-10 -2 0 7 -4 11 -9 8 -12 -8 -21 18 -21 56 0 22 -4 29 -15 25 -8 -4 -17 -2
-20 3 -3 5 5 11 17 13 23 4 23 4 1 6 -12 0 -29 11 -37 23 -14 20 -16 20 -22 4
-5 -14 3 -27 31 -50 34 -29 37 -34 26 -54 -8 -15 -21 -22 -41 -22 -16 0 -31
-4 -34 -8 -6 -10 -36 -9 -54 2 -9 6 -9 11 2 22 9 8 13 21 10 29 -9 23 -26 18
-19 -5 5 -15 2 -20 -12 -19 -10 0 -13 3 -5 6 6 2 9 9 6 14 -3 6 1 21 10 34 15
22 14 26 -9 53 -21 25 -22 31 -10 36 9 3 15 0 15 -10 0 -8 9 -24 20 -36 21
-23 27 -44 10 -33 -17 11 -11 -17 8 -31 15 -12 15 -15 2 -24 -12 -8 -9 -9 12
-6 15 2 28 0 31 -7 5 -15 37 -1 37 17 0 8 -16 23 -35 35 -19 11 -35 27 -35 35
0 8 -6 17 -12 19 -10 4 -10 6 0 6 7 1 20 8 28 16 9 8 26 13 39 11 15 -3 26 1
31 12 13 31 9 47 -13 50 -17 3 -23 -1 -22 -15 0 -10 3 -13 6 -5 2 6 12 12 20
12 12 0 13 -3 4 -13 -6 -8 -7 -17 -3 -22 4 -4 0 -6 -8 -3 -8 3 -26 1 -40 -3
-22 -8 -23 -8 -8 4 10 8 15 16 12 19 -2 3 -19 -8 -37 -24 l-31 -30 -14 41
c-11 33 -18 41 -38 41 -16 0 -23 -4 -18 -11z"/>
<path d="M15130 850 c-8 -5 -32 -10 -52 -10 -21 0 -38 -4 -38 -10 0 -5 18 -10
40 -10 22 0 49 -6 60 -12 16 -10 24 -10 40 0 12 7 20 8 20 2 0 -6 79 -10 220
-10 121 0 220 4 220 9 0 25 -37 30 -236 34 -115 2 -220 7 -234 11 -14 3 -32 2
-40 -4z"/>
<path d="M19143 713 c-10 -4 -13 -84 -13 -359 l0 -354 35 0 35 0 0 350 c0 240
-3 350 -11 350 -5 0 -7 5 -4 10 3 6 1 10 -4 10 -6 0 -11 -6 -11 -12 0 -9 -3
-10 -8 -2 -4 6 -13 9 -19 7z"/>
</g>
</svg>
