<?xml version="1.0" standalone="no"?>
<!DOCTYPE svg PUBLIC "-//W3C//DTD SVG 20010904//EN"
 "http://www.w3.org/TR/2001/REC-SVG-20010904/DTD/svg10.dtd">
<svg version="1.0" xmlns="http://www.w3.org/2000/svg"
 width="1927.000000pt" height="1091.000000pt" viewBox="0 0 1927.000000 1091.000000"
 preserveAspectRatio="xMidYMid meet">
<metadata>
Created by potrace 1.15, written by Peter Selinger 2001-2017
</metadata>
<g transform="translate(0.000000,1091.000000) scale(0.100000,-0.100000)"
fill="#000000" stroke="none">
<path d="M799 4941 c53 -7 66 -29 22 -37 -31 -6 -43 -24 -17 -24 7 0 19 -7 26
-15 10 -12 7 -15 -17 -21 -33 -9 -53 -27 -53 -49 0 -8 -7 -18 -16 -22 -8 -3
-20 -16 -25 -29 -12 -33 -45 -31 -57 4 -9 23 -11 24 -11 5 -1 -31 9 -53 26
-53 8 0 11 -5 7 -12 -5 -8 4 -9 32 -5 30 5 48 2 72 -13 49 -30 43 -40 -37 -65
-15 -5 -21 -4 -17 3 7 12 -31 28 -54 23 -8 -2 -18 -8 -21 -13 -4 -6 -12 -7
-19 -3 -9 6 -4 12 16 22 31 14 33 14 -43 -4 -13 -3 -23 -11 -23 -17 0 -7 -18
-30 -40 -51 -31 -30 -40 -47 -40 -72 l0 -33 189 0 189 0 4 28 c3 15 2 124 -1
242 l-6 215 -65 1 c-55 1 -58 1 -21 -5z"/>
<path d="M15370 356 c0 -8 5 -27 11 -43 7 -19 7 -29 0 -31 -7 -2 -7 -9 1 -21
7 -11 8 -26 3 -37 -24 -56 -32 -54 180 -54 l195 0 0 78 c0 133 18 122 -201
122 -158 0 -189 -2 -189 -14z"/>
</g>
</svg>
