<?xml version="1.0" standalone="no"?>
<!DOCTYPE svg PUBLIC "-//W3C//DTD SVG 20010904//EN"
 "http://www.w3.org/TR/2001/REC-SVG-20010904/DTD/svg10.dtd">
<svg version="1.0" xmlns="http://www.w3.org/2000/svg"
 width="1920.000000pt" height="1080.000000pt" viewBox="0 0 1920.000000 1080.000000"
 preserveAspectRatio="xMidYMid meet">
<metadata>
Created by potrace 1.15, written by Peter Selinger 2001-2017
</metadata>
<g transform="translate(0.000000,1080.000000) scale(0.100000,-0.100000)"
fill="#000000" stroke="none">
<path d="M0 5400 l0 -5400 432 0 431 0 -4 293 c-3 160 -2 249 1 197 l6 -95 2
92 c1 50 -2 94 -7 97 -14 9 -23 87 -11 102 10 11 514 13 2981 12 1633 -1 2969
-5 2969 -10 0 -4 -305 -9 -677 -11 l-678 -2 692 -2 c380 -1 693 2 695 6 2 5 8
3 15 -4 15 -16 -1848 -26 -4242 -23 -1378 2 -1729 6 -1727 16 1 6 -4 12 -12
12 -8 0 -13 -8 -12 -18 2 -13 15 -18 57 -20 30 -2 59 -7 64 -11 6 -4 62 -7
127 -6 64 0 114 -4 111 -9 -3 -4 -25 -6 -49 -2 -31 4 -44 2 -44 -7 0 -8 25
-12 83 -13 45 -1 67 0 49 3 l-34 4 38 20 c37 19 83 19 2129 19 1151 0 2389 -3
2753 -7 596 -6 662 -8 662 -22 0 -15 -43 -16 -431 -16 -401 0 -433 -1 -443
-17 -10 -17 -36 -18 -328 -18 -205 0 -318 4 -318 10 0 7 -646 10 -1918 10
-1055 0 -1922 3 -1926 7 -4 4 -22 8 -41 8 -33 1 -34 0 -32 -37 1 -25 5 -34 11
-28 11 11 66 -35 66 -54 -1 -6 -12 2 -25 19 -13 16 -27 27 -29 24 -3 -3 3 -15
14 -27 11 -12 20 -25 20 -31 0 -5 5 -11 11 -13 8 -3 11 -36 10 -96 l-2 -93
-44 -55 c-25 -30 -45 -52 -45 -49 0 3 -13 -1 -30 -10 -16 -8 -38 -15 -50 -15
-12 0 -18 -4 -15 -10 4 -6 -12 -9 -42 -9 -47 2 -47 2 -13 9 30 7 28 7 -13 4
-33 -2 -46 0 -41 8 5 8 1 9 -11 4 -19 -7 -31 4 -97 83 -20 23 -28 28 -28 15 0
-9 7 -22 17 -29 11 -8 12 -14 5 -19 -17 -10 -35 32 -29 68 3 17 3 25 0 18 -2
-6 -9 -10 -14 -6 -12 7 -12 86 1 119 7 17 7 24 0 20 -15 -9 -12 19 5 51 11 22
15 24 15 10 0 -16 3 -15 21 8 13 16 19 35 16 47 -5 17 -3 18 9 8 12 -10 19 -8
37 9 13 12 37 25 55 28 34 7 34 24 1 24 -11 0 -18 -3 -16 -7 3 -5 -53 -7 -124
-5 l-129 4 0 -291 0 -291 2925 0 2926 0 -3 284 -3 283 28 -2 c15 -2 31 -6 35
-10 4 -5 -1 -5 -10 -2 -17 6 -18 -11 -18 -273 l0 -280 35 0 35 0 0 319 c0 246
-3 320 -12 324 -8 3 -6 6 5 6 16 1 17 -21 17 -324 l0 -325 925 0 c918 0 925 0
925 20 0 20 7 20 355 20 348 0 355 0 355 -20 0 -20 7 -20 4855 -20 l4855 0 0
350 c0 227 4 350 10 350 6 0 10 -123 10 -350 l0 -350 35 0 35 0 0 5400 0 5400
-9600 0 -9600 0 0 -5400z m1035 5209 l75 -76 0 -277 0 -276 -275 0 -275 0 0
55 0 55 -59 0 c-72 0 -67 -20 -63 268 l3 212 59 0 60 0 0 53 c0 30 2 56 4 58
2 2 93 4 201 4 l196 0 74 -76z m1636 14 c1 -16 1 -33 0 -39 -1 -13 31 -24 72
-24 l27 0 0 -286 0 -286 -75 7 -75 7 0 -31 c0 -17 -1 -31 -3 -31 -2 0 -48 16
-103 35 -54 19 -102 35 -106 35 -5 0 -8 -11 -8 -24 0 -14 -3 -27 -7 -29 -5 -3
-38 20 -75 50 l-68 54 0 294 0 295 210 0 210 0 1 -27z m10412 -1260 c-40 -4
-43 -6 -43 -34 l0 -29 80 0 c47 0 80 4 80 10 0 6 18 10 40 10 33 0 40 4 40 19
0 22 13 28 58 25 17 -1 47 -2 66 -3 32 -1 35 -4 38 -33 l3 -33 198 -3 c120 -1
197 -6 197 -12 0 -6 18 -10 40 -10 24 0 39 4 37 11 -4 17 73 21 80 4 8 -21 83
-21 83 1 0 8 4 12 10 9 6 -4 5 -13 -3 -26 -10 -17 -9 -22 8 -32 11 -7 29 -15
40 -18 11 -3 19 -11 18 -17 -2 -8 13 -12 42 -12 43 0 45 -1 45 -29 0 -17 4
-32 8 -35 5 -3 47 -6 93 -6 46 -1 114 -4 151 -7 58 -5 67 -8 70 -27 2 -15 11
-22 31 -24 15 -2 27 1 27 7 0 6 22 11 51 11 61 0 64 -22 3 -31 -28 -4 -16 -7
44 -8 75 -1 82 -3 82 -21 0 -16 7 -20 35 -20 22 0 38 6 41 15 4 10 20 15 45
15 33 0 39 -3 39 -21 0 -32 26 -50 72 -51 30 0 47 -6 56 -19 7 -11 21 -19 30
-19 9 0 30 -7 46 -15 16 -9 46 -18 65 -21 43 -7 51 -11 51 -28 0 -7 18 -20 40
-30 24 -10 37 -22 33 -28 -4 -7 0 -9 10 -5 25 10 77 -3 77 -19 0 -8 9 -14 20
-14 14 0 20 -7 20 -21 0 -17 4 -20 28 -15 37 8 92 -9 117 -37 11 -13 36 -29
55 -37 19 -8 41 -22 48 -32 7 -10 21 -18 31 -18 10 0 21 -9 24 -20 3 -11 13
-20 22 -20 9 0 42 -18 74 -40 33 -23 68 -40 84 -40 15 0 30 -7 33 -15 4 -10
20 -15 46 -15 28 0 46 -7 64 -25 14 -14 29 -25 35 -25 6 0 8 -4 4 -10 -7 -11
25 -50 42 -50 7 0 13 -4 13 -10 0 -5 5 -10 11 -10 6 0 33 -10 60 -21 34 -15
49 -27 49 -40 0 -15 8 -19 38 -20 20 -1 41 -1 46 0 5 1 6 -5 3 -12 -3 -8 7
-27 24 -43 24 -23 33 -26 47 -17 13 8 24 8 38 0 37 -21 46 -35 34 -56 -13 -25
-13 -31 0 -31 6 0 10 7 10 15 0 8 4 15 9 15 5 0 11 -7 15 -15 3 -8 13 -15 23
-15 10 0 42 -18 71 -40 29 -22 57 -40 63 -40 5 0 21 -7 34 -16 22 -15 25 -15
25 -1 0 13 15 15 97 14 86 -2 99 -4 120 -25 13 -13 23 -29 23 -37 0 -8 7 -15
16 -15 8 0 12 -4 9 -10 -3 -5 3 -10 14 -10 12 0 21 -4 21 -10 0 -17 -22 -11
-47 12 -13 12 -26 18 -30 14 -11 -10 44 -56 66 -56 9 0 23 6 30 13 10 10 11 9
6 -4 -5 -13 0 -15 25 -11 16 2 30 9 30 14 0 18 121 4 135 -16 15 -20 133 -38
121 -18 -15 25 15 20 41 -8 18 -19 38 -30 55 -30 18 0 28 -5 28 -15 0 -8 6
-15 14 -15 8 0 16 7 20 15 3 10 19 15 46 15 33 0 40 3 40 19 0 18 7 20 73 20
41 0 79 1 87 3 7 2 15 -3 17 -9 3 -7 0 -13 -6 -13 -6 0 -11 -13 -11 -30 0 -16
5 -30 11 -30 5 0 7 -5 3 -12 -6 -9 -9 -9 -12 0 -2 7 -19 12 -37 12 -29 0 -34
4 -38 28 -2 15 -5 -20 -6 -76 -1 -96 0 -104 19 -109 14 -4 20 -14 20 -34 0
-18 5 -29 14 -29 8 0 17 -6 19 -12 3 -7 6 6 6 30 1 41 1 42 37 42 27 0 37 5
41 20 5 18 14 20 84 20 46 0 79 4 79 10 0 6 9 10 19 10 11 0 21 4 23 10 2 5
14 11 28 14 14 2 27 5 30 5 3 1 -2 6 -10 11 -13 8 -13 10 2 10 11 0 15 6 11
20 -4 14 1 22 18 29 13 5 44 30 68 56 34 36 49 45 65 40 60 -19 63 -18 70 16
l6 34 16 -29 c10 -21 11 -31 4 -36 -7 -4 -10 -22 -8 -41 2 -29 7 -34 31 -37
24 -3 27 -7 27 -42 0 -21 3 -40 8 -43 4 -2 1 -2 -5 -1 -9 2 -13 -9 -13 -36 0
-35 -3 -39 -27 -42 -24 -3 -28 -8 -31 -40 -3 -37 -3 -38 32 -38 29 0 36 4 36
20 0 23 10 26 28 8 18 -18 15 -28 -8 -28 -17 0 -20 -7 -20 -40 l0 -40 40 0
c38 0 40 2 40 30 0 28 2 30 40 30 22 0 40 5 40 10 0 6 18 10 40 10 l40 0 1
-42 c2 -91 -3 -153 -12 -156 -12 -5 -12 -42 1 -42 6 0 9 -17 9 -37 -1 -21 -3
-30 -6 -20 -3 12 -15 17 -39 17 -27 0 -34 4 -34 20 0 11 6 20 14 20 8 0 18 9
21 20 3 11 11 20 16 20 5 0 9 9 9 20 0 11 -4 20 -10 20 -5 0 -10 15 -10 34 0
24 5 36 18 39 13 4 11 5 -5 6 -20 1 -23 -4 -23 -34 0 -52 -14 -62 -74 -54 -93
14 -116 11 -116 -11 0 -17 -7 -20 -39 -20 -33 0 -40 4 -44 23 -2 12 -5 3 -6
-20 0 -24 -6 -43 -12 -43 -6 0 -1 -12 10 -26 12 -15 21 -32 21 -38 0 -20 98
-53 188 -63 27 -3 42 -10 42 -19 0 -9 11 -14 29 -14 16 0 36 -6 44 -14 7 -8
34 -20 58 -27 24 -7 52 -19 61 -27 11 -9 27 -12 44 -8 39 10 81 -2 87 -25 7
-27 -3 -59 -19 -59 -8 0 -14 -4 -14 -9 0 -5 -9 -11 -20 -14 -16 -4 -21 1 -26
29 -7 36 -13 41 -32 22 -17 -17 -15 -28 7 -28 13 0 20 -10 25 -31 10 -51 8
-58 -15 -52 -14 4 -25 -1 -35 -16 -18 -24 -34 -28 -34 -6 0 11 -11 15 -40 15
-28 0 -40 -4 -40 -14 0 -10 -22 -16 -80 -21 -58 -5 -80 -11 -80 -21 0 -11 19
-14 78 -16 42 -1 60 -3 40 -5 -21 -2 -38 -8 -38 -14 0 -5 -18 -9 -40 -9 -22 0
-40 4 -40 9 0 10 -48 2 -56 -10 -3 -5 -28 -9 -56 -9 -40 0 -49 -3 -44 -15 4
-12 -4 -15 -39 -15 -25 0 -45 5 -45 10 0 6 -18 10 -40 10 -22 0 -40 -4 -40
-10 0 -6 -33 -10 -79 -10 l-78 0 -6 30 c-6 27 -10 30 -44 30 -53 0 -103 -49
-103 -102 0 -34 3 -38 33 -43 17 -3 41 -3 52 -1 11 3 28 5 38 5 12 1 17 9 17
30 0 17 4 32 8 35 5 3 7 -8 4 -23 l-4 -28 49 8 c36 5 52 4 62 -7 23 -22 7 -27
-81 -28 l-83 -1 -3 -37 c-2 -21 -7 -38 -13 -38 -15 0 -10 -27 7 -34 29 -11 44
-6 44 14 0 38 29 22 32 -17 2 -27 7 -37 18 -35 12 3 11 0 -2 -15 -10 -10 -27
-19 -39 -20 -40 -3 -41 -19 -5 -58 33 -35 35 -39 18 -51 -9 -7 -22 -14 -28
-14 -7 0 -14 -7 -18 -15 -3 -8 -12 -15 -21 -15 -8 0 -15 -5 -15 -11 0 -7 -11
-9 -28 -6 -44 9 -112 -3 -112 -20 0 -23 -25 -44 -38 -31 -6 6 -23 7 -41 3 -27
-6 -31 -11 -31 -41 0 -31 -3 -34 -30 -34 -28 0 -30 -2 -30 -40 l0 -40 -45 0
-45 0 0 -40 c0 -22 -4 -41 -10 -41 -61 -8 -65 -5 -68 39 l-3 42 40 0 c40 0 41
1 41 35 0 34 -1 35 -40 35 -29 0 -40 -4 -40 -15 0 -11 -11 -15 -35 -15 -22 0
-38 -6 -41 -15 -5 -12 -24 -15 -85 -15 -72 0 -79 2 -79 20 0 22 -3 23 -50 14
-29 -6 -31 -9 -27 -38 3 -17 3 -25 0 -18 -9 23 -20 12 -20 -20 0 -18 7 -42 16
-53 31 -39 41 -65 41 -110 0 -38 -3 -45 -20 -45 -16 0 -20 -7 -20 -34 0 -19
-4 -38 -10 -41 -5 -3 -10 2 -10 11 0 15 -3 15 -21 -4 -16 -18 -19 -28 -12 -49
11 -33 33 -42 33 -14 0 11 4 22 9 25 13 8 22 -81 15 -151 -6 -54 -4 -63 9 -63
20 0 67 -46 67 -65 0 -12 17 -15 78 -17 43 -1 60 -3 37 -5 -29 -3 -50 -14 -77
-41 -35 -33 -38 -34 -38 -14 0 27 -16 28 -32 2 -7 -11 -21 -20 -30 -20 -11 0
-18 8 -18 20 0 11 -7 20 -15 20 -17 0 -20 -16 -5 -25 6 -3 11 -27 11 -53 1
-26 4 -37 6 -24 4 18 11 22 43 22 21 0 40 -4 42 -9 2 -5 44 -5 97 -1 57 5 98
4 105 -1 6 -5 20 -17 31 -25 11 -9 14 -13 8 -9 -10 5 -13 -13 -13 -75 0 -62 3
-79 13 -73 6 4 4 -5 -6 -20 -17 -26 -17 -27 1 -27 10 0 23 -5 30 -12 9 -9 12
-9 12 1 0 24 28 -8 35 -40 4 -18 13 -29 24 -29 9 0 22 -5 28 -11 7 -7 22 -13
35 -14 13 -1 29 -3 35 -4 7 0 12 -6 10 -12 -1 -5 15 -16 36 -24 22 -7 48 -23
58 -34 17 -18 57 -28 92 -22 4 0 7 -6 7 -14 0 -9 13 -28 29 -44 26 -25 27 -30
14 -43 -13 -13 -13 -17 1 -30 18 -19 11 -28 -21 -28 -16 0 -23 -6 -23 -20 0
-18 -7 -20 -82 -20 -100 0 -95 -17 7 -23 l70 -3 -80 -4 -80 -4 80 -5 c79 -6
79 -6 89 -38 l9 -33 73 0 c59 0 74 3 74 15 0 18 12 19 28 3 9 -9 12 -9 12 1 0
7 5 9 10 6 12 -7 14 -36 3 -34 -5 1 -16 1 -25 0 -22 -1 -25 -41 -3 -41 8 0 15
-9 15 -20 0 -13 7 -20 20 -20 16 0 20 -7 20 -35 0 -28 4 -35 20 -35 11 0 20 7
20 15 0 8 9 15 20 15 11 0 20 -7 20 -15 0 -8 5 -15 11 -15 6 0 4 -7 -5 -15 -8
-8 -31 -15 -50 -15 -20 0 -36 -4 -36 -10 0 -6 35 -10 85 -10 47 0 94 -4 105
-10 11 -5 29 -14 40 -20 11 -5 27 -10 35 -10 10 0 15 -10 15 -29 0 -16 6 -32
13 -35 10 -5 10 -7 0 -12 -21 -9 -16 -77 6 -91 16 -10 21 -9 25 5 2 9 4 -27 3
-80 -1 -61 1 -94 8 -88 12 13 65 13 65 0 0 -5 -9 -10 -19 -10 -28 0 -35 -17
-9 -23 12 -4 35 2 52 11 17 9 33 18 35 19 8 5 -29 33 -43 33 -9 0 -16 5 -16
10 0 21 32 8 70 -29 42 -40 50 -61 25 -61 -8 0 -15 -7 -15 -15 0 -11 11 -15
40 -15 25 0 40 -5 40 -13 0 -7 9 -18 20 -25 15 -9 20 -23 20 -55 0 -36 4 -44
27 -54 15 -7 43 -12 62 -11 34 1 34 1 -9 8 l-45 7 38 1 c36 2 37 3 38 40 l2
37 7 -40 c4 -22 8 -31 9 -20 2 15 4 16 8 5 9 -22 30 -40 47 -40 9 0 16 -7 16
-15 0 -16 27 -20 49 -6 7 5 10 14 7 20 -5 7 2 11 18 11 27 0 38 -10 28 -27
-12 -17 -73 -45 -88 -39 -8 3 -14 1 -14 -4 0 -6 -7 -10 -15 -10 -8 0 -23 -4
-33 -9 -9 -5 -37 -14 -62 -21 -25 -6 -64 -17 -87 -23 -24 -6 -43 -15 -43 -19
0 -5 -11 -8 -24 -8 -17 0 -27 -9 -36 -30 -11 -26 -14 -28 -27 -15 -8 8 -26 15
-41 16 -15 0 -36 2 -46 4 -11 2 -42 -5 -70 -16 -28 -10 -61 -19 -73 -19 -12 0
-25 -4 -28 -10 -3 -5 -24 -10 -47 -10 -24 0 -51 -8 -67 -19 -15 -11 -48 -21
-72 -23 -24 -1 -61 -10 -81 -20 -20 -10 -43 -18 -51 -18 -8 0 -20 -7 -27 -15
-7 -8 -15 -13 -19 -11 -3 2 -21 -2 -40 -10 -28 -12 -31 -16 -21 -29 10 -13 9
-15 -9 -15 -18 0 -21 -6 -21 -40 0 -32 -4 -40 -18 -40 -26 0 -43 -36 -50 -104
l-7 -61 -6 45 -6 45 -1 -42 c-2 -35 -6 -42 -24 -45 -18 -2 -24 -11 -26 -37 -2
-20 2 -37 10 -42 10 -7 10 -11 0 -21 -6 -6 -12 -20 -12 -30 0 -10 -7 -18 -15
-18 -8 0 -15 7 -15 15 0 12 -14 15 -69 15 -60 0 -69 -2 -74 -20 -5 -19 0 -20
74 -20 72 0 79 -2 79 -20 0 -21 -35 -29 -42 -10 -2 6 -29 14 -61 17 -56 6 -57
6 -57 -21 0 -24 -3 -26 -40 -26 -39 0 -40 1 -42 38 l-1 37 -4 -37 c-3 -23 -9
-38 -18 -38 -7 0 -15 -5 -17 -10 -2 -6 -13 -12 -26 -13 -12 0 -22 -5 -22 -9 0
-4 -7 -8 -15 -8 -10 0 -15 -10 -15 -30 0 -17 3 -29 8 -29 22 4 32 -3 32 -21 0
-17 -7 -20 -40 -20 -36 0 -40 -3 -40 -24 0 -23 -3 -24 -34 -19 -19 3 -73 2
-120 -2 l-86 -7 0 -34 c0 -31 -3 -34 -29 -34 -49 0 -91 12 -91 26 0 8 -9 14
-20 14 -13 0 -20 -7 -20 -20 0 -17 7 -20 40 -20 33 0 40 -3 40 -20 0 -16 -7
-20 -30 -20 -17 0 -30 -5 -30 -12 0 -9 -4 -8 -10 2 -7 11 -14 12 -27 4 -26
-16 -27 -34 -2 -34 21 0 20 -3 -16 -40 -32 -33 -46 -40 -78 -40 -21 0 -45 7
-54 15 -8 8 -19 13 -24 10 -14 -9 -11 -25 6 -25 19 0 19 -14 1 -29 -8 -7 -15
-8 -18 -2 -2 6 -10 4 -21 -4 -23 -17 -36 -113 -17 -125 10 -6 7 -10 -12 -15
-14 -4 -28 -15 -31 -26 -3 -10 -12 -19 -21 -19 -13 0 -16 -12 -16 -64 0 -36 5
-68 11 -72 8 -4 8 -9 0 -17 -6 -6 -11 -31 -11 -55 l0 -43 -52 2 c-29 1 -65 -3
-80 -9 -23 -10 -28 -18 -28 -47 0 -35 0 -35 -45 -35 l-45 0 0 40 0 40 40 0 40
0 0 80 0 80 45 0 c45 0 45 0 45 35 l0 35 -80 0 c-64 0 -80 -3 -80 -15 0 -11
-11 -15 -40 -15 -29 0 -40 -4 -40 -15 0 -11 -12 -16 -42 -17 -24 -1 -5 -5 42
-8 l85 -6 -122 -2 -123 -2 0 -38 0 -37 -80 9 c-55 7 -80 14 -80 23 0 7 -4 13
-8 13 -14 0 -32 -23 -32 -40 0 -14 -12 -16 -70 -16 -51 1 -73 -3 -85 -15 -15
-15 -15 -18 -1 -32 9 -8 16 -18 16 -20 0 -2 -23 -7 -52 -10 -28 -4 -56 -11
-62 -17 -5 -5 -21 -10 -33 -10 -22 0 -32 -5 -69 -39 -11 -10 -32 -12 -92 -5
-42 4 -84 6 -92 5 -18 -4 -42 -35 -29 -39 6 -3 5 -10 -2 -18 -16 -19 -29 -18
-29 4 0 15 -9 17 -80 14 -78 -3 -82 -5 -79 -38 1 -13 -51 -44 -75 -44 -15 0
-31 -8 -38 -20 -7 -11 -19 -20 -26 -20 -26 0 -82 -40 -82 -60 0 -6 -8 -14 -17
-17 -10 -4 -32 -22 -51 -40 -27 -27 -40 -33 -77 -33 -30 0 -44 -4 -43 -12 2
-6 -6 -14 -17 -16 -11 -2 -28 -11 -37 -20 -10 -8 -18 -11 -18 -5 0 6 -12 8
-26 5 l-27 -5 24 -18 c24 -18 24 -19 -52 -19 -63 0 -79 -3 -94 -20 -14 -16
-31 -20 -75 -20 -47 0 -60 -4 -71 -21 -13 -18 -24 -21 -87 -20 -39 0 -72 -4
-72 -9 0 -5 -35 -10 -77 -12 -72 -3 -78 -5 -81 -25 l-3 -23 -282 -2 c-160 -1
-254 -4 -217 -8 36 -4 55 -7 43 -8 -13 -1 -23 -9 -23 -17 0 -11 -12 -15 -50
-15 -39 0 -53 -4 -62 -20 -14 -22 -53 -27 -64 -8 -4 7 -3 8 4 4 7 -4 12 -1 12
7 0 35 -120 55 -156 26 -6 -5 -100 -10 -208 -11 l-198 -2 6 -30 6 -29 -25 29
c-25 28 -26 28 -40 10 -11 -15 -15 -16 -19 -5 -15 51 -12 49 -93 50 -96 2
-102 1 -131 -13 -18 -9 -28 -9 -45 1 -11 8 -44 17 -72 21 -45 7 -47 8 -12 9
l37 1 0 88 c0 60 -3 82 -10 72 -7 -11 -10 -11 -10 -2 0 7 -5 10 -12 6 -6 -4
-8 -3 -5 3 4 6 -5 21 -19 34 -18 17 -27 20 -33 11 -6 -10 -14 -9 -39 4 -32 15
-55 13 -99 -8 -23 -11 -32 -48 -13 -48 6 0 5 -8 -2 -20 -9 -14 -24 -20 -50
-20 -21 0 -38 5 -38 10 0 6 18 10 40 10 22 0 40 5 40 10 0 6 -21 10 -46 10
l-46 0 4 63 3 62 -32 -3 c-23 -3 -33 -10 -36 -26 -3 -11 -4 -3 -4 19 l2 40
-205 -3 c-113 -2 -213 -5 -222 -8 -10 -3 -18 -1 -18 5 0 7 45 11 128 12 70 1
130 1 135 0 4 0 7 17 7 39 l0 40 -47 1 c-27 0 -42 3 -35 6 6 2 12 18 12 34 0
29 -1 30 -72 43 -12 3 -15 -1 -10 -13 3 -9 10 -20 16 -24 8 -6 7 -10 -1 -14
-7 -2 -13 -11 -13 -19 0 -11 -23 -14 -122 -12 -100 2 -107 3 -40 5 75 4 82 5
82 25 0 20 -4 20 -92 14 -51 -3 -111 -8 -133 -12 -22 -3 -53 0 -70 6 -29 12
-30 12 -7 21 18 7 22 16 22 54 0 40 3 45 23 46 12 0 16 3 10 6 -7 2 -13 11
-13 19 0 9 -11 14 -30 14 -23 0 -30 -4 -30 -20 0 -17 -7 -20 -40 -20 -39 0
-40 1 -40 34 l0 34 -74 7 -75 7 -3 41 c-3 42 -3 42 -45 45 -40 3 -43 5 -43 33
l0 29 -74 0 c-68 0 -74 -2 -80 -22 -12 -48 -12 -48 114 -48 l120 0 0 -40 0
-40 -40 0 c-39 0 -40 1 -40 36 l0 37 -107 -5 c-60 -3 -133 -3 -163 0 l-55 7
45 6 45 6 -42 1 c-31 2 -43 6 -43 17 0 12 -16 15 -80 15 -64 0 -80 3 -80 15 0
11 -11 15 -39 15 -22 0 -42 4 -45 8 -3 5 14 8 37 8 l42 -1 0 108 c0 60 -1 104
-3 98 -2 -6 -16 -11 -32 -11 -19 0 -30 -6 -33 -17 -2 -10 -3 -6 -1 10 3 26 2
27 -40 27 l-44 0 -1 -107 c-1 -59 -4 -109 -7 -112 -2 -2 -4 32 -4 77 l0 82
-35 0 c-34 0 -35 1 -35 40 0 39 -1 40 -35 40 -19 0 -35 5 -35 10 0 6 16 10 35
10 19 0 35 -4 35 -10 0 -5 9 -10 20 -10 11 0 20 5 20 10 0 6 7 10 15 10 10 0
15 10 15 31 l0 30 -77 -1 c-43 -1 -98 -1 -122 -1 l-43 1 7 74 6 73 -56 5 c-43
4 -59 10 -71 26 -25 36 -34 26 -36 -40 -1 -50 -2 -54 -5 -21 -4 40 -6 43 -34
43 -28 0 -29 2 -29 44 0 44 -12 66 -25 46 -3 -5 -1 -10 4 -10 6 0 11 -16 11
-35 l0 -35 -80 0 c-79 0 -80 0 -80 25 0 23 -4 25 -40 25 -73 0 -41 16 55 27
98 12 123 19 108 34 -10 10 -203 -11 -203 -23 0 -4 -18 -8 -40 -8 -29 0 -40 4
-40 15 0 18 -2 19 -45 1 -19 -8 -35 -11 -35 -5 0 5 -18 9 -40 9 -27 0 -40 -4
-40 -14 0 -9 -20 -15 -61 -20 -92 -9 -106 -8 -114 12 -5 14 -4 15 6 5 15 -15
89 -17 89 -3 0 6 -12 10 -27 10 -35 0 -106 25 -110 37 -2 6 -26 8 -53 5 -32
-3 -50 -1 -50 6 0 6 19 13 43 15 l42 4 -47 0 c-31 -1 -54 5 -66 16 -26 23 -52
22 -52 -3 0 -17 -7 -20 -40 -20 -38 0 -40 2 -40 30 0 28 -2 30 -40 30 -38 0
-40 -2 -40 -30 l0 -30 -117 1 c-65 1 -110 3 -100 6 21 6 24 53 2 53 -8 0 -15
8 -16 18 0 9 -3 12 -5 6 -3 -6 -16 -9 -30 -6 -16 3 -30 -1 -36 -9 -7 -11 -11
-11 -15 -1 -2 7 -22 12 -44 12 -32 0 -39 -3 -39 -20 0 -11 -4 -20 -10 -20 -5
0 -10 9 -10 20 0 11 5 20 10 20 6 0 10 9 10 20 0 11 -3 20 -7 20 -18 0 -33 59
-33 126 0 67 2 73 23 77 12 3 2 5 -23 5 -72 0 -82 1 -76 11 3 5 -6 12 -20 15
-16 4 -24 12 -21 21 8 19 -38 33 -93 28 -25 -1 -97 -5 -160 -7 -63 -2 -133 -7
-155 -10 -22 -3 -80 -8 -130 -10 -88 -4 -218 -17 -381 -36 -44 -6 -107 -10
-140 -10 -51 0 -223 -17 -359 -36 -35 -5 -273 -15 -349 -15 -38 0 -41 5 -26
41 15 37 78 59 118 40 18 -8 28 -8 36 0 8 8 6 9 -6 5 -12 -5 -18 -2 -18 8 0 8
-6 18 -12 20 -8 3 -6 6 4 6 21 1 68 47 68 66 0 11 12 15 40 15 29 0 40 -4 40
-15 0 -19 14 -19 30 0 10 12 10 15 -1 15 -11 0 -13 16 -9 77 5 74 6 77 33 80
19 3 27 -1 27 -11 0 -8 6 -17 13 -20 10 -5 10 -7 0 -12 -12 -5 -20 -124 -9
-124 24 0 36 17 36 50 0 27 5 40 17 45 10 3 19 1 21 -4 2 -6 19 -11 38 -11 34
0 34 0 36 48 l1 47 7 -45 c4 -25 8 -39 8 -32 1 6 9 12 17 12 18 0 21 46 3 53
-7 3 -3 6 10 6 19 1 22 6 22 41 0 22 -4 40 -10 40 -5 0 -10 15 -10 34 0 24 -5
36 -17 39 -10 3 -3 5 15 6 41 1 52 25 23 50 -11 10 -21 21 -21 25 0 3 26 7 58
8 42 1 47 2 20 5 -25 3 -38 9 -38 19 0 8 -9 14 -20 14 -22 0 -27 -15 -7 -23 6
-3 -3 -6 -20 -6 -31 -1 -33 1 -33 34 0 34 -1 35 -40 35 l-40 0 0 40 c0 33 3
40 20 40 16 0 20 7 20 35 0 22 -5 35 -13 35 -7 0 -20 9 -30 20 -12 14 -29 20
-57 20 -45 0 -58 26 -17 34 12 3 31 7 42 9 14 3 12 5 -7 6 -26 1 -28 4 -29 49
0 26 -3 42 -5 37 -2 -6 -22 -9 -44 -7 -39 4 -40 5 -40 43 0 39 0 39 -41 39
l-41 0 7 -79 c4 -44 4 -117 0 -164 -7 -84 -7 -84 -33 -79 -33 7 -52 25 -52 51
0 11 -4 23 -10 26 -13 8 -13 45 -1 45 5 0 12 -10 14 -22 2 -13 5 -4 6 20 1 34
-2 42 -16 43 -11 0 -13 3 -5 6 25 10 8 51 -28 66 -9 3 -4 6 13 6 32 1 36 25 7
49 -14 13 -20 32 -21 72 -2 53 -12 80 -30 80 -5 0 -9 -7 -9 -15 0 -11 -11 -15
-39 -15 -22 0 -41 -5 -43 -11 -2 -7 -17 -8 -38 -4 -34 6 -35 8 -32 46 4 37 6
39 41 41 l36 1 -37 4 c-31 4 -38 9 -43 33 -4 16 -15 32 -26 35 -15 5 -19 16
-19 56 0 37 4 49 15 49 17 0 20 52 9 159 -6 50 -10 61 -25 61 -15 0 -19 -8
-19 -40 0 -22 -4 -40 -10 -40 -5 0 -10 18 -10 41 0 33 -3 40 -16 35 -9 -3 -27
-6 -40 -6 -24 0 -24 -1 -24 -105 l0 -105 40 0 c29 0 40 -4 40 -15 0 -21 -78
-21 -86 0 -4 8 -12 15 -20 15 -11 0 -14 23 -14 110 l0 110 48 0 c75 0 74 -1
80 169 3 83 8 151 13 151 13 0 56 46 61 67 4 16 0 18 -39 14 l-43 -3 0 41 0
41 39 0 c23 0 41 -5 43 -12 2 -10 20 -11 83 -2 61 9 70 12 38 13 -24 0 -43 5
-43 9 0 5 24 8 53 6 28 -1 69 2 89 7 38 10 55 10 433 10 244 -1 732 6 1080 14
116 3 399 8 630 11 231 3 476 7 545 9 69 2 262 7 430 10 168 3 413 11 545 17
132 6 271 12 308 14 88 3 100 14 16 15 -35 0 -73 4 -84 9 -19 7 -19 8 5 18 14
5 26 6 28 1 2 -5 21 -9 42 -9 34 0 38 3 38 26 0 24 -3 26 -44 22 -39 -3 -44
-1 -44 17 0 12 3 16 8 8 4 -6 42 -13 87 -16 44 -3 89 -6 100 -7 34 -5 55 0 55
11 0 6 -10 10 -22 9 -43 -4 -58 0 -58 15 0 10 -10 15 -27 15 -21 0 -24 3 -13
10 13 8 13 10 0 14 -8 3 -161 10 -340 16 -179 6 -424 15 -545 20 -281 13 -427
18 -810 25 -170 4 -323 8 -340 10 -16 2 -138 7 -270 10 -132 4 -287 8 -345 10
-58 2 -211 7 -340 10 -129 3 -252 10 -274 15 -21 4 -53 6 -72 3 -27 -4 -34 -2
-34 11 0 9 -7 16 -15 16 -8 0 -15 -4 -15 -10 0 -5 -23 -10 -51 -10 -31 0 -48
4 -44 10 4 6 -8 10 -29 10 -25 0 -36 4 -36 15 0 11 11 15 39 15 33 0 40 -4 44
-22 3 -16 5 -13 6 10 0 19 5 31 11 27 6 -3 13 1 16 9 3 9 12 16 19 16 8 0 15
24 19 71 8 79 3 89 -48 89 -16 0 -27 3 -23 6 3 4 27 3 52 0 45 -7 45 -8 45
-47 0 -24 -5 -39 -12 -40 -10 0 -10 -2 0 -6 6 -2 12 -11 12 -19 0 -9 11 -14
30 -14 l30 0 0 60 0 60 30 0 c29 0 30 1 30 48 -1 35 -7 54 -25 75 -13 15 -27
27 -30 27 -3 0 -5 -16 -5 -35 0 -34 -1 -35 -40 -35 l-40 0 0 40 c0 39 1 40 35
40 l35 0 2 83 2 82 6 -85 6 -85 2 76 c2 88 -12 129 -45 129 -14 0 -23 -6 -23
-15 0 -8 -4 -15 -10 -15 -5 0 -10 7 -10 15 0 11 -11 15 -39 15 -33 0 -40 4
-44 23 -2 12 -5 3 -6 -20 -1 -43 -1 -43 37 -45 36 -1 36 -1 5 -5 l-32 -4 -4
-82 -3 -82 -2 88 -2 87 -75 0 -75 0 0 75 c0 43 -4 76 -10 76 -5 1 -14 3 -20 4
-5 1 -19 3 -30 4 -18 1 -20 8 -20 81 0 47 4 80 10 80 6 0 10 -31 10 -74 0 -83
-2 -82 83 -85 l57 -2 0 40 0 41 -40 0 -40 0 0 46 0 47 -64 -7 c-69 -7 -96 -1
-96 20 0 10 -12 14 -40 14 -33 0 -40 3 -40 20 0 13 7 20 20 20 17 0 20 7 20
40 0 33 -3 40 -20 40 -19 0 -20 7 -20 120 l0 120 -40 0 c-33 0 -40 -3 -40 -20
0 -13 -7 -20 -20 -20 -11 0 -20 4 -20 8 0 18 -54 32 -125 32 -43 0 -75 4 -75
10 0 11 42 12 118 1 l52 -7 0 78 0 78 -45 0 c-25 0 -45 -4 -45 -10 0 -5 18
-10 40 -10 33 0 40 -3 40 -20 0 -17 -7 -20 -40 -20 -22 0 -40 -4 -40 -10 0 -5
18 -10 40 -10 75 0 41 -16 -37 -17 -45 -1 -79 -6 -81 -12 -2 -6 -21 -11 -43
-11 -32 0 -39 3 -39 20 0 18 7 20 63 21 34 1 54 3 45 6 -13 3 -19 16 -20 41
l-1 37 -4 -37 c-4 -37 -5 -38 -43 -38 l-40 0 2 118 c1 79 4 102 8 72 9 -66 23
-27 18 54 -1 35 0 62 5 59 4 -2 7 -37 7 -78 0 -79 5 -86 58 -77 18 4 22 11 22
43 0 22 5 39 10 39 6 0 10 -18 10 -40 0 -22 5 -40 10 -40 6 0 10 32 10 75 0
43 -4 75 -10 75 -5 0 -10 -7 -10 -15 0 -8 -4 -15 -10 -15 -5 0 -10 6 -10 14 0
8 -10 17 -22 19 -13 2 -4 5 19 6 36 1 40 4 36 21 -5 18 -14 20 -79 20 -67 0
-74 -2 -74 -20 0 -17 -7 -20 -40 -20 l-40 0 0 40 c0 39 1 40 35 40 34 0 35 1
35 40 0 29 -4 40 -15 40 -10 0 -15 10 -15 30 0 19 -5 30 -14 30 -8 0 -17 6
-19 13 -3 6 -6 -9 -6 -34 l-1 -46 -42 1 -43 1 -3 -77 -3 -78 -69 0 -70 0 0 80
0 80 76 0 75 0 -3 38 c-3 35 -5 37 -40 40 -36 3 -38 5 -38 38 l0 34 -89 0
c-73 0 -89 3 -87 15 1 8 5 18 9 21 11 11 8 64 -4 64 -5 0 -8 -4 -5 -9 3 -5
-12 -5 -36 0 -23 6 -48 8 -57 6 -10 -3 -8 -5 7 -6 12 0 22 -6 22 -12 0 -10
-28 -8 -83 6 -15 4 -41 20 -58 36 -28 26 -38 29 -96 29 -35 0 -72 4 -82 10
-10 5 -43 11 -72 14 -107 10 -161 19 -149 26 7 4 -41 13 -107 19 -194 20 -212
23 -183 31 l25 7 -25 6 c-14 3 -60 8 -103 11 -43 3 -86 10 -97 16 -10 5 -38
10 -62 10 -24 0 -61 5 -83 11 -22 6 -62 14 -90 19 -27 4 -76 13 -108 20 -48
11 -60 11 -67 0 -6 -9 -12 -10 -26 -1 -18 10 -18 10 3 11 12 0 24 4 27 9 3 5
20 7 38 6 18 -2 87 -6 153 -9 66 -3 144 -10 172 -16 29 -5 110 -14 180 -20 71
-5 209 -19 308 -30 99 -12 225 -25 280 -31 55 -6 136 -15 180 -21 44 -5 103
-12 130 -14 28 -2 82 -8 120 -14 39 -5 99 -12 135 -15 36 -3 112 -12 170 -20
166 -22 531 -62 648 -70 34 -2 79 -9 100 -14 32 -8 72 -11 232 -13 14 0 28 -4
31 -9 3 -6 32 -9 65 -9 63 1 71 1 178 -2 46 -1 71 2 74 10 5 15 -37 16 -72 2
-34 -12 -86 -2 -86 17 0 10 -6 13 -16 9 -10 -4 -14 -1 -12 6 3 8 26 14 56 16
44 3 52 6 52 23 0 12 7 19 19 19 10 0 46 3 80 6 l61 7 0 -37 c0 -43 5 -44 42
-9 22 21 28 36 28 70 0 42 0 43 -35 43 -28 0 -35 4 -35 20 0 16 7 20 34 20 24
0 36 -5 39 -17 3 -10 5 -3 6 15 1 31 3 32 41 32 29 0 40 -4 40 -15 0 -18 12
-19 28 -3 16 16 15 28 -3 28 -8 0 -15 8 -15 19 0 10 -3 46 -6 80 l-7 61 42 0
c40 0 41 1 41 35 0 34 1 35 43 37 l42 1 -42 4 c-62 6 -53 23 11 23 55 0 106
13 106 27 0 9 -48 33 -67 33 -7 0 -13 4 -13 9 0 6 12 6 32 0 18 -5 45 -9 60
-9 25 0 28 -4 28 -31 0 -18 4 -28 10 -24 6 3 13 -1 16 -10 5 -13 9 -14 15 -4
4 7 20 14 34 15 15 0 31 7 35 14 7 11 21 11 77 2 37 -7 113 -16 168 -22 55 -5
129 -14 165 -20 36 -6 99 -15 140 -20 41 -5 107 -14 145 -20 39 -6 104 -15
145 -20 41 -5 100 -14 130 -19 97 -16 160 -20 160 -9 0 7 27 8 80 3 l80 -7 0
46 0 46 40 0 40 0 0 -40 c0 -36 -2 -40 -25 -40 -38 0 -30 -17 11 -23 39 -7 67
0 58 14 -5 9 3 10 79 13 29 1 32 4 35 38 3 36 2 37 -35 40 -21 2 15 2 81 -1
l118 -4 -4 41 -4 42 83 0 83 0 0 -40 0 -40 40 0 40 0 1 113 c1 61 4 150 7 197
l7 85 39 3 38 3 -7 75 c-5 51 -3 74 4 74 6 0 11 -7 11 -15 0 -10 10 -15 30
-15 28 0 30 -2 30 -40 0 -38 2 -40 30 -40 20 0 30 5 30 15 0 8 6 15 13 16 10
0 10 2 0 6 -8 2 -13 22 -13 44 0 37 -2 39 -30 39 -28 0 -30 2 -30 40 0 33 3
40 20 40 17 0 20 7 20 40 0 29 4 40 15 40 12 0 15 15 15 74 l0 74 -31 7 c-18
4 -34 16 -39 28 -8 19 -9 20 -9 3 -1 -15 -3 -16 -16 -6 -9 8 -12 16 -6 19 6 4
4 13 -3 24 -10 13 -29 17 -90 18 -42 1 -76 5 -76 9 0 5 -9 12 -20 15 -21 7
-28 40 -10 48 6 3 5 4 -2 3 -7 -2 -26 4 -43 12 -27 14 -72 22 -132 22 -11 0
-24 7 -27 15 -3 8 -14 15 -25 15 -25 0 -32 12 -21 30 8 12 13 13 30 3 11 -7
27 -13 35 -13 8 0 15 -4 15 -10 0 -13 57 -13 65 1 5 7 15 4 32 -6 16 -11 52
-18 97 -20 85 -4 176 -20 232 -41 22 -8 44 -14 50 -13 5 1 34 -1 64 -4 30 -4
69 -9 85 -10 17 -2 38 -7 48 -10 9 -4 25 -10 35 -14 9 -3 26 -8 37 -10 98 -17
124 -21 149 -22 16 -1 35 -6 42 -12 8 -6 14 -8 14 -4 0 4 6 3 13 -3 17 -14
149 -52 159 -46 9 6 133 -23 160 -37 9 -5 43 -13 75 -18 32 -5 105 -17 163
-26 116 -19 153 -20 158 -5 2 6 8 7 14 4 6 -4 5 -10 -3 -15 -22 -13 -6 -18 34
-10 20 5 35 5 32 1 -3 -4 16 -5 40 -2 48 5 56 -2 28 -25 -17 -13 -16 -14 4
-10 15 3 20 1 16 -9 -4 -11 5 -14 36 -14 40 0 41 1 41 36 l0 36 43 -3 42 -4
-3 83 c-3 74 -2 82 15 82 10 0 24 9 31 20 14 24 32 26 32 5 0 -11 12 -16 43
-17 l42 -1 -42 -4 -43 -4 0 -45 c0 -37 3 -44 20 -44 11 0 20 -7 20 -15 0 -22
37 -18 43 5 3 10 0 21 -7 24 -6 2 10 5 37 5 35 1 47 5 47 16 0 11 11 15 41 15
l42 0 -7 38 c-3 20 -6 46 -6 58 0 18 -5 21 -40 19 -21 -1 -37 2 -34 7 3 4 23
8 45 8 37 0 39 1 39 33 0 62 9 77 46 77 27 0 34 4 34 20 0 19 7 20 199 20
l200 0 3 -32 c3 -32 4 -33 66 -41 69 -10 92 -5 92 18 0 11 -11 15 -40 15 -33
0 -40 3 -40 20 0 17 8 20 83 23 45 1 100 3 122 3 l40 1 -42 -4z m-12020 -733
l177 0 0 -405 0 -405 -405 0 -405 0 0 118 c-1 219 -1 647 0 672 l0 25 227 -2
c126 -2 308 -3 406 -3z m1613 -115 c1 -45 11 -55 55 -55 l39 0 0 -285 0 -285
-72 6 c-40 4 -124 14 -185 23 l-113 17 0 -43 c0 -24 -3 -43 -7 -43 -5 0 -37
24 -73 53 l-65 53 -5 293 c-3 161 -3 295 -1 297 3 2 100 3 215 2 l211 -3 1
-30z m-1786 -2060 l5 -30 150 0 c83 0 156 -4 163 -8 9 -6 12 -76 12 -293 l0
-284 -165 0 -165 0 0 -35 c0 -42 -4 -42 -130 -20 -115 20 -110 21 -110 -25 l0
-40 -110 0 -110 0 0 110 c0 67 4 110 10 110 6 0 10 87 10 240 l0 239 38 7
c147 28 360 62 377 61 14 -1 21 -11 25 -32z m1788 -48 c3 -33 7 -39 33 -44 16
-3 28 -7 26 -10 -3 -2 -53 3 -113 12 -60 9 -127 18 -149 21 -22 2 -58 7 -80
10 -31 4 -36 2 -23 -6 37 -23 169 -59 254 -70 49 -6 99 -13 111 -15 18 -4 22
0 26 27 2 18 5 -98 5 -259 l2 -291 -32 8 c-18 5 -42 11 -53 13 -11 3 1 3 28 0
44 -3 47 -2 47 21 0 22 -5 25 -52 31 -29 3 -61 9 -70 11 -14 4 -18 -1 -18 -18
0 -13 5 -29 12 -36 9 -9 9 -12 0 -12 -7 0 -12 -13 -12 -30 0 -16 -2 -30 -4
-30 -2 0 -49 16 -105 35 -55 19 -103 35 -106 35 -3 0 -5 -11 -5 -25 0 -33 -13
-32 -69 9 -90 66 -84 39 -83 363 1 159 2 289 2 291 0 1 96 1 213 0 l212 -3 3
-38z m4371 -563 l31 -6 0 -79 c0 -44 -3 -78 -7 -78 -23 4 -33 -3 -33 -21 0
-14 7 -20 24 -20 30 0 58 -29 30 -31 -14 -1 -13 -3 6 -9 32 -10 -71 -13 -159
-4 l-61 7 0 57 c0 31 3 84 6 118 l7 61 36 4 c66 7 88 7 120 1z m-729 -885 l0
-82 -40 6 c-22 3 -43 1 -46 -4 -8 -14 -44 -11 -44 4 0 9 -2 9 -9 -1 -12 -20
-21 9 -21 69 l0 49 40 0 c31 0 40 -4 40 -17 0 -13 10 -8 37 20 21 20 39 37 40
37 2 0 3 -37 3 -81z m-3599 -545 c52 -9 110 -21 129 -28 l35 -11 -1 -100 c-2
-163 -65 -359 -145 -454 -53 -63 -134 -141 -146 -141 -6 0 -13 -4 -15 -8 -1
-4 -19 -18 -39 -30 l-36 -22 -59 40 c-32 21 -71 48 -86 60 l-28 22 0 -61 0
-61 -110 0 -110 0 0 110 0 110 69 0 69 0 -38 74 c-48 96 -90 268 -90 369 0 86
10 102 68 113 196 37 384 43 533 18z m-1730 -71 c1 -5 2 -21 3 -36 1 -33 20
-47 64 -47 l32 0 0 -285 0 -286 -75 7 -75 7 0 -32 c0 -17 -2 -31 -4 -31 -2 0
-47 16 -100 35 -53 19 -101 35 -106 35 -6 0 -10 -11 -10 -24 0 -14 -3 -27 -7
-29 -5 -3 -37 19 -73 48 l-65 52 -5 292 c-3 161 -3 295 -1 297 8 7 421 4 422
-3z m-925 -920 l8 -38 10 38 c12 46 32 48 44 5 10 -34 12 -32 28 20 2 6 14 12
28 12 19 0 25 -7 32 -37 l8 -38 10 38 c12 46 38 47 47 2 6 -30 9 -28 24 20 2
8 15 15 29 15 19 0 25 -7 32 -37 l8 -38 10 38 c12 44 34 49 42 7 7 -32 24 -32
24 0 0 18 17 36 26 28 7 -8 -26 -108 -36 -108 -6 0 -16 15 -23 33 l-14 32 -7
-32 c-11 -47 -34 -41 -48 12 -7 25 -15 45 -18 45 -3 0 -11 -20 -18 -45 -15
-55 -37 -59 -47 -7 l-8 37 -10 -37 c-12 -52 -34 -48 -48 7 -6 25 -14 45 -18
45 -4 0 -12 -20 -19 -45 -14 -53 -36 -59 -47 -12 l-7 32 -11 -32 c-15 -48 -34
-40 -52 19 -18 62 -18 58 -1 58 8 0 17 -16 22 -37z m2577 -1189 c95 -31 176
-60 180 -64 5 -4 -3 -81 -17 -171 -15 -90 -34 -209 -42 -264 l-16 -101 -100
-34 -100 -33 -141 46 -142 46 -37 267 c-29 208 -35 270 -25 276 6 4 64 24 127
44 63 19 120 37 125 39 6 2 12 4 13 4 2 1 81 -24 175 -55z m-1658 6 c4 -6 7
-24 7 -40 1 -26 5 -30 37 -36 20 -3 42 -7 49 -9 9 -3 12 -69 12 -286 l0 -281
-75 7 c-75 7 -75 7 -75 -17 0 -14 -3 -27 -6 -31 -3 -3 -48 10 -100 29 -52 19
-99 34 -104 34 -6 0 -10 -11 -10 -25 0 -36 -17 -31 -87 26 l-63 49 0 295 0
295 204 0 c128 0 207 -4 211 -10z m8982 -1714 c12 -15 31 -26 42 -26 16 0 60
-15 79 -26 2 -1 3 -71 3 -155 l0 -154 -30 -14 c-28 -13 -45 -12 -186 14 l-155
29 0 127 0 127 29 5 c21 5 30 13 34 36 4 16 17 39 29 51 33 31 123 23 155 -14z
m-1697 -25 c47 -37 60 -65 60 -128 l0 -53 -110 0 c-100 0 -110 -2 -110 -18 0
-53 88 -72 173 -37 14 6 17 1 17 -33 0 -36 -3 -41 -31 -51 -73 -25 -160 -9
-202 37 -45 50 -39 156 11 199 34 29 40 29 34 -2 -4 -24 -3 -25 58 -25 59 0
61 1 55 23 -10 33 -34 47 -79 47 -40 0 -61 -10 -125 -58 -35 -26 -37 -24 -17
21 18 43 72 95 110 107 50 15 116 3 156 -29z m-1835 1 c11 -1 35 -4 53 -8 21
-4 32 -2 32 5 0 6 8 11 17 11 9 0 14 -3 11 -6 -4 -3 3 -15 14 -26 14 -14 19
-29 16 -49 -3 -17 -1 -32 4 -35 4 -3 8 6 8 20 0 14 5 26 10 26 6 0 10 10 11
23 l0 22 10 -23 c10 -26 3 -46 -12 -37 -5 4 -9 -5 -9 -18 0 -14 -7 -27 -15
-31 -8 -3 -15 -10 -15 -16 0 -6 4 -9 8 -6 5 3 22 1 38 -4 24 -7 25 -8 7 -9
-16 -1 -23 -7 -23 -20 0 -21 17 -37 28 -26 3 3 0 10 -7 14 -8 5 -9 11 -3 15
17 10 24 -28 8 -40 -20 -14 -21 -28 -1 -20 8 3 15 2 15 -3 0 -15 -13 -20 -31
-11 -12 7 -20 7 -24 0 -4 -6 -11 -8 -16 -5 -5 4 -9 1 -9 -5 0 -6 -4 -8 -10 -5
-6 3 -7 -1 -4 -9 4 -10 1 -16 -8 -16 -21 0 -54 -27 -45 -36 4 -5 12 -2 17 6
12 20 46 20 46 0 0 -12 -10 -16 -43 -16 -44 0 -51 4 -32 23 8 8 8 13 0 17 -6
4 -11 2 -11 -3 0 -6 -5 -11 -11 -11 -5 0 -8 4 -4 9 3 5 -4 13 -16 16 -12 4
-18 12 -15 21 3 8 0 17 -7 20 -8 3 -14 24 -16 49 -2 41 0 45 21 46 23 1 23 1
-2 9 -15 5 -18 8 -9 9 21 1 32 42 20 73 -6 16 -4 27 6 37 8 7 11 16 8 20 -4 3
-15 -4 -24 -16 l-18 -22 -1 32 c0 17 2 27 6 21 4 -6 16 -11 27 -12z m2581 -7
c13 -10 45 -14 105 -15 61 0 90 -4 98 -14 8 -9 11 -53 9 -132 l-3 -118 -52
-11 c-28 -7 -58 -8 -65 -4 -7 5 -62 8 -123 6 -60 -1 -116 2 -122 6 -18 11 -18
268 -1 285 17 17 130 15 154 -3z m9744 -115 l0 -110 -46 0 c-38 0 -50 -5 -73
-30 -31 -34 -50 -33 -76 6 -11 18 -25 24 -50 24 l-35 0 0 110 0 110 140 0 140
0 0 -110z m-16630 80 c13 0 13 1 0 10 -12 7 -11 9 6 8 16 -2 21 -9 21 -28 0
-39 14 -80 28 -80 7 0 19 7 26 17 13 15 12 15 -8 4 -19 -10 -22 -9 -17 4 7 16
14 18 38 9 9 -3 13 -10 10 -15 -3 -5 0 -9 5 -9 6 0 11 4 11 8 0 4 9 8 19 8 11
0 17 -4 14 -9 -3 -5 0 -7 8 -5 8 3 13 10 12 15 -1 5 5 10 13 10 8 0 14 -5 14
-11 1 -6 8 5 17 24 l17 35 4 -30 c2 -16 13 -38 25 -47 l22 -18 -24 -7 c-24 -6
-24 -6 -3 -14 29 -11 28 -29 0 -30 -13 0 -17 -3 -9 -6 10 -4 10 -7 1 -13 -8
-5 -5 -9 9 -13 11 -3 20 -2 19 2 -5 18 15 52 28 47 8 -3 14 -1 14 3 0 5 10 7
23 4 22 -5 22 -5 2 10 -11 8 -22 12 -25 8 -8 -11 -40 -22 -40 -13 0 4 7 18 16
30 11 17 22 21 42 17 26 -5 26 -5 4 5 -13 5 -28 8 -32 5 -5 -3 -11 -1 -15 5
-9 15 60 8 74 -7 7 -7 9 -13 5 -13 -4 0 1 -9 11 -20 10 -11 15 -20 10 -20 -4
0 -2 -6 4 -14 9 -11 9 -15 -1 -19 -9 -4 -9 -6 -1 -6 19 -1 27 20 12 30 -8 5
-10 9 -5 9 5 0 1 9 -9 20 -17 19 -17 20 0 27 18 6 18 7 -1 14 -11 4 -1 6 26 4
63 -4 62 -4 56 -13 -3 -5 4 -8 15 -7 11 1 24 7 29 14 5 9 10 10 14 2 4 -6 2
-11 -3 -11 -6 0 -11 -5 -11 -12 0 -9 3 -9 11 -1 6 6 18 9 25 6 8 -3 14 1 14 8
1 9 6 7 15 -5 8 -11 15 -14 15 -7 0 7 4 10 10 6 5 -3 7 -12 3 -20 -7 -20 11
-19 27 1 17 19 56 41 46 25 -8 -12 6 -15 17 -4 4 3 22 7 39 9 18 1 26 0 17 -3
-13 -3 -15 -14 -13 -49 l4 -44 -35 4 c-19 3 -35 0 -35 -5 0 -6 -6 -7 -12 -3
-8 4 -10 3 -5 -2 5 -5 12 -9 15 -9 4 0 13 -4 19 -8 9 -6 11 -3 7 7 -7 18 11
22 21 6 4 -6 11 -7 17 -4 7 5 8 2 3 -6 -5 -8 -1 -18 9 -26 15 -11 10 -12 -38
-10 -33 2 -57 -2 -59 -8 -2 -7 -10 -6 -21 3 -15 13 -19 13 -27 0 -6 -10 -9
-10 -9 -1 0 6 -7 12 -16 12 -8 0 -13 -3 -11 -7 7 -12 -46 -13 -60 -1 -8 6 -19
6 -32 -1 -12 -7 -22 -7 -25 -2 -7 10 -25 9 -42 -1 -13 -8 -68 -3 -85 8 -8 4
-9 3 -5 -4 5 -8 -1 -12 -14 -12 -12 0 -19 4 -15 9 3 5 1 12 -5 16 -5 3 -10 1
-10 -5 0 -6 -4 -9 -9 -6 -5 4 -11 0 -14 -6 -3 -9 -14 -4 -34 15 -16 15 -32 24
-36 21 -3 -4 4 -15 16 -25 12 -10 16 -18 10 -19 -7 0 -13 5 -13 10 0 6 -7 10
-16 10 -8 0 -12 -4 -9 -10 12 -19 -4 -10 -37 21 -28 26 -29 30 -10 24 13 -4
22 -2 22 4 0 6 -11 11 -24 11 -18 0 -23 -5 -23 -24 0 -18 4 -23 16 -20 9 3 5
-2 -9 -10 -30 -18 -44 -20 -34 -4 5 8 2 9 -9 5 -10 -3 -17 -2 -17 3 0 6 5 10
10 10 6 0 10 5 10 10 0 21 -20 9 -26 -15 -7 -28 -34 -34 -35 -7 0 14 -2 14 -7
2 -4 -8 -18 -16 -32 -18 -19 -2 -22 0 -10 8 13 8 13 10 -2 10 -9 0 -20 -5 -23
-11 -4 -5 -12 -8 -17 -7 -6 2 -21 -6 -34 -19 -13 -13 -31 -23 -42 -23 -10 0
-22 -4 -28 -9 -5 -4 -22 -11 -39 -14 -16 -4 -24 -4 -17 -1 6 3 9 10 6 16 -3 5
-14 2 -25 -8 -12 -10 -19 -13 -19 -5 0 6 7 14 15 17 18 7 20 41 3 47 -7 2 -10
8 -6 12 4 4 14 1 22 -8 8 -8 12 -17 9 -21 -8 -7 16 -36 31 -36 6 0 3 7 -8 15
-24 19 -12 39 14 22 15 -8 25 -9 37 -1 25 15 29 36 7 34 -41 -5 -54 1 -68 28
-10 20 -23 28 -45 30 -18 1 -31 -3 -31 -9 0 -8 -4 -8 -15 1 -10 8 -15 9 -15 2
0 -18 34 -31 52 -21 11 6 19 5 24 -2 4 -6 -1 -16 -10 -21 -13 -7 -16 -18 -12
-36 l5 -27 -12 25 c-8 16 -22 26 -40 28 -22 2 -27 0 -21 -10 6 -10 5 -11 -8
-1 -8 7 -18 10 -21 6 -4 -3 -9 2 -13 11 -3 9 -11 16 -16 16 -6 0 -8 -6 -5 -14
4 -10 0 -14 -12 -11 -9 2 -36 0 -58 -4 -54 -10 -64 -3 -58 44 3 21 2 35 -2 31
-5 -4 -8 -15 -9 -24 -4 -68 -3 -65 -20 -51 -13 10 -17 10 -25 -2 -5 -8 -9 -9
-9 -4 0 6 6 17 12 23 10 10 10 15 -2 22 -8 5 -10 10 -5 10 6 0 11 23 13 51 1
27 -2 48 -7 45 -5 -3 -11 7 -13 23 -4 27 -2 29 24 26 15 -2 28 1 28 6 0 5 8 9
18 9 14 0 15 -2 2 -10 -10 -7 0 -8 35 -5 36 4 44 3 30 -4 -11 -5 -14 -10 -7
-10 7 -1 20 -7 27 -15 12 -12 12 -15 0 -20 -8 -3 -15 -11 -15 -17 0 -7 -7 -20
-15 -29 -13 -15 -13 -17 0 -17 8 0 15 7 15 14 0 8 4 12 9 8 6 -3 8 3 6 14 -2
13 4 21 18 26 41 14 62 11 61 -7 -1 -10 3 -15 8 -12 5 3 7 12 4 20 -3 7 0 16
6 20 7 4 8 3 4 -5 -5 -8 1 -11 21 -9 16 1 34 -1 41 -6 7 -4 12 -2 12 4 0 6 5
8 11 4 6 -3 15 0 20 7 7 11 9 11 9 1 0 -10 5 -10 20 -2 16 8 18 8 14 -4 -3 -9
-9 -15 -12 -14 -21 2 -31 -4 -26 -17 4 -8 1 -15 -7 -15 -7 0 -9 -3 -6 -7 4 -3
19 6 33 20 15 15 30 25 34 22 4 -2 28 -6 54 -9 41 -4 45 -2 29 9 -13 10 -22
10 -31 3 -9 -8 -11 -7 -6 6 4 11 12 15 23 10 37 -15 79 4 64 30 -3 5 -1 6 5 2
6 -4 8 -14 5 -24 -3 -9 -3 -14 2 -10 4 4 9 19 11 33 2 19 -1 25 -11 21 -9 -3
-12 0 -8 10 4 11 9 12 16 5 6 -6 18 -11 27 -11z m1234 -2 c-2 -13 -2 -17 2
-10 3 6 18 12 32 12 21 0 24 2 12 10 -8 5 -10 10 -5 10 6 0 17 -5 25 -10 10
-6 11 -10 3 -10 -8 0 -13 -13 -13 -31 0 -21 4 -28 13 -23 13 8 -21 -36 -38
-48 -5 -4 -6 -10 -2 -14 4 -4 16 5 28 20 11 14 25 24 30 21 5 -4 9 1 9 9 0 9
5 16 10 16 6 0 9 -5 8 -12 -2 -6 5 -14 15 -16 10 -2 17 2 17 12 0 17 17 21 39
7 9 -6 10 -11 2 -15 -6 -4 -11 -2 -11 3 0 6 -5 11 -10 11 -6 0 -5 -8 2 -20 7
-11 16 -20 21 -20 4 0 5 5 2 10 -3 6 1 10 10 10 9 0 14 4 10 9 -3 5 0 13 6 17
8 4 9 3 5 -4 -5 -8 1 -12 16 -13 17 -1 18 -3 6 -6 -10 -2 -18 -9 -18 -14 0 -6
5 -7 10 -4 6 3 10 -1 10 -9 0 -9 4 -16 9 -16 5 0 12 -8 14 -17 2 -10 3 -8 2 5
-1 12 3 22 9 23 6 0 2 4 -9 8 -19 8 -19 9 6 21 29 13 46 43 43 76 -1 18 4 21
36 20 l38 -1 -3 -42 c-2 -31 1 -41 9 -34 7 6 20 4 36 -4 30 -17 40 -18 40 -4
0 5 -5 7 -12 3 -7 -4 -8 -3 -4 4 12 20 35 14 29 -8 -3 -12 0 -20 6 -20 7 0 10
4 7 9 -3 4 6 13 19 19 18 8 26 8 31 0 5 -7 2 -8 -7 -3 -8 5 -10 4 -6 0 13 -15
36 -14 30 1 -3 9 2 14 16 14 12 0 21 -5 21 -11 0 -5 -4 -7 -10 -4 -5 3 -10 1
-10 -4 0 -16 16 -13 35 5 8 9 22 13 30 10 17 -6 21 -46 5 -46 -5 0 -10 -7 -10
-15 0 -8 5 -15 10 -15 6 0 10 6 10 13 0 8 4 7 10 -3 8 -13 10 -13 10 2 0 9 9
23 20 31 11 8 18 16 15 18 -2 3 14 4 36 3 21 -1 42 3 45 7 6 11 24 2 24 -11 0
-5 -7 -6 -17 -3 -10 4 -14 2 -10 -4 10 -15 -21 -51 -31 -36 -5 8 -13 9 -22 3
-12 -8 -12 -10 4 -10 11 0 16 -3 12 -7 -4 -4 -14 -8 -22 -8 -7 0 -13 -4 -11
-10 1 -5 8 -9 14 -9 7 1 10 -2 7 -7 -3 -5 3 -9 14 -9 25 0 34 -10 21 -26 -7
-9 -6 -12 5 -10 25 4 32 17 14 27 -10 5 -16 15 -14 22 1 6 1 9 -1 4 -6 -9 -23
1 -23 14 0 5 4 9 10 9 11 0 65 52 63 61 -1 3 10 5 25 4 35 -2 72 -33 72 -60 0
-15 2 -17 9 -6 5 8 7 20 5 26 -8 19 40 44 79 42 41 -3 55 -12 32 -20 -8 -4
-15 -2 -15 3 0 6 -4 10 -10 10 -5 0 0 -15 10 -33 16 -26 17 -34 6 -34 -8 0
-12 6 -9 12 4 13 -45 31 -55 20 -3 -3 2 -13 11 -22 9 -10 17 -12 17 -6 0 6 -6
14 -12 16 -10 4 -10 6 0 6 8 1 16 -8 19 -18 4 -14 12 -19 31 -16 15 1 27 4 27
5 0 1 13 4 30 6 36 6 36 6 26 23 -7 11 -13 11 -32 -3 -13 -9 -27 -16 -31 -16
-14 0 -9 27 7 40 8 7 13 16 10 20 -9 14 16 23 28 11 9 -9 7 -10 -7 -5 -13 5
-17 4 -12 -4 10 -16 36 -15 36 1 1 7 6 5 14 -5 13 -18 32 -25 22 -9 -7 11 14
20 32 13 17 -6 17 -138 -1 -145 -11 -4 -13 8 -12 54 2 32 -2 59 -7 59 -5 0 -8
-21 -7 -47 2 -74 2 -75 -22 -62 -17 9 -20 8 -14 -2 6 -9 3 -11 -8 -6 -10 3
-17 2 -17 -3 0 -6 -5 -10 -11 -10 -5 0 -7 5 -4 10 4 7 -6 9 -29 7 -20 -2 -33
0 -30 5 3 5 13 7 21 4 8 -3 11 -1 8 4 -8 14 -21 13 -37 -3 -7 -7 -22 -12 -33
-12 -11 0 -23 -4 -26 -8 -3 -4 -11 4 -17 18 -12 25 -11 26 18 21 36 -5 42 17
8 35 -23 12 -33 4 -60 -46 -10 -18 -10 -19 5 -6 11 9 17 10 17 2 0 -6 -3 -11
-7 -12 -56 -5 -90 -4 -99 3 -8 5 -14 3 -18 -8 -4 -11 -10 -13 -19 -7 -6 5 -33
9 -59 9 -25 -1 -46 1 -45 4 3 10 -26 70 -34 70 -5 0 -10 -3 -10 -7 -9 -60 -8
-72 6 -67 11 5 12 11 5 24 -6 12 -6 21 -1 25 5 3 13 -5 17 -17 4 -15 1 -25
-12 -35 -25 -18 -46 -16 -43 5 3 34 -4 46 -10 17 -6 -27 -10 -30 -43 -30 -31
1 -41 6 -60 35 -15 23 -32 36 -48 37 l-25 1 24 -5 c18 -4 21 -7 10 -13 -7 -5
-10 -12 -6 -17 5 -4 12 -1 16 6 7 10 10 11 16 1 5 -8 1 -18 -10 -27 -11 -7
-14 -13 -9 -13 6 0 16 6 24 12 12 11 12 10 1 -5 -14 -17 -41 -24 -41 -9 0 11
-31 9 -49 -3 -11 -6 -13 -4 -7 10 5 15 4 16 -9 5 -9 -7 -18 -10 -22 -7 -3 4
-14 2 -24 -4 -13 -6 -25 -6 -39 1 -14 7 -20 7 -20 0 0 -5 7 -10 15 -10 9 0 15
-10 15 -26 0 -33 -17 -64 -35 -64 -10 0 -15 -10 -15 -29 0 -26 -4 -30 -40 -36
-49 -8 -120 3 -120 18 0 18 13 33 33 40 9 3 17 11 17 17 0 6 -4 9 -9 5 -5 -3
-12 -1 -16 5 -3 5 3 10 14 10 12 0 21 -5 21 -11 0 -5 4 -8 9 -5 4 3 6 17 3 31
-4 24 -5 24 -18 8 -12 -17 -14 -17 -33 4 -24 25 -27 37 -8 30 8 -3 13 3 13 14
0 11 -4 15 -9 10 -5 -5 -16 -7 -23 -4 -10 4 -13 0 -9 -13 5 -15 3 -14 -11 4
-9 12 -21 22 -26 22 -7 0 -6 -5 1 -13 6 -8 8 -16 5 -20 -8 -7 -35 3 -30 12 2
3 -12 7 -32 7 -21 1 -27 -1 -14 -3 22 -4 33 -43 12 -43 -5 0 -10 6 -10 14 0 8
-8 17 -17 22 -26 11 -94 14 -87 3 3 -5 0 -9 -5 -9 -6 0 -11 4 -11 9 0 5 -10
13 -21 16 -17 6 -19 9 -8 16 8 5 9 9 3 9 -19 0 -24 -12 -12 -34 8 -17 8 -19
-2 -9 -10 9 -19 9 -33 2 -15 -8 -18 -8 -12 1 6 9 2 9 -15 0 -18 -9 -24 -9 -30
0 -4 7 -10 8 -13 3 -4 -6 -20 -10 -37 -11 -18 0 -28 3 -24 9 4 7 -7 8 -31 5
-20 -3 -34 -2 -31 2 2 4 0 14 -6 22 -8 13 -9 13 -5 -1 3 -9 1 -22 -4 -30 -6
-9 -9 -10 -9 -2 0 7 -7 10 -15 7 -13 -5 -15 7 -15 76 0 69 2 81 15 76 8 -3 15
-1 15 5 0 6 5 7 10 4 6 -4 8 -10 6 -14 -7 -11 26 -7 51 7 26 15 43 15 43 2 0
-5 -6 -7 -14 -4 -8 3 -17 1 -21 -5 -3 -7 2 -11 14 -11 12 0 21 -4 21 -10 0 -5
5 -10 11 -10 8 0 8 4 1 13 -7 8 -7 18 -2 27 7 12 14 9 34 -13 14 -16 26 -32
26 -38 0 -5 4 -9 9 -9 5 0 12 -8 14 -17 2 -10 3 -8 2 4 -1 12 3 24 9 27 6 2 3
5 -6 5 -28 1 -21 14 17 32 21 10 39 13 49 7 10 -6 16 -5 16 2 0 5 5 10 11 10
8 0 8 -5 -1 -15 -7 -8 -22 -13 -34 -11 -16 3 -22 -1 -22 -14 0 -10 4 -16 8
-14 4 3 8 0 8 -5 0 -6 5 -11 11 -11 8 0 8 4 0 14 -9 11 -6 15 16 21 37 11 64
7 85 -12 16 -14 20 -12 31 19 5 14 -1 16 -36 13 l-42 -2 4 43 3 44 43 0 c39 0
43 -2 39 -22z m4026 -103 l0 -125 -115 0 -115 0 0 125 0 125 115 0 115 0 0
-125z m8870 -5 l0 -130 -230 0 -230 0 0 130 0 130 230 0 230 0 0 -130z m-1860
45 c0 -14 5 -25 10 -25 6 0 10 -11 10 -25 0 -14 -4 -25 -10 -25 -5 0 -10 -13
-10 -30 l0 -30 -120 0 -120 0 0 80 0 80 120 0 120 0 0 -25z"/>
<path d="M2623 4273 c4 -3 17 -7 30 -9 12 -1 25 -3 30 -3 8 -1 10 -63 1 -85
-3 -9 -10 -13 -15 -10 -9 5 -2 -95 12 -161 9 -47 -2 -65 -40 -65 -33 0 -51 17
-51 48 0 17 -5 22 -17 20 -10 -2 -16 -11 -14 -19 10 -39 6 -44 -37 -47 -50 -4
-69 8 -75 46 -4 25 -4 24 -6 -5 -2 -58 -78 -72 -102 -20 -29 64 -52 92 -39 49
26 -94 161 -252 214 -252 29 0 138 98 171 154 45 76 95 256 95 339 l0 27 -82
0 c-45 0 -78 -3 -75 -7z"/>
<path d="M18490 380 l0 -100 34 0 c19 0 42 -7 50 -16 9 -8 16 -12 16 -7 0 4 5
0 11 -10 10 -17 12 -16 30 8 17 21 29 25 70 25 l49 0 0 100 0 100 -130 0 -130
0 0 -100z"/>
<path d="M7170 355 l0 -115 105 0 105 0 0 115 0 115 -105 0 -105 0 0 -115z"/>
<path d="M15820 350 l0 -110 210 0 210 0 0 110 0 110 -210 0 -210 0 0 -110z"/>
<path d="M14170 340 l0 -60 105 0 105 0 0 60 0 60 -105 0 -105 0 0 -60z"/>
<path d="M1160 680 l285 -5 -285 -5 c-157 -3 741 -5 1995 -5 1254 0 2028 2
1720 5 l-560 5 565 5 c311 3 -463 5 -1720 5 -1257 0 -2157 -2 -2000 -5z"/>
<path d="M1187 487 c2 -4 6 -18 9 -32 3 -18 1 -23 -10 -19 -7 3 -25 -5 -40
-18 -23 -20 -27 -32 -30 -90 -3 -74 -2 -78 34 -96 15 -7 17 -10 5 -7 -16 5
-17 4 -8 -6 10 -10 17 -9 32 5 11 10 28 16 38 13 14 -4 14 -5 -4 -6 -27 -1
-32 -31 -5 -31 14 0 15 2 2 10 -12 8 -9 10 13 10 16 0 26 -4 23 -9 -4 -5 4 -6
16 -3 19 5 20 7 5 10 -9 2 -15 8 -12 13 4 5 13 5 23 0 11 -6 23 -5 35 4 16 11
16 13 2 19 -11 4 -14 2 -9 -6 5 -7 3 -8 -6 -3 -9 6 -11 4 -5 -6 5 -8 4 -10 0
-6 -12 10 -15 38 -4 31 12 -7 12 9 -1 22 -6 6 -6 15 0 24 7 11 10 11 10 2 0
-7 5 -10 12 -6 7 4 8 3 4 -4 -12 -19 12 -14 24 6 11 16 11 16 6 0 -3 -10 -1
-18 4 -18 6 0 11 5 11 10 6 43 4 78 -5 95 -5 11 -11 26 -12 34 -2 7 -7 18 -13
24 -14 14 -43 18 -35 6 3 -5 9 -7 14 -4 5 3 14 -4 20 -15 12 -22 1 -27 -19 -7
-10 10 -11 9 -6 -4 4 -10 2 -20 -3 -23 -5 -3 -8 6 -6 19 1 14 -2 27 -6 30 -5
3 -6 13 -3 22 5 13 1 15 -20 11 -15 -3 -25 -2 -22 2 2 3 -11 6 -30 6 -18 -1
-31 -4 -28 -9z"/>
</g>
</svg>
