<?xml version="1.0" standalone="no"?>
<!DOCTYPE svg PUBLIC "-//W3C//DTD SVG 20010904//EN"
 "http://www.w3.org/TR/2001/REC-SVG-20010904/DTD/svg10.dtd">
<svg version="1.0" xmlns="http://www.w3.org/2000/svg"
 width="1920.000000pt" height="1080.000000pt" viewBox="0 0 1920.000000 1080.000000"
 preserveAspectRatio="xMidYMid meet">
<metadata>
Created by potrace 1.15, written by Peter Selinger 2001-2017
</metadata>
<g transform="translate(0.000000,1080.000000) scale(0.100000,-0.100000)"
fill="#000000" stroke="none">
<path d="M0 5400 l0 -5400 4345 0 c4338 0 4345 0 4345 20 0 20 7 20 355 20
348 0 355 0 355 -20 0 -20 7 -20 4900 -20 l4900 0 0 5400 0 5400 -9600 0
-9600 0 0 -5400z m1030 5205 l75 -75 0 -273 0 -272 -271 -3 -271 -2 -2 65 -2
65 166 0 165 0 -2 218 -3 217 -215 5 c-118 3 -191 7 -162 8 l52 2 1 45 c1 25
3 50 4 55 1 6 3 12 4 15 0 3 88 5 194 5 l193 0 74 -75z m1640 -5 c0 -38 2 -40
29 -40 64 0 61 15 61 -291 l0 -279 -42 6 c-51 8 -62 14 -25 14 25 0 27 3 27
38 0 38 -1 38 -50 48 -45 10 -50 9 -50 -8 0 -10 5 -18 10 -18 12 0 9 -22 -5
-32 -6 -5 -4 -12 5 -18 10 -6 11 -10 3 -10 -8 0 -13 -13 -13 -30 0 -38 -9 -38
-102 -1 -40 15 -85 31 -100 35 -24 5 -27 3 -30 -25 l-3 -30 -67 56 -68 55 0
285 0 285 210 0 210 0 0 -40z m-2052 -220 c3 -60 5 -66 32 -82 36 -20 39 -52
8 -72 -33 -21 -79 -31 -87 -18 -5 8 -6 166 -2 235 1 5 11 7 24 5 20 -3 22 -9
25 -68z m162 -80 l0 -130 -91 0 c-57 0 -88 4 -84 10 3 6 11 10 17 10 5 0 28
14 49 31 l39 31 0 89 0 89 35 0 35 0 0 -130z m458 -2077 l2 -403 -405 0 -405
0 0 405 1 405 402 -2 402 -3 3 -402z m1432 278 l0 -38 -50 1 c-27 1 -50 4 -50
7 0 6 -156 29 -198 29 -13 0 -22 -6 -22 -15 0 -16 36 -34 67 -33 10 0 53 -5
96 -11 42 -7 83 -9 90 -5 7 4 8 3 4 -2 -5 -5 23 -13 70 -19 l78 -10 3 -243 2
-242 -22 5 c-23 4 -94 15 -252 36 -43 5 -83 6 -87 2 -4 -4 -9 -30 -11 -57 l-3
-48 -67 53 -67 54 0 288 -1 287 210 0 210 0 0 -39z m12465 -521 c37 -7 94 -20
215 -48 164 -38 233 -54 295 -66 39 -8 115 -24 170 -36 96 -20 185 -21 185 -1
0 4 34 8 76 9 43 0 80 5 83 10 6 11 58 3 161 -24 30 -8 75 -18 100 -24 70 -14
323 -100 336 -113 4 -4 15 -7 25 -7 9 0 19 -4 21 -8 4 -12 216 -113 231 -111
24 3 55 -13 67 -35 9 -19 8 -30 -5 -62 -21 -49 -24 -158 -33 -1226 -4 -432 -9
-789 -12 -792 -3 -2 -541 -6 -1195 -8 l-1190 -3 0 205 c1 113 5 516 9 897 l9
691 36 6 c20 3 113 14 206 25 94 11 220 27 280 36 133 19 295 40 430 55 55 6
129 18 165 25 36 8 125 22 198 31 73 10 127 21 121 24 -7 5 -4 10 8 14 17 7
17 8 0 17 -18 10 -105 35 -154 44 -16 2 -48 14 -71 25 -24 12 -51 19 -60 15
-8 -3 -43 7 -76 23 -34 16 -76 35 -94 42 -18 7 -30 15 -26 19 3 3 -11 11 -33
17 -23 6 -43 20 -50 35 -7 13 -19 28 -27 34 -8 6 -16 20 -18 30 -3 21 -51 54
-78 55 -9 0 -33 9 -53 19 -21 10 -47 17 -60 14 -15 -3 -18 -2 -9 4 8 7 -7 18
-53 38 -36 16 -65 33 -65 37 0 4 -16 8 -35 8 -25 0 -43 8 -65 30 -17 17 -37
30 -45 30 -8 0 -15 5 -15 11 0 7 10 9 28 5 15 -4 45 -11 67 -16z m-5515 -644
c161 -14 320 -31 490 -52 107 -14 299 -36 425 -50 127 -13 271 -29 320 -34
186 -21 509 -50 566 -52 68 -2 99 18 99 64 0 26 2 28 43 28 23 0 80 -5 127
-11 47 -6 101 -12 120 -14 48 -3 103 -15 117 -27 14 -11 180 -38 239 -38 22 0
49 -7 60 -15 10 -8 33 -14 49 -15 17 0 62 -9 100 -21 39 -11 84 -25 101 -30
17 -5 40 -9 52 -9 11 0 24 -5 28 -11 3 -6 17 -8 33 -4 14 4 31 8 36 9 6 1 16
5 23 10 7 4 27 4 45 0 17 -4 53 -7 80 -7 45 0 61 -10 35 -20 -7 -3 -4 -6 7 -6
17 -1 18 -3 5 -12 -33 -23 406 10 655 50 33 6 107 15 165 22 58 6 113 15 122
20 9 5 35 10 57 11 23 1 42 7 45 15 3 7 19 13 36 13 36 0 38 12 8 33 -18 13
-20 16 -6 16 9 1 18 -5 21 -11 3 -10 7 -10 17 -1 17 15 3 35 -20 28 -25 -8
-35 12 -12 24 26 14 78 14 202 1 58 -6 137 -10 175 -9 39 2 87 3 107 3 28 1
45 8 63 29 34 36 56 34 76 -6 13 -27 20 -32 47 -29 23 3 33 -2 42 -17 6 -12 8
-21 5 -21 -3 0 2 -14 11 -31 9 -19 12 -34 6 -38 -5 -3 -12 -57 -15 -119 -3
-62 -10 -119 -15 -125 -5 -7 -12 -28 -15 -47 -3 -19 -12 -80 -20 -135 -15 -97
-21 -228 -32 -655 -10 -403 -18 -611 -25 -615 -7 -4 -235 7 -608 31 -139 9
-273 14 -297 10 -32 -4 -45 -2 -45 7 0 8 -4 7 -10 -3 -5 -8 -10 -10 -10 -4 0
8 -83 12 -285 13 -157 1 -305 3 -328 6 -108 10 -221 16 -217 11 6 -5 371 -34
500 -39 36 -1 -65 -6 -225 -10 -159 -5 -298 -5 -307 -2 -26 10 -29 32 -29 188
0 130 -10 208 -27 206 -29 -4 -32 4 -32 80 0 70 -2 79 -20 84 -19 5 -20 0 -22
-81 l-2 -87 -5 87 c-5 78 -9 89 -36 120 -24 27 -30 41 -29 78 l1 45 -4 -42
c-3 -35 -8 -43 -24 -43 -15 0 -19 7 -19 35 0 38 0 38 -77 35 l-43 -2 0 46 0
46 40 0 c39 0 40 1 40 35 0 34 -1 35 -40 35 l-40 0 0 43 c0 34 -7 49 -35 80
-40 42 -45 44 -45 20 -1 -15 -4 -14 -20 6 -16 19 -20 38 -20 102 0 64 -3 79
-15 79 -10 0 -15 10 -15 33 0 24 -3 28 -10 17 -8 -12 -20 -4 -68 45 l-59 60
-94 -4 c-52 -2 -97 -7 -100 -13 -3 -5 -11 -2 -19 7 -10 13 -9 15 6 15 13 1 9
6 -15 19 -24 13 -47 16 -82 13 -54 -5 -87 11 -69 33 8 10 -5 11 -61 7 -53 -4
-73 -1 -79 8 -9 15 -160 23 -160 8 0 -4 4 -8 10 -8 5 0 6 -8 3 -17 -4 -11 -8
-12 -11 -5 -2 7 -21 12 -42 12 -21 0 -40 4 -42 9 -3 9 -38 19 -83 25 -41 4
-75 19 -75 31 0 13 -70 35 -110 35 -21 0 -50 21 -50 36 0 27 -150 118 -158 96
-4 -12 -29 -6 -53 15 -18 15 -117 43 -152 43 -13 0 -27 4 -32 9 -6 4 -53 14
-105 20 -52 7 -120 17 -150 22 -66 11 -158 25 -260 38 -111 15 -200 31 -245
46 -22 7 -95 19 -162 25 -68 7 -123 17 -123 21 0 5 12 6 28 4 15 -3 47 -7 72
-9z m-6952 -933 c-2 -31 -7 -38 -23 -35 -11 1 -78 11 -150 21 -183 27 -193 14
-30 -38 50 -16 136 -34 193 -41 l102 -13 0 -220 0 -219 -70 7 -70 7 0 -61 c0
-73 0 -73 -102 -32 -105 42 -121 43 -128 8 l-5 -29 -67 54 -67 53 0 288 -1
287 211 0 210 0 -3 -37z m-1468 -273 l0 -270 -161 0 -160 0 3 28 c3 25 7 27
56 30 47 3 52 5 52 27 0 22 -5 24 -52 27 -39 2 -53 7 -53 18 0 11 12 15 50 15
49 0 50 1 53 33 l3 32 -55 0 c-43 0 -56 3 -56 15 0 12 13 15 55 15 54 0 55 0
55 29 0 29 -2 30 -52 33 -29 2 -53 8 -53 13 0 6 24 11 53 13 50 3 52 4 52 33
0 29 -1 29 -55 29 -42 0 -55 3 -55 15 0 12 13 15 55 15 54 0 55 0 55 30 0 29
-1 30 -50 30 -52 0 -69 13 -56 45 4 12 32 15 161 15 l155 0 0 -270z m-450 125
c0 -3 -14 -31 -31 -63 l-31 -59 31 -68 c17 -37 31 -70 31 -72 0 -2 -12 -2 -27
0 -21 2 -33 14 -50 47 l-23 44 -17 -42 c-14 -36 -20 -42 -45 -42 -35 0 -35 10
3 76 29 51 29 55 15 81 -8 16 -22 43 -31 61 l-16 32 31 0 c26 0 33 -6 47 -37
l16 -38 19 43 c16 36 23 42 48 42 17 0 30 -2 30 -5z m-102 -422 l-3 -108 -107
-3 -108 -3 0 111 0 110 110 0 111 0 -3 -107z m12262 -529 c189 -5 243 -10 236
-23 -3 -5 60 -8 140 -8 80 0 147 4 150 9 3 4 24 7 47 6 l42 -1 -45 -7 c-25 -5
16 -6 95 -4 77 3 241 7 365 10 124 3 302 9 395 13 120 6 173 5 181 -3 8 -7 16
-84 22 -201 5 -104 13 -203 18 -220 13 -50 10 -543 -4 -557 -13 -13 -16 -578
-3 -611 7 -19 -12 -178 -24 -198 -8 -12 -23 -11 -379 31 -49 6 -93 13 -98 16
-5 4 -78 15 -161 25 -84 10 -197 26 -252 34 -55 9 -150 22 -210 30 -61 7 -137
18 -170 24 -33 5 -96 13 -140 17 -44 3 -87 10 -95 14 -26 13 -291 33 -302 22
-6 -6 1 -8 19 -6 l28 4 -29 -10 c-16 -5 -33 -15 -38 -22 -8 -10 -11 -10 -15 0
-2 6 -14 12 -26 12 -18 0 -19 2 -7 10 24 16 2 11 -31 -6 -17 -8 -33 -13 -37
-10 -3 3 0 6 7 6 7 0 10 4 7 9 -4 5 -20 6 -39 1 -267 -68 -638 -119 -712 -97
-11 3 -22 6 -25 6 -3 1 2 6 10 12 23 16 -359 0 -575 -24 -27 -3 -115 -11 -195
-17 -80 -6 -165 -14 -190 -17 -85 -10 -100 -11 -100 -3 0 4 -12 11 -27 15
l-28 7 25 10 c14 5 43 10 64 9 22 0 56 7 75 15 20 9 63 20 96 26 33 5 80 13
105 18 25 4 34 8 21 9 -20 1 -21 3 -11 16 7 8 20 15 28 15 24 0 103 31 135 52
15 11 27 16 27 12 0 -4 9 1 20 11 11 10 28 15 40 12 11 -3 20 -1 20 3 0 4 24
11 53 15 28 4 57 11 62 15 6 5 44 10 85 12 41 3 102 13 135 23 45 13 99 18
219 19 114 2 161 6 164 14 5 16 127 16 189 1 37 -10 47 -9 54 2 6 10 9 10 9 2
0 -29 38 -10 64 32 16 25 33 45 39 45 5 0 7 6 4 14 -3 8 3 22 14 32 10 9 19
23 19 31 0 7 5 13 12 13 6 0 8 3 5 7 -12 11 25 43 50 43 16 0 23 6 23 20 0 11
4 20 9 20 5 0 12 13 16 30 8 35 24 48 36 29 14 -23 19 -4 20 76 1 52 -3 80
-12 85 -9 6 -8 12 4 25 10 9 17 30 17 46 0 22 -5 29 -20 29 -17 0 -20 -7 -21
-42 -1 -42 -2 -42 -10 12 -8 59 1 81 24 61 12 -9 15 -4 20 31 3 24 2 63 -3 88
-12 59 -12 62 0 55 9 -6 16 224 12 445 -2 123 6 170 32 180 11 5 28 6 36 3 8
-3 94 -7 190 -9z m3049 -14 l1094 0 -6 -657 c-3 -361 -3 -818 0 -1014 l6 -358
24 -5 c20 -6 21 -9 11 -26 -10 -16 -10 -24 0 -40 16 -26 16 -27 -9 -33 -11 -3
-23 -15 -26 -26 -4 -17 -9 -18 -28 -9 -17 8 -30 7 -52 -5 -15 -8 -61 -31 -100
-51 -40 -21 -73 -42 -73 -47 0 -5 -6 -9 -12 -9 -7 0 -26 -7 -43 -16 -16 -9
-61 -27 -100 -41 -38 -14 -74 -28 -80 -32 -18 -13 -132 -49 -275 -86 -36 -10
-74 -21 -85 -26 -11 -4 -38 -10 -60 -12 -44 -5 -54 -8 -105 -25 -44 -14 -182
-23 -195 -12 -9 7 -66 14 -168 23 -15 1 -32 8 -37 16 -11 19 -189 29 -200 12
-5 -8 -17 -1 -38 23 -17 20 -36 36 -41 36 -6 0 -9 6 -7 13 1 6 1 9 -1 5 -3 -5
-15 -8 -28 -8 -18 0 -22 4 -18 20 3 11 9 20 14 20 16 0 10 32 -8 46 -11 8 -13
13 -5 14 6 0 12 6 12 12 0 19 69 76 100 83 71 16 220 93 220 115 0 5 16 9 35
8 22 -1 43 6 56 17 15 14 22 16 28 7 8 -14 81 15 81 33 0 13 73 15 82 2 9 -14
40 12 31 26 -4 7 11 8 47 4 29 -4 50 -3 46 0 -4 4 -37 10 -74 14 -37 4 -107
14 -157 22 -49 8 -144 22 -210 31 -66 9 -149 21 -185 27 -98 15 -285 39 -375
49 -44 5 -129 16 -190 25 -60 8 -132 18 -158 21 l-48 5 3 897 c2 506 7 903 12
911 7 11 29 13 105 7 53 -3 588 -6 1190 -6z m-13324 -875 c128 -19 139 -23
125 -40 -8 -10 -2 -14 27 -20 21 -4 41 -12 45 -18 15 -23 8 -151 -13 -241 -40
-171 -111 -285 -235 -377 -61 -45 -76 -47 -123 -18 -18 11 -40 18 -48 15 -8
-3 -30 6 -48 20 l-34 26 -3 -69 -3 -68 -107 -3 -108 -3 0 111 0 110 75 0 c41
0 75 2 75 5 0 3 -10 22 -23 43 -67 108 -125 370 -101 459 7 27 37 37 164 58
177 28 209 29 335 10z m-1645 -114 c0 -38 1 -39 45 -45 l45 -7 0 -276 0 -276
-54 7 c-30 3 -61 9 -70 12 -13 5 -16 -1 -16 -30 0 -24 -5 -36 -14 -36 -8 0
-56 16 -106 36 -51 19 -96 32 -100 27 -5 -4 -10 -18 -12 -30 -3 -21 -7 -19
-70 30 l-67 52 -1 288 0 287 210 0 210 0 0 -39z m-928 -882 l14 -42 12 42 c7
22 17 41 22 41 5 0 13 -19 18 -42 l9 -43 13 43 c18 57 45 57 62 1 l12 -42 14
42 c17 50 28 52 36 6 8 -41 21 -38 31 5 10 46 41 40 57 -11 l12 -42 14 42 c7
22 17 41 21 41 5 0 12 -19 18 -42 l9 -43 14 43 c7 23 17 42 21 42 4 0 2 -21
-6 -47 -8 -27 -15 -51 -15 -55 0 -21 -19 -4 -32 30 l-15 37 -9 -34 c-15 -51
-30 -48 -45 9 -7 27 -16 50 -19 50 -3 0 -12 -22 -19 -50 -7 -27 -16 -50 -21
-50 -4 0 -14 17 -22 38 l-15 37 -9 -34 c-15 -51 -30 -48 -44 9 -7 27 -15 50
-19 50 -4 0 -13 -23 -20 -50 -15 -57 -31 -60 -44 -10 -6 26 -11 30 -18 19 -5
-8 -9 -22 -9 -31 0 -16 -17 -34 -25 -27 -1 2 -10 28 -18 57 -19 61 -5 71 15
11z m928 -1219 c0 -38 2 -40 29 -40 64 0 61 15 61 -292 l0 -280 -22 5 c-13 3
-47 9 -75 13 l-53 7 0 -32 0 -32 -30 16 c-17 9 -36 13 -42 9 -7 -5 -8 -3 -3 6
6 9 2 10 -15 5 -17 -5 -20 -4 -15 5 5 8 3 11 -6 8 -8 -3 -31 4 -53 14 -42 22
-53 17 -58 -25 l-3 -28 -67 56 -68 55 0 285 0 285 210 0 210 0 0 -40z m1241 1
c-15 -10 14 -21 212 -87 l118 -39 112 38 c141 49 141 49 147 47 3 -1 4 -6 3
-11 -2 -4 -21 -120 -44 -256 -22 -136 -46 -251 -52 -255 -13 -8 -34 -11 -56
-9 -8 2 -10 -2 -5 -10 5 -9 2 -10 -9 -6 -9 3 -17 2 -19 -2 -2 -4 -23 -15 -48
-23 -44 -15 -47 -14 -180 30 -74 25 -137 47 -139 49 -3 2 -10 52 -17 111 -7
59 -22 177 -33 262 -21 155 -20 170 14 170 6 0 4 -4 -4 -9z m-944 -1646 c106
-31 173 -154 142 -262 -30 -110 -156 -183 -263 -153 -97 27 -175 136 -162 227
12 90 73 165 153 190 52 16 71 15 130 -2z m8635 -9 c19 -8 40 -22 48 -30 7 -9
19 -16 26 -16 8 0 32 -6 54 -12 l40 -13 0 -156 0 -156 -37 -12 c-32 -10 -51
-9 -123 8 -47 10 -107 23 -135 26 -75 11 -76 13 -74 135 1 59 4 112 8 118 3 5
17 12 31 13 19 3 26 12 31 39 13 63 62 84 131 56z m-898 -61 c14 -11 46 -15
108 -15 l88 0 0 -125 0 -124 -37 -9 c-44 -10 -268 -9 -300 2 -22 7 -23 11 -23
147 l0 139 73 0 c47 -1 79 -6 91 -15z m-2469 -100 l0 -100 -34 -3 c-19 -2 -44
-1 -57 2 -23 6 -24 10 -24 100 0 105 0 106 70 103 l45 -2 0 -100z m12205 -5
l0 -110 -46 0 c-38 0 -50 -5 -73 -30 -31 -34 -50 -33 -76 6 -11 18 -25 24 -50
24 l-35 0 0 110 0 110 140 0 140 0 0 -110z m-11370 -25 l0 -125 -115 0 -115 0
0 125 0 125 115 0 115 0 0 -125z m8870 -5 l0 -130 -230 0 -230 0 0 123 c0 68
3 127 7 130 3 4 107 7 230 7 l223 0 0 -130z m-1860 45 c0 -14 5 -25 10 -25 6
0 10 -11 10 -25 0 -14 -4 -25 -10 -25 -5 0 -10 -13 -10 -30 l0 -30 -120 0
-120 0 0 80 0 80 120 0 120 0 0 -25z"/>
<path d="M15869 7322 c-19 -6 -53 -42 -39 -42 5 0 10 -4 10 -9 0 -8 -52 -31
-71 -31 -16 0 -9 43 9 56 16 13 16 13 0 14 -10 0 -18 -4 -18 -10 0 -5 -12 -10
-27 -10 -22 0 -25 2 -13 11 14 9 -54 6 -130 -7 -14 -2 -74 -8 -135 -14 -60 -5
-157 -16 -215 -24 -58 -8 -112 -15 -120 -15 -41 0 -103 -15 -87 -20 9 -3 -28
-7 -82 -8 -54 -2 -109 -7 -122 -13 -21 -8 -18 -9 18 -8 23 1 45 -1 49 -5 4 -4
19 -7 33 -7 15 0 43 -9 63 -19 19 -11 38 -17 42 -14 3 3 34 -1 68 -10 54 -15
199 -43 263 -51 11 -2 29 -7 40 -13 11 -5 45 -11 75 -12 30 -1 59 -6 65 -12 5
-5 25 -9 44 -9 42 0 132 -15 221 -37 65 -16 122 -26 235 -39 33 -4 65 -11 72
-16 7 -5 21 -7 33 -3 12 4 30 1 43 -8 12 -8 49 -17 82 -20 33 -4 101 -13 150
-22 50 -9 117 -18 149 -21 33 -3 67 -9 77 -14 10 -6 33 -10 52 -10 19 0 51 -7
72 -16 20 -8 47 -13 59 -11 17 3 15 5 -6 6 -16 0 -28 6 -28 11 0 13 20 13 74
-2 34 -9 51 -9 70 0 22 10 26 9 27 -6 0 -11 5 -8 13 11 15 34 26 25 26 -20 0
-18 3 -33 8 -33 11 0 2 84 -10 91 -5 3 -10 40 -11 82 -1 80 -11 105 -15 40 -5
-68 -12 -48 -13 38 -2 65 -3 75 -9 44 l-6 -40 -14 48 -14 47 -63 0 c-35 0 -63
4 -63 10 0 6 -11 10 -25 10 -14 0 -35 9 -47 20 -16 15 -36 20 -75 20 l-53 0 0
39 c0 35 -3 39 -31 45 -17 3 -62 6 -100 6 -55 0 -69 3 -69 15 0 18 -12 19 -28
3 -20 -20 -14 -28 26 -28 20 0 43 -4 50 -9 21 -13 -21 -21 -108 -21 -98 0
-150 9 -150 26 0 20 -213 9 -246 -13 -23 -14 -24 -14 -24 6 0 18 6 21 40 21
22 0 40 5 40 10 0 6 -18 10 -40 10 -22 0 -40 4 -40 9 0 10 -25 11 -51 3z"/>
<path d="M13425 3791 c-18 -7 -17 -8 7 -14 60 -15 30 -62 -35 -54 -31 4 -31 4
6 5 48 2 51 29 5 36 -84 13 -189 14 -194 3 -2 -7 -15 -13 -29 -13 -14 -1 -23
1 -20 5 2 4 -19 9 -46 10 -31 1 -48 -2 -45 -8 4 -5 -2 -12 -11 -14 -10 -2 7
-2 37 0 41 3 51 2 40 -6 -13 -9 -12 -11 5 -12 11 0 62 -2 114 -4 52 -2 97 -8
100 -13 6 -9 62 -23 91 -22 8 0 24 0 35 -1 11 -1 36 -1 55 -1 19 1 51 -2 70
-5 l35 -7 -35 -7 c-22 -4 -6 -6 44 -4 81 3 117 -2 97 -14 -5 -4 9 -7 32 -7 23
-1 54 -5 70 -9 21 -6 27 -4 27 9 0 9 8 16 20 16 11 0 20 5 20 10 0 6 -7 10
-15 10 -8 0 -15 6 -15 14 0 23 -25 36 -59 30 -32 -7 -44 -37 -18 -47 6 -3 2
-6 -11 -6 -15 -1 -21 3 -16 11 5 8 2 9 -9 5 -10 -3 -17 -2 -17 3 0 6 -12 10
-27 10 -16 0 -35 4 -43 10 -12 7 -10 12 9 29 30 26 24 26 -104 7 -49 -8 -92
-12 -94 -10 -11 11 41 44 69 44 16 0 30 4 30 9 0 11 -146 13 -175 2z"/>
<path d="M16890 3881 c-8 -5 -46 -12 -85 -16 -38 -4 -79 -9 -90 -12 -11 -2
-36 -6 -55 -8 -68 -7 -255 -35 -268 -40 -8 -3 -44 -8 -80 -11 -37 -4 -71 -10
-77 -14 -5 -5 -41 -11 -80 -15 -79 -8 -340 -48 -458 -70 -42 -8 -90 -15 -105
-15 -15 0 -47 -6 -72 -14 -25 -7 -74 -17 -110 -20 -36 -4 -96 -14 -135 -22
-38 -8 -104 -18 -145 -23 -41 -5 -102 -16 -135 -24 -33 -7 -91 -19 -130 -26
-38 -7 -81 -15 -95 -18 l-25 -6 25 -7 c14 -5 45 -9 70 -9 59 -2 121 -12 116
-20 -2 -3 8 -7 22 -7 15 -1 47 -4 72 -7 25 -4 101 -13 168 -21 68 -8 130 -17
138 -20 8 -3 62 -8 122 -11 59 -4 114 -8 122 -10 26 -7 293 -38 344 -39 28 -1
51 -6 53 -12 2 -5 36 -8 77 -6 50 2 85 -1 111 -12 47 -20 53 -20 57 1 3 16 4
16 20 0 18 -19 33 -23 23 -7 -4 6 14 10 47 10 29 0 62 2 73 4 11 2 14 1 8 -1
-28 -10 -12 -24 19 -18 26 6 30 5 25 -9 -10 -26 18 -19 33 9 13 25 30 32 44
18 4 -4 23 -8 43 -10 19 -1 46 -9 58 -17 26 -17 39 -8 29 18 -4 12 0 16 15 16
16 0 20 -6 18 -22 -1 -13 3 -23 8 -23 6 1 47 4 93 9 63 6 82 12 82 23 0 10 7
14 20 10 13 -3 20 0 20 8 0 8 10 21 21 29 15 10 20 21 16 35 -3 12 -2 19 3 16
4 -2 10 9 14 26 8 43 6 58 -5 34 -6 -13 -8 50 -4 180 l5 200 -33 2 c-17 1 -39
-2 -47 -6z"/>
<path d="M2247 4293 c-12 -11 -7 -106 8 -173 35 -148 98 -259 188 -333 59 -47
64 -49 89 -36 82 44 167 149 210 259 26 67 53 216 47 260 -4 24 -6 25 -59 20
-83 -8 -358 -6 -421 2 -31 4 -59 5 -62 1z m235 -48 c8 -3 14 -26 15 -55 2 -27
10 -64 18 -82 8 -18 12 -23 9 -10 -3 12 -1 37 4 55 6 17 13 44 16 60 6 24 11
27 46 27 47 0 52 -8 62 -85 22 -185 22 -193 2 -197 -37 -8 -54 3 -54 36 0 17
-4 37 -8 44 -12 18 -39 -15 -44 -53 -2 -24 -8 -31 -29 -33 -34 -4 -59 21 -59
60 0 43 -24 30 -28 -15 -3 -39 -25 -54 -62 -42 -14 4 -19 13 -16 28 3 12 8 50
11 85 3 35 8 69 10 75 3 7 1 19 -4 27 -9 12 -12 12 -29 -3 -10 -9 -22 -17 -27
-17 -17 0 -34 37 -35 74 l0 39 95 -7 c52 -3 100 -9 107 -11z"/>
<path d="M1142 480 c-130 -79 -74 -280 78 -280 152 0 208 201 78 280 -43 26
-113 26 -156 0z"/>
<path d="M9885 391 c-11 -5 -23 -6 -28 -4 -4 2 -21 2 -37 -2 -23 -5 -30 -12
-30 -31 0 -23 2 -24 77 -24 42 0 74 -3 70 -6 -3 -3 -37 -6 -76 -6 l-71 0 0
-29 c0 -23 5 -29 23 -30 30 -1 55 -4 100 -13 l37 -7 0 81 c0 77 -1 80 -22 79
-13 0 -32 -4 -43 -8z"/>
<path d="M6498 472 l-38 -3 0 -83 c0 -45 2 -85 5 -88 3 -3 22 -2 43 1 l37 6 1
75 c1 41 -2 80 -5 85 -3 6 -23 9 -43 7z"/>
<path d="M18490 380 l0 -100 33 0 c21 0 42 -9 60 -26 l28 -26 20 26 c17 22 29
26 70 26 l49 0 0 100 0 100 -130 0 -130 0 0 -100z"/>
<path d="M7170 355 l0 -115 105 0 105 0 0 115 0 115 -105 0 -105 0 0 -115z"/>
<path d="M15820 350 l0 -110 210 0 210 0 0 110 0 110 -210 0 -210 0 0 -110z"/>
<path d="M14170 340 l0 -60 105 0 105 0 0 60 0 60 -105 0 -105 0 0 -60z"/>
</g>
</svg>
