<?xml version="1.0" standalone="no"?>
<!DOCTYPE svg PUBLIC "-//W3C//DTD SVG 20010904//EN"
 "http://www.w3.org/TR/2001/REC-SVG-20010904/DTD/svg10.dtd">
<svg version="1.0" xmlns="http://www.w3.org/2000/svg"
 width="1300.000000pt" height="731.000000pt" viewBox="0 0 1300.000000 731.000000"
 preserveAspectRatio="xMidYMid meet">
<metadata>
Created by potrace 1.15, written by Peter Selinger 2001-2017
</metadata>
<g transform="translate(0.000000,731.000000) scale(0.100000,-0.100000)"
fill="#000000" stroke="none">
<path d="M9895 5825 c-368 -184 -674 -336 -680 -338 -5 -3 214 -229 487 -503
l498 -499 177 175 178 175 -175 -177 -175 -178 55 -57 55 -58 -58 55 -57 55
-178 -175 -177 -175 175 178 175 177 -500 499 -500 499 -675 -335 c-371 -184
-880 -436 -1130 -559 -250 -124 -461 -232 -467 -241 -7 -9 -13 -28 -13 -42 -1
-22 -12 -31 -80 -63 -89 -42 -99 -60 -57 -107 l22 -26 -22 19 -23 19 0 -112 0
-111 68 33 c37 19 74 32 82 29 11 -4 10 1 -4 17 -11 11 -17 21 -14 21 2 0 17
-14 34 -32 16 -18 22 -28 13 -23 -8 6 -4 1 10 -10 14 -11 46 -39 71 -61 49
-45 112 -97 335 -279 379 -309 609 -501 612 -511 2 -6 -8 -16 -21 -24 -14 -7
-23 -18 -19 -23 3 -6 1 -7 -5 -3 -16 10 -54 -12 -46 -26 4 -7 3 -8 -4 -4 -14
8 -107 -40 -107 -56 0 -6 -7 -13 -15 -15 -13 -4 -13 -3 0 6 8 6 10 11 5 11
-21 0 -56 -32 -51 -47 5 -11 -1 -14 -24 -11 -17 1 -34 -3 -38 -9 -4 -7 -19
-14 -32 -17 -14 -2 -24 -9 -22 -16 1 -7 -4 -9 -16 -6 -10 3 -27 -1 -38 -10
-10 -8 -13 -12 -5 -8 9 4 12 3 7 -4 -4 -6 -13 -9 -21 -5 -9 3 -21 0 -28 -6
-12 -10 -53 -32 -205 -111 -33 -17 -49 -30 -40 -34 7 -3 4 -5 -7 -3 -24 2
-128 -56 -123 -69 1 -5 -12 -10 -29 -12 -18 -2 -33 -8 -33 -13 0 -6 -4 -7 -10
-4 -13 8 -13 -1 0 -25 8 -15 7 -17 -13 -12 -20 5 -20 4 -8 -11 12 -15 11 -17
-3 -17 -11 0 -14 5 -10 12 5 8 2 9 -12 3 -10 -5 -31 -9 -46 -9 -16 -1 -28 -4
-28 -8 0 -4 29 -6 65 -5 l65 3 0 -83 c0 -76 -2 -83 -20 -83 -17 0 -20 -7 -20
-40 0 -33 -3 -40 -20 -40 -18 0 -20 -7 -20 -86 l0 -86 -27 5 c-16 2 -22 2 -14
-1 11 -3 8 -8 -10 -19 -26 -15 -25 -15 44 3 13 4 7 -2 -13 -14 -19 -11 -41
-17 -48 -15 -8 4 -10 0 -6 -11 4 -10 10 -13 18 -8 6 5 56 33 111 62 55 29 103
58 107 64 4 6 13 11 20 11 20 0 88 36 88 47 0 5 4 7 9 4 5 -3 20 3 34 14 14
11 28 20 32 20 3 0 27 12 52 26 34 20 41 29 31 36 -9 7 -8 8 6 4 10 -4 25 -1
32 5 8 6 14 8 14 5 0 -4 13 2 29 13 16 12 34 21 40 21 6 0 11 5 11 11 0 5 6 7
13 3 6 -4 3 2 -7 14 -17 20 -18 22 -2 22 9 0 15 -4 12 -9 -3 -5 6 -9 21 -9 26
0 26 1 7 15 -18 14 -18 14 7 8 19 -5 43 3 88 28 35 19 59 37 54 39 -4 3 -2 3
5 2 7 -2 36 9 65 26 l52 29 110 -90 c60 -49 113 -89 118 -89 4 0 40 18 79 40
l71 41 36 -17 c33 -16 37 -16 66 1 16 9 183 103 370 207 187 105 374 210 415
233 41 24 262 147 490 275 228 128 465 261 525 295 152 85 424 238 582 327
109 62 130 77 120 88 -10 12 -9 12 4 2 14 -11 40 0 165 71 82 47 316 178 519
292 204 114 380 216 392 227 12 11 26 32 32 46 15 40 131 668 131 711 0 23 -7
45 -19 57 -16 17 -192 131 -911 589 -60 39 -162 104 -227 145 -231 148 -254
160 -298 159 -32 -1 -179 -70 -710 -334z"/>
<path d="M2123 4399 c-39 -19 -123 -109 -123 -131 0 -5 -60 -100 -134 -211
-150 -227 -209 -317 -216 -332 -3 -5 -31 -50 -64 -100 -32 -49 -88 -136 -125
-193 -36 -56 -103 -159 -149 -228 -64 -97 -83 -134 -83 -162 -1 -33 75 -444
85 -460 2 -4 11 -52 21 -107 32 -191 60 -222 236 -260 63 -13 422 -85 799
-159 377 -74 963 -190 1302 -257 340 -67 623 -119 631 -116 11 4 135 256 258
522 46 102 165 353 346 735 67 140 72 153 83 210 10 48 -26 770 -38 782 -4 3
-164 34 -357 68 -192 34 -384 68 -425 75 -41 8 -165 30 -275 49 -110 20 -339
60 -510 91 -170 30 -316 55 -324 55 -10 0 -5 -11 15 -32 26 -30 25 -29 -11 4
-38 35 -47 37 -205 66 l-165 30 -25 -21 -25 -22 18 22 c21 25 36 20 -158 54
-66 11 -156 27 -200 35 -107 19 -132 18 -182 -7z"/>
<path d="M6488 3679 c-54 -27 -98 -53 -98 -58 0 -5 15 -18 33 -30 18 -11 44
-32 57 -47 14 -15 51 -48 83 -75 l58 -49 92 46 c51 26 97 51 104 56 9 7 -20
37 -105 109 -64 54 -119 98 -122 98 -3 0 -49 -22 -102 -50z"/>
<path d="M5559 3273 c-3 -118 12 -457 20 -446 3 4 33 -21 66 -57 l60 -64 -47
37 c-69 55 -59 40 15 -24 34 -29 53 -43 43 -31 -41 47 3 19 54 -35 30 -32 43
-48 29 -35 -14 12 -29 22 -33 22 -5 0 4 -10 20 -22 16 -13 33 -22 39 -21 6 2
33 -21 60 -49 28 -29 37 -41 20 -27 -64 53 -67 50 -5 -7 122 -112 325 -299
390 -360 36 -33 108 -98 160 -143 l95 -83 -76 74 c-42 40 -129 120 -192 178
-64 57 -114 106 -112 108 4 5 391 -344 420 -379 l20 -24 -30 25 c-30 24 -30
24 2 -10 29 -31 34 -32 50 -19 10 8 43 28 73 44 30 16 84 46 120 66 l65 38
-44 -4 c-39 -3 -72 -15 -43 -15 7 0 12 -4 12 -9 0 -14 -52 -23 -63 -12 -6 6
-16 11 -21 11 -6 0 -3 -5 7 -11 28 -16 20 -28 -40 -56 -32 -15 -61 -29 -65
-31 -8 -4 -4 25 5 34 4 4 6 28 5 53 l-1 46 -7 -45 c-5 -35 -7 -23 -8 55 -2 69
2 105 11 114 10 11 10 13 0 7 -8 -5 -13 -1 -13 9 0 9 4 14 8 11 10 -6 9 30 -1
40 -13 13 -8 132 6 137 7 3 5 6 -5 6 -10 1 -18 5 -18 9 0 7 -86 85 -415 376
-149 132 -237 210 -360 321 -61 55 -142 127 -181 160 -38 33 -70 63 -72 68 -9
20 -22 3 -23 -30z"/>
<path d="M7108 3173 c-48 -26 -85 -50 -82 -55 3 -5 10 -6 15 -3 5 3 6 -1 3 -9
-7 -19 16 -22 34 -4 6 6 14 9 17 6 3 -3 -8 -14 -25 -25 l-31 -20 58 -49 c32
-27 77 -64 101 -82 l42 -33 100 53 c55 29 99 58 99 63 0 9 -222 197 -238 202
-3 1 -45 -19 -93 -44z"/>
</g>
</svg>
