 <svg version="1.0" xmlns="http://www.w3.org/2000/svg" width="700.000000pt" height="394.000000pt" viewBox="0 0 700.000000 394.000000" preserveAspectRatio="xMidYMid meet">
<metadata>
Created by potrace 1.12, written by Peter Selinger 2001-2015
</metadata>
<g transform="translate(0.000000,394.000000) scale(0.100000,-0.100000)" fill="#000000" stroke="none">
<path d="M1002 3898 c-7 -7 -12 -39 -12 -75 l0 -63 30 0 c27 0 30 -3 30 -30
l0 -30 63 0 c36 0 68 5 75 12 7 7 12 43 12 93 0 50 -5 86 -12 93 -16 16 -170
16 -186 0z m120 -62 l27 -33 -33 -32 c-29 -28 -34 -30 -46 -16 -11 13 -10 18
4 34 15 17 15 19 -4 36 -15 14 -17 21 -9 32 18 20 32 16 61 -21z"></path>
<path d="M660 3880 c-13 -23 -48 -27 -56 -5 -4 8 -15 15 -25 15 -17 0 -19 -8
-19 -64 0 -59 2 -65 23 -68 14 -2 23 -11 25 -25 3 -21 9 -23 66 -23 81 0 91
10 75 77 -14 58 -23 70 -42 55 -18 -16 -28 -5 -21 23 7 30 -12 41 -26 15z m-4
-148 c-13 -13 -17 9 -9 55 l8 48 3 -49 c2 -26 1 -51 -2 -54z m53 53 c12 -34 6
-65 -9 -48 -13 12 -24 83 -13 83 5 0 15 -16 22 -35z"></path>
<path d="M226 3831 c-4 -5 3 -15 14 -21 20 -11 20 -12 -10 -40 -37 -35 -38
-48 -3 -61 42 -16 79 -8 75 16 -2 11 -9 26 -15 33 -6 8 -11 28 -11 45 -1 25
-6 33 -23 35 -11 2 -24 -1 -27 -7z"></path>
<path d="M565 3729 c-4 -6 -5 -13 -2 -16 7 -7 27 6 27 18 0 12 -17 12 -25 -2z"></path>
<path d="M1005 3729 c-4 -6 -5 -13 -2 -16 7 -7 27 6 27 18 0 12 -17 12 -25 -2z"></path>
<path d="M83 3663 c-21 -8 -15 -32 10 -38 12 -3 52 -5 87 -3 50 2 65 7 65 18
0 12 -14 15 -62 16 -34 1 -68 4 -75 6 -7 3 -19 3 -25 1z"></path>
<path d="M934 3655 c-12 -31 11 -36 167 -33 129 3 154 5 154 18 0 13 -22 15
-135 15 -74 0 -145 4 -158 8 -16 6 -24 4 -28 -8z"></path>
<path d="M277 3653 c-14 -14 -6 -22 28 -29 39 -7 74 2 59 15 -13 12 -79 23
-87 14z"></path>
<path d="M464 3649 c-12 -21 11 -29 81 -29 67 0 98 11 80 28 -10 10 -154 11
-161 1z"></path>
<path d="M695 3653 c-49 -6 -60 -12 -47 -25 13 -13 193 -11 207 3 24 24 -59
35 -160 22z"></path>
<path d="M506 3583 c-3 -4 -6 -13 -6 -20 0 -11 19 -14 88 -13 48 1 90 1 95 0
4 -1 44 -2 89 -2 77 -1 106 9 78 27 -15 9 -150 13 -156 4 -4 -7 -68 -4 -151 6
-17 2 -34 1 -37 -2z"></path>
<path d="M1004 3579 c-11 -18 5 -23 96 -27 64 -3 90 -1 90 7 0 15 -12 18 -102
25 -49 4 -79 2 -84 -5z"></path>
<path d="M988 3373 c-2 -5 -2 -38 0 -75 4 -65 5 -68 29 -68 24 0 25 2 20 39
-6 48 14 71 61 71 23 0 36 -7 48 -25 23 -35 12 -55 -32 -55 -41 0 -44 -24 -3
-27 13 0 28 -1 33 -2 5 -1 2 -8 -5 -17 -10 -12 -23 -14 -51 -10 -36 6 -38 5
-38 -19 0 -26 1 -26 73 -23 l72 3 3 108 3 107 -105 0 c-58 0 -106 -3 -108 -7z"></path>
<path d="M176 3353 c-3 -4 -6 -23 -6 -44 0 -40 19 -59 57 -59 14 1 12 6 -12
25 -22 18 -27 27 -18 36 14 14 67 3 83 -17 15 -17 6 -44 -14 -44 -10 0 -13 -6
-9 -16 3 -8 15 -14 27 -12 18 3 21 10 21 48 l0 45 -61 22 c-34 12 -65 19 -68
16z"></path>
<path d="M690 3320 c-21 -30 -20 -50 3 -50 12 0 47 53 47 71 0 20 -30 7 -50
-21z"></path>
<path d="M1070 3300 c0 -5 9 -10 20 -10 11 0 20 5 20 10 0 6 -9 10 -20 10 -11
0 -20 -4 -20 -10z"></path>
<path d="M600 3230 c0 -11 11 -27 24 -35 30 -20 91 -16 91 5 0 8 -7 13 -15 11
-30 -8 -55 -1 -72 19 -20 25 -28 25 -28 0z"></path>
<path d="M153 3223 c-24 -9 -13 -23 17 -23 17 0 30 -4 30 -10 0 -5 7 -10 15
-10 24 0 17 16 -12 31 -38 18 -36 18 -50 12z"></path>
<path d="M572 3208 c-16 -16 -15 -28 2 -28 16 0 29 27 17 34 -4 3 -13 0 -19
-6z"></path>
<path d="M1005 3199 c-10 -15 3 -25 16 -12 7 7 7 13 1 17 -6 3 -14 1 -17 -5z"></path>
<path d="M110 3121 c-14 -3 -26 -12 -28 -19 -1 -9 16 -12 65 -13 38 0 102 -1
143 -2 61 -2 75 1 75 13 0 12 -18 15 -100 16 -55 1 -107 4 -115 6 -8 3 -26 3
-40 -1z"></path>
<path d="M492 3122 c-15 -2 -22 -9 -20 -20 3 -14 17 -17 82 -17 74 0 98 7 80
25 -10 9 -107 17 -142 12z"></path>
<path d="M660 3112 c0 -21 31 -31 85 -27 17 1 45 3 63 4 21 1 32 6 32 16 0 12
-15 15 -74 15 -41 0 -81 3 -90 6 -11 4 -16 0 -16 -14z"></path>
<path d="M914 3118 c-13 -21 15 -28 117 -28 95 0 110 2 107 16 -2 13 -22 16
-111 18 -60 1 -110 -2 -113 -6z"></path>
<path d="M1188 3123 c-22 -5 -23 -29 -2 -37 40 -15 111 2 89 22 -13 12 -64 20
-87 15z"></path>
<path d="M988 2843 c-2 -4 -4 -39 -3 -77 0 -50 4 -70 14 -74 10 -3 12 2 8 21
-14 53 34 117 88 117 30 0 75 -30 81 -55 11 -43 25 -27 22 23 l-3 47 -102 3
c-56 1 -103 -1 -105 -5z"></path>
<path d="M688 2825 c-4 -4 -28 -9 -55 -11 -73 -7 -74 -7 -69 -69 2 -31 6 -59
10 -62 3 -3 1 -12 -6 -20 -6 -7 -8 -16 -5 -19 10 -11 27 7 27 28 0 17 2 18 15
8 18 -15 75 -22 72 -10 -1 5 7 15 17 23 22 16 14 37 -15 37 -12 0 -19 -7 -19
-20 0 -11 -4 -20 -9 -20 -5 0 -11 9 -14 20 -3 12 -14 20 -26 20 -31 0 -25 20
7 21 15 1 36 2 47 3 13 1 20 8 20 21 0 11 7 20 15 20 8 0 15 -9 15 -20 0 -11
8 -21 18 -23 16 -3 18 2 15 35 -3 32 -7 38 -28 41 -14 2 -29 0 -32 -3z"></path>
<path d="M277 2784 c-8 -8 1 -24 14 -24 5 0 9 7 9 15 0 15 -12 20 -23 9z"></path>
<path d="M160 2745 c-7 -9 -10 -18 -7 -22 8 -7 37 15 37 28 0 14 -16 11 -30
-6z"></path>
<path d="M1035 2749 c-12 -18 6 -26 60 -26 51 0 76 10 61 24 -10 11 -115 12
-121 2z"></path>
<path d="M1180 2715 c0 -9 -11 -27 -25 -41 -20 -20 -34 -25 -65 -23 -22 2 -40
-1 -40 -6 0 -6 33 -10 73 -10 l72 0 3 48 c2 28 -1 47 -7 47 -6 0 -11 -7 -11
-15z"></path>
<path d="M720 2670 c-17 -17 -20 -25 -11 -28 17 -6 45 22 39 39 -3 9 -11 6
-28 -11z"></path>
<path d="M255 2670 c-3 -5 -18 -10 -33 -10 -17 0 -23 -3 -16 -10 14 -14 74 -1
74 16 0 16 -16 19 -25 4z"></path>
<path d="M1005 2670 c-4 -6 -3 -16 3 -22 6 -6 12 -6 17 2 4 6 3 16 -3 22 -6 6
-12 6 -17 -2z"></path>
<path d="M83 2584 c-3 -8 -2 -18 2 -22 3 -4 68 -7 143 -7 115 0 137 2 137 15
0 12 -19 15 -105 17 -58 1 -120 5 -138 7 -23 4 -35 1 -39 -10z"></path>
<path d="M506 2592 c-3 -5 -1 -14 4 -22 6 -9 37 -14 109 -16 95 -3 127 5 105
26 -12 10 -212 21 -218 12z"></path>
<path d="M753 2585 c-7 -19 13 -36 37 -32 8 1 15 11 15 22 0 26 -42 34 -52 10z"></path>
<path d="M915 2591 c-3 -2 0 -12 5 -21 9 -16 25 -18 140 -18 99 0 132 4 141
14 10 12 15 12 30 -2 22 -20 52 -11 47 13 -3 13 -12 17 -33 16 -29 -3 -61 -2
-243 1 -46 0 -85 -1 -87 -3z"></path>
<path d="M115 2509 c-13 -20 10 -28 98 -30 84 -3 117 6 103 29 -8 13 -193 15
-201 1z"></path>
<path d="M450 2504 c0 -22 39 -31 110 -25 49 5 65 10 65 21 0 12 -17 15 -87
16 -69 1 -88 -1 -88 -12z"></path>
<path d="M652 2501 c5 -23 203 -24 203 -1 0 12 -18 15 -103 16 -89 1 -102 -2
-100 -15z"></path>
<path d="M165 2300 c-3 -5 1 -10 9 -10 9 0 16 5 16 10 0 6 -4 10 -9 10 -6 0
-13 -4 -16 -10z"></path>
<path d="M210 2300 c0 -5 6 -10 13 -10 8 0 22 -9 32 -20 18 -20 55 -28 55 -11
0 5 -12 19 -26 30 -28 22 -74 29 -74 11z"></path>
<path d="M592 2285 c-17 -14 -34 -39 -37 -56 -8 -37 11 -80 34 -77 9 2 17 -7
21 -22 10 -43 83 -39 126 7 18 19 24 37 24 70 0 91 -99 137 -168 78z m112 -47
c20 -29 20 -47 -1 -70 -20 -22 -61 -23 -85 -1 -20 18 -23 45 -8 74 15 28 74
26 94 -3z"></path>
<path d="M192 2230 l-21 -28 25 -23 25 -23 23 25 24 24 -27 27 -28 27 -21 -29z"></path>
<path d="M132 2140 c-16 -26 -15 -30 3 -30 8 0 15 5 15 12 0 6 7 4 18 -5 20
-19 102 -24 102 -7 0 6 -15 10 -34 10 -19 0 -38 5 -41 10 -3 6 -15 10 -25 10
-10 0 -20 5 -22 10 -2 6 -9 1 -16 -10z"></path>
<path d="M565 2129 c-4 -6 -5 -13 -2 -16 7 -7 27 6 27 18 0 12 -17 12 -25 -2z"></path>
<path d="M116 2063 c-3 -4 -6 -15 -6 -25 0 -14 8 -18 40 -18 27 0 43 5 47 15
3 9 4 17 2 19 -8 7 -78 14 -83 9z"></path>
<path d="M720 2055 c0 -20 35 -37 73 -33 20 2 32 8 32 18 0 11 -9 14 -32 12
-17 -2 -34 1 -38 7 -9 16 -35 13 -35 -4z"></path>
<path d="M223 2047 c-10 -17 15 -28 58 -25 30 2 45 8 47 19 2 13 -7 16 -48 15
-29 0 -54 -5 -57 -9z"></path>
<path d="M480 2050 c0 -21 45 -31 128 -28 69 2 87 6 87 18 0 12 -20 15 -107
17 -60 1 -108 -2 -108 -7z"></path>
<path d="M125 1980 c-11 -18 20 -29 97 -33 67 -4 88 -2 92 9 3 7 0 17 -6 21
-14 8 -178 11 -183 3z"></path>
<path d="M583 1977 c-11 -19 19 -30 76 -29 64 1 84 7 79 24 -4 12 -148 16
-155 5z"></path>
<path d="M122 1703 c3 -74 4 -78 26 -79 28 -2 52 32 63 84 7 36 7 37 8 6 1
-18 -9 -46 -24 -68 -41 -60 -36 -66 50 -66 l76 0 -3 98 -3 97 -98 3 -98 3 3
-78z"></path>
<path d="M589 1741 c-39 -40 -41 -97 -4 -111 14 -5 25 -16 25 -24 0 -7 7 -19
15 -26 12 -10 18 -10 30 0 19 15 20 40 2 40 -20 0 -47 33 -47 57 0 32 23 44
74 40 55 -5 68 8 35 34 -38 29 -95 25 -130 -10z"></path>
<path d="M634 1686 c-10 -26 4 -48 28 -44 17 2 23 10 23 28 0 18 -6 26 -23 28
-13 2 -25 -3 -28 -12z"></path>
<path d="M136 1601 c-4 -7 -5 -15 -2 -18 9 -9 19 4 14 18 -4 11 -6 11 -12 0z"></path>
<path d="M565 1599 c-10 -15 3 -25 16 -12 7 7 7 13 1 17 -6 3 -14 1 -17 -5z"></path>
<path d="M35 1512 c-3 -8 -5 -15 -5 -17 0 -3 86 -4 190 -4 159 0 190 3 190 15
0 11 -16 14 -67 15 -38 0 -121 1 -185 2 -90 2 -119 -1 -123 -11z"></path>
<path d="M464 1518 c-11 -17 9 -26 68 -30 65 -5 118 6 102 21 -12 12 -164 19
-170 9z"></path>
<path d="M668 1519 c-10 -7 -9 -9 5 -9 9 0 17 -4 17 -10 0 -13 147 -13 155 0
3 6 0 12 -7 14 -28 9 -157 13 -170 5z"></path>
<path d="M184 1445 c-9 -22 4 -35 37 -35 24 0 29 4 29 25 0 21 -5 25 -30 25
-18 0 -33 -6 -36 -15z"></path>
<path d="M0 91 l0 -89 3500 -1 3500 -2 0 91 0 90 -3500 0 -3500 0 0 -89z
m6409 33 c-17 -21 -31 -17 -19 6 6 11 15 18 21 14 6 -4 6 -11 -2 -20z m255 10
c3 -8 2 -12 -4 -9 -6 3 -10 10 -10 16 0 14 7 11 14 -7z m-5619 -44 l0 -45 -45
0 c-44 0 -45 1 -48 33 -5 54 2 64 50 60 l43 -3 0 -45z m443 34 c38 -26 23 -84
-22 -84 -20 0 -56 27 -56 42 0 16 32 58 44 58 6 0 22 -7 34 -16z m4270 -28 c2
-21 -1 -43 -7 -49 -6 -6 -8 5 -4 32 l6 41 -77 0 c-74 0 -77 -1 -75 -22 5 -53
1 -59 -33 -56 -29 3 -33 7 -36 36 -6 62 -3 63 115 60 l108 -3 3 -39z m579 22
c-3 -8 -6 -5 -6 6 -1 11 2 17 5 13 3 -3 4 -12 1 -19z m257 1 c-3 -5 -10 -7
-15 -3 -5 3 -7 10 -3 15 3 5 10 7 15 3 5 -3 7 -10 3 -15z m43 -1 c-3 -8 -6 -5
-6 6 -1 11 2 17 5 13 3 -3 4 -12 1 -19z m-5812 -29 c0 -34 0 -34 -45 -34 -39
0 -45 3 -48 23 -6 42 4 52 50 49 42 -3 43 -4 43 -38z m450 12 c-2 -39 -13 -51
-44 -51 -76 0 -55 72 23 76 19 1 22 -3 21 -25z m5617 -15 c6 -27 5 -43 -3 -50
-9 -8 -10 -8 -5 1 8 14 -11 27 -39 28 -21 0 -31 25 -21 51 4 10 16 14 33 12
23 -2 29 -9 35 -42z m-6742 4 c0 -17 -6 -33 -13 -36 -23 -8 -67 14 -67 34 0
26 9 32 47 32 30 0 33 -3 33 -30z m403 13 c-7 -2 -21 -2 -30 0 -10 3 -4 5 12
5 17 0 24 -2 18 -5z m5372 -13 c3 -6 -1 -7 -9 -4 -18 7 -21 14 -7 14 6 0 13
-4 16 -10z m85 -5 c0 -8 -4 -15 -10 -15 -5 0 -10 7 -10 15 0 8 5 15 10 15 6 0
10 -7 10 -15z m-5450 -12 c0 -5 -11 -8 -25 -8 -14 0 -25 3 -25 8 0 4 11 7 25
7 14 0 25 -3 25 -7z m6020 -29 c0 -12 -4 -12 -20 -2 -13 8 -16 15 -8 19 15 10
28 2 28 -17z m79 -2 c0 -14 -2 -13 -9 3 l-9 20 0 -20 c-1 -16 -3 -17 -11 -5
-6 9 -5 17 3 22 15 9 27 0 26 -20z m-322 -4 c-3 -8 -6 -5 -6 6 -1 11 2 17 5
13 3 -3 4 -12 1 -19z m43 11 c0 -8 4 -9 13 0 8 6 17 8 20 4 14 -14 6 -20 -27
-20 -24 0 -33 4 -29 14 6 16 23 17 23 2z m150 -7 c0 -12 -3 -12 -15 -2 -8 7
-15 13 -15 15 0 1 7 2 15 2 8 0 15 -7 15 -15z m187 3 c0 -6 -6 -12 -12 -12 -6
0 -12 6 -12 12 0 6 6 12 12 12 6 0 12 -6 12 -12z"></path>
<path d="M980 100 c-9 -17 -8 -20 14 -20 13 0 26 6 29 14 12 31 -27 36 -43 6z"></path>
<path d="M5550 108 c0 -7 4 -19 9 -26 7 -11 10 -10 15 3 3 9 4 21 0 26 -8 13
-24 11 -24 -3z"></path>
<path d="M760 80 c0 -5 7 -10 15 -10 8 0 15 5 15 10 0 6 -7 10 -15 10 -8 0
-15 -4 -15 -10z"></path>
</g>
</svg>