<?xml version="1.0" encoding="UTF-8" standalone="no"?>
<svg
   xmlns:dc="http://purl.org/dc/elements/1.1/"
   xmlns:cc="http://creativecommons.org/ns#"
   xmlns:rdf="http://www.w3.org/1999/02/22-rdf-syntax-ns#"
   xmlns:svg="http://www.w3.org/2000/svg"
   xmlns="http://www.w3.org/2000/svg"
   xmlns:sodipodi="http://sodipodi.sourceforge.net/DTD/sodipodi-0.dtd"
   xmlns:inkscape="http://www.inkscape.org/namespaces/inkscape"
   version="1.0"
   width="400.000000pt"
   height="301.000000pt"
   viewBox="0 0 400.000000 301.000000"
   preserveAspectRatio="xMidYMid meet"
   id="svg26"
   sodipodi:docname="image10_hardware.svg"
   inkscape:version="0.92.4 (5da689c313, 2019-01-14)">
  <defs
     id="defs30">
    <inkscape:path-effect
       effect="spiro"
       id="path-effect96"
       is_visible="true" />
    <inkscape:perspective
       sodipodi:type="inkscape:persp3d"
       inkscape:vp_x="29.781036 : 146.209 : 1"
       inkscape:vp_y="0 : 1250.4694 : 0"
       inkscape:vp_z="409.0922 : 146.209 : 1"
       inkscape:persp3d-origin="219.43662 : 83.477106 : 1"
       id="perspective78" />
    <inkscape:path-effect
       effect="spiro"
       id="path-effect96-9"
       is_visible="true" />
  </defs>
  <sodipodi:namedview
     pagecolor="#ffffff"
     bordercolor="#666666"
     borderopacity="1"
     objecttolerance="10"
     gridtolerance="10"
     guidetolerance="10"
     inkscape:pageopacity="0"
     inkscape:pageshadow="2"
     inkscape:window-width="1366"
     inkscape:window-height="705"
     id="namedview28"
     showgrid="false"
     inkscape:zoom="2.6710964"
     inkscape:cx="151.27274"
     inkscape:cy="226.52161"
     inkscape:window-x="-8"
     inkscape:window-y="-8"
     inkscape:window-maximized="1"
     inkscape:current-layer="monitor"
     inkscape:snap-grids="false"
     inkscape:snap-to-guides="false"
     inkscape:snap-object-midpoints="true" />
  <metadata
     id="metadata2">
Created by potrace 1.15, written by Peter Selinger 2001-2017
<rdf:RDF>
  <cc:Work
     rdf:about="">
    <dc:format>image/svg+xml</dc:format>
    <dc:type
       rdf:resource="http://purl.org/dc/dcmitype/StillImage" />
    <dc:title></dc:title>
  </cc:Work>
</rdf:RDF>
</metadata>
  <g
     transform="matrix(0.01274604,0,0,-0.01365114,33.410363,152.90909)"
     id="cpu"
     style="fill:#000000;stroke:none"
     inkscape:label="cpu">
    <path
       d="m 6940,7714 c -64,-8 -136,-26 -185,-45 -224,-88 -553,-215 -655,-254 -63,-24 -200,-77 -305,-118 -178,-70 -383,-150 -555,-217 -41,-16 -169,-65 -285,-110 -115,-45 -266,-104 -335,-131 -69,-26 -170,-66 -225,-87 l -100,-38 -7,-75 c -22,-224 -27,-461 -28,-1199 0,-448 -5,-1447 -10,-2219 -7,-1211 -7,-1408 6,-1432 9,-19 14,-61 14,-131 0,-57 4,-108 8,-114 4,-6 95,-39 202,-73 107,-34 206,-66 220,-71 14,-5 144,-47 290,-94 146,-46 400,-128 565,-181 519,-168 827,-266 920,-295 50,-15 152,-48 229,-74 l 139,-45 406,65 c 223,35 534,85 691,110 301,48 359,58 780,124 145,23 272,45 280,50 9,5 28,25 41,44 13,19 40,43 60,52 20,9 55,35 77,58 79,82 75,-24 65,1742 -4,858 -7,1633 -7,1724 1,91 5,419 8,730 3,311 9,788 12,1060 3,272 1,554 -4,625 l -9,130 -42,61 -43,62 -82,15 c -44,9 -238,46 -431,82 -192,36 -442,83 -555,105 -113,22 -266,51 -340,65 -74,14 -227,44 -340,66 -240,47 -327,53 -470,33 z m 109,-2201 c -2,-1182 0,-2618 4,-3193 l 8,-1045 32,-52 c 52,-85 133,-162 204,-196 63,-29 64,-29 211,-25 107,4 228,18 447,52 165,26 433,67 595,92 258,39 387,59 520,80 l 35,5 -46,-29 c -25,-16 -55,-43 -67,-59 -23,-33 23,-24 -672,-134 -102,-16 -268,-43 -370,-59 -102,-17 -257,-41 -345,-55 -88,-14 -286,-46 -440,-70 -154,-25 -289,-45 -301,-45 -18,0 -22,13 -44,147 l -23,147 6,2021 c 11,3126 18,4477 26,4510 7,29 10,30 87,41 43,6 92,12 108,13 l 29,1 z m 137,2110 c 18,-36 19,-92 24,-1203 l 5,-1165 40,-62 c 37,-58 45,-64 110,-89 93,-34 237,-48 755,-74 228,-11 512,-25 630,-31 291,-15 371,-11 404,20 l 26,24 v -100 c 0,-111 -11,-144 -57,-174 -33,-22 -167,-25 -428,-9 -88,5 -295,17 -460,25 -165,8 -388,20 -495,25 -287,15 -354,25 -419,63 -67,40 -117,106 -146,196 l -22,66 10,1180 c 9,1147 8,1224 -19,1323 -11,38 22,26 42,-15 z m 234,-8 c 189,-35 994,-188 1160,-220 102,-19 246,-47 320,-60 221,-41 221,-41 255,-88 28,-40 29,-48 37,-187 9,-172 8,-484 -2,-499 -7,-12 16,-16 -1150,170 -173,27 -387,61 -475,74 -88,14 -187,29 -220,35 -33,5 -63,10 -67,10 -4,0 -9,168 -11,373 -2,204 -7,384 -11,398 l -8,27 49,-10 c 26,-5 82,-15 123,-23 z M 6756,6523 c -4,-593 -9,-2060 -13,-3261 -4,-1649 -9,-2182 -17,-2179 -7,3 -115,35 -242,72 -126,37 -341,100 -478,141 -138,40 -253,71 -258,68 -4,-3 -8,0 -8,5 0,6 -6,11 -14,11 -7,0 -87,22 -177,49 -90,27 -375,110 -634,185 -258,76 -499,147 -535,159 l -65,22 4,2125 c 2,1169 6,2231 10,2360 l 6,234 75,29 c 41,15 129,48 195,71 66,24 188,69 270,100 83,32 204,77 270,101 66,24 188,69 270,100 83,31 204,76 270,100 66,24 138,50 160,59 39,15 326,121 610,226 77,28 171,63 208,77 l 68,26 -3,61 c -3,58 -4,61 -28,58 -13,-2 -76,-24 -140,-49 -63,-25 -144,-56 -180,-68 -36,-13 -135,-50 -220,-83 -85,-32 -306,-115 -490,-185 -739,-278 -1292,-487 -1301,-492 -5,-4 -9,2 -9,12 0,14 36,32 163,80 89,34 239,91 332,128 268,104 513,199 735,285 113,43 314,121 445,173 132,51 294,115 360,140 66,25 172,66 235,91 63,25 119,45 124,46 5,0 6,-440 2,-1077 z m 372,-192 -11,-1190 23,-73 c 43,-140 148,-248 256,-263 88,-12 276,-26 554,-40 162,-8 421,-22 575,-30 154,-8 348,-15 430,-16 140,-1 153,0 189,22 l 39,23 -6,-124 c -4,-68 -7,-182 -7,-254 v -131 l -24,35 c -19,29 -37,39 -108,63 -76,24 -98,27 -229,27 -79,0 -349,7 -599,15 -250,8 -522,15 -605,17 l -150,3 -70,-36 c -67,-34 -71,-38 -106,-110 l -37,-75 -3,-1395 c -3,-1623 -8,-1519 88,-1591 74,-56 154,-71 285,-51 227,34 1003,146 1207,175 205,29 227,34 269,62 25,16 52,43 61,58 39,68 43,2 5,-75 -43,-88 -17,-80 -529,-157 -148,-22 -326,-49 -395,-60 -457,-73 -658,-100 -756,-100 -96,0 -109,2 -163,29 -60,31 -123,94 -167,167 l -25,42 -7,1913 c -10,2632 -4,4408 13,4352 11,-34 11,-254 3,-1232 z m -428,1123 c 0,-21 -8,-29 -42,-42 -119,-47 -2313,-858 -2316,-857 -2,2 0,13 3,26 5,21 33,34 198,96 106,39 444,167 752,283 308,116 693,261 855,322 162,61 345,130 405,153 134,52 145,53 145,19 z m 785,-699 c 88,-14 203,-32 255,-40 52,-8 151,-24 220,-35 69,-11 253,-40 410,-64 157,-25 401,-63 543,-85 142,-23 262,-41 267,-41 6,0 10,-81 10,-211 v -211 l -37,6 c -21,3 -200,27 -398,52 -579,73 -1038,132 -1210,154 -88,12 -186,24 -217,27 l -58,6 v 239 240 l 28,-6 c 15,-3 99,-17 187,-31 z m -125,-485 c 36,-5 243,-32 460,-60 217,-27 571,-72 785,-100 215,-28 434,-55 488,-62 l 97,-12 v -88 -89 l -32,6 c -18,3 -226,28 -463,55 -236,27 -487,56 -556,64 -332,40 -750,89 -804,95 l -60,6 -3,98 c -2,74 0,97 10,97 7,0 42,-5 78,-10 z m 312,-265 c 211,-24 518,-61 683,-80 165,-19 336,-39 380,-45 44,-5 157,-18 250,-29 94,-12 178,-21 188,-21 16,0 17,-19 11,-342 -4,-189 -11,-344 -15,-346 -5,-2 -18,-21 -31,-43 -17,-30 -29,-40 -57,-46 -20,-3 -146,-1 -281,6 -135,6 -380,18 -545,26 -662,32 -781,43 -866,75 -47,18 -60,29 -87,75 l -32,53 v 381 c 0,241 4,381 10,381 5,0 182,-20 392,-45 z m 548,-1671 c 80,-3 281,-9 446,-14 377,-10 396,-15 457,-104 l 40,-60 5,-1281 5,-1281 -43,-62 c -60,-89 -88,-107 -190,-120 -84,-11 -878,-126 -1220,-177 -243,-37 -319,-28 -382,42 -36,40 -38,109 -38,1516 v 1380 l 30,64 c 27,58 36,67 83,89 l 52,24 305,-5 c 168,-3 370,-8 450,-11 z M 4795,1615 c 237,-69 482,-141 545,-160 63,-18 171,-50 240,-69 69,-20 154,-45 190,-56 226,-67 298,-89 836,-246 l 132,-39 21,-119 c 11,-66 19,-121 17,-123 -2,-2 -68,17 -147,42 -326,105 -426,137 -669,215 -140,45 -379,121 -530,170 -151,49 -354,114 -450,144 -542,174 -650,211 -650,223 0,19 15,17 115,-16 50,-16 209,-66 355,-111 146,-45 335,-104 420,-130 85,-27 265,-83 400,-125 135,-42 315,-98 400,-125 695,-217 690,-216 701,-199 5,8 8,37 7,64 -3,57 16,46 -193,110 -228,70 -1572,480 -1875,571 -173,53 -319,101 -325,106 -7,7 -3,8 10,5 11,-4 214,-63 450,-132 z m -250,21 c 631,-191 1077,-327 1205,-367 52,-16 284,-87 515,-157 l 420,-128 3,-32 c 2,-18 0,-32 -4,-32 -4,0 -78,22 -163,49 -86,27 -221,70 -301,95 -80,24 -241,75 -359,111 -118,37 -219,68 -225,69 -6,2 -83,26 -171,54 -133,42 -1060,331 -1117,348 -11,3 -18,15 -18,30 0,19 4,24 18,20 9,-3 98,-30 197,-60 z"
       id="path4"
       inkscape:connector-curvature="0" />
    <path
       d="m 8088,7343 c -9,-2 -19,-12 -22,-21 -9,-31 19,-481 30,-492 6,-6 93,-25 194,-42 178,-29 184,-30 197,-12 11,15 12,64 7,254 -4,152 -10,239 -18,247 -6,7 -85,26 -174,42 -163,31 -181,33 -214,24 z m 197,-82 140,-28 6,-199 c 4,-109 5,-201 3,-203 -2,-2 -68,7 -146,20 l -143,24 -7,135 c -3,74 -8,168 -11,208 -3,48 0,72 7,72 6,-1 74,-13 151,-29 z"
       id="path6"
       inkscape:connector-curvature="0" />
    <path
       d="m 7456,7282 c -11,-17 -16,-108 -8,-121 6,-8 49,-20 102,-28 115,-18 125,-13 114,64 -3,28 -9,56 -13,62 -13,21 -184,41 -195,23 z"
       id="path8"
       inkscape:connector-curvature="0" />
    <path
       d="m 7726,7224 c -20,-19 -21,-97 -2,-113 17,-14 167,-37 189,-28 13,5 17,19 17,59 0,29 -4,58 -8,65 -4,6 -36,14 -72,18 -36,3 -75,8 -87,11 -12,2 -29,-3 -37,-12 z"
       id="path10"
       inkscape:connector-curvature="0" />
    <path
       d="m 6676,7342 c -10,-16 -16,-315 -21,-1072 -3,-415 -10,-1137 -15,-1605 -29,-2655 -34,-3495 -21,-3495 22,0 19,-149 41,2115 5,556 12,1172 15,1370 3,198 8,765 11,1260 3,495 7,905 9,912 10,30 6,518 -3,521 -6,2 -13,-1 -16,-6 z"
       id="path14"
       inkscape:connector-curvature="0" />
    <path
       d="m 4955,5618 c -16,-6 -46,-22 -65,-36 -19,-15 -43,-26 -54,-27 -27,0 -70,-65 -96,-145 -12,-35 -27,-75 -35,-90 -40,-79 -42,-252 -5,-427 21,-103 86,-244 122,-267 30,-18 116,-36 177,-36 44,0 54,5 102,48 30,26 55,50 57,54 2,3 16,26 32,50 65,98 123,441 100,595 -20,136 -80,231 -172,273 -47,21 -115,25 -163,8 z"
       id="path16"
       inkscape:connector-curvature="0" />
    <path
       d="m 4597,3473 c -3,-5 -8,-258 -12,-563 -6,-461 -5,-558 7,-567 11,-9 71,-24 253,-63 22,-5 150,-34 285,-65 135,-30 252,-55 262,-55 22,0 24,37 26,580 1,250 5,501 9,557 4,73 2,107 -6,117 -8,10 -44,16 -114,20 -56,3 -221,13 -367,21 -146,8 -282,17 -302,20 -20,3 -39,2 -41,-2 z"
       id="path18-1"
       inkscape:connector-curvature="0" />
  </g>
  <g
     transform="matrix(0.01634664,0,0,-0.01460535,245.52604,272.05876)"
     id="impresora"
     style="fill:#000000;stroke:none"
     inkscape:label="impresora">
    <path
       d="m 2704,5279 c -100,-12 -178,-43 -229,-93 -38,-37 -47,-56 -93,-196 -94,-285 -210,-683 -251,-865 -23,-99 -49,-210 -57,-247 l -16,-68 -37,5 c -168,24 -944,79 -995,71 -27,-5 -56,-22 -101,-63 -35,-31 -61,-61 -58,-67 3,-5 2,-6 -4,-3 -13,8 -76,-57 -66,-68 5,-4 3,-5 -3,-2 -6,4 -25,-8 -42,-26 -17,-17 -51,-52 -76,-76 -25,-25 -42,-49 -39,-54 3,-6 1,-7 -4,-4 -15,10 -106,-91 -99,-109 3,-9 1,-12 -4,-9 -15,9 -30,-40 -26,-86 4,-50 31,-88 77,-111 39,-20 754,-130 1477,-228 152,-20 236,-36 264,-50 21.7289,-10.3706 116.866,-97.6336 152.0433,-96.0757 78.2883,3.467 127.8716,9.2431 34.5205,9.8287 -13,8 -161.5638,86.247 -146.5638,86.247 16,0 346,-47 378,-54 8,-2 -4.554,-10.4187 -30,-12 0,0 -275.7893,-13.4831 -235.9567,-30.0757 119.5845,-9.4355 110.0495,-4.5382 212.5524,6.8736 50.1487,10.0411 67.5789,15.8264 71.4043,18.2021 6,8 12,11 12,7 0,-5 6,-4 13,2 12,11 309,-26 1212,-148 443,-60 722,-91 807,-91 207,1 418,96 510,228 18,26 89,150 159,275 l 126,226 -41,11 c -59,16 -545,94 -794,127 l -214,29 7,90 c 23,311 42,465 96,783 97,572 92,531 79,582 -6,25 -23,58 -38,73 -25,27 -120,82 -127,75 -2,-2 21,-16 51,-32 84,-44 102,-97 78,-223 -30,-157 -124,-718 -124,-743 0,-4 -7,-7 -15,-7 -18,0 -18,2 -4,26 8,12 9,24 2,35 -7,12 -16,-26 -32,-139 -13,-86 -20,-163 -17,-171 3,-8 2,-13 -3,-10 -4,3 -11,-18 -14,-47 -16,-155 -40,-276 -56,-280 -9,-2 0,-2 19,0 28,3 32,1 20,-7 -12,-9 -10,-10 12,-6 34,8 58,-2 51,-20 -3,-8 0,-14 6,-14 6,0 11,-4 11,-10 0,-5 -7,-10 -15,-10 -8,0 -15,3 -15,8 0,4 -15,8 -33,9 -17,0 -115,15 -217,32 -171,28 -309,48 -815,116 -104,14 -251,34 -325,45 -74,10 -166,22 -205,26 -49,5 -64,10 -50,15 11,5 -4,6 -34,2 -36,-4 -52,-3 -48,4 4,7 -9,10 -36,10 -23,0 -94,7 -157,16 -63,9 -182,24 -265,32 -250,25 -247,24 -240,45 3,11 26,107 50,214 34,153 116,470 162,629 6,21 4,21 333,2 447,-26 1483,-103 1878,-141 41,-4 62,-2 62,5 0,6 -10,11 -22,12 -22,1 -22,1 2,9 14,4 21,9 15,9 -5,1 -2,6 8,12 14,8 17,18 12,40 -4,16 -2,29 3,29 13,0 25,149 17,205 -6,38 -11,45 -30,45 -13,0 -25,-5 -27,-12 -3,-9 -6,-9 -12,0 -4,7 -2,12 3,12 16,0 13,30 -3,36 -8,3 -24,0 -36,-6 -27,-14 -73,11 -64,35 4,10 0,15 -14,15 -12,0 -25,6 -29,13 -11,18 -69,41 -82,32 -6,-3 -11,1 -11,10 0,8 -10,20 -22,24 -21,8 -21,10 -5,16 10,4 29,3 43,-3 14,-7 24,-8 24,-2 0,14 -46,23 -78,17 -31,-6 -59,22 -41,40 7,7 1,13 -17,17 -22,6 -25,9 -13,17 7,5 21,9 29,9 13,0 13,-2 0,-11 -12,-9 -12,-10 3,-5 10,3 22,6 25,6 4,0 0,5 -8,10 -16,11 20,9 149,-9 41,-6 77,-9 79,-6 3,3 1,5 -4,5 -5,0 -36,5 -69,10 -117,20 -269,39 -277,34 -4,-3 -72,2 -150,10 -495,52 -1119,84 -1274,65 z"
       id="path4-8"
       inkscape:connector-curvature="0"
       sodipodi:nodetypes="ccccccccccccccccccsccccscscscccscccccccccccccsccsscccscccccccsssscccccccsssccccccscccccscsccssccsccscccscsccsccscccscccc" />
    <path
       d="m 5892,3184 c -3,-47 -195,-523 -277,-684 -33,-65 -76,-113 -136,-151 -26,-18 -46,-36 -43,-40 3,-5 -2,-6 -10,-3 -8,3 -28,-2 -45,-10 -52,-27 -190,-55 -326,-66 -290,-23 -410,-68 -489,-183 -20,-29 -43,-73 -52,-99 -13,-41 -19,-47 -37,-43 -12,2 -65,9 -117,15 -242,29 -970,137 -1405,209 -264,44 -581,96 -705,115 -1067,168 -1528,248 -1543,270 -4,6 -5,19 -3,29 2,9 0,15 -5,11 -8,-5 -13,13 -12,44 1,7 -2,11 -5,8 -9,-10 -34,33 -26,46 4,6 3,8 -3,5 -6,-4 -19,6 -29,21 -20,31 -70,80 -120,118 -19,15 -31,31 -27,37 3,5 1,7 -5,3 -6,-3 -37,9 -69,27 -32,19 -90,53 -129,75 -39,23 -80.88771,58 -97.88771,77 l -14.17402,35.1245 -9.94031,36.6437 -4.00481,54.241 10.83393,52.1878 634.33474,630.833 c 0,0 228.61848,48.1408 235.21618,52.663 43.854,30.0586 -233.28785,-18.4456 -253.45983,-35.8989 C 683.68159,3761.8541 472.2496,3563.8338 317.26814,3410.4944 226.75305,3320.9383 155.52116,3268.7619 125.45466,3203.0496 118.22825,3159.3317 145,3003 145,3003 c 18,-146 81,-505 159,-904 19,-97 44,-195 55,-218 29,-56 99,-100 244,-152 l 118,-43 -57,-57 C 633,1598 541,1523 459,1464 303,1350 294,1338 326,1292 c 26,-37 184,-108 315,-141 39,-10 69,-22 67,-27 -1,-5 -85,-80 -187,-167 C 418,870 334,792 332,784 c -2,-8 6,-29 17,-48 18,-29 29,-35 83,-46 35,-6 72,-16 83,-20 11,-5 90,-25 175,-45 98,-23 173,-47 205,-65 29,-17 191,-70 393,-130 l 342,-101 333,-39 c 238,-27 393,-51 547,-84 118,-25 305,-59 415,-75 110,-17 217,-33 237,-37 36,-6 39,-5 53,29 14,33 215,326 268,389 l 22,27 80,-14 c 181,-30 479,-44 545,-26 19,5 45,42 110,157 47,82 107,185 133,227 42,68 52,77 78,77 18,0 29,-5 29,-14 0,-44 618,-20 767,30 92,31 130,63 172,144 45,86 176,382 228,515 100,257 120,327 152,525 31.8535,203.5855 91.3986,767.7546 97.4584,1020.9232 C 5866.3688,3172.3704 5484.0898,3326.2917 5597,3358 c 199.4364,-100.0297 296,-148 295,-174 z M 1486,2231 c -3,-5 35,-9 88,-9 51,0 102,-5 112,-10 10,-6 82,-17 159,-26 122,-14 242,-30 310,-41 11,-2 35,-4 53,-4 23,-1 31,-5 26,-13 -5,-8 -2,-9 11,-4 19,7 89,-6 160,-30 22,-7 60,-15 85,-18 25,-3 68,-10 95,-17 28,-6 60,-11 73,-11 12,0 22,-3 22,-7 0,-7 27,-10 169,-15 57,-3 107,-8 110,-13 3,-4 35,-8 71,-8 36,0 90,-6 120,-12 73,-16 235,-41 340,-53 47,-6 104,-17 127,-26 24,-8 47,-13 53,-9 13,8 161,-14 174,-26 6,-5 36,-9 68,-9 32,0 58,-4 58,-8 0,-17 -158,-479 -199,-582 -66,-166 -154,-323 -263,-469 -149,-200 -121,-181 -236,-161 -53,10 -182,34 -287,53 -104,20 -282,52 -395,72 -350,61 -616,114 -850,170 -124,29 -295,68 -380,85 -85,18 -231,52 -325,76 -93,24 -213,54 -265,65 -52,12 -101,24 -108,28 -7,4 59,61 178,150 203,153 277,222 342,317 40,58 149,272 241,472 26,56 52,102 58,102 5,0 8,-4 5,-9 z"
       id="path6-0"
       inkscape:connector-curvature="0"
       sodipodi:nodetypes="ccccscccccccccccccccccccccccccccsssccccccscccccsccccccccccccccccccsscccccccssccccsccscssccscccccsscccccccccscccss" />
    <g
       inkscape:label="btn_encendido"
       transform="matrix(7.0993333,0,0,-7.0932388,2801.4465,3697.2548)"
       id="btn_encendido-8"
       inkscape:transform-center-x="8.0683388"
       inkscape:transform-center-y="3.6720608e-06">
      <ellipse
         style="opacity:1;fill:#00ffff;fill-opacity:1;fill-rule:nonzero;stroke:none;stroke-width:0.29054588;stroke-linecap:round;stroke-linejoin:round;stroke-miterlimit:4;stroke-dasharray:none;stroke-opacity:1"
         id="path22-5"
         cx="90.050217"
         cy="284.50171"
         rx="23.307459"
         ry="23.715717"
         transform="matrix(0.89515715,-0.4457507,0.43896522,0.89850406,0,0)" />
      <ellipse
         cx="205.28265"
         cy="215.45551"
         rx="17.689558"
         ry="18.499407"
         style="opacity:1;fill:#000000;fill-opacity:1;fill-rule:nonzero;stroke:none;stroke-width:0.62969494;stroke-linecap:round;stroke-linejoin:round;stroke-miterlimit:4;stroke-dasharray:none;stroke-opacity:1"
         id="path18-6-4" />
      <path
         style="opacity:1;fill:#00ffff;fill-opacity:1;fill-rule:nonzero;stroke:none;stroke-width:0.33703911;stroke-linecap:round;stroke-linejoin:round;stroke-miterlimit:4;stroke-dasharray:none;stroke-opacity:1"
         d="m 204.7748,213.28629 c -2.95414,-2.05609 -0.84668,-3.91988 -5.3037,-8.52528 -2.2627,1.77796 -4.93258,5.42413 -4.93287,10.24118 -3.3e-4,6.58719 4.69851,11.92723 10.63514,11.92676 5.93606,-4.3e-4 10.74788,-5.3402 10.74756,-11.92676 -3.2e-4,-5.27994 -2.05415,-8.75392 -4.6659,-10.00183 -4.25054,4.36605 -5.30317,8.28602 -6.48023,8.28593 z"
         id="path18-4-3"
         inkscape:connector-curvature="0"
         sodipodi:nodetypes="ccccccc" />
      <path
         style="opacity:1;fill:#000000;fill-opacity:1;fill-rule:nonzero;stroke:none;stroke-width:0.29362136;stroke-linecap:round;stroke-linejoin:round;stroke-miterlimit:4;stroke-dasharray:none;stroke-opacity:1"
         d="m 205.29487,205.26818 a 8.7570956,9.9187526 0 0 0 -8.75683,9.91992 8.7570956,9.9187526 0 0 0 8.75683,9.91846 8.7570956,9.9187526 0 0 0 8.75684,-9.91846 8.7570956,9.9187526 0 0 0 -8.75684,-9.91992 z"
         id="path18-47-4"
         inkscape:connector-curvature="0" />
      <rect
         style="opacity:1;fill:#00ffff;fill-opacity:1;fill-rule:nonzero;stroke:none;stroke-width:0.15340993;stroke-linecap:round;stroke-linejoin:round;stroke-miterlimit:4;stroke-dasharray:none;stroke-opacity:1"
         id="rect20-2"
         width="2.1100907"
         height="11.700302"
         x="204.13062"
         y="201.02234"
         ry="0" />
    </g>
  </g>
  <g
     transform="matrix(0.1829003,0,0,0.19843879,247.86085,60.242392)"
     id="monitor"
     inkscape:label="monitor">
    <g
       inkscape:label="pantalla"
       style="fill:#000000;stroke:none"
       id="pantalla"
       transform="matrix(0.1,0,0,-0.1,0,430)">
      <path
         inkscape:label="path4"
         sodipodi:nodetypes="cccccssssscccccccccsscccccccccccccssccsccccccccccccsccccc"
         inkscape:connector-curvature="0"
         id="path4-9"
         d="m 177,4276 c -18,-19 -23,-31 -8,-22 14,9 20,-343 31,-1952 6,-832 14,-1520 17,-1530 15,-40 43,-41 345,-7 123,13 374,40 558,60 184,20 373,40 420,45 47,5 193,21 325,35 132,14 257,28 278,31 28,4 37,2 37,-9 0,-27 -43,-122 -69,-151 -48,-53 -55,-55 -456,-101 -327,-38 -290,-28 -333,-92 l -37,-56 35,-29 c 19,-16 123,-74 230,-130 107,-55 291,-149 407,-209 117,-60 232,-113 255,-119 52,-11 147,1 443,59 211,42 677,121 709,121 18,0 55,6 82,14 27,8 77,20 111,27 81,15 100,35 85,88 -11,34 -36,58 -208,192 -380,298 -371,291 -420,297 -24,2 -139,-8 -254,-23 -115,-16 -213,-26 -216,-22 -4,4 1,35 10,69 29,106 35,117 70,123 52,9 604.3877,64.8612 721,76 l 150,14 c 17,2 116,13 220,24 630,75 158.4955,21.7941 630,75 121,13 163,21 173,34 9,12 12,144 12,581 0,311 2,638 5,726 3,88 7,397 10,686 5,540 3,582 -33,593 -10,3 -96,15 -192,26 -96,11 -249,30 -340,40 -91,11 -419,49 -730,85 -807,93 -1040,120 -1375,161 -117,14 -217,25 -555,64 -248,29 -584,68 -775,91 -264,32 -347,35 -368,15 z m 368.10462,-245.834 c 3930.37298,-446.5084 0,0 3775.76828,-427.1828 15.2034,-1154.551 1.5631,-927.4847 -13.7844,-1981.8238 L 556.18464,1357.2772 Z M 1982,228 c 87,-48 162,-88 168,-88 12,0 13,-20 0,-40 -8,-12 -11,-12 -27,2 -10,9 -63,39 -118,68 -215,112 -241,130 -231,156 7,17 -12,26 208,-98 z" />
    </g>
    <g
       inkscape:label="btn_encendido"
       transform="matrix(0.63078722,0,0,0.6424832,286.60728,154.05508)"
       id="btn_encendido">
      <ellipse
         style="opacity:1;fill:#00ffff;fill-opacity:1;fill-rule:nonzero;stroke:none;stroke-width:0.29054588;stroke-linecap:round;stroke-linejoin:round;stroke-miterlimit:4;stroke-dasharray:none;stroke-opacity:1"
         id="path22"
         cx="90.050217"
         cy="284.50171"
         rx="23.307459"
         ry="23.715717"
         transform="matrix(0.89515715,-0.4457507,0.43896522,0.89850406,0,0)" />
      <ellipse
         cx="205.28265"
         cy="215.45551"
         rx="17.689558"
         ry="18.499407"
         style="opacity:1;fill:#000000;fill-opacity:1;fill-rule:nonzero;stroke:none;stroke-width:0.62969494;stroke-linecap:round;stroke-linejoin:round;stroke-miterlimit:4;stroke-dasharray:none;stroke-opacity:1"
         id="path18-6" />
      <path
         style="opacity:1;fill:#00ffff;fill-opacity:1;fill-rule:nonzero;stroke:none;stroke-width:0.33703911;stroke-linecap:round;stroke-linejoin:round;stroke-miterlimit:4;stroke-dasharray:none;stroke-opacity:1"
         d="m 204.7748,213.28629 c -2.95414,-2.05609 -0.84668,-3.91988 -5.3037,-8.52528 -2.2627,1.77796 -4.93258,5.42413 -4.93287,10.24118 -3.3e-4,6.58719 4.69851,11.92723 10.63514,11.92676 5.93606,-4.3e-4 10.74788,-5.3402 10.74756,-11.92676 -3.2e-4,-5.27994 -2.05415,-8.75392 -4.6659,-10.00183 -4.25054,4.36605 -5.30317,8.28602 -6.48023,8.28593 z"
         id="path18-4"
         inkscape:connector-curvature="0"
         sodipodi:nodetypes="ccccccc" />
      <path
         style="opacity:1;fill:#000000;fill-opacity:1;fill-rule:nonzero;stroke:none;stroke-width:0.29362136;stroke-linecap:round;stroke-linejoin:round;stroke-miterlimit:4;stroke-dasharray:none;stroke-opacity:1"
         d="m 205.29487,205.26818 a 8.7570956,9.9187526 0 0 0 -8.75683,9.91992 8.7570956,9.9187526 0 0 0 8.75683,9.91846 8.7570956,9.9187526 0 0 0 8.75684,-9.91846 8.7570956,9.9187526 0 0 0 -8.75684,-9.91992 z"
         id="path18-47"
         inkscape:connector-curvature="0" />
      <rect
         style="opacity:1;fill:#00ffff;fill-opacity:1;fill-rule:nonzero;stroke:none;stroke-width:0.15340993;stroke-linecap:round;stroke-linejoin:round;stroke-miterlimit:4;stroke-dasharray:none;stroke-opacity:1"
         id="rect20"
         width="2.1100907"
         height="11.700302"
         x="204.13062"
         y="201.02234"
         ry="0" />
    </g>
    <g
       inkscape:label="btn_encendido"
       transform="matrix(0.63078723,0,0,0.6424832,-679.03945,-149.32973)"
       id="btn_encendido-7">
      <ellipse
         style="opacity:1;fill:#00ffff;fill-opacity:1;fill-rule:nonzero;stroke:none;stroke-width:0.29054588;stroke-linecap:round;stroke-linejoin:round;stroke-miterlimit:4;stroke-dasharray:none;stroke-opacity:1"
         id="path22-3"
         cx="90.050217"
         cy="284.50171"
         rx="23.307459"
         ry="23.715717"
         transform="matrix(0.89515715,-0.4457507,0.43896522,0.89850406,0,0)" />
      <ellipse
         cx="205.28265"
         cy="215.45551"
         rx="17.689558"
         ry="18.499407"
         style="opacity:1;fill:#000000;fill-opacity:1;fill-rule:nonzero;stroke:none;stroke-width:0.62969494;stroke-linecap:round;stroke-linejoin:round;stroke-miterlimit:4;stroke-dasharray:none;stroke-opacity:1"
         id="path18-6-6" />
      <path
         style="opacity:1;fill:#00ffff;fill-opacity:1;fill-rule:nonzero;stroke:none;stroke-width:0.33703911;stroke-linecap:round;stroke-linejoin:round;stroke-miterlimit:4;stroke-dasharray:none;stroke-opacity:1"
         d="m 204.7748,213.28629 c -2.95414,-2.05609 -0.84668,-3.91988 -5.3037,-8.52528 -2.2627,1.77796 -4.93258,5.42413 -4.93287,10.24118 -3.3e-4,6.58719 4.69851,11.92723 10.63514,11.92676 5.93606,-4.3e-4 10.74788,-5.3402 10.74756,-11.92676 -3.2e-4,-5.27994 -2.05415,-8.75392 -4.6659,-10.00183 -4.25054,4.36605 -5.30317,8.28602 -6.48023,8.28593 z"
         id="path18-4-1"
         inkscape:connector-curvature="0"
         sodipodi:nodetypes="ccccccc" />
      <path
         style="opacity:1;fill:#000000;fill-opacity:1;fill-rule:nonzero;stroke:none;stroke-width:0.29362136;stroke-linecap:round;stroke-linejoin:round;stroke-miterlimit:4;stroke-dasharray:none;stroke-opacity:1"
         d="m 205.29487,205.26818 a 8.7570956,9.9187526 0 0 0 -8.75683,9.91992 8.7570956,9.9187526 0 0 0 8.75683,9.91846 8.7570956,9.9187526 0 0 0 8.75684,-9.91846 8.7570956,9.9187526 0 0 0 -8.75684,-9.91992 z"
         id="path18-47-1"
         inkscape:connector-curvature="0" />
      <rect
         style="opacity:1;fill:#00ffff;fill-opacity:1;fill-rule:nonzero;stroke:none;stroke-width:0.15340993;stroke-linecap:round;stroke-linejoin:round;stroke-miterlimit:4;stroke-dasharray:none;stroke-opacity:1"
         id="rect20-7"
         width="2.1100907"
         height="11.700302"
         x="204.13062"
         y="201.02234"
         ry="0" />
    </g>
  </g>
  <g
     transform="matrix(0.02782777,0,0,-0.0276218,162.0073,199.93112)"
     id="mouse"
     style="fill:#000000;stroke:none"
     inkscape:label="mouse">
    <path
       d="m 1075,1870 c -27,-11 -86,-46 -130,-77 l -80,-57 -220,-1 c -250,-1 -332,-16 -454,-80 -91,-48 -181,-137 -181,-178 0,-27 17,-20 40,18 50,81 166,154 300,190 74,20 435,34 451,18 5,-5 -26,-39 -80,-85 -148,-128 -197,-202 -180,-276 12,-55 74,-135 219,-287 195,-202 365,-413 540,-674 83,-122 87,-127 155,-161 68,-34 73,-39.1198 185,-45.53543 C 1738.4719,181.8802 1764,190 1809,208 c 80,34 168,99 222,167 62,75 76,107 95,203 41,206 -32,458 -199,686 -115,158 -452,461 -638,574 -87,53 -141,61 -214,32 z m 165,-25 c 53,-27 253,-175 334,-247 l 49,-44 -54,-41 c -118,-92 -112,-85 -101,-138 17,-78 7,-81 -60,-20 -33,30 -77,65 -99,78 -30,17 -39,28 -39,50 0,36 -72,115 -133,145 -24,12 -67,23 -94,25 -31,2 -61,11 -80,25 -17,12 -43,26 -58,32 l -28,11 79,56 c 142,100 196,113 284,68 z M 945,1668 c 25,-16 35,-30 35,-49 0,-29 32,-63 134,-138 62,-47 72,-52 116,-50 43,2 55,-2 102,-38 29,-22 71,-57 93,-76 39,-36 40,-36 14,-37 -15,0 -43,7 -62,15 -20,8 -41,15 -46,15 -5,0 -86,-70 -180,-155 -94,-85 -176,-155 -182,-155 -15,0 -299,231 -342,280 -46,50 -71,104 -63,136 8,32 121,151 215,226 83,66 99,69 166,26 z m 182,-53 c 98,-49 167,-153 113,-170 -30,-10 -58,3 -135,60 -89,67 -119,100 -112,119 10,25 76,20 134,-9 z m 638,-197 c 132,-136 194,-219 260,-353 85,-171 113,-334 85,-486 -34,-179 -214,-346 -408,-379 -89,-15 -164,-2 -251,42 l -63,33 -38,116 c -70,213 -174,397 -300,528 -59,61 -61,65 -43,81 10,9 86,78 170,154 l 152,137 55,-17 c 52,-16 56,-16 82,1 26,16 26,20 21,81 l -6,63 75,61 c 58,46 79,58 92,51 9,-5 62,-56 117,-113 z M 825,1085 c 231,-182 322,-287 424,-492 47,-94 114,-268 88,-229 -148,224 -390,528 -567,711 -74,77 -146,156 -160,175 -23,34 -22,33 26,-10 27,-25 112,-94 189,-155 z"
       id="path4-5"
       inkscape:connector-curvature="0"
       sodipodi:nodetypes="cccccsccsccccsccccccccccccccsccccccccsccccccssscsccscccsccccccccccccccccccccccccc" />
  </g>
  <g
     transform="matrix(0.00936398,0,0,-0.00981893,85.601562,270.10434)"
     id="teclado"
     style="fill:#000000;stroke:none"
     inkscape:label="teclado">
    <path
       d="M 187,4426 C 125,4409 71,4365 40,4304 L 15,4256 12,3490 C 11,2984 13,2730 20,2740 25.367784,2748.4351 -10.447238,667.92999 -2.2803967,462.86609 0.20294654,400.511 35.48357,249.52472 35.954097,285.39508 37.285238,386.87376 40,2685 46,2727 c 2,15 6,361 10,768 3,430 10,753 15,772 14,45 45,80 90,103 38,20 85,20 5849,20 5764,0 5811,0 5849,-20 45,-23 76,-58 90,-103 5,-19 12,-342 15,-772 3,-407 2.297,-780.5528 7.297,-799.5528 L 11975.424,233.80858 86.123954,210.65797 -2.2803967,462.86609 C 15.076817,486.11313 -9.1522213,97.730005 21.218779,97.790315 811.64202,99.360065 12025.877,101.58876 12025.452,147.81512 12021.419,586.83246 11993.69,2749.9158 12000,2740 c 7,-10 9,244 8,750 l -3,765 -25,50 c -31,62 -92,110 -160,124 -81,17 -11569,14 -11633,-3 z"
       id="path4-1"
       inkscape:connector-curvature="0"
       sodipodi:nodetypes="cccccssccccscccccccsscccscc" />
    <path
       d="m 430,3993 c -50,-19 -50,-20 -50,-288 0,-240 1,-254 21,-279 l 20,-26 h 254 c 234,0 255,1 276,19 l 24,19 v 261 c 0,236 -2,262 -18,278 -16,16 -43,18 -265,20 -136,1 -254,-1 -262,-4 z m 493,-49 c 15,-5 17,-31 17,-239 0,-223 -1,-233 -21,-251 -19,-17 -40,-19 -228,-21 -113,-1 -218,1 -233,4 l -28,5 2,237 3,236 2,-228 3,-227 228,2 227,3 3,225 c 1,123 1,229 -2,235 -2,6 -24,9 -50,7 -44,-4 -45,-5 -31,-25 12,-17 15,-55 15,-170 0,-130 3,-153 21,-188 26,-51 18,-61 -20,-25 -27,26 -35,28 -145,33 l -116,6 -50,-31 c -28,-17 -50,-29 -50,-27 0,2 9,24 20,50 17,40 20,69 20,193 0,121 3,148 17,164 15,17 14,18 -15,18 -18,0 -32,4 -32,9 0,11 417,15 443,5 z"
       id="path6-6"
       inkscape:connector-curvature="0" />
    <path
       d="m 1262,3990 c -12,-5 -27,-21 -32,-35 -6,-15 -10,-133 -10,-266 v -240 l 25,-24 24,-25 h 976 c 962,0 975,0 995,20 19,19 20,33 20,278 0,141 -4,262 -8,268 -22,33 -44,34 -1009,33 -550,0 -968,-4 -981,-9 z m 283,-60 c 129,0 125,5 125,-181 0,-130 3,-155 20,-189 26,-52 26,-69 -2,-43 -44,39 -65,44 -181,41 -108,-2 -112,-3 -154,-35 -24,-18 -43,-31 -43,-29 0,2 9,25 20,51 17,39 20,69 20,188 0,93 5,150 13,167 12,24 50,41 75,34 8,-2 56,-4 107,-4 z m 598,-22 c 14,-17 17,-42 17,-167 0,-124 3,-153 20,-190 22,-48 20,-62 -5,-37 -39,39 -74,47 -183,45 -99,-2 -110,-4 -149,-30 -24,-16 -43,-26 -43,-23 0,3 9,22 20,44 17,34 20,59 20,193 0,201 -6,194 179,189 92,-3 108,-6 124,-24 z m 372,22 c 128,0 125,5 125,-178 0,-136 2,-151 25,-200 14,-30 25,-56 25,-58 0,-2 -20,11 -43,29 -43,32 -47,34 -149,36 -110,2 -159,-9 -187,-42 -26,-32 -31,-17 -10,26 20,38 22,55 20,187 -1,102 2,152 11,170 13,24 51,41 76,34 8,-2 56,-4 107,-4 z m 600,-23 c 12,-17 15,-54 15,-170 0,-128 3,-153 20,-187 11,-22 20,-42 20,-45 0,-4 -19,7 -42,24 -42,29 -46,30 -155,30 -106,0 -114,-2 -157,-30 -25,-15 -46,-26 -46,-23 0,2 9,22 20,44 17,34 20,59 20,187 0,206 -5,200 182,195 97,-3 109,-5 123,-25 z"
       id="path8-1"
       inkscape:connector-curvature="0" />
    <path
       d="m 3484,3990 c -12,-5 -24,-13 -28,-18 -3,-5 -7,-127 -8,-271 l -3,-263 24,-19 c 22,-18 53,-19 997,-19 961,0 974,0 994,20 19,19 20,33 20,278 0,207 -3,262 -14,278 -14,19 -37,19 -988,21 -537,1 -983,-2 -994,-7 z m 396,-80 c 5,-8 10,-80 10,-160 0,-133 2,-150 25,-197 23,-51 21,-69 -6,-37 -29,35 -66,44 -180,44 -109,0 -112,0 -151,-31 -21,-17 -40,-30 -42,-28 -2,2 6,24 17,49 18,39 21,62 19,185 -4,204 -4,204 190,195 82,-4 111,-9 118,-20 z m 968,7 c 9,-6 12,-50 12,-160 0,-140 2,-156 24,-202 14,-27 23,-52 21,-54 -2,-2 -18,8 -35,23 -42,35 -61,38 -183,34 -96,-3 -107,-5 -140,-31 -41,-31 -46,-23 -19,26 14,27 17,58 17,188 0,169 5,185 53,191 45,5 236,-6 250,-15 z m 485,-4 c 15,-14 17,-36 17,-164 0,-125 3,-154 20,-194 11,-26 20,-49 20,-51 0,-3 -20,9 -45,26 -44,30 -47,31 -153,29 -107,-1 -142,-10 -177,-45 -25,-26 -28,-10 -6,35 18,35 21,58 21,188 0,205 -5,201 180,195 78,-3 110,-8 123,-19 z m -969,-5 c 13,-18 16,-53 16,-168 0,-123 3,-152 20,-189 11,-24 19,-45 17,-47 -1,-1 -23,11 -47,27 -45,30 -46,30 -162,27 -112,-3 -118,-4 -145,-30 -16,-16 -32,-28 -36,-28 -7,0 12,61 24,75 5,5 9,79 9,164 0,201 -8,191 161,191 121,0 129,-1 143,-22 z"
       id="path10-2"
       inkscape:connector-curvature="0" />
    <path
       d="m 5710,3993 c -38,-14 -40,-30 -40,-299 0,-260 0,-263 22,-278 20,-14 131,-16 993,-16 862,0 973,2 993,16 22,15 22,18 22,278 0,211 -3,266 -14,282 -14,19 -37,19 -988,21 -535,1 -980,-1 -988,-4 z m 1843,-80 c 15,-14 17,-36 17,-165 0,-129 3,-155 20,-190 29,-59 25,-64 -22,-29 -41,30 -44,31 -158,31 -115,0 -116,0 -153,-31 -21,-17 -40,-29 -42,-27 -3,3 5,24 16,48 18,38 21,60 20,184 -2,204 -2,204 183,198 75,-3 106,-8 119,-19 z m -1453,-2 c 5,-11 10,-82 10,-160 0,-127 2,-146 24,-196 14,-30 23,-55 20,-55 -3,0 -21,12 -41,27 -33,26 -44,28 -152,31 l -117,4 -47,-36 c -26,-20 -47,-34 -47,-33 0,2 11,27 25,55 23,48 25,63 25,198 0,81 5,154 10,165 10,17 22,19 145,19 123,0 135,-2 145,-19 z m 482,2 c 16,-14 18,-33 18,-164 0,-125 3,-154 20,-194 11,-26 20,-49 20,-51 0,-2 -17,7 -38,21 -34,22 -53,26 -155,32 l -115,6 -43,-31 c -23,-18 -44,-30 -46,-28 -2,2 5,21 16,42 19,34 21,56 21,189 0,203 -7,195 157,195 104,0 130,-3 145,-17 z m 489,0 c 10,-12 14,-56 16,-168 1,-132 4,-159 22,-196 12,-23 19,-44 16,-47 -2,-2 -21,10 -42,27 -37,31 -38,31 -154,31 -113,0 -117,-1 -157,-30 -48,-34 -50,-31 -22,28 17,35 20,61 20,187 0,82 5,155 10,166 10,17 22,19 144,19 112,0 136,-3 147,-17 z"
       id="path12-5"
       inkscape:connector-curvature="0" />
    <path
       d="m 7900,3989 c -13,-6 -28,-15 -32,-22 -4,-7 -8,-127 -8,-268 0,-205 3,-259 14,-275 14,-18 35,-19 772,-22 668,-2 760,-1 780,13 l 24,15 v 263 c 0,144 -4,267 -8,273 -22,33 -48,34 -784,33 -457,0 -742,-4 -758,-10 z m 1510,-59 c 6,-11 10,-104 10,-227 0,-219 -6,-251 -45,-261 -38,-10 -1414,-12 -1440,-2 l -25,10 2,222 3,223 2,-217 3,-218 h 225 225 v 230 c 0,127 -1,233 -2,238 -3,6 -23,7 -82,3 -18,-1 -18,-2 -3,-13 14,-11 17,-36 18,-163 2,-134 4,-156 25,-203 13,-29 24,-55 24,-58 0,-3 -16,8 -35,25 -46,40 -63,44 -188,39 -96,-3 -107,-5 -140,-31 -42,-32 -46,-24 -17,33 17,34 20,59 20,189 0,120 3,153 15,165 20,20 19,25 -5,19 -11,-3 -20,-1 -20,4 0,7 256,11 710,11 689,1 710,1 720,-18 z"
       id="path14-2"
       inkscape:connector-curvature="0" />
    <path
       d="m 8430,3700 v -240 h 225 225 v 230 c 0,127 0,233 0,238 0,7 -100,11 -100,4 0,-2 7,-10 15,-18 12,-12 15,-45 15,-159 0,-131 2,-149 24,-200 24,-53 22,-71 -5,-39 -27,33 -63,42 -176,42 l -113,1 -45,-34 c -25,-19 -45,-32 -45,-30 0,3 10,27 23,53 22,43 23,58 21,187 -1,104 2,147 12,167 8,15 14,28 14,30 0,2 -20,4 -45,5 l -45,2 z"
       id="path16-8"
       inkscape:connector-curvature="0" />
    <path
       d="m 8940,3701 v -241 h 225 224 l 3,236 c 2,130 0,238 -3,240 -4,2 -27,1 -52,-2 -40,-6 -44,-8 -31,-21 8,-8 14,-20 14,-26 1,-7 1,-74 0,-149 -1,-128 1,-140 25,-187 14,-28 23,-51 19,-51 -3,0 -23,14 -44,30 -37,29 -40,30 -152,30 -112,0 -116,-1 -156,-30 -23,-16 -44,-30 -47,-30 -3,0 4,19 16,43 20,38 22,55 20,187 -1,112 2,151 13,173 12,21 12,27 2,27 -8,0 -28,3 -45,6 l -31,7 z"
       id="path18"
       inkscape:connector-curvature="0" />
    <path
       d="m 405,3005 -25,-24 V 1728 C 380,610 382,472 396,452 l 15,-22 h 3643 c 3576,0 3643,0 3660,19 16,18 18,98 17,1282 0,1144 -1,1263 -16,1278 -14,15 -332,16 -3651,19 l -3635,2 z m 406,-64 c 17,-20 19,-40 19,-173 0,-131 3,-154 21,-189 11,-23 18,-43 16,-45 -2,-3 -19,7 -37,22 -31,27 -34,27 -162,25 -130,-2 -132,-2 -170,-33 l -39,-30 18,38 c 9,22 24,48 33,58 8,11 11,17 5,14 -15,-9 -7,292 8,310 21,26 51,32 160,29 101,-2 110,-4 128,-26 z m 479,4 c 18,-17 20,-30 20,-167 0,-129 3,-155 20,-190 28,-59 25,-64 -17,-32 -37,28 -38,28 -163,25 -126,-2 -145,-7 -184,-46 -21,-21 -20,-17 4,40 17,39 20,69 20,191 0,84 5,154 11,165 17,32 47,38 161,35 88,-2 111,-6 128,-21 z m 486,3 c 14,-13 17,-42 19,-175 1,-140 4,-163 23,-200 30,-57 28,-60 -13,-24 -20,17 -43,31 -53,32 -9,0 -68,0 -131,0 -112,0 -115,-1 -152,-31 -36,-28 -38,-29 -30,-8 5,13 16,37 25,53 13,24 16,63 16,187 v 157 l 27,15 c 42,21 246,17 269,-6 z m 485,-7 c 17,-20 19,-41 19,-166 0,-122 3,-150 20,-191 11,-26 19,-48 17,-50 -2,-2 -17,7 -33,21 -31,27 -29,27 -184,25 -94,-1 -109,-3 -139,-25 -19,-13 -37,-23 -39,-21 -2,2 6,22 17,45 19,35 21,58 21,193 0,84 4,158 8,164 19,28 50,34 160,32 106,-3 115,-5 133,-27 z m 487,2 c 8,-12 12,-62 12,-165 0,-139 2,-152 25,-198 14,-27 25,-52 25,-55 0,-3 -17,8 -37,24 -37,29 -40,30 -165,32 -131,2 -147,-2 -192,-46 -22,-22 -20,-12 6,38 19,38 21,55 19,175 -3,145 8,198 43,213 11,5 73,7 136,4 92,-4 117,-9 128,-22 z m 485,-5 c 15,-18 18,-40 16,-170 -1,-131 2,-153 20,-190 11,-23 19,-43 18,-45 -2,-1 -20,9 -40,22 -34,23 -44,25 -164,25 h -128 l -40,-32 c -22,-18 -37,-28 -34,-23 45,81 49,104 49,253 0,155 5,175 45,185 11,3 70,4 130,1 96,-4 112,-8 128,-26 z m 478,6 c 17,-15 19,-32 19,-165 0,-136 2,-153 25,-204 l 24,-56 -37,31 -37,30 h -131 c -120,0 -134,-2 -160,-22 -16,-12 -32,-27 -36,-33 -16,-22 -7,17 12,55 17,34 20,59 20,190 0,147 1,152 25,176 24,24 28,24 140,20 93,-3 120,-8 136,-22 z m 485,1 c 11,-14 14,-55 14,-167 0,-139 2,-152 25,-198 33,-65 32,-68 -10,-31 l -36,31 h -133 c -122,0 -136,-2 -162,-22 -16,-12 -32,-27 -36,-33 -16,-22 -7,8 16,53 21,42 23,57 19,132 -2,47 -1,119 4,160 10,97 18,102 171,98 99,-3 116,-6 128,-23 z m 486,-4 c 16,-20 18,-42 18,-173 0,-131 3,-154 21,-189 11,-23 19,-43 17,-45 -2,-2 -21,8 -41,23 -36,25 -42,26 -160,24 -111,-2 -125,-4 -156,-26 -19,-14 -36,-23 -38,-21 -2,2 6,24 17,50 17,41 20,69 20,194 0,81 4,152 8,159 16,25 60,33 166,30 99,-3 111,-6 128,-26 z m 477,5 c 20,-18 21,-29 21,-168 0,-148 7,-183 48,-252 3,-6 -13,5 -35,23 l -40,32 h -119 c -65,0 -124,0 -131,0 -7,-1 -28,-15 -48,-32 -41,-36 -41,-35 -15,22 17,38 20,66 20,197 0,151 0,153 26,179 25,24 28,25 139,22 94,-3 117,-7 134,-23 z m 488,1 c 16,-15 18,-39 20,-172 1,-131 5,-161 22,-201 25,-56 26,-60 5,-39 -41,41 -58,45 -188,46 l -128,1 -39,-32 c -39,-31 -39,-31 -29,-5 5,14 16,38 25,55 11,22 15,64 15,178 0,155 5,175 45,185 11,3 68,5 127,4 88,-2 111,-5 125,-20 z m 484,-6 c 17,-20 19,-40 19,-166 0,-121 3,-151 20,-190 26,-61 26,-62 -14,-31 -32,24 -41,26 -159,27 -124,1 -152,-5 -185,-38 -24,-23 -25,-7 -3,36 19,35 21,58 21,194 0,200 -2,198 173,194 101,-2 110,-4 128,-26 z m 485,4 c 11,-14 14,-55 14,-166 0,-135 2,-151 25,-204 l 26,-57 -38,31 -38,31 h -130 -130 l -38,-31 c -20,-17 -37,-28 -37,-26 0,2 10,26 22,53 19,44 21,64 19,191 -4,201 -1,204 177,200 99,-2 116,-5 128,-22 z m 977,-3 c 15,-13 17,-35 17,-168 0,-129 3,-159 20,-198 10,-25 17,-46 14,-46 -4,0 -19,11 -36,25 -16,14 -35,25 -41,25 -7,0 -175,1 -374,2 l -362,1 -35,-27 c -20,-15 -36,-25 -36,-22 0,2 9,25 20,51 17,39 20,69 20,186 0,147 6,174 43,189 12,4 182,6 377,3 300,-5 358,-8 373,-21 z M 1053,2442 c 15,-13 17,-35 17,-162 0,-134 2,-150 24,-196 13,-27 22,-51 21,-53 -2,-1 -20,9 -39,24 -36,27 -37,27 -221,30 -102,2 -209,0 -239,-4 -30,-4 -53,-4 -50,1 3,4 1,8 -5,8 -5,0 -12,-4 -15,-9 -3,-5 -22,-18 -41,-29 l -34,-21 19,50 c 17,41 20,74 20,190 0,147 6,174 43,188 12,5 126,6 252,4 187,-5 233,-8 248,-21 z m 490,-3 c 14,-18 17,-43 17,-170 0,-142 1,-152 26,-201 l 26,-52 -23,17 c -13,9 -35,25 -48,35 -20,14 -48,17 -145,18 -125,1 -129,0 -177,-50 -25,-26 -24,-5 2,46 19,37 21,57 20,193 l -2,153 28,22 c 26,21 34,22 143,16 101,-5 117,-9 133,-27 z m 445,20 c 19,-4 39,-14 43,-21 5,-7 9,-80 9,-161 0,-138 2,-151 25,-197 14,-27 25,-52 25,-55 0,-3 -17,8 -38,24 -37,30 -40,31 -162,34 l -124,3 -43,-33 c -24,-18 -43,-31 -43,-29 0,2 9,25 21,51 18,41 21,69 23,202 1,151 2,155 25,174 21,17 38,20 114,18 49,-1 105,-5 125,-10 z m 511,-8 c 19,-11 21,-21 23,-139 1,-70 1,-139 0,-155 -1,-15 9,-50 23,-77 14,-28 23,-50 19,-50 -3,0 -19,11 -36,25 -32,27 -28,27 -177,29 -100,1 -107,0 -144,-27 -38,-28 -39,-28 -32,-5 4,13 14,35 21,50 10,19 14,70 14,177 0,143 1,151 23,172 21,20 29,21 134,16 61,-3 120,-10 132,-16 z m 494,-12 c 14,-18 17,-43 17,-171 0,-131 3,-154 21,-189 11,-23 19,-43 17,-45 -2,-2 -20,8 -40,22 -32,23 -46,26 -154,28 l -119,3 -47,-34 -48,-35 25,54 c 23,49 25,64 25,204 0,198 -1,197 175,189 96,-4 112,-8 128,-26 z m 476,7 c 20,-18 21,-29 21,-170 0,-129 3,-157 20,-195 11,-24 19,-46 17,-48 -2,-1 -17,8 -33,22 -16,14 -38,26 -49,26 -192,12 -222,8 -289,-36 l -29,-19 12,21 c 28,53 33,85 31,214 -1,146 7,184 42,199 13,5 71,8 129,7 89,-2 110,-5 128,-21 z m 487,-1 c 10,-14 14,-57 14,-167 0,-139 2,-152 25,-198 14,-27 25,-52 25,-55 0,-2 -21,11 -46,30 l -46,35 -121,-6 c -109,-5 -125,-8 -154,-30 -17,-13 -34,-24 -36,-24 -3,0 4,19 15,42 18,38 21,61 20,186 -2,208 2,213 177,209 98,-3 115,-6 127,-22 z m 481,2 c 16,-15 18,-39 19,-171 2,-132 5,-159 23,-199 28,-60 27,-66 -6,-35 -46,43 -64,47 -182,44 -107,-3 -114,-4 -156,-34 l -43,-30 24,54 c 22,50 24,68 24,203 0,193 -1,192 172,188 87,-2 111,-6 125,-20 z m 484,-6 c 17,-20 19,-41 19,-170 0,-124 3,-153 20,-190 11,-24 19,-45 17,-47 -1,-1 -22,10 -45,26 -42,28 -46,29 -155,26 -110,-3 -139,-10 -172,-42 -25,-25 -27,-11 -5,37 17,38 20,66 20,196 v 152 l 28,21 c 25,20 36,22 140,18 105,-3 115,-5 133,-27 z m 456,18 c 15,-5 31,-16 35,-22 4,-7 8,-79 8,-160 0,-138 2,-151 25,-197 14,-27 25,-52 25,-56 0,-3 -19,9 -42,28 -42,33 -43,33 -158,34 -111,2 -116,1 -158,-27 -24,-16 -45,-29 -48,-29 -2,0 5,19 17,43 20,38 22,55 20,177 -2,153 5,190 40,207 30,16 197,17 236,2 z m 511,-13 c 14,-14 17,-40 18,-169 1,-133 3,-158 22,-201 12,-27 22,-50 22,-53 0,-2 -18,11 -41,29 l -41,33 -123,-1 c -118,0 -125,-1 -159,-28 -41,-31 -44,-26 -16,32 17,35 20,61 20,192 0,196 -5,190 168,186 90,-2 117,-6 130,-20 z m 484,-6 c 15,-19 18,-44 18,-171 0,-137 2,-153 24,-199 13,-28 21,-50 18,-50 -3,0 -21,15 -40,33 l -33,32 h -126 c -76,0 -131,-4 -137,-11 -16,-16 -66,-47 -66,-41 0,3 9,24 20,48 17,38 20,66 20,195 0,197 -1,196 175,190 98,-4 111,-7 127,-26 z m 478,5 c 18,-16 20,-32 20,-166 0,-135 2,-153 24,-203 l 24,-54 -42,30 c -42,29 -47,30 -164,31 -117,1 -121,0 -157,-27 -20,-15 -38,-26 -39,-25 -2,2 6,24 16,48 17,37 20,65 19,187 -2,151 4,178 42,194 12,5 71,8 130,6 86,-3 112,-7 127,-21 z m 733,-7 c 14,-17 17,-41 17,-163 0,-121 3,-151 20,-190 25,-58 25,-63 1,-40 -20,17 -20,14 -23,-206 -3,-219 -3,-225 20,-267 13,-24 22,-45 20,-47 -2,-3 -21,8 -42,23 -37,26 -45,27 -200,33 -89,4 -162,3 -164,-2 -2,-5 -9,-9 -15,-9 -7,0 -29,-9 -50,-20 -20,-11 -40,-20 -43,-20 -3,0 5,19 19,43 24,41 25,48 28,282 l 4,240 -52,-3 c -44,-2 -59,-8 -90,-37 -20,-19 -39,-32 -41,-31 -2,2 8,27 22,55 24,47 26,59 26,199 0,155 5,176 45,185 11,2 124,2 250,-1 215,-4 231,-5 248,-24 z M 1574,1961 c 26,-5 52,-14 57,-22 5,-8 9,-80 9,-162 0,-136 2,-151 25,-199 14,-28 25,-53 25,-55 0,-2 -17,10 -38,27 -37,30 -43,31 -157,35 -89,4 -121,2 -127,-7 -6,-10 -8,-10 -8,-1 0,7 -17,-3 -37,-22 -21,-19 -39,-33 -40,-31 -2,2 6,25 18,52 19,43 22,65 20,189 -2,153 6,184 49,196 34,10 145,9 204,0 z m 539,-22 c 14,-18 17,-43 17,-171 0,-128 3,-155 20,-190 11,-23 19,-43 17,-44 -2,-2 -20,9 -41,24 -37,26 -44,27 -161,27 -68,0 -121,-3 -118,-7 2,-5 -1,-8 -7,-8 -7,0 -23,-9 -37,-20 -15,-11 -28,-19 -30,-17 -2,2 6,24 17,48 17,38 20,66 20,195 0,197 -1,197 175,189 97,-4 112,-7 128,-26 z m 486,7 c 13,-14 16,-43 17,-170 2,-132 5,-159 23,-201 11,-26 21,-49 21,-52 0,-2 -17,9 -37,26 -36,28 -44,29 -153,34 -122,4 -149,-2 -197,-46 -29,-26 -29,-22 2,41 23,48 25,63 25,199 0,82 4,153 8,160 16,25 59,33 166,29 83,-3 112,-8 125,-20 z m 484,-3 c 15,-14 17,-36 17,-163 0,-137 2,-152 26,-206 l 26,-59 -24,21 c -41,38 -67,45 -180,49 -114,4 -134,0 -175,-38 -22,-20 -23,-20 -23,-1 1,10 7,30 15,44 11,18 14,63 15,172 0,80 3,154 6,163 4,10 21,24 38,31 43,20 233,10 259,-13 z m 490,-4 c 14,-18 17,-43 17,-169 0,-125 3,-155 19,-191 11,-24 18,-45 16,-47 -2,-2 -19,8 -37,22 -31,25 -40,27 -156,29 -67,1 -122,-2 -122,-6 0,-5 -4,-5 -10,-2 -5,3 -10,2 -10,-2 0,-5 -13,-17 -30,-26 -36,-21 -36,-21 -10,34 17,38 20,66 20,195 0,198 -1,197 175,189 96,-5 112,-8 128,-26 z m 444,21 c 47,0 53,-20 53,-181 0,-140 2,-153 25,-199 31,-61 31,-69 3,-43 -42,38 -70,46 -182,49 l -110,3 -48,-34 c -26,-19 -48,-33 -48,-30 0,3 12,29 26,58 26,51 27,55 20,180 -5,99 -3,135 8,161 17,41 33,46 146,41 47,-3 95,-5 107,-5 z m 526,-17 c 15,-14 17,-36 17,-164 0,-126 3,-154 20,-195 11,-26 19,-48 17,-50 -2,-2 -17,7 -33,21 -16,14 -33,25 -39,26 -83,4 -222,2 -218,-3 2,-5 -1,-8 -6,-8 -6,0 -11,5 -11,11 0,6 -20,-5 -45,-25 -25,-21 -45,-35 -45,-32 0,2 9,25 20,51 17,39 20,69 20,191 0,152 6,179 43,194 35,15 239,1 260,-17 z m 487,1 c 12,-11 16,-51 20,-177 4,-122 9,-171 22,-199 20,-45 14,-48 -23,-12 -25,24 -33,25 -154,29 -70,2 -125,2 -122,-2 6,-5 -75,-53 -81,-48 -2,2 6,22 18,45 20,39 22,58 21,194 -1,83 2,156 7,163 17,26 59,33 167,27 77,-4 115,-10 125,-20 z m 442,16 c 53,0 58,-17 58,-181 0,-139 2,-153 25,-201 31,-63 31,-67 3,-41 -13,11 -34,26 -46,33 -30,15 -246,24 -237,10 3,-6 -1,-7 -10,-4 -9,4 -30,-5 -50,-20 -40,-31 -44,-22 -15,34 18,35 19,53 15,177 -7,196 1,206 150,198 44,-3 92,-5 107,-5 z m 531,-21 c 14,-18 17,-43 17,-171 0,-131 3,-154 21,-189 22,-45 19,-61 -6,-35 -34,34 -60,39 -182,38 -117,-1 -125,-3 -150,-27 -24,-22 -43,-32 -43,-22 0,2 9,22 20,45 17,35 20,61 20,187 0,84 5,155 11,166 17,33 48,39 164,34 95,-5 112,-9 128,-26 z m 487,5 c 12,-12 15,-47 17,-169 2,-132 5,-162 23,-201 11,-26 19,-48 17,-50 -1,-2 -17,11 -35,27 l -33,31 h -129 c -125,-1 -131,-2 -165,-28 -19,-14 -35,-24 -35,-21 0,3 9,26 20,52 17,40 20,69 20,194 0,194 -1,193 175,185 79,-3 114,-9 125,-20 z m -5358,-1 c 16,-14 18,-33 18,-159 0,-130 2,-147 25,-195 13,-29 22,-55 20,-57 -2,-3 -18,7 -35,22 -17,14 -39,26 -48,27 -74,3 -262,0 -270,-5 -6,-3 -12,0 -15,6 -3,10 -7,10 -18,2 -8,-6 -23,-9 -34,-7 -37,9 -215,11 -215,3 0,-5 -8,-7 -17,-6 -9,2 -27,-8 -40,-22 -32,-35 -37,-23 -13,29 17,37 20,66 20,189 0,115 3,150 16,168 15,22 17,22 301,22 253,0 289,-2 305,-17 z m 5840,0 c 16,-14 18,-34 18,-167 0,-129 3,-157 20,-195 11,-24 19,-46 16,-48 -2,-2 -17,8 -34,22 -28,23 -40,25 -152,30 l -122,5 -38,-30 c -21,-16 -41,-30 -44,-30 -3,0 3,23 14,50 17,42 20,75 20,193 0,194 -6,187 157,187 104,0 130,-3 145,-17 z M 1396,1446 c 11,-15 14,-56 14,-169 0,-139 2,-152 25,-199 14,-27 25,-52 25,-55 0,-3 -15,8 -34,24 -40,36 -77,43 -208,40 -82,-2 -100,-5 -120,-23 -27,-25 -53,-41 -46,-28 35,57 40,93 38,236 -2,147 -2,147 25,173 25,26 28,27 146,23 106,-3 122,-5 135,-22 z m 481,2 c 10,-8 13,-53 13,-165 0,-144 2,-157 25,-203 14,-27 25,-52 25,-55 0,-3 -17,8 -37,24 -37,30 -41,30 -164,33 l -127,3 -41,-33 c -23,-18 -41,-31 -41,-29 0,2 10,23 21,47 19,39 22,63 23,201 1,172 5,186 59,191 62,6 232,-4 244,-14 z m 486,-5 c 15,-14 17,-36 17,-164 0,-137 2,-153 25,-205 26,-59 24,-60 -31,-12 -17,15 -42,19 -143,22 -121,3 -122,3 -162,-26 -23,-16 -42,-28 -44,-26 -1,2 6,23 17,48 17,38 19,66 18,189 -1,171 5,188 72,193 94,7 213,-3 231,-19 z m 969,0 c 16,-14 18,-35 18,-165 0,-138 2,-152 25,-200 14,-28 25,-54 25,-56 0,-2 -18,10 -39,27 -38,31 -43,32 -158,35 -124,3 -137,0 -190,-48 -29,-25 -29,-17 2,44 23,46 25,59 25,197 0,81 4,153 8,160 14,22 50,28 159,25 81,-2 112,-7 125,-19 z m 490,0 c 16,-14 18,-36 18,-167 0,-139 2,-155 25,-204 l 24,-53 -42,30 c -40,28 -47,30 -164,33 l -123,4 -37,-32 c -21,-18 -39,-31 -41,-30 -1,2 7,23 18,47 17,38 20,66 20,194 0,208 -5,202 180,197 78,-3 109,-7 122,-19 z m 491,-5 c 14,-17 17,-42 17,-172 0,-129 3,-157 20,-195 11,-24 20,-45 20,-48 0,-2 -17,10 -38,26 -36,29 -42,31 -155,34 l -118,4 -49,-33 -49,-34 24,53 c 23,48 25,64 25,203 0,197 -5,191 173,186 98,-3 114,-6 130,-24 z m 429,22 c 64,0 68,-12 68,-181 0,-139 2,-153 25,-201 14,-28 25,-54 25,-56 0,-2 -16,10 -35,27 -20,17 -39,31 -43,32 -4,0 -59,2 -122,3 -119,3 -134,-1 -184,-46 -29,-27 -30,-15 -2,40 24,47 25,58 24,201 -1,159 4,177 45,183 12,2 54,2 92,1 39,-1 87,-2 107,-3 z m 541,-17 c 15,-14 17,-36 17,-164 0,-136 2,-153 24,-204 14,-30 21,-55 15,-55 -5,0 -9,3 -9,8 0,4 -15,17 -34,30 -31,21 -47,24 -152,26 l -118,2 -43,-33 c -24,-18 -43,-30 -43,-28 0,3 9,23 19,43 16,31 19,62 20,192 3,214 -3,207 181,202 78,-3 110,-8 123,-19 z m 490,-5 c 14,-17 17,-42 17,-170 0,-129 3,-155 20,-190 28,-59 25,-65 -15,-29 -32,27 -43,31 -98,32 -34,0 -87,2 -117,5 -57,5 -70,0 -130,-45 l -32,-24 26,51 c 25,49 26,60 26,205 0,201 -6,194 172,189 100,-3 115,-5 131,-24 z m -4825,10 c 8,-8 12,-58 12,-158 0,-128 6,-185 27,-255 3,-12 -5,-6 -18,14 l -24,33 -218,2 c -121,0 -222,-1 -226,-4 -4,-3 -15,-16 -25,-30 l -18,-25 7,25 c 4,14 10,106 14,205 3,99 10,186 14,193 11,17 438,17 455,0 z m 1906,-10 c 13,-18 16,-53 16,-171 0,-128 3,-154 20,-189 28,-59 25,-65 -15,-29 -29,25 -45,31 -83,32 -26,0 -82,1 -125,3 -68,2 -82,-1 -109,-21 -18,-12 -35,-29 -40,-35 -16,-25 -8,10 12,53 17,38 20,66 20,193 0,195 -8,186 161,186 121,0 129,-1 143,-22 z m 3398,5 c 16,-14 18,-33 18,-165 0,-139 2,-152 25,-198 14,-27 25,-52 25,-55 0,-3 -17,7 -37,24 -37,28 -43,29 -161,34 -123,4 -123,4 -163,-25 -42,-31 -48,-24 -22,25 13,26 16,57 14,174 -2,139 4,176 33,195 6,4 65,8 130,8 97,0 123,-3 138,-17 z m 1326,1 c 21,-14 22,-22 22,-162 0,-136 2,-151 25,-200 14,-30 25,-56 25,-58 0,-3 -17,9 -37,25 l -38,30 -547,3 c -302,2 -548,0 -548,-4 0,-4 -6,-8 -13,-8 -8,0 -24,-11 -37,-25 -13,-14 -25,-23 -27,-21 -2,2 6,24 17,50 17,41 20,69 20,199 0,126 3,153 17,169 15,17 46,18 557,18 474,0 544,-2 564,-16 z M 1026,952 c 27,-18 34,-56 34,-189 0,-133 1,-140 29,-195 16,-32 28,-58 26,-58 -2,0 -22,16 -45,35 l -42,35 H 788 c -231,0 -241,-1 -271,-22 -18,-12 -33,-26 -35,-30 -2,-4 -7,-8 -12,-8 -5,0 -2,12 5,28 33,65 37,91 35,226 -1,110 2,143 15,162 l 15,24 h 238 c 130,0 242,-4 248,-8 z m 636,-9 c 16,-14 18,-33 18,-165 0,-114 4,-156 15,-178 9,-17 20,-42 26,-57 l 10,-28 -23,21 c -44,40 -62,44 -255,46 l -189,3 -42,-33 c -23,-19 -42,-31 -42,-29 0,3 9,27 21,54 19,42 21,65 20,185 -2,108 1,143 14,167 l 16,31 h 196 c 169,0 199,-2 215,-17 z m 628,-3 c 18,-18 20,-33 20,-168 0,-128 3,-154 20,-190 19,-40 28,-78 12,-57 -4,6 -20,21 -36,33 -27,21 -38,22 -225,22 h -197 l -34,-30 c -19,-16 -38,-29 -42,-30 -4,0 4,24 17,53 23,48 25,64 25,201 0,125 3,152 17,168 14,16 35,18 210,18 180,0 194,-1 213,-20 z m 2662,3 c 16,-14 18,-33 18,-163 0,-144 1,-148 30,-204 17,-31 27,-56 24,-56 -4,0 -22,14 -41,30 l -34,30 H 3734 c -881,0 -1221,-3 -1237,-11 -12,-6 -32,-21 -44,-32 -28,-25 -28,-22 -1,39 19,43 22,63 20,174 -3,125 7,187 30,202 7,4 557,8 1222,8 1111,0 1211,-1 1228,-17 z m 630,0 c 16,-14 18,-33 18,-164 0,-126 3,-154 20,-195 11,-26 19,-48 17,-50 -2,-2 -18,7 -35,20 -30,22 -43,24 -210,28 -189,5 -222,1 -259,-33 -31,-30 -37,-20 -16,22 14,27 19,68 23,197 4,147 7,165 24,178 16,11 62,14 210,14 162,0 192,-2 208,-17 z m 628,-3 c 18,-18 20,-33 20,-169 0,-127 3,-156 20,-196 20,-48 26,-68 12,-50 -4,6 -21,21 -38,33 -29,20 -43,21 -224,22 l -193,2 -43,-31 -43,-30 24,56 c 23,51 25,68 25,201 0,121 3,148 17,164 14,16 35,18 210,18 180,0 194,-1 213,-20 z m 622,3 c 16,-14 18,-33 18,-165 0,-114 4,-156 15,-178 9,-17 20,-41 25,-55 l 10,-26 -38,30 -37,30 -194,1 -194,1 -44,-30 c -24,-17 -43,-29 -43,-27 0,2 9,23 20,47 16,37 20,66 20,181 0,133 9,185 33,200 7,4 97,8 201,8 162,0 192,-2 208,-17 z m 746,1 c 21,-14 22,-21 22,-165 0,-115 4,-157 15,-179 9,-17 20,-42 25,-56 l 10,-26 -31,26 c -17,14 -40,28 -52,31 -32,6 -516,12 -519,5 -4,-8 -88,-72 -88,-66 0,2 11,24 25,47 24,42 25,52 25,203 0,134 3,162 17,178 15,17 37,18 272,18 216,0 260,-2 279,-16 z"
       id="path20"
       inkscape:connector-curvature="0" />
    <path
       d="m 7925,3018 c -11,-6 -23,-16 -27,-22 -4,-6 -8,-239 -8,-518 0,-495 1,-509 20,-528 20,-20 33,-20 759,-20 713,0 740,1 762,19 l 24,19 -1,512 c -1,466 -2,513 -18,528 -15,16 -77,17 -754,19 -539,2 -742,0 -757,-9 z m 392,-71 c 16,-15 18,-39 20,-175 1,-141 4,-162 23,-196 27,-48 20,-56 -20,-22 -31,25 -36,26 -163,26 h -132 l -38,-31 c -39,-32 -41,-23 -5,36 15,25 18,53 18,185 0,85 4,160 8,166 19,28 50,34 159,32 92,-3 116,-6 130,-21 z m 492,-1 c 20,-18 21,-29 21,-167 0,-125 3,-154 20,-194 26,-61 26,-62 -14,-31 -33,25 -40,26 -163,26 -122,0 -131,-1 -163,-25 -18,-14 -35,-23 -37,-22 -2,2 5,19 14,38 14,27 19,68 23,194 3,88 9,166 14,173 16,25 51,32 157,29 89,-2 110,-5 128,-21 z m 468,13 c 15,-5 31,-16 35,-22 4,-7 8,-79 8,-160 0,-138 2,-151 25,-197 14,-27 25,-52 25,-55 0,-4 -17,7 -37,24 l -38,31 h -130 -130 l -38,-31 -37,-31 21,54 c 19,47 21,71 20,200 -2,145 -2,148 23,173 23,23 32,25 125,25 55,0 112,-5 128,-11 z m -957,-515 c 12,-12 15,-46 17,-172 1,-134 5,-163 21,-197 11,-22 19,-42 17,-44 -2,-2 -18,8 -35,23 -17,14 -37,26 -43,27 -210,11 -228,10 -273,-21 -24,-16 -44,-28 -44,-25 0,2 9,24 20,50 17,40 20,69 20,193 0,81 4,152 8,158 20,30 48,35 162,29 83,-4 119,-10 130,-21 z m 493,-5 c 14,-18 17,-43 17,-168 0,-124 3,-153 20,-190 11,-24 19,-45 17,-47 -2,-2 -19,8 -39,22 -33,24 -45,26 -154,28 -108,2 -122,0 -149,-20 -54,-39 -57,-38 -38,3 13,29 19,74 23,198 3,88 9,166 14,173 16,26 52,32 161,27 97,-4 112,-7 128,-26 z m 474,21 c 1,0 9,-7 17,-16 13,-13 16,-42 16,-165 0,-140 2,-153 25,-199 31,-61 31,-69 3,-43 -43,39 -68,45 -189,46 l -119,1 -40,-33 c -22,-17 -40,-30 -40,-28 0,2 10,23 21,47 19,38 21,63 23,203 1,157 1,159 26,179 23,19 35,20 140,15 63,-3 116,-6 117,-7 z"
       id="path22-1"
       inkscape:connector-curvature="0" />
    <path
       d="m 9615,3018 c -11,-6 -23,-16 -27,-22 -4,-6 -8,-578 -8,-1272 0,-1209 1,-1262 18,-1277 17,-16 102,-17 1013,-17 547,0 999,4 1006,8 6,4 16,19 21,32 6,16 9,505 8,1272 -1,1183 -2,1248 -19,1265 -17,17 -72,18 -1005,20 -725,2 -992,0 -1007,-9 z m 396,-77 c 17,-20 19,-40 19,-173 0,-131 3,-154 21,-189 11,-23 18,-43 16,-45 -2,-3 -18,7 -35,21 -29,24 -35,25 -162,25 h -132 l -39,-31 -38,-30 24,56 c 23,51 25,68 25,205 0,195 -4,190 162,187 113,-2 121,-3 139,-26 z m 466,18 c 15,-5 31,-16 35,-22 4,-7 8,-77 8,-157 0,-133 2,-149 25,-198 24,-53 32,-77 17,-57 -4,6 -21,21 -39,33 -28,20 -43,22 -162,22 h -130 l -36,-31 c -37,-33 -38,-29 -8,39 10,24 15,77 16,188 2,196 1,194 147,194 54,0 111,-5 127,-11 z m 519,-14 c 24,-25 25,-28 23,-174 -1,-113 3,-155 14,-177 8,-16 18,-40 22,-54 7,-23 7,-23 -10,-6 -46,46 -61,49 -193,47 -118,-2 -129,-4 -159,-27 -39,-29 -39,-29 -13,31 17,40 20,69 20,193 0,81 4,152 8,158 17,26 53,33 155,34 102,0 109,-1 133,-25 z m 477,14 c 12,-7 25,-17 29,-23 4,-6 8,-77 8,-157 0,-135 2,-151 25,-204 l 26,-57 -41,32 -40,32 -128,-1 c -105,-1 -131,-5 -152,-19 -49,-36 -52,-35 -33,5 13,29 19,74 23,201 6,207 3,202 157,202 59,0 114,-5 126,-11 z m -1466,-512 c 15,-15 19,-42 23,-185 4,-135 9,-173 23,-200 24,-44 18,-48 -20,-11 -32,29 -34,29 -158,32 -69,2 -125,-1 -125,-5 0,-4 -5,-8 -11,-8 -6,0 -22,-9 -36,-20 -15,-11 -28,-19 -30,-17 -2,2 6,24 17,48 17,38 20,66 20,194 0,83 4,155 8,161 19,28 50,34 159,32 92,-3 116,-6 130,-21 z m 488,-2 c 24,-23 25,-28 25,-175 0,-133 2,-156 21,-191 26,-51 18,-61 -20,-25 -29,28 -33,28 -159,31 l -129,3 -36,-35 c -42,-39 -46,-31 -17,27 17,34 20,59 20,190 0,147 1,152 25,175 23,24 31,25 135,25 104,0 112,-1 135,-25 z m 494,1 c 20,-18 21,-29 21,-168 0,-114 4,-156 15,-178 9,-17 20,-41 25,-55 9,-23 7,-23 -35,9 l -44,34 -118,-2 c -102,-1 -123,-4 -148,-22 -53,-37 -55,-36 -34,12 18,40 21,65 20,195 -2,148 -2,149 24,175 25,25 29,26 139,22 95,-2 117,-6 135,-22 z m 499,8 22,-15 v -392 c 0,-216 -3,-408 -6,-427 l -6,-35 h -153 c -145,0 -153,1 -155,20 -1,11 -4,200 -6,419 l -4,399 22,24 c 20,22 29,23 143,23 93,0 126,-4 143,-16 z m -1480,-508 c 14,-14 17,-41 19,-170 2,-128 6,-162 23,-201 11,-26 20,-49 20,-51 0,-3 -18,9 -40,27 l -39,32 -123,-1 c -68,0 -125,-1 -128,-1 -3,-1 -18,-13 -33,-27 -37,-34 -43,-26 -18,27 18,37 21,62 21,194 0,198 -1,197 173,192 85,-3 111,-7 125,-21 z m 493,-5 c 17,-20 19,-42 19,-173 0,-131 3,-154 21,-189 24,-48 18,-61 -14,-32 -41,37 -60,42 -175,38 -99,-4 -116,-7 -149,-29 -20,-14 -39,-24 -41,-22 -2,2 6,22 17,45 19,35 21,58 21,191 0,149 0,151 26,177 25,25 28,25 141,21 106,-4 117,-6 134,-27 z m 490,3 c 17,-15 19,-32 19,-165 0,-125 3,-154 20,-194 25,-59 25,-60 -7,-37 -43,30 -69,35 -187,34 -90,-1 -114,-4 -135,-20 -49,-35 -51,-34 -30,15 18,41 21,67 20,188 -2,203 2,207 177,200 81,-3 108,-7 123,-21 z m 1,-501 c 14,-12 17,-40 20,-171 3,-156 5,-168 47,-247 5,-10 -9,-1 -59,40 -23,18 -40,20 -147,20 h -121 l -41,-33 c -23,-18 -41,-31 -41,-29 0,3 10,26 21,53 19,43 22,65 20,189 -2,151 7,185 47,195 12,3 71,4 130,2 78,-3 111,-7 124,-19 z m 492,6 26,-20 V 1029 629 l 31,-61 31,-61 -48,39 -47,39 -117,4 c -124,3 -149,-3 -197,-48 -34,-32 -35,-26 -8,35 l 25,56 v 389 c 0,397 3,433 39,442 9,3 66,5 127,6 98,1 114,-1 138,-20 z m -1478,-3 c 17,-13 19,-29 21,-170 1,-132 5,-162 22,-202 12,-26 21,-48 21,-51 0,-2 -18,10 -39,28 -39,31 -40,31 -165,33 -97,2 -129,-1 -138,-11 -6,-8 -24,-23 -40,-35 l -30,-21 26,51 c 25,49 26,60 26,206 0,127 3,157 16,170 21,22 250,23 280,2 z m 498,-8 c 13,-18 16,-53 16,-168 0,-134 2,-149 25,-199 l 25,-54 -22,17 c -13,9 -33,23 -46,32 -17,13 -48,16 -141,17 -123,1 -140,-4 -186,-49 -17,-17 -17,-17 -10,6 4,14 14,37 21,52 10,19 14,69 14,175 0,201 -7,193 160,193 122,0 130,-1 144,-22 z m 3,-500 c 22,-21 23,-28 23,-173 0,-143 1,-155 25,-200 l 26,-47 -43,31 -42,31 h -376 -377 l -41,-30 -41,-29 18,40 c 10,21 21,42 24,46 4,3 7,74 7,157 0,121 3,156 16,174 l 15,22 h 371 c 368,0 372,0 395,-22 z m 485,5 c 16,-14 18,-33 18,-165 0,-149 4,-171 48,-252 3,-6 -12,4 -34,22 -38,30 -41,31 -164,34 -69,2 -129,0 -135,-4 -5,-4 -25,-19 -42,-34 -18,-14 -33,-24 -33,-21 0,2 10,26 22,53 19,44 21,64 19,180 -2,99 1,139 13,167 l 15,37 h 127 c 105,0 131,-3 146,-17 z"
       id="path24"
       inkscape:connector-curvature="0" />
    <path
       d="m 8374,1495 c -18,-27 -13,-58 8,-50 8,3 22,0 32,-8 15,-11 17,-22 10,-86 -4,-40 -10,-67 -14,-61 -6,9 -13,9 -29,1 -19,-11 -21,-20 -21,-115 0,-157 10,-150 -236,-154 -165,-3 -202,-6 -216,-19 -16,-15 -18,-41 -18,-275 0,-245 1,-259 20,-278 20,-20 33,-20 748,-20 693,0 730,1 745,18 15,16 17,51 17,279 0,235 -2,261 -18,276 -14,13 -51,16 -214,19 -173,3 -199,5 -215,21 -15,14 -19,39 -21,135 l -4,118 -29,-2 -30,-2 3,76 c 3,77 3,77 31,76 21,0 27,4 27,21 0,12 -8,29 -18,38 -16,15 -51,17 -280,17 h -262 z m 328,-34 c 109,-1 108,1 108,-182 0,-141 2,-153 26,-200 14,-28 24,-53 22,-54 -2,-2 -19,9 -37,26 -19,16 -36,29 -40,29 -3,1 -58,2 -121,4 -120,2 -136,-2 -187,-48 -29,-24 -29,-17 -2,36 19,36 22,61 23,192 1,83 6,159 10,168 9,20 59,37 96,32 14,-1 60,-3 102,-3 z M 8316,946 c 17,-13 19,-29 21,-174 1,-140 4,-164 22,-200 29,-56 27,-58 -18,-23 -38,30 -41,31 -160,33 l -120,2 -45,-32 -45,-33 24,53 c 23,49 25,65 25,202 0,194 -7,186 155,186 89,0 126,-4 141,-14 z m 476,-3 c 16,-14 18,-33 18,-165 0,-139 2,-152 25,-198 14,-27 25,-52 25,-56 0,-3 -18,8 -39,25 -39,31 -41,32 -161,32 -121,1 -122,1 -166,-30 l -44,-32 10,25 c 5,15 15,38 23,54 9,19 12,68 11,167 -2,134 3,170 30,187 6,4 65,8 130,8 97,0 123,-3 138,-17 z m 480,0 c 16,-14 18,-33 18,-163 0,-136 2,-152 25,-205 l 25,-57 -43,32 c -42,30 -47,31 -158,32 -118,2 -141,-4 -186,-45 -28,-25 -29,-18 -3,34 18,34 21,61 23,198 1,117 6,162 16,174 20,25 256,25 283,0 z"
       id="path26"
       inkscape:connector-curvature="0" />
  </g>
</svg>
