<?xml version="1.0" encoding="UTF-8" standalone="no"?>
<svg
   xmlns:dc="http://purl.org/dc/elements/1.1/"
   xmlns:cc="http://creativecommons.org/ns#"
   xmlns:rdf="http://www.w3.org/1999/02/22-rdf-syntax-ns#"
   xmlns:svg="http://www.w3.org/2000/svg"
   xmlns="http://www.w3.org/2000/svg"
   xmlns:sodipodi="http://sodipodi.sourceforge.net/DTD/sodipodi-0.dtd"
   xmlns:inkscape="http://www.inkscape.org/namespaces/inkscape"
   version="1.0"
   width="738pt"
   height="657pt"
   viewBox="0 0 738 657"
   preserveAspectRatio="xMidYMid meet"
   id="svg276"
   sodipodi:docname="image12_cpu_2.svg"
   inkscape:version="0.92.4 (5da689c313, 2019-01-14)">
  <defs
     id="defs280">
    <inkscape:path-effect
       effect="spiro"
       id="path-effect967"
       is_visible="true" />
    <inkscape:path-effect
       effect="spiro"
       id="path-effect957"
       is_visible="true" />
  </defs>
  <sodipodi:namedview
     pagecolor="#ffffff"
     bordercolor="#666666"
     borderopacity="1"
     objecttolerance="10"
     gridtolerance="10"
     guidetolerance="10"
     inkscape:pageopacity="0"
     inkscape:pageshadow="2"
     inkscape:window-width="1366"
     inkscape:window-height="705"
     id="namedview278"
     showgrid="false"
     inkscape:zoom="0.31377863"
     inkscape:cx="-3.2455127"
     inkscape:cy="499.16784"
     inkscape:window-x="-8"
     inkscape:window-y="-8"
     inkscape:window-maximized="1"
     inkscape:current-layer="svg276"
     inkscape:showpageshadow="false" />
  <metadata
     id="metadata2">
Created by potrace 1.15, written by Peter Selinger 2001-2017
<rdf:RDF>
  <cc:Work
     rdf:about="">
    <dc:format>image/svg+xml</dc:format>
    <dc:type
       rdf:resource="http://purl.org/dc/dcmitype/StillImage" />
    <dc:title></dc:title>
  </cc:Work>
</rdf:RDF>
</metadata>
  <g
     inkscape:label="puerto_vga"
     id="puerto_vga"
     style="fill:#000000;stroke:none"
     transform="matrix(0.04623148,0,0,-0.0445603,-83.591056,671.34332)">
    <path
       style="fill:#000000;stroke:none;stroke-width:1.18163633"
       d="m 11030.369,6086.994 c -64.339,0 -122.708,-4.714 -131.049,-9.401 -25.021,-15.235 -39.353,-72.617 -39.353,-155.82 v -80.868 h -51.203 c -38.128,0 -58.38,-7.044 -75.061,-24.622 -21.447,-23.438 -22.655,-51.572 -22.655,-666.802 0,-615.23 1.207,-643.331 22.655,-666.769 16.681,-17.578 36.953,-24.622 73.889,-24.622 h 49.999 l 3.612,-98.423 c 5.958,-139.452 15.484,-147.666 167.993,-147.667 159.661,0 164.414,4.711 164.414,168.772 V 4502.6 l 44.074,22.289 c 25.021,11.718 57.215,38.681 71.513,60.946 l 27.407,39.81 v 522.685 c 0,505.075 -1.22,523.845 -23.859,561.345 -14.298,23.437 -44.076,48.033 -71.481,58.58 l -47.654,19.921 v 126.529 c 0,167.577 -4.773,172.289 -163.241,172.289 z m 7.16,-49.375 c 10.724,0.134 21.454,-6.878 48.859,-20.941 45.276,-22.265 47.623,-26.951 47.623,-79.684 0,-50.391 -3.532,-57.422 -44.043,-83.203 l -44.105,-28.139 -51.235,26.956 c -50.042,25.781 -51.202,28.157 -51.202,83.235 0,53.906 2.353,58.558 45.245,79.652 27.405,14.648 38.135,21.977 48.858,22.124 z m -249.772,-220.186 c 8.796,0.504 18.927,0 30.545,0 28.595,0 129.866,-12.851 225.184,-29.257 96.511,-15.234 184.652,-33.994 198.95,-41.026 13.106,-7.031 34.567,-30.473 46.482,-50.394 22.638,-35.156 23.827,-63.294 23.827,-547.275 0,-380.857 -3.579,-516.779 -15.493,-537.873 -34.554,-66.796 -120.343,-93.757 -382.469,-120.71 l -141.791,-14.037 -21.451,26.956 c -21.447,25.781 -22.591,59.752 -22.591,644.513 0,613.179 -2.77,665.578 58.807,669.103 z m 120.371,-129.455 c -37.978,-0.294 -64.826,-6.46 -76.741,-18.179 -10.724,-9.375 -21.456,-29.297 -25.031,-43.36 -3.574,-14.062 -4.772,-241.416 -3.58,-503.914 3.574,-458.2 4.789,-479.257 26.235,-495.664 29.788,-21.093 86.982,-21.115 210.895,1.152 141.788,25.781 164.436,37.493 190.649,92.571 20.255,43.359 22.623,83.228 22.623,425.413 0,492.184 3.609,482.799 -201.327,524.987 -56.595,11.718 -105.743,17.288 -143.723,16.995 z m -21.957,-49.408 c 27.87,0.825 86.419,-7.711 181.143,-26.167 137.021,-28.125 127.494,7.027 123.92,-466.407 l -3.549,-410.16 -29.847,-21.104 c -30.979,-23.438 -264.479,-64.436 -285.925,-51.546 -14.298,8.203 -16.688,958.581 -3.581,971.472 2.681,2.344 8.55,3.637 17.839,3.912 z m 55.449,-189.745 c -16.414,0.012 -29.724,-16.9769 -29.721,-37.936 0,-20.9587 13.308,-37.9473 29.721,-37.935 16.4,0.011 29.69,16.9928 29.688,37.935 0,20.9426 -13.287,37.925 -29.688,37.936 z m 76.518,-89.514 c -16.401,-0.01 -29.692,-16.9929 -29.689,-37.936 0.01,-20.9302 13.298,-37.8928 29.689,-37.903 16.404,-0.012 29.71,16.9568 29.721,37.903 0,20.9591 -13.307,37.9483 -29.721,37.936 z m -79.908,-46.713 c -16.402,-0.01 -29.693,-16.9924 -29.69,-37.936 0,-20.9432 13.289,-37.9254 29.69,-37.935 16.413,-0.012 29.722,16.9768 29.72,37.935 0,20.9586 -13.307,37.9476 -29.72,37.936 z m 78.292,-84.024 c -16.401,-0.01 -29.692,-16.9929 -29.689,-37.936 0,-20.9427 13.288,-37.9247 29.689,-37.935 16.413,-0.012 29.723,16.9763 29.721,37.935 0,20.9591 -13.307,37.9483 -29.721,37.936 z m -79.908,-46.713 c -16.402,-0.01 -29.693,-16.9924 -29.69,-37.936 0,-20.9432 13.289,-37.9254 29.69,-37.935 16.413,-0.012 29.722,16.9768 29.72,37.935 0,20.9586 -13.307,37.9476 -29.72,37.936 z m 75.06,-94.116 c -16.391,-0.011 -29.677,-16.9732 -29.688,-37.903 0,-20.9426 13.287,-37.925 29.688,-37.936 16.414,-0.012 29.724,16.9769 29.721,37.936 -0.01,20.9462 -13.317,37.9153 -29.721,37.903 z m -79.908,-46.713 c -16.391,-0.01 -29.678,-16.9728 -29.689,-37.903 0,-20.9431 13.288,-37.9257 29.689,-37.936 16.413,-0.012 29.723,16.9774 29.72,37.936 -0.01,20.9457 -13.317,37.9146 -29.72,37.903 z m 78.293,-105.819 c -16.401,-0.01 -29.692,-16.9929 -29.689,-37.936 0.01,-20.9302 13.298,-37.8928 29.689,-37.903 16.403,-0.012 29.709,16.9573 29.72,37.903 0,20.9586 -13.307,37.9476 -29.72,37.936 z m -81.525,-55.096 c -16.401,-0.01 -29.692,-16.9929 -29.689,-37.936 0.01,-20.9299 13.298,-37.8918 29.689,-37.902 16.403,-0.012 29.709,16.9562 29.721,37.902 0,20.9591 -13.307,37.9483 -29.721,37.936 z m 110.168,-422.027 c 9.531,0 35.745,-10.548 57.191,-23.439 36.936,-22.265 39.315,-28.132 35.741,-77.35 -3.575,-49.219 -8.303,-56.215 -47.622,-79.652 l -45.31,-24.623 -44.074,24.623 c -40.51,23.437 -45.252,30.433 -48.826,79.652 -3.574,49.218 -1.195,55.085 35.74,77.35 21.446,12.891 47.628,23.439 57.16,23.439 z"
       id="path174-3-1"
       inkscape:connector-curvature="0"
       sodipodi:nodetypes="scscscscscccsccccscccssccscccscccscccsccccsccccccccsccccccccccccccccccccccccccccccccccccccccccccccccccccccccscccccccs" />
    <path
       inkscape:connector-curvature="0"
       id="path1088"
       transform="matrix(16.222712,0,0,-16.831125,1652.9948,14583.19)"
       d="m 581.37891,542.97461 a 1.6930725,2.0914426 0 0 0 -1.69141,2.0918 1.6930725,2.0914426 0 0 0 1.69141,2.09179 1.6930725,2.0914426 0 0 0 1.69336,-2.09179 1.6930725,2.0914426 0 0 0 -1.69336,-2.0918 z m 0.64062,8.25391 a 1.6930724,2.0914423 0 0 0 -1.69336,2.09179 1.6930724,2.0914423 0 0 0 1.69336,2.0918 1.6930724,2.0914423 0 0 0 1.69141,-2.0918 1.6930724,2.0914423 0 0 0 -1.69141,-2.09179 z m -0.25976,8.45507 a 1.6930723,2.0914421 0 0 0 -1.69141,2.0918 1.6930723,2.0914421 0 0 0 1.69141,2.08984 1.6930723,2.0914421 0 0 0 1.69335,-2.08984 1.6930723,2.0914421 0 0 0 -1.69335,-2.0918 z m -0.0703,8.52149 a 1.6930723,2.0914421 0 0 0 -1.6914,2.08984 1.6930723,2.0914421 0 0 0 1.6914,2.0918 1.6930723,2.0914421 0 0 0 1.69336,-2.0918 1.6930723,2.0914421 0 0 0 -1.69336,-2.08984 z m -0.14062,8.73242 a 1.6930723,2.0914421 0 0 0 -1.69336,2.08984 1.6930723,2.0914421 0 0 0 1.69336,2.0918 1.6930723,2.0914421 0 0 0 1.69336,-2.0918 1.6930723,2.0914421 0 0 0 -1.69336,-2.08984 z"
       style="opacity:1;fill:#000000;fill-opacity:1;fill-rule:nonzero;stroke:none;stroke-width:0.37795275;stroke-linecap:round;stroke-linejoin:round;stroke-miterlimit:4;stroke-dasharray:none;stroke-opacity:1" />
    <path
       transform="matrix(16.222712,0,0,-16.831125,1652.9948,14583.19)"
       inkscape:connector-curvature="0"
       id="path1140"
       d="m 569.01987,531.3071 c -1.89976,-0.13849 -1.17107,2.10461 -1.37567,3.31206 -0.40247,15.54581 -0.0702,31.10324 0.0534,46.65201 0.166,2.77138 -0.1797,5.66885 0.4899,8.3524 5.96553,-0.18938 12.07062,-0.97644 17.64579,-3.22569 1.3499,-0.58063 2.62086,-1.40781 2.10245,-3.08862 -0.002,-14.20769 0.53887,-28.42581 0.0141,-42.62771 -0.22195,-2.40414 -0.20039,-5.91542 -3.06228,-6.74845 -5.17032,-1.35579 -10.52844,-2.32697 -15.86763,-2.626 z m 3.48262,11.5493 c 2.18491,0.23522 2.275,4.16375 -0.0347,4.16043 -2.11736,-0.25804 -2.02517,-3.96879 0.0347,-4.16043 z m 8.9255,0.25308 c 2.03607,0.40269 1.80775,3.73228 -0.1601,3.89415 -1.92899,-0.52901 -1.82347,-3.58363 0.1601,-3.89415 z m -4.00693,5.07428 c 2.30915,0.30704 1.79759,4.71781 -0.57548,4.09165 -1.83406,-0.77619 -1.53407,-4.02031 0.57548,-4.09165 z m -4.99175,2.78609 c 2.2636,0.2666 1.89243,4.77164 -0.55292,4.13512 -1.63553,-0.65381 -1.33041,-4.15301 0.55292,-4.13512 z m 9.54776,0.44784 c 2.1778,0.13467 1.92893,4.34082 -0.35211,3.67518 -1.63033,-0.5543 -1.47041,-3.61198 0.35211,-3.67518 z m -4.8553,4.63908 c 2.07457,-0.04 2.23512,3.11016 0.60574,3.92991 -1.35316,0.73315 -2.4317,-1.30343 -2.08902,-2.48514 0.0897,-0.79119 0.63748,-1.48249 1.48328,-1.44477 z m -4.66825,2.73273 c 2.09017,0.24687 1.93394,4.43394 -0.38897,3.98327 -2.19297,-0.17096 -1.84165,-4.15283 0.38897,-3.98327 z m 9.28917,1.07724 c 1.85125,0.19684 2.01561,4.03376 -0.13094,3.76706 -1.83163,-0.40017 -1.83792,-3.63819 0.13094,-3.76706 z m -4.8498,4.40471 c 1.96546,0.31239 2.25597,3.83047 0.20137,4.14503 -1.88898,0.30648 -2.35294,-2.70968 -1.12566,-3.66692 0.27694,-0.2005 0.56543,-0.4676 0.92429,-0.47811 z m -4.94113,2.83286 c 2.31242,0.24927 2.09632,4.27686 -0.26078,4.11972 -1.9403,-0.39941 -1.75254,-4.04672 0.26078,-4.11972 z m 9.76012,1.35343 c 2.31032,0.0203 1.7111,4.48034 -0.59474,3.55524 -1.47352,-0.48699 -1.22511,-3.92301 0.59474,-3.55524 z m -4.85585,5.06217 c 2.3631,-0.0308 1.94404,4.63823 -0.43684,3.86554 -1.85952,-0.48852 -1.76715,-4.13091 0.43684,-3.86554 z m -5.07537,3.11675 c 2.22059,0.20123 2.06442,4.62616 -0.35047,4.12412 -1.85349,-0.54717 -1.68636,-4.04404 0.35047,-4.12412 z m 9.89161,0.55898 c 1.72012,0.15832 1.79998,3.18454 0.30755,3.61411 -2.33574,0.55017 -2.58371,-3.79532 -0.30755,-3.61411 z"
       style="opacity:1;fill:#3771c8;fill-opacity:1;fill-rule:nonzero;stroke:none;stroke-width:0.10646556;stroke-linecap:round;stroke-linejoin:round;stroke-miterlimit:4;stroke-dasharray:none;stroke-opacity:1" />
  </g>
  <g
     style="fill:#000000;stroke:none"
     inkscape:label="case"
     id="case"
     transform="matrix(0.04623148,0,0,-0.0445603,-44.152431,671.34332)">
    <path
       d="m 5923,13960 c -44,-10 -76,-33 -110,-77 l -28,-36 -3,-703 -2,-704 568,-2 568,-3 49,-26 c 35,-18 59,-39 80,-74 l 30,-48 3,-199 4,-198 h 358 c 197,0 365,-2 373,-5 11,-5 15,17 20,123 21,397 142,733 379,1044 73,97 226,253 286,293 23,15 42,32 42,36 0,5 -320,9 -719,9 -702,0 -720,0 -726,-19 -11,-35 -85,-99 -132,-115 -92,-32 -186,-11 -252,56 -22,22 -43,48 -46,59 -6,18 -17,19 -156,19 h -151 l -29,29 -29,29 v 261 261 l -172,-1 c -95,-1 -188,-4 -205,-9 z"
       id="path4"
       inkscape:connector-curvature="0" />
    <path
       d="m 11615,13958 c -2,-7 -6,-127 -7,-266 l -3,-254 -28,-24 c -27,-23 -33,-24 -187,-24 h -159 l -15,-29 c -39,-75 -141,-127 -230,-118 -86,9 -143,45 -196,126 -11,17 -23,22 -44,19 -27,-3 -27,-4 35,-55 337,-273 564,-668 634,-1103 22,-137 23,-426 1,-565 -103,-676 -592,-1240 -1255,-1449 -106,-34 -277,-66 -388,-73 -51,-3 -93,-10 -93,-15 0,-4 -27,-8 -60,-8 -33,0 -60,4 -60,9 0,4 -39,11 -87,15 -124,9 -321,52 -433,93 -536,197 -936,604 -1120,1143 l -39,115 v -633 l -1,-634 -34,-34 -34,-34 h -797 -797 l -34,34 -34,34 v 797 797 l 34,34 34,34 h 406 406 v 178 c 0,225 -15,266 -113,307 -31,13 -114,15 -587,15 H 5780 V 9910 7277.8873 c 747.0294,209.5281 1523.714,8.4507 2190,8.4507 l 2,1284.662 3,1141 28,24 28,24 h 1494 1493 l 4,123 c 3,115 5,126 31,165 16,24 49,54 80,72 l 52,30 h 508 507 v 1840 c 0,1827 0,1841 -20,1880 -11,22 -39,52 -62,67 l -41,28 -229,3 c -183,3 -229,1 -233,-10 z"
       id="path6"
       inkscape:connector-curvature="0"
       sodipodi:nodetypes="ccccsccccccccccsssccccccccccccccccccscscccccccccccsccccsccccc" />
    <path
       d="m 10980,10171 c -135.322,-121.154 122.266,-284.6586 0,-411 h 466 c 250,0 382,-4 396,-11 48,-26 48,-31 48,-774 v -770 h 310 v 985 1030 c -423.434,6.48 -883.283,51.127 -1220,-49 z"
       id="path66"
       inkscape:connector-curvature="0"
       sodipodi:nodetypes="ccscsccccc" />
    <path
       d="M 11890,7130 V 6040 h 155 155 v 1090 1090 h -155 -155 z"
       id="path88"
       inkscape:connector-curvature="0" />
    <path
       d="m 5788.4507,5735.7746 c 781.3047,95.398 1508.8771,36.4165 2181.5493,33.8029 V 6710 7380 c -343.9402,4.4699 -1176.1752,-8.1018 -1721,0 h -469 c -26.1148,-548.1548 -4.7437,-1096.0829 8.4507,-1644.2254 z M 7876,6527 c -1009.9126,29.5005 -322.1651,-374.0251 0,0 z"
       id="path120"
       inkscape:connector-curvature="0"
       sodipodi:nodetypes="ccccccccc" />
    <path
       d="m 5780,5998 c 0,-2 -3,-900 -7,-1995 l -3,-2186.662 c 785.5916,-35.9549 1449.2979,102.0683 2200,-93.6619 V 4000 5990 h -45 c -44,0 -45,-1 -45,-32 -366.5076,-44.0071 -1455.9588,141.0955 -2100,40 z m 2096,-647 c -717.4468,54.9146 -395.2816,-1271.6212 0,0 z"
       id="path202"
       inkscape:connector-curvature="0"
       sodipodi:nodetypes="ccccccscccc" />
    <path
       d="m 11890,5210 v -780 h 155 155 v 780 855 c -153.761,19.678 -161.915,19.6125 -310,15 z"
       id="path236"
       inkscape:connector-curvature="0"
       sodipodi:nodetypes="cccccccc" />
    <path
       d="m 11890,3740 v -735 c 121.683,52.0968 182.642,15 310,15 v 720 730 l -310,-15 z"
       id="path266"
       inkscape:connector-curvature="0"
       sodipodi:nodetypes="ccccccc" />
    <path
       d="m 11890,2186 v -864 l -31,-26 -31,-26 H 9935 c -1447,0 -1900,3 -1920,12 -51,23 -52,38 -47,371 l 5,307 H 6871 5770 v -132 c 0,-73 3,-285 7,-470 l 6,-338 h 59 c 69,0 69,7 8,-126 -21,-45 -36,-85 -32,-88 7,-8 6352,-8 6352,0 0,3 -18,47 -40,99 -22,52 -40,99 -40,104 0,7 23,11 55,11 h 55 v 1015 1015 h -155 -155 z"
       id="path268"
       inkscape:connector-curvature="0" />
  </g>
  <g
     style="fill:#000000;stroke:none"
     inkscape:label="puerto_ps2_1"
     id="puerto_ps2_1"
     transform="matrix(0.04623148,0,0,-0.0445603,-44.152431,671.34332)">
    <path
       style="fill:#000000;stroke:none;stroke-width:1.55877149"
       d="m 9946.4565,3932.5803 c -28.8668,0.7624 -58.4793,-1.9045 -88.4961,-8.1197 -197.0351,-39.4611 -335.5535,-254.1409 -292.4526,-453.0269 35.4051,-162.5819 135.4652,-269.9108 287.8581,-304.6368 147.7761,-36.3049 303.2251,25.2361 387.8871,149.935 90.82,137.326 96.996,293.6124 16.952,423.0465 -75.042,121.8376 -186.659,189.4956 -311.7485,192.8019 z m -14.2899,-124.4913 c 50.7382,0.8534 102.3404,-12.2852 147.4624,-39.9081 66.189,-42.6189 103.129,-116.7987 106.208,-211.5068 3.079,-168.896 -115.427,-290.4414 -266.2811,-273.0784 -89.2809,9.471 -118.5345,23.6805 -173.9505,85.2405 -93.8991,104.1779 -89.2843,268.3433 10.7729,367.7863 46.7566,46.17 110.5534,70.3705 175.7883,71.4665 z m -25.3163,-68.0147 v -165.9115 h 59.4093 v 165.9115 z m -108.0775,-82.9064 a 21.706445,27.261681 0 0 1 -21.7042,-27.252 21.706445,27.261681 0 0 1 21.7042,-27.2519 21.706445,27.261681 0 0 1 21.7042,27.2519 21.706445,27.261681 0 0 1 -21.7042,27.252 z m 272.4592,0 a 21.706443,27.261679 0 0 1 -21.704,-27.252 21.706443,27.261679 0 0 1 21.704,-27.2519 21.706443,27.261679 0 0 1 21.704,27.2519 21.706443,27.261679 0 0 1 -21.704,27.252 z m -297.6171,-98.3569 a 21.706443,27.261679 0 0 1 -21.7042,-27.285 21.706443,27.261679 0 0 1 21.7042,-27.2519 21.706443,27.261679 0 0 1 21.7042,27.2519 21.706443,27.261679 0 0 1 -21.7042,27.285 z m 321.6031,-4.7668 a 21.706441,27.261678 0 0 1 -21.705,-27.2519 21.706441,27.261678 0 0 1 21.705,-27.252 21.706441,27.261678 0 0 1 21.704,27.252 21.706441,27.261678 0 0 1 -21.704,27.2519 z m -238.2083,-118.5081 a 21.706441,27.261678 0 0 1 -21.7042,-27.2849 21.706441,27.261678 0 0 1 21.7042,-27.252 21.706441,27.261678 0 0 1 21.736,27.252 21.706441,27.261678 0 0 1 -21.736,27.2849 z m 149.6803,-2.367 a 21.706441,27.261678 0 0 1 -21.7045,-27.2847 21.706441,27.261678 0 0 1 21.7045,-27.252 21.706441,27.261678 0 0 1 21.704,27.252 21.706441,27.261678 0 0 1 -21.704,27.2847 z"
       id="path262-7"
       inkscape:connector-curvature="0" />
    <path
       transform="matrix(16.222712,0,0,-16.831125,799.92618,14583.19)"
       inkscape:connector-curvature="0"
       id="path936"
       d="m 562.802,640.22405 c -7.84929,-0.003 -15.88177,6.74536 -15.23813,14.96843 -0.44383,3.83294 0.85572,7.60118 3.35067,10.50798 4.44274,5.92598 13.25468,7.23753 19.69691,4.06911 5.82725,-2.9432 8.46592,-9.81512 7.79156,-16.06941 -0.17539,-6.54489 -5.46493,-12.28339 -11.92231,-13.17655 -1.21104,-0.22984 -2.44641,-0.33208 -3.6787,-0.29956 z m 0.39681,4.19845 c 3.14148,-0.7523 1.13186,3.64651 1.69152,5.47603 0.4989,2.88809 -0.0756,4.7028 -3.285,3.88255 -0.22857,-2.92363 -0.0322,-6.27218 -0.098,-9.35858 0.56384,0 1.12767,0 1.69151,0 z m 8.37122,4.80223 c 2.09612,0.22525 0.98338,4.04054 -0.82008,2.6392 -0.88639,-0.77234 -0.50611,-2.67958 0.82008,-2.6392 z m -16.81635,0.0786 c 2.27981,0.16395 0.68998,4.19462 -0.96402,2.50849 -0.42297,-0.86943 -0.32573,-2.5515 0.96402,-2.50849 z m -1.50867,5.89697 c 2.09612,0.22526 0.98338,4.04054 -0.82008,2.6392 -0.88639,-0.77234 -0.50612,-2.67958 0.82008,-2.6392 z m 20.0321,0.58355 c 1.75458,0.1903 0.18891,4.12865 -1.07996,2.24394 -0.49965,-0.90149 -0.4829,-2.76366 1.07996,-2.24394 z m -14.9381,6.66569 c 2.27981,0.16395 0.68998,4.19462 -0.96402,2.50849 -0.42297,-0.86943 -0.32573,-2.5515 0.96402,-2.50849 z m 9.08548,0.31901 c 1.89643,-0.0469 1.67163,3.23531 -0.14783,2.81271 -1.3284,-0.21178 -1.35697,-2.99841 0.14783,-2.81271 z"
       style="opacity:1;fill:#cc00ff;fill-opacity:1;fill-rule:nonzero;stroke:none;stroke-width:0.15056504;stroke-linecap:round;stroke-linejoin:round;stroke-miterlimit:4;stroke-dasharray:none;stroke-opacity:1" />
  </g>
  <g
     style="fill:#000000;stroke:none"
     inkscape:label="puerto_ps2"
     id="puerto_ps2"
     transform="matrix(0.04623148,0,0,-0.0445603,-44.152431,671.34332)">
    <path
       style="stroke-width:0.0943331"
       d="m 621.67969,633.91406 c -1.77942,-0.0453 -3.60282,0.11121 -5.45313,0.48047 -12.14562,2.34456 -20.68417,15.09945 -18.02734,26.91602 2.18243,9.65958 8.34838,16.03639 17.74219,18.09961 9.1092,2.15699 18.69325,-1.49941 23.91211,-8.90821 5.59826,-8.15906 5.97899,-17.44461 1.04492,-25.13476 -4.6258,-7.23882 -11.50796,-11.25669 -19.21875,-11.45313 z m -0.87891,7.39649 c 3.12765,-0.0507 6.3085,0.72795 9.08984,2.36914 4.08009,2.53212 6.35708,6.93945 6.54688,12.5664 0.18986,10.0347 -7.11512,17.25621 -16.41406,16.22461 -5.50346,-0.56269 -7.30671,-1.40694 -10.72266,-5.06445 -5.78812,-6.18963 -5.50365,-15.94327 0.66406,-21.85156 2.8822,-2.74313 6.81479,-4.17903 10.83594,-4.24414 z m -2.00976,4.11328 v 9.85937 h 3.6621 v -9.85937 z m -6.53125,4.40039 a 1.338028,1.6197181 0 0 0 -1.33789,1.62109 1.338028,1.6197181 0 0 0 1.33789,1.61914 1.338028,1.6197181 0 0 0 1.33789,-1.61914 1.338028,1.6197181 0 0 0 -1.33789,-1.62109 z m 16.79492,0 a 1.3380279,1.6197181 0 0 0 -1.33789,1.62109 1.3380279,1.6197181 0 0 0 1.33789,1.61914 1.3380279,1.6197181 0 0 0 1.33789,-1.61914 1.3380279,1.6197181 0 0 0 -1.33789,-1.62109 z m -18.34571,5.8457 a 1.3380279,1.6197181 0 0 0 -1.33789,1.61914 1.3380279,1.6197181 0 0 0 1.33789,1.61914 1.3380279,1.6197181 0 0 0 1.3379,-1.61914 1.3380279,1.6197181 0 0 0 -1.3379,-1.61914 z m 19.82422,0.28125 a 1.3380278,1.6197181 0 0 0 -1.33789,1.61914 1.3380278,1.6197181 0 0 0 1.33789,1.6211 1.3380278,1.6197181 0 0 0 1.33789,-1.6211 1.3380278,1.6197181 0 0 0 -1.33789,-1.61914 z m -14.68359,7.04297 a 1.3380278,1.6197181 0 0 0 -1.33789,1.61914 1.3380278,1.6197181 0 0 0 1.33789,1.61914 1.3380278,1.6197181 0 0 0 1.33984,-1.61914 1.3380278,1.6197181 0 0 0 -1.33984,-1.61914 z m 9.22656,0.14063 a 1.3380278,1.6197181 0 0 0 -1.33789,1.61914 1.3380278,1.6197181 0 0 0 1.33789,1.61914 1.3380278,1.6197181 0 0 0 1.33789,-1.61914 1.3380278,1.6197181 0 0 0 -1.33789,-1.61914 z"
       transform="matrix(16.222712,0,0,-16.831125,799.92618,14583.19)"
       id="path123"
       inkscape:connector-curvature="0"
       inkscape:label="path123" />
    <path
       transform="matrix(16.222712,0,0,-16.831125,799.92618,14583.19)"
       inkscape:connector-curvature="0"
       id="path940"
       d="m 620.62167,641.28961 c -8.29422,-0.068 -16.11851,7.53841 -15.29402,15.98459 -0.43597,5.74371 3.77752,10.66393 8.26341,13.67531 6.83262,3.28051 16.46829,1.74885 20.34566,-5.27452 2.73461,-3.82643 2.46479,-8.67363 2.08055,-13.11898 -1.30885,-6.40444 -7.41061,-10.95774 -13.81379,-11.22516 -0.52627,-0.0378 -1.05426,-0.0531 -1.58181,-0.0412 z m -0.0576,4.3315 c 3.14148,-0.7523 1.13185,3.64651 1.69151,5.47603 0.49891,2.88809 -0.0756,4.7028 -3.28499,3.88255 -0.22857,-2.92364 -0.0322,-6.27218 -0.098,-9.35858 0.56384,0 1.12768,0 1.69152,0 z m -8.19149,4.40852 c 2.12293,0.25499 0.79585,4.18133 -0.92201,2.57229 -0.7939,-0.78845 -0.343,-2.66902 0.92201,-2.57229 z m 17.18671,0.0296 c 1.81272,0.84051 -0.30033,4.24413 -1.49311,2.25795 -0.55118,-1.16627 0.19206,-2.44059 1.49311,-2.25795 z m -18.79264,5.98177 c 1.88391,-0.1275 1.10643,3.48607 -0.4824,2.68745 -0.92365,-0.79458 -1.26905,-2.75207 0.4824,-2.68745 z m 19.84459,0.14083 c 2.079,0.30423 0.8973,3.79895 -0.87299,2.50927 -0.78571,-0.67695 -0.36762,-2.68141 0.87299,-2.50927 z m -14.65333,6.99404 c 2.12293,0.25499 0.79585,4.18133 -0.92201,2.57229 -0.7939,-0.78845 -0.343,-2.66901 0.92201,-2.57229 z m 9.16718,0.0739 c 2.11624,0.27839 0.7355,4.24649 -0.94691,2.43379 -0.50062,-0.90571 -0.376,-2.46303 0.94691,-2.43379 z"
       style="opacity:1;fill:#00d4aa;fill-opacity:1;fill-rule:nonzero;stroke:none;stroke-width:0.15056504;stroke-linecap:round;stroke-linejoin:round;stroke-miterlimit:4;stroke-dasharray:none;stroke-opacity:1" />
  </g>
  <g
     style="fill:#000000;stroke:none"
     inkscape:label="puerto_serial"
     id="puerto_serial"
     transform="matrix(0.04623148,0,0,-0.0445603,-44.152431,671.34332)">
    <path
       style="fill:#000000;stroke:none;stroke-width:1.18163633"
       d="m 11030.369,6086.994 c -64.339,0 -122.708,-4.714 -131.049,-9.401 -25.021,-15.235 -39.353,-72.617 -39.353,-155.82 v -80.868 h -51.203 c -38.128,0 -58.38,-7.044 -75.061,-24.622 -21.447,-23.438 -22.655,-51.572 -22.655,-666.802 0,-615.23 1.207,-643.331 22.655,-666.769 16.681,-17.578 36.953,-24.622 73.889,-24.622 h 49.999 l 3.612,-98.423 c 5.958,-139.452 15.484,-147.666 167.993,-147.667 159.661,0 164.414,4.711 164.414,168.772 V 4502.6 l 44.074,22.289 c 25.021,11.718 57.215,38.681 71.513,60.946 l 27.407,39.81 v 522.685 c 0,505.075 -1.22,523.845 -23.859,561.345 -14.298,23.437 -44.076,48.033 -71.481,58.58 l -47.654,19.921 v 126.529 c 0,167.577 -4.773,172.289 -163.241,172.289 z m 7.16,-49.375 c 10.724,0.134 21.454,-6.878 48.859,-20.941 45.276,-22.265 47.623,-26.951 47.623,-79.684 0,-50.391 -3.532,-57.422 -44.043,-83.203 l -44.105,-28.139 -51.235,26.956 c -50.042,25.781 -51.202,28.157 -51.202,83.235 0,53.906 2.353,58.558 45.245,79.652 27.405,14.648 38.135,21.977 48.858,22.124 z m -249.772,-220.186 c 8.796,0.504 18.927,0 30.545,0 28.595,0 129.866,-12.851 225.184,-29.257 96.511,-15.234 184.652,-33.994 198.95,-41.026 13.106,-7.031 34.567,-30.473 46.482,-50.394 22.638,-35.156 23.827,-63.294 23.827,-547.275 0,-380.857 -3.579,-516.779 -15.493,-537.873 -34.554,-66.796 -120.343,-93.757 -382.469,-120.71 l -141.791,-14.037 -21.451,26.956 c -21.447,25.781 -22.591,59.752 -22.591,644.513 0,613.179 -2.77,665.578 58.807,669.103 z m 120.371,-129.455 c -37.978,-0.294 -64.826,-6.46 -76.741,-18.179 -10.724,-9.375 -21.456,-29.297 -25.031,-43.36 -3.574,-14.062 -4.772,-241.416 -3.58,-503.914 3.574,-458.2 4.789,-479.257 26.235,-495.664 29.788,-21.093 86.982,-21.115 210.895,1.152 141.788,25.781 164.436,37.493 190.649,92.571 20.255,43.359 22.623,83.228 22.623,425.413 0,492.184 3.609,482.799 -201.327,524.987 -56.595,11.718 -105.743,17.288 -143.723,16.995 z m -21.957,-49.408 c 27.87,0.825 86.419,-7.711 181.143,-26.167 137.021,-28.125 127.494,7.027 123.92,-466.407 l -3.549,-410.16 -29.847,-21.104 c -30.979,-23.438 -264.479,-64.436 -285.925,-51.546 -14.298,8.203 -16.688,958.581 -3.581,971.472 2.681,2.344 8.55,3.637 17.839,3.912 z m 55.449,-189.745 c -16.414,0.012 -29.724,-16.9769 -29.721,-37.936 0,-20.9587 13.308,-37.9473 29.721,-37.935 16.4,0.011 29.69,16.9928 29.688,37.935 0,20.9426 -13.287,37.925 -29.688,37.936 z m 76.518,-89.514 c -16.401,-0.01 -29.692,-16.9929 -29.689,-37.936 0.01,-20.9302 13.298,-37.8928 29.689,-37.903 16.404,-0.012 29.71,16.9568 29.721,37.903 0,20.9591 -13.307,37.9483 -29.721,37.936 z m -79.908,-46.713 c -16.402,-0.01 -29.693,-16.9924 -29.69,-37.936 0,-20.9432 13.289,-37.9254 29.69,-37.935 16.413,-0.012 29.722,16.9768 29.72,37.935 0,20.9586 -13.307,37.9476 -29.72,37.936 z m 78.292,-84.024 c -16.401,-0.01 -29.692,-16.9929 -29.689,-37.936 0,-20.9427 13.288,-37.9247 29.689,-37.935 16.413,-0.012 29.723,16.9763 29.721,37.935 0,20.9591 -13.307,37.9483 -29.721,37.936 z m -79.908,-46.713 c -16.402,-0.01 -29.693,-16.9924 -29.69,-37.936 0,-20.9432 13.289,-37.9254 29.69,-37.935 16.413,-0.012 29.722,16.9768 29.72,37.935 0,20.9586 -13.307,37.9476 -29.72,37.936 z m 75.06,-94.116 c -16.391,-0.011 -29.677,-16.9732 -29.688,-37.903 0,-20.9426 13.287,-37.925 29.688,-37.936 16.414,-0.012 29.724,16.9769 29.721,37.936 -0.01,20.9462 -13.317,37.9153 -29.721,37.903 z m -79.908,-46.713 c -16.391,-0.01 -29.678,-16.9728 -29.689,-37.903 0,-20.9431 13.288,-37.9257 29.689,-37.936 16.413,-0.012 29.723,16.9774 29.72,37.936 -0.01,20.9457 -13.317,37.9146 -29.72,37.903 z m 78.293,-105.819 c -16.401,-0.01 -29.692,-16.9929 -29.689,-37.936 0.01,-20.9302 13.298,-37.8928 29.689,-37.903 16.403,-0.012 29.709,16.9573 29.72,37.903 0,20.9586 -13.307,37.9476 -29.72,37.936 z m -81.525,-55.096 c -16.401,-0.01 -29.692,-16.9929 -29.689,-37.936 0.01,-20.9299 13.298,-37.8918 29.689,-37.902 16.403,-0.012 29.709,16.9562 29.721,37.902 0,20.9591 -13.307,37.9483 -29.721,37.936 z m 110.168,-422.027 c 9.531,0 35.745,-10.548 57.191,-23.439 36.936,-22.265 39.315,-28.132 35.741,-77.35 -3.575,-49.219 -8.303,-56.215 -47.622,-79.652 l -45.31,-24.623 -44.074,24.623 c -40.51,23.437 -45.252,30.433 -48.826,79.652 -3.574,49.218 -1.195,55.085 35.74,77.35 21.446,12.891 47.628,23.439 57.16,23.439 z"
       id="path174-3"
       inkscape:connector-curvature="0"
       sodipodi:nodetypes="scscscscscccsccccscccssccscccscccscccsccccsccccccccsccccccccccccccccccccccccccccccccccccccccccccccccccccccccscccccccs" />
    <path
       transform="matrix(16.222712,0,0,-16.831125,799.92618,14583.19)"
       inkscape:connector-curvature="0"
       id="path932"
       d="m 622.8734,531.55229 c -3.16638,-0.83563 -2.44387,2.36397 -2.55445,4.39889 -0.53677,16.90892 -0.34401,33.84387 0.17123,50.75046 -0.51378,2.82934 1.40585,3.30317 3.778,2.6408 5.45401,-0.58904 11.35186,-1.19203 16.02223,-4.18682 0.0671,-15.31331 0.96878,-30.65478 0.0724,-45.95416 0.0241,-2.48936 -1.2948,-5.21955 -4.04205,-5.48614 -4.41135,-1.03632 -8.91536,-1.92256 -13.44732,-2.16303 z m 2.33108,11.32787 c 2.14026,0.30687 2.37413,3.46182 0.25754,4.04906 -2.45647,0.53754 -2.63393,-4.14702 -0.25754,-4.04906 z m 4.82868,5.14535 c 2.20111,0.61727 1.6077,4.7007 -0.66213,4.4591 -1.87838,-1.04011 -1.59765,-3.90202 0.47151,-4.46454 l 0.0529,-0.003 z m -4.88547,2.78859 c 2.18835,0.51922 1.775,4.69151 -0.47618,4.42331 -2.11027,-0.67199 -1.75144,-4.36553 0.47618,-4.42331 z m 4.76643,5.23484 c 2.69345,0.31679 1.33486,5.55683 -1.14687,3.68959 -1.30949,-0.97903 -0.86159,-4.07178 1.14687,-3.68959 z m -4.91971,2.79792 c 2.86004,0.15731 1.36797,5.07342 -1.12275,3.87711 -1.02417,-0.89757 -0.80313,-4.30423 1.12275,-3.87711 z m 4.66606,5.53595 c 1.82074,0.0455 1.83137,3.21114 0.58511,4.01637 -2.48694,0.79745 -3.64965,-3.31919 -1.07451,-3.92534 0.15838,-0.0508 0.32296,-0.0842 0.4894,-0.091 z m -4.9734,2.76213 c 2.58203,0.31815 1.7524,5.08168 -0.84109,3.99382 -1.509,-0.83528 -1.30302,-4.29663 0.84109,-3.99382 z m 4.9415,6.37392 c 2.64551,0.0982 1.20689,5.38002 -1.13209,3.81253 -1.41059,-1.01599 -1.05109,-4.20496 1.13209,-3.81253 z m -5.2146,3.23676 c 2.23995,0.26799 2.1215,3.65145 0.021,4.05683 -2.33664,0.39825 -2.39074,-4.22449 -0.021,-4.05683 z"
       style="opacity:1;fill:#cc00ff;fill-opacity:1;fill-rule:nonzero;stroke:none;stroke-width:0.15056504;stroke-linecap:round;stroke-linejoin:round;stroke-miterlimit:4;stroke-dasharray:none;stroke-opacity:1" />
  </g>
  <g
     style="fill:#000000;stroke:none"
     inkscape:label="usb_traseros"
     id="usb_traseros"
     transform="matrix(0.04623148,0,0,-0.0445603,-44.152431,671.34332)">
    <path
       d="m 9220.5603,7697.8505 4.4723,-407.4957 163.9912,-4.3975 c 90.9413,-2.9317 178.9003,0 198.2803,4.3975 l 32.798,7.329 -2.981,400.1667 -4.473,398.7008 -198.2795,4.3975 -196.7894,4.3974 z m 161.0101,-5.8633 v -337.1368 l -40.2528,4.3975 -41.7428,4.3974 -4.4723,334.2052 -2.9823,332.7393 h 44.7251 44.7251 z"
       id="path76"
       inkscape:connector-curvature="0"
       style="stroke-width:1.47826719" />
    <path
       d="m 9742.1441,7686.3996 4.472,-407.496 163.991,-4.397 c 90.9419,-2.932 178.9009,0 198.2809,4.397 l 32.798,7.329 -2.981,400.167 -4.473,398.701 -198.2799,4.397 -196.789,4.397 z m 161.01,-5.864 v -337.136 l -40.253,4.397 -41.743,4.398 -4.472,334.205 -2.982,332.739 h 44.725 44.725 z"
       id="path76-0"
       inkscape:connector-curvature="0"
       style="fill:#000000;stroke:none;stroke-width:1.47826719" />
    <path
       d="m 10263.098,7681.6585 4.472,-407.496 163.991,-4.397 c 90.942,-2.932 178.901,0 198.281,4.397 l 32.798,7.329 -2.981,400.167 -4.473,398.701 -198.28,4.397 -196.789,4.397 z m 161.01,-5.864 v -337.136 l -40.253,4.397 -41.743,4.398 -4.472,334.205 -2.982,332.739 h 44.725 44.725 z"
       id="path76-9"
       inkscape:connector-curvature="0"
       style="fill:#000000;stroke:none;stroke-width:1.47826719" />
    <path
       d="m 10797.762,7691.1408 4.472,-407.496 163.992,-4.397 c 90.941,-2.932 178.9,0 198.28,4.397 l 32.798,7.329 -2.981,400.167 -4.473,398.701 -198.28,4.397 -196.789,4.397 z m 161.01,-5.864 v -337.136 l -40.253,4.397 -41.742,4.398 -4.473,334.205 -2.982,332.739 h 44.725 44.725 z"
       id="path76-01"
       inkscape:connector-curvature="0"
       style="fill:#000000;stroke:none;stroke-width:1.47826719" />
    <path
       d="m 10267.668,6733.426 4.473,-407.496 163.991,-4.397 c 90.941,-2.932 178.9,0 198.28,4.397 l 32.798,7.329 -2.981,400.167 -4.473,398.701 -198.279,4.397 -196.79,4.397 z m 161.01,-5.864 v -337.136 l -40.252,4.397 -41.743,4.398 -4.473,334.205 -2.982,332.739 h 44.725 44.725 z"
       id="path76-05"
       inkscape:connector-curvature="0"
       style="fill:#000000;stroke:none;stroke-width:1.47826719" />
    <path
       d="m 10788.622,6733.426 4.473,-407.496 163.991,-4.397 c 90.941,-2.932 178.9,0 198.28,4.397 l 32.798,7.329 -2.981,400.167 -4.473,398.701 -198.279,4.397 -196.79,4.397 z m 161.011,-5.864 v -337.136 l -40.253,4.397 -41.743,4.398 -4.472,334.205 -2.983,332.739 h 44.725 44.726 z"
       id="path76-8"
       inkscape:connector-curvature="0"
       style="fill:#000000;stroke:none;stroke-width:1.47826719" />
  </g>
  <g
     style="fill:#000000;stroke:none"
     inkscape:label="puerto_rj45"
     id="puerto_rj45"
     transform="matrix(0.04623148,0,0,-0.0445603,-44.152431,671.34332)">
    <path
       sodipodi:nodetypes="ccccsscccssscccccccccssssssssssscssssssscccccccccsc"
       d="m 9406.7562,7054.3971 c -3.103,-9.989 -9.31,-49.9449 -10.861,-89.9009 l -4.655,-71.3499 -65.168,-4.281 c -58.962,-4.281 -66.72,-8.562 -66.72,-39.956 0,-28.54 -7.758,-34.248 -46.549,-34.248 h -46.5488 v -142.6998 -142.6999 h 46.5488 c 38.791,0 46.549,-5.7079 46.549,-35.6749 0,-32.821 6.206,-35.675 69.823,-35.675 h 69.823 v -85.6199 -85.6199 h 256.0181 256.018 v 78.4849 135.5649 l -1.9653,-43.67 c -20.8311,-32.8788 -137.6807,-17.1843 -137.6807,7.995 0,25.1793 18.619,21.405 69.823,21.405 38.79,0 69.823,7.135 69.823,14.27 0,8.562 -31.033,14.27 -69.823,14.27 -51.204,0 -69.823,5.708 -69.823,21.4049 0,15.697 18.619,21.405 69.823,21.405 38.79,0 69.823,7.135 69.823,14.27 0,8.562 -31.033,14.27 -69.823,14.27 -51.204,0 -69.823,5.708 -69.823,21.405 0,15.6969 18.619,21.4049 69.823,21.4049 38.79,0 69.823,7.135 69.823,14.27 0,8.562 -32.584,14.27 -71.375,14.27 -58.962,0 -69.823,4.281 -65.168,25.686 4.655,18.551 20.171,24.259 71.375,24.259 35.687,0 65.168,4.281 65.168,11.4159 0,5.708 -31.033,9.989 -69.823,9.989 -51.204,0 -69.823,5.708 -69.823,21.405 0,15.697 18.619,21.405 69.823,21.405 38.79,0 69.823,7.135 69.823,14.27 0,8.562 -32.584,14.27 -71.375,14.27 -58.962,0 -69.823,4.281 -65.168,25.6859 3.103,17.124 24.826,27.113 74.478,32.821 l 69.823,8.562 -74.478,1.427 c -62.065,2.854 -74.478,7.135 -69.823,28.54 3.103,17.1239 23.274,25.6859 71.375,28.5399 l 65.168,4.281 v 71.35 69.9229 h -248.26 c -186.1951,0 -251.3631,-4.281 -256.0181,-17.124 z"
       id="path110"
       inkscape:connector-curvature="0"
       style="stroke-width:1.48800719" />
    <path
       inkscape:path-effect="#path-effect967"
       transform="matrix(-0.53447743,0,0,1,15205.242,0)"
       inkscape:original-d="m 9911.0341,6930.248 c -0.6392,-157.7154 -1.2946,-315.4475 -1.9653,-473.1965"
       inkscape:connector-curvature="0"
       id="path965"
       d="m 9911.0341,6930.248 -1.9653,-473.1965"
       style="fill:none;stroke:#000000;stroke-width:16.52411842px;stroke-linecap:butt;stroke-linejoin:miter;stroke-opacity:1" />
    <path
       transform="matrix(16.222712,0,0,-16.831125,799.92618,14583.19)"
       inkscape:connector-curvature="0"
       id="path971"
       d="m 561.078,476.0215 c -2.21847,0.58738 -4.54258,0.28627 -6.79123,0.64673 -0.75873,0.11838 -1.72113,0.63984 -1.61876,1.53196 0.10512,0.85217 1.05024,1.26181 1.81238,1.34929 2.08902,0.29996 4.21937,0.0682 6.27768,0.49779 0.34075,0.22159 0.84753,0.0227 0.77158,-0.42844 2.1e-4,-1.09034 0.0513,-2.18297 0.007,-3.27218 -0.0809,-0.20233 -0.22421,-0.35554 -0.45871,-0.32515 z"
       style="opacity:1;fill:#ffcc00;fill-opacity:1;fill-rule:nonzero;stroke:none;stroke-width:0.02661639;stroke-linecap:round;stroke-linejoin:round;stroke-miterlimit:4;stroke-dasharray:none;stroke-opacity:1" />
    <path
       transform="matrix(16.222712,0,0,-16.831125,799.92618,14583.19)"
       inkscape:connector-curvature="0"
       id="path973"
       d="m 561.05462,471.76712 c -2.28018,0.66445 -4.70057,0.24228 -7.00819,0.71229 -0.73921,0.15568 -1.57449,0.80539 -1.35256,1.64797 0.21884,0.912 1.30073,1.09568 2.08778,1.20557 2.07198,0.26978 4.19791,0.0271 6.2401,0.53395 0.58375,0.0244 0.5257,-0.69357 0.53442,-1.09331 -0.0138,-0.91614 0.063,-1.85131 -0.0384,-2.75477 -0.0411,-0.19561 -0.28083,-0.28611 -0.46313,-0.2517 z"
       style="opacity:1;fill:#ffcc00;fill-opacity:1;fill-rule:nonzero;stroke:none;stroke-width:0.02661639;stroke-linecap:round;stroke-linejoin:round;stroke-miterlimit:4;stroke-dasharray:none;stroke-opacity:1" />
    <path
       transform="matrix(16.222712,0,0,-16.831125,799.92618,14583.19)"
       inkscape:connector-curvature="0"
       id="path975"
       d="m 561.06865,467.26489 c -2.12668,0.3988 -4.28541,0.14884 -6.42138,0.5019 -0.92806,0.15806 -1.80659,0.88528 -1.83676,1.87789 -0.11497,0.62205 0.33771,1.17389 0.92787,1.31368 1.34789,0.35021 2.77613,0.20613 4.14563,0.31514 1.04595,0.0591 2.11603,0.0944 3.14654,0.37093 0.59787,0.005 0.50749,-0.73314 0.52541,-1.14104 -0.0115,-0.9917 0.0614,-1.99696 -0.0688,-2.98046 -0.0709,-0.17017 -0.24595,-0.24888 -0.41855,-0.25804 z"
       style="opacity:1;fill:#ffcc00;fill-opacity:1;fill-rule:nonzero;stroke:none;stroke-width:0.02661639;stroke-linecap:round;stroke-linejoin:round;stroke-miterlimit:4;stroke-dasharray:none;stroke-opacity:1" />
    <path
       transform="matrix(16.222712,0,0,-16.831125,799.92618,14583.19)"
       inkscape:connector-curvature="0"
       id="path977"
       d="m 561.04802,463.27804 c -1.90227,0.56651 -3.89089,0.37293 -5.84579,0.55599 -0.86933,0.0874 -1.99909,0.17707 -2.43106,1.06868 -0.35009,0.73416 0.24037,1.55838 0.96831,1.74489 1.42483,0.42807 2.94788,0.28702 4.40991,0.38889 0.95714,0.0448 1.91562,0.0677 2.84952,0.25027 0.48812,0.0865 0.64812,-0.43352 0.56435,-0.82251 -0.0297,-0.9764 0.0598,-1.97259 -0.0455,-2.93644 -0.0407,-0.19803 -0.28665,-0.28734 -0.46973,-0.24977 z"
       style="opacity:1;fill:#ffcc00;fill-opacity:1;fill-rule:nonzero;stroke:none;stroke-width:0.02661639;stroke-linecap:round;stroke-linejoin:round;stroke-miterlimit:4;stroke-dasharray:none;stroke-opacity:1" />
    <path
       transform="matrix(16.222712,0,0,-16.831125,799.92618,14583.19)"
       inkscape:connector-curvature="0"
       id="path985"
       d="m 561.08875,458.46935 c -1.71028,0.20484 -3.42871,0.36755 -5.12581,0.66593 -0.91772,0.20823 -1.96166,0.42663 -2.57462,1.20775 -0.28886,0.42389 -0.43113,1.05843 -0.13509,1.51344 0.4952,0.50055 1.26917,0.50527 1.92591,0.56468 1.77381,0.12708 3.56931,10e-4 5.31409,0.32815 0.22921,0.0155 0.49404,0.21789 0.70065,0.0925 0.1173,-0.58211 0.0405,-1.19493 0.0679,-1.78819 -0.0149,-0.84257 0.0306,-1.69418 -0.053,-2.53144 -0.0209,-0.0466 -0.0757,-0.0559 -0.12001,-0.0528 z"
       style="opacity:1;fill:#ffcc00;fill-opacity:1;fill-rule:nonzero;stroke:none;stroke-width:0.01882063;stroke-linecap:round;stroke-linejoin:round;stroke-miterlimit:4;stroke-dasharray:none;stroke-opacity:1" />
    <path
       transform="matrix(16.222712,0,0,-16.831125,799.92618,14583.19)"
       inkscape:connector-curvature="0"
       id="path987"
       d="m 560.91456,454.65741 c -2.0119,0.17614 -4.05399,0.14961 -6.03595,0.57635 -0.76791,0.16341 -1.58737,0.63646 -1.75065,1.4651 -0.13825,0.45783 0.0499,1.00135 0.51411,1.18305 0.9819,0.42295 2.08278,0.4085 3.13114,0.49048 1.46172,0.066 2.92516,0.0852 4.38819,0.0963 0.22175,-0.17735 0.0436,-0.58042 0.10086,-0.84692 -0.0139,-0.97746 0.0277,-1.96692 -0.0206,-2.93692 -0.0596,-0.10523 -0.23096,-0.0205 -0.32708,-0.0274 z"
       style="opacity:1;fill:#ffcc00;fill-opacity:1;fill-rule:nonzero;stroke:none;stroke-width:0.01882063;stroke-linecap:round;stroke-linejoin:round;stroke-miterlimit:4;stroke-dasharray:none;stroke-opacity:1" />
    <path
       transform="matrix(16.222712,0,0,-16.831125,799.92618,14583.19)"
       inkscape:connector-curvature="0"
       id="path989"
       d="m 561.18878,480.49633 c -1.45286,0.53728 -3.02827,0.38534 -4.54705,0.47013 -1.00555,0.0698 -2.05141,-0.0638 -3.02929,0.21979 -0.51452,0.19487 -0.80858,0.90396 -0.56819,1.39828 0.53811,0.74087 1.53166,0.92001 2.36804,1.1289 1.73959,0.31678 3.63345,0.47168 5.29687,-0.24697 0.25386,-0.17357 0.72724,-0.27881 0.76928,-0.62899 -0.26149,-0.1821 -0.10619,-0.58721 -0.15653,-0.86859 -0.0238,-0.48309 0.0482,-0.98753 -0.0381,-1.45618 -0.0308,0.0297 -0.0639,-0.0337 -0.095,-0.0164 z"
       style="opacity:1;fill:#ffcc00;fill-opacity:1;fill-rule:nonzero;stroke:none;stroke-width:0.02661639;stroke-linecap:round;stroke-linejoin:round;stroke-miterlimit:4;stroke-dasharray:none;stroke-opacity:1" />
  </g>
  <g
     style="fill:#000000;stroke:none"
     inkscape:label="toma_corriente"
     id="toma_corriente"
     transform="matrix(0.04623148,0,0,-0.0445603,-44.152431,671.34332)">
    <path
       d="m 6254,11844 c -12,-3 -30,-14 -40,-26 -18,-19 -19,-54 -19,-793 0,-746 1,-774 19,-794 l 19,-21 h 779 c 765,0 778,0 798,20 20,20 20,33 20,795 0,762 0,775 -20,795 -19,19 -33,20 -337,20 -175,0 -516,2 -758,4 -242,3 -450,3 -461,0 z m 1293,-116 23,-21 v -674 c 0,-657 0,-673 -20,-693 -11,-11 -30,-22 -42,-25 -13,-3 -249,-4 -525,-3 l -502,3 -23,23 -23,23 v 675 676 l 24,19 c 22,18 46,19 544,19 h 521 z"
       id="path62"
       inkscape:connector-curvature="0" />
    <path
       d="m 6609,11621 -29,-29 v -547 -547 l 29,-29 29,-29 h 315 315 l 65,68 c 35,37 85,91 111,120 l 46,53 v 373 373 l -135,111 -134,112 h -292 -291 z m 404,-198 c 4,-15 3,-87 -2,-115 0,-5 -61,-8 -135,-8 -109,0 -138,3 -150,16 -18,18 -21,60 -6,98 l 10,26 h 139 c 125,0 140,-2 144,-17 z m 347,-342 c 5,-11 10,-32 10,-46 0,-14 -5,-35 -10,-46 -10,-17 -23,-19 -160,-19 -137,0 -152,2 -170,20 -26,26 -25,58 2,87 21,22 28,23 169,23 136,0 149,-2 159,-19 z m -345,-386 v -60 l -140,-3 c -123,-2 -141,0 -152,15 -16,21 -17,67 -3,94 10,18 21,19 153,17 l 142,-3 z"
       id="path64"
       inkscape:connector-curvature="0" />
  </g>
  <g
     style="fill:#000000;stroke:none"
     inkscape:label="puerto_audio"
     transform="matrix(0.0701725,0,0,-0.06653546,-352.22622,884.07927)"
     id="puerto_audio">
    <path
       d="m 10771,9148 c -60,-31 -83,-65 -89,-132 -8,-102 61,-176 165,-176 86,0 152,61 160,147 13,130 -121,221 -236,161 z m 111,-8 c 11,0 38,-17 59,-39 36,-35 39,-43 39,-92 0,-37 -7,-65 -20,-87 -36,-59 -126,-80 -187,-42 -86,52 -95,160 -21,230 24,22 75,41 96,34 8,-2 23,-4 34,-4 z"
       id="path68"
       inkscape:connector-curvature="0" />
    <path
       d="m 10779,9071 c -78,-78 5,-203 104,-156 63,30 77,107 28,156 -22,21 -39,29 -66,29 -27,0 -44,-8 -66,-29 z"
       id="path70"
       inkscape:connector-curvature="0" />
    <path
       transform="matrix(10.687947,0,0,-11.272185,4917.2474,12964.024)"
       inkscape:connector-curvature="0"
       id="path930"
       d="m 553.32671,338.93027 c -8.37385,0.18996 -15.0444,10.47797 -10.71242,18.00135 2.8749,5.26926 9.32469,8.33378 15.18163,6.61356 5.6518,-0.90348 9.5027,-6.34636 9.57566,-11.87796 0.19283,-3.07008 -0.52777,-6.39396 -3.18272,-8.27664 -2.416,-2.68884 -5.72787,-4.77703 -9.47953,-4.4533 -0.46087,-0.002 -0.92174,-0.0178 -1.38262,-0.007 z m 1.78799,3.96503 c 4.76382,0.16491 9.17534,5.13496 8.0172,9.94836 -0.5311,4.97159 -6.30498,7.66126 -10.76766,6.96603 -5.79804,-0.97717 -9.00764,-9.10841 -4.6295,-13.39675 1.78311,-2.25845 4.51502,-3.7999 7.37996,-3.51764 z"
       style="opacity:1;fill:#cc00ff;fill-opacity:1;fill-rule:nonzero;stroke:none;stroke-width:0.15056504;stroke-linecap:round;stroke-linejoin:round;stroke-miterlimit:4;stroke-dasharray:none;stroke-opacity:1" />
  </g>
  <g
     style="fill:#000000;stroke:none"
     inkscape:label="puerto_micro"
     transform="matrix(0.06945943,0,0,-0.06447186,-345.77085,865.62578)"
     id="puerto_micro">
    <path
       d="m 11219,9147 c -151,-78 -94,-307 76,-307 60,0 106,25 143,80 20,29 23,45 20,91 -5,68 -35,114 -92,140 -55,25 -94,24 -147,-4 z m 139,-18 c 104,-51 105,-201 2,-254 -61,-32 -147,-9 -185,48 -45,70 -18,169 58,206 53,26 70,26 125,0 z"
       id="path72"
       inkscape:connector-curvature="0" />
    <path
       d="m 11229,9071 c -38,-38 -39,-87 -4,-129 42,-50 98,-50 144,-1 52,57 5,159 -74,159 -27,0 -44,-8 -66,-29 z"
       id="path74"
       inkscape:connector-curvature="0" />
    <path
       transform="matrix(10.797669,0,0,-11.632982,4874.7906,13092.748)"
       inkscape:connector-curvature="0"
       id="path938"
       d="m 594.34637,339.27184 c -7.85561,0.0319 -14.9294,8.28515 -12.37048,16.05852 2.65398,8.47119 14.77985,11.2171 21.27234,5.43713 4.90451,-3.72502 5.93498,-11.3624 2.01441,-16.15578 -2.58155,-3.27167 -6.71613,-5.42306 -10.91627,-5.33987 z m 0.21864,4.05684 c 6.07885,-0.26473 11.14157,7.27452 7.58381,12.5401 -2.42045,3.32521 -6.90632,4.83697 -10.77855,3.38926 -3.71649,-1.9549 -7.03295,-6.7965 -4.78122,-10.96685 1.50071,-2.91087 4.73484,-4.9208 7.97596,-4.96251 z"
       style="opacity:1;fill:#37c837;fill-opacity:1;fill-rule:nonzero;stroke:none;stroke-width:0.15056504;stroke-linecap:round;stroke-linejoin:round;stroke-miterlimit:4;stroke-dasharray:none;stroke-opacity:1" />
  </g>
  <g
     style="fill:#000000;stroke:none"
     inkscape:label="ventilacion"
     id="ventilacion"
     transform="matrix(0.04623148,0,0,-0.0445603,-44.152431,671.34332)">
    <path
       d="m 8534,13348 c -293,-249 -477,-512 -587,-838 -50,-148 -75,-279 -89,-472 -11,-152 -10,-171 5,-203 12,-26 17,-62 17,-128 0,-207 117,-523 282,-764 247,-360 623,-627 1027,-728 107,-27 287,-55 349,-55 23,0 44,-4 47,-10 3,-5 22,-10 41,-10 19,0 34,5 34,10 0,6 22,10 50,10 27,0 99,7 160,15 620,87 1140,479 1394,1052 264,596 175,1305 -229,1818 -62,78 -202,221 -299,303 l -49,42 h -141 -141 l 25,-20 c 14,-11 29,-20 33,-20 16,0 183,-120 257,-184 239,-207 428,-515 506,-823 23,-93 54,-293 54,-354 v -30 l -82,3 -83,3 -7,85 c -46,558 -413,1048 -942,1259 -193,76 -223,81 -535,81 -304,0 -345,-6 -504,-69 -199,-79 -345,-171 -491,-311 -260,-248 -424,-591 -454,-955 l -7,-90 -84,-3 -84,-3 7,83 c 34,412 190,759 470,1046 98,101 256,227 337,267 27,14 49,28 49,30 0,3 -65,5 -144,5 h -143 z m 1046,-137 v -78 l -72,-7 c -310,-31 -614,-207 -811,-471 -122,-163 -215,-403 -234,-610 l -8,-80 -77,-3 -78,-3 v 33 c 0,54 29,227 50,307 43,155 133,338 226,458 60,77 185,205 257,260 176,136 419,238 629,262 130,15 118,22 118,-68 z m 242,63 c 623,-85 1108,-601 1164,-1236 l 7,-78 h -82 -81 v 44 c 0,69 -28,213 -61,310 -83,247 -251,466 -470,612 -167,111 -332,172 -535,196 l -104,12 v 78 c 0,92 -13,87 162,62 z m 18,-260 c 464,-83 830,-477 889,-959 5,-43 7,-83 5,-87 -9,-14 -164,-10 -168,5 -2,6 -8,48 -14,92 -25,186 -105,354 -236,493 -44,46 -107,103 -140,127 -133,94 -298,158 -448,172 l -68,6 v 87 88 l 48,-5 c 26,-2 85,-11 132,-19 z m -260,-68 v -83 l -59,-7 c -347,-39 -653,-308 -756,-663 -14,-48 -29,-119 -33,-158 l -7,-70 -79,-3 c -44,-2 -83,1 -88,6 -12,12 9,163 38,272 73,271 266,521 514,663 113,65 313,125 423,126 l 47,1 z m 0,-261 c 0,-101 -1,-105 -22,-105 -45,0 -180,-43 -233,-75 -186,-112 -290,-273 -330,-507 l -6,-38 h -96 -96 l 6,76 c 8,85 52,229 98,315 75,140 220,281 364,354 76,39 227,84 283,85 h 32 z m 253,81 c 224,-57 423,-206 546,-411 47,-77 101,-240 108,-325 l 6,-71 -103,3 -104,3 -12,65 c -51,273 -258,486 -523,537 l -91,18 v 103 102 h 39 c 21,0 82,-11 134,-24 z m -1647,-986 c 40,-347 177,-634 418,-876 244,-244 565,-395 892,-420 l 84,-7 v -83 -84 h -27 c -56,1 -240,30 -318,50 -317,84 -555,225 -778,460 -254,267 -410,617 -442,993 l -7,78 83,-3 83,-3 z m 280,15 c 51,-407 283,-739 638,-914 140,-69 326,-121 439,-121 h 37 v -81 -82 l -72,7 c -306,30 -581,155 -800,364 -231,221 -371,515 -404,850 l -7,73 79,-3 78,-3 z m 258,83 c 2,-7 9,-49 16,-93 56,-368 336,-664 700,-741 36,-7 82,-14 103,-14 h 37 v -90 c 0,-49 -2,-90 -4,-90 -32,0 -177,26 -232,41 -229,63 -434,201 -576,389 -64,83 -150,262 -177,365 -21,83 -42,224 -34,238 8,13 163,8 167,-5 z m 271,-25 c 26,-155 84,-272 185,-373 102,-102 220,-164 344,-179 l 51,-6 3,-97 3,-98 h -26 c -49,0 -180,32 -247,60 -174,74 -333,222 -417,387 -43,85 -81,205 -88,279 l -6,64 h 96 96 z m 1491,-30 c -4,-37 -18,-101 -32,-141 -75,-224 -219,-389 -429,-492 -111,-54 -185,-76 -293,-86 l -72,-7 v 97 c 0,53 1,96 3,96 153,22 271,67 371,142 119,89 200,214 232,359 9,40 18,80 20,87 2,8 32,12 105,12 h 102 z m 246,12 c -6,-90 -51,-256 -97,-353 -168,-355 -502,-584 -912,-626 l -63,-7 v 89 89 l 80,6 c 116,9 280,66 391,136 153,96 287,248 356,401 29,66 73,230 73,274 0,18 3,36 7,40 4,4 43,5 88,4 l 80,-3 z m 250,-15 c -8,-169 -81,-401 -179,-562 -161,-267 -414,-474 -704,-576 -107,-38 -250,-69 -357,-78 l -82,-7 v 80 80 l 88,7 c 207,15 451,110 622,241 78,60 209,198 260,274 103,154 171,333 193,514 l 11,98 76,-3 75,-3 z m 293,-7 c -56,-634 -449,-1156 -1048,-1392 -141,-56 -402,-110 -529,-111 h -38 v 85 85 h 54 c 142,0 425,74 580,152 364,183 646,515 756,890 32,111 60,258 60,318 0,20 3,40 7,43 3,4 42,7 86,7 h 79 z"
       id="path28"
       inkscape:connector-curvature="0" />
    <path
       d="m 9400,13249 c -95,-16 -292,-88 -385,-141 -319,-181 -550,-475 -645,-821 -30,-110 -53,-289 -37,-299 15,-10 79,-10 93,0 6,4 14,39 17,78 17,182 105,416 218,580 114,165 312,328 498,409 95,42 235,80 334,90 l 67,7 v 54 54 l -52,-1 c -29,-1 -78,-5 -108,-10 z"
       id="path30"
       inkscape:connector-curvature="0" />
    <path
       d="m 9680,13210 v -57 l 71,-7 c 410,-38 788,-295 971,-661 68,-135 128,-348 128,-453 0,-44 10,-52 63,-52 52,0 55,7 46,90 -14,125 -39,230 -80,335 -148,380 -448,666 -835,794 -106,35 -175,49 -321,65 l -43,4 z"
       id="path32"
       inkscape:connector-curvature="0" />
    <path
       d="m 9680,12946 v -63 l 63,-6 c 304,-29 599,-237 742,-521 45,-91 95,-258 95,-321 0,-44 19,-57 77,-53 l 48,3 -1,60 c -2,138 -88,367 -191,512 -127,179 -330,330 -540,402 -65,22 -215,51 -264,51 -29,0 -29,0 -29,-64 z"
       id="path34"
       inkscape:connector-curvature="0" />
    <path
       d="m 9433,12995 c -317,-57 -593,-270 -744,-574 -57,-115 -100,-269 -102,-366 l -2,-70 54,-3 c 61,-4 71,4 71,59 0,20 9,70 20,112 72,283 244,505 493,633 86,44 249,94 308,94 29,0 29,0 29,65 0,64 0,65 -27,64 -16,0 -60,-7 -100,-14 z"
       id="path36"
       inkscape:connector-curvature="0" />
    <path
       d="m 9475,12755 c -167,-38 -283,-102 -406,-224 -129,-129 -212,-288 -241,-462 -14,-85 -10,-89 74,-89 65,0 71,6 82,79 18,121 115,295 212,380 94,82 212,141 319,156 l 45,7 v 84 c 0,61 -3,84 -12,83 -7,0 -40,-7 -73,-14 z"
       id="path38"
       inkscape:connector-curvature="0" />
    <path
       d="m 9680,12686 c 0,-82 1,-86 22,-86 47,0 157,-34 233,-73 106,-54 235,-181 287,-282 38,-74 78,-192 78,-230 0,-28 17,-35 88,-35 84,0 88,5 74,85 -68,364 -365,648 -734,701 l -48,6 z"
       id="path40"
       inkscape:connector-curvature="0" />
    <path
       d="m 8039,11865 c -9,-8 10,-168 32,-269 98,-465 418,-878 847,-1095 163,-82 376,-143 585,-166 l 57,-6 v 65 66 h -43 c -142,0 -392,71 -567,161 -345,178 -613,497 -724,861 -33,107 -66,274 -66,332 0,31 -5,46 -16,50 -18,7 -99,8 -105,1 z"
       id="path42"
       inkscape:connector-curvature="0" />
    <path
       d="m 8334,11862 c -27,-18 27,-287 86,-429 184,-440 553,-727 1028,-798 53,-8 100,-15 105,-15 4,0 7,27 7,60 v 60 h -39 c -109,0 -315,60 -452,131 -232,121 -431,335 -534,576 -41,94 -82,248 -91,341 -4,37 -12,70 -18,74 -6,4 -27,8 -46,8 -19,0 -40,-4 -46,-8 z"
       id="path44"
       inkscape:connector-curvature="0" />
    <path
       d="m 8583,11854 c -16,-42 35,-250 92,-371 98,-208 235,-357 432,-472 93,-53 287,-118 381,-127 l 73,-7 -3,64 -3,64 -60,7 c -260,32 -512,198 -656,432 -55,89 -114,257 -125,353 -4,32 -12,61 -18,65 -6,4 -33,8 -59,8 -34,0 -49,-4 -54,-16 z"
       id="path46"
       inkscape:connector-curvature="0" />
    <path
       d="m 8831,11861 c -11,-7 -11,-20 2,-83 69,-340 345,-603 685,-652 l 42,-6 v 75 c 0,73 0,75 -27,80 -169,34 -261,82 -369,190 -92,92 -141,179 -174,308 -11,43 -22,82 -25,87 -8,12 -115,13 -134,1 z"
       id="path48"
       inkscape:connector-curvature="0" />
    <path
       d="m 10306,11858 c -2,-7 -11,-43 -20,-80 -33,-139 -106,-256 -218,-349 -94,-78 -200,-124 -360,-154 -28,-5 -28,-7 -28,-80 0,-88 -7,-85 136,-56 276,57 519,268 611,532 35,101 48,180 31,190 -21,14 -148,11 -152,-3 z"
       id="path50"
       inkscape:connector-curvature="0" />
    <path
       d="m 10593,11864 c -7,-3 -13,-18 -13,-34 0,-15 -11,-70 -24,-123 -86,-338 -360,-598 -716,-682 -36,-8 -79,-15 -97,-15 -58,0 -63,-6 -63,-75 v -63 l 43,5 c 304,34 583,182 760,403 120,150 215,379 220,529 l 2,56 -50,2 c -27,1 -56,0 -62,-3 z"
       id="path52"
       inkscape:connector-curvature="0" />
    <path
       d="m 10865,11862 c -6,-4 -16,-45 -23,-92 -63,-445 -370,-815 -800,-964 -103,-36 -228,-63 -312,-68 l -45,-3 -3,-59 -3,-58 53,6 c 364,44 633,169 854,396 220,225 336,467 372,772 7,54 6,68 -6,73 -20,7 -75,6 -87,-3 z"
       id="path54"
       inkscape:connector-curvature="0" />
    <path
       d="m 11143,11864 c -7,-3 -13,-23 -13,-44 0,-59 -27,-196 -60,-309 -136,-458 -502,-828 -970,-980 -126,-41 -216,-60 -327,-68 l -93,-6 v -64 -65 l 68,7 c 425,41 783,211 1063,502 148,155 254,316 329,502 65,160 116,391 108,486 -3,40 -3,40 -48,42 -25,1 -51,0 -57,-3 z"
       id="path56"
       inkscape:connector-curvature="0" />
    <path
       d="m 8902,13380 c -13,-6 -76,-46 -141,-90 -184,-124 -334,-275 -456,-455 -58,-87 -155,-285 -189,-385 -33,-98 -74,-306 -78,-395 l -3,-70 48,-3 c 27,-2 54,2 61,7 8,6 16,46 20,94 21,274 143,576 321,796 186,231 436,404 695,481 39,11 70,23 70,25 0,9 -325,4 -348,-5 z"
       id="path58"
       inkscape:connector-curvature="0" />
    <path
       d="m 10025,13380 c 11,-5 52,-18 90,-30 168,-50 377,-175 535,-319 265,-241 451,-612 477,-951 3,-47 11,-88 17,-92 14,-10 104,-10 109,0 8,14 -12,177 -33,282 -64,305 -209,570 -439,801 -128,128 -199,184 -343,270 l -81,49 -176,-1 c -108,0 -168,-4 -156,-9 z"
       id="path60"
       inkscape:connector-curvature="0" />
  </g>
  <g
     style="fill:#000000;stroke:none"
     clip-path="none"
     inkscape:label="puerto_paralelo"
     id="puerto_paralelo"
     transform="matrix(0.04623148,0,0,-0.0445603,-44.152431,671.34332)">
    <path
       style="stroke-width:0.07925326"
       d="m 564.28906,744.30469 c -43.15724,0 -56.91533,0.22205 -58.53906,0.95703 -1.19644,0.51449 -2.73428,1.98297 -3.41797,3.23242 l -1.2832,2.42578 h -6.83789 c -4.273,0 -7.34905,0.36833 -7.94727,0.88281 -0.59823,0.51448 -1.02344,3.15911 -1.02344,6.83399 0,3.67487 0.42521,6.32145 1.02344,6.83594 0.59822,0.51448 3.33359,0.88086 6.41016,0.88086 h 5.38476 v 2.20703 c 0,1.24946 0.76894,2.86535 1.70899,3.67383 1.7092,1.46994 2.82046,1.46874 64.35156,1.46874 59.65099,0 62.8138,-0.0708 64.0957,-1.32031 0.85461,-0.73498 1.45118,-2.42631 1.45118,-3.67578 v -2.35351 h 5.4707 c 7.0077,0 7.77539,-0.73456 7.77539,-7.7168 0,-7.20275 -0.5961,-7.7168 -9.05664,-7.7168 -6.58041,0 -6.7513,-0.073 -8.0332,-2.13086 -2.82019,-4.70383 0.5107,-4.48437 -61.53321,-4.48437 z m 27.9043,1.53906 c 22.26101,0.0552 27.32535,0.31856 28.92773,1.03516 1.45284,0.66147 2.8193,2.0574 3.33203,3.52734 0.76911,1.98442 3.41848,16.38925 3.50391,19.03516 0,0.29399 -0.59808,1.02921 -1.36719,1.61718 -1.19641,1.02897 -8.0342,1.17579 -62.72851,1.17579 -54.69431,0 -61.53012,-0.14682 -62.72656,-1.17579 -1.62375,-1.39646 -1.62421,-0.29423 -0.0859,-9.77539 1.53828,-9.33416 3.24675,-13.59603 5.81055,-14.625 1.2819,-0.51448 19.57151,-0.80859 56.83203,-0.80859 11.75071,-0.0184 21.08167,-0.0242 28.50195,-0.006 z m -55.57031,2.23047 c -21.04716,0.0207 -22.64783,0.31052 -24.63477,1.30273 -2.82018,1.54345 -3.84457,4.18937 -5.04101,12.93555 -0.51276,3.30738 -0.34245,4.33771 0.93945,5.51367 1.53829,1.46996 2.82148,1.46875 56.14844,1.46875 53.49788,0 54.52126,10e-4 56.23046,-1.46875 1.88009,-1.61694 1.79573,-3.75021 -0.51171,-12.1289 -2.30739,-8.01123 2.73471,-7.34983 -54.86524,-7.57032 -12.0712,-0.0367 -21.2499,-0.0595 -28.26562,-0.0527 z m 8.77734,2.83203 c 5.23091,0.004 11.28329,0.0137 18.29102,0.0137 41.27715,0 48.79961,0.1461 50.33789,1.10156 1.2819,0.80847 1.96375,2.42682 2.81836,6.91016 0.59823,3.23388 0.76808,6.17424 0.51172,6.61524 -0.42731,0.58798 -16.49245,0.80664 -53.58204,0.80664 -47.68662,0 -52.98527,-0.14487 -53.49804,-1.17383 -0.25637,-0.66147 0.001,-3.45586 0.59961,-6.32227 1.57034,-7.58859 -2.09491,-7.97328 34.52148,-7.95117 z m -24.21289,2.16016 a 2.0699576,2.0528702 0 0 0 -2.07031,2.05273 2.0699576,2.0528702 0 0 0 2.07031,2.05274 2.0699576,2.0528702 0 0 0 2.07031,-2.05274 2.0699576,2.0528702 0 0 0 -2.07031,-2.05273 z m 78.86523,0.0781 a 2.0699576,2.0528695 0 0 0 -2.07031,2.05274 2.0699576,2.0528695 0 0 0 2.07031,2.05273 2.0699576,2.0528695 0 0 0 2.07032,-2.05273 2.0699576,2.0528695 0 0 0 -2.07032,-2.05274 z m -69.83007,0.0391 a 2.0699576,2.05287 0 0 0 -2.06836,2.05274 2.0699576,2.05287 0 0 0 2.06836,2.05273 2.0699576,2.05287 0 0 0 2.07031,-2.05273 2.0699576,2.05287 0 0 0 -2.07031,-2.05274 z m 60.93554,0.0996 a 2.0699576,2.0528698 0 0 0 -2.07031,2.05274 2.0699576,2.0528698 0 0 0 2.07031,2.05273 2.0699576,2.0528698 0 0 0 2.07032,-2.05273 2.0699576,2.0528698 0 0 0 -2.07032,-2.05274 z m -51.68164,0.0293 a 2.0699576,2.05287 0 0 0 -2.07031,2.05273 2.0699576,2.05287 0 0 0 2.07031,2.05274 2.0699576,2.05287 0 0 0 2.07032,-2.05274 2.0699576,2.05287 0 0 0 -2.07032,-2.05273 z m 16.99024,0.0332 a 2.0699576,2.0528698 0 0 0 -2.07032,2.05274 2.0699576,2.0528698 0 0 0 2.07032,2.05273 2.0699576,2.0528698 0 0 0 2.06836,-2.05273 2.0699576,2.0528698 0 0 0 -2.06836,-2.05274 z m 18.37304,0.002 a 2.0699576,2.05287 0 0 0 -2.07031,2.05273 2.0699576,2.05287 0 0 0 2.07031,2.05273 2.0699576,2.05287 0 0 0 2.07032,-2.05273 2.0699576,2.05287 0 0 0 -2.07032,-2.05273 z m -9.75976,0.11523 a 2.0699576,2.0528695 0 0 0 -2.07031,2.05273 2.0699576,2.0528695 0 0 0 2.07031,2.05274 2.0699576,2.0528695 0 0 0 2.06836,-2.05274 2.0699576,2.0528695 0 0 0 -2.06836,-2.05273 z m -16.99024,0.10547 a 2.0699576,2.0528698 0 0 0 -2.07031,2.05273 2.0699576,2.0528698 0 0 0 2.07031,2.05274 2.0699576,2.0528698 0 0 0 2.07032,-2.05274 2.0699576,2.0528698 0 0 0 -2.07032,-2.05273 z m 35.08204,0.0352 a 2.0699576,2.0528698 0 0 0 -2.07032,2.05273 2.0699576,2.0528698 0 0 0 2.07032,2.05273 2.0699576,2.0528698 0 0 0 2.07031,-2.05273 2.0699576,2.0528698 0 0 0 -2.07031,-2.05273 z m -65.63086,5.57812 a 2.0699576,2.05287 0 0 0 -2.07032,2.05274 2.0699576,2.05287 0 0 0 2.07032,2.05468 2.0699576,2.05287 0 0 0 2.07031,-2.05468 2.0699576,2.05287 0 0 0 -2.07031,-2.05274 z m 8.87304,0.25781 a 2.0699576,2.05287 0 0 0 -2.06836,2.05274 2.0699576,2.05287 0 0 0 2.06836,2.05273 2.0699576,2.05287 0 0 0 2.07032,-2.05273 2.0699576,2.05287 0 0 0 -2.07032,-2.05274 z m 35.13867,0.13867 a 2.0699576,2.0528695 0 0 0 -2.07031,2.05274 2.0699576,2.0528695 0 0 0 2.07031,2.05273 2.0699576,2.0528695 0 0 0 2.07032,-2.05273 2.0699576,2.0528695 0 0 0 -2.07032,-2.05274 z m 18.23243,0.002 a 2.0699576,2.0528698 0 0 0 -2.07032,2.05273 2.0699576,2.0528698 0 0 0 2.07032,2.05274 2.0699576,2.0528698 0 0 0 2.07031,-2.05274 2.0699576,2.0528698 0 0 0 -2.07031,-2.05273 z m -44.37696,0.1289 a 2.0699576,2.0528698 0 0 0 -2.07031,2.05274 2.0699576,2.0528698 0 0 0 2.07031,2.05273 2.0699576,2.0528698 0 0 0 2.07032,-2.05273 2.0699576,2.0528698 0 0 0 -2.07032,-2.05274 z m 51.39844,0 a 2.0699576,2.0528695 0 0 0 -2.07031,2.05274 2.0699576,2.0528695 0 0 0 2.07031,2.05273 2.0699576,2.0528695 0 0 0 2.07031,-2.05273 2.0699576,2.0528695 0 0 0 -2.07031,-2.05274 z m -16.59961,0.0352 a 2.0699576,2.0528698 0 0 0 -2.07031,2.05274 2.0699576,2.0528698 0 0 0 2.07031,2.05273 2.0699576,2.0528698 0 0 0 2.07031,-2.05273 2.0699576,2.0528698 0 0 0 -2.07031,-2.05274 z m -26.34765,0.082 a 2.0699576,2.0528698 0 0 0 -2.07032,2.05274 2.0699576,2.0528698 0 0 0 2.07032,2.05273 2.0699576,2.0528698 0 0 0 2.07031,-2.05273 2.0699576,2.0528698 0 0 0 -2.07031,-2.05274 z m 52.80664,0.28125 a 2.0699576,2.0528695 0 0 0 -2.07032,2.05274 2.0699576,2.0528695 0 0 0 2.07032,2.05273 2.0699576,2.0528695 0 0 0 2.07031,-2.05273 2.0699576,2.0528695 0 0 0 -2.07031,-2.05274 z m -44.12891,0.0586 a 2.0699576,2.0528695 0 0 0 -2.06836,2.05273 2.0699576,2.0528695 0 0 0 2.06836,2.05273 2.0699576,2.0528695 0 0 0 2.07031,-2.05273 2.0699576,2.0528695 0 0 0 -2.07031,-2.05273 z m 53.08984,0.14062 a 2.0699576,2.0528693 0 0 0 -2.07031,2.05274 2.0699576,2.0528693 0 0 0 2.07031,2.05273 2.0699576,2.0528693 0 0 0 2.07032,-2.05273 2.0699576,2.0528693 0 0 0 -2.07032,-2.05274 z"
       transform="matrix(16.222712,0,0,-16.831125,799.92618,14583.19)"
       id="path270"
       inkscape:connector-curvature="0" />
    <path
       transform="matrix(16.222712,0,0,-16.831125,799.92618,14583.19)"
       inkscape:connector-curvature="0"
       id="path1142"
       d="m 545.45244,750.76406 c -7.61616,0.0562 -15.23751,-0.0827 -22.85,0.18387 -3.02645,0.23418 -6.19737,0.19472 -9.03793,1.39954 -1.40843,0.57203 -2.16122,2.00943 -2.33669,3.4541 -0.5439,2.90877 -1.24932,5.83433 -1.25761,8.8063 -0.0445,1.20189 1.40525,1.27434 2.27086,1.40094 7.07421,0.62075 14.18899,0.37309 21.2819,0.45849 24.40863,0.0127 48.81825,0.0644 73.22614,-0.13684 3.37908,-0.10327 6.78647,0.0258 10.14177,-0.43628 0.95422,-0.0487 0.85893,-1.13277 0.80433,-1.81184 -0.30143,-3.5237 -0.77617,-7.10384 -2.08899,-10.40922 -0.50718,-1.35295 -1.82379,-2.24066 -3.25464,-2.30647 -5.21838,-0.6729 -10.49656,-0.36865 -15.74293,-0.49537 -17.05189,-0.0886 -34.10411,-0.11348 -51.15621,-0.10722 z m -24.2314,2.54622 c 1.35002,-0.0411 2.38402,1.73219 1.44339,2.81195 -0.8052,1.48837 -3.41184,0.70433 -3.29611,-0.98839 -0.0204,-0.99276 0.86615,-1.85027 1.85272,-1.82356 z m 78.9112,0.11939 c 1.46625,-0.0575 2.3639,1.95176 1.28109,2.9693 -0.93587,1.08677 -2.93668,0.5657 -3.14866,-0.87808 -0.27444,-1.13708 0.73227,-2.17976 1.86757,-2.09122 z m -69.7802,0.0193 c 1.70475,-0.0375 2.3571,2.56041 0.81783,3.30271 -1.18055,0.91643 -2.98092,-0.29943 -2.72227,-1.7116 0.0166,-0.97533 0.98651,-1.62646 1.90444,-1.59111 z m 60.96748,0.10646 c 1.70599,-0.0285 2.25158,2.59583 0.78813,3.32554 -1.16676,0.70787 -2.91473,-0.21222 -2.78499,-1.62825 0.003,-1.01975 1.02232,-1.77505 1.99686,-1.69729 z m -51.76964,0.0393 c 1.68388,-0.12473 2.39265,2.43403 0.96116,3.27547 -1.29765,0.9924 -3.30973,-0.4078 -2.81305,-1.97348 0.19177,-0.8266 1.02614,-1.35312 1.85189,-1.30199 z m 35.42611,0.0113 c 1.35782,0.008 2.3056,1.90063 1.27256,2.90933 -0.91446,1.36287 -3.41369,0.50435 -3.19102,-1.1628 -0.0669,-1.03531 0.91958,-1.81829 1.91846,-1.74653 z m -18.4441,0.0143 c 1.5989,-0.10758 2.3219,2.19553 1.12456,3.14206 -1.11847,1.07978 -3.32327,0.0469 -2.97865,-1.5493 0.0905,-0.98696 0.87298,-1.66496 1.85409,-1.59276 z m 8.58109,0.0952 c 1.18947,-0.0641 2.0465,1.19724 1.67447,2.29011 -0.29464,1.47275 -2.51732,1.81682 -3.23119,0.4693 -0.81439,-1.18725 0.12724,-2.84536 1.55672,-2.75941 z M 548.12025,753.85 c 1.16443,-0.0263 2.07578,1.13717 1.71297,2.25627 -0.29785,1.67609 -3.13092,1.76308 -3.45456,0.0674 -0.35101,-1.16708 0.4365,-2.42471 1.74159,-2.32367 z m 35.34578,0.0399 c 1.50766,0.091 2.07301,2.31676 0.84562,3.16159 -1.01039,0.91861 -2.80859,0.23367 -2.90163,-1.13172 -0.21613,-1.32767 0.78056,-2.13589 2.05601,-2.02987 z m -65.78152,5.56751 c 1.57872,-0.0267 2.263,2.27926 0.99334,3.17066 -1.03258,0.84739 -2.99116,0.19841 -2.91428,-1.27448 -0.11439,-1.14312 0.7975,-1.99013 1.92094,-1.89618 z m 8.68123,0.22007 c 1.31617,-0.047 2.35234,1.47969 1.6728,2.65102 -0.64793,1.39859 -3.073,1.2095 -3.34149,-0.37412 -0.32643,-1.09787 0.47779,-2.32041 1.66869,-2.2769 z m 53.40861,0.13781 c 1.63992,-0.0696 2.53512,2.34086 1.13061,3.26695 -1.03572,0.77277 -2.88774,0.18741 -2.88622,-1.24092 -0.13451,-1.04319 0.6468,-2.09799 1.75561,-2.02603 z m -18.11345,8.4e-4 c 1.88332,-0.0802 2.32399,3.04449 0.52762,3.48454 -0.92617,0.33759 -2.03281,-0.0823 -2.35365,-1.04341 -0.47333,-1.2146 0.56988,-2.47508 1.82603,-2.44113 z m -26.15179,0.15515 c 1.30297,0.0202 2.1962,1.66391 1.46815,2.78334 -0.79959,1.32986 -3.21076,0.91716 -3.33985,-0.70726 -0.21166,-1.10445 0.69553,-2.21988 1.8717,-2.07608 z m 51.33665,-2.9e-4 c 1.3238,-0.0233 2.43099,1.70814 1.44119,2.7861 -0.79436,1.423 -3.26032,0.79401 -3.30491,-0.83627 -0.11658,-1.03779 0.82725,-2.00929 1.86372,-1.94983 z m -16.4852,0.0498 c 1.57872,-0.0267 2.263,2.27927 0.99335,3.17067 -1.04182,0.84862 -3.04427,0.21298 -2.91566,-1.30062 -0.12598,-1.12836 0.83872,-1.96332 1.92231,-1.87005 z m -26.32867,0.0655 c 1.39914,0.0512 2.25626,2.01804 1.17517,3.00616 -0.93152,1.10864 -3.01122,0.52248 -3.14728,-0.94768 -0.18805,-1.14597 0.81854,-2.17071 1.97211,-2.05848 z m 52.77261,0.28719 c 1.3364,-0.007 2.30432,1.85633 1.29346,2.86119 -0.82403,1.26944 -3.04105,0.73123 -3.2188,-0.75842 -0.22548,-1.16085 0.74484,-2.19446 1.92534,-2.10277 z m -44.23305,0.0713 c 1.54751,-0.12295 2.29826,1.96901 1.30666,3.01496 -1.00171,1.12173 -3.21859,0.3615 -3.1481,-1.20681 -0.0375,-0.9887 0.82546,-1.91447 1.84144,-1.80815 z m 53.02294,0.13836 c 1.44763,-0.15641 2.29955,1.6173 1.5735,2.76932 -0.88589,1.55014 -3.53212,0.60842 -3.36212,-1.10778 0.0303,-0.9338 0.86974,-1.68589 1.78862,-1.66154 z"
       style="opacity:1;fill:#dd55ff;fill-opacity:1;fill-rule:nonzero;stroke:none;stroke-width:0.05323278;stroke-linecap:round;stroke-linejoin:round;stroke-miterlimit:4;stroke-dasharray:none;stroke-opacity:1" />
  </g>
</svg>
