<?xml version="1.0" encoding="UTF-8" standalone="no"?>
<svg
   xmlns:dc="http://purl.org/dc/elements/1.1/"
   xmlns:cc="http://creativecommons.org/ns#"
   xmlns:rdf="http://www.w3.org/1999/02/22-rdf-syntax-ns#"
   xmlns:svg="http://www.w3.org/2000/svg"
   xmlns="http://www.w3.org/2000/svg"
   xmlns:sodipodi="http://sodipodi.sourceforge.net/DTD/sodipodi-0.dtd"
   xmlns:inkscape="http://www.inkscape.org/namespaces/inkscape"
   version="1.0"
   width="738pt"
   height="657pt"
   viewBox="0 0 738 657"
   preserveAspectRatio="xMidYMid meet"
   id="svg8"
   sodipodi:docname="image17_usb.svg"
   inkscape:version="0.92.4 (5da689c313, 2019-01-14)">
  <defs
     id="defs12">
    <inkscape:path-effect
       effect="spiro"
       id="path-effect94"
       is_visible="true" />
    <inkscape:path-effect
       effect="spiro"
       id="path-effect86"
       is_visible="true" />
    <inkscape:path-effect
       effect="spiro"
       id="path-effect53"
       is_visible="true" />
    <inkscape:path-effect
       effect="spiro"
       id="path-effect49"
       is_visible="true" />
    <inkscape:path-effect
       effect="spiro"
       id="path-effect38"
       is_visible="true" />
    <inkscape:path-effect
       effect="spiro"
       id="path-effect34"
       is_visible="true" />
    <inkscape:path-effect
       effect="spiro"
       id="path-effect30"
       is_visible="true" />
  </defs>
  <sodipodi:namedview
     pagecolor="#ffffff"
     bordercolor="#666666"
     borderopacity="1"
     objecttolerance="10"
     gridtolerance="10"
     guidetolerance="10"
     inkscape:pageopacity="0"
     inkscape:pageshadow="2"
     inkscape:window-width="1366"
     inkscape:window-height="705"
     id="namedview10"
     showgrid="false"
     inkscape:zoom="0.21823771"
     inkscape:cx="-419.20593"
     inkscape:cy="87.80424"
     inkscape:window-x="-8"
     inkscape:window-y="-8"
     inkscape:window-maximized="1"
     inkscape:current-layer="svg8"
     fit-margin-top="0"
     fit-margin-left="0"
     fit-margin-right="0"
     fit-margin-bottom="0" />
  <metadata
     id="metadata2">
Created by potrace 1.15, written by Peter Selinger 2001-2017
<rdf:RDF>
  <cc:Work
     rdf:about="">
    <dc:format>image/svg+xml</dc:format>
    <dc:type
       rdf:resource="http://purl.org/dc/dcmitype/StillImage" />
    <dc:title></dc:title>
  </cc:Work>
</rdf:RDF>
</metadata>
  <g
     id="g117"
     transform="matrix(3.0245901,0,0,3.8724551,0,-1.3173797)">
    <path
       d="m 180.5,0.6 c -7.8,1.9 -11.2,3.7 -52,27.7 -3.8,2.3 -8.3,4.9 -10,5.8 -14.1,7.7 -80.3,47.3 -81.2,48.6 -0.7,0.9 -1.3,4.4 -1.3,7.7 v 6.1 l -9.8,5.5 c -5.3,3 -12,6.9 -14.9,8.7 -2.9,1.8 -5.6,3.3 -6.1,3.3 -0.4,0 -1.8,0.9 -3,2 -2,1.9 -2.2,3 -2.2,14.9 v 12.9 l 2.8,1.8 c 1.5,1 3.6,2.4 4.7,3 1.1,0.6 9.9,5.7 19.6,11.2 9.7,5.6 18.7,10.2 20,10.2 1.2,0 10,-4.5 19.3,-9.9 9.4,-5.5 17.8,-10.2 18.7,-10.6 0.8,-0.3 3.5,0.3 6,1.4 2.4,1.2 5.8,2.1 7.5,2.1 4.5,0 3.8,0.4 67.9,-37.3 25.3,-14.8 47.9,-28 50.1,-29.3 2.3,-1.3 8.3,-4.9 13.4,-8.1 13.6,-8.5 14,-9.4 14,-33.1 C 244,24 243.6,22.4 235.8,14.9 230.9,10.2 223.9,6.3 214.1,2.8 209.9,1.3 205.3,0.7 195.5,0.4 188.4,0.3 181.6,0.3 180.5,0.6 Z m 56.8,38.7 c -2,3.4 -2.7,3.8 -83.8,51.1 -21.4,12.6 -40.7,23.9 -42.7,25.3 l -3.8,2.6 V 131 c 0,12.6 0,12.8 -2.6,14.4 -1.5,1.1 -4,1.6 -6.2,1.4 l -3.7,-0.3 -0.3,-13 -0.3,-13 -4.2,-2.6 C 87.4,116.5 76.3,110.1 65,103.5 44,91.4 41,89.4 41,87.7 c 0,-0.6 0.8,-0.3 1.8,0.5 0.9,0.9 12.7,8 26.2,15.8 17.5,10.2 25.6,14.4 28.5,14.7 3.7,0.4 6.8,-1.2 43.5,-22.7 21.7,-12.8 51.1,-29.9 65.2,-38.2 14.2,-8.3 26.9,-16.2 28.3,-17.6 1.5,-1.4 2.9,-4 3.3,-5.7 0.6,-2.6 0.7,-2.7 1,-0.7 0.2,1.2 -0.5,3.7 -1.5,5.5 z m -98.2,30 c -1,2.7 -1.2,2.7 -3.9,1.3 -2.7,-1.4 -3.2,-1.2 -16.3,6.6 -11.7,6.9 -12.9,7.9 -9.4,7.4 2.2,-0.3 4.9,-0.6 6,-0.6 1.1,0 3.5,-1 5.4,-2.1 3.1,-1.9 3.3,-2.2 1.7,-3.1 -1.6,-0.9 -1.3,-1.3 2.4,-3.4 2.3,-1.3 4.7,-2.1 5.3,-1.7 0.7,0.4 2.9,1.7 5,3.1 l 3.9,2.3 -3.7,2.1 c -2.1,1.1 -4.7,1.7 -5.8,1.4 -1.1,-0.2 -4,0.6 -6.6,1.9 -3.4,1.7 -7.1,2.5 -14.1,3 -8,0.5 -10.3,1.1 -14.7,3.6 -2.9,1.7 -5.1,3.4 -4.8,3.9 2.4,3.9 -7.6,5.8 -11,2 -2.8,-3.1 -1.3,-5 3.9,-5 5.1,0 5.6,-0.5 7.7,-8.9 1.1,-4.5 2,-5.8 5.4,-8 2.5,-1.6 4,-3.4 4,-4.6 0,-2.9 7.2,-3.4 10.5,-0.7 3.5,2.8 2.1,5.2 -3.1,5.2 -6.2,0 -11.5,3.4 -12.3,7.8 -0.3,2 -0.4,3.7 -0.3,3.9 0.3,0.2 29,-16.1 32.7,-18.6 1.3,-0.9 1.3,-1.2 -0.2,-2.4 -1,-0.8 -1.8,-1.7 -1.8,-2 0,-0.3 3.3,-0.7 7.3,-0.9 6.6,-0.3 7.2,-0.1 7.5,1.8 0.2,1.1 -0.2,3.2 -0.7,4.7 z m -78.3,34.6 c 7.6,4.3 17,9.8 21,12.1 l 7.3,4.2 -0.3,10.5 -0.3,10.6 -20.8,11.9 c -19.2,11.1 -21,11.9 -23.5,10.9 -1.5,-0.6 -11,-6 -21.2,-12 L 4.5,141.3 4.2,130.8 3.9,120.4 21.7,110.2 c 9.8,-5.6 19.2,-11.1 20.8,-12.1 1.7,-1.1 3.4,-2 3.8,-2 0.5,-0.1 7,3.4 14.5,7.8 z"
       id="path4"
       inkscape:connector-curvature="0"
       style="fill:#000000;stroke:none;stroke-width:0.1" />
    <path
       sodipodi:nodetypes="ccccccc"
       inkscape:connector-curvature="0"
       id="path6"
       d="m 26.091374,113.80428 -4.888021,3.00027 5.933864,2.78386 c 5.744639,3.67106 6.248155,3.05717 6.99739,3.08644 1.748212,0.0683 8.643559,-4.14877 8.692346,-5.23655 0.03833,-0.85469 -10.58838,-6.8186 -11.344584,-6.69247 -0.249744,-0.01 -2.646903,1.37545 -5.390995,3.05845 z"
       style="fill:#000000;stroke:none;stroke-width:0.08049615" />
    <path
       inkscape:original-d="m 3.9,120.4 c 13.736728,7.52112 27.675211,15.04299 41.511691,22.56561"
       inkscape:path-effect="#path-effect49"
       inkscape:connector-curvature="0"
       id="path47"
       d="m 3.9,120.4 41.511691,22.56561"
       style="fill:none;stroke:#000000;stroke-width:0.75px;stroke-linecap:butt;stroke-linejoin:miter;stroke-opacity:1" />
    <path
       inkscape:original-d="M 45.411691,142.96561 C 59.975211,135.37632 74.53798,127.78779 89.099998,120.2"
       inkscape:path-effect="#path-effect53"
       inkscape:connector-curvature="0"
       id="path51"
       d="M 45.411691,142.96561 89.099998,120.2"
       style="fill:none;stroke:#000000;stroke-width:0.75px;stroke-linecap:butt;stroke-linejoin:miter;stroke-opacity:1" />
    <path
       sodipodi:nodetypes="ccccccc"
       inkscape:connector-curvature="0"
       id="path6-7"
       d="m 44.423913,123.19103 -4.888021,3.00027 5.933864,2.78386 c 5.744639,3.67106 6.248155,3.05717 6.99739,3.08644 1.748212,0.0683 8.64356,-4.14877 8.692346,-5.23655 0.03833,-0.85469 -10.58838,-6.8186 -11.344584,-6.69247 -0.249744,-0.01 -2.646903,1.37545 -5.390995,3.05845 z"
       style="fill:#000000;stroke:none;stroke-width:0.08049615" />
    <path
       inkscape:original-d="m 46.179576,165.91901 c -0.255211,-7.65188 -0.511173,-15.30302 -0.767885,-22.9534"
       inkscape:path-effect="#path-effect86"
       inkscape:connector-curvature="0"
       id="path84"
       d="m 46.179576,165.91901 -0.767885,-22.9534"
       style="fill:none;stroke:#000000;stroke-width:0.75px;stroke-linecap:butt;stroke-linejoin:miter;stroke-opacity:1" />
    <path
       inkscape:original-d="m 3.544014,132.30457 c 13.997815,7.48106 27.994881,14.96287 41.991196,22.44542"
       inkscape:path-effect="#path-effect94"
       inkscape:connector-curvature="0"
       id="path92"
       d="M 3.544014,132.30457 45.53521,154.74999"
       style="fill:none;stroke:#000000;stroke-width:0.75px;stroke-linecap:butt;stroke-linejoin:miter;stroke-opacity:1" />
    <path
       transform="scale(0.74999998)"
       inkscape:connector-curvature="0"
       id="path106"
       d="m 5.6642343,161.15348 c -1.3127981,0.55833 -0.4385993,2.53946 -0.6963853,3.62008 0.1454782,3.93037 0.015136,7.97209 0.6653152,11.81507 11.0790128,6.17161 22.4379468,12.03919 33.6272208,18.08946 6.967402,3.72003 13.92768,7.45425 20.908729,11.1492 1.42142,-0.15143 0.419428,-2.28776 0.649908,-3.31714 -0.139639,-3.84854 -0.258047,-7.69857 -0.451901,-11.54467 -2.478479,-1.93609 -5.620497,-3.1507 -8.35922,-4.80326 C 36.598075,177.84456 21.256457,169.35594 5.7962399,161.15627 l -0.035798,-0.003 z"
       style="opacity:1;fill:#000000;fill-opacity:1;fill-rule:nonzero;stroke:none;stroke-width:0.10823999;stroke-linecap:round;stroke-linejoin:round;stroke-miterlimit:4;stroke-dasharray:none;stroke-opacity:1" />
  </g>
</svg>
