<?xml version="1.0" encoding="UTF-8" standalone="no"?>
<svg
   xmlns:dc="http://purl.org/dc/elements/1.1/"
   xmlns:cc="http://creativecommons.org/ns#"
   xmlns:rdf="http://www.w3.org/1999/02/22-rdf-syntax-ns#"
   xmlns:svg="http://www.w3.org/2000/svg"
   xmlns="http://www.w3.org/2000/svg"
   xmlns:sodipodi="http://sodipodi.sourceforge.net/DTD/sodipodi-0.dtd"
   xmlns:inkscape="http://www.inkscape.org/namespaces/inkscape"
   id="svg22"
   width="738pt"
   height="657pt"
   version="1.0"
   viewBox="0 0 738 657"
   sodipodi:docname="image12_cpu_1.svg"
   inkscape:version="0.92.4 (5da689c313, 2019-01-14)">
  <metadata
     id="metadata99">
    <rdf:RDF>
      <cc:Work
         rdf:about="">
        <dc:format>image/svg+xml</dc:format>
        <dc:type
           rdf:resource="http://purl.org/dc/dcmitype/StillImage" />
        <dc:title></dc:title>
      </cc:Work>
    </rdf:RDF>
  </metadata>
  <defs
     id="defs97" />
  <sodipodi:namedview
     pagecolor="#ffffff"
     bordercolor="#666666"
     borderopacity="1"
     objecttolerance="10"
     gridtolerance="10"
     guidetolerance="10"
     inkscape:pageopacity="0"
     inkscape:pageshadow="2"
     inkscape:window-width="1366"
     inkscape:window-height="705"
     id="namedview95"
     showgrid="false"
     inkscape:showpageshadow="false"
     inkscape:zoom="0.26940639"
     inkscape:cx="219.17797"
     inkscape:cy="438"
     inkscape:window-x="-8"
     inkscape:window-y="-8"
     inkscape:window-maximized="1"
     inkscape:current-layer="svg22" />
  <g
     id="case_delantero"
     inkscape:label="case_delantero">
    <path
       style="stroke-width:0.07936043"
       id="path4"
       d="m 368.22211,32.032151 c -4.73338,0.680629 -10.05358,2.212043 -13.67062,3.828536 -16.53444,7.486914 -40.82061,18.291892 -48.35026,21.609956 -4.65072,2.041886 -14.76375,6.55105 -22.5144,10.039272 -13.13893,5.9555 -28.27119,12.761785 -40.96758,18.462049 -3.02645,1.361258 -12.4754,5.530107 -21.03819,9.358643 -8.48876,3.828536 -19.63491,8.848173 -24.72817,11.145293 -5.09379,2.21204 -12.54888,5.61519 -16.609,7.40184 l -7.38214,3.23298 -0.47769,6.38089 c -1.50763,19.0576 -1.74978,39.22122 -1.4253,102.00921 0.24192,38.1152 0.41123,123.10869 0.45797,188.78935 0.13574,103.03014 0.24212,119.79062 1.21743,121.83251 0.6765,1.61649 1.06931,5.18979 1.10711,11.14529 0.0308,4.84948 0.35442,9.18849 0.65377,9.69896 0.29935,0.51047 7.05359,3.31806 14.99279,6.21073 7.93921,2.89267 15.28512,5.61519 16.32419,6.04058 1.03908,0.42539 10.68521,3.99869 21.51848,7.99739 10.83272,3.91361 29.67976,10.89005 41.92276,15.39922 38.51053,14.2932 61.36364,22.6309 68.26377,25.09818 3.70943,1.27618 11.27797,4.08377 16.99205,6.29581 l 10.314,3.82854 30.0197,-5.53011 c 16.48903,-2.97775 39.48431,-7.23168 51.09298,-9.35864 22.25609,-4.08377 26.54423,-4.93456 57.67379,-10.54975 10.72144,-1.9568 20.11094,-3.82853 20.70045,-4.25392 0.66354,-0.4254 2.05925,-2.12697 3.01133,-3.74346 0.95209,-1.61649 2.93785,-3.65838 4.41352,-4.42409 1.47567,-0.7657 4.05256,-2.97775 5.66873,-4.93455 5.80382,-6.97645 5.56495,2.04188 3.87106,-148.20687 -0.75941,-72.99742 -1.39999,-138.93331 -1.44912,-146.67546 0.0249,-7.74215 0.14387,-35.64792 0.19802,-62.10735 0.0541,-26.45944 0.24072,-67.04192 0.31593,-90.18329 0.0752,-23.14137 -0.22513,-47.133526 -0.6336,-53.174104 l -0.73644,-11.060214 -3.14206,-5.189793 -3.21662,-5.274871 -6.07828,-1.276179 c -3.26203,-0.765707 -17.64317,-3.913614 -31.94975,-6.976443 -14.23254,-3.062828 -32.76457,-7.061521 -41.14146,-8.93325 -8.37688,-1.871728 -19.71861,-4.339007 -25.20414,-5.530107 -5.48553,-1.1911 -16.8278,-3.743457 -25.20469,-5.615185 -17.79176,-3.998693 -24.23531,-4.509164 -34.81032,-2.807593 z m 9.25742,187.257929 c 0.49021,100.56287 1.41369,222.7357 2.02029,271.65588 l 1.15651,88.9071 2.39693,4.42409 c 3.89528,7.23168 9.93301,13.78273 15.20726,16.6754 4.67934,2.46728 4.75336,2.46728 15.63311,2.12696 7.91869,-0.34031 16.86835,-1.53141 33.06181,-4.42408 12.20035,-2.21205 32.01734,-5.70027 43.99615,-7.82723 19.0778,-3.31807 28.61644,-5.01964 38.45063,-6.80629 l 2.58824,-0.42539 -3.38957,2.46728 c -1.84202,1.36126 -4.04824,3.65838 -4.92792,5.01963 -1.68479,2.8076 1.71557,2.04189 -49.67352,11.40053 -7.54207,1.36126 -19.81591,3.65838 -27.35798,5.01964 -7.54153,1.44633 -19.0027,3.48822 -25.50948,4.67932 -6.50678,1.1911 -21.14677,3.91361 -32.5339,5.9555 -11.3866,2.12696 -21.36939,3.82854 -22.25771,3.82854 -1.33248,0 -1.6356,-1.10603 -3.33655,-12.50655 l -1.78199,-12.50655 -0.64716,-171.94379 c -0.87371,-265.95561 -1.08505,-380.896762 -0.51066,-383.704355 0.50253,-2.467278 0.72407,-2.552357 6.41817,-3.488221 3.17991,-0.510472 6.80397,-1.020943 7.98786,-1.106022 l 2.14623,-0.08508 z M 386.4818,39.774301 c 1.35191,3.062828 1.45618,7.827228 2.42624,102.349519 l 0.99922,99.11653 2.99455,5.27488 c 2.7703,4.93455 3.36575,5.44502 8.19098,7.57199 6.90283,2.89267 17.57022,4.08377 55.93004,6.29581 16.88401,0.93587 37.91512,2.12697 46.6535,2.63744 21.54984,1.27618 27.46981,0.93586 29.89595,-1.70157 l 1.91173,-2.04189 0.054,8.50786 c 0.0599,9.44372 -0.73654,12.25131 -4.12556,14.80367 -2.431,1.87173 -12.34894,2.12696 -31.67852,0.76571 -6.51705,-0.4254 -21.84703,-1.44634 -34.06574,-2.12697 -12.21871,-0.68063 -28.73312,-1.70157 -36.65667,-2.12696 -21.25373,-1.27618 -26.21891,-2.12697 -31.05116,-5.35995 -4.98138,-3.40314 -8.71835,-9.01833 -10.91372,-16.6754 l -1.66423,-5.61519 0.10308,-100.39271 c 0.0469,-97.585119 -0.0687,-104.136169 -2.12091,-112.558948 -0.83481,-3.232985 1.61454,-2.212042 3.11722,1.276179 z m 17.32654,0.680628 c 14.00993,2.97775 73.68396,15.994772 85.98965,18.717286 7.56098,1.616493 18.23593,3.998693 23.72091,5.104714 16.38202,3.488221 16.38202,3.488221 18.92431,7.486914 2.09434,3.403143 2.17269,4.083772 2.83996,15.909693 0.75912,14.633514 0.85357,41.178024 0.1214,42.454204 -0.51171,1.02095 1.19307,1.36126 -85.22239,-14.46335 -12.82118,-2.29713 -28.68123,-5.1898 -35.20259,-6.29582 -6.5219,-1.1911 -13.85864,-2.46728 -16.30475,-2.97775 -2.44558,-0.42539 -4.66908,-0.85078 -4.96519,-0.85078 -0.2961,0 -0.75695,-14.293204 -1.0157,-31.734311 -0.25822,-17.356028 -0.72555,-32.670171 -1.02921,-33.861271 l -0.6068,-2.297121 3.63271,0.850785 c 1.92739,0.425393 6.07828,1.276179 9.11769,1.956807 z m -48.56399,92.905801 c 0.0241,50.45159 0.44614,175.26185 0.79856,277.44121 0.59433,140.29457 0.51202,185.64144 -0.0818,185.38621 -0.5198,-0.25524 -8.53196,-2.97775 -17.95331,-6.12566 -9.34734,-3.14791 -25.29707,-8.50786 -35.46086,-11.99608 -10.23727,-3.40314 -18.76707,-6.04058 -19.13558,-5.78534 -0.29449,0.25524 -0.59221,0 -0.59491,-0.42539 -0.003,-0.51047 -0.4501,-0.93587 -1.04231,-0.93587 -0.51819,0 -6.4522,-1.87173 -13.12917,-4.16885 -6.67698,-2.29712 -27.81938,-9.35864 -47.03276,-15.73953 -19.13991,-6.46597 -37.01866,-12.50655 -39.69009,-13.52749 l -4.82361,-1.87173 -0.85137,-180.79196 c -0.4832,-99.45685 -0.76056,-189.81029 -0.53411,-200.78543 l 0.3178,-19.90838 5.53633,-2.46728 c 3.02699,-1.27618 9.52351,-4.08377 14.39685,-6.04058 4.8728,-2.04189 13.87974,-5.87042 19.93318,-8.50786 6.12693,-2.72251 15.05985,-6.55105 19.93265,-8.59293 4.87279,-2.04189 13.87974,-5.87043 19.93318,-8.50786 6.12747,-2.637437 15.06039,-6.465973 19.93318,-8.507859 4.8728,-2.041885 10.18867,-4.253928 11.8124,-5.019635 2.87894,-1.276179 24.06733,-10.294507 45.03419,-19.227757 5.68493,-2.3822 12.62453,-5.35995 15.35595,-6.55105 l 5.01977,-2.212043 -0.25502,-5.189792 c -0.2534,-4.934558 -0.32904,-5.189793 -2.10406,-4.934558 -0.96127,0.170158 -5.61307,2.041886 -10.33727,4.16885 -4.65017,2.126965 -10.62959,4.7644 -13.28807,5.785343 -2.65793,1.106022 -9.96659,4.253929 -16.24103,7.061521 -6.27498,2.722515 -22.59004,9.784036 -36.17314,15.739536 -54.55554,23.651844 -95.37939,41.433264 -96.04293,41.858654 -0.36797,0.34032 -0.66732,-0.17015 -0.67272,-1.02094 -0.008,-1.1911 2.64768,-2.72251 12.02314,-6.80629 6.57001,-2.89267 17.64322,-7.74215 24.50771,-10.89005 19.78297,-8.848174 37.86819,-16.930638 54.25566,-24.247396 8.34178,-3.658378 23.17901,-10.294506 32.84842,-14.718592 9.74397,-4.339007 21.70172,-9.784036 26.57397,-11.911 4.87226,-2.126964 12.69694,-5.615186 17.34711,-7.74215 4.65018,-2.126964 8.78487,-3.828535 9.15446,-3.913614 0.37014,0 0.68176,37.434571 0.72963,91.629622 z m 27.64157,16.33508 -0.17171,101.2435 1.74204,6.21074 c 3.25874,11.911 11.08985,21.09948 19.09282,22.37566 6.52082,1.02094 20.44538,2.21204 41.03234,3.40314 11.99663,0.68063 31.17708,1.87173 42.58149,2.55236 11.40442,0.68063 25.76936,1.27618 31.84008,1.36126 10.36427,0.0851 11.32607,0 13.97915,-1.87173 l 2.87462,-1.95681 -0.3772,10.54975 c -0.25939,5.78534 -0.41991,15.48429 -0.38103,21.60995 l 0.0707,11.14529 -1.79554,-2.97775 c -1.42217,-2.46727 -2.76005,-3.31806 -8.02889,-5.35995 -5.63899,-2.04188 -7.26919,-2.29712 -16.96668,-2.29712 -5.8481,0 -25.83906,-0.59555 -44.35003,-1.27618 -18.51097,-0.68062 -38.64998,-1.27617 -44.79527,-1.44633 l -11.10561,-0.25524 -5.16242,3.06283 c -4.94143,2.89267 -5.23537,3.23299 -7.78743,9.35864 l -2.69848,6.3809 0.53121,118.6846 c 0.65432,138.08252 0.22803,129.23435 7.37346,135.36001 5.50821,4.7644 11.43844,6.04058 21.12512,4.339 16.78568,-2.89267 74.16984,-12.42147 89.25561,-14.88875 15.15979,-2.46727 16.78568,-2.89267 19.87968,-5.27487 1.84202,-1.36125 3.82616,-3.65838 4.4843,-4.93455 2.85032,-5.78535 3.18206,-0.17016 0.41063,6.38089 -3.13562,7.48691 -1.21525,6.80628 -39.07529,13.35733 -10.94406,1.87173 -24.10621,4.16885 -29.20811,5.10472 -33.79074,6.21073 -48.6555,8.50786 -55.91011,8.50786 -7.10655,0 -8.06998,-0.17016 -12.082,-2.46728 -4.45833,-2.63744 -9.15603,-7.99739 -12.45262,-14.20812 l -1.87334,-3.5733 -1.55119,-162.75531 C 381.2247,191.21416 380.70984,40.114615 381.99853,44.879015 c 0.83265,2.892671 0.95145,21.609957 0.88735,104.816795 z M 350.59613,54.152579 c 0.0113,1.78665 -0.57656,2.467279 -3.08644,3.5733 -8.78379,3.998693 -170.76022,72.997411 -170.98284,72.912331 -0.14913,-0.17015 -0.007,-1.10602 0.20804,-2.21204 0.3588,-1.78665 2.42452,-2.89267 14.60543,-8.16754 7.82576,-3.31807 32.77763,-14.20812 55.51519,-24.077237 22.73755,-9.869114 51.15949,-22.205507 63.11886,-27.3953 11.95937,-5.189793 25.46898,-11.060214 29.89816,-13.017021 9.89148,-4.424086 10.70524,-4.509164 10.7236,-1.616493 z m 58.48833,59.469921 c 6.5219,1.1911 15.04468,2.72251 18.89838,3.40314 3.85371,0.68063 11.19098,2.04189 16.30475,2.97775 5.11378,0.93587 18.75033,3.40315 30.38547,5.44503 11.63568,2.12697 29.71869,5.35995 40.24234,7.23168 10.5242,1.95681 19.41711,3.48822 19.78724,3.48822 0.44416,0 0.78401,6.89136 0.85421,17.95158 l 0.11394,17.95158 -2.74223,-0.51047 c -1.55618,-0.25524 -14.8199,-2.29713 -29.49066,-4.42409 -42.90083,-6.21074 -76.91089,-11.23037 -89.65535,-13.1021 -6.52082,-1.02094 -13.78191,-2.04189 -16.07835,-2.29712 l -4.29678,-0.51047 -0.25866,-40.75264 2.07599,0.51047 c 1.11201,0.25524 7.33781,1.44634 13.85971,2.63744 z m -8.99143,41.26311 c 2.66766,0.42539 18.00574,2.72251 34.08464,5.10471 16.07835,2.29712 42.30806,6.12566 58.16488,8.50786 15.93083,2.3822 32.15724,4.67932 36.15846,5.27487 l 7.18706,1.02094 0.0956,15.05891 -2.37209,-0.51047 c -1.3341,-0.25524 -16.74513,-2.3822 -34.30401,-4.67932 -17.48486,-2.29713 -36.0812,-4.7644 -41.19335,-5.44503 -24.59843,-3.40315 -55.56801,-7.572 -59.56869,-8.08247 l -4.44483,-0.51047 -0.275,-8.3377 c -0.18801,-6.29581 -0.0524,-8.25262 0.68789,-8.25262 0.51818,0 3.11181,0.42539 5.77947,0.85079 z m 23.2394,22.54582 c 15.63257,2.04188 38.37871,5.18979 50.60336,6.80628 12.22465,1.6165 24.894,3.31807 28.15441,3.82854 3.25987,0.42539 11.6319,1.53141 18.52231,2.46728 6.96498,1.02094 13.18808,1.78665 13.92834,1.78665 1.18443,0 1.26871,1.61649 0.99897,29.09687 -0.19405,16.07985 -0.62854,29.26703 -0.92356,29.43718 -0.36906,0.17016 -1.32114,1.78665 -2.27161,3.65838 -1.24225,2.55236 -2.12517,3.40314 -4.19467,3.91362 -1.47892,0.25523 -10.80735,0.0851 -20.80472,-0.51048 -9.99683,-0.51047 -28.13983,-1.53141 -40.35854,-2.21204 -49.02288,-2.72251 -57.83799,-3.65838 -64.14753,-6.38089 -3.48897,-1.53142 -4.45726,-2.46728 -6.48081,-6.38089 l -2.39747,-4.50917 -0.20574,-32.41493 c -0.13014,-20.50394 0.0904,-32.41494 0.53453,-32.41494 0.37013,0 13.48364,1.70157 29.04273,3.82854 z m 41.4689,142.16629 c 5.92374,0.25523 20.80633,0.7657 33.02342,1.1911 27.91343,0.85078 29.32263,1.27618 33.88631,8.84817 l 2.99347,5.10471 2.12372,217.9713 -3.14967,5.27487 c -4.39353,7.57199 -6.45656,9.10341 -14.00025,10.20943 -6.2123,0.93586 -64.92732,10.7199 -90.21688,15.05891 -17.96848,3.1479 -23.59936,2.3822 -28.30084,-3.5733 -2.68655,-3.40315 -2.87187,-9.27357 -3.63163,-128.97912 l -0.74519,-117.40842 2.18624,-5.44503 c 1.9674,-4.93456 2.62878,-5.70027 6.09615,-7.57199 l 3.83642,-2.04189 22.58082,0.42539 c 12.43809,0.25524 27.39416,0.68063 33.31791,0.93587 z M 212.72845,550.92635 c 17.58157,5.87042 35.75696,11.99608 40.4309,13.61257 4.67339,1.53141 12.68555,4.25393 17.80364,5.87042 5.11864,1.70157 11.4244,3.82854 14.0953,4.7644 16.76619,5.70027 22.10798,7.57199 62.01907,20.92933 l 9.79257,3.31806 1.61882,10.12435 c 0.84993,5.61519 1.47184,10.29451 1.32487,10.46467 -0.14697,0.17016 -5.04299,-1.44634 -10.90459,-3.5733 -24.18937,-8.93325 -31.60931,-11.65577 -49.63989,-18.29189 -10.38803,-3.82854 -28.12142,-10.29451 -39.3259,-14.46336 -11.20448,-4.16885 -26.26697,-9.69896 -33.38973,-12.25132 -40.21637,-14.80367 -48.23123,-17.95157 -48.23771,-18.97252 -0.0103,-1.61649 1.10122,-1.44633 8.5217,1.36126 3.70997,1.36126 15.5072,5.61519 26.33938,9.44372 10.83219,3.82854 24.85507,8.84817 31.16138,11.06022 6.30684,2.29712 19.66186,7.06152 29.67813,10.63482 10.01627,3.5733 23.3713,8.3377 29.67814,10.63482 51.56567,18.46205 51.19499,18.37697 52.00011,16.93063 0.36581,-0.68062 0.57223,-3.1479 0.48362,-5.44502 -0.25285,-4.84948 1.15959,-3.91362 -14.34653,-9.35865 -16.91586,-5.9555 -116.62901,-40.83771 -139.10821,-48.57986 -12.83522,-4.50916 -23.66902,-8.59294 -24.11588,-9.01833 -0.52197,-0.59555 -0.2264,-0.68063 0.73756,-0.42539 0.81646,0.34031 15.87572,5.35995 33.38325,11.23037 z m -18.51799,-1.78665 c 46.81393,16.25001 79.90323,27.82069 89.40023,31.22383 3.85803,1.36126 21.07054,7.40184 38.20848,13.35734 l 31.16029,10.89006 0.23936,2.72251 c 0.15777,1.53142 0.0173,2.72252 -0.27883,2.72252 -0.2961,0 -5.78595,-1.87173 -12.09279,-4.16885 -6.38087,-2.29713 -16.39768,-5.9555 -22.33331,-8.08247 -5.93508,-2.04188 -17.88091,-6.38089 -26.63549,-9.44372 -8.75511,-3.14791 -16.24854,-5.78534 -16.69324,-5.87042 -0.44524,-0.17016 -6.15825,-2.21204 -12.68771,-4.59424 -9.86822,-3.5733 -78.64693,-28.16101 -82.87563,-29.60735 -0.81591,-0.25523 -1.34058,-1.27617 -1.34867,-2.55235 -0.0103,-1.6165 0.28314,-2.04189 1.32167,-1.70157 0.66786,0.25523 7.27081,2.55235 14.61564,5.10471 z"
       inkscape:connector-curvature="0" />
    <path
       style="stroke-width:0.07936043"
       id="path14"
       d="m 348.87997,63.681379 c -0.73163,1.361257 -1.01433,26.79975 -0.97569,91.204231 0.002,35.3076 -0.1263,96.73433 -0.24372,136.5511 -0.7131,225.8836 -0.62964,297.3496 0.33271,297.3496 1.62858,0 1.48696,12.67671 1.89301,-179.94117 0.0699,-47.30369 0.25545,-99.71209 0.37061,-116.55764 0.11516,-16.84556 0.17912,-65.08511 0.13391,-107.199 -0.0452,-42.11389 0.0295,-76.99611 0.17377,-77.59166 0.72406,-2.55235 0.16444,-44.070697 -0.50342,-44.325932 -0.44524,-0.170158 -0.9618,0.08508 -1.18118,0.510471 z"
       inkscape:connector-curvature="0" />
    <path
       style="stroke-width:0.07936043"
       id="path16"
       d="m 222.41113,210.35683 c -1.18119,0.51048 -3.39334,1.87173 -4.79229,3.06283 -1.3984,1.27618 -3.1691,2.21205 -3.98286,2.29712 -1.99871,0 -5.14676,5.53011 -7.02825,12.3364 -0.86942,2.97775 -1.95822,6.38089 -2.54233,7.65707 -2.91841,6.7212 -2.97304,21.4398 -0.13956,36.32855 1.61018,8.76309 6.49804,20.75917 9.17542,22.71598 2.23052,1.53141 8.60653,3.06282 13.12215,3.06282 3.25717,0 3.99474,-0.42539 7.52479,-4.08377 2.20676,-2.21204 4.04447,-4.25393 4.19036,-4.59424 0.14643,-0.25524 1.17039,-2.21204 2.34185,-4.25393 4.75881,-8.3377 8.86714,-37.51965 7.08137,-50.62175 -1.55397,-11.57068 -6.04687,-19.65315 -12.87999,-23.22645 -3.49059,-1.78665 -8.52656,-2.12696 -12.07066,-0.68063 z"
       inkscape:connector-curvature="0" />
    <path
       id="path18"
       d="m 197.06789,392.85037 c -0.21938,0.42539 -0.4529,21.95027 -0.58431,47.89923 -0.19522,39.22122 -0.0688,47.47384 0.82436,48.23955 0.81915,0.76571 5.26885,2.04189 18.76275,5.35995 1.63129,0.42539 11.12235,2.89267 21.13268,5.53011 10.00979,2.55235 18.6844,4.67932 19.42467,4.67932 1.62858,0 1.75666,-3.14791 1.6115,-49.34557 -0.061,-21.26964 0.0996,-42.62437 0.36546,-47.38877 0.25669,-6.21073 0.0903,-9.1034 -0.50734,-9.95419 -0.59761,-0.85078 -3.26581,-1.36126 -8.44983,-1.70157 -4.14711,-0.25524 -16.3669,-1.10602 -27.1791,-1.78665 -10.8122,-0.68063 -20.88468,-1.44634 -22.36683,-1.70157 -1.48216,-0.25524 -2.88812,-0.17016 -3.03401,0.17016 z"
       style="fill:#999999;stroke-width:0.07936043"
       inkscape:connector-curvature="0" />
    <path
       id="path267"
       d="m 227.28616,207.9401 c -10.32121,1.86232 -19.86465,9.11044 -21.72265,17.97769 -5.00888,12.28848 -7.14184,25.2783 -4.62282,38.16064 1.93337,10.78042 3.24378,22.8636 11.57927,31.70191 6.78611,4.07786 18.9207,5.30505 23.35464,-2.0059 14.982,-17.89294 12.18836,-40.98389 12.3828,-61.63945 -0.15778,-9.66159 -7.70306,-23.57664 -20.97065,-24.19461 z"
       style="fill:#999999;stroke-width:0.75661564"
       inkscape:connector-curvature="0" />
    <path
       style="stroke-width:0.75661564"
       id="path269"
       d="M 347.05078,59.657773 C 289.80507,83.735955 232.7538,108.13862 175.7258,132.56058 c -3.16824,6.52013 -0.43331,14.66944 -1.3468,21.80815 0.29511,120.50803 -0.74432,241.02983 1.16758,361.53097 1.11472,7.02642 -1.50635,15.28327 2.03399,21.53809 58.63922,20.26976 117.6374,39.75001 176.49348,59.58299 7.20134,-1.71896 1.7656,-11.59542 3.50578,-16.62394 0.85936,-154.45171 0.59419,-308.91032 -1.90829,-463.34826 -1.17696,-3.80001 2.00948,-9.85724 -2.86046,-12.08525 -5.83874,4.65974 -1.09826,-6.073553 -2.61607,-8.953358 -0.418,-11.85928 1.67427,-23.981731 -0.0459,-35.716314 -1.04052,-0.235443 -1.85185,-1.433944 -3.09786,-0.638516 z M 227.44405,210.0999 c 12.66199,0.61465 19.23313,13.27297 18.40883,22.41786 -0.53271,20.04173 3.39011,42.14474 -11.08901,59.74558 -3.84721,6.58964 -15.98994,6.14445 -21.44262,1.34686 -10.60623,-13.67944 -10.86964,-31.1356 -10.69847,-46.68205 1.34988,-12.91403 3.80982,-29.28788 19.45251,-35.79967 1.69073,-0.61538 3.51707,-1.00219 5.36867,-1.02858 z m 0.5646,186.2115 c 9.17783,0.92551 19.29629,0.80467 27.8318,2.88049 1.92996,29.57517 0.64184,59.42867 0.57698,89.05138 -0.37494,4.82129 0.35852,9.798 -1.27035,14.49927 -18.82514,-4.50782 -37.44587,-9.58236 -56.13058,-14.47033 0.42785,-31.27477 -0.8769,-62.65908 0.74538,-93.85324 l 28.24727,1.89298 z"
       inkscape:connector-curvature="0" />
    <path
       style="stroke-width:0.75661564"
       id="path271"
       d="m 414.48226,317.01874 c -12.31133,-1.2046 -19.39434,9.80075 -18.90906,18.67282 -1.21435,60.59435 0.34547,121.21074 0.77509,181.81611 0.9816,19.94183 -0.88887,40.10963 2.49118,59.90196 2.11128,9.95163 17.17072,10.11146 26.41752,7.84488 33.89024,-5.65497 68.07214,-10.64607 101.59177,-17.52093 7.04753,-5.27991 13.37994,-12.84032 11.44549,-21.09924 -0.72574,-70.71889 -0.75299,-141.50668 -1.91875,-212.18423 -3.1316,-6.71468 -8.84046,-14.18167 -18.73789,-13.82205 -34.25419,-2.6167 -68.77678,-3.05666 -103.15396,-3.60849 z"
       inkscape:connector-curvature="0" />
    <path
       style="stroke-width:0.75661564"
       id="path277"
       d="m 395.04637,153.03909 c -6.25903,2.44123 -3.26056,10.02534 -2.69917,14.54612 0.088,7.61821 11.91165,4.83031 17.86124,6.78474 41.38457,5.33185 82.6636,11.73596 124.15203,16.25329 6.1393,-1.85178 3.28299,-8.86863 3.4594,-13.04976 -0.56449,-6.65329 -11.7629,-4.25057 -17.05106,-6.25784 -41.87233,-6.20756 -83.70145,-12.8975 -125.72252,-18.27669 z"
       inkscape:connector-curvature="0" />
    <path
       id="path279"
       d="m 197.92876,394.28938 c -1.00927,30.91583 0.71647,62.21954 0.75776,93.28142 16.19519,7.14423 36.21689,11.17517 54.71713,14.46207 7.97295,-4.88653 2.0227,-17.1427 4.45737,-24.52668 -0.71901,-25.89007 3.06122,-52.45667 -2.53572,-77.95957 -10.67686,-5.76822 -26.21892,-2.80188 -38.54106,-4.9466 -6.18375,0.17808 -12.96695,-1.90876 -18.85505,-0.31756 z"
       style="fill:#333333;stroke-width:0.75661564"
       inkscape:connector-curvature="0" />
    <path
       id="path281"
       d="m 227.20307,209.54531 c -22.75137,2.93196 -24.23295,26.7354 -24.62184,41.75963 0.81974,15.182 -2.05335,37.37802 17.12336,45.70239 16.67963,1.84441 23.16519,-16.01217 25.48104,-26.5921 2.6425,-19.25152 8.40504,-43.24014 -9.757,-58.54201 -2.28968,-1.56285 -5.24461,-2.47492 -8.22639,-2.32825 z"
       style="fill:#333333;stroke-width:0.75661564"
       inkscape:connector-curvature="0" />
  </g>
  <g
     id="usb_delantero"
     inkscape:label="usb_delantero">
    <path
       style="stroke-width:0.07936043"
       id="path8"
       d="m 406.65311,68.786093 c -0.80511,1.446336 -1.1261,9.188486 -0.52687,10.294507 0.44848,0.680629 3.6381,1.701572 7.56583,2.3822 8.52278,1.531414 9.26035,1.106022 8.40448,-5.445028 -0.2372,-2.3822 -0.69648,-4.7644 -0.99583,-5.274872 -0.97369,-1.78665 -13.64303,-3.488221 -14.44761,-1.956807 z"
       inkscape:connector-curvature="0" />
    <path
       style="stroke-width:0.07936043"
       id="path10"
       d="m 426.67162,73.72065 c -1.47028,1.616493 -1.50218,8.252622 -0.087,9.613879 1.26601,1.1911 12.38242,3.147907 14.00615,2.3822 0.95964,-0.425393 1.24819,-1.616493 1.22659,-5.019636 -0.0157,-2.467278 -0.32743,-4.934557 -0.62731,-5.530107 -0.29935,-0.510471 -2.67252,-1.1911 -5.33964,-1.531414 -2.66657,-0.255236 -5.55631,-0.680629 -6.44625,-0.935865 -0.8894,-0.170157 -2.14515,0.255236 -2.7325,1.020943 z"
       inkscape:connector-curvature="0" />
  </g>
  <g
     transform="matrix(0.76534662,0.2426611,-0.04527964,1.1779128,329.17902,-215.46141)"
     id="btn_encendido">
    <ellipse
       style="fill:#00ffff"
       ry="23.716"
       rx="23.306999"
       cy="284.5"
       cx="90.050003"
       transform="matrix(0.89516,-0.44575,0.43897,0.8985,0,0)"
       id="path22" />
    <ellipse
       ry="18.499001"
       rx="17.690001"
       cy="215.46001"
       cx="205.28"
       id="path18-6" />
    <path
       inkscape:connector-curvature="0"
       style="fill:#00ffff"
       d="m 204.77,213.29 c -2.9541,-2.0561 -0.84668,-3.9199 -5.3037,-8.5253 -2.2627,1.778 -4.9326,5.4241 -4.9329,10.241 -3.3e-4,6.5872 4.6985,11.927 10.635,11.927 5.9361,-4.3e-4 10.748,-5.3402 10.748,-11.927 -3.2e-4,-5.2799 -2.0542,-8.7539 -4.6659,-10.002 -4.2505,4.366 -5.3032,8.286 -6.4802,8.2859 z"
       id="path18-4" />
    <path
       inkscape:connector-curvature="0"
       d="m 205.29,205.27 a 8.7571,9.9188 0 0 0 -8.7568,9.9199 8.7571,9.9188 0 0 0 8.7568,9.9185 8.7571,9.9188 0 0 0 8.7568,-9.9185 8.7571,9.9188 0 0 0 -8.7568,-9.9199 z"
       id="path18-47" />
    <rect
       style="fill:#00ffff"
       ry="0"
       height="11.7"
       width="2.1101"
       y="201.02"
       x="204.13"
       id="rect20" />
  </g>
</svg>
