<?xml version="1.0" encoding="UTF-8" standalone="no"?>
<svg
   xmlns:dc="http://purl.org/dc/elements/1.1/"
   xmlns:cc="http://creativecommons.org/ns#"
   xmlns:rdf="http://www.w3.org/1999/02/22-rdf-syntax-ns#"
   xmlns:svg="http://www.w3.org/2000/svg"
   xmlns="http://www.w3.org/2000/svg"
   xmlns:sodipodi="http://sodipodi.sourceforge.net/DTD/sodipodi-0.dtd"
   xmlns:inkscape="http://www.inkscape.org/namespaces/inkscape"
   version="1.0"
   width="738pt"
   height="657pt"
   viewBox="0 0 738 657"
   preserveAspectRatio="xMidYMid meet"
   id="svg10"
   sodipodi:docname="image42_mouse_izquierdo.svg"
   inkscape:version="0.92.4 (5da689c313, 2019-01-14)">
  <defs
     id="defs14" />
  <sodipodi:namedview
     pagecolor="#ffffff"
     bordercolor="#666666"
     borderopacity="1"
     objecttolerance="10"
     gridtolerance="10"
     guidetolerance="10"
     inkscape:pageopacity="0"
     inkscape:pageshadow="2"
     inkscape:window-width="1366"
     inkscape:window-height="705"
     id="namedview12"
     showgrid="false"
     inkscape:zoom="0.32417582"
     inkscape:cx="-187.64407"
     inkscape:cy="364"
     inkscape:window-x="-8"
     inkscape:window-y="-8"
     inkscape:window-maximized="1"
     inkscape:current-layer="svg10" />
  <metadata
     id="metadata2">
Created by potrace 1.15, written by Peter Selinger 2001-2017
<rdf:RDF>
  <cc:Work
     rdf:about="">
    <dc:format>image/svg+xml</dc:format>
    <dc:type
       rdf:resource="http://purl.org/dc/dcmitype/StillImage" />
    <dc:title></dc:title>
  </cc:Work>
</rdf:RDF>
</metadata>
  <g
     style="fill:#000000;stroke:none"
     inkscape:label="impresora"
     id="impresora"
     transform="matrix(0.12785328,0,0,-0.1265079,-15.881521,668.53462)">
    <path
       d="m 2704,5279 c -100,-12 -178,-43 -229,-93 -38,-37 -47,-56 -93,-196 -94,-285 -210,-683 -251,-865 -23,-99 -49,-210 -57,-247 l -16,-68 -37,5 c -168,24 -944,79 -995,71 -27,-5 -56,-22 -101,-63 -35,-31 -61,-61 -58,-67 3,-5 2,-6 -4,-3 -13,8 -76,-57 -66,-68 5,-4 3,-5 -3,-2 -6,4 -25,-8 -42,-26 -17,-17 -51,-52 -76,-76 -25,-25 -42,-49 -39,-54 3,-6 1,-7 -4,-4 -15,10 -106,-91 -99,-109 3,-9 1,-12 -4,-9 -15,9 -30,-40 -26,-86 4,-50 31,-88 77,-111 39,-20 754,-130 1477,-228 152,-20 236,-36 264,-50 21.7289,-10.3706 116.866,-97.6336 152.0433,-96.0757 78.2883,3.467 127.8716,9.2431 34.5205,9.8287 -13,8 -161.5638,86.247 -146.5638,86.247 16,0 346,-47 378,-54 8,-2 -4.554,-10.4187 -30,-12 0,0 -275.7893,-13.4831 -235.9567,-30.0757 119.5845,-9.4355 110.0495,-4.5382 212.5524,6.8736 50.1487,10.0411 67.5789,15.8264 71.4043,18.2021 6,8 12,11 12,7 0,-5 6,-4 13,2 12,11 309,-26 1212,-148 443,-60 722,-91 807,-91 207,1 418,96 510,228 18,26 89,150 159,275 l 126,226 -41,11 c -59,16 -545,94 -794,127 l -214,29 7,90 c 23,311 42,465 96,783 97,572 92,531 79,582 -6,25 -23,58 -38,73 -25,27 -120,82 -127,75 -2,-2 21,-16 51,-32 84,-44 102,-97 78,-223 -30,-157 -124,-718 -124,-743 0,-4 -7,-7 -15,-7 -18,0 -18,2 -4,26 8,12 9,24 2,35 -7,12 -16,-26 -32,-139 -13,-86 -20,-163 -17,-171 3,-8 2,-13 -3,-10 -4,3 -11,-18 -14,-47 -16,-155 -40,-276 -56,-280 -9,-2 0,-2 19,0 28,3 32,1 20,-7 -12,-9 -10,-10 12,-6 34,8 58,-2 51,-20 -3,-8 0,-14 6,-14 6,0 11,-4 11,-10 0,-5 -7,-10 -15,-10 -8,0 -15,3 -15,8 0,4 -15,8 -33,9 -17,0 -115,15 -217,32 -171,28 -309,48 -815,116 -104,14 -251,34 -325,45 -74,10 -166,22 -205,26 -49,5 -64,10 -50,15 11,5 -4,6 -34,2 -36,-4 -52,-3 -48,4 4,7 -9,10 -36,10 -23,0 -94,7 -157,16 -63,9 -182,24 -265,32 -250,25 -247,24 -240,45 3,11 26,107 50,214 34,153 116,470 162,629 6,21 4,21 333,2 447,-26 1483,-103 1878,-141 41,-4 62,-2 62,5 0,6 -10,11 -22,12 -22,1 -22,1 2,9 14,4 21,9 15,9 -5,1 -2,6 8,12 14,8 17,18 12,40 -4,16 -2,29 3,29 13,0 25,149 17,205 -6,38 -11,45 -30,45 -13,0 -25,-5 -27,-12 -3,-9 -6,-9 -12,0 -4,7 -2,12 3,12 16,0 13,30 -3,36 -8,3 -24,0 -36,-6 -27,-14 -73,11 -64,35 4,10 0,15 -14,15 -12,0 -25,6 -29,13 -11,18 -69,41 -82,32 -6,-3 -11,1 -11,10 0,8 -10,20 -22,24 -21,8 -21,10 -5,16 10,4 29,3 43,-3 14,-7 24,-8 24,-2 0,14 -46,23 -78,17 -31,-6 -59,22 -41,40 7,7 1,13 -17,17 -22,6 -25,9 -13,17 7,5 21,9 29,9 13,0 13,-2 0,-11 -12,-9 -12,-10 3,-5 10,3 22,6 25,6 4,0 0,5 -8,10 -16,11 20,9 149,-9 41,-6 77,-9 79,-6 3,3 1,5 -4,5 -5,0 -36,5 -69,10 -117,20 -269,39 -277,34 -4,-3 -72,2 -150,10 -495,52 -1119,84 -1274,65 z"
       id="path4-8"
       inkscape:connector-curvature="0"
       sodipodi:nodetypes="ccccccccccccccccccsccccscscscccscccccccccccccsccsscccscccccccsssscccccccsssccccccscccccscsccssccsccscccscsccsccscccscccc" />
    <path
       d="m 5892,3184 c -3,-47 -195,-523 -277,-684 -33,-65 -76,-113 -136,-151 -26,-18 -46,-36 -43,-40 3,-5 -2,-6 -10,-3 -8,3 -28,-2 -45,-10 -52,-27 -190,-55 -326,-66 -290,-23 -410,-68 -489,-183 -20,-29 -43,-73 -52,-99 -13,-41 -19,-47 -37,-43 -12,2 -65,9 -117,15 -242,29 -970,137 -1405,209 -264,44 -581,96 -705,115 -1067,168 -1528,248 -1543,270 -4,6 -5,19 -3,29 2,9 0,15 -5,11 -8,-5 -13,13 -12,44 1,7 -2,11 -5,8 -9,-10 -34,33 -26,46 4,6 3,8 -3,5 -6,-4 -19,6 -29,21 -20,31 -70,80 -120,118 -19,15 -31,31 -27,37 3,5 1,7 -5,3 -6,-3 -37,9 -69,27 -32,19 -90,53 -129,75 -39,23 -80.88771,58 -97.88771,77 l -14.17402,35.1245 -9.94031,36.6437 -4.00481,54.241 10.83393,52.1878 634.33474,630.833 c 0,0 228.61848,48.1408 235.21618,52.663 43.854,30.0586 -233.28785,-18.4456 -253.45983,-35.8989 C 683.68159,3761.8541 472.2496,3563.8338 317.26814,3410.4944 226.75305,3320.9383 155.52116,3268.7619 125.45466,3203.0496 118.22825,3159.3317 145,3003 145,3003 c 18,-146 81,-505 159,-904 19,-97 44,-195 55,-218 29,-56 99,-100 244,-152 l 118,-43 -57,-57 C 633,1598 541,1523 459,1464 303,1350 294,1338 326,1292 c 26,-37 184,-108 315,-141 39,-10 69,-22 67,-27 -1,-5 -85,-80 -187,-167 C 418,870 334,792 332,784 c -2,-8 6,-29 17,-48 18,-29 29,-35 83,-46 35,-6 72,-16 83,-20 11,-5 90,-25 175,-45 98,-23 173,-47 205,-65 29,-17 191,-70 393,-130 l 342,-101 333,-39 c 238,-27 393,-51 547,-84 118,-25 305,-59 415,-75 110,-17 217,-33 237,-37 36,-6 39,-5 53,29 14,33 215,326 268,389 l 22,27 80,-14 c 181,-30 479,-44 545,-26 19,5 45,42 110,157 47,82 107,185 133,227 42,68 52,77 78,77 18,0 29,-5 29,-14 0,-44 618,-20 767,30 92,31 130,63 172,144 45,86 176,382 228,515 100,257 120,327 152,525 31.8535,203.5855 91.3986,767.7546 97.4584,1020.9232 C 5866.3688,3172.3704 5484.0898,3326.2917 5597,3358 c 199.4364,-100.0297 296,-148 295,-174 z M 1486,2231 c -3,-5 35,-9 88,-9 51,0 102,-5 112,-10 10,-6 82,-17 159,-26 122,-14 242,-30 310,-41 11,-2 35,-4 53,-4 23,-1 31,-5 26,-13 -5,-8 -2,-9 11,-4 19,7 89,-6 160,-30 22,-7 60,-15 85,-18 25,-3 68,-10 95,-17 28,-6 60,-11 73,-11 12,0 22,-3 22,-7 0,-7 27,-10 169,-15 57,-3 107,-8 110,-13 3,-4 35,-8 71,-8 36,0 90,-6 120,-12 73,-16 235,-41 340,-53 47,-6 104,-17 127,-26 24,-8 47,-13 53,-9 13,8 161,-14 174,-26 6,-5 36,-9 68,-9 32,0 58,-4 58,-8 0,-17 -158,-479 -199,-582 -66,-166 -154,-323 -263,-469 -149,-200 -121,-181 -236,-161 -53,10 -182,34 -287,53 -104,20 -282,52 -395,72 -350,61 -616,114 -850,170 -124,29 -295,68 -380,85 -85,18 -231,52 -325,76 -93,24 -213,54 -265,65 -52,12 -101,24 -108,28 -7,4 59,61 178,150 203,153 277,222 342,317 40,58 149,272 241,472 26,56 52,102 58,102 5,0 8,-4 5,-9 z"
       id="path6-0"
       inkscape:connector-curvature="0"
       sodipodi:nodetypes="ccccscccccccccccccccccccccccccccsssccccccscccccsccccccccccccccccccsscccccccssccccsccscssccscccccsscccccccccscccss" />
  </g>
  <g
     style="fill:#000000;stroke:none"
     inkscape:transform-center-y="3.6720608e-06"
     inkscape:transform-center-x="8.0683388"
     id="btn_encendido-8"
     transform="matrix(0.70790761,0,0,0.67554659,282.24678,284.39614)"
     inkscape:label="btn_encendido">
    <ellipse
       transform="matrix(0.89515715,-0.4457507,0.43896522,0.89850406,0,0)"
       ry="23.715717"
       rx="23.307459"
       cy="284.50171"
       cx="90.050217"
       id="path22-5"
       style="opacity:1;fill:#00ffff;fill-opacity:1;fill-rule:nonzero;stroke:none;stroke-width:0.29054588;stroke-linecap:round;stroke-linejoin:round;stroke-miterlimit:4;stroke-dasharray:none;stroke-opacity:1" />
    <ellipse
       id="path18-6-4"
       style="opacity:1;fill:#000000;fill-opacity:1;fill-rule:nonzero;stroke:none;stroke-width:0.62969494;stroke-linecap:round;stroke-linejoin:round;stroke-miterlimit:4;stroke-dasharray:none;stroke-opacity:1"
       ry="18.499407"
       rx="17.689558"
       cy="215.45551"
       cx="205.28265" />
    <path
       sodipodi:nodetypes="ccccccc"
       inkscape:connector-curvature="0"
       id="path18-4-3"
       d="m 204.7748,213.28629 c -2.95414,-2.05609 -0.84668,-3.91988 -5.3037,-8.52528 -2.2627,1.77796 -4.93258,5.42413 -4.93287,10.24118 -3.3e-4,6.58719 4.69851,11.92723 10.63514,11.92676 5.93606,-4.3e-4 10.74788,-5.3402 10.74756,-11.92676 -3.2e-4,-5.27994 -2.05415,-8.75392 -4.6659,-10.00183 -4.25054,4.36605 -5.30317,8.28602 -6.48023,8.28593 z"
       style="opacity:1;fill:#00ffff;fill-opacity:1;fill-rule:nonzero;stroke:none;stroke-width:0.33703911;stroke-linecap:round;stroke-linejoin:round;stroke-miterlimit:4;stroke-dasharray:none;stroke-opacity:1" />
    <path
       inkscape:connector-curvature="0"
       id="path18-47-4"
       d="m 205.29487,205.26818 a 8.7570956,9.9187526 0 0 0 -8.75683,9.91992 8.7570956,9.9187526 0 0 0 8.75683,9.91846 8.7570956,9.9187526 0 0 0 8.75684,-9.91846 8.7570956,9.9187526 0 0 0 -8.75684,-9.91992 z"
       style="opacity:1;fill:#000000;fill-opacity:1;fill-rule:nonzero;stroke:none;stroke-width:0.29362136;stroke-linecap:round;stroke-linejoin:round;stroke-miterlimit:4;stroke-dasharray:none;stroke-opacity:1" />
    <rect
       ry="0"
       y="201.02234"
       x="204.13062"
       height="11.700302"
       width="2.1100907"
       id="rect20-2"
       style="opacity:1;fill:#00ffff;fill-opacity:1;fill-rule:nonzero;stroke:none;stroke-width:0.15340993;stroke-linecap:round;stroke-linejoin:round;stroke-miterlimit:4;stroke-dasharray:none;stroke-opacity:1" />
  </g>
</svg>
