<?xml version="1.0" standalone="no"?>
<!DOCTYPE svg PUBLIC "-//W3C//DTD SVG 20010904//EN"
 "http://www.w3.org/TR/2001/REC-SVG-20010904/DTD/svg10.dtd">
<svg version="1.0" xmlns="http://www.w3.org/2000/svg"
 width="1202.000000pt" height="445.000000pt" viewBox="0 0 1202.000000 445.000000"
 preserveAspectRatio="xMidYMid meet">
<metadata>
Created by potrace 1.15, written by Peter Selinger 2001-2017
</metadata>
<g transform="translate(0.000000,445.000000) scale(0.100000,-0.100000)"
fill="#000000" stroke="none">
<path d="M200 4428 c-70 -16 -124 -59 -157 -125 -26 -55 -28 -67 -32 -211 -2
-84 1 -179 5 -210 l9 -57 6 65 c5 58 6 51 9 -55 3 -83 6 -38 9 150 7 299 8
304 76 363 19 18 48 35 63 39 15 5 2639 8 5832 8 5443 0 5807 -1 5836 -17 44
-24 91 -81 103 -125 6 -21 12 -150 13 -288 2 -201 3 -227 8 -130 5 92 7 105 9
55 3 -65 3 -65 13 -25 5 22 8 117 6 210 -3 163 -4 172 -31 228 -34 68 -87 109
-165 126 -70 15 -11544 14 -11612 -1z"/>
<path d="M1270 3989 c-13 -5 -28 -15 -32 -22 -10 -15 -10 -518 0 -533 22 -33
45 -34 1012 -34 l961 0 25 25 25 25 -3 255 c-3 228 -5 256 -21 272 -17 17 -71
18 -980 20 -625 1 -971 -1 -987 -8z m416 -61 c3 -4 5 -78 5 -166 -2 -148 0
-165 23 -226 14 -36 23 -66 20 -66 -2 0 -16 7 -29 16 -36 23 -361 21 -387 -3
-27 -25 -30 -12 -8 45 11 29 20 63 20 77 0 13 5 27 10 30 6 4 9 57 8 133 l-2
127 -6 -125 -6 -125 -1 140 0 140 31 7 c37 8 313 4 322 -4z m459 3 c34 -7 30
22 38 -261 2 -87 8 -124 22 -152 21 -42 14 -60 -13 -35 -28 25 -356 25 -384 0
-29 -26 -32 -9 -9 52 18 48 21 78 21 225 l0 169 38 4 c61 6 255 5 287 -2z
m505 2 c14 -4 16 -29 15 -171 -2 -151 0 -173 21 -229 13 -35 21 -63 18 -63 -2
0 -15 7 -27 14 -35 23 -347 25 -381 2 -14 -9 -28 -16 -31 -16 -2 0 4 23 15 50
11 28 20 65 20 83 0 24 3 28 10 17 8 -13 10 -12 10 3 0 9 -4 17 -10 17 -6 0
-9 33 -8 83 l1 82 7 -60 7 -60 1 73 c1 46 -2 72 -9 72 -7 0 -10 18 -7 48 3 45
4 47 38 53 38 7 285 8 310 2z m445 2 l55 -7 0 -173 c0 -153 2 -178 21 -224 24
-56 20 -74 -10 -47 -17 16 -41 18 -192 16 -145 -1 -176 -3 -191 -17 -29 -26
-32 -8 -9 46 19 44 21 68 21 225 0 119 4 176 11 178 22 7 240 9 294 3z"/>
<path d="M3500 3993 c-50 -19 -50 -19 -50 -292 0 -141 4 -261 8 -267 22 -33
45 -34 1010 -34 955 0 959 0 986 21 l26 20 0 254 c0 234 -1 255 -19 276 l-19
24 -964 2 c-529 1 -970 -1 -978 -4z m406 -71 c12 -12 15 -46 13 -181 -1 -147
1 -172 20 -218 23 -58 22 -60 -13 -38 -36 24 -346 24 -382 0 -14 -9 -27 -15
-29 -13 -2 2 8 30 21 62 22 53 24 74 23 195 -1 191 0 194 36 203 17 3 90 6
163 6 104 -1 137 -4 148 -16z m481 11 c10 -4 13 -43 13 -182 0 -154 3 -182 20
-220 26 -57 25 -67 -6 -46 -22 14 -51 17 -191 15 -125 0 -173 -4 -194 -16 -35
-17 -36 -8 -9 48 11 23 20 55 20 70 0 21 4 27 13 22 9 -6 9 -4 -1 8 -9 11 -12
55 -11 156 1 122 3 141 17 145 25 6 313 6 329 0z m463 -1 l35 -8 1 -174 c2
-152 4 -182 23 -227 11 -29 18 -53 16 -53 -3 0 -17 7 -30 16 -34 22 -347 21
-379 -1 -34 -24 -37 -18 -15 38 18 45 21 74 21 227 0 96 5 178 9 181 14 9 280
10 319 1z m474 2 l46 -7 0 -168 c0 -146 3 -176 21 -224 23 -62 20 -78 -11 -50
-17 16 -39 17 -192 16 -143 -2 -176 -5 -190 -18 -29 -26 -32 -7 -8 49 21 48
22 66 21 224 l-2 173 38 4 c67 7 229 7 277 1z"/>
<path d="M5723 3993 c-50 -10 -53 -28 -53 -299 l0 -253 26 -20 c27 -21 31 -21
986 -21 965 0 988 1 1010 34 4 6 8 126 8 267 0 248 -1 257 -21 275 -20 18 -52
19 -978 20 -526 1 -966 -1 -978 -3z m399 -64 c10 -6 13 -50 15 -181 2 -151 4
-180 23 -222 22 -53 20 -68 -8 -43 -26 24 -351 26 -387 3 -36 -23 -37 -21 -15
33 10 27 21 60 22 73 2 13 7 29 12 37 7 10 5 12 -3 6 -10 -6 -12 25 -9 141 l3
149 35 6 c50 10 296 8 312 -2z m492 0 c7 -7 7 -15 7 -169 0 -155 3 -188 23
-234 22 -53 20 -61 -9 -42 -36 24 -350 24 -383 0 -13 -9 -25 -14 -28 -12 -2 3
6 34 20 69 13 35 21 70 19 77 -3 6 1 12 9 12 11 0 11 2 -1 9 -9 6 -10 11 -2
15 6 4 11 13 11 19 0 7 -4 6 -10 -3 -7 -10 -10 10 -10 67 0 45 5 85 10 88 6 3
10 12 10 18 0 8 -3 8 -9 -1 -6 -11 -9 -10 -13 5 -6 25 1 45 14 37 7 -5 8 -2 3
7 -5 7 -10 21 -10 30 -1 15 17 16 171 15 95 0 175 -4 178 -7z m439 6 l55 -7 1
-177 c0 -158 3 -182 22 -225 24 -54 21 -64 -13 -42 -35 23 -348 25 -383 2 -35
-23 -36 -21 -15 28 10 24 20 59 22 78 2 18 7 36 11 39 4 3 3 18 -3 34 -6 16
-7 31 -2 34 6 4 5 36 0 79 -6 41 -6 90 -2 110 4 21 7 39 7 42 -2 8 241 12 300
5z m532 -7 c4 -3 6 -50 6 -105 -1 -54 -1 -105 -1 -113 1 -8 2 -44 3 -80 2 -40
11 -83 25 -112 22 -51 20 -57 -16 -32 -35 24 -356 22 -383 -2 -29 -26 -33 -10
-10 41 12 26 21 60 21 76 0 16 5 29 10 29 6 0 10 5 10 11 0 5 -5 7 -11 4 -7
-5 -9 36 -7 136 l3 144 25 7 c31 8 316 5 325 -4z"/>
<path d="M399 3973 c-11 -13 -14 -70 -14 -274 0 -235 2 -260 18 -276 16 -16
41 -18 276 -18 204 0 261 3 274 14 15 12 17 44 17 276 0 241 -1 263 -18 278
-16 15 -51 17 -279 17 -230 0 -262 -2 -274 -17z m545 -28 c12 -13 15 -53 15
-233 1 -199 0 -220 -19 -249 -10 -18 -30 -35 -42 -38 -13 -3 -124 -4 -248 -3
l-225 3 -3 244 c-1 156 1 248 8 255 7 7 10 -60 10 -207 0 -125 4 -217 9 -217
25 0 41 98 42 260 1 160 0 165 -20 168 -25 4 -28 19 -3 25 9 3 117 5 239 6
185 1 224 -1 237 -14z"/>
<path d="M851 3753 c0 -151 3 -185 19 -223 l19 -45 0 223 c1 216 0 222 -19
222 -19 0 -20 -6 -19 -177z"/>
<path d="M7876 3968 c-14 -19 -16 -62 -16 -274 0 -231 1 -252 18 -268 17 -15
82 -16 763 -16 409 0 752 0 761 0 9 0 24 7 32 16 14 13 16 52 16 273 0 237 -1
259 -18 274 -17 16 -85 17 -780 17 l-761 0 -15 -22z m1551 -23 c16 -26 18
-428 3 -472 -6 -17 -22 -35 -36 -42 -18 -8 -229 -11 -749 -11 -630 0 -726 2
-739 15 -12 12 -15 53 -16 229 0 118 2 226 6 240 17 68 24 7 24 -206 l1 -233
21 55 c18 46 22 83 25 227 l5 173 -27 10 c-15 6 -25 14 -21 18 6 5 1036 17
1476 17 8 0 20 -9 27 -20z"/>
<path d="M8323 3910 c-1 -11 3 -20 8 -20 6 0 8 -4 5 -9 -3 -5 -7 -76 -7 -157
-2 -122 1 -157 16 -192 20 -48 16 -59 -14 -42 -32 16 -343 15 -370 -2 -12 -7
-21 -15 -21 -18 0 -7 408 -2 420 5 6 4 10 94 10 231 l0 224 -23 0 c-16 0 -23
-6 -24 -20z"/>
<path d="M8430 3708 c0 -236 4 -247 40 -127 15 50 20 95 20 182 0 64 -4 118
-9 121 -5 3 -7 15 -4 26 4 16 0 20 -21 20 l-26 0 0 -222z"/>
<path d="M8836 3753 c2 -143 5 -186 19 -221 20 -49 16 -59 -16 -42 -29 16
-339 16 -368 0 -12 -6 -21 -14 -21 -18 0 -8 396 -6 417 2 10 4 13 56 13 231
l0 225 -22 0 -23 0 1 -177z"/>
<path d="M8941 3708 l1 -223 20 43 c11 24 20 56 21 70 1 15 7 30 12 34 6 5 5
8 -2 8 -9 0 -13 16 -13 46 0 30 4 43 11 38 8 -5 8 -1 0 14 -14 26 -14 67 -1
93 8 14 7 19 -2 19 -9 0 -9 3 2 10 10 6 11 10 3 10 -7 0 -12 3 -12 8 5 32 -3
52 -21 52 -19 0 -20 -6 -19 -222z"/>
<path d="M9347 3923 c-2 -5 -4 -82 -4 -172 0 -149 2 -169 23 -220 l23 -56 1
228 c0 218 -1 227 -19 227 -11 0 -22 -3 -24 -7z"/>
<path d="M399 3003 c-12 -13 -14 -224 -17 -1262 -2 -886 1 -1254 9 -1273 6
-14 20 -29 32 -32 12 -3 1652 -6 3645 -6 3609 0 3622 0 3642 20 20 20 20 33
20 1278 0 1207 -1 1260 -18 1275 -17 16 -286 17 -3659 17 -3374 0 -3642 -1
-3654 -17z m1786 -26 l195 3 0 -127 c0 -136 -7 -203 -21 -203 -5 0 -9 69 -9
153 0 85 -3 156 -6 159 -13 13 -44 -5 -43 -26 1 -11 0 -88 -1 -169 -1 -133 1
-154 20 -203 25 -59 21 -77 -9 -50 -17 16 -41 18 -188 16 -133 0 -173 -4 -191
-16 -13 -9 -26 -14 -28 -11 -3 2 4 26 15 53 21 54 21 55 21 87 0 18 2 19 10 7
5 -8 10 -11 10 -7 0 4 -7 18 -16 31 -10 16 -12 26 -5 31 6 3 11 11 11 16 0 6
-3 8 -7 6 -5 -3 -6 45 -3 106 6 114 1 137 -26 133 -12 -2 -16 -29 -20 -157 -3
-85 -9 -158 -13 -162 -10 -10 -21 116 -21 235 0 48 -3 88 -7 88 -32 -1 -35
-19 -34 -193 1 -152 3 -181 21 -222 23 -53 20 -67 -9 -41 -28 25 -347 25 -386
0 -23 -15 -25 -15 -25 0 0 10 7 30 15 47 9 16 16 45 17 65 1 19 5 37 10 40 4
3 5 11 1 17 -8 14 -8 251 1 265 3 5 -8 12 -24 14 l-30 4 -2 -153 c-4 -206 -22
-204 -26 3 -2 136 -4 155 -18 150 -9 -3 -20 -6 -26 -6 -7 0 -9 -63 -6 -182 4
-160 7 -189 26 -228 11 -24 19 -46 17 -49 -3 -2 -15 3 -29 12 -37 24 -346 26
-382 2 -34 -22 -38 -16 -17 31 9 21 20 66 24 99 4 33 10 72 12 88 3 17 1 25
-5 21 -7 -5 -9 28 -6 100 2 58 0 106 -3 106 -4 0 -14 3 -23 6 -14 5 -16 -9
-17 -112 -1 -128 -10 -216 -21 -198 -4 6 -8 79 -9 162 -2 84 -6 152 -10 152
-37 0 -39 -9 -39 -186 0 -151 3 -180 20 -225 23 -57 20 -71 -9 -45 -16 14 -43
17 -190 17 -151 1 -174 -1 -192 -17 -30 -27 -34 -10 -10 48 18 46 21 75 22
220 0 92 -2 171 -5 177 -4 5 -3 12 1 14 5 3 342 4 750 3 489 -1 743 2 744 9 0
7 2 7 5 0 3 -7 75 -9 199 -8z m2535 -1 c122 -1 206 3 202 8 -3 5 1 6 8 1 7 -4
58 -8 114 -7 229 1 392 1 1026 0 l665 0 -3 -147 c-1 -80 -5 -157 -9 -171 l-6
-25 -7 25 c-5 14 -8 90 -9 169 -1 126 -3 142 -17 137 -9 -3 -19 -6 -24 -6 -5
0 -9 -75 -9 -167 -1 -155 1 -172 23 -225 13 -32 21 -59 19 -62 -3 -3 -16 2
-29 11 -35 22 -347 20 -382 -3 -13 -9 -26 -14 -28 -11 -3 2 5 26 16 52 18 41
21 72 23 226 1 99 -1 179 -4 179 -4 0 -14 3 -23 6 -14 5 -16 -7 -16 -97 0 -57
-3 -135 -7 -174 -10 -109 -21 -50 -22 116 -1 80 -4 148 -7 151 -3 3 -14 4 -25
1 -18 -5 -19 -15 -19 -177 0 -148 3 -178 20 -225 23 -60 20 -73 -10 -46 -18
16 -39 18 -192 17 -145 -1 -174 -4 -190 -18 -29 -27 -33 -9 -9 47 19 46 21 71
21 225 0 148 -2 174 -15 174 -8 0 -18 0 -22 0 -4 0 -8 -62 -10 -137 -4 -169
-14 -219 -24 -118 -3 39 -7 114 -8 168 0 53 -4 97 -8 97 -31 -1 -34 -19 -34
-192 0 -151 3 -181 20 -220 22 -53 19 -63 -14 -42 -36 24 -343 23 -379 -1 -24
-16 -26 -16 -26 -1 0 10 8 31 17 49 14 27 16 59 14 195 -1 90 1 162 6 159 4
-3 8 5 8 18 0 13 -2 23 -5 23 -3 0 -7 1 -10 2 -40 15 -40 14 -41 -138 0 -153
-10 -216 -22 -153 -4 19 -7 94 -7 168 0 119 -2 134 -16 129 -9 -3 -19 -6 -24
-6 -4 0 -8 -78 -8 -172 -1 -150 2 -179 19 -217 27 -63 26 -78 -6 -57 -21 14
-56 17 -185 19 -88 1 -160 -2 -160 -6 0 -5 -4 -5 -10 -2 -5 3 -21 -2 -35 -11
-30 -20 -30 -22 -4 46 18 48 21 77 21 224 0 165 -4 185 -33 186 -4 0 -8 -69
-11 -153 -3 -87 -9 -161 -16 -172 -9 -16 -11 19 -12 153 0 97 -4 172 -9 172
-39 0 -41 -7 -41 -186 0 -151 3 -180 20 -225 12 -28 19 -54 16 -56 -2 -3 -15
2 -28 11 -36 24 -346 24 -382 1 -31 -21 -32 -12 -7 53 16 41 20 76 20 215 1
153 0 167 -17 176 -11 6 -22 7 -26 4 -3 -3 -6 -75 -6 -159 0 -153 -12 -209
-24 -111 -3 28 -6 102 -6 163 0 110 0 111 -23 107 l-23 -4 4 -182 c3 -153 7
-189 23 -226 11 -24 17 -46 15 -48 -2 -3 -15 3 -29 12 -14 8 -29 15 -33 14 -5
-1 -11 -1 -14 0 -19 6 -280 5 -280 -1 0 -4 -6 -5 -14 -2 -8 3 -26 -2 -41 -12
-14 -9 -28 -15 -30 -12 -2 2 7 31 20 64 13 32 22 67 19 78 -4 10 -2 16 3 13
13 -8 17 168 4 192 -7 13 -8 28 -1 45 6 16 6 27 0 31 -15 9 -12 27 3 19 9 -5
9 -4 1 5 -6 6 -20 13 -32 16 -22 4 -22 2 -22 -129 0 -74 -3 -148 -7 -167 -12
-63 -22 0 -22 155 -1 131 -3 147 -17 142 -9 -3 -19 -6 -24 -6 -7 0 -13 -135
-11 -276 0 -36 9 -84 21 -115 26 -70 25 -75 -6 -54 -22 14 -53 17 -175 19 -94
0 -149 -3 -149 -9 0 -5 -4 -4 -9 4 -7 11 -15 10 -41 -9 -17 -12 -33 -20 -36
-17 -3 2 5 28 16 58 12 29 20 64 17 76 -2 13 -1 23 2 23 3 0 6 66 5 147 -1
140 -2 147 -23 154 -11 5 -21 7 -21 6 0 -1 -2 -71 -5 -156 -5 -143 -8 -171
-19 -160 -3 2 -7 74 -10 159 -4 143 -6 155 -23 152 -10 -2 -19 -5 -20 -6 -2
-1 -3 -81 -3 -177 -1 -156 1 -180 20 -223 11 -27 18 -51 15 -54 -3 -3 -20 5
-37 18 -18 13 -33 19 -35 14 -2 -5 -64 -7 -150 -4 -129 5 -152 3 -180 -12 -39
-20 -40 -16 -13 53 12 28 19 54 16 56 -3 3 -1 16 5 30 5 13 6 22 1 20 -4 -3
-5 35 -2 84 3 49 3 89 0 89 -3 0 -5 29 -5 64 l-1 64 783 0 c431 0 786 2 789 5
3 3 13 3 21 0 8 -3 108 -6 223 -7z m-1830 -6 c0 -5 -7 -7 -15 -4 -13 5 -15
-15 -15 -147 0 -85 -4 -160 -9 -167 -12 -20 -21 62 -21 200 0 105 -2 119 -16
114 -9 -3 -19 -6 -22 -6 -4 0 -7 -80 -7 -178 1 -145 4 -184 18 -216 26 -58 23
-72 -9 -52 -35 24 -344 25 -379 2 -31 -20 -36 -11 -18 32 25 59 42 122 31 116
-6 -4 -8 46 -7 134 2 83 6 139 12 135 5 -3 4 4 -3 16 -6 12 -15 19 -20 16 -5
-3 -11 -1 -14 3 -3 5 105 10 244 10 150 1 250 -2 250 -8z m4740 -10 c-2 -8 -6
-84 -7 -167 -3 -139 -1 -158 21 -218 24 -68 23 -85 -4 -60 -13 12 -82 14 -433
15 -368 2 -421 0 -442 -14 -31 -20 -31 -14 -2 60 21 52 23 75 23 201 -1 77 2
139 6 137 15 -10 -6 38 -23 49 -15 11 60 13 424 13 388 -1 441 -3 437 -16z
m-1877 -480 c1245 0 1897 -4 1897 -10 0 -6 -7 -10 -15 -10 -13 0 -15 -26 -15
-170 0 -146 3 -176 20 -220 24 -61 26 -77 5 -60 -11 10 -18 9 -30 -3 -21 -22
-19 -27 10 -27 14 0 25 -4 25 -10 0 -5 -10 -10 -23 -10 l-23 0 1 -169 c2 -163
3 -171 29 -226 16 -31 26 -59 23 -61 -3 -3 -19 2 -36 11 -47 24 -436 23 -482
0 -17 -9 -34 -14 -37 -10 -4 3 5 27 20 53 25 46 26 52 28 225 l1 177 -31 0
-30 0 0 -150 c0 -127 -2 -150 -15 -150 -13 0 -15 23 -15 150 l0 150 -25 0 -25
0 1 -172 c0 -151 3 -180 21 -226 23 -58 19 -75 -11 -48 -17 16 -41 18 -185 17
-137 0 -170 -3 -191 -17 -36 -24 -40 -13 -15 43 19 42 21 66 22 193 0 89 3
135 8 120 l8 -25 1 28 c1 15 -4 27 -9 27 -7 0 -7 6 -2 18 13 25 4 42 -24 42
-22 0 -24 -4 -24 -52 0 -29 -3 -104 -7 -167 -8 -148 -20 -118 -29 74 -6 132
-9 145 -26 145 -20 0 -19 16 -19 -216 0 -120 3 -147 21 -189 11 -26 19 -50 16
-52 -2 -3 -15 2 -28 11 -18 12 -58 16 -191 16 -147 2 -171 0 -188 -16 -29 -27
-33 -11 -11 49 18 46 21 82 23 223 l2 169 -26 3 -27 3 -1 -163 c0 -90 -3 -157
-6 -150 -2 6 -9 10 -14 6 -5 -3 -9 59 -9 150 l0 156 -24 0 -25 0 0 -169 c-1
-149 1 -176 20 -226 23 -61 20 -78 -10 -51 -16 15 -42 17 -186 17 -134 0 -172
-3 -191 -15 -13 -9 -26 -16 -29 -16 -7 0 2 33 21 75 9 21 14 84 16 208 l3 177
-28 0 c-17 0 -26 -4 -22 -11 4 -5 4 -78 0 -160 -10 -194 -26 -184 -33 21 l-5
150 -24 0 c-23 0 -25 -3 -19 -35 5 -25 3 -35 -6 -35 -11 0 -11 -2 0 -9 10 -6
12 -35 7 -121 -5 -114 9 -203 37 -238 17 -20 2 -25 -24 -8 -35 23 -346 25
-380 2 -35 -23 -38 -12 -14 47 18 45 21 71 20 182 -2 219 -1 215 -24 215 -19
0 -20 -7 -20 -137 -1 -101 -5 -145 -15 -163 -13 -23 -15 -14 -17 100 -1 69 -2
142 -2 163 1 32 -2 37 -23 37 l-23 0 0 -179 c0 -159 2 -184 21 -226 24 -54 21
-63 -14 -41 -20 13 -56 17 -191 17 -146 1 -169 -1 -187 -17 -30 -27 -33 -11
-10 51 18 49 21 78 21 225 l0 170 -25 0 -25 0 0 -150 c0 -136 -7 -177 -24
-134 -3 9 -6 76 -6 150 l0 134 -24 0 -25 0 0 -165 c-1 -141 2 -173 19 -226 23
-67 20 -82 -9 -55 -17 15 -41 17 -192 17 -146 -1 -176 -4 -191 -18 -28 -25
-31 -11 -8 43 21 49 22 60 20 327 0 68 -2 77 -18 77 -17 0 -19 -13 -25 -152
-4 -83 -9 -154 -12 -156 -14 -14 -18 20 -23 158 -5 149 -5 150 -28 150 l-23 0
2 -177 c2 -161 4 -183 25 -227 12 -27 20 -51 18 -53 -2 -3 -16 3 -30 12 -37
25 -343 24 -381 -1 -36 -24 -40 -13 -14 38 21 40 23 56 23 223 0 178 0 180
-22 183 -22 3 -22 2 -22 -132 0 -116 -11 -198 -25 -185 -2 3 -5 75 -6 162 -3
156 -3 157 -26 157 l-23 0 0 -175 c0 -152 3 -181 20 -226 12 -28 19 -54 16
-56 -2 -3 -16 3 -30 12 -37 25 -336 24 -373 0 -14 -9 -27 -15 -29 -12 -3 2 4
28 15 57 17 43 20 80 22 223 l2 172 -27 3 -26 3 0 -160 c0 -88 -4 -162 -8
-165 -13 -8 -14 4 -19 172 -4 151 -4 152 -27 152 l-23 0 -2 -167 c-2 -150 0
-173 20 -226 12 -31 19 -60 16 -63 -3 -3 -17 2 -30 11 -37 24 -337 24 -374 0
-14 -9 -27 -15 -29 -12 -2 2 5 25 16 51 17 37 22 74 26 184 7 193 3 222 -26
222 -15 0 -18 -16 -22 -155 -5 -143 -10 -177 -23 -163 -3 2 -6 75 -7 161 -3
155 -3 157 -25 157 -27 0 -25 11 -23 -210 1 -129 5 -162 21 -199 11 -24 17
-46 15 -48 -2 -3 -15 3 -29 12 -38 24 -344 24 -381 0 -15 -10 -28 -16 -31 -14
-2 3 5 25 17 49 16 37 21 70 23 187 2 78 7 148 11 154 4 7 3 9 -4 5 -7 -4 -9
4 -5 27 4 29 2 33 -21 35 l-26 2 0 -148 c0 -126 -2 -149 -15 -149 -13 0 -15
23 -15 149 l0 148 -25 0 c-28 0 -27 15 -25 -207 1 -104 5 -145 21 -189 21 -63
19 -76 -9 -51 -27 25 -346 25 -380 1 -13 -9 -25 -14 -28 -11 -3 2 5 28 16 57
18 45 21 78 23 221 2 172 1 179 -36 179 -9 0 -13 -44 -15 -147 -2 -81 -6 -150
-8 -153 -16 -15 -24 41 -24 163 0 131 -1 137 -20 137 -42 0 -45 -14 -40 -179
5 -141 8 -162 32 -216 14 -33 25 -62 22 -64 -2 -2 -14 3 -28 12 -37 24 -346
26 -382 2 -35 -23 -39 -14 -15 34 12 22 21 49 21 61 0 11 5 20 10 20 11 0 14
230 4 293 -5 30 -11 37 -29 37 -22 0 -23 -2 -27 -150 -4 -135 -9 -172 -23
-159 -2 3 -6 73 -7 157 -3 149 -3 152 -25 152 -22 0 -23 -2 -25 -162 -3 -161
1 -191 38 -283 8 -20 7 -20 -19 -2 -25 16 -57 18 -364 17 -297 0 -339 -2 -355
-17 -29 -26 -32 -8 -9 49 18 46 21 75 22 223 1 154 -1 170 -17 175 -11 4 -14
9 -7 13 7 4 1518 8 3360 9 1841 1 3311 4 3266 5 -46 2 -83 8 -83 12 0 5 -9 7
-20 4 l-21 -6 21 53 c18 47 21 71 18 187 -2 73 -1 133 2 133 3 0 4 20 2 45 -3
36 -8 45 -23 45 -18 0 -19 -9 -19 -117 0 -133 -8 -202 -21 -181 -5 7 -9 77 -9
156 l0 142 -25 0 -25 0 -1 -112 c-2 -193 1 -226 21 -278 26 -66 25 -76 -5 -56
-36 24 -350 24 -383 0 -13 -9 -25 -14 -27 -12 -3 2 5 28 16 58 17 45 20 80 22
227 2 170 2 173 -19 173 -20 0 -21 -6 -27 -146 -3 -85 -10 -151 -16 -157 -8
-8 -11 32 -11 146 l0 157 -25 0 c-28 0 -26 13 -26 -177 0 -51 -5 -95 -10 -98
-5 -4 -5 -14 1 -26 6 -10 8 -19 6 -19 -3 0 6 -29 19 -65 14 -36 25 -68 25 -70
0 -3 -13 1 -30 10 -22 12 -67 15 -195 16 -145 0 -169 -2 -186 -17 -30 -27 -34
-9 -10 47 19 46 21 71 21 225 l0 174 -25 0 -25 0 0 -157 c0 -201 -17 -194 -26
10 -7 140 -8 148 -27 145 -19 -3 -20 -11 -18 -181 2 -152 5 -185 22 -224 11
-25 18 -48 15 -50 -2 -3 -16 3 -30 12 -37 25 -343 24 -381 -1 -32 -21 -33 -6
-6 57 17 38 19 68 19 217 l0 172 -24 0 -24 0 -1 -137 c0 -147 -11 -209 -22
-138 -4 22 -7 93 -7 158 0 115 0 117 -22 117 l-23 0 1 -183 c1 -149 4 -188 17
-214 10 -18 17 -39 17 -49 0 -15 -2 -15 -24 -1 -37 25 -346 26 -382 2 -14 -9
-28 -15 -30 -12 -2 2 5 25 17 52 19 42 21 68 22 224 1 174 1 176 -21 179 -22
3 -22 2 -22 -115 0 -129 -8 -196 -21 -187 -5 3 -9 72 -9 155 l0 149 -25 0 -25
0 0 -170 c0 -147 3 -176 21 -225 12 -31 19 -59 16 -61 -3 -3 -16 1 -29 10 -37
24 -337 25 -374 1 -14 -9 -28 -15 -30 -12 -3 2 5 28 16 57 11 28 20 61 21 73
0 12 0 67 1 122 0 55 1 123 2 150 1 44 -2 50 -20 53 -21 3 -22 -1 -29 -152 -4
-86 -11 -156 -15 -156 -9 0 -23 287 -15 301 5 7 -3 9 -21 7 -25 -3 -27 -7 -29
-50 -1 -26 1 -45 4 -43 3 2 5 -54 3 -124 -3 -109 0 -136 17 -181 11 -30 19
-56 17 -58 -3 -2 -15 3 -28 12 -35 23 -333 24 -377 2 -37 -19 -37 -17 -11 53
18 47 21 74 19 222 l-1 169 -24 0 -24 0 0 -149 c0 -83 -4 -152 -9 -155 -11 -7
-21 93 -21 214 0 95 0 97 -22 93 -23 -4 -23 -5 -21 -183 1 -157 4 -184 22
-226 24 -54 22 -63 -11 -40 -33 24 -347 24 -383 0 -32 -21 -32 -12 1 83 19 54
23 78 15 86 -14 14 -15 211 -1 202 6 -3 10 -2 10 4 0 5 -5 13 -11 17 -6 3 -9
17 -6 30 3 20 0 24 -19 24 -24 0 -24 -1 -24 -117 0 -133 -8 -202 -21 -181 -5
7 -9 77 -9 156 l0 142 -25 0 -26 0 2 -172 c1 -143 5 -182 20 -223 25 -65 24
-71 -5 -51 -37 24 -343 25 -380 0 -15 -9 -29 -15 -31 -12 -3 2 5 31 18 64 12
32 21 75 21 94 -2 54 -3 211 -2 245 1 49 -1 55 -21 55 -16 0 -19 -12 -24 -146
-3 -85 -10 -151 -16 -157 -8 -8 -11 32 -11 146 l0 157 -25 0 -25 0 0 -175 c0
-152 3 -181 20 -226 12 -28 19 -54 16 -56 -3 -3 -15 2 -28 11 -32 23 -335 23
-378 1 -35 -18 -37 -12 -10 50 17 41 20 69 20 221 l0 174 -25 0 -25 0 0 -157
c0 -114 -3 -154 -11 -146 -6 6 -13 72 -16 158 -6 136 -7 146 -25 143 -18 -3
-19 -14 -19 -168 -1 -169 3 -204 28 -253 19 -37 11 -44 -23 -22 -23 15 -50 17
-193 16 -128 -1 -171 -5 -188 -17 -30 -19 -31 -4 -4 59 16 37 19 69 19 215
l-1 172 -23 0 -24 0 -1 -137 c0 -147 -11 -209 -22 -138 -4 22 -7 93 -7 158 0
117 0 117 -24 117 l-24 0 0 -171 c0 -147 3 -178 19 -216 10 -25 19 -52 19 -60
0 -14 -3 -13 -25 1 -36 24 -350 24 -383 0 -31 -21 -36 -14 -18 27 25 58 29 73
27 104 -2 24 0 27 10 15 9 -12 9 -11 3 5 -11 29 -17 128 -7 122 4 -3 9 6 10
20 1 19 -1 22 -8 12 -6 -10 -9 -6 -9 14 0 20 4 26 13 21 9 -6 9 -4 -1 8 -10
13 -10 17 0 21 8 3 6 6 -5 6 -11 1 -15 6 -11 13 4 6 8 21 10 34 1 16 -4 23
-22 27 -24 4 -24 4 -24 -87 0 -119 -11 -227 -21 -220 -5 3 -9 72 -9 155 l0
149 -24 0 c-14 0 -28 -5 -31 -11 -4 -6 -6 -76 -6 -156 2 -142 7 -174 47 -277
7 -17 5 -17 -24 -2 -45 23 -347 23 -380 0 -13 -9 -25 -14 -28 -11 -5 5 29 99
46 130 6 9 7 17 3 17 -10 0 -7 235 3 268 4 14 2 22 -5 22 -7 0 -9 5 -6 10 4 6
-6 10 -22 10 l-28 0 -3 -141 c-5 -205 -18 -215 -27 -21 -7 156 -8 162 -29 162
-21 0 -21 -2 -19 -173 1 -147 5 -182 22 -227 11 -30 19 -56 17 -58 -3 -2 -15
4 -29 13 -22 14 -63 16 -318 15 -256 0 -295 -3 -311 -17 -29 -26 -33 -8 -9 48
11 28 21 60 21 71 0 11 5 16 10 13 11 -7 14 8 4 18 -8 8 -11 167 -3 167 3 0 4
15 2 33 -2 17 -4 45 -3 60 0 21 -5 30 -20 34 -100 26 148 29 2090 26 707 -2
2139 -3 3183 -3z m-4675 -1012 c12 -10 14 -10 8 0 -4 6 -3 12 3 12 5 0 13 -5
16 -10 4 -6 12 -7 18 -3 7 4 426 8 932 9 l920 2 -3 -145 c-3 -127 -14 -205
-27 -192 -2 2 -5 74 -6 159 -1 85 -4 158 -6 162 -2 3 -12 4 -23 1 -19 -5 -20
-14 -20 -179 0 -151 3 -180 20 -225 12 -28 19 -54 16 -56 -3 -3 -15 2 -28 11
-34 24 -353 24 -380 -1 -29 -26 -32 -8 -10 49 18 45 22 75 22 198 1 218 4 200
-25 200 l-25 0 0 -154 c0 -141 -8 -192 -24 -150 -3 9 -6 81 -6 161 0 144 0
144 -22 141 -23 -3 -23 -4 -23 -178 0 -147 3 -183 19 -223 21 -55 17 -66 -16
-43 -34 24 -337 23 -374 0 -13 -9 -26 -15 -28 -13 -3 2 6 36 18 74 19 62 21
88 18 228 -3 154 -3 157 -25 157 -22 0 -22 -2 -23 -155 -1 -144 -5 -177 -19
-163 -3 3 -9 77 -13 165 -7 160 -7 160 -29 152 -22 -8 -22 -10 -19 -186 3
-156 6 -184 24 -223 11 -24 19 -46 17 -48 -2 -2 -14 3 -27 12 -33 24 -347 24
-383 0 -30 -19 -32 -9 -9 44 13 29 16 73 16 204 0 107 4 165 10 162 6 -4 5 3
-1 15 -7 11 -21 21 -31 21 -19 0 -20 -7 -20 -129 0 -71 -3 -144 -7 -162 -7
-33 -7 -33 -14 -9 -4 14 -7 89 -8 168 -1 143 -1 143 -23 140 -23 -3 -23 -5
-24 -179 -2 -162 0 -180 21 -230 13 -30 22 -55 20 -57 -1 -2 -18 6 -36 17 -30
17 -54 19 -188 20 -140 0 -157 -2 -183 -20 -16 -12 -31 -19 -34 -17 -2 3 5 27
17 54 18 43 21 69 21 220 0 94 -2 177 -6 183 -4 6 -14 11 -22 11 -11 0 -14
-22 -14 -119 0 -65 -3 -140 -7 -167 -7 -46 -8 -47 -14 -19 -4 17 -7 90 -8 163
0 72 -5 132 -10 132 -5 0 -10 -8 -12 -17 -7 -29 8 -396 16 -423 8 -24 7 -24
-11 -8 -18 15 -48 17 -263 18 -224 1 -244 0 -257 -17 -13 -17 -13 -17 -13 2 0
11 4 38 9 60 5 22 10 120 10 217 1 122 5 178 13 181 6 2 139 4 295 5 218 2
288 0 300 -10z m6556 2 c17 -7 18 -9 4 -9 -16 -1 -18 -16 -18 -166 0 -150 2
-170 25 -230 25 -67 23 -76 -11 -50 -16 12 -106 14 -609 15 -526 0 -593 -2
-613 -16 -13 -9 -25 -14 -27 -12 -3 2 7 32 21 67 24 59 26 75 24 205 0 77 -3
150 -5 161 -2 11 -4 23 -4 26 -1 4 -10 6 -21 5 -19 -1 -20 -9 -24 -160 -3 -87
-7 -161 -10 -164 -15 -14 -20 20 -24 166 -4 155 -5 159 -26 155 -21 -4 -21 -8
-19 -182 2 -152 5 -185 22 -229 22 -55 19 -61 -17 -36 -32 22 -330 21 -374 -2
-16 -9 -31 -14 -33 -12 -2 2 5 23 16 47 10 24 19 56 19 72 0 16 5 29 13 29 9
0 9 2 0 8 -9 6 -12 47 -10 155 2 146 2 147 -20 147 -23 0 -23 -2 -24 -122 0
-128 -10 -211 -21 -192 -4 6 -8 79 -10 162 -3 150 -3 152 -25 152 -23 0 -23 0
-23 -175 0 -151 3 -181 20 -225 11 -28 20 -53 20 -55 0 -10 -19 -4 -34 10 -24
24 -337 23 -373 0 -13 -9 -27 -14 -30 -11 -3 2 5 30 17 62 18 50 21 78 21 223
l0 166 -25 3 -26 3 0 -145 c0 -148 -5 -189 -21 -164 -5 7 -9 79 -9 161 l0 147
-24 0 -24 0 -1 -171 c0 -148 3 -178 20 -226 23 -60 20 -76 -10 -49 -17 16 -40
18 -188 16 -133 -1 -173 -4 -191 -16 -13 -9 -25 -14 -28 -12 -2 2 5 27 16 55
16 43 19 79 20 224 2 163 1 173 -18 180 -18 7 -19 0 -25 -148 -3 -86 -9 -158
-12 -161 -14 -15 -19 21 -23 162 -4 151 -5 153 -26 149 -22 -4 -22 -7 -20
-181 1 -155 4 -183 22 -229 23 -55 19 -63 -14 -38 -29 22 -350 22 -375 -1 -31
-28 -39 -11 -17 36 19 41 21 63 22 224 0 175 -1 179 -22 187 l-22 8 0 -154 c0
-136 -7 -184 -24 -157 -3 5 -6 74 -8 155 l-3 147 -25 0 -25 0 3 -177 c3 -144
7 -187 23 -227 10 -27 17 -52 14 -54 -2 -2 -14 3 -27 12 -33 24 -343 24 -376
0 -34 -24 -38 -11 -13 47 19 46 21 71 21 225 l0 174 -25 0 -25 0 0 -151 c0
-116 -3 -150 -12 -147 -10 4 -14 46 -16 155 l-3 150 -24 -5 -25 -4 0 -169 c0
-146 3 -176 21 -224 12 -31 19 -59 16 -61 -3 -3 -16 1 -29 10 -36 23 -338 25
-374 1 -14 -9 -27 -15 -30 -13 -2 2 5 28 16 56 17 43 20 78 21 195 1 209 1
204 -20 210 -17 4 -19 -6 -25 -151 -4 -86 -10 -160 -14 -166 -12 -19 -21 65
-21 195 l-1 126 -25 -5 -25 -4 3 -183 c2 -107 8 -189 14 -197 15 -19 33 -78
24 -78 -4 0 -16 7 -27 15 -28 21 -356 22 -374 0 -7 -8 -19 -15 -26 -15 -11 0
-9 12 8 53 19 46 22 71 22 226 1 131 -2 175 -11 178 -7 3 -13 8 -13 12 0 10
4618 11 4644 1z m-6369 -501 c3 -4 16 -4 28 0 31 12 1238 10 1230 -2 -3 -5 2
-5 13 1 30 15 2666 14 2657 -1 -5 -9 -3 -9 8 -1 19 16 1251 16 1242 1 -4 -6
-1 -7 8 -1 18 11 1122 15 1169 4 19 -4 27 -8 17 -9 -17 -1 -18 -12 -15 -183 3
-162 6 -188 25 -228 12 -24 20 -46 18 -49 -3 -2 -16 4 -29 13 -22 14 -64 16
-322 16 -283 0 -298 -1 -330 -21 l-34 -21 0 67 c0 36 -4 64 -9 61 -10 -7 -21
124 -21 256 0 91 -1 96 -20 91 -19 -5 -20 -14 -20 -188 0 -140 4 -191 15 -218
21 -50 19 -61 -7 -42 -33 23 -494 22 -527 -2 -32 -22 -34 -12 -11 43 19 43 21
67 20 218 0 92 -3 172 -6 177 -3 5 -14 9 -26 9 -14 0 -18 -5 -14 -16 3 -9 3
-93 -1 -187 -8 -212 -21 -191 -22 36 l-1 167 -25 0 -25 0 0 -175 c0 -152 3
-181 20 -226 12 -28 19 -54 16 -56 -2 -3 -15 2 -28 11 -19 12 -66 15 -261 17
-215 1 -240 -1 -258 -17 -28 -26 -33 -12 -14 45 12 38 16 90 17 222 1 168 1
173 -20 180 -22 8 -22 8 -22 -134 0 -78 -3 -160 -7 -182 -6 -36 -7 -38 -14
-15 -4 14 -7 94 -8 178 -1 153 -1 153 -23 150 -23 -3 -23 -5 -26 -173 -2 -154
-1 -174 19 -223 24 -57 20 -75 -10 -48 -17 15 -45 17 -252 16 -185 0 -239 -3
-262 -15 -17 -8 -32 -13 -34 -11 -2 2 6 27 17 56 18 46 20 70 18 223 -3 170
-3 172 -25 175 l-23 3 0 -176 c0 -115 -3 -174 -10 -170 -6 4 -11 -9 -12 -32
-1 -39 -4 -72 -7 -86 0 -5 -13 1 -27 12 -27 21 -27 21 -1286 21 -1148 0 -1261
-1 -1284 -16 -34 -23 -38 -14 -14 40 16 39 20 71 21 194 2 216 2 212 -21 212
-18 0 -20 -7 -20 -78 0 -132 -13 -298 -21 -277 -4 11 -8 95 -8 188 l-1 167
-24 0 -24 0 -1 -172 c-1 -152 1 -180 19 -227 12 -29 19 -56 16 -58 -3 -3 -15
2 -28 11 -19 14 -58 16 -262 16 -209 0 -242 -2 -258 -17 -28 -25 -32 -9 -11
54 12 36 19 83 18 123 -4 267 -4 267 -25 273 -19 5 -20 0 -20 -161 0 -92 -4
-173 -9 -180 -10 -17 -21 106 -21 240 0 89 -2 98 -19 98 -26 0 -31 -35 -31
-199 1 -97 5 -147 16 -176 9 -22 18 -51 21 -65 6 -24 6 -24 -20 -7 -23 15 -56
17 -264 17 -203 0 -242 -2 -261 -16 -13 -9 -25 -14 -27 -12 -3 2 5 28 16 58
18 48 20 72 17 224 -3 164 -4 171 -24 174 -19 3 -21 -2 -20 -60 2 -157 -4
-289 -14 -283 -6 4 -10 -16 -10 -53 0 -32 -3 -62 -6 -65 -4 -3 -18 3 -32 13
-23 19 -41 20 -306 20 -242 0 -285 -2 -304 -16 -13 -9 -25 -14 -28 -11 -3 2 5
28 16 57 18 45 21 75 21 222 0 126 -3 173 -12 179 -8 5 -4 8 12 11 49 8 769 5
774 -3z"/>
<path d="M7906 2998 c-14 -20 -16 -86 -16 -521 l0 -498 25 -24 24 -25 728 0
c567 0 734 3 753 13 l25 13 3 513 c2 468 1 516 -14 533 -16 17 -52 18 -765 18
l-748 0 -15 -22z m1448 -16 c18 -2 18 -3 2 -21 -15 -16 -16 -39 -13 -187 3
-148 6 -175 25 -218 12 -27 20 -51 18 -53 -2 -3 -15 3 -29 12 -36 23 -345 24
-379 1 -36 -26 -39 -19 -16 37 19 46 21 69 20 212 -1 102 2 153 8 140 6 -15 9
-16 9 -4 1 9 -2 19 -6 23 -5 4 -8 12 -8 18 0 6 -10 14 -21 19 -21 7 -22 6 -26
-146 -2 -85 -7 -157 -11 -161 -17 -17 -22 17 -25 157 -3 148 -4 149 -26 149
l-23 0 -2 -173 c-2 -155 0 -179 19 -221 26 -62 25 -72 -5 -52 -37 24 -360 24
-387 -1 -28 -25 -31 -11 -8 46 11 28 20 68 20 87 0 19 4 33 8 30 5 -3 9 1 9 9
0 8 -4 12 -8 9 -5 -3 -7 56 -6 131 l2 135 -25 0 -25 0 -3 -152 c-2 -84 -5
-154 -8 -157 -16 -16 -24 33 -29 164 -3 83 -9 149 -13 148 -4 -1 -14 -4 -23
-6 -14 -4 -15 -26 -12 -180 3 -149 6 -183 23 -223 11 -26 19 -49 16 -51 -2 -3
-15 2 -28 11 -18 12 -59 15 -189 17 -146 1 -169 -1 -194 -17 l-28 -18 6 24 c3
14 12 43 21 65 11 30 15 82 16 206 0 150 -2 168 -17 175 -15 6 -12 8 12 13 25
5 1303 8 1359 3z m1 -503 c18 0 19 -1 3 -13 -14 -10 -17 -33 -18 -137 -1 -68
-1 -128 -1 -134 1 -5 3 -28 6 -50 2 -23 13 -64 24 -93 22 -54 18 -62 -15 -37
-29 22 -350 22 -382 -1 -25 -18 -41 -12 -25 8 15 18 53 149 42 142 -5 -3 -9
38 -9 95 0 72 3 101 12 101 9 0 9 3 0 12 -7 7 -12 19 -11 27 0 12 3 11 10 -4
8 -17 8 -16 3 5 -3 14 -6 33 -7 43 -1 9 -4 17 -8 17 -4 0 -14 3 -22 6 -12 4
-15 -22 -19 -168 -2 -95 -8 -179 -12 -187 -19 -30 -26 19 -26 182 l0 168 -22
-3 c-19 -2 -24 -11 -29 -45 -3 -24 -3 -43 0 -43 3 0 5 -55 3 -122 -3 -105 0
-130 18 -181 23 -64 21 -80 -9 -53 -28 25 -339 26 -377 1 -36 -23 -40 -13 -16
43 19 43 21 70 22 222 2 168 1 174 -19 182 -12 4 -21 6 -21 5 0 -1 -3 -83 -6
-182 -3 -99 -8 -182 -10 -185 -3 -2 -9 2 -14 9 -10 16 -25 289 -18 326 4 21 1
25 -18 25 -24 0 -24 0 -25 -137 -2 -184 0 -210 22 -267 10 -28 17 -52 14 -54
-2 -2 -14 3 -27 12 -34 24 -353 24 -380 -1 -29 -26 -32 -9 -9 56 18 53 21 84
21 226 0 149 -2 166 -17 172 -16 6 -15 8 5 13 17 4 1205 3 1367 -1z"/>
<path d="M9596 2998 c-14 -20 -16 -158 -16 -1275 0 -1240 0 -1253 20 -1273 20
-20 33 -20 1008 -20 878 0 990 2 1010 16 l22 15 0 1263 c0 1211 -1 1264 -18
1279 -17 16 -102 17 -1015 17 l-996 0 -15 -22z m1944 -18 c32 -7 33 -9 13 -15
-23 -7 -23 -10 -23 -174 0 -151 3 -171 24 -223 13 -32 21 -59 19 -62 -3 -3
-16 2 -29 10 -35 23 -345 22 -381 -1 -35 -23 -38 -14 -14 40 19 42 21 67 21
226 0 167 -1 179 -18 179 -17 0 -20 -13 -26 -152 -4 -84 -9 -154 -11 -157 -17
-16 -24 31 -26 162 l-2 147 -23 0 c-16 0 -24 -6 -24 -17 -1 -10 -1 -89 0 -176
1 -133 4 -167 21 -209 11 -28 18 -53 15 -55 -2 -3 -15 3 -29 12 -21 13 -50 16
-176 13 -83 -2 -152 0 -154 5 -1 4 -19 -2 -39 -13 -21 -11 -40 -20 -42 -20 -2
0 9 33 24 72 20 52 25 76 18 85 -7 9 -7 13 1 13 7 0 10 4 7 8 -3 5 -6 70 -7
145 l-1 137 -24 0 -24 0 -1 -137 c0 -76 -4 -147 -8 -157 -16 -41 -26 10 -29
152 l-4 142 -25 0 c-18 0 -24 -4 -19 -15 3 -8 0 -15 -7 -15 -7 0 -8 -3 -2 -8
6 -4 10 -70 10 -162 0 -139 3 -160 23 -204 25 -56 23 -65 -10 -42 -33 24 -353
24 -386 0 -13 -9 -25 -14 -28 -11 -3 2 5 29 17 58 19 48 22 74 23 226 1 170 1
173 -20 173 -20 0 -21 -6 -26 -151 -3 -82 -9 -153 -12 -156 -16 -16 -21 20
-24 158 l-3 149 -25 0 -24 0 -2 -142 c-1 -179 0 -192 23 -253 25 -65 24 -71
-7 -50 -22 14 -52 17 -196 16 -146 0 -173 -3 -189 -17 -30 -27 -33 -9 -10 49
19 47 22 73 22 206 0 84 -2 155 -5 158 -2 3 -2 11 0 18 3 7 -5 16 -18 20 -22
7 -22 7 7 14 42 11 1822 11 1865 1z m7 -499 c58 -17 60 -23 46 -135 -17 -137
-17 -377 0 -400 10 -13 10 -37 0 -119 -6 -56 -12 -150 -12 -209 -1 -98 -8
-126 -26 -98 -4 6 -83 10 -206 10 l-199 0 2 28 c1 15 -2 38 -6 52 -4 14 -4 20
1 13 4 -6 8 179 8 410 0 270 -4 425 -10 429 -31 23 -35 8 -36 -129 0 -145 -10
-206 -22 -144 -4 19 -7 87 -7 152 l0 119 -26 0 c-25 0 -26 -2 -20 -40 3 -22 2
-40 -3 -40 -5 0 -7 -8 -5 -17 2 -10 5 -74 7 -143 4 -98 9 -135 26 -172 22 -53
21 -55 -13 -33 -35 23 -345 23 -381 -1 -14 -9 -28 -15 -30 -12 -3 2 4 28 15
57 11 29 18 56 15 62 -4 5 -2 9 3 9 6 0 8 10 5 23 -4 18 -3 19 6 7 7 -9 11
-10 11 -3 0 6 -4 15 -10 18 -6 3 -10 49 -10 101 0 52 3 93 8 91 4 -3 8 6 9 20
1 19 -1 22 -8 12 -7 -9 -8 -1 -3 24 6 35 5 37 -20 37 l-26 0 0 -89 c0 -134
-10 -210 -26 -204 -11 4 -14 37 -14 149 l0 144 -25 0 c-28 0 -27 12 -25 -219
1 -83 6 -137 16 -165 31 -83 31 -80 -4 -62 -46 24 -357 23 -384 -1 -28 -25
-31 -10 -7 48 19 47 22 75 23 226 l1 173 -26 0 c-23 0 -26 -4 -26 -32 1 -18 0
-86 -1 -150 -2 -96 -5 -116 -16 -112 -11 4 -16 40 -21 150 -7 138 -8 144 -29
144 -21 0 -21 -2 -18 -177 3 -144 7 -187 23 -227 10 -27 17 -51 16 -53 -5 -4
-57 21 -57 27 0 3 -74 4 -165 3 -133 -2 -170 -6 -190 -19 -30 -20 -31 -10 -6
54 16 40 20 80 23 219 2 108 -1 170 -7 171 -5 0 -19 2 -29 4 -17 3 -19 -4 -18
-72 0 -55 -2 -67 -8 -45 -12 47 -11 112 3 123 6 5 21 12 32 14 40 10 1850 8
1882 -1z m-439 -641 c1 -80 0 -156 -4 -170 l-7 -25 -7 25 c-5 14 -8 85 -9 158
l-1 132 -24 0 -24 0 0 -172 c-1 -150 2 -178 19 -217 27 -63 26 -78 -6 -57 -38
25 -345 25 -382 1 -14 -9 -27 -15 -29 -13 -4 4 29 94 47 130 5 10 9 26 8 35
-1 12 -4 10 -9 -7 -6 -16 -9 31 -9 125 0 83 0 156 0 163 -1 6 -10 12 -21 12
-19 0 -20 -7 -21 -112 -1 -131 -9 -192 -26 -195 -10 -2 -13 33 -13 152 l0 155
-27 0 -28 0 5 -182 c4 -140 10 -193 23 -227 22 -56 22 -56 -7 -38 -37 24 -346
26 -382 2 -14 -9 -28 -14 -31 -11 -3 3 4 28 16 56 19 45 22 71 24 225 l2 175
-25 0 c-24 0 -26 -3 -26 -47 1 -115 -6 -277 -11 -264 -4 10 -7 10 -13 1 -4 -7
-11 60 -15 149 -7 155 -8 161 -29 161 -21 0 -21 -2 -18 -177 2 -152 6 -185 23
-226 11 -27 18 -51 16 -54 -3 -2 -17 3 -30 12 -38 25 -351 24 -378 -1 -30 -27
-33 -9 -10 53 18 50 22 80 22 213 1 191 2 180 -16 180 -32 0 -13 19 23 22 20
2 345 3 722 3 l685 -1 3 -144z m-975 -529 c-3 -91 -6 -167 -7 -168 -1 -1 -7 2
-14 6 -9 5 -13 51 -15 159 -2 150 -2 152 -24 152 -23 0 -23 0 -23 -175 0 -150
3 -182 20 -227 11 -28 18 -54 15 -56 -2 -2 -14 3 -27 12 -34 24 -353 24 -380
-1 -29 -26 -32 -9 -8 54 18 49 22 80 22 204 1 80 -2 152 -7 159 -6 10 -4 12
11 7 16 -6 15 -4 -4 12 l-22 20 22 3 c13 2 118 3 234 4 l211 1 -4 -166z m447
157 c0 -5 -9 -8 -19 -8 -18 0 -20 -9 -21 -175 0 -159 1 -180 21 -225 24 -55
20 -73 -9 -47 -27 25 -346 25 -380 1 -32 -22 -38 -11 -19 33 26 63 28 76 30
248 2 151 1 165 -15 165 -10 0 -18 3 -18 8 0 4 97 7 215 7 118 0 215 -3 215
-7z m530 -148 c0 -85 -4 -161 -9 -168 -15 -24 -21 25 -21 171 0 137 0 137 -23
137 -23 0 -24 -1 -25 -120 0 -66 -4 -125 -8 -132 -4 -6 -3 -8 3 -5 7 5 10 -8
8 -36 -2 -24 6 -67 17 -100 11 -32 18 -61 15 -64 -3 -3 -16 2 -29 11 -32 22
-343 23 -372 1 -33 -25 -37 -17 -15 38 12 28 21 60 21 70 -1 9 4 17 11 17 8 0
8 3 -1 12 -16 16 -15 50 1 67 10 11 9 12 -1 7 -10 -6 -13 16 -11 111 1 102 -1
118 -15 121 -9 2 -16 7 -16 10 0 4 106 7 235 7 l235 0 0 -155z m431 150 c48 0
70 -43 56 -110 -8 -41 -12 -351 -6 -475 4 -87 -14 -385 -23 -385 -5 0 -16 7
-24 15 -12 12 -45 15 -157 16 -196 1 -220 0 -240 -18 -26 -24 -32 -8 -13 40
14 38 16 97 16 473 0 352 -2 431 -13 439 -10 7 47 9 177 8 105 -2 207 -3 227
-3z m-1030 -504 c-9 -10 -8 -16 4 -26 12 -10 15 -40 15 -158 0 -141 1 -147 31
-210 31 -67 32 -87 1 -59 -16 14 -65 16 -441 17 -384 0 -426 -1 -443 -16 -27
-25 -32 -11 -14 42 12 37 16 88 16 230 l0 183 411 0 c226 0 414 2 417 5 11 12
14 5 3 -8z m389 3 c96 -1 166 -4 155 -6 -19 -4 -20 -10 -17 -189 3 -155 6
-191 22 -227 21 -45 11 -60 -20 -32 -16 14 -42 16 -185 16 -130 -1 -172 -5
-188 -16 -12 -8 -25 -15 -28 -15 -4 0 6 37 22 82 19 54 25 86 19 92 -13 13
-13 56 0 56 6 0 10 5 10 11 0 5 -4 7 -10 4 -5 -3 -10 -1 -10 4 0 6 5 11 10 11
6 0 10 18 10 40 0 22 -5 40 -10 40 -6 0 -9 20 -8 45 2 25 7 45 12 45 5 0 3 7
-4 15 -7 8 -20 15 -29 15 -10 0 -12 3 -4 8 6 4 26 6 45 5 18 -1 112 -2 208 -4z"/>
<path d="M8386 1504 c-20 -20 -20 -23 2 -23 9 0 123 0 252 0 325 1 315 0 288
27 -9 9 -83 12 -269 12 -221 0 -260 -2 -273 -16z"/>
<path d="M8430 1328 c0 -151 -5 -179 -27 -171 -21 8 -43 -23 -43 -61 0 -69
-23 -76 -244 -76 -173 0 -187 -1 -206 -20 -19 -19 -20 -33 -20 -270 l0 -251
25 -24 24 -25 721 0 c707 0 720 0 740 20 19 19 20 32 19 233 -1 119 -5 199 -9
182 -4 -16 -8 -51 -9 -76 -1 -60 -20 -116 -32 -97 -12 17 -10 278 2 278 5 0 9
-5 9 -11 0 -5 5 -7 10 -4 6 3 10 -2 10 -12 0 -10 5 -25 10 -33 7 -11 10 -4 10
28 0 29 -6 48 -20 62 -19 19 -33 20 -209 20 -175 0 -190 1 -215 21 -22 17 -26
28 -26 72 0 37 -3 48 -10 37 -7 -11 -10 -11 -10 -2 0 7 -4 11 -8 8 -4 -2 -14
-1 -22 4 -11 7 -16 42 -18 155 -4 144 -4 145 -27 145 l-23 0 3 -177 c3 -152 6
-186 24 -230 22 -55 18 -63 -15 -38 -30 22 -345 21 -380 -1 -13 -9 -26 -15
-29 -13 -2 3 5 25 16 49 21 47 43 262 27 268 -4 2 -8 13 -8 23 0 13 4 18 12
13 11 -7 10 4 -6 86 -2 8 -13 16 -24 18 -22 3 -22 1 -22 -130z m-252 -348 c55
3 99 3 97 0 -3 -5 78 -4 192 3 22 1 40 0 38 -3 -2 -3 30 -6 71 -6 41 -1 72 1
70 5 -2 3 22 6 55 6 32 0 59 -2 59 -5 0 -3 51 -5 114 -5 63 0 113 2 111 5 -2
3 55 5 125 5 70 0 126 -3 125 -6 -2 -3 23 -3 56 -1 39 3 59 1 59 -7 0 -6 -9
-11 -19 -11 -18 0 -19 -9 -19 -167 0 -139 4 -178 20 -227 10 -32 17 -61 14
-63 -3 -3 -15 2 -28 11 -33 24 -343 24 -376 0 -33 -23 -35 -14 -10 42 19 44
22 65 21 192 -1 103 2 142 10 142 9 0 9 2 1 8 -6 4 -11 18 -10 32 1 19 -5 26
-21 28 -23 3 -23 2 -23 -106 0 -60 -3 -145 -7 -188 l-8 -79 -6 55 c-4 30 -7
115 -8 188 -1 132 -1 133 -23 130 -23 -3 -23 -3 -21 -180 1 -155 4 -183 22
-224 12 -26 19 -50 16 -53 -3 -3 -19 3 -34 12 -41 24 -352 25 -371 2 -7 -8
-17 -15 -22 -15 -12 0 -7 26 17 90 14 37 16 64 11 152 -5 82 -4 107 6 112 11
5 11 7 0 12 -10 5 -10 9 -1 21 8 9 9 17 3 21 -5 4 -9 15 -9 26 0 10 -10 22
-22 27 l-23 8 -1 -152 c0 -232 -14 -268 -23 -66 -5 92 -5 176 -1 188 5 18 2
21 -19 21 -26 0 -26 -1 -28 -77 -4 -189 3 -287 23 -332 22 -51 19 -59 -13 -37
-33 24 -343 24 -376 0 -13 -9 -26 -13 -29 -10 -3 3 4 32 17 65 20 54 21 73 18
235 -2 115 0 175 7 173 6 -3 19 -1 30 3 11 4 25 5 32 1 6 -3 56 -4 111 -1z"/>
</g>
</svg>
