<?xml version="1.0" encoding="UTF-8" standalone="no"?>
<svg
   xmlns:dc="http://purl.org/dc/elements/1.1/"
   xmlns:cc="http://creativecommons.org/ns#"
   xmlns:rdf="http://www.w3.org/1999/02/22-rdf-syntax-ns#"
   xmlns:svg="http://www.w3.org/2000/svg"
   xmlns="http://www.w3.org/2000/svg"
   xmlns:sodipodi="http://sodipodi.sourceforge.net/DTD/sodipodi-0.dtd"
   xmlns:inkscape="http://www.inkscape.org/namespaces/inkscape"
   id="svg12"
   width="738pt"
   height="657pt"
   version="1.0"
   viewBox="0 0 738 657"
   sodipodi:docname="image11_monitor.svg"
   inkscape:version="0.92.4 (5da689c313, 2019-01-14)">
  <metadata
     id="metadata17">
    <rdf:RDF>
      <cc:Work
         rdf:about="">
        <dc:format>image/svg+xml</dc:format>
        <dc:type
           rdf:resource="http://purl.org/dc/dcmitype/StillImage" />
        <dc:title></dc:title>
      </cc:Work>
    </rdf:RDF>
  </metadata>
  <defs
     id="defs15" />
  <sodipodi:namedview
     pagecolor="#ffffff"
     bordercolor="#666666"
     borderopacity="1"
     objecttolerance="10"
     gridtolerance="10"
     guidetolerance="10"
     inkscape:pageopacity="0"
     inkscape:pageshadow="2"
     inkscape:window-width="1366"
     inkscape:window-height="705"
     id="namedview13"
     showgrid="false"
     inkscape:zoom="0.41162791"
     inkscape:cx="383.9774"
     inkscape:cy="383.84181"
     inkscape:window-x="-8"
     inkscape:window-y="-8"
     inkscape:window-maximized="1"
     inkscape:current-layer="svg12" />
  <g
     id="monitor"
     transform="matrix(1.3945715,0,0,1.3856369,44.697833,26.136185)">
    <g
       id="pantalla"
       transform="matrix(0.1,0,0,-0.1,0,430)">
      <path
         id="path4"
         d="m 177,4276 c -18,-19 -23,-31 -8,-22 14,9 20,-343 31,-1952 6,-832 14,-1520 17,-1530 15,-40 43,-41 345,-7 123,13 374,40 558,60 184,20 373,40 420,45 47,5 193,21 325,35 132,14 257,28 278,31 28,4 37,2 37,-9 0,-27 -43,-122 -69,-151 -48,-53 -55,-55 -456,-101 -327,-38 -290,-28 -333,-92 l -37,-56 35,-29 c 19,-16 123,-74 230,-130 107,-55 291,-149 407,-209 117,-60 232,-113 255,-119 52,-11 147,1 443,59 211,42 677,121 709,121 18,0 55,6 82,14 27,8 77,20 111,27 81,15 100,35 85,88 -11,34 -36,58 -208,192 -380,298 -371,291 -420,297 -24,2 -139,-8 -254,-23 -115,-16 -213,-26 -216,-22 -4,4 1,35 10,69 29,106 35,117 70,123 52,9 604.39,64.861 721,76 l 150,14 c 17,2 116,13 220,24 630,75 158.5,21.794 630,75 121,13 163,21 173,34 9,12 12,144 12,581 0,311 2,638 5,726 3,88 7,397 10,686 5,540 3,582 -33,593 -10,3 -96,15 -192,26 -96,11 -249,30 -340,40 -91,11 -419,49 -730,85 -807,93 -1040,120 -1375,161 -117,14 -217,25 -555,64 -248,29 -584,68 -775,91 -264,32 -347,35 -368,15 z m 368.1,-245.83 c 3930.4,-446.51 0,0 3775.8,-427.18 15.203,-1154.6 1.5631,-927.48 -13.784,-1981.8 L 556.216,1357.31 Z M 1982,227.97 c 87,-48 162,-88 168,-88 12,0 13,-20 0,-40 -8,-12 -11,-12 -27,2 -10,9 -63,39 -118,68 -215,112 -241,130 -231,156 7,17 -12,26 208,-98 z"
         inkscape:connector-curvature="0" />
      <path
         id="path21"
         transform="matrix(7.5,0,0,-7.5,0,4300)"
         d="m 71.739,34.116 c -2.6229,10.353 -0.35342,21.894 -1.1127,32.699 0.17605,105.84 -0.17934,211.71 2.2049,317.53 -0.29496,4.5022 0.21043,12.099 6.8292,9.9234 164.2,-11.342 328.44,-22.589 492.57,-34.693 6.3268,-3.4878 3.187,-12.846 4.5242,-18.707 1.8283,-81.119 3.7566,-162.31 1.3833,-243.44 1.1129,-6.2864 -5.4224,-7.632 -10.294,-7.5985 -164.54,-19.294 -329.28,-36.91 -493.8,-56.353 l -1.1709,0.32337 z"
         style="fill:#ac9393"
         inkscape:connector-curvature="0" />
    </g>
    <g
       id="btn_encendido"
       transform="matrix(0.63079,0,0,0.64248,286.61,154.06)">
      <ellipse
         id="path22"
         transform="matrix(0.89516,-0.44575,0.43897,0.8985,0,0)"
         cx="90.050003"
         cy="284.5"
         rx="23.306999"
         ry="23.716"
         style="fill:#00ffff" />
      <ellipse
         id="path18"
         cx="205.28"
         cy="215.46001"
         rx="17.690001"
         ry="18.499001" />
      <path
         id="path18-4"
         d="m 204.77,213.29 c -2.9541,-2.0561 -0.84668,-3.9199 -5.3037,-8.5253 -2.2627,1.778 -4.9326,5.4241 -4.9329,10.241 -3.3e-4,6.5872 4.6985,11.927 10.635,11.927 5.9361,-4.3e-4 10.748,-5.3402 10.748,-11.927 -3.2e-4,-5.2799 -2.0542,-8.7539 -4.6659,-10.002 -4.2505,4.366 -5.3032,8.286 -6.4802,8.2859 z"
         style="fill:#00ffff"
         inkscape:connector-curvature="0" />
      <path
         id="path18-47"
         d="m 205.29,205.27 a 8.7571,9.9188 0 0 0 -8.7568,9.9199 8.7571,9.9188 0 0 0 8.7568,9.9185 8.7571,9.9188 0 0 0 8.7568,-9.9185 8.7571,9.9188 0 0 0 -8.7568,-9.9199 z"
         inkscape:connector-curvature="0" />
      <rect
         id="rect20"
         x="204.13"
         y="201.02"
         width="2.1101"
         height="11.7"
         ry="0"
         style="fill:#00ffff" />
    </g>
  </g>
</svg>
