<?xml version="1.0" encoding="UTF-8" standalone="no"?>
<svg
   xmlns:dc="http://purl.org/dc/elements/1.1/"
   xmlns:cc="http://creativecommons.org/ns#"
   xmlns:rdf="http://www.w3.org/1999/02/22-rdf-syntax-ns#"
   xmlns:svg="http://www.w3.org/2000/svg"
   xmlns="http://www.w3.org/2000/svg"
   xmlns:sodipodi="http://sodipodi.sourceforge.net/DTD/sodipodi-0.dtd"
   xmlns:inkscape="http://www.inkscape.org/namespaces/inkscape"
   version="1.0"
   width="738pt"
   height="657pt"
   viewBox="0 0 738 657"
   preserveAspectRatio="xMidYMid meet"
   id="svg8"
   sodipodi:docname="image13_mouse1.svg"
   inkscape:version="0.92.4 (5da689c313, 2019-01-14)">
  <defs
     id="defs12" />
  <sodipodi:namedview
     pagecolor="#ffffff"
     bordercolor="#666666"
     borderopacity="1"
     objecttolerance="10"
     gridtolerance="10"
     guidetolerance="10"
     inkscape:pageopacity="0"
     inkscape:pageshadow="2"
     inkscape:window-width="1366"
     inkscape:window-height="705"
     id="namedview10"
     showgrid="false"
     inkscape:zoom="0.20113636"
     inkscape:cx="-282.85291"
     inkscape:cy="42.531435"
     inkscape:window-x="-8"
     inkscape:window-y="-8"
     inkscape:window-maximized="1"
     inkscape:current-layer="svg8" />
  <metadata
     id="metadata2">
Created by potrace 1.15, written by Peter Selinger 2001-2017
<rdf:RDF>
  <cc:Work
     rdf:about="">
    <dc:format>image/svg+xml</dc:format>
    <dc:type
       rdf:resource="http://purl.org/dc/dcmitype/StillImage" />
    <dc:title></dc:title>
  </cc:Work>
</rdf:RDF>
</metadata>
  <g
     transform="matrix(0.33664674,0,0,-0.34827839,-2.3664674,700.31577)"
     id="mouse"
     style="fill:#000000;stroke:none"
     inkscape:label="mouse">
    <path
       d="m 1075,1870 c -27,-11 -86,-46 -130,-77 l -80,-57 -220,-1 c -250,-1 -332,-16 -454,-80 -91,-48 -181,-137 -181,-178 0,-27 17,-20 40,18 50,81 166,154 300,190 74,20 435,34 451,18 5,-5 -26,-39 -80,-85 -148,-128 -197,-202 -180,-276 12,-55 74,-135 219,-287 195,-202 365,-413 540,-674 83,-122 87,-127 155,-161 68,-34 73,-39.1198 185,-45.53543 C 1738.4719,181.8802 1764,190 1809,208 c 80,34 168,99 222,167 62,75 76,107 95,203 41,206 -32,458 -199,686 -115,158 -452,461 -638,574 -87,53 -141,61 -214,32 z m 165,-25 c 53,-27 253,-175 334,-247 l 49,-44 -54,-41 c -118,-92 -112,-85 -101,-138 17,-78 7,-81 -60,-20 -33,30 -77,65 -99,78 -30,17 -39,28 -39,50 0,36 -72,115 -133,145 -24,12 -67,23 -94,25 -31,2 -61,11 -80,25 -17,12 -43,26 -58,32 l -28,11 79,56 c 142,100 196,113 284,68 z M 945,1668 c 25,-16 35,-30 35,-49 0,-29 32,-63 134,-138 62,-47 72,-52 116,-50 43,2 55,-2 102,-38 29,-22 71,-57 93,-76 39,-36 40,-36 14,-37 -15,0 -43,7 -62,15 -20,8 -41,15 -46,15 -5,0 -86,-70 -180,-155 -94,-85 -176,-155 -182,-155 -15,0 -299,231 -342,280 -46,50 -71,104 -63,136 8,32 121,151 215,226 83,66 99,69 166,26 z m 182,-53 c 98,-49 167,-153 113,-170 -30,-10 -58,3 -135,60 -89,67 -119,100 -112,119 10,25 76,20 134,-9 z m 638,-197 c 132,-136 194,-219 260,-353 85,-171 113,-334 85,-486 -34,-179 -214,-346 -408,-379 -89,-15 -164,-2 -251,42 l -63,33 -38,116 c -70,213 -174,397 -300,528 -59,61 -61,65 -43,81 10,9 86,78 170,154 l 152,137 55,-17 c 52,-16 56,-16 82,1 26,16 26,20 21,81 l -6,63 75,61 c 58,46 79,58 92,51 9,-5 62,-56 117,-113 z M 825,1085 c 231,-182 322,-287 424,-492 47,-94 114,-268 88,-229 -148,224 -390,528 -567,711 -74,77 -146,156 -160,175 -23,34 -22,33 26,-10 27,-25 112,-94 189,-155 z"
       id="path4"
       inkscape:connector-curvature="0"
       sodipodi:nodetypes="cccccsccsccccsccccccccccccccsccccccccsccccccssscsccscccsccccccccccccccccccccccccc" />
  </g>
</svg>
