<?xml version="1.0" encoding="UTF-8" standalone="no"?>
<svg
   xmlns:dc="http://purl.org/dc/elements/1.1/"
   xmlns:cc="http://creativecommons.org/ns#"
   xmlns:rdf="http://www.w3.org/1999/02/22-rdf-syntax-ns#"
   xmlns:svg="http://www.w3.org/2000/svg"
   xmlns="http://www.w3.org/2000/svg"
   xmlns:sodipodi="http://sodipodi.sourceforge.net/DTD/sodipodi-0.dtd"
   xmlns:inkscape="http://www.inkscape.org/namespaces/inkscape"
   width="297mm"
   height="210mm"
   version="1.0"
   viewBox="0 0 2884.8756 595.27559"
   id="svg44"
   sodipodi:docname="image18_software1.svg"
   inkscape:version="0.92.4 (5da689c313, 2019-01-14)"
   enable-background="new">
  <metadata
     id="metadata50">
    <rdf:RDF>
      <cc:Work
         rdf:about="">
        <dc:format>image/svg+xml</dc:format>
        <dc:type
           rdf:resource="http://purl.org/dc/dcmitype/StillImage" />
        <dc:title></dc:title>
      </cc:Work>
    </rdf:RDF>
  </metadata>
  <defs
     id="defs48" />
  <sodipodi:namedview
     pagecolor="#ffffff"
     bordercolor="#666666"
     borderopacity="1"
     objecttolerance="10"
     gridtolerance="10"
     guidetolerance="10"
     inkscape:pageopacity="0"
     inkscape:pageshadow="2"
     inkscape:window-width="1366"
     inkscape:window-height="705"
     id="namedview46"
     showgrid="false"
     units="mm"
     inkscape:zoom="0.30360205"
     inkscape:cx="98.184139"
     inkscape:cy="503.80454"
     inkscape:window-x="-8"
     inkscape:window-y="-8"
     inkscape:window-maximized="1"
     inkscape:current-layer="linux-8" />
  <g
     id="adobe"
     transform="matrix(0.31012832,0,0,-0.38670046,-230.16889,1252.027)">
    <path
       transform="matrix(7.5,0,0,-7.5,0,5830)"
       d="m 1132.2,182.13 c -2.1063,-0.0125 -3.7817,0.23672 -4.1817,0.63672 -0.5333,0.53333 -0.9335,7.6016 -0.9335,15.602 v 14.666 l -2.7989,-2.5332 c -3.7333,-3.3333 -12.001,-3.201 -16.801,0.26563 -14.533,10.933 -14.399,50.134 0.2676,59.201 5.8667,3.6 11.598,3.4654 16.398,-0.66797 4.8,-4 5.6015,-4.1327 5.6015,-0.66601 0,2.2667 0.9321,2.666 5.3321,2.666 h 5.3339 l -0.2675,-44.398 -0.3985,-44.268 -5.334,-0.40039 c -0.7666,-0.0667 -1.5166,-0.0993 -2.2187,-0.10352 z m 70.666,0 c -2.1062,-0.0125 -3.7816,0.23672 -4.1816,0.63672 -0.5334,0.53333 -0.9317,20.667 -0.9317,44.801 v 43.732 h 5.3321 c 4.4,0 5.3339,-0.39935 5.3339,-2.666 0,-3.4667 0.7996,-3.334 5.5996,0.66601 7.6,6.4 17.6,2.5346 23.6,-9.332 2.9333,-5.7333 3.3334,-8.4 3.4668,-20 0,-14.933 -2.3995,-23.334 -8.1329,-28.801 -4.8,-4.4 -13.6,-4.4 -18.4,0 l -3.3321,3.2012 -0.8008,-31.734 -5.3339,-0.40039 c -0.7667,-0.0667 -1.5167,-0.0993 -2.2188,-0.10352 z m -134.66,2.5039 c -3.4166,0.1 -6.7838,0.66627 -7.1171,1.5996 -0.2667,0.93333 -2.9334,12.8 -6,26.4 -2.9334,13.6 -7.0659,32 -9.1993,41.066 -4.1333,18 -4.1333,18.134 4,17.334 4.2667,-0.4 4.4003,-0.53282 6.9336,-12.133 l 2.666,-11.734 8.8008,0.40039 8.7989,0.40039 2.5332,11.6 2.6679,11.732 h 11.732 l -0.7988,-5.0664 c -2,-10.667 -16.935,-79.334 -17.602,-80.4 -0.5334,-0.93333 -3.9994,-1.2992 -7.4161,-1.1992 z m -77,0.7832 c -7.7833,0.0167 -15.317,0.4168 -15.584,1.2168 -0.4,0.8 4.2681,12.799 10.135,26.666 6,14 13.199,31.201 16.266,38.268 2.9334,7.2 5.8671,13.066 6.4004,13.066 0.5334,0 1.0659,-17.333 1.1993,-38.533 0.1333,-28.933 -0.1321,-38.8 -1.3321,-39.6 -1.2666,-0.73333 -9.3006,-1.1006 -17.084,-1.084 z m -53.166,0.0508 c -3.2833,-0.0333 -7.4849,0.0324 -13.352,0.23242 l -13.6,0.40039 0.13477,40.801 c 0,24.8 0.53203,40.267 1.332,39.467 0.66667,-0.66667 3.4676,-6.801 6.2676,-13.734 4.6667,-11.333 8.1329,-19.467 23.6,-56.4 2.4,-5.6 4.0001,-10.267 3.4668,-10.4 -2.2,-0.2 -4.5663,-0.3319 -7.8496,-0.36523 z m 130.65,15.967 c 0.5333,0.4 1.0683,1.8659 1.0683,3.1992 0,1.3333 1.1994,8.5333 2.666,16 3.6,18.533 3.8658,17.6 -4.2675,17.066 -4.2667,-0.26666 -6.9322,-0.93385 -6.7989,-1.8672 0.1334,-0.8 1.5993,-9.0656 3.1993,-18.266 1.5999,-9.2 3.4661,-16.533 4.1328,-16.133 z m 200.8,6.1152 c -1.5333,-0.0167 -2.9996,0.35065 -5.5996,1.084 -5.2,1.6 -8.5332,4.9327 -12.533,12.666 -3.0666,5.7333 -3.4668,8.2673 -3.4668,19.334 0,17.467 3.9996,25.067 15.6,30 5.7334,2.4 10.401,2.5332 17.334,0.5332 4.6667,-1.2 5.066,-1.7329 4.666,-5.5996 l -0.4003,-4.2676 -8.1329,0.40039 c -6.9333,0.4 -8.6657,6.5e-4 -11.732,-2.666 -4.4,-3.7333 -7.3351,-14.133 -4.5351,-16 0.9333,-0.66667 7.6013,-0.93412 14.668,-0.80078 14.933,0.39999 15.066,0.39973 13.6,-12.934 -1.2,-10.267 -6.6668,-18.667 -13.467,-20.533 -2.8666,-0.8 -4.4666,-1.2001 -6,-1.2168 z m -100.4,0.33594 c -2.4617,-0.0203 -4.818,0.34844 -6.668,1.1484 -5.7333,2.6667 -12.4,10.667 -13.6,16.533 -0.5333,2.8 -1.0664,10.134 -1.0664,16.4 0,9.3333 0.6654,12.533 3.3321,18 4.5333,9.0667 10.667,13.066 18.801,12.266 8,-0.66667 13.467,-4.666 17.467,-12.666 2.5334,-5.3333 3.0664,-8.2663 3.0664,-19.6 0,-11.6 -0.4006,-14.267 -3.3339,-19.867 -1.8667,-3.7333 -4.7994,-7.7331 -6.6661,-9.0664 -2.8333,-2 -7.2291,-3.1146 -11.332,-3.1484 z m 0.1895,9.2324 c 1.6948,-0.087 3.2179,1.4746 5.5429,4.8496 2.5334,3.7333 2.9336,6.1336 2.9336,16.934 0,19.067 -4.9337,27.599 -12.4,21.732 -4.5333,-3.6 -6.7996,-14.533 -5.5996,-27.066 0.8,-8 1.5989,-10.134 4.7989,-13.334 1.9833,-1.9833 3.4064,-3.0476 4.7246,-3.1152 z m 49.613,1.0098 c 0.7641,0.0531 1.6461,0.47187 2.9961,1.1719 9.6,5.2 9.4658,38.933 -0.2675,42 -7.8667,2.5333 -10.533,-3.0662 -10.533,-22.133 0,-13.733 0.1339,-14.801 3.3339,-17.867 2.25,-2.3333 3.1973,-3.2604 4.4707,-3.1719 z m -99.787,0.0391 c 1.3167,0.0333 2.6504,1.0661 4.6504,3.1328 3.2,3.0667 3.3321,3.9999 3.3321,18.533 0,14.133 -0.2665,15.6 -3.0665,18.934 -2.5333,2.8 -3.866,3.468 -6.666,2.668 -4.5333,-1.0667 -6.0001,-3.8669 -7.4668,-14.934 -1.6,-11.067 0.2661,-20.933 4.6661,-25.467 1.9333,-1.9333 3.2341,-2.9005 4.5507,-2.8672 z m -158.55,1.1328 c -0.4,0 -3.466,6.5337 -6.666,14.4 -3.3333,7.8667 -6.5345,15.067 -7.2012,16 -2.1333,2.6667 0.40144,4.1332 8.1348,4.5332 l 7.1992,0.40039 2.9336,7.0664 c 3.6,8.4 5.0667,9.5996 12,9.5996 4.9333,0 5.0662,-0.13242 4.1328,-3.7324 -0.4,-2 -4.2665,-11.733 -8.5332,-21.6 -4.2667,-9.867 -8.5335,-20 -9.4668,-22.4 -0.93333,-2.2667 -1.9999,-4.2676 -2.5332,-4.2676 z"
       style="stroke-width:0.13333"
       id="path2"
       inkscape:connector-curvature="0" />
  </g>
  <g
     id="eset"
     transform="matrix(0.38773132,0,0,-0.54739794,-1023.027,1545.6921)">
    <path
       d="m 8806.5,2595 c -661,0 -705.99,-1.999 -743.99,-18.999 -44,-20 -89.995,-62.001 -110,-101 -25,-49 -38.007,-147.99 -32.007,-252.99 7.0005,-132 19.997,-172 71.997,-224 l 41.998,-42.993 h 1553 l 43.989,39.99 c 58,54 79,125 79,270 0,140 -19.993,211 -76.993,265 -23,22 -59.998,45.998 -82.998,52.998 -30,9 -218.01,11.997 -744.01,11.997 z m -311,-49.995 h 362.01 v -212.01 c 0,-117 -3.0015,-242.99 -7.002,-279.99 l -6.0052,-67.998 h -341 c -215,0 -355.99,3.9863 -380.99,10.986 -57,16 -99.006,51.011 -126.01,106.01 -20,41 -22.998,63.998 -22.998,158 -0.9997,121 10.002,167 52.002,217 56,66 66.995,67.998 470,67.998 z m 802,-120 h 250 V 2385 c 0,-39 -0.9952,-39.99 -34.995,-39.99 h -35.01 v -240 h -110 v 240 H 9332.5 c -34,0 -35.01,0.9902 -35.01,39.99 z m -211.74,-0.9961 c 40.25,0 80.753,-3.0088 96.753,-9.0088 32,-12 54.99,-63.999 54.99,-124 v -45 l -102.99,-3.003 -103.01,-2.9882 7.9988,-32.007 c 7.9995,-30 12.01,-33.003 46.01,-33.003 26,0 40.995,6.0098 49.995,20.01 9,15 22.997,19.995 56.997,19.995 41,0 45,-2.0088 45,-24.009 0,-14 -10.994,-37.998 -23.994,-52.998 -22,-26 -30.003,-27.996 -108,-30.996 -109,-3.9999 -147,14.003 -166,78.003 -17,56 -10.003,161 11.997,196 10,14 26.995,28.999 38.995,33.999 14.999,6 55.009,9.0088 95.258,9.0088 z m -447.77,-0.835 c -25.547,0.2033 -53.732,-2.4238 -83.482,-8.1738 -21,-4 -43.003,-11.992 -48.003,-16.992 -19,-19 -27.992,-83.005 -16.992,-115 13,-36 41.993,-48.003 117.99,-48.003 40,0 64.004,-4.9961 74.004,-15.996 18,-18 18.005,-16.998 10.005,-37.998 -8.0002,-22 -99.003,-22.996 -108,-0.9961 -3.9997,11 -20.008,15 -54.008,15 -47,0 -49,-1.0088 -45,-24.009 9,-45 38,-59.995 120,-64.995 102,-5.0001 149.01,9.9941 170.01,53.994 13,27 14.002,42.997 7.002,71.997 -11,46 -35.008,59.005 -129.01,70.005 -66,8.0001 -69.99,9.003 -69.99,33.003 0,22 4.9913,24.993 35.991,27.993 23,2 42.002,-2.9971 52.002,-11.997 9,-9 33.002,-15.996 56.001,-15.996 33,0 41.001,4.0029 41.001,18.003 0,43.5 -52.881,69.557 -129.52,70.166 z m -376.1,-0.4245 c -16.813,0.2498 -33.63,-1.246 -49.38,-4.7461 -79,-17 -96.997,-41.998 -102,-143 -4.9995,-85 13.997,-136 56.997,-157 38,-19 170,-17.001 200,3.999 32,22 40.005,32.996 40.005,60.996 0,19 -5.0077,22.002 -43.007,22.002 -31,0 -44.99,-4.9951 -54.991,-19.995 -25,-41 -102,-19 -102,30 v 30 l 72.993,0.9961 c 39,1 84.005,0 100,-0.9961 26,-1 26.997,-0.01 26.997,53.994 0,43 -4.998,61.006 -22.998,81.006 -21.75,25.5 -72.184,41.994 -122.62,42.744 z"
       id="path5"
       inkscape:connector-curvature="0" />
  </g>
  <g
     transform="matrix(0.43785032,0,0,-0.43300823,1087.2824,774.47456)"
     id="linux-8"
     style="fill:#000000;stroke:none"
     inkscape:label="linux">
    <path
       d="m 659.05116,2165.4093 c -73.46695,-19.3559 -148.01429,-77.4233 -183.66737,-142.3222 -45.37665,-81.9775 -54.01982,-178.7566 -39.97467,-450.8765 l 11.88436,-241.3784 -25.92951,-54.6516 C 407.31882,1246.5775 358.70098,1171.4314 314.40473,1107.6711 220.41025,975.59617 206.3651,945.99317 152.34528,793.42378 129.65696,731.94062 95.084282,646.54733 74.556752,604.41997 45.386051,544.07538 37.823276,514.47239 37.823276,463.23641 c 0,-35.29589 2.160793,-63.76032 5.401982,-63.76032 2.160793,0 16.205945,5.69289 30.251097,12.52435 C 137.21974,442.74202 217.16906,358.48731 382.4697,92.060271 511.03687,-115.16076 532.64479,-208.52409 465.66022,-279.11588 c -32.41189,-34.1573 -43.21585,-38.71161 -95.07488,-38.71161 -32.41189,0 -99.39646,12.52435 -150.17509,28.46443 -49.69823,15.94007 -158.818254,44.4045 -240.928376,62.62173 -82.110124,18.21724 -156.657474,39.85021 -164.220244,46.68167 -19.44714,17.07866 -19.44714,43.26593 2.16079,96.779054 19.44714,47.82024 16.20595,110.441981 -9.72357,181.033763 -23.76872,66.037473 -9.72356,85.393283 58.34141,85.393283 76.708139,0 126.4063703,25.0487 144.773108,72.86894 23.768719,60.34459 20.52753,88.80901 -5.4019817,43.26593 C -20.518126,254.8768 -75.618339,217.30375 -114.51261,217.30375 c -54.01982,0 -97.23567,-14.8015 -108.03963,-36.43447 -7.56278,-15.94008 -6.48238,-44.40451 6.48237,-102.471934 16.20595,-77.42324443 16.20595,-83.1161304 -6.48237,-153.707912 -39.97467,-127.520634 -24.84912,-143.460714 173.94381,-183.310924 62.662987,-12.52435 177.18499,-44.4045 253.89313,-70.59177 167.46144,-56.92886 206.3557,-55.79028 289.54622,3.41573 85.35131,59.206 114.52201,66.03747 327.36009,72.86893 218.24009,6.83146 262.53629,-1.13858 291.70709,-52.37454 30.2511,-53.51313 75.6277,-75.14609 160.979,-75.14609 h 76.7082 l 96.1552,81.97755 c 54.0198,45.54308 148.0143,109.3034 209.5969,142.32214 112.3612,60.344586 163.1399,105.887671 163.1399,145.73787 0,23.91012 -33.4923,62.621742 -76.7082,85.393285 -61.5826,34.157315 -99.3964,99.056205 -121.0044,204.943885 -8.6431,44.40451 -21.6079,-37.57305 -14.0451,-89.9476 9.7236,-67.17604 39.9746,-104.749092 109.12,-137.767828 121.0044,-55.7902784 99.3965,-101.333364 -81.0297,-176.479452 -76.7082,-31.88016 -138.2907,-66.03748 -189.0694,-108.16483 -42.1354,-34.15732 -89.6729,-67.17604 -106.9592,-72.86893 -66.9846,-27.32585 -129.6476,-7.97004 -159.8987,47.82023 -9.7235,17.07866 -14.0451,81.97756 -14.0451,207.221041 -1.0804,100.194787 -5.402,214.052499 -9.7236,252.764119 -9.7236,76.28467 -4.3216,118.41203 20.5275,144.59929 22.6884,23.91012 43.2159,12.52435 71.3062,-36.43446 46.457,-80.83898 62.663,-93.36333 122.0848,-93.36333 41.0551,0 65.9042,6.83147 96.1553,28.46443 21.6079,15.94008 39.9746,33.01874 39.9746,38.71163 0,4.55431 22.6884,33.01874 51.8591,62.62173 l 50.7786,53.51313 v 104.7491 c -1.0804,203.8053 -91.8337,432.65936 -251.7324,633.04893 -125.3259,157.1237 -170.7026,290.3372 -184.7477,536.2699 -9.7236,167.3708 -29.1707,239.1011 -87.5122,333.603 -42.1354,66.0375 -93.99447,107.0262 -170.7026,135.4907 -66.98458,25.0487 -204.19491,36.4344 -256.05394,21.633 z m 274.42067,-372.3147 c 47.53744,-35.296 81.02977,-154.8465 59.4218,-214.0526 -3.24119,-10.2471 -18.36674,-18.2171 -33.49229,-18.2171 -24.84911,0 -25.92951,2.2771 -19.44713,44.4044 10.80396,67.1761 -16.20594,114.9963 -63.74338,114.9963 -19.44714,0 -42.13546,-7.9701 -49.69823,-17.0786 -16.20595,-20.4944 -25.92952,-97.9177 -14.04516,-114.9963 4.32159,-6.8315 45.37665,-27.3258 89.6729,-46.6817 l 81.02972,-34.1574 -3.24118,-89.9475 c -2.1608,-87.6704 -1.0804,-92.2247 41.05502,-163.9551 23.7688,-40.9888 54.0199,-109.3034 66.9846,-153.7079 12.9648,-43.2659 34.5727,-95.6405 48.6179,-116.13489 45.3766,-62.62174 78.8689,-189.00386 89.6729,-335.8803 5.402,-74.00752 12.9647,-138.90641 16.2059,-145.73787 11.8844,-20.49439 76.7082,-12.52435 97.2357,11.38577 28.0903,31.88015 34.5727,158.26222 11.8844,247.07123 -17.2864,72.86894 -82.1102,220.88402 -112.3613,257.31846 -8.6431,10.2472 -14.0451,22.7716 -10.8039,26.1873 8.6431,7.9701 86.4317,-101.33336 114.522,-161.678 36.7335,-76.28468 59.4218,-231.13116 46.457,-308.55441 -6.4823,-35.29588 -11.8843,-66.03747 -11.8843,-68.31462 0,-1.13858 15.1255,-10.2472 32.4119,-20.49439 18.3667,-10.24719 32.4118,-22.77154 32.4118,-29.60301 0,-7.97004 -6.4823,-7.97004 -17.2863,2.27716 -22.6883,20.49439 -123.1652,19.35581 -159.8986,0 -15.1256,-9.10862 -31.3315,-28.46443 -34.5727,-43.26593 -4.3216,-18.21724 -17.2864,-29.60301 -37.8139,-34.15732 -62.663,-12.52435 -77.7885,-74.00751 -61.5826,-245.93266 10.804,-104.74909 8.6432,-140.0449813 -7.5628,-241.37834 -10.8039,-66.03748 -22.6883,-119.55061 -27.0099,-119.55061 -4.3216,0 -14.0452,6.83147 -20.5276,15.94009 -9.7235,12.52434 -7.5627,35.29589 9.7236,99.05621 23.7688,93.36332 28.0904,152.56933 9.7236,165.093679 -7.5628,4.554309 -30.2511,-14.801502 -55.1002,-45.5430847 -23.7687,-29.6030053 -61.58262,-62.6217413 -83.19055,-74.0075123 -98.31606,-53.513122 -286.30503,-61.483162 -345.72682,-14.801504 -34.57269,26.187275 -65.90418,33.018738 -65.90418,13.662927 0,-5.692886 9.72357,-27.325852 21.60793,-47.820235 24.84911,-43.26593 28.0903,-102.47195 6.48237,-121.82776 -11.88436,-10.24719 -15.12554,-2.27715 -19.44713,44.40451 -3.24119,36.43447 -17.28634,77.42325 -39.97466,114.99629 -18.36674,31.88016 -33.49229,60.344587 -33.49229,64.898896 0,4.5543088 10.80396,13.66292557 23.76872,19.3558112 34.57268,15.9400798 55.10021,64.8988958 42.13546,99.0562128 -5.40199,14.8015 -52.93942,66.03747 -105.87884,111.58055 -199.87333,177.61803 -239.84799,218.60681 -259.29512,272.11994 -21.60793,59.206 -24.84912,155.98506 -5.40199,189.0038 9.72357,19.35581 11.88436,7.97004 12.96476,-61.48317 0,-64.8989 5.40198,-93.36332 23.76872,-127.52063 39.97466,-75.14609 56.18061,-56.92886 63.74338,75.14608 3.24119,62.62175 15.12555,140.045 25.92951,170.78658 24.84912,75.14608 86.43171,202.66678 104.79845,219.74544 11.88436,9.10862 14.04515,30.74157 10.80396,72.86891 -3.24119,52.3745 1.0804,70.5918 34.57268,137.7679 21.60793,43.2659 43.21586,96.779 47.53744,119.5505 l 8.64317,42.1274 46.45705,-62.6217 c 51.85902,-69.4533 88.5925,-95.6405 119.92399,-85.3933 10.80396,3.4157 58.3414,34.1573 104.79844,67.176 46.45705,33.0188 100.47686,69.4532 119.924,79.7004 36.73347,19.3558 46.45704,40.9888 18.36673,40.9888 -8.64317,0 -55.10021,-20.4944 -101.55725,-45.543 -93.99448,-51.2361 -165.30064,-59.2061 -211.75768,-27.326 -42.13546,28.4645 -32.41189,38.7117 36.73347,38.7117 50.77863,0 90.75329,10.2471 180.42619,47.8202 105.87884,44.4045 137.21033,67.1761 118.8436,85.3933 -3.24119,4.5543 -18.36674,-4.5542 -32.41189,-18.2172 -37.81387,-37.5731 -177.185,-80.839 -258.21473,-80.839 -62.66298,1.1386 -70.22576,4.5543 -112.36121,44.4045 -25.92952,23.9102 -46.45705,51.236 -46.45705,60.3446 0,7.97 29.1707,43.266 65.90418,76.2846 61.58259,58.0675 65.90418,63.7604 60.50219,100.1949 -7.56277,47.8202 -24.84911,71.7303 -51.85902,71.7303 -50.77863,0 -71.30616,-83.1161 -31.33149,-125.2434 21.60792,-22.7716 20.52753,-45.5431 0,-45.5431 -18.36674,0 -43.21586,66.0374 -43.21586,113.8577 0,81.9775 43.21586,144.5993 92.91409,132.0749 32.41189,-9.1086 68.06497,-83.1162 69.14536,-140.045 0,-35.2959 2.1608,-37.573 36.73348,-37.573 20.52753,0 44.29625,-2.2772 52.93942,-6.8315 11.88436,-4.5543 15.12555,6.8315 15.12555,55.7902 0,66.0376 18.36673,104.7492 59.4218,129.7979 34.57268,19.3558 85.35131,18.2172 115.6024,-3.4157 z"
       id="path4"
       inkscape:connector-curvature="0"
       style="stroke-width:1.10910523" />
  </g>
  <g
     id="kaspersky"
     transform="matrix(0.2118312,0,0,-0.39005775,678.11223,1323.9181)">
    <path
       d="m 7685.3,1247.3 c -24,-37 -49,-143 -44,-189 3,-23 19,-73 37,-113 38,-87 39,-137 6,-217 -23,-56 -23,-60 -7,-72 29,-23 40,-16 63,44 36,89 32,186 -10,282 -38,85 -38,134 0,214 21,46 21,47 3,61 -26,19 -29,19 -48,-10 z"
       id="path11"
       inkscape:connector-curvature="0" />
    <path
       d="m 8653.3,1247.3 c -24,-37 -44,-112 -44,-167 0,-33 11,-75 32,-126 39,-94 41,-154 8,-231 -23,-52 -23,-54 -5,-67 28,-21 38,-13 65,52 36,89 34,168 -9,263 -29,65 -33,83 -28,131 2,31 14,75 25,97 20,39 20,41 3,57 -23,21 -28,20 -47,-9 z"
       id="path13"
       inkscape:connector-curvature="0" />
    <path
       d="m 9611.3,1130.3 c -24,-12 -37,-47 -29,-78 4,-16 0,-20 -19,-20 -15,0 -24,-6 -24,-15 0,-12 16,-15 84,-15 h 85 l 1,33 c 0,17 0,41 1,51 0,39 -57,65 -99,44 z"
       id="path15"
       inkscape:connector-curvature="0" />
    <path
       d="m 7936.3,1114.3 c -16,-17 -14,-21 23,-57 l 40,-39 -36,-37 c -38,-39 -40,-63 -8,-76 12,-4 33,11 72,51 l 55,57 -59,60 c -32,32 -61,59 -65,59 -3,0 -13,-8 -22,-18 z"
       id="path17"
       inkscape:connector-curvature="0" />
    <path
       d="m 7421.3,1056.3 c -22,-38 -60,-106 -85,-150 l -45,-82 25,-11 c 13,-6 26,-11 28,-11 2,0 27,43 56,95 28,52 55,95 59,95 5,0 32,-43 61,-95 29,-52 57,-95 63,-95 6,0 18,6 27,13 17,12 5,37 -138,291 -9,17 -15,11 -51,-50 z"
       id="path19"
       inkscape:connector-curvature="0" />
    <path
       d="m 8426.3,1104.3 c -16,-17 -14,-20 24,-56 l 41,-38 -36,-37 c -20,-20 -36,-40 -36,-44 0,-7 40,-63 96,-136 8,-11 15,-11 32,-2 29,16 28,24 -13,78 -19,25 -35,51 -35,57 0,5 16,26 34,46 l 35,35 -54,58 c -30,31 -59,57 -63,57 -5,0 -16,-8 -25,-18 z"
       id="path21"
       inkscape:connector-curvature="0" />
    <path
       d="m 7147.3,1029.3 -78,-82 160,-160 20,20 20,21 -120,118 62,63 c 61,61 61,63 43,83 -10,11 -21,20 -24,19 -3,-1 -41,-38 -83,-82 z"
       id="path23"
       inkscape:connector-curvature="0" />
    <path
       d="m 8954.3,1032.3 -80,-80 85,-85 c 84,-85 85,-85 104,-65 20,20 20,20 -44,85 -38,39 -61,69 -55,73 6,4 34,33 64,64 46,49 52,59 41,72 -7,9 -18,16 -24,16 -6,0 -47,-36 -91,-80 z"
       id="path25"
       inkscape:connector-curvature="0" />
    <path
       d="m 9126.3,1094.3 c -15,-17 -11,-23 69,-102 l 86,-85 78,85 c 64,69 76,88 69,102 -15,28 -29,22 -94,-42 l -61,-60 -59,60 c -33,33 -62,60 -66,60 -3,0 -13,-8 -22,-18 z"
       id="path27"
       inkscape:connector-curvature="0" />
    <path
       d="m 6989.3,948.26 v -153 l 28,1 27,1 3,153 3,152 h -61 z"
       id="path29"
       inkscape:connector-curvature="0" />
    <path
       d="m 7829.3,952.26 v -150 h 60 v 300 h -60 z"
       id="path31"
       inkscape:connector-curvature="0" />
    <path
       d="m 8319.3,952.26 v -150 h 60 v 300 h -60 z"
       id="path33"
       inkscape:connector-curvature="0" />
    <path
       d="m 8799.3,952.26 v -150 h 60 v 300 h -60 z"
       id="path35"
       inkscape:connector-curvature="0" />
    <path
       d="m 9581.3,925.26 c -2,-50 9,-70 45,-84 47,-17 107,43 82,82 -5,8 -6,22 -3,32 5,15 -2,17 -58,17 h -64 z"
       id="path37"
       inkscape:connector-curvature="0" />
  </g>
  <g
     id="debian"
     inkscape:label="debian">
    <path
       inkscape:label="path1"
       style="stroke-width:3.02592564"
       inkscape:connector-curvature="0"
       d="m 343.16576,408.76893 c -18.30506,10.73424 -59.09287,47.5281 -78.12771,71.00967 -8.44331,10.15189 -16.58793,19.20913 -18.58956,19.8354 -8.00592,2.50536 -47.02128,79.79995 -55.83102,110.09293 -5.12504,18.12575 -12.60085,37.48854 -16.0947,43.58652 -3.14439,5.4898 -10.00925,30.66906 -14.37044,56.06656 -7.783,43.99004 -7.72514,48.48042 0.11574,123.13146 9.41929,89.67809 20.0571,131.91201 45.97749,181.87733 27.58028,53.9554 47.04682,77.9051 90.3638,112.414 58.25898,46.8597 114.3623,65.3539 165.65797,53.8099 14.11234,-3.4142 21.71806,-5.7941 17.162,-5.8703 -30.19029,-0.068 -47.96863,-4.0164 -57.045,-11.691 -5.91667,-5.1582 -12.88162,-8.4862 -16.08388,-7.4842 -6.00457,1.8788 -33.95982,-8.4002 -31.46097,-12.1853 1.09912,-1.3451 -10.58164,-10.2074 -25.66827,-20.0064 -15.43608,-9.1893 -28.07011,-19.255 -28.27374,-21.1938 -0.25473,-2.4237 -6.37503,-9.5212 -13.69626,-16.2425 -7.27045,-6.2363 -17.75736,-19.4777 -23.33138,-29.249 -26.36545,-46.324 -32.15022,-62.03865 -23.03131,-57.88069 2.55457,0.70267 0.79362,-4.25374 -3.6748,-11.36739 -4.51917,-7.59802 -12.64109,-14.06891 -18.49989,-14.73907 -19.33014,-2.96378 -33.2791,-49.168 -42.70434,-142.849 -6.01508,-61.20257 -5.92715,-68.23993 1.28,-98.03255 4.37508,-17.3904 8.14631,-36.59435 7.93586,-42.53738 0.11065,-22.56512 46.28098,-102.6004 66.8333,-115.53884 4.65079,-2.95697 8.94534,-9.30774 9.63711,-14.53089 0.98329,-10.32136 23.02252,-32.73669 36.63169,-36.99786 4.80367,-1.50303 7.45284,-3.83407 6.09932,-4.91258 -1.80487,-1.43783 6.58745,-12.0746 18.58245,-23.83863 20.59089,-20.46166 22.94168,-21.69771 71.53033,-35.39993 44.98765,-12.57398 52.74511,-13.4995 76.48548,-7.91026 46.57883,10.45953 95.73023,61.17026 112.7002,116.44271 8.71,27.81602 18.73341,119.30607 15.20948,136.93179 -1.28879,7.41281 -5.17586,17.64122 -8.4221,22.16159 -3.24609,4.52072 -5.2846,12.66824 -4.77555,17.51598 1.27303,12.11848 -23.59147,50.94024 -49.37829,77.0334 -31.03552,31.24015 -72.81238,46.81468 -102.21414,38.49249 -22.59053,-6.44984 -49.16278,-27.17523 -62.61567,-49.00012 -13.45573,-21.8249 -22.13584,-61.16706 -19.68127,-88.97113 6.03807,-68.4788 65.96258,-127.78321 118.29638,-117.62421 l 20.68391,4.04228 -12.83057,-8.00163 c -37.59038,-23.28563 -85.91642,-3.15776 -114.36235,48.79999 -29.94634,53.42917 -36.94367,116.70097 -18.69307,160.55866 9.85299,22.95217 35.43472,49.99441 61.84418,65.26358 54.02426,30.15999 127.96268,-1.98726 179.54769,-77.70811 10.03727,-14.65613 17.97145,-29.65541 17.61489,-33.04982 0.0424,-3.51871 3.63254,-12.65242 8.22558,-20.09752 9.88465,-16.11042 16.85104,-40.31965 18.56317,-63.38479 0.2844,-9.10112 2.91284,-23.44187 4.95106,-31.58941 6.11521,-24.4439 7.14235,-38.28266 2.33865,-36.78158 -2.40191,0.75152 -4.76681,-6.01856 -5.68329,-14.74395 -4.32774,-41.20415 -9.72648,-65.04728 -16.89506,-70.31562 -10.42867,-8.75314 -10.74836,-19.66785 -0.74082,-22.79916 4.80369,-1.50271 9.61408,0.99718 11.42605,6.43822 5.38475,15.83895 9.8759,7.42411 6.18723,-11.94932 -4.85282,-26.51928 -41.88188,-72.01042 -73.15278,-90.26239 -13.63129,-7.75112 -27.45915,-13.43785 -31.06105,-12.31057 -3.60276,1.12727 -10.06541,-1.35647 -15.07983,-5.79583 -6.36793,-5.51755 -11.37525,-5.95368 -19.97823,-1.25898 -6.2522,3.45833 -13.50848,5.228 -16.11397,4.0407 -15.83627,-9.0637 -45.52367,-8.28635 -82.05324,2.14187 -22.8682,6.6545 -41.58681,9.50755 -44.74652,6.99122 -5.41463,-4.3138 -6.61554,-3.93803 -26.92194,7.42248 z"
       id="path1" />
  </g>
  <g
     transform="matrix(2.8363666,0,0,3.2281531,-69.431135,-714.40556)"
     id="windows"
     inkscape:label="windows">
    <path
       id="path1_"
       d="m 203.51,67.577 c -0.92769,0 -0.66561,0.41162 0.62513,1.2338 1.5327,1.0049 1.6939,1.279 0.64519,1.3703 -0.80667,0 -1.4511,0.54848 -1.4511,1.2794 0,0.73084 -0.64593,1.5526 -1.372,1.8267 -1.21,0.54812 -1.2103,0.82184 -0.24223,1.4613 0.96803,0.63952 0.96803,1.1878 0,3.3803 -1.21,2.832 -1.4513,3.8378 -2.016,8.6796 -0.24203,1.9185 -1.1298,4.9326 -2.0172,6.6683 -0.88734,1.8271 -1.613,4.8422 -1.613,6.7607 0,1.9185 -0.48434,4.0192 -1.1297,4.5673 -0.6454,0.63949 -1.2104,1.8275 -1.1297,2.6497 0,0.82219 -0.64471,3.8366 -1.3707,6.5773 -0.72605,2.7406 -1.695,6.8521 -2.179,9.136 -0.48402,2.2839 -1.1284,4.4755 -1.4511,5.0236 -0.32269,0.4568 -1.2105,4.2024 -2.0171,8.222 -0.80671,4.0196 -1.5329,7.6738 -1.7749,8.2221 -0.56471,1.6443 -2.2582,4.7505 -3.4682,6.4863 -1.0487,1.4617 -1.0497,1.5531 0.24103,1.005 0.72606,-0.27406 1.372,-0.18238 1.372,0.27434 0,0.54811 -0.48379,0.91371 -0.9678,1.005 -0.56467,0 0.16126,0.54797 1.5326,1.0961 2.1781,0.91357 0.24164,1.0969 -11.698,1.1883 -12.342,0 -15.569,0.36546 -23.717,2.3753 -9.7611,2.4667 -21.62,7.0341 -21.62,8.313 0,1.9186 3.1464,1.3702 12.343,-2.0099 10.164,-3.7455 18.958,-5.8465 29.283,-6.9427 10.406,-1.1876 24.523,3.197 36.785,11.419 2.9041,2.0098 5.8893,3.6546 6.5347,3.6546 1.7747,0 1.9358,-0.36574 14.601,-50.246 3.7915,-14.8 7.583,-29.599 8.4704,-32.888 l 1.6945,-5.9377 -2.2594,-2.101 c -3.7915,-3.5628 -18.392,-11.146 -24.12,-12.516 -3.4688,-0.8222 -5.587,-1.2338 -6.5147,-1.2338 z m 43.162,24.694 c -0.90686,-0.19427 -1.9799,3.1929 -4.8638,14.178 -2.0974,7.9479 -7.0185,27.406 -11.133,43.211 -6.615,26.128 -8.7929,33.253 -8.7929,29.142 0,-0.82217 0.5647,-3.4711 1.21,-5.9376 1.6941,-6.3949 1.3715,-8.2228 -0.32261,-2.1934 -3.0654,10.415 -3.066,10.415 1.0482,13.703 8.793,6.7602 23.799,12.881 36.383,14.708 8.3897,1.2789 19.522,0.36532 30.654,-2.3754 8.7931,-2.2839 22.023,-7.0337 22.991,-8.404 0.32266,-0.45672 2.823,-9.7752 5.5658,-20.829 2.8234,-11.054 5.728,-22.565 6.5347,-25.58 1.3714,-5.2073 2.6626,-10.049 6.5348,-25.397 0.88733,-3.5628 2.1774,-8.6787 2.9034,-11.328 0.64541,-2.6493 1.0491,-5.3898 0.80713,-6.212 -0.80673,-2.2839 -2.9048,-1.5533 -3.4695,1.096 -0.24196,1.4617 -2.3395,9.319 -4.5176,17.632 -2.1781,8.3133 -4.7591,18.18 -5.5658,21.925 -2.0168,8.5874 -2.3389,9.8659 -5.8884,23.752 -1.6134,6.3035 -3.5506,13.795 -4.2765,16.718 -1.2907,5.116 -1.5323,5.4812 -5.5658,7.5824 -2.3395,1.1876 -5.001,2.192 -5.8884,2.192 -0.8067,0 -1.6951,0.36616 -1.8564,0.82302 -0.40336,1.2789 -17.183,5.5717 -24.846,6.3939 -7.1797,0.73091 -17.747,0.001 -23.636,-1.6432 -7.583,-2.1012 -20.57,-9.227 -16.779,-9.227 0.48404,0 0.88744,0.36489 0.88744,0.82161 0,0.45671 0.88692,1.0057 1.9356,1.1883 1.452,0.36546 2.2591,-0.18392 3.2272,-2.1023 0.72607,-1.3703 1.2904,-3.105 1.2904,-4.0186 0,-0.82217 0.56437,-2.7417 1.2904,-4.2034 0.64537,-1.553 1.5334,-4.7498 1.9368,-7.0337 1.0487,-6.8516 3.5487,-16.078 4.4361,-16.809 0.40335,-0.36531 0.80678,-1.3707 0.88744,-2.2843 0.16127,-2.832 4.5981,-22.656 5.1628,-23.112 0.3227,-0.27407 1.2911,-3.654 2.0172,-7.5823 0.8067,-3.8369 1.6945,-7.035 2.0172,-7.035 0.24203,0 0.32209,-1.7355 0.16077,-3.8367 -0.32266,-3.1061 -0.16126,-3.6538 0.88746,-3.197 0.72604,0.27407 1.5329,0.18245 1.7749,-0.27431 0.24201,-0.36545 -0.0808,-1.0056 -0.56486,-1.1883 -0.64535,-0.27408 -0.48438,-0.54733 0.40297,-0.54733 2.4201,-0.0914 0.96819,-1.5532 -6.6955,-6.4864 -3.9528,-2.5579 -7.4212,-5.0255 -7.6632,-5.5736 -0.21177,-0.37682 -0.41229,-0.61222 -0.62157,-0.65705 z m -103.72,10.324 c -0.12523,-0.0316 -0.24652,0.13113 -0.36753,0.47373 -0.3227,0.73084 -1.7745,6.6694 -3.3879,13.247 -1.5327,6.4862 -3.5495,14.526 -4.5176,17.814 -1.1294,3.9283 -1.4524,5.9379 -0.80708,6.212 1.1294,0.45677 1.2097,2.9226 0.0803,2.9226 -0.40337,0 -0.80594,-0.45644 -0.80594,-1.096 0,-1.8271 -0.88814,-0.0913 -1.6142,3.106 -0.40336,1.6444 -1.452,6.2124 -2.4201,10.232 -0.96803,3.9282 -1.5324,7.4005 -1.2904,7.6746 0.32266,0.27406 0.48445,-0.18279 0.48445,-1.005 0,-0.91357 0.40344,-1.5536 0.88748,-1.5536 0.40333,0 0.56461,0.36588 0.32261,0.914 -0.24204,0.45685 -0.0811,0.91273 0.40296,0.91273 0.56467,0 0.72561,-0.73078 0.40292,-2.1011 -0.72602,-2.4667 -0.72602,-2.4661 0,-4.9326 0.32269,-1.0964 1.0495,-1.7364 1.6142,-1.5536 0.64534,0.36532 1.1284,-1.0043 1.4511,-4.2931 0.32268,-2.5579 0.88794,-5.2071 1.372,-5.8466 0.40332,-0.54812 1.0484,-3.6546 1.2904,-6.7606 0.32266,-3.0147 0.88789,-5.5723 1.3719,-5.5723 0.40336,0 0.56494,-1.0048 0.24226,-2.101 -0.24203,-1.279 0.0801,-2.9241 0.72556,-3.929 0.64535,-0.91356 1.21,-3.2885 1.21,-5.207 0,-2.4666 0.32238,-3.3803 1.2904,-3.3803 0.88738,0 1.1301,-0.54769 0.72676,-1.8267 -0.72606,-2.5579 0.48337,-4.5686 1.3708,-2.1933 0.48404,1.3703 0.56514,1.1876 0.48448,-1.005 -0.0806,-1.553 0,-3.1966 0.24226,-3.6534 0.24199,-0.54814 0.16044,-2.193 -0.0815,-3.6546 -0.25208,-1.1991 -0.4719,-1.7914 -0.68065,-1.8441 z m 39.16,69.081 c -1.4521,0.0913 -1.5327,0.18322 -0.32264,0.54867 0.96806,0.27406 1.3717,1.0047 1.1297,2.1009 -0.24205,1.1876 0,1.5538 0.72674,1.1883 0.72601,-0.27405 0.16126,1.3697 -1.21,3.9276 -1.5327,2.8321 -3.0659,7.7647 -4.1147,13.155 -0.96803,4.7505 -2.0168,8.8619 -2.4201,9.136 -0.40335,0.27406 -0.88769,1.5531 -1.1297,2.7407 -1.6941,10.049 -2.9041,15.074 -3.6302,15.348 -0.48402,0.1828 -0.88745,2.1009 -0.88745,4.202 0,2.1012 -0.32221,4.2027 -0.72555,4.7508 -0.88738,1.0048 -3.8719,12.241 -4.598,17.174 -0.242,2.0098 -0.96884,4.477 -1.6142,5.6648 -0.96803,1.6444 -0.96742,2.1009 -0.16077,2.4662 0.80672,0.36546 0.80637,0.54741 0.0803,0.54741 -0.56468,0.0913 -1.0482,0.73176 -1.0482,1.4627 0,0.73078 -0.64593,1.3699 -1.3719,1.4613 -1.1294,0 -1.2103,0.18322 -0.24225,0.54868 3.5494,1.5531 11.375,6.0288 11.052,6.303 -0.16143,0.27406 -2.2588,-0.36518 -4.5176,-1.4614 -14.359,-6.3949 -34.124,-5.5735 -56.147,2.283 -7.6637,2.7407 -7.7445,2.7416 -5.4051,0.4577 1.0487,-1.005 3.0656,-2.0104 4.5176,-2.2844 2.8235,-0.63938 3.7112,-3.1969 1.1297,-3.1969 -0.80669,0 -1.4523,-0.45728 -1.4523,-0.91414 0,-0.54811 0.72681,-0.91399 1.6142,-0.91399 2.0167,0 2.9037,-2.2839 1.613,-4.1109 -0.72603,-0.91357 -0.72572,-1.3704 -0.0803,-1.3704 0.48399,0 0.88745,-0.82203 0.88745,-1.7356 0,-1.005 0.40256,-2.1014 0.80589,-2.3754 0.48404,-0.36532 0.64617,-1.0046 0.40415,-1.4613 -0.32268,-0.45671 -0.16143,-0.82175 0.32264,-0.82175 0.40329,0 1.048,-1.827 1.3707,-4.111 0.24201,-2.2839 0.88705,-4.1109 1.2904,-4.1109 0.48402,0 0.56495,-1.4622 0.24226,-3.6547 -0.40334,-2.9234 -0.32281,-3.6547 0.64518,-3.6547 0.80674,0 1.4522,-1.6438 2.0975,-5.2979 1.7747,-10.323 2.2595,-12.515 3.1468,-14.525 0.56474,-1.0962 0.72567,-2.65 0.40298,-3.5636 -0.32267,-1.0962 -0.2424,-1.3708 0.40296,-0.914 0.88737,0.63938 1.2104,-0.27406 2.0172,-5.8468 0.48401,-3.3801 0.88791,-4.9332 1.3719,-5.4813 1.0487,-1.0962 2.4196,-5.6641 1.9356,-6.4863 -0.24199,-0.54811 -0.0801,-1.4613 0.48449,-2.192 0.64537,-0.91357 0.64537,-1.3699 0,-1.8267 -0.64537,-0.45672 -0.40382,-1.0968 0.72555,-1.919 0.88738,-0.73078 1.4517,-2.0101 1.2904,-3.0151 -0.16126,-1.1875 0.48465,-2.1916 2.2594,-3.2878 l 2.5808,-1.4627 -2.5808,0.54854 c -1.452,0.36546 -4.6788,1.4621 -7.2603,2.6497 -3.3881,1.4617 -4.7594,2.5576 -5.1628,4.202 -0.32266,1.279 -1.5327,5.9386 -2.7427,10.506 -1.1294,4.4765 -4.4368,17.265 -7.2603,28.319 -2.8235,11.054 -6.6152,25.854 -8.39,32.797 -3.6302,13.795 -3.9529,16.536 -2.0975,17.267 0.64539,0.36531 4.679,-0.82302 9.0352,-2.5586 18.796,-7.3084 35.656,-9.5012 47.434,-6.1211 7.6636,2.1926 14.117,5.2995 21.619,10.415 6.857,4.6591 7.0182,4.4762 10.326,-8.4962 6.0503,-24.027 16.376,-64.04 18.151,-70.527 1.0487,-3.9284 1.7747,-7.491 1.5326,-7.9477 -1.8554,-3.2888 -23.879,-14.8 -28.073,-14.526 z m 39.197,21.172 c -0.19159,0.0463 -0.23281,0.3882 -0.23281,1.0277 0,0.82217 -0.64527,3.8376 -1.5326,6.6696 -1.2908,4.6591 -3.4688,12.972 -9.6804,37.73 -0.80671,3.2888 -2.258,8.9519 -3.226,12.515 -0.88736,3.6543 -2.421,9.6841 -3.3891,13.247 -0.88735,3.6543 -2.1777,8.3133 -2.8231,10.323 -0.64535,2.1012 -1.1297,4.3848 -1.1297,5.207 0,0.73092 -0.80686,1.7359 -1.7749,2.0101 -1.7747,0.54811 -1.6128,0.73147 1.372,2.9239 10.648,7.5825 22.346,12.424 35.656,14.708 7.9863,1.3704 10.407,1.37 17.828,0.45643 10.971,-1.4617 17.989,-3.1069 27.589,-6.6698 8.8737,-3.2887 9.4379,-3.654 10.406,-7.5824 0.40332,-1.553 2.7427,-10.689 5.1628,-20.19 2.5008,-9.5923 5.405,-21.102 6.6151,-25.579 10.245,-39.1 10.406,-39.831 9.1156,-40.745 -0.56467,-0.45685 -1.21,-0.45643 -1.5326,-0.0913 -0.40338,0.54825 -6.5334,24.117 -10.809,41.748 -2.9848,12.059 -11.698,45.496 -11.859,45.679 -0.16143,0 -4.1947,1.8266 -9.1156,3.9278 -26.056,11.054 -49.45,10.415 -69.053,-2.1011 -2.6621,-1.7358 -5.244,-3.197 -5.6473,-3.197 -0.40333,0 -0.72554,-0.45714 -0.72554,-0.914 0,-0.54811 -0.56471,-0.91399 -1.2101,-0.91399 -0.64537,0 -1.21,-0.45587 -1.21,-0.91273 0,-0.54797 0.32218,-0.91385 0.72556,-0.91385 0.484,0 1.0496,0.36588 1.2916,0.91385 0.24202,0.45686 1.2093,0.91273 2.016,0.91273 0.80668,0 1.6132,0.54924 1.8553,1.0974 0.40332,1.6444 2.985,-0.82315 2.985,-2.833 0,-0.82232 0.32337,-1.9187 0.72674,-2.3754 0.32269,-0.54812 1.129,-3.0146 1.613,-5.4813 0.56471,-2.5581 1.2912,-5.3892 1.6946,-6.394 0.72605,-2.1012 2.8231,-9.7755 2.8231,-10.506 0,-0.27406 0.24214,-0.91357 0.56484,-1.3704 0.64533,-1.1876 3.0653,-14.343 3.0653,-16.809 0,-0.91357 0.56471,-1.919 1.2101,-2.2844 0.8067,-0.36532 1.2101,-1.8263 1.2101,-4.6583 0,-2.832 0.48392,-4.7511 1.5326,-6.03 0.96803,-1.1876 1.6945,-3.8364 2.0172,-7.6733 0.64535,-7.217 1.1284,-8.6797 2.6612,-8.6797 0.88737,0 1.0494,-0.63853 0.72674,-2.283 -0.3227,-1.4617 0,-3.1069 0.8071,-4.5686 0.8067,-1.3704 0.96766,-2.283 0.40296,-2.283 -0.48402,0 -1.6134,-0.7312 -2.4201,-1.6446 -0.88735,-0.82231 -2.0977,-2.0097 -2.6623,-2.4664 -0.56471,-0.54811 -1.6938,-1.4625 -2.5005,-2.1933 -0.60506,-0.54826 -0.94754,-0.79915 -1.1392,-0.75338 z"
       style="stroke-width:0.085847"
       inkscape:connector-curvature="0"
       inkscape:label="path1_" />
  </g>
</svg>
