<?xml version="1.0" encoding="UTF-8" standalone="no"?>
<svg
   xmlns:dc="http://purl.org/dc/elements/1.1/"
   xmlns:cc="http://creativecommons.org/ns#"
   xmlns:rdf="http://www.w3.org/1999/02/22-rdf-syntax-ns#"
   xmlns:svg="http://www.w3.org/2000/svg"
   xmlns="http://www.w3.org/2000/svg"
   xmlns:sodipodi="http://sodipodi.sourceforge.net/DTD/sodipodi-0.dtd"
   xmlns:inkscape="http://www.inkscape.org/namespaces/inkscape"
   id="svg44"
   width="500"
   height="300"
   style="enable-background:new"
   version="1.0"
   viewBox="0 0 375 225"
   sodipodi:docname="image18_software1.svg"
   inkscape:version="0.92.4 (5da689c313, 2019-01-14)">
  <metadata
     id="metadata40">
    <rdf:RDF>
      <cc:Work
         rdf:about="">
        <dc:format>image/svg+xml</dc:format>
        <dc:type
           rdf:resource="http://purl.org/dc/dcmitype/StillImage" />
        <dc:title></dc:title>
      </cc:Work>
    </rdf:RDF>
  </metadata>
  <defs
     id="defs38">
    <inkscape:path-effect
       effect="spiro"
       id="path-effect1092"
       is_visible="true" />
    <inkscape:path-effect
       effect="spiro"
       id="path-effect1026"
       is_visible="true" />
    <inkscape:path-effect
       effect="spiro"
       id="path-effect1022"
       is_visible="true" />
    <inkscape:path-effect
       effect="spiro"
       id="path-effect213"
       is_visible="true" />
  </defs>
  <sodipodi:namedview
     pagecolor="#ffffff"
     bordercolor="#666666"
     borderopacity="1"
     objecttolerance="10"
     gridtolerance="10"
     guidetolerance="10"
     inkscape:pageopacity="0"
     inkscape:pageshadow="2"
     inkscape:window-width="1366"
     inkscape:window-height="705"
     id="namedview36"
     showgrid="false"
     inkscape:zoom="2.1552512"
     inkscape:cx="179.56447"
     inkscape:cy="118.00554"
     inkscape:window-x="-8"
     inkscape:window-y="-8"
     inkscape:window-maximized="1"
     inkscape:current-layer="debian"
     units="px"
     fit-margin-right="-0.1"
     inkscape:snap-path-clip="false"
     showguides="false" />
  <g
     id="adobe"
     inkscape:label="adobe">
    <rect
       style="opacity:1;fill:#e6e6e6;fill-opacity:1;fill-rule:nonzero;stroke:none;stroke-width:0.22041808;stroke-linecap:round;stroke-linejoin:round;stroke-miterlimit:4;stroke-dasharray:none;stroke-opacity:1"
       id="rect178"
       width="131.08951"
       height="23.889954"
       x="210.77083"
       y="22.08626" />
    <path
       id="path2"
       d="m 285.74976,23.527919 c -0.68039,-0.0029 -1.22162,0.05441 -1.35083,0.146354 -0.17227,0.122587 -0.30154,1.747276 -0.30154,3.586371 v 3.371226 l -0.90415,-0.582272 c -1.20597,-0.766188 -3.8767,-0.735785 -5.42733,0.06105 -4.6947,2.513034 -4.65119,11.523462 0.0865,13.607799 1.89511,0.827483 3.7465,0.796529 5.29682,-0.153538 1.55054,-0.919425 1.80944,-0.949919 1.80944,-0.153087 0,0.521007 0.3011,0.612797 1.72244,0.612797 h 1.723 l -0.0865,-10.205007 -0.12872,-10.175279 -1.72303,-0.09203 c -0.24764,-0.01533 -0.48989,-0.02282 -0.7167,-0.02379 z m 22.82743,0 c -0.68034,-0.0029 -1.22157,0.05441 -1.35078,0.146354 -0.1723,0.122587 -0.30097,4.750364 -0.30097,10.297868 v 10.052076 h 1.72244 c 1.42132,0 1.723,-0.09179 1.723,-0.612797 0,-0.796835 0.25829,-0.766341 1.80883,0.153084 2.45503,1.47108 5.68533,0.58261 7.6235,-2.145018 0.94755,-1.317844 1.07677,-1.930794 1.11988,-4.597127 0,-3.43252 -0.77509,-5.363313 -2.62718,-6.620167 -1.55054,-1.011368 -4.3932,-1.011368 -5.94375,0 l -1.07637,0.735816 -0.25869,-7.294107 -1.72299,-0.09203 c -0.24768,-0.01533 -0.48993,-0.02282 -0.71674,-0.02379 z m -43.50134,0.575529 c -1.10364,0.02299 -2.19134,0.153146 -2.29903,0.367678 -0.0862,0.214533 -0.94754,2.942161 -1.93817,6.068207 -0.94755,3.126045 -2.28248,7.355401 -2.97166,9.439432 -1.33519,4.137413 -1.33519,4.168061 1.29212,3.984175 1.37826,-0.09194 1.42141,-0.12247 2.23976,-2.788861 l 0.86119,-2.697134 5.68532,0.184066 0.81831,2.666333 0.8618,2.696674 h 3.78979 l -0.25804,-1.164544 c -0.64606,-2.451862 -5.4704,-18.235266 -5.68619,-18.480446 -0.17231,-0.214533 -1.29195,-0.29863 -2.39563,-0.275644 z m -24.87329,0.180024 c -2.51424,0.0039 -4.94795,0.0958 -5.03409,0.279689 -0.12922,0.183885 1.37873,2.941915 3.27388,6.129501 1.93818,3.217988 4.26365,7.171823 5.25462,8.796141 0.94755,1.654965 1.89524,3.003303 2.06751,3.003303 0.17231,0 0.34432,-3.984177 0.38741,-8.85713 0.043,-6.650509 -0.0427,-8.918424 -0.4303,-9.102309 -0.40915,-0.168561 -3.00435,-0.25298 -5.51864,-0.249164 z m -17.17398,0.01168 c -1.06062,-0.0077 -2.41786,0.0074 -4.3131,0.05342 l -4.3932,0.09203 0.0435,9.378443 c 0,5.700436 0.17186,9.255547 0.43027,9.071662 0.21536,-0.153238 1.12014,-1.563268 2.02463,-3.156693 1.50746,-2.604977 2.62718,-4.474536 7.6235,-12.963895 0.77527,-1.287196 1.29216,-2.35992 1.11988,-2.390506 -0.71067,-0.04597 -1.47504,-0.07629 -2.53566,-0.08395 z m 42.20404,3.670038 c 0.17228,0.09194 0.3451,0.428882 0.3451,0.735357 0,0.306469 0.38744,1.96144 0.86119,3.6777 1.16291,4.260004 1.24879,4.045472 -1.37852,3.922881 -1.37825,-0.06129 -2.23932,-0.214652 -2.19625,-0.429187 0.0431,-0.183886 0.51663,-2.083786 1.03348,-4.198709 0.51681,-2.114678 1.11967,-3.800291 1.33501,-3.708348 z m 64.86438,1.405618 c -0.49531,-0.0038 -0.96896,0.0806 -1.80884,0.249164 -1.67975,0.36777 -2.75648,1.133804 -4.04855,2.911359 -0.99062,1.317844 -1.11988,1.900299 -1.11988,4.443889 0,4.014824 1.29199,5.761732 5.03926,6.895689 1.85204,0.551655 3.35985,0.582272 5.59919,0.122559 1.50746,-0.275827 1.63647,-0.398325 1.50725,-1.287103 l -0.12931,-0.980935 -2.62718,0.09203 c -2.23967,0.09194 -2.79929,0 -3.78978,-0.612797 -1.42134,-0.858131 -2.36945,-3.248636 -1.46496,-3.677701 0.30148,-0.153238 2.45545,-0.214714 4.7382,-0.184063 4.8239,0.09194 4.86697,0.09188 4.3932,-2.972961 -0.38763,-2.359919 -2.15357,-4.290651 -4.35013,-4.719716 -0.92602,-0.183885 -1.44287,-0.275852 -1.93818,-0.279689 z m -32.43219,0.07722 c -0.79521,-0.0047 -1.55635,0.08009 -2.15396,0.263967 -1.85203,0.61295 -4.00557,2.451862 -4.39321,3.800291 -0.17226,0.643598 -0.34448,2.329364 -0.34448,3.769643 0,2.145326 0.21496,2.880804 1.07639,4.137413 1.46439,2.084031 3.44574,3.003303 6.07339,2.819418 2.58423,-0.153241 4.35013,-1.07251 5.64225,-2.91136 0.81834,-1.2259 0.99053,-1.900053 0.99053,-4.505183 0,-2.666333 -0.1294,-3.279283 -1.07693,-4.566479 -0.60299,-0.85813 -1.55037,-1.777494 -2.15336,-2.083969 -0.91526,-0.459713 -2.33521,-0.715926 -3.66057,-0.72368 z m 0.0612,2.122126 c 0.54748,-0.02 1.03947,0.338961 1.79053,1.11471 0.81835,0.858131 0.94765,1.409847 0.94765,3.892233 0,4.382594 -1.59374,6.343728 -4.00557,4.995238 -1.4644,-0.827483 -2.19647,-3.340579 -1.80884,-6.221444 0.25843,-1.838851 0.5165,-2.329364 1.55021,-3.064751 0.64066,-0.455881 1.10036,-0.700509 1.52615,-0.716048 z m 16.02659,0.232108 c 0.24683,0.0122 0.53175,0.108462 0.96784,0.269367 3.10108,1.195253 3.05775,8.949072 -0.0864,9.653964 -2.54116,0.582303 -3.4025,-0.70477 -3.4025,-5.087485 0,-3.156694 0.0432,-3.40218 1.07694,-4.106766 0.72682,-0.536331 1.03284,-0.749424 1.44417,-0.729074 z m -32.23406,0.009 c 0.42533,0.0077 0.85615,0.245052 1.50221,0.720094 1.0337,0.704893 1.07638,0.919395 1.07638,4.260003 0,3.248636 -0.0861,3.585759 -0.99057,4.351947 -0.81835,0.643597 -1.24884,0.797141 -2.15333,0.613256 -1.46439,-0.245186 -1.93821,-0.888839 -2.412,-3.432521 -0.51684,-2.543804 0.086,-4.811658 1.5073,-5.853674 0.62453,-0.444388 1.04473,-0.666705 1.47001,-0.659044 z m -51.21529,0.260381 c -0.12921,0 -1.11962,1.50182 -2.15331,3.309931 -1.07677,1.808203 -2.11085,3.463168 -2.32621,3.677701 -0.68913,0.61295 0.12967,0.950042 2.62778,1.041984 l 2.32556,0.09203 0.94764,1.624257 c 1.16291,1.930792 1.63668,2.206528 3.87636,2.206528 1.59361,0 1.6365,-0.03044 1.33501,-0.857916 -0.12921,-0.459712 -1.37821,-2.696919 -2.75647,-4.964895 -1.37826,-2.267977 -2.75657,-4.597127 -3.05806,-5.148782 -0.30149,-0.521007 -0.64601,-0.980935 -0.8183,-0.980935 z"
       style="stroke-width:0.03633118"
       inkscape:connector-curvature="0" />
  </g>
  <g
     id="eset"
     inkscape:label="eset">
    <path
       style="stroke-width:0.06055696"
       id="path5"
       d="m 271.11992,60.998796 c -46.41786,0 -49.57723,0.104389 -52.24573,0.992145 -3.08984,1.044418 -6.31978,3.237749 -7.7246,5.274312 -1.75559,2.558824 -2.669,7.728172 -2.24765,13.21137 0.49159,6.893155 1.40426,8.981996 5.05589,11.697483 l 2.94926,2.245132 h 109.0574 l 3.08907,-2.088313 c 4.07298,-2.819932 5.54768,-6.527617 5.54768,-14.099647 0,-7.310927 -1.40399,-11.018612 -5.40674,-13.838541 -1.61514,-1.14886 -4.21328,-2.402057 -5.82842,-2.767603 -2.10672,-0.469989 -15.30948,-0.626495 -52.24714,-0.626495 z m -21.83957,2.610784 h 25.42168 v 11.071355 c 0,6.109846 -0.21077,12.689161 -0.4917,14.621332 l -0.42171,3.55092 h -23.94628 c -15.09809,0 -24.99893,-0.208172 -26.75452,-0.573703 -4.00276,-0.835535 -6.95258,-2.663837 -8.8489,-5.53594 -1.40448,-2.141053 -1.615,-3.342032 -1.615,-8.2509 -0.0702,-6.31873 0.70237,-8.720892 3.65177,-11.331938 3.93253,-3.446579 4.70464,-3.550917 33.00514,-3.550917 z m 56.31941,6.266509 h 17.55592 v 2.089098 c 0,2.036615 -0.0699,2.088314 -2.45747,2.088314 h -2.45853 v 12.533015 h -7.72461 V 74.053501 h -2.45748 c -2.38761,0 -2.45853,-0.05171 -2.45853,-2.088314 z m -14.86916,0.05202 c 2.8265,0 5.67076,0.157123 6.79435,0.470448 2.24716,0.626651 3.8616,3.342086 3.8616,6.475392 v 2.34994 l -7.23234,0.156825 -7.23374,0.156041 0.5617,1.671435 c 0.56175,1.566633 0.84338,1.723452 3.23099,1.723452 1.82582,0 2.87882,-0.313841 3.51083,-1.044945 0.63202,-0.783309 1.61495,-1.044153 4.00255,-1.044153 2.87917,0 3.16006,0.104897 3.16006,1.253772 0,0.731091 -0.77204,1.984289 -1.68494,2.767598 -1.54492,1.357744 -2.10692,1.461978 -7.58416,1.618642 -7.65439,0.208882 -10.32289,-0.731247 -11.65714,-4.073387 -1.1938,-2.924369 -0.70244,-8.407568 0.84248,-10.2353 0.70223,-0.731093 1.89568,-1.514354 2.73837,-1.775458 1.05329,-0.313326 3.86293,-0.470448 6.68937,-0.470448 z m -31.44407,0.0436 c -1.79401,-0.01062 -3.77326,0.126573 -5.86242,0.426843 -1.4747,0.208884 -3.01982,0.626234 -3.37095,0.887338 -1.33424,0.992197 -1.9657,4.334596 -1.19324,6.005405 0.91291,1.879951 2.94891,2.506759 8.2857,2.506759 2.80895,0 4.4946,0.260905 5.19683,0.835325 1.26403,0.93998 1.26438,0.887653 0.70259,1.984296 -0.56181,1.148854 -6.95236,1.20087 -7.58416,0.05199 -0.28087,-0.574434 -1.40504,-0.783316 -3.79264,-0.783316 -3.30052,0 -3.44097,0.05267 -3.16007,1.253773 0.63202,2.349941 2.6685,3.132994 8.42685,3.394095 7.16282,0.261114 10.46403,-0.521898 11.93872,-2.819614 0.91292,-1.409962 0.98328,-2.245342 0.49171,-3.759749 -0.77246,-2.402162 -2.45839,-3.081295 -9.05956,-3.655725 -4.63476,-0.417772 -4.91496,-0.470144 -4.91496,-1.723446 0,-1.14886 0.35052,-1.305157 2.52743,-1.46182 1.61514,-0.104442 2.94953,0.156512 3.65177,0.626495 0.63201,0.469987 2.31752,0.835325 3.9326,0.835325 2.31738,0 2.87924,-0.209035 2.87924,-0.940133 0,-2.271609 -3.7135,-3.63233 -9.09537,-3.664133 z m -26.41114,0.02217 c -1.18067,-0.01304 -2.36162,0.06507 -3.46764,0.247846 -5.54768,0.887755 -6.81149,2.193173 -7.16282,7.467589 -0.35109,4.438776 0.98292,7.102044 4.00254,8.19868 2.6685,0.992198 11.93803,0.887808 14.04474,-0.208828 2.24715,-1.148862 2.8093,-1.723086 2.8093,-3.185267 0,-0.992199 -0.35166,-1.148963 -3.02011,-1.148963 -2.17694,0 -3.15937,0.260844 -3.86167,1.044153 -1.75559,2.14106 -7.16282,0.992198 -7.16282,-1.566626 V 79.27584 l 5.12584,-0.052 c 2.73873,-0.0522 5.89914,0 7.02237,0.052 1.82582,0.0522 1.89583,5.2e-4 1.89583,-2.819617 0,-2.245498 -0.35098,-3.185788 -1.615,-4.230207 -1.52737,-1.331633 -5.06904,-2.192965 -8.61084,-2.23213 z"
       inkscape:connector-curvature="0" />
    <path
       style="opacity:1;fill:#e6e6e6;fill-opacity:1;fill-rule:nonzero;stroke:none;stroke-width:0.1426612;stroke-linecap:round;stroke-linejoin:round;stroke-miterlimit:4;stroke-dasharray:none;stroke-opacity:1"
       d="m 289.69315,69.896287 c -3.33088,-0.05761 -7.55072,0.246324 -8.92135,3.059746 -1.35058,3.292149 -1.38827,7.036154 0.0167,10.323734 1.78704,3.502123 7.34409,3.267316 11.33558,3.20162 2.90955,-0.03332 6.6492,0.119089 8.1579,-2.281357 1.12516,-0.933742 1.93888,-3.156447 -0.46998,-3.326861 -2.4238,-0.507942 -4.8519,0.181804 -6.55804,1.537675 -1.58593,0.361326 -3.87088,0.699345 -5.19325,-0.225517 -0.44075,-0.780113 -1.2699,-2.281129 -0.5879,-2.621714 4.65689,0.01171 9.33082,0.02951 13.95821,-0.438037 0.4192,-2.311991 -0.1152,-5.131636 -1.7754,-7.258131 -2.01051,-2.567636 -6.76562,-1.724068 -9.9625,-1.971158 z"
       id="path151"
       inkscape:connector-curvature="0" />
    <path
       style="opacity:1;fill:#e6e6e6;fill-opacity:1;fill-rule:nonzero;stroke:none;stroke-width:0.1426612;stroke-linecap:round;stroke-linejoin:round;stroke-miterlimit:4;stroke-dasharray:none;stroke-opacity:1"
       d="m 305.66761,69.99312 c 0.15033,1.344166 -0.80224,4.211205 2.01124,4.213979 2.04144,-0.150302 3.42175,0.08203 2.69864,2.029004 0,3.35394 0,6.707881 0,10.061821 2.25344,0.612782 5.12513,0.06561 7.60505,0.253459 0.77844,-2.253613 0.10021,-4.97614 0.32615,-7.407607 0.63802,-1.582564 -1.56427,-5.372457 1.71269,-4.904181 2.00296,0.337329 3.76423,-0.927251 3.41867,-2.50408 1.02917,-2.46236 -2.02345,-2.088178 -4.17299,-1.995859 -4.48416,0.155718 -9.30071,-0.312192 -13.57607,0.235294 z"
       id="path155"
       inkscape:connector-curvature="0" />
    <path
       style="opacity:1;fill:#e6e6e6;fill-opacity:1;fill-rule:nonzero;stroke:none;stroke-width:0.1426612;stroke-linecap:round;stroke-linejoin:round;stroke-miterlimit:4;stroke-dasharray:none;stroke-opacity:1"
       d="m 254.55219,63.433635 c -10.91156,0.172336 -21.92197,-0.283891 -32.75677,0.892321 -5.42006,1.214118 -8.89167,5.61555 -9.05586,9.874535 -0.33604,4.3645 -0.82273,9.175693 1.94086,13.152877 2.46994,3.321779 7.18232,5.309692 12.10045,5.237717 15.25397,0.202515 30.53182,0.445542 45.77959,0.072 2.47829,0.01836 1.30642,-2.507203 1.69011,-3.656198 0.33232,-8.44194 0.33311,-16.888889 0.47583,-25.333435 -2.82131,-0.613837 -6.26465,-0.06726 -9.31773,-0.248702 -3.61883,0.003 -7.23766,0.0059 -10.85648,0.0089 z m 3.58927,6.721963 c 3.21112,0.169131 7.24913,-0.02946 9.52597,2.055647 1.07863,0.853365 0.61968,2.317986 -1.05872,2.149235 -3.68029,0.601006 -7.06859,-2.296951 -10.61897,-0.881921 -1.57743,0.813425 -0.38908,2.77049 1.43671,2.56972 3.64132,0.753875 8.3217,0.173452 11.06638,2.563224 2.77357,2.928911 -0.33369,7.716437 -5.00759,7.557088 -4.28244,-0.03063 -8.90426,0.667352 -12.93545,-0.715543 -1.14556,-0.65009 -2.70954,-2.286073 -1.61485,-3.304117 2.7168,-0.737581 5.59072,0.118451 7.94291,1.171131 2.17735,0.48397 6.03496,0.522551 6.52208,-1.668307 -1.12544,-2.02197 -4.76113,-1.821894 -7.16174,-1.961253 -2.92284,0.03971 -7.20948,-0.430025 -7.39607,-3.302971 -0.36121,-2.08581 -0.0279,-5.117614 3.24891,-5.604775 1.96703,-0.467981 4.01235,-0.608126 6.05043,-0.627158 z m -25.53472,0.122183 c 3.47263,0.051 8.52503,0.335377 9.82536,3.379499 0.5776,1.744915 0.97959,3.640509 0.27346,5.399405 -4.45147,0 -8.90295,0 -13.35442,0 -1.05905,1.59083 0.0742,4.009147 2.62924,4.322516 3.08205,0.894547 4.87465,-2.314045 7.95793,-1.815825 1.36982,-0.124921 3.72892,-0.108658 3.06998,1.470077 -1.06055,3.06363 -5.90018,3.456676 -9.30269,3.311911 -3.48888,-0.106878 -8.41267,0.451425 -10.16822,-2.592469 -1.60395,-2.794334 -0.77541,-6.08055 -0.72338,-9.006373 0.31277,-3.841486 5.8273,-4.530451 9.79274,-4.468741 z"
       id="path157"
       inkscape:connector-curvature="0" />
  </g>
  <g
     id="linux-8"
     inkscape:label="linux-8">
    <path
       id="path4"
       d="m 265.61307,115.08567 c -3.40618,0.76688 -6.86224,3.06748 -8.51555,5.63868 -2.10384,3.24794 -2.50455,7.08241 -1.85339,17.86372 l 0.55099,9.5634 -1.20221,2.1653 c -0.65117,1.17287 -2.90526,4.15017 -4.95903,6.67632 -4.35788,5.23258 -5.0091,6.40571 -7.51365,12.45049 -1.05189,2.43594 -2.65481,5.81933 -3.60656,7.48812 -1.35246,2.39086 -1.70307,3.56371 -1.70307,5.59352 0,1.39841 0.10019,2.52614 0.25046,2.52614 0.10018,0 0.75136,-0.22555 1.40255,-0.4962 2.95533,-1.21798 6.66194,2.12017 14.32581,12.67593 5.96094,8.21 6.96287,11.90889 3.85702,14.70604 -1.50272,1.3533 -2.00364,1.53376 -4.408,1.53376 -1.50273,0 -4.60834,-0.4962 -6.96284,-1.12774 -2.30418,-0.63153 -7.36344,-1.75927 -11.17035,-2.48106 -3.80689,-0.72176 -7.26328,-1.57885 -7.61378,-1.84952 -0.90164,-0.67667 -0.90164,-1.71419 0.10017,-3.83436 0.90163,-1.89462 0.75137,-4.3756 -0.45081,-7.17236 -1.10202,-2.61636 -0.45083,-3.38324 2.70488,-3.38324 3.55644,0 5.86079,-0.99243 6.71203,-2.88705 0.67913,-1.47338 1.85411,-5.90492 1.62898,-6.02813 -0.14021,-0.0769 -1.41812,3.62163 -1.87943,4.31418 -1.20221,1.75932 -3.75682,3.24795 -5.55991,3.24795 -2.50455,0 -4.50818,0.58644 -5.0091,1.4435 -0.35063,0.63154 -0.30054,1.75932 0.30055,4.05983 0.75136,3.06748 0.75136,3.29304 -0.30055,6.08994 -1.85337,5.05231 -1.15208,5.68385 8.06446,7.2627 2.90526,0.49619 8.21466,1.75926 11.77119,2.79683 7.76401,2.25551 9.56755,2.21038 13.42453,-0.13534 3.95715,-2.34571 5.30953,-2.61636 15.17752,-2.88704 10.11834,-0.27066 12.17223,0.0451 13.52465,2.07508 1.40255,2.12018 3.50638,2.97726 7.46359,2.97726 h 3.55644 l 4.45808,-3.24794 c 2.50455,-1.8044 6.86224,-4.33043 9.71776,-5.63868 5.20939,-2.39084 7.56372,-4.19532 7.56372,-5.77417 0,-0.94731 -1.5528,-2.48107 -3.55644,-3.38325 -2.8552,-1.35328 -5.20986,-8.70602 -6.21131,-12.90136 -0.40072,-1.75931 -0.40041,6.27021 -0.0498,8.3455 0.45081,2.66149 1.85337,4.15016 5.05917,5.4584 5.60997,2.21039 4.60833,4.01466 -3.75683,6.99209 -3.55644,1.26307 -6.41159,2.61636 -8.76592,4.28526 -1.95352,1.3533 -4.15755,2.66149 -4.95904,2.88705 -3.10564,1.08265 -6.011,0.31577 -7.4135,-1.89461 -0.45081,-0.67667 -0.65117,-3.24795 -0.65117,-8.20999 -0.0501,-3.9695 -0.25046,-8.4806 -0.45083,-10.01428 -0.45081,-3.02239 -0.20035,-4.69137 0.95176,-5.72902 1.05189,-0.94729 2.00364,-0.49618 3.30599,1.44352 2.1539,3.20281 2.90525,3.699 5.66004,3.699 1.90344,0 3.05553,-0.27065 4.45807,-1.12773 1.00182,-0.63153 1.85338,-1.3082 1.85338,-1.53376 0,-0.18043 1.05189,-1.3082 2.40436,-2.48106 l 2.35428,-2.12017 v -4.15016 c -0.0501,-8.07489 -4.25773,-17.14186 -11.67105,-25.08126 -5.81073,-6.22504 -7.91424,-11.50318 -8.56565,-21.24685 -0.45081,-6.63115 -1.35246,-9.47306 -4.05734,-13.21714 -1.95353,-2.6164 -4.35788,-4.24049 -7.91423,-5.36807 -3.10566,-0.99243 -9.46694,-1.4435 -11.87135,-0.85709 z m 12.72304,14.7508 c 2.20399,1.39842 3.75683,6.13512 2.75501,8.4806 -0.15026,0.40598 -0.85156,0.72175 -1.5528,0.72175 -1.15209,0 -1.20221,-0.0902 -0.90163,-1.75927 0.50092,-2.66149 -0.75136,-4.55626 -2.95534,-4.55626 -0.90163,0 -1.95353,0.31577 -2.30417,0.67667 -0.75137,0.81196 -1.2022,3.87948 -0.65117,4.55626 0.20036,0.27066 2.10383,1.08265 4.15754,1.84953 l 3.75682,1.35329 -0.15026,3.56371 c -0.10019,3.47346 -0.0501,3.65392 1.90345,6.49604 1.102,1.62398 2.50455,4.33044 3.10565,6.08994 0.60109,1.7142 1.60292,3.78924 2.2541,4.60105 2.10382,2.48106 3.65662,7.48812 4.15753,13.30746 0.25046,2.93218 0.6011,5.50358 0.75137,5.77417 0.55098,0.81197 3.55644,0.49621 4.50819,-0.45111 1.30234,-1.26307 1.60292,-6.27021 0.55098,-9.78883 -0.80144,-2.88705 -3.8069,-8.75121 -5.20938,-10.19495 -0.40073,-0.40598 -0.65118,-0.90222 -0.50092,-1.03751 0.40072,-0.31578 4.00729,4.01466 5.30953,6.40571 1.70312,3.02238 2.75502,9.15729 2.15391,12.22466 -0.30054,1.39841 -0.55098,2.61636 -0.55098,2.70662 0,0.0451 0.70129,0.40598 1.50274,0.81196 0.85154,0.40598 1.50272,0.90221 1.50272,1.17286 0,0.31577 -0.30054,0.31577 -0.80144,-0.0902 -1.05189,-0.81196 -5.71058,-0.76688 -7.41351,0 -0.70129,0.36088 -1.45266,1.12773 -1.60292,1.71418 -0.20035,0.72176 -0.80143,1.17286 -1.75318,1.3533 -2.90527,0.49619 -3.60652,2.93217 -2.85519,9.74367 0.5009,4.15017 0.40072,5.54834 -0.35064,9.56341 -0.50092,2.61636 -1.0519,4.73653 -1.25227,4.73653 -0.2004,0 -0.65119,-0.27066 -0.95175,-0.63154 -0.45082,-0.4962 -0.35063,-1.39842 0.45081,-3.92457 1.10202,-3.69901 1.30235,-6.04478 0.45083,-6.54082 -0.35065,-0.18043 -1.40255,0.58646 -2.55464,1.8044 -1.10201,1.17287 -2.85519,2.48107 -3.85701,2.93217 -4.55827,2.12018 -13.2743,2.43594 -16.02921,0.58647 -1.60292,-1.03753 -3.05554,-1.30822 -3.05554,-0.54134 0,0.22555 0.45082,1.08265 1.00182,1.89462 1.15209,1.71418 1.30235,4.05983 0.30055,4.82687 -0.55099,0.40598 -0.7013,0.0902 -0.90163,-1.75931 -0.15028,-1.44351 -0.80144,-3.06748 -1.85338,-4.55627 -0.85156,-1.26307 -1.5528,-2.39085 -1.5528,-2.57128 0,-0.18044 0.50092,-0.54132 1.10201,-0.76688 1.60292,-0.63154 2.55462,-2.57127 1.95352,-3.92457 -0.25045,-0.58644 -2.45443,-2.61637 -4.90895,-4.42076 -9.26666,-7.03726 -11.12026,-8.66127 -12.02203,-10.78131 -1.00181,-2.34573 -1.15209,-6.18028 -0.25046,-7.48813 0.45082,-0.76688 0.55099,-0.31577 0.6011,2.43593 0,2.57128 0.25047,3.69903 1.10202,5.05231 1.85337,2.97726 2.60474,2.25551 2.95534,-2.97726 0.15027,-2.48107 0.70129,-5.54834 1.20221,-6.76665 1.15207,-2.97726 4.00727,-8.02972 4.85888,-8.70643 0.55098,-0.36088 0.65117,-1.21799 0.5009,-2.88704 -0.15027,-2.07505 0.0501,-2.79684 1.60293,-5.45841 1.00182,-1.71419 2.00365,-3.83436 2.20398,-4.73654 l 0.40072,-1.66906 2.1539,2.48106 c 2.40437,2.75171 4.10743,3.78924 5.5599,3.38326 0.50091,-0.13534 2.70489,-1.35329 4.85888,-2.6615 2.15391,-1.3082 4.6586,-2.7517 5.5599,-3.15769 1.70308,-0.76688 2.15391,-1.62397 0.85157,-1.62397 -0.40074,0 -2.55463,0.81196 -4.70868,1.8044 -4.35788,2.02996 -7.66386,2.34572 -9.81791,1.08265 -1.95352,-1.12774 -1.50273,-1.53376 1.70307,-1.53376 2.35428,0 4.20761,-0.40598 8.36534,-1.89462 4.90896,-1.75927 6.36153,-2.66149 5.50983,-3.38324 -0.15026,-0.18044 -0.85156,0.18044 -1.50273,0.72175 -1.75319,1.48863 -8.21467,3.20282 -11.97149,3.20282 -2.90527,-0.0451 -3.25592,-0.18044 -5.20939,-1.75927 -1.2022,-0.94731 -2.1539,-2.02996 -2.1539,-2.39086 0,-0.31577 1.35246,-1.71418 3.05553,-3.02238 2.8552,-2.30064 3.05553,-2.52615 2.80508,-3.9695 -0.35064,-1.89462 -1.15209,-2.84192 -2.40436,-2.84192 -2.35429,0 -3.30599,3.29303 -1.45262,4.96197 1.00182,0.90222 0.95175,1.8044 0,1.8044 -0.85155,0 -2.00363,-2.61637 -2.00363,-4.5111 0,-3.24794 2.00363,-5.72901 4.3078,-5.23257 1.50273,0.36088 3.15574,3.29303 3.2058,5.54834 0,1.39842 0.10018,1.48864 1.70308,1.48864 0.95174,0 2.0537,0.0902 2.45443,0.27066 0.55098,0.18043 0.70128,-0.27066 0.70128,-2.2104 0,-2.6164 0.85156,-4.15016 2.75501,-5.14262 1.60293,-0.76688 3.95716,-0.72176 5.3596,0.13532 z"
       style="stroke-width:0.04753505"
       inkscape:connector-curvature="0" />
    <path
       id="path48"
       d="m 239.63721,184.04358 c -0.98031,0.0963 -1.99914,0.38979 -2.76718,0.89865 -0.45902,2.03833 -0.92211,4.10207 -1.84571,6.02219 -1.03192,1.64566 -3.32124,2.27268 -5.38931,2.29234 -1.4123,0.14531 -3.36251,-0.0839 -4.15995,1.17821 -0.453,1.4572 0.57428,2.90319 0.87386,4.29634 0.67111,2.01809 0.53361,4.19446 -0.42168,6.13017 -0.31097,0.93021 -0.66648,2.05484 -0.0798,2.94476 1.20063,1.0526 3.07304,1.1585 4.63383,1.59691 5.55469,1.13782 11.08775,2.32574 16.58171,3.65394 2.02934,0.41407 4.08959,0.81338 6.19153,0.64887 1.97131,0.14201 3.40928,-1.25051 4.46102,-2.47604 1.46978,-1.84175 1.08376,-4.21804 0.20927,-6.18511 -1.96146,-4.36926 -5.08847,-8.26591 -8.01799,-12.19559 -2.26011,-2.79372 -4.43217,-5.75499 -7.57184,-7.9091 -0.78189,-0.48852 -1.69782,-0.92035 -2.69773,-0.89652 z"
       style="fill:#e6e6e6;stroke-width:0.20134261"
       inkscape:connector-curvature="0" />
    <path
       id="path50"
       d="m 309.08778,185.2738 c -1.37693,0.92656 -2.4801,2.14911 -3.67407,3.24814 -0.62663,0.6364 -1.01071,1.41021 -1.85914,1.88154 -1.78071,1.52307 -4.48374,1.81041 -6.8533,1.33693 -2.1107,-0.63541 -2.74491,-2.66271 -4.00615,-4.0436 -0.5474,-0.71752 -1.57754,-1.7415 -2.68678,-1.17137 -1.90766,1.11968 -1.94644,3.34909 -1.81406,5.12002 0.69446,6.02923 0.44701,12.12194 0.93205,18.17715 0.13576,2.46491 3.24171,4.21711 5.99863,3.89498 3.01953,-0.24651 5.27897,-2.17934 7.60987,-3.62519 2.99003,-2.05334 6.54197,-3.34797 10.05721,-4.66485 1.92181,-0.85109 4.13898,-1.56626 5.43693,-3.11862 0.60155,-0.74988 0.25994,-1.76203 -0.59609,-2.25801 -1.93462,-1.50528 -4.78284,-1.94314 -6.33509,-3.8358 -1.73831,-2.05521 -1.32534,-4.71495 -1.47295,-7.09265 -0.10407,-1.22752 0.0767,-2.51797 -0.26446,-3.70868 -0.0981,-0.0906 -0.31988,-0.18541 -0.47256,-0.1399 z"
       style="fill:#e6e6e6;stroke-width:0.20134261"
       inkscape:connector-curvature="0" />
    <path
       id="path52"
       d="m 261.41904,130.49614 c -0.82916,0.12189 -1.86807,-0.20424 -2.56008,0.23781 -1.82074,2.53171 -1.79295,5.92997 0.0468,8.44126 0.3007,0.36614 0.85582,0.66283 1.38931,0.48703 -0.90363,0.90831 -2.14165,1.65159 -2.72349,2.75215 -0.0335,0.94366 1.03081,1.60778 1.67858,2.27786 1.18646,1.03492 2.50392,2.19141 4.32577,2.24393 3.69812,0.29827 7.39468,-0.58539 10.80483,-1.72813 1.41296,-0.43947 2.60836,-1.20794 3.78944,-1.97134 0.48683,-0.35742 0.38577,0.16492 0.0664,0.32033 -2.07944,1.38676 -4.66353,2.08192 -7.06019,2.9724 -2.47247,0.90081 -5.14877,1.22931 -7.83054,1.2946 -0.72207,-0.035 -2.09402,0.28946 -1.56151,1.11054 1.64624,1.8298 4.73913,2.01476 7.14561,1.32743 3.02848,-0.74989 5.64754,-2.3482 8.62468,-3.19229 0.29956,-0.0946 0.51639,0.054 0.20216,0.25755 -1.46476,1.07466 -3.25395,1.7834 -4.79441,2.78073 -2.26972,1.27001 -4.41141,2.74658 -6.85832,3.7651 -1.80535,0.17265 -2.94196,-1.28691 -4.02909,-2.26823 -1.14716,-1.04922 -1.96071,-2.35265 -3.17486,-3.33405 -0.85807,-0.0835 -0.73638,0.92617 -0.95789,1.38873 -0.75393,2.83212 -2.72939,5.2924 -3.7193,8.04752 -0.25959,1.55998 -0.008,3.18449 -0.2207,4.71681 -2.33286,2.90856 -3.97272,6.18565 -5.3266,9.49873 -1.14799,3.33164 -0.97041,6.84549 -1.66417,10.23484 -0.11746,0.25698 -0.31236,1.11123 -0.70195,0.55314 -1.43039,-1.45852 -2.0767,-3.35762 -2.08037,-5.21298 -0.17433,-1.22558 0.0792,-2.5369 -0.42025,-3.70739 -0.54635,-0.52754 -1.11642,0.22113 -1.19418,0.66776 -0.49874,1.6413 -0.28205,3.38471 -0.0731,5.05117 0.3025,2.13222 1.59104,4.07627 3.41431,5.54142 4.34676,3.89962 9.40966,7.18023 13.65307,11.16335 1.24117,1.30345 0.33509,3.39287 -1.32046,4.12358 -0.60137,0.2773 -1.59016,0.72731 -1.07406,1.42397 1.18898,2.25357 2.99025,4.33901 3.17661,6.87593 0.23132,0.65333 -0.0368,1.62839 0.75374,2.0218 1.0404,0.0542 1.41341,-1.07167 1.44688,-1.78637 0.33881,-1.90343 -1.0801,-3.51274 -1.78231,-5.21633 -0.17597,-0.46949 0.77857,-0.1006 0.99034,-0.0435 1.5174,0.72365 2.98501,1.65298 4.78501,1.78186 4.42257,0.35815 9.1523,0.16233 13.11672,-1.70862 2.34969,-1.19976 3.84098,-3.26076 6.02288,-4.62385 0.64006,1.82047 -0.10497,3.74599 -0.50398,5.52936 -0.30612,1.47358 -1.1349,2.98836 -0.72098,4.49803 0.27256,0.50314 0.96727,1.2673 1.69087,0.91555 0.59775,-0.99762 0.64658,-2.19659 0.98152,-3.2769 0.88634,-3.63966 1.24152,-7.38509 0.7043,-11.08468 -0.18115,-2.55212 -0.63952,-5.15602 0.19517,-7.64431 0.37107,-1.06634 1.48326,-1.82029 2.7556,-2.01011 1.75098,-0.4329 1.58368,-2.49386 3.2747,-3.02176 1.83238,-0.57815 3.89036,-0.58414 5.80135,-0.31437 0.79799,-0.003 1.41998,0.9018 2.20046,0.5327 0.54614,-0.65412 -0.58014,-1.15805 -1.07937,-1.51659 -0.52396,-0.36981 -1.30231,-0.58743 -1.68134,-1.04599 0.50847,-2.30273 0.89803,-4.65297 0.49586,-6.99337 -0.44846,-3.52054 -1.32229,-7.12476 -3.7123,-10.09809 -1.12298,-1.42245 -2.12435,-2.98687 -3.65681,-4.12303 -0.60746,-0.35399 -1.13039,0.39287 -0.64902,0.77976 2.28459,2.86701 3.80931,6.10884 5.12058,9.35456 1.13161,2.89651 1.18216,6.00697 0.75095,8.98346 -0.19219,0.96489 -0.62093,2.07005 -1.87036,2.35469 -0.85712,0.24365 -1.8657,0.24517 -2.73267,0.077 -0.56163,-1.83672 -0.52923,-3.76825 -0.81261,-5.64755 -0.49069,-4.81329 -1.35982,-9.81065 -4.48068,-13.96134 -1.84071,-3.10135 -2.64593,-6.57476 -4.68057,-9.6058 -0.94143,-1.56526 -2.36345,-3.11175 -2.20112,-4.95431 -0.0605,-1.89119 0.0688,-3.83654 -0.066,-5.724 -0.5743,-0.57003 -1.67686,-0.65821 -2.44953,-1.04479 -1.81477,-0.72266 -3.78111,-1.27281 -5.39979,-2.29753 -0.27712,-1.26435 -0.0541,-2.66105 0.50203,-3.8755 0.78754,-0.97558 2.71913,-1.03124 3.75885,-0.312 1.59398,1.30545 0.99304,3.33517 0.85761,4.98975 0.12741,1.03089 1.80733,1.00481 2.58541,0.51533 1.24232,-0.65662 0.92507,-2.07432 0.9635,-3.13105 -0.12916,-1.91048 -0.81153,-3.86827 -2.15158,-5.39854 -2.63696,-0.0981 -5.32748,-0.0139 -7.98499,-0.0421 -0.83802,0.41911 -1.13299,1.37965 -1.3558,2.15856 -0.31808,1.3603 -0.26396,2.75921 -0.54171,4.12396 -1.19955,-0.35181 -2.57098,-0.14382 -3.74267,-0.46585 -0.24847,-1.51907 -0.34528,-3.10786 -1.24484,-4.48802 -0.37741,-0.57147 -0.58116,-1.59718 -1.6219,-1.32575 -0.53463,0.008 -1.06925,0.0164 -1.60387,0.0247 z m -0.033,2.53413 c 1.32447,0.10466 1.68528,1.46399 1.91039,2.37324 0.33381,0.82088 0.0174,1.67632 -0.73076,2.24763 -0.53738,0.49619 -1.25371,1.17203 -1.71302,1.49209 0.23469,-1.15167 -1.26917,-1.84693 -1.47697,-2.92473 -0.37511,-1.21102 0.20211,-3.19654 2.01034,-3.18819 z"
       style="fill:#e6e6e6;stroke-width:0.20134261"
       inkscape:connector-curvature="0" />
    <path
       id="path54"
       d="m 275.18505,128.94862 c -1.1632,-0.0233 -2.4659,0.31388 -3.18862,1.11625 -0.2749,0.70497 0.8599,0.69886 1.3896,0.6894 1.83815,-0.009 3.7158,0.15336 5.53284,-0.0785 0.75443,-0.41941 -0.16638,-1.01706 -0.65994,-1.21471 -0.90464,-0.55324 -2.01068,-0.53506 -3.07413,-0.51245 z"
       style="fill:#e6e6e6;stroke-width:0.20134261"
       inkscape:connector-curvature="0" />
    <path
       id="path56"
       d="m 261.5086,129.40508 c -0.71425,0.0373 -1.98459,0.30559 -1.83954,1.09819 0.53152,0.56921 1.57427,0.25413 2.31931,0.33813 0.575,0.0692 1.89784,-0.0571 1.34875,-0.784 -0.45436,-0.41644 -1.16676,-0.64303 -1.82862,-0.6523 z"
       style="fill:#e6e6e6;stroke-width:0.20134261"
       inkscape:connector-curvature="0" />
  </g>
  <g
     id="kaspersky"
     inkscape:label="kaspersky">
    <rect
       style="opacity:1;fill:#e6e6e6;fill-opacity:1;fill-rule:nonzero;stroke:none;stroke-width:0.22983602;stroke-linecap:round;stroke-linejoin:round;stroke-miterlimit:4;stroke-dasharray:none;stroke-opacity:1"
       id="rect186"
       width="123.09603"
       height="27.94639"
       x="36.248627"
       y="26.297079" />
    <path
       style="stroke-width:0.04313067"
       id="path11"
       d="m 70.281935,27.397739 c -1.020965,1.617986 -2.08447,6.253296 -1.871769,8.264846 0.127621,1.005775 0.808264,3.192242 1.573988,4.941416 1.616528,3.804453 1.659067,5.99092 0.255241,9.489267 -0.978425,2.448844 -0.978425,2.623761 -0.297782,3.148513 1.233666,1.005774 1.701608,0.699669 2.680033,-1.924091 1.531448,-3.891911 1.361287,-8.133658 -0.425402,-12.331675 -1.616528,-3.716994 -1.616528,-5.859732 0,-9.358079 0.893345,-2.01155 0.893345,-2.055279 0.12762,-2.66749 -1.106043,-0.830858 -1.233666,-0.830858 -2.041929,0.437293 z"
       inkscape:connector-curvature="0" />
    <path
       style="stroke-width:0.04313067"
       id="path13"
       d="m 111.46085,27.397739 c -1.02096,1.617986 -1.87177,4.897687 -1.87177,7.302801 0,1.443068 0.46795,3.2797 1.36129,5.509897 1.65906,4.110558 1.74414,6.734319 0.34032,10.101478 -0.97842,2.273925 -0.97842,2.361384 -0.2127,2.929866 1.19112,0.918316 1.61652,0.568481 2.76511,-2.273926 1.53145,-3.891911 1.44637,-7.34653 -0.38286,-11.500817 -1.23367,-2.842407 -1.40383,-3.629536 -1.19113,-5.728544 0.0851,-1.35561 0.59557,-3.279701 1.06351,-4.241746 0.8508,-1.705445 0.8508,-1.792903 0.12762,-2.492572 -0.97843,-0.918317 -1.19113,-0.874588 -1.99939,0.393563 z"
       inkscape:connector-curvature="0" />
    <path
       style="stroke-width:0.04313067"
       id="path15"
       d="m 152.21437,32.514073 c -1.02097,0.524752 -1.574,2.055278 -1.23368,3.410888 0.17017,0.69967 0,0.874587 -0.80826,0.874587 -0.63809,0 -1.02096,0.262376 -1.02096,0.65594 0,0.524752 0.68064,0.65594 3.57337,0.65594 h 3.61591 l 0.0425,-1.443068 c 0,-0.743399 0,-1.792903 0.0425,-2.230196 0,-1.705445 -2.4248,-2.842407 -4.21148,-1.924091 z"
       inkscape:connector-curvature="0" />
    <path
       style="stroke-width:0.04313067"
       id="path17"
       d="m 80.959526,33.213742 c -0.680644,0.743399 -0.595563,0.918316 0.978425,2.492573 l 1.701609,1.705444 -1.531448,1.617985 c -1.616529,1.705445 -1.701609,2.754949 -0.340323,3.32343 0.510483,0.174918 1.403827,-0.481023 3.062896,-2.230196 l 2.33971,-2.492572 -2.509872,-2.623761 c -1.361285,-1.399339 -2.594952,-2.580031 -2.765113,-2.580031 -0.127621,0 -0.553022,0.349835 -0.935884,0.787128 z"
       inkscape:connector-curvature="0" />
    <path
       style="stroke-width:0.04313067"
       id="path19"
       d="m 59.051322,35.750044 c -0.935884,1.661715 -2.552412,4.63531 -3.615918,6.559401 l -1.914308,3.585806 1.063505,0.481023 c 0.553023,0.262376 1.106045,0.481023 1.191125,0.481023 0.08508,0 1.148586,-1.880362 2.382252,-4.154288 1.191125,-2.273926 2.33971,-4.154287 2.509872,-4.154287 0.212701,0 1.361286,1.880361 2.594952,4.154287 1.233666,2.273926 2.424791,4.154288 2.680033,4.154288 0.255242,0 0.765723,-0.262376 1.148586,-0.568482 0.723183,-0.524752 0.212699,-1.617985 -5.870548,-12.725238 -0.382863,-0.743399 -0.638104,-0.481023 -2.169551,2.186467 z"
       inkscape:connector-curvature="0" />
    <path
       style="stroke-width:0.04313067"
       id="path21"
       d="m 101.80423,33.651035 c -0.68065,0.743399 -0.59556,0.874588 1.02096,2.448843 l 1.74415,1.661715 -1.53145,1.617986 c -0.8508,0.874587 -1.53144,1.749174 -1.53144,1.924091 0,0.306106 1.7016,2.754949 4.08385,5.947191 0.34032,0.481022 0.6381,0.481022 1.36129,0.08746 1.23367,-0.69967 1.19113,-1.049505 -0.55303,-3.410889 -0.80826,-1.093234 -1.4889,-2.230197 -1.4889,-2.492573 0,-0.218646 0.68064,-1.136962 1.44636,-2.011549 l 1.48892,-1.530527 -2.29718,-2.536302 c -1.2762,-1.35561 -2.50987,-2.492572 -2.68003,-2.492572 -0.2127,0 -0.68064,0.349834 -1.0635,0.787126 z"
       inkscape:connector-curvature="0" />
    <path
       style="stroke-width:0.04313067"
       id="path23"
       d="m 47.395307,36.930736 -3.318137,3.585806 6.806434,6.996695 0.850803,-0.874587 0.850803,-0.918316 -5.104823,-5.160062 2.637493,-2.754949 c 2.594953,-2.66749 2.594953,-2.754948 1.829228,-3.629536 -0.425402,-0.481022 -0.893344,-0.874586 -1.020964,-0.830857 -0.127621,0.04373 -1.744148,1.661715 -3.530837,3.585806 z"
       inkscape:connector-curvature="0" />
    <path
       style="stroke-width:0.04313067"
       id="path25"
       d="m 124.26545,36.799548 -3.40322,3.498348 3.61592,3.716994 c 3.57338,3.716993 3.61593,3.716993 4.42419,2.842407 0.85079,-0.874587 0.85079,-0.874587 -1.87177,-3.716994 -1.61654,-1.705445 -2.59496,-3.017325 -2.33971,-3.192243 0.25523,-0.174917 1.44636,-1.443068 2.72256,-2.798677 1.95686,-2.142738 2.21209,-2.580032 1.74415,-3.148513 -0.29778,-0.393564 -0.76572,-0.699669 -1.02096,-0.699669 -0.25524,0 -1.99939,1.574256 -3.87116,3.498347 z"
       inkscape:connector-curvature="0" />
    <path
       style="stroke-width:0.04313067"
       id="path27"
       d="m 131.58237,34.088329 c -0.63811,0.743398 -0.46794,1.005774 2.93528,4.460393 l 3.65844,3.716994 3.31814,-3.716994 c 2.72258,-3.017325 3.23306,-3.848182 2.93527,-4.460393 -0.63809,-1.224421 -1.23365,-0.962046 -3.99877,1.836632 l -2.59496,2.623761 -2.50986,-2.623761 c -1.40383,-1.443068 -2.6375,-2.62376 -2.80766,-2.62376 -0.12762,0 -0.55303,0.349834 -0.93588,0.787128 z"
       inkscape:connector-curvature="0" />
    <path
       style="stroke-width:0.04313067"
       id="path29"
       d="m 40.673955,40.474562 v 6.690589 l 1.191125,-0.04373 1.148586,-0.04373 0.12762,-6.69059 0.127621,-6.646859 h -2.594952 z"
       inkscape:connector-curvature="0" />
    <path
       style="stroke-width:0.04313067"
       id="path31"
       d="m 76.407725,40.299645 v 6.559401 h 2.552412 V 33.740244 h -2.552412 z"
       inkscape:connector-curvature="0" />
    <path
       style="stroke-width:0.04313067"
       id="path33"
       d="m 97.252422,40.299645 v 6.559401 h 2.552409 V 33.740244 h -2.552409 z"
       inkscape:connector-curvature="0" />
    <path
       style="stroke-width:0.04313067"
       id="path35"
       d="m 117.67171,40.299645 v 6.559401 h 2.55243 V 33.740244 h -2.55243 z"
       inkscape:connector-curvature="0" />
    <path
       style="stroke-width:0.04313067"
       id="path37"
       d="m 150.93816,41.480337 c -0.0851,2.186467 0.38286,3.061054 1.9143,3.673265 1.9994,0.743398 4.55181,-1.880362 3.48829,-3.585807 -0.21269,-0.349834 -0.25522,-0.962045 -0.1276,-1.399338 0.21269,-0.65594 -0.0851,-0.743399 -2.46734,-0.743399 h -2.72257 z"
       inkscape:connector-curvature="0" />
  </g>
  <g
     id="debian"
     inkscape:label="debian">
    <path
       id="path1"
       d="m 60.372416,147.99948 c -2.745564,0.89768 -8.863352,3.97477 -11.71841,5.93857 -1.26641,0.84901 -2.488032,1.60644 -2.788312,1.6588 -1.200804,0.20953 -7.052675,6.67367 -8.374085,9.20682 -0.768699,1.51587 -1.890023,3.1352 -2.414088,3.64517 -0.471628,0.45912 -1.501249,2.56485 -2.155355,4.68888 -1.167371,3.67889 -1.158687,4.05439 0.01736,10.29736 1.4128,7.49977 3.008348,11.03163 6.896086,15.21062 4.136721,4.51225 7.056574,6.51519 13.553686,9.40085 8.738261,3.91889 17.152844,5.46554 24.847325,4.50012 2.116658,-0.28553 3.257481,-0.48456 2.574127,-0.49094 -4.528195,-0.006 -7.194866,-0.33588 -8.556173,-0.97771 -0.887446,-0.43138 -1.93217,-0.7097 -2.412438,-0.62591 -0.90063,0.15713 -5.093656,-0.7025 -4.718832,-1.01903 0.164854,-0.11249 -1.587193,-0.8536 -3.849941,-1.6731 -2.315243,-0.7685 -4.210216,-1.61029 -4.240814,-1.77245 -0.03821,-0.20269 -0.956185,-0.79626 -2.054261,-1.35832 -1.090487,-0.52154 -2.663371,-1.62894 -3.499414,-2.44609 -3.954484,-3.87407 -4.822176,-5.18832 -3.454417,-4.84058 0.383164,0.0587 0.119035,-0.35574 -0.551183,-0.95063 -0.677834,-0.63542 -1.896022,-1.17658 -2.774813,-1.23262 -2.899305,-0.24786 -4.991514,-4.11192 -6.405168,-11.94654 -0.902205,-5.1184 -0.889021,-5.70691 0.191987,-8.19849 0.65622,-1.45432 1.221862,-3.06036 1.190304,-3.55737 0.0166,-1.88711 6.941682,-8.58043 10.024275,-9.6626 0.697573,-0.2473 1.341704,-0.77841 1.445467,-1.21523 0.147484,-0.86314 3.453217,-2.7378 5.49443,-3.09414 0.720507,-0.1257 1.117845,-0.32065 0.914833,-0.41084 -0.270717,-0.12024 0.988044,-1.00983 2.787113,-1.99365 3.088441,-1.71124 3.441067,-1.81461 10.728776,-2.96051 6.747745,-1.05156 7.911217,-1.129 11.471977,-0.66154 6.986379,0.87477 14.358532,5.11565 16.90386,9.73787 1.306412,2.32626 2.809772,9.97789 2.281202,11.45145 -0.19331,0.61994 -0.77634,1.47532 -1.26323,1.85342 -0.486888,0.37806 -0.792642,1.05942 -0.716297,1.46486 0.190937,1.01342 -3.538411,4.26011 -7.406201,6.44226 -4.655085,2.6126 -10.921063,3.91513 -15.330466,3.21908 -3.388422,-0.53939 -7.373953,-2.27264 -9.391767,-4.09786 -2.018264,-1.82523 -3.320176,-5.1154 -2.951951,-7.44064 0.905653,-5.72689 9.893783,-10.68624 17.743804,-9.83656 l 3.102391,0.33806 -1.92452,-0.66917 c -5.638121,-1.94741 -12.886532,-0.26409 -17.152845,4.08114 -4.491596,4.46826 -5.541226,9.75961 -2.80376,13.42762 1.477849,1.91948 5.314891,4.181 9.275974,5.45803 8.103054,2.52228 19.192706,-0.1662 26.930685,-6.49872 1.505453,-1.22568 2.695473,-2.48005 2.642083,-2.76397 0.007,-0.29427 0.54483,-1.05808 1.23375,-1.68079 1.4826,-1.34728 2.52748,-3.37196 2.78427,-5.30089 0.0427,-0.76112 0.43688,-1.96045 0.74261,-2.64179 0.91722,-2.04424 1.07129,-3.2016 0.35077,-3.07607 -0.36026,0.0628 -0.71497,-0.50334 -0.85244,-1.23304 -0.64911,-3.44589 -1.45888,-5.43987 -2.53408,-5.88052 -1.56425,-0.73203 -1.61209,-1.64484 -0.11113,-1.90668 0.72051,-0.12568 1.44202,0.0834 1.71379,0.53842 0.80766,1.32461 1.48129,0.62088 0.92802,-0.9993 -0.72788,-2.21778 -6.28188,-6.02218 -10.972211,-7.5486 -2.044513,-0.64822 -4.118573,-1.12382 -4.658837,-1.02957 -0.540383,0.0943 -1.509648,-0.11344 -2.261847,-0.4847 -0.95512,-0.46144 -1.706134,-0.49791 -2.996497,-0.10529 -0.937768,0.28922 -2.026064,0.43721 -2.416938,0.33792 -2.37524,-0.75799 -6.82814,-0.69299 -12.307121,0.17913 -3.429968,0.55652 -6.237629,0.79512 -6.711597,0.58467 -0.812135,-0.36076 -0.992258,-0.32933 -4.038028,0.62075 z"
       style="stroke-width:0.33889604"
       inkscape:connector-curvature="0" />
    <path
       transform="matrix(0.94791255,0,0,0.80673619,5.6278469,10.878946)"
       style="fill:none;stroke:#ffffff;stroke-width:0.75px;stroke-linecap:butt;stroke-linejoin:miter;stroke-opacity:1;opacity:0"
       d="M 102.17564,206.69248 78.993113,249.62447"
       id="path1090"
       inkscape:connector-curvature="0"
       inkscape:path-effect="#path-effect1092"
       inkscape:original-d="m 102.17564,206.69248 c -7.784757,14.30991 -15.454265,28.62058 -23.182527,42.93199" />
    <path
       style="opacity:0;fill:#ffffff;fill-opacity:0.88397791;fill-rule:nonzero;stroke:#ffffff;stroke-width:0.07607698;stroke-linecap:round;stroke-linejoin:round;stroke-miterlimit:4;stroke-dasharray:none;stroke-opacity:1"
       d="m 79.073784,150.98326 c -4.536561,0.16904 -8.987154,1.06441 -13.419013,1.84661 -3.037704,0.55912 -5.740905,2.0315 -8.038413,3.76341 -0.217641,0.31199 -0.358035,0.64162 -0.873295,0.65358 -2.20839,0.45029 -4.321899,1.53243 -5.69752,3.0815 -0.931163,1.4126 -3.002114,1.80219 -4.275636,2.94907 -2.691476,2.08712 -5.229742,4.4143 -6.980887,7.14885 -0.554665,1.43969 -0.834957,2.95584 -1.50152,4.37302 -1.00659,2.09208 -1.010966,4.39199 -0.559846,6.58854 0.720597,3.94659 1.318558,8.05338 3.551862,11.62792 0.807928,1.31807 2.301984,2.35383 4.070762,2.49755 0.963598,0.30871 1.827792,0.89273 2.434983,1.57721 -0.724774,-0.0431 -0.773352,0.66567 -0.355309,1.01135 2.215407,2.81119 4.849218,5.48048 8.310098,7.2259 1.063892,0.76514 2.150472,1.51312 3.484154,1.9233 1.877891,0.74891 3.887144,1.31665 5.613995,2.27481 0.988753,0.78992 2.525801,0.82549 3.797529,1.07354 1.734171,0.037 3.308056,0.59109 4.928017,1.07774 2.246149,0.4833 4.660337,0.7374 6.93611,0.43783 6.629605,-10.47961 13.371233,-20.9131 19.848065,-31.46139 -0.12269,-0.88359 -1.188078,-0.0496 -1.550093,0.24372 -4.648003,3.50774 -10.494031,5.89461 -16.662518,6.54077 -3.846866,0.30396 -7.853483,0.0123 -11.321297,-1.59959 -2.95504,-1.33019 -6.15092,-2.88748 -7.589685,-5.60216 -1.851641,-3.71969 -0.241737,-7.98665 2.510362,-11.09091 2.800943,-3.30252 7.29569,-5.5898 12.124023,-5.75066 1.851678,-0.11207 4.03006,0.17486 5.559002,0.73007 -4.70067,-0.61188 -9.605685,0.4783 -13.405741,2.89716 -3.185227,2.01209 -6.058368,5.15375 -5.587696,8.72043 0.33539,3.10375 2.379546,6.08282 5.595614,7.64115 2.904853,1.52501 6.224132,2.79232 9.717159,2.57217 5.610489,0.0537 11.004654,-2.04048 15.299259,-5.00716 1.739984,-1.34815 3.715791,-2.6357 4.811988,-4.44733 0.145059,-0.74354 0.317843,-1.5118 1.014713,-2.04876 0.9608,-1.00436 1.46632,-2.29011 1.18769,-3.5821 -0.34682,-3.21309 -0.94514,-6.4517 -2.243637,-9.49313 -2.172459,-3.96621 -6.542033,-6.73457 -11.097068,-8.5506 -3.014866,-1.15297 -6.323178,-1.84103 -9.636211,-1.84341 z"
       id="path1094"
       inkscape:connector-curvature="0" />
  </g>
  <g
     id="windows"
     inkscape:label="windows">
    <path
       id="path1_"
       d="m 75.778409,71.51275 c -0.345585,0 -0.247955,0.105541 0.232875,0.316352 0.570964,0.257662 0.631015,0.327943 0.240348,0.351352 -0.300503,0 -0.540567,0.140633 -0.540567,0.328045 0,0.187392 -0.240624,0.398095 -0.511102,0.468375 -0.450751,0.140541 -0.450863,0.210725 -0.09024,0.374686 0.360614,0.163975 0.360614,0.304558 0,0.866725 -0.450751,0.72614 -0.540641,0.984032 -0.751005,2.225495 -0.09016,0.491913 -0.420875,1.264743 -0.751451,1.709786 -0.330554,0.468478 -0.600879,1.241565 -0.600879,1.733478 0,0.491913 -0.180427,1.030543 -0.420838,1.17108 -0.240426,0.163967 -0.450901,0.468579 -0.420839,0.679396 0,0.210814 -0.240169,0.983724 -0.510616,1.686453 -0.27047,0.702704 -0.631425,1.756914 -0.811726,2.342518 -0.180308,0.585603 -0.420354,1.147541 -0.540567,1.288077 -0.120209,0.117125 -0.450938,1.077516 -0.751415,2.108162 -0.300517,1.030647 -0.571039,1.967602 -0.661189,2.108189 -0.210368,0.421607 -0.841231,1.218053 -1.291982,1.663121 -0.390664,0.374785 -0.391037,0.398226 0.08979,0.257687 0.270474,-0.07027 0.511102,-0.04676 0.511102,0.07034 0,0.140538 -0.180223,0.234279 -0.360528,0.257689 -0.210352,0 0.06007,0.140499 0.570928,0.281044 0.81139,0.234248 0.09002,0.281255 -4.357766,0.304689 -4.59767,0 -5.799799,0.0937 -8.835111,0.60904 -3.636227,0.632475 -8.053932,1.80358 -8.053932,2.131491 0,0.491944 1.172105,0.351328 4.598043,-0.515347 3.786317,-0.960361 7.062278,-1.499071 10.90857,-1.780146 3.876467,-0.304501 9.135364,0.81973 13.703232,2.927897 1.081842,0.515323 2.193896,0.937053 2.434321,0.937053 0.661116,0 0.721129,-0.09377 5.439198,-12.883417 1.412418,-3.794713 2.824837,-7.589253 3.155413,-8.432569 L 88.031717,75.577035 87.19004,75.038327 C 85.777622,74.124809 80.338611,72.180438 78.204803,71.829162 76.912597,71.618347 76.123521,71.51281 75.777931,71.51281 Z m 16.078806,6.331668 c -0.337825,-0.04982 -0.737556,0.818677 -1.811873,3.635312 -0.781329,2.037882 -2.614548,7.027039 -4.147291,11.079523 -2.464235,6.699356 -3.275552,8.526237 -3.275552,7.472157 0,-0.210806 0.210364,-0.890006 0.450753,-1.522434 0.63109,-1.639679 0.510914,-2.108362 -0.12018,-0.562393 -1.14193,2.670457 -1.142153,2.670457 0.390478,3.513517 3.275589,1.73335 8.865658,3.30275 13.553478,3.7712 3.125352,0.32792 7.272382,0.0937 11.419302,-0.60906 3.27562,-0.5856 8.20406,-1.80347 8.56466,-2.15482 0.12019,-0.11712 1.05162,-2.506419 2.07338,-5.340669 1.05178,-2.834303 2.13381,-5.785782 2.43433,-6.558844 0.51087,-1.335178 0.99187,-2.576615 2.43435,-6.511921 0.33055,-0.91352 0.81113,-2.225263 1.08158,-2.904557 0.24043,-0.679294 0.39081,-1.381973 0.30067,-1.592789 -0.30052,-0.585603 -1.0821,-0.398274 -1.29246,0.28102 -0.0901,0.374788 -0.87152,2.38944 -1.6829,4.520936 -0.8114,2.131572 -1.77288,4.661445 -2.07339,5.621682 -0.7513,2.201854 -0.87129,2.529668 -2.19356,6.090136 -0.60103,1.616246 -1.32268,3.537109 -1.59309,4.286576 -0.48082,1.31177 -0.57082,1.40541 -2.07339,1.94417 -0.87152,0.30451 -1.86298,0.56204 -2.19356,0.56204 -0.30051,0 -0.63146,0.0939 -0.69155,0.21102 -0.15026,0.32792 -6.40105,1.42862 -9.25568,1.63943 -2.674605,0.18741 -6.61116,2.6e-4 -8.804943,-0.42132 -2.824837,-0.53876 -7.662784,-2.36585 -6.250552,-2.36585 0.180316,0 0.330591,0.0936 0.330591,0.21067 0,0.1171 0.330398,0.25787 0.721054,0.30469 0.540903,0.0937 0.841565,-0.0472 1.202204,-0.53905 0.270477,-0.35135 0.480703,-0.79613 0.480703,-1.03039 0,-0.21081 0.21024,-0.70298 0.480703,-1.077769 0.240414,-0.398203 0.571225,-1.217879 0.721501,-1.803478 0.390664,-1.756784 1.32197,-4.122483 1.652546,-4.309918 0.150257,-0.09366 0.300543,-0.351454 0.330591,-0.585704 0.06008,-0.726139 1.712895,-5.809115 1.923258,-5.926035 0.120213,-0.07027 0.480964,-0.936905 0.751452,-1.944141 0.300514,-0.9838 0.631239,-1.80381 0.751452,-1.80381 0.09016,0 0.119986,-0.444991 0.05989,-0.98375 -0.120198,-0.796419 -0.06007,-0.936853 0.330599,-0.819727 0.270466,0.07028 0.571039,0.04678 0.661189,-0.07033 0.09015,-0.0937 -0.0301,-0.257841 -0.210423,-0.304686 -0.240406,-0.07028 -0.180442,-0.140338 0.150116,-0.140338 0.901541,-0.02343 0.360672,-0.398249 -2.494223,-1.663146 -1.472507,-0.655859 -2.764563,-1.288564 -2.854713,-1.4291 -0.07888,-0.09662 -0.153587,-0.156977 -0.231549,-0.168471 z m -38.638011,2.647127 c -0.04665,-0.0081 -0.09183,0.03363 -0.136913,0.121466 -0.120213,0.187392 -0.66104,1.710069 -1.262068,3.3966 -0.570965,1.663095 -1.322268,3.72454 -1.682906,4.5676 -0.420727,1.007237 -0.541052,1.522508 -0.300656,1.592789 0.420727,0.117118 0.45064,0.74937 0.02991,0.74937 -0.150264,0 -0.30023,-0.117034 -0.30023,-0.28102 0,-0.468478 -0.330852,-0.02341 -0.601326,0.796394 -0.15026,0.421633 -0.540902,1.592891 -0.901541,2.623534 -0.360612,1.007213 -0.570853,1.897532 -0.480702,1.967809 0.120198,0.07024 0.180468,-0.04685 0.180468,-0.257689 0,-0.23424 0.15029,-0.398352 0.330606,-0.398352 0.15025,0 0.21033,0.09382 0.120179,0.234358 -0.09016,0.117135 -0.03021,0.234028 0.150112,0.234028 0.210352,0 0.270306,-0.187373 0.150096,-0.538733 -0.270458,-0.632474 -0.270458,-0.632317 0,-1.264745 0.12021,-0.281122 0.390963,-0.445218 0.601327,-0.398351 0.240403,0.09367 0.420354,-0.257509 0.540567,-1.10077 0.120205,-0.655859 0.330777,-1.335128 0.5111,-1.499099 0.150245,-0.14054 0.390552,-0.937058 0.480703,-1.733452 0.120197,-0.772985 0.330759,-1.428767 0.511063,-1.428767 0.150261,0 0.210453,-0.257636 0.09025,-0.538707 -0.09016,-0.327942 0.02984,-0.749755 0.270287,-1.007416 0.240407,-0.234241 0.450752,-0.843188 0.450752,-1.335101 0,-0.632449 0.120093,-0.866726 0.480702,-0.866726 0.330569,0 0.420988,-0.140431 0.270735,-0.468376 -0.270474,-0.655858 0.180066,-1.171412 0.510653,-0.562373 0.180316,0.351351 0.210528,0.304507 0.18048,-0.257687 -0.03003,-0.398198 0,-0.819625 0.09025,-0.936751 0.09015,-0.140546 0.05977,-0.562296 -0.03036,-0.937058 -0.0939,-0.307455 -0.175793,-0.459324 -0.253557,-0.472837 z m 14.587973,17.712719 c -0.54094,0.02339 -0.570965,0.04701 -0.12019,0.140686 0.360624,0.07024 0.510988,0.257611 0.420838,0.538679 -0.09017,0.304508 0,0.398406 0.270727,0.304688 0.270454,-0.07024 0.06007,0.351196 -0.450752,1.007053 -0.570965,0.72617 -1.142116,1.99092 -1.532818,3.37302 -0.360613,1.21805 -0.751303,2.27223 -0.901541,2.34251 -0.150257,0.0702 -0.330684,0.39822 -0.420838,0.70273 -0.63109,2.57661 -1.081843,3.86505 -1.35233,3.9353 -0.180309,0.0469 -0.330595,0.53869 -0.330595,1.07742 0,0.53876 -0.120031,1.07759 -0.270284,1.21813 -0.330569,0.25764 -1.442369,3.13866 -1.712857,4.4035 -0.09015,0.51533 -0.360916,1.14793 -0.601326,1.45248 -0.360613,0.42164 -0.360386,0.53869 -0.05989,0.63235 0.300521,0.0937 0.30039,0.14036 0.02991,0.14036 -0.210355,0.0234 -0.390477,0.18763 -0.390477,0.37504 0,0.18738 -0.240623,0.35125 -0.511064,0.37469 -0.420726,0 -0.450864,0.047 -0.09024,0.14068 1.322231,0.39823 4.237441,1.54582 4.117116,1.61612 -0.06014,0.0702 -0.841453,-0.0936 -1.682906,-0.3747 -5.349048,-1.63969 -12.711951,-1.42908 -20.916009,0.58537 -2.854899,0.70273 -2.884999,0.70296 -2.01352,0.11735 0.390664,-0.25769 1.142004,-0.51548 1.682907,-0.58573 1.051816,-0.16394 1.382504,-0.8197 0.420838,-0.8197 -0.30051,0 -0.541014,-0.11725 -0.541014,-0.23439 0,-0.14053 0.270753,-0.23435 0.601325,-0.23435 0.751266,0 1.081693,-0.5856 0.600879,-1.05406 -0.270463,-0.23424 -0.270347,-0.35137 -0.02991,-0.35137 0.180297,0 0.330595,-0.21078 0.330595,-0.44502 0,-0.25769 0.149963,-0.53881 0.300212,-0.60906 0.180315,-0.0937 0.240713,-0.25759 0.150555,-0.37469 -0.120206,-0.1171 -0.06014,-0.2107 0.12019,-0.2107 0.150235,0 0.390404,-0.46845 0.510616,-1.05408 0.09015,-0.58561 0.330446,-1.05406 0.480704,-1.05406 0.180308,0 0.210456,-0.37492 0.09025,-0.93708 -0.150254,-0.74958 -0.120255,-0.93709 0.240343,-0.93709 0.300529,0 0.540977,-0.42148 0.781366,-1.3584 0.661115,-2.64687 0.841714,-3.20891 1.172253,-3.72429 0.210379,-0.28107 0.270329,-0.67948 0.150119,-0.91372 -0.120201,-0.28108 -0.0903,-0.35149 0.150112,-0.23436 0.330564,0.16394 0.450901,-0.0702 0.751451,-1.49915 0.180305,-0.86667 0.330767,-1.26489 0.511064,-1.40543 0.390664,-0.28108 0.901354,-1.45231 0.721054,-1.66312 -0.09015,-0.14054 -0.02984,-0.37468 0.180483,-0.56204 0.240415,-0.23425 0.240415,-0.35125 0,-0.46838 -0.240415,-0.1171 -0.150431,-0.28122 0.270284,-0.49204 0.330568,-0.18737 0.540791,-0.5154 0.480703,-0.77309 -0.06007,-0.30448 0.180542,-0.561938 0.841677,-0.843006 l 0.961405,-0.375043 -0.961405,0.140647 c -0.540903,0.09371 -1.742958,0.374895 -2.704624,0.679396 -1.262142,0.374796 -1.772982,0.655786 -1.923258,1.077416 -0.120198,0.32794 -0.570965,1.52269 -1.021717,2.69379 -0.420726,1.1478 -1.652807,4.42684 -2.704623,7.26114 -1.051817,2.8343 -2.46431,6.62909 -3.125462,8.40932 -1.352331,3.53711 -1.472544,4.23991 -0.781366,4.42734 0.240423,0.0937 1.743032,-0.21102 3.365813,-0.65603 7.001929,-1.87391 13.282655,-2.43616 17.670222,-1.56948 2.854862,0.56219 5.258898,1.35881 8.053559,2.67046 2.554386,1.19461 2.614436,1.14772 3.846666,-2.17847 2.253871,-6.16065 6.100424,-16.42019 6.761652,-18.08349 0.390664,-1.00726 0.661115,-1.92073 0.570928,-2.03783 -0.691179,-0.84326 -8.89546,-3.794797 -10.457819,-3.724544 z m 14.601756,5.428616 c -0.07137,0.0119 -0.08672,0.0995 -0.08672,0.2635 0,0.21081 -0.240378,0.98399 -0.570928,1.71012 -0.480852,1.19462 -1.292205,3.3261 -3.606165,9.67417 -0.300517,0.84326 -0.841155,2.29531 -1.201757,3.20891 -0.330561,0.93698 -0.901876,2.48305 -1.262515,3.3966 -0.330557,0.93698 -0.811242,2.13157 -1.051668,2.64687 -0.240407,0.53876 -0.420838,1.12428 -0.420838,1.3351 0,0.18741 -0.300573,0.44509 -0.66119,0.5154 -0.661116,0.14054 -0.600804,0.18755 0.511101,0.7497 3.966617,1.9442 8.324383,3.18558 13.282654,3.77121 2.975075,0.35138 3.876839,0.35128 6.641327,0.11703 4.086943,-0.37479 6.701296,-0.79663 10.277516,-1.71017 3.30564,-0.84324 3.51583,-0.9369 3.87646,-1.94416 0.15025,-0.39821 1.02171,-2.74072 1.92326,-5.17682 0.9316,-2.45952 2.01348,-5.41066 2.46428,-6.55859 3.81648,-10.02544 3.87646,-10.21288 3.39576,-10.44723 -0.21035,-0.11714 -0.45076,-0.11703 -0.57093,-0.0234 -0.15027,0.14057 -2.43384,6.18372 -4.0266,10.70439 -1.1119,3.092 -4.35776,11.66541 -4.41774,11.71233 -0.0601,0 -1.56262,0.46836 -3.39576,1.00711 -9.706435,2.83431 -18.421221,2.67046 -25.723775,-0.53873 -0.991692,-0.44507 -1.953507,-0.81973 -2.103745,-0.81973 -0.15025,0 -0.27028,-0.11721 -0.27028,-0.23435 0,-0.14054 -0.210367,-0.23435 -0.450789,-0.23435 -0.240415,0 -0.450753,-0.11689 -0.450753,-0.23403 0,-0.1405 0.12002,-0.23432 0.270288,-0.23432 0.180301,0 0.390999,0.0938 0.48115,0.23432 0.09016,0.11714 0.450491,0.23403 0.751005,0.23403 0.300506,0 0.600952,0.14083 0.691141,0.28137 0.150245,0.42164 1.111979,-0.21105 1.111979,-0.72639 0,-0.21085 0.120462,-0.49196 0.270726,-0.60907 0.12021,-0.14053 0.420578,-0.77295 0.600879,-1.40543 0.210366,-0.6559 0.481,-1.38182 0.631276,-1.63945 0.270469,-0.53876 1.051667,-2.50649 1.051667,-2.6938 0,-0.0702 0.0902,-0.23424 0.210416,-0.35137 0.2404,-0.30451 1.141893,-3.67762 1.141893,-4.30991 0,-0.23425 0.210367,-0.49205 0.450788,-0.58573 0.300514,-0.0937 0.45079,-0.46828 0.45079,-1.19442 0,-0.72614 0.180271,-1.21821 0.570928,-1.54612 0.360613,-0.30451 0.631239,-0.98367 0.751452,-1.96748 0.240407,-1.85047 0.420354,-2.22552 0.991356,-2.22552 0.330565,0 0.390925,-0.16372 0.270727,-0.58537 -0.120213,-0.37479 0,-0.79663 0.300663,-1.17141 0.300513,-0.35138 0.360474,-0.58537 0.150111,-0.58537 -0.180308,0 -0.601027,-0.18749 -0.901541,-0.42169 -0.330558,-0.21084 -0.781441,-0.5153 -0.991766,-0.63239 -0.210368,-0.14054 -0.630978,-0.375 -0.931492,-0.56238 -0.225399,-0.14058 -0.35298,-0.2049 -0.424378,-0.19317 z"
       style="stroke-width:0.02653167"
       inkscape:connector-curvature="0" />
    <path
       id="path61"
       d="m 94.292284,79.965874 c 3.12384,1.113149 6.473076,1.865362 9.895576,2.222389 2.86477,0.298853 5.78633,0.321008 8.64682,0 2.6053,-0.292357 5.14348,-0.866294 7.60929,-1.565313 1.64432,-0.466178 3.26063,-0.988688 4.84218,-1.565313"
       style="fill:none;stroke:#000000;stroke-width:0.21495762px;enable-background:new"
       inkscape:connector-curvature="0" />
    <path
       id="path159"
       d="m 53.080626,80.613337 2.172438,-6.210389"
       style="fill:none;stroke:#000000;stroke-width:0.21495885px"
       inkscape:connector-curvature="0" />
    <path
       id="path163"
       d="m 75.778409,71.51275 c -3.709577,-0.359147 -7.51303,-0.254536 -11.168964,0.307173 -3.293394,0.50599 -6.466241,1.381921 -9.354779,2.582769"
       style="fill:none;stroke:#000000;stroke-width:0.21495885px"
       inkscape:connector-curvature="0" />
    <path
       style="opacity:1;fill:#e6e6e6;fill-opacity:1;fill-rule:nonzero;stroke:none;stroke-width:0.1533519;stroke-linecap:round;stroke-linejoin:round;stroke-miterlimit:4;stroke-dasharray:none;stroke-opacity:1"
       d="m 123.1495,79.980859 c -4.96003,1.263337 -9.95551,2.596546 -15.18142,2.244118 -3.69262,0.263432 -7.28325,-0.947356 -10.927051,-0.811941 -1.337124,0.398242 -0.329133,2.030297 -1.116013,2.882392 -1.957338,5.327657 -3.778215,10.683019 -6.003052,15.933712 -0.426617,1.02719 -1.623655,2.79368 0.278482,3.21158 4.590006,1.96673 9.816564,0.99813 14.695254,0.87059 3.53424,-0.49828 7.55676,-0.69542 10.49769,-2.66438 3.40529,-6.517541 5.41592,-13.574906 7.94823,-20.39854 0.0325,-0.357918 0.66519,-1.262082 -0.19212,-1.267531 z"
       id="path192"
       inkscape:connector-curvature="0" />
    <path
       style="opacity:1;fill:#e6e6e6;fill-opacity:1;fill-rule:nonzero;stroke:none;stroke-width:0.1533519;stroke-linecap:round;stroke-linejoin:round;stroke-miterlimit:4;stroke-dasharray:none;stroke-opacity:1"
       d="m 70.363688,71.434414 c -5.021912,0.246227 -10.439273,0.713761 -14.75373,3.192138 -1.975294,2.434265 -1.956773,5.809902 -2.449209,8.492312 -0.878008,0.278472 -0.707806,1.476836 -1.30981,2.086242 -1.245274,2.66426 -1.27718,5.787846 -2.803393,8.296094 -1.253584,0.628976 -1.051422,3.412682 0.805606,2.483852 5.700747,-1.897059 11.909701,-1.126427 17.778983,-2.059089 0.05852,-0.911074 0.614724,-1.946141 1.333199,-2.797439 1.981945,-5.531963 4.19759,-11.061632 5.991875,-16.665116 -0.159094,-0.979125 0.571972,-1.538395 0.939755,-2.280202 -1.025187,-1.264625 -4.049317,-0.509998 -5.533276,-0.748792 z"
       id="path194"
       inkscape:connector-curvature="0" />
    <path
       transform="matrix(0.86906762,0,0,0.78215525,13.387003,15.03237)"
       style="fill:none;stroke:#000000;stroke-width:0.22499999;stroke-linecap:butt;stroke-linejoin:miter;stroke-miterlimit:4;stroke-dasharray:none;stroke-opacity:1"
       d="m 63.116193,106.5582 c -3.34004,-0.59381 -6.74652,-0.81311 -10.13513,-0.65248 -3.803026,0.18028 -7.583093,0.8396 -11.222589,1.95744"
       id="path1020"
       inkscape:connector-curvature="0"
       inkscape:path-effect="#path-effect1022"
       inkscape:original-d="m 63.116193,106.5582 c -3.377627,-0.21824 -6.756003,-0.43574 -10.13513,-0.65248 -3.379126,-0.21674 -7.480977,1.30421 -11.222589,1.95744" />
    <path
       transform="matrix(0.86906762,0,0,0.78215525,13.387003,15.03237)"
       style="fill:none;stroke:#000000;stroke-width:0.375;stroke-linecap:butt;stroke-linejoin:miter;stroke-miterlimit:4;stroke-dasharray:none;stroke-opacity:1"
       d="m 83.046652,115.84576 c 2.580025,0.9189 5.237797,1.6194 7.935571,2.09154 8.805376,1.54105 18.032587,0.59313 26.340727,-2.706"
       id="path1024"
       inkscape:connector-curvature="0"
       inkscape:path-effect="#path-effect1026"
       inkscape:original-d="m 83.046652,115.84576 c 2.64594,0.69643 5.291131,1.39361 7.935571,2.09154 2.644439,0.69793 17.561237,-1.80475 26.340727,-2.706" />
    <path
       style="opacity:1;fill:#cccccc;fill-opacity:0.96132597;fill-rule:nonzero;stroke:#79afaf;stroke-width:0.10143588;stroke-linecap:round;stroke-linejoin:round;stroke-miterlimit:4;stroke-dasharray:none;stroke-opacity:1"
       d="m 60.548836,97.748221 c -3.600831,0.181006 -7.41436,0.301492 -10.693573,1.788148 -0.727922,0.420592 -0.921679,1.246071 -1.288508,1.894911 0.169096,0.53785 -0.442729,0.90005 -0.343742,1.47991 -0.653747,1.2805 -1.189933,2.60274 -1.550386,3.97626 -0.460062,0.41565 -0.608759,0.95377 -0.736767,1.53443 -0.831452,1.71739 -0.830246,3.73352 -2.036554,5.29341 -0.280413,1.2766 -0.473429,2.72142 -1.346981,3.75523 0.13997,0.57164 -0.685831,0.9962 -0.543805,1.64306 0.05021,0.53253 0.01537,1.0363 -0.453588,1.36827 -0.08155,0.45148 0.105367,0.86694 -0.327035,1.20889 -0.140405,0.94471 1.256594,0.4156 1.784603,0.29597 5.452792,-1.17296 11.124269,-1.59071 16.688468,-0.81359 0.58575,0.43607 1.695233,-0.1858 0.894229,-0.69879 -0.939756,-0.17363 0.463939,-0.61113 0.186698,-1.19348 0.628071,-1.36503 1.110364,-2.92176 1.61596,-4.37998 0.594668,-1.38997 1.217277,-2.77526 1.485648,-4.24352 1.009536,-1.84452 1.217832,-3.95296 2.258284,-5.77945 0.513473,-1.85897 1.476575,-3.56976 2.224972,-5.343784 0.354206,-0.887873 -0.617987,-1.570085 -1.548715,-1.458487 -2.0808,-0.216449 -4.172254,-0.38235 -6.269208,-0.327408 z"
       id="path1036"
       inkscape:connector-curvature="0" />
    <path
       style="opacity:1;fill:#e6e6e6;fill-opacity:0.96132597;fill-rule:nonzero;stroke:#79afaf;stroke-width:0.10143588;stroke-linecap:round;stroke-linejoin:round;stroke-miterlimit:4;stroke-dasharray:none;stroke-opacity:1"
       d="m 114.74888,105.45302 c -4.00699,1.08358 -8.02571,2.00779 -12.22642,2.17759 -5.416968,0.33452 -10.893978,-0.23823 -16.083589,-1.72312 -0.852366,-0.4019 -1.5708,0.32091 -1.402955,1.07958 0.245618,0.74401 -0.890888,0.6711 -0.915526,1.36451 -0.467048,1.32686 -0.46635,2.8097 -1.359513,3.98716 -0.346621,0.95114 -0.355518,2.00026 -1.070485,2.80346 -1.046577,3.76809 -2.411858,7.46429 -4.057234,11.03189 0.129499,0.7099 -1.423082,0.9162 -0.750133,1.6081 3.700245,1.79227 7.916613,2.78783 12.115259,2.96052 6.155091,0.26159 12.178816,-1.20231 17.954386,-2.96654 1.22933,-2.42604 1.9515,-5.13623 2.98667,-7.67106 1.74478,-4.77606 3.59372,-9.5263 5.20799,-14.33784 -0.0233,-0.19099 -0.17897,-0.34519 -0.39845,-0.31425 z"
       id="path1038"
       inkscape:connector-curvature="0" />
  </g>
</svg>
