<?xml version="1.0" encoding="UTF-8" standalone="no"?>
<svg
   xmlns:dc="http://purl.org/dc/elements/1.1/"
   xmlns:cc="http://creativecommons.org/ns#"
   xmlns:rdf="http://www.w3.org/1999/02/22-rdf-syntax-ns#"
   xmlns:svg="http://www.w3.org/2000/svg"
   xmlns="http://www.w3.org/2000/svg"
   xmlns:sodipodi="http://sodipodi.sourceforge.net/DTD/sodipodi-0.dtd"
   xmlns:inkscape="http://www.inkscape.org/namespaces/inkscape"
   version="1.0"
   width="225.000000pt"
   height="225.000000pt"
   viewBox="0 0 225.000000 225.000000"
   preserveAspectRatio="xMidYMid meet"
   id="svg8"
   sodipodi:docname="linux_pinguino.svg"
   inkscape:version="0.92.4 (5da689c313, 2019-01-14)">
  <defs
     id="defs12" />
  <sodipodi:namedview
     pagecolor="#ffffff"
     bordercolor="#666666"
     borderopacity="1"
     objecttolerance="10"
     gridtolerance="10"
     guidetolerance="10"
     inkscape:pageopacity="0"
     inkscape:pageshadow="2"
     inkscape:window-width="1366"
     inkscape:window-height="705"
     id="namedview10"
     showgrid="false"
     inkscape:zoom="0.78666667"
     inkscape:cx="150"
     inkscape:cy="150"
     inkscape:window-x="-8"
     inkscape:window-y="-8"
     inkscape:window-maximized="1"
     inkscape:current-layer="svg8" />
  <metadata
     id="metadata2">
Created by potrace 1.15, written by Peter Selinger 2001-2017
<rdf:RDF>
  <cc:Work
     rdf:about="">
    <dc:format>image/svg+xml</dc:format>
    <dc:type
       rdf:resource="http://purl.org/dc/dcmitype/StillImage" />
  </cc:Work>
</rdf:RDF>
</metadata>
  <g
     transform="matrix(0.1,0,0,-0.1,0,225)"
     id="linux"
     style="fill:#000000;stroke:none"
     inkscape:label="linux">
    <path
       d="m 1005,2241 c -68,-17 -137,-68 -170,-125 -42,-72 -50,-157 -37,-396 l 11,-212 -24,-48 C 772,1434 727,1368 686,1312 599,1196 586,1170 536,1036 515,982 483,907 464,870 437,817 430,791 430,746 c 0,-31 2,-56 5,-56 2,0 15,5 28,11 59,27 133,-47 286,-281 C 868,238 888,156 826,94 796,64 786,60 738,60 c -30,0 -92,11 -139,25 -46,14 -147,39 -223,55 -76,16 -145,35 -152,41 -18,15 -18,38 2,85 18,42 15,97 -9,159 -22,58 -9,75 54,75 71,0 117,22 134,64 22,53 19,78 -5,38 -24,-39 -75,-72 -111,-72 -50,0 -90,-13 -100,-32 -7,-14 -6,-39 6,-90 15,-68 15,-73 -6,-135 C 152,161 166,147 350,112 408,101 514,73 585,50 740,0 776,1 853,53 c 79,52 106,58 303,64 202,6 243,-1 270,-46 28,-47 70,-66 149,-66 h 71 l 89,72 c 50,40 137,96 194,125 104,53 151,93 151,128 0,21 -31,55 -71,75 -57,30 -92,87 -112,180 -8,39 -20,-33 -13,-79 9,-59 37,-92 101,-121 112,-49 92,-89 -75,-155 -71,-28 -128,-58 -175,-95 -39,-30 -83,-59 -99,-64 -62,-24 -120,-7 -148,42 -9,15 -13,72 -13,182 -1,88 -5,188 -9,222 -9,67 -4,104 19,127 21,21 40,11 66,-32 43,-71 58,-82 113,-82 38,0 61,6 89,25 20,14 37,29 37,34 0,4 21,29 48,55 l 47,47 v 92 c -1,179 -85,380 -233,556 -116,138 -158,255 -171,471 -9,147 -27,210 -81,293 -39,58 -87,94 -158,119 -62,22 -189,32 -237,19 z m 254,-327 c 44,-31 75,-136 55,-188 -3,-9 -17,-16 -31,-16 -23,0 -24,2 -18,39 10,59 -15,101 -59,101 -18,0 -39,-7 -46,-15 -15,-18 -24,-86 -13,-101 4,-6 42,-24 83,-41 l 75,-30 -3,-79 c -2,-77 -1,-81 38,-144 22,-36 50,-96 62,-135 12,-38 32,-84 45,-102 42,-55 73,-166 83,-295 5,-65 12,-122 15,-128 11,-18 71,-11 90,10 26,28 32,139 11,217 -16,64 -76,194 -104,226 -8,9 -13,20 -10,23 8,7 80,-89 106,-142 34,-67 55,-203 43,-271 -6,-31 -11,-58 -11,-60 0,-1 14,-9 30,-18 17,-9 30,-20 30,-26 0,-7 -6,-7 -16,2 -21,18 -114,17 -148,0 -14,-8 -29,-25 -32,-38 -4,-16 -16,-26 -35,-30 -58,-11 -72,-65 -57,-216 10,-92 8,-123 -7,-212 -10,-58 -21,-105 -25,-105 -4,0 -13,6 -19,14 -9,11 -7,31 9,87 22,82 26,134 9,145 -7,4 -28,-13 -51,-40 -22,-26 -57,-55 -77,-65 -91,-47 -265,-54 -320,-13 -32,23 -61,29 -61,12 0,-5 9,-24 20,-42 23,-38 26,-90 6,-107 -11,-9 -14,-2 -18,39 -3,32 -16,68 -37,101 -17,28 -31,53 -31,57 0,4 10,12 22,17 32,14 51,57 39,87 -5,13 -49,58 -98,98 -185,156 -222,192 -240,239 -20,52 -23,137 -5,166 9,17 11,7 12,-54 0,-57 5,-82 22,-112 37,-66 52,-50 59,66 3,55 14,123 24,150 23,66 80,178 97,193 11,8 13,27 10,64 -3,46 1,62 32,121 20,38 40,85 44,105 l 8,37 43,-55 c 48,-61 82,-84 111,-75 10,3 54,30 97,59 43,29 93,61 111,70 34,17 43,36 17,36 -8,0 -51,-18 -94,-40 -87,-45 -153,-52 -196,-24 -39,25 -30,34 34,34 47,0 84,9 167,42 98,39 127,59 110,75 -3,4 -17,-4 -30,-16 -35,-33 -164,-71 -239,-71 -58,1 -65,4 -104,39 -24,21 -43,45 -43,53 0,7 27,38 61,67 57,51 61,56 56,88 -7,42 -23,63 -48,63 -47,0 -66,-73 -29,-110 20,-20 19,-40 0,-40 -17,0 -40,58 -40,100 0,72 40,127 86,116 30,-8 63,-73 64,-123 0,-31 2,-33 34,-33 19,0 41,-2 49,-6 11,-4 14,6 14,49 0,58 17,92 55,114 32,17 79,16 107,-3 z"
       id="path4"
       inkscape:connector-curvature="0" />
  </g>
</svg>
