<?xml version="1.0" standalone="no"?>
<!DOCTYPE svg PUBLIC "-//W3C//DTD SVG 20010904//EN"
 "http://www.w3.org/TR/2001/REC-SVG-20010904/DTD/svg10.dtd">
<svg version="1.0" xmlns="http://www.w3.org/2000/svg"
 width="244.000000pt" height="170.000000pt" viewBox="0 0 244.000000 170.000000"
 preserveAspectRatio="xMidYMid meet">
<metadata>
Created by potrace 1.15, written by Peter Selinger 2001-2017
</metadata>
<g transform="translate(0.000000,170.000000) scale(0.100000,-0.100000)"
fill="#000000" stroke="none">
<path d="M1750 1681 c-41 -16 -104 -47 -140 -71 -8 -5 -177 -104 -375 -220
-198 -116 -367 -215 -375 -220 -8 -6 -22 -13 -30 -17 -8 -4 -37 -21 -65 -38
-27 -17 -57 -35 -65 -38 -8 -4 -28 -16 -45 -27 -16 -11 -37 -23 -45 -27 -13
-6 -82 -46 -136 -80 -10 -7 -34 -20 -52 -29 -49 -25 -66 -57 -65 -124 1 -46
-2 -59 -15 -64 -10 -3 -37 -17 -62 -32 -25 -14 -98 -57 -163 -95 l-118 -70 3
-137 3 -137 60 -36 c33 -20 87 -51 120 -69 33 -18 71 -40 85 -49 89 -57 177
-101 202 -101 13 0 54 18 92 40 37 22 71 40 74 40 3 0 13 6 21 14 9 7 48 30
86 51 39 21 80 45 93 53 21 14 26 14 55 -4 22 -13 51 -19 92 -18 58 0 66 3
225 97 91 54 172 102 180 107 25 15 122 72 170 98 25 14 56 32 70 42 14 9 32
20 40 24 8 4 24 12 35 19 11 7 61 36 110 65 50 29 97 57 105 62 8 6 112 67
230 136 118 69 223 133 234 142 10 10 27 34 37 54 17 33 19 61 19 228 0 170
-2 195 -20 229 -39 77 -160 158 -300 201 -87 26 -302 27 -370 1z m-350 -618
c0 -5 -5 -25 -10 -45 -11 -37 -11 -37 -38 -21 -27 16 -30 15 -167 -67 l-140
-82 68 6 c37 3 81 13 97 23 30 17 39 33 20 33 -21 0 -9 16 26 35 l36 19 44
-23 c24 -13 44 -27 44 -31 0 -13 -72 -41 -91 -35 -11 4 -33 -2 -52 -14 -23
-14 -65 -23 -142 -31 -91 -9 -118 -16 -155 -39 -25 -15 -45 -34 -45 -42 -1
-25 -16 -39 -43 -39 -39 0 -77 23 -77 45 0 17 9 21 49 25 55 6 59 10 81 90 13
47 21 58 55 78 22 13 38 27 34 33 -10 17 17 39 51 39 18 0 43 -8 56 -19 20
-16 22 -21 10 -35 -9 -11 -27 -16 -51 -14 -56 3 -105 -32 -118 -84 -6 -23 -10
-43 -9 -44 2 -2 296 165 347 197 13 8 12 11 -5 21 -19 12 -19 12 5 19 34 10
120 11 120 2z m-888 -353 c15 -7 25 -17 21 -23 -3 -6 -1 -7 5 -3 13 8 75 -28
64 -38 -4 -4 -2 -6 3 -5 14 4 85 -31 85 -43 0 -5 3 -7 8 -5 4 3 25 -6 47 -19
22 -13 48 -27 57 -30 10 -4 15 -11 11 -18 -3 -6 -3 -8 2 -4 4 4 21 0 38 -9 29
-15 30 -16 12 -29 -11 -8 -26 -12 -34 -9 -9 3 -12 3 -8 -1 4 -4 -1 -13 -11
-20 -21 -17 -36 -18 -26 -2 4 7 3 8 -5 4 -6 -4 -9 -11 -6 -16 3 -5 -18 -22
-47 -37 -71 -37 -72 -38 -63 -22 5 8 6 12 2 9 -3 -3 -5 -8 -4 -12 2 -8 -34
-37 -46 -38 -5 0 -5 5 -1 12 4 7 3 8 -5 4 -6 -4 -9 -11 -6 -16 7 -11 -24 -22
-37 -13 -6 3 -8 1 -4 -5 4 -6 -14 -22 -44 -39 l-50 -28 0 -102 c0 -57 -3 -103
-6 -103 -13 0 -413 235 -414 243 0 4 11 0 25 -9 14 -9 25 -12 25 -6 0 5 -7 12
-15 16 -32 12 -16 44 40 76 30 17 55 33 55 35 0 2 -20 16 -45 31 -25 14 -43
30 -40 34 3 5 1 11 -5 15 -5 3 -10 10 -10 15 0 15 80 61 92 54 6 -4 8 -3 5 3
-6 9 25 30 47 31 5 0 12 5 15 10 9 15 113 74 105 60 -4 -7 4 -3 18 10 34 30
87 59 107 57 9 -1 28 -8 43 -15z"/>
</g>
</svg>
