<?xml version="1.0" standalone="no"?>
<!DOCTYPE svg PUBLIC "-//W3C//DTD SVG 20010904//EN"
 "http://www.w3.org/TR/2001/REC-SVG-20010904/DTD/svg10.dtd">
<svg version="1.0" xmlns="http://www.w3.org/2000/svg"
 width="244.000000pt" height="170.000000pt" viewBox="0 0 244.000000 170.000000"
 preserveAspectRatio="xMidYMid meet">
<metadata>
Created by potrace 1.15, written by Peter Selinger 2001-2017
</metadata>
<g transform="translate(0.000000,170.000000) scale(0.100000,-0.100000)"
fill="#000000" stroke="none">
<path d="M1745 1676 c-33 -12 -79 -34 -102 -49 -24 -15 -45 -27 -48 -27 -2 0
-35 -19 -72 -42 -38 -22 -84 -50 -103 -61 -175 -98 -1029 -606 -1042 -619 -14
-14 -18 -34 -18 -81 0 -61 -1 -64 -32 -80 -40 -20 -112 -61 -236 -133 l-93
-55 3 -137 3 -137 60 -36 c33 -20 85 -50 115 -66 30 -17 102 -58 160 -92 58
-34 116 -61 129 -61 14 0 86 35 160 79 252 146 230 136 265 115 21 -13 50 -18
91 -18 60 0 61 1 405 203 372 219 474 279 505 298 11 7 27 16 35 20 16 9 136
78 160 93 87 54 233 140 238 140 17 0 75 57 92 90 18 35 20 59 20 230 0 188 0
192 -26 236 -46 79 -158 152 -298 193 -100 31 -287 29 -371 -3z m625 -370
c-14 -23 -49 -51 -103 -82 -268 -154 -1132 -662 -1182 -694 l-60 -39 5 -125
c3 -68 2 -122 -2 -120 -4 2 -9 0 -13 -6 -3 -5 -17 -10 -31 -10 l-24 0 0 128 0
129 -258 148 c-141 82 -265 155 -275 163 -27 23 -12 27 20 5 15 -11 132 -80
258 -153 162 -94 242 -134 270 -137 37 -4 66 11 415 215 1030 602 953 555 975
598 11 22 21 34 23 27 2 -7 -6 -29 -18 -47z m-970 -255 c0 -11 -5 -32 -10 -46
-10 -26 -11 -27 -35 -11 -25 17 -28 15 -160 -60 -75 -43 -134 -79 -131 -81 2
-2 28 -1 59 3 56 7 134 43 110 51 -21 8 -15 20 22 41 l34 21 46 -25 c25 -14
45 -29 45 -33 0 -15 -62 -43 -84 -37 -13 3 -35 -3 -56 -15 -24 -15 -64 -24
-139 -31 -88 -8 -115 -15 -159 -40 -29 -16 -50 -34 -46 -39 10 -18 -18 -39
-51 -39 -40 0 -81 30 -72 53 5 12 19 17 51 17 51 0 56 5 77 89 11 45 20 58 54
80 25 16 40 34 40 46 0 29 72 34 105 7 35 -28 21 -52 -31 -52 -64 0 -113 -32
-125 -83 l-9 -43 172 99 c95 54 173 103 173 108 0 5 -7 12 -15 15 -32 13 -1
24 66 24 62 0 69 -2 69 -19z m-762 -408 c92 -53 186 -108 210 -121 l42 -24 0
-102 0 -103 -212 -123 -211 -123 -55 29 c-30 16 -124 70 -211 120 l-156 91 -3
104 -3 104 208 121 c115 67 211 122 216 123 4 1 83 -43 175 -96z"/>
</g>
</svg>
