<?xml version="1.0" standalone="no"?>
<!DOCTYPE svg PUBLIC "-//W3C//DTD SVG 20010904//EN"
 "http://www.w3.org/TR/2001/REC-SVG-20010904/DTD/svg10.dtd">
<svg version="1.0" xmlns="http://www.w3.org/2000/svg"
 width="244.000000pt" height="170.000000pt" viewBox="0 0 244.000000 170.000000"
 preserveAspectRatio="xMidYMid meet">
<metadata>
Created by potrace 1.15, written by Peter Selinger 2001-2017
</metadata>
<g transform="translate(0.000000,170.000000) scale(0.100000,-0.100000)"
fill="#000000" stroke="none">
<path d="M1750 1681 c-41 -16 -104 -47 -140 -71 -8 -5 -177 -104 -375 -220
-198 -116 -367 -215 -375 -220 -8 -6 -22 -13 -30 -17 -8 -4 -37 -21 -65 -38
-27 -17 -57 -35 -65 -38 -8 -4 -28 -16 -45 -27 -16 -11 -37 -23 -45 -27 -13
-6 -82 -46 -136 -80 -10 -7 -34 -20 -52 -29 -49 -25 -66 -57 -65 -124 1 -46
-2 -59 -15 -64 -10 -3 -37 -17 -62 -32 -25 -14 -98 -57 -163 -95 l-118 -70 3
-137 3 -137 60 -36 c33 -20 87 -51 120 -69 33 -18 71 -40 85 -49 89 -57 177
-101 202 -101 13 0 54 18 92 40 37 22 71 40 74 40 3 0 13 6 21 14 9 7 48 30
86 51 39 21 80 45 93 53 21 14 26 14 55 -4 22 -13 51 -19 92 -18 58 0 66 3
225 97 91 54 172 102 180 107 25 15 122 72 170 98 25 14 56 32 70 42 14 9 32
20 40 24 8 4 24 12 35 19 11 7 61 36 110 65 50 29 97 57 105 62 8 6 112 67
230 136 118 69 223 133 234 142 10 10 27 34 37 54 17 33 19 61 19 228 0 170
-2 195 -20 229 -39 77 -160 158 -300 201 -87 26 -302 27 -370 1z m-357 -643
c-7 -42 -19 -56 -35 -40 -7 7 -18 12 -25 12 -15 0 -283 -152 -283 -161 0 -12
132 11 160 28 32 18 37 28 19 39 -10 6 41 44 60 44 5 0 28 -11 52 -24 l42 -24
-34 -21 c-20 -12 -42 -18 -56 -15 -13 4 -35 -2 -55 -14 -23 -13 -66 -23 -140
-31 -125 -12 -208 -48 -208 -88 0 -40 -89 -39 -114 0 -15 23 7 38 54 35 42 -2
60 7 60 29 0 9 7 39 16 68 13 41 24 55 56 74 23 13 38 28 35 36 -12 31 43 46
86 24 50 -27 37 -61 -23 -57 -48 2 -108 -34 -116 -70 -3 -15 -8 -35 -11 -46
-3 -10 -1 -16 3 -14 96 54 333 190 344 198 13 9 12 12 -5 23 -18 11 -17 12 20
18 22 3 55 7 72 8 31 1 32 0 26 -31z m-1095 -683 l172 -100 -1 -95 c-1 -52 -4
-85 -6 -73 -3 14 -9 20 -18 17 -11 -5 -132 60 -327 176 -56 33 -51 58 18 96
l56 31 -43 27 c-94 58 -14 16 149 -79z"/>
</g>
</svg>
