<?xml version="1.0" standalone="no"?>
<!DOCTYPE svg PUBLIC "-//W3C//DTD SVG 20010904//EN"
 "http://www.w3.org/TR/2001/REC-SVG-20010904/DTD/svg10.dtd">
<svg version="1.0" xmlns="http://www.w3.org/2000/svg"
 width="220.000000pt" height="220.000000pt" viewBox="0 0 220.000000 220.000000"
 preserveAspectRatio="xMidYMid meet">
<metadata>
Created by potrace 1.15, written by Peter Selinger 2001-2017
</metadata>
<g transform="translate(0.000000,220.000000) scale(0.100000,-0.100000)"
fill="#000000" stroke="none">
<path d="M1075 1870 c-27 -11 -86 -46 -130 -77 l-80 -57 -220 -1 c-250 -1
-332 -16 -454 -80 -91 -48 -181 -137 -181 -178 0 -27 17 -20 40 18 50 81 166
154 300 190 74 20 435 34 451 18 5 -5 -26 -39 -80 -85 -148 -128 -197 -202
-180 -276 12 -55 74 -135 219 -287 195 -202 365 -413 540 -674 83 -122 87
-127 155 -161 68 -34 73 -35 185 -34 96 0 124 4 169 22 80 34 168 99 222 167
62 75 76 107 95 203 41 206 -32 458 -199 686 -115 158 -452 461 -638 574 -87
53 -141 61 -214 32z m165 -25 c53 -27 253 -175 334 -247 l49 -44 -54 -41
c-118 -92 -112 -85 -101 -138 17 -78 7 -81 -60 -20 -33 30 -77 65 -99 78 -30
17 -39 28 -39 50 0 36 -72 115 -133 145 -24 12 -67 23 -94 25 -31 2 -61 11
-80 25 -17 12 -43 26 -58 32 l-28 11 79 56 c142 100 196 113 284 68z m-295
-177 c25 -16 35 -30 35 -49 0 -29 32 -63 134 -138 62 -47 72 -52 116 -50 43 2
55 -2 102 -38 29 -22 71 -57 93 -76 39 -36 40 -36 14 -37 -15 0 -43 7 -62 15
-20 8 -41 15 -46 15 -5 0 -86 -70 -180 -155 -94 -85 -176 -155 -182 -155 -15
0 -299 231 -342 280 -46 50 -71 104 -63 136 8 32 121 151 215 226 83 66 99 69
166 26z m182 -53 c98 -49 167 -153 113 -170 -30 -10 -58 3 -135 60 -89 67
-119 100 -112 119 10 25 76 20 134 -9z m638 -197 c132 -136 194 -219 260 -353
85 -171 113 -334 85 -486 -34 -179 -214 -346 -408 -379 -89 -15 -164 -2 -251
42 l-63 33 -38 116 c-70 213 -174 397 -300 528 -59 61 -61 65 -43 81 10 9 86
78 170 154 l152 137 55 -17 c52 -16 56 -16 82 1 26 16 26 20 21 81 l-6 63 75
61 c58 46 79 58 92 51 9 -5 62 -56 117 -113z m-940 -333 c231 -182 322 -287
424 -492 47 -94 114 -268 88 -229 -148 224 -390 528 -567 711 -74 77 -146 156
-160 175 -23 34 -22 33 26 -10 27 -25 112 -94 189 -155z"/>
</g>
</svg>
