<?xml version="1.0" standalone="no"?>
<!DOCTYPE svg PUBLIC "-//W3C//DTD SVG 20010904//EN"
 "http://www.w3.org/TR/2001/REC-SVG-20010904/DTD/svg10.dtd">
<svg version="1.0" xmlns="http://www.w3.org/2000/svg"
 width="225.000000pt" height="225.000000pt" viewBox="0 0 225.000000 225.000000"
 preserveAspectRatio="xMidYMid meet">
<metadata>
Created by potrace 1.15, written by Peter Selinger 2001-2017
</metadata>
<g transform="translate(0.000000,225.000000) scale(0.100000,-0.100000)"
fill="#000000" stroke="none">
<path d="M1300 585 c-138 -164 -116 -157 -225 -80 -106 75 -195 135 -200 135
-3 0 -5 -10 -5 -22 0 -18 31 -44 138 -120 147 -103 168 -114 166 -85 -1 9 1
17 5 17 4 0 58 63 120 140 62 77 116 140 118 140 3 0 3 -7 0 -15 -4 -8 -2 -17
2 -20 5 -2 11 4 14 15 3 11 1 20 -5 20 -5 0 -6 5 -3 10 3 6 4 10 1 10 -3 0
-60 -65 -126 -145z"/>
</g>
</svg>
