<?xml version="1.0" standalone="no"?>
<!DOCTYPE svg PUBLIC "-//W3C//DTD SVG 20010904//EN"
 "http://www.w3.org/TR/2001/REC-SVG-20010904/DTD/svg10.dtd">
<svg version="1.0" xmlns="http://www.w3.org/2000/svg"
 width="225.000000pt" height="225.000000pt" viewBox="0 0 225.000000 225.000000"
 preserveAspectRatio="xMidYMid meet">
<metadata>
Created by potrace 1.15, written by Peter Selinger 2001-2017
</metadata>
<g transform="translate(0.000000,225.000000) scale(0.100000,-0.100000)"
fill="#000000" stroke="none">
<path d="M1408 717 c-7 -8 -62 -73 -121 -146 l-109 -131 -26 16 c-15 8 -80 53
-145 100 -65 46 -123 84 -128 84 -5 0 -9 -10 -9 -22 0 -18 33 -47 153 -131
146 -104 152 -107 157 -83 3 13 53 83 111 154 81 99 109 128 118 119 9 -9 14
-8 21 3 20 32 3 62 -22 37z"/>
</g>
</svg>
