<?xml version="1.0" standalone="no"?>
<!DOCTYPE svg PUBLIC "-//W3C//DTD SVG 20010904//EN"
 "http://www.w3.org/TR/2001/REC-SVG-20010904/DTD/svg10.dtd">
<svg version="1.0" xmlns="http://www.w3.org/2000/svg"
 width="259.000000pt" height="194.000000pt" viewBox="0 0 259.000000 194.000000"
 preserveAspectRatio="xMidYMid meet">
<metadata>
Created by potrace 1.15, written by Peter Selinger 2001-2017
</metadata>
<g transform="translate(0.000000,194.000000) scale(0.100000,-0.100000)"
fill="#000000" stroke="none">
<path d="M1960 1883 c-57 -21 -125 -61 -214 -127 -39 -29 -206 -151 -371 -271
-165 -120 -349 -255 -410 -300 -60 -45 -171 -126 -245 -180 -277 -202 -280
-204 -279 -233 1 -15 5 -38 10 -52 9 -25 9 -25 5 3 -4 36 2 34 15 -3 6 -16 15
-27 20 -24 5 3 9 -4 9 -15 0 -15 -44 -54 -163 -142 -89 -67 -163 -124 -164
-128 -2 -3 56 -71 127 -150 72 -79 130 -151 130 -159 0 -9 -3 -12 -8 -6 -13
14 -193 214 -229 254 -26 27 -33 31 -33 17 0 -17 218 -269 266 -307 16 -14 17
-13 11 3 -8 20 9 60 22 53 12 -8 52 24 45 36 -4 6 -3 8 2 5 10 -6 115 68 172
121 16 15 43 35 59 44 28 16 29 16 30 -5 1 -13 -13 -38 -35 -61 l-37 -40 41
32 c23 18 45 32 49 32 4 0 25 -16 46 -35 22 -19 47 -35 58 -35 24 0 65 29 261
180 240 185 532 410 830 640 309 238 367 291 408 368 31 59 54 136 29 98 -34
-53 -94 -107 -260 -232 -100 -75 -188 -142 -196 -148 -11 -8 -13 -8 -10 1 2 6
21 24 41 40 20 15 83 63 140 107 165 126 257 223 274 290 4 16 12 25 19 22 10
-4 11 3 3 32 -16 58 -33 84 -91 144 -132 134 -251 175 -377 131z m-1372 -1220
c66 -71 134 -144 151 -163 17 -20 51 -58 75 -85 47 -51 54 -76 11 -35 -14 13
-25 19 -25 15 0 -5 -32 22 -70 60 -43 42 -68 75 -65 84 4 11 3 12 -10 1 -12
-10 -16 -9 -22 6 -3 11 -28 43 -55 72 -26 30 -48 59 -48 67 0 7 -18 31 -40 53
-22 22 -40 42 -40 46 0 20 31 -7 138 -121z"/>
</g>
</svg>
