<?xml version="1.0" standalone="no"?>
<!DOCTYPE svg PUBLIC "-//W3C//DTD SVG 20010904//EN"
 "http://www.w3.org/TR/2001/REC-SVG-20010904/DTD/svg10.dtd">
<svg version="1.0" xmlns="http://www.w3.org/2000/svg"
 width="300.000000pt" height="258.000000pt" viewBox="0 0 300.000000 258.000000"
 preserveAspectRatio="xMidYMid meet">
<metadata>
Created by potrace 1.15, written by Peter Selinger 2001-2017
</metadata>
<g transform="translate(0.000000,258.000000) scale(0.100000,-0.100000)"
fill="#000000" stroke="none">
<path d="M75 2570 c192 -84 1501 -538 1945 -675 224 -69 393 -125 400 -132 3
-3 -6 -2 -20 2 -14 5 -41 9 -60 11 -19 2 -42 4 -50 5 -31 4 -61 -1 -56 -10 7
-11 -17 -21 -50 -21 -13 0 -24 -4 -24 -10 0 -5 -4 -10 -9 -10 -6 0 -9 18 -9
40 0 30 5 41 20 46 11 3 17 8 15 10 -4 4 -53 -14 -67 -24 -2 -2 2 -7 10 -12
13 -9 13 -10 0 -10 -8 0 -22 5 -30 10 -13 9 -13 11 0 20 8 5 21 10 28 10 6 0
12 5 12 11 0 7 -9 9 -22 6 -11 -3 -37 1 -57 9 -19 8 -42 12 -50 9 -9 -3 -12
-3 -8 1 13 13 -53 44 -93 44 -27 0 -39 4 -38 13 2 6 -4 11 -11 9 -8 -2 -24 1
-35 6 -47 22 -108 42 -129 42 -13 0 -29 6 -35 12 -8 8 -37 12 -73 11 -53 -1
-58 1 -42 13 16 11 11 12 -37 7 -30 -3 -77 -12 -105 -19 -42 -11 -53 -10 -72
2 -12 8 -35 14 -51 14 -33 0 -43 3 -382 110 -251 80 -316 98 -291 81 11 -7 8
-10 -10 -17 -26 -8 -51 -12 -86 -13 -13 -1 -23 -7 -23 -16 0 -8 -7 -15 -15
-15 -13 0 -14 -9 -9 -47 7 -57 18 -79 44 -93 11 -6 17 -16 14 -23 -2 -7 7 -23
22 -36 17 -15 24 -29 21 -42 -4 -14 0 -19 13 -19 28 0 34 -18 8 -23 -22 -4
-22 -4 1 -6 24 -1 24 -1 5 -16 -18 -13 -17 -14 19 -15 46 0 49 -17 5 -23 l-33
-4 33 -1 c19 -1 35 -8 38 -17 4 -8 12 -15 19 -15 10 0 12 10 8 37 -4 26 -3 34
5 29 8 -5 12 0 12 13 0 12 -8 21 -22 24 -22 4 -22 4 -1 6 14 1 25 11 32 33 6
17 9 33 7 35 -2 3 6 30 19 61 36 89 65 92 270 28 28 -9 59 -20 70 -25 11 -5
55 -20 98 -33 43 -13 77 -28 77 -35 0 -7 -4 -13 -10 -13 -5 0 1 -11 14 -25 16
-17 30 -23 42 -19 14 4 15 3 5 -4 -11 -8 -11 -13 0 -33 34 -60 44 -156 16
-146 -7 2 -29 -4 -50 -15 -21 -10 -42 -16 -47 -13 -5 3 -12 -4 -15 -15 -8 -26
-21 -24 -205 37 -143 48 -162 57 -154 77 2 6 -5 21 -16 33 -24 26 -26 56 -5
73 8 7 18 30 21 52 4 21 10 40 14 43 4 2 1 -27 -7 -66 -24 -117 -28 -113 157
-169 58 -17 118 -36 134 -41 42 -13 43 -13 66 34 11 23 17 33 14 22 -16 -51
-16 -55 -1 -55 26 0 68 23 64 34 -2 6 0 24 4 40 10 34 -3 56 -33 56 -13 0 -18
-5 -15 -14 4 -10 0 -12 -14 -9 -11 3 -22 9 -25 14 -3 5 -20 9 -38 9 -19 0 -39
7 -46 15 -7 8 -24 15 -39 15 -15 0 -31 4 -36 9 -6 5 -23 11 -40 13 -25 2 -30
7 -27 27 1 14 9 32 17 41 13 15 10 18 -38 33 -30 9 -62 17 -71 17 -12 0 -16 5
-13 14 4 9 -3 16 -16 20 -52 14 -52 14 -77 -139 -13 -80 -21 -147 -19 -148 2
-2 40 -13 84 -26 102 -30 133 -42 118 -48 -17 -6 -17 -24 0 -22 6 1 19 -1 27
-4 20 -8 123 -40 180 -56 25 -7 55 -17 67 -22 13 -5 53 -16 90 -24 91 -21 163
-45 163 -54 0 -5 -26 -26 -57 -49 -32 -22 -80 -61 -108 -86 -27 -25 -53 -46
-57 -46 -3 0 -13 -6 -20 -12 -7 -7 -29 -24 -47 -37 -29 -20 -36 -22 -57 -10
-13 7 -22 14 -20 16 2 3 14 -1 26 -7 23 -12 25 -11 94 55 17 17 44 40 61 52
16 12 27 25 23 29 -4 4 -13 2 -21 -4 -8 -7 -18 -7 -27 -2 -20 13 -33 12 -24
-1 4 -7 0 -9 -12 -6 -50 14 -84 18 -84 9 0 -6 6 -13 13 -15 6 -3 -6 -6 -28 -7
-22 -1 -34 -4 -27 -7 30 -12 8 -18 -32 -9 -25 6 -42 14 -39 20 3 5 2 6 -4 3
-13 -8 -63 5 -62 17 0 5 -5 13 -13 18 -10 8 -10 11 0 15 6 2 10 9 6 14 -3 5
-1 9 4 9 5 0 9 7 9 15 0 8 -9 15 -19 15 -11 0 -16 -5 -13 -10 4 -6 1 -23 -6
-38 l-12 -28 -176 62 c-392 139 -408 147 -496 226 -16 16 -46 33 -65 39 -19 7
-39 15 -45 19 -5 5 -27 11 -48 15 -28 6 -35 10 -25 17 9 6 5 7 -11 3 -14 -5
-26 -2 -31 5 -15 24 -29 -1 -29 -53 l0 -52 202 -79 c244 -94 676 -255 769
-285 70 -23 95 -41 59 -41 -12 0 -21 -3 -21 -7 0 -5 -20 -21 -45 -38 -24 -16
-45 -34 -45 -38 0 -4 -16 -15 -35 -23 -19 -8 -35 -18 -35 -23 0 -5 -20 -22
-45 -38 -25 -15 -45 -32 -46 -38 0 -5 -34 -35 -76 -65 -168 -122 -251 -194
-326 -282 -43 -51 -101 -116 -128 -143 -27 -28 -49 -57 -49 -65 0 -7 10 -25
23 -39 l22 -25 -27 17 c-37 23 -38 22 -38 -22 0 -41 -16 -57 -120 -124 l-35
-23 -3 -139 c-2 -104 1 -140 10 -147 7 -4 37 -8 66 -8 52 0 119 27 162 66 9 7
38 25 65 39 l48 26 28 -20 c16 -12 35 -21 43 -21 8 0 103 37 212 82 158 65
221 98 309 157 131 89 225 161 225 172 0 5 7 9 16 9 8 0 28 12 43 27 15 16 40
35 55 43 15 8 32 22 37 32 5 10 15 18 20 18 20 0 137 92 142 111 7 26 24 24
114 -12 143 -56 336 -119 643 -208 411 -119 739 -211 756 -211 2 0 4 130 4
290 l0 289 -82 26 c-83 25 -106 31 -358 99 -74 20 -178 50 -230 66 -52 15
-122 36 -155 46 -51 14 -136 44 -277 96 -15 6 -25 14 -22 19 3 5 -2 6 -10 3
-14 -6 -21 5 -17 28 0 4 -6 5 -15 1 -10 -4 -17 2 -21 16 -3 11 -12 21 -19 21
-8 0 -17 7 -20 15 -4 8 -10 12 -15 9 -5 -3 -9 1 -9 10 0 31 101 29 175 -5 11
-5 40 -16 65 -24 l45 -15 -45 4 -45 5 45 -15 c28 -9 46 -10 48 -4 4 12 39 13
46 2 3 -5 31 -14 63 -21 32 -7 63 -17 69 -22 19 -16 98 -41 144 -46 24 -3 49
-11 55 -18 5 -8 25 -16 44 -19 19 -2 38 -11 43 -18 6 -11 10 -11 16 0 7 10 11
10 22 -3 7 -8 21 -15 31 -15 11 0 28 -9 39 -20 14 -14 28 -18 49 -14 16 4 31
1 35 -5 4 -6 23 -11 42 -11 19 0 34 -5 34 -11 0 -5 8 -9 18 -8 9 1 28 -3 42
-9 14 -6 43 -14 65 -18 37 -6 38 -8 15 -15 -17 -6 -10 -6 19 -3 38 5 43 4 38
-10 -8 -20 0 -21 19 -1 11 10 14 32 12 77 -3 60 -4 62 -35 70 -17 4 -43 23
-58 40 -22 26 -26 39 -22 70 6 45 49 87 90 88 l27 0 0 615 0 615 -462 0 c-254
0 -458 -3 -454 -7 4 -4 69 -29 144 -54 87 -30 136 -51 134 -59 -2 -9 6 -11 26
-7 16 3 46 0 68 -8 32 -12 34 -14 14 -15 -14 0 -36 -3 -49 -7 -17 -4 -22 -3
-17 5 4 7 3 12 -3 12 -5 0 -13 -5 -16 -10 -4 -6 -16 -8 -27 -4 -19 6 -18 3 5
-22 15 -16 23 -32 18 -37 -11 -11 -41 2 -41 18 0 10 -10 12 -35 8 -28 -4 -35
-2 -35 11 0 9 -5 16 -11 16 -5 0 -7 -4 -4 -10 9 -15 -12 -12 -74 9 -31 10
-103 28 -161 40 -58 12 -112 26 -120 30 -9 5 -36 11 -60 15 l-45 6 52 -18 c29
-10 58 -23 65 -30 6 -6 20 -12 29 -12 9 0 34 -8 55 -17 22 -9 45 -18 53 -19 7
-1 19 -8 25 -14 15 -16 -101 -5 -174 16 -51 15 -99 26 -227 55 -29 6 -53 15
-53 19 0 4 -10 8 -22 8 -13 -1 -48 7 -78 16 -91 28 -171 46 -245 56 -88 11
-275 12 -255 1 19 -10 376 -130 865 -291 203 -67 372 -125 375 -128 3 -4 12
-8 20 -9 15 -2 34 -6 83 -18 15 -4 27 -11 27 -17 0 -5 4 -6 10 -3 5 3 18 1 27
-4 16 -9 15 -10 -8 -11 -15 0 -38 -13 -59 -35 -21 -21 -38 -31 -44 -26 -6 5
-29 12 -51 15 -22 4 -87 23 -145 41 -58 18 -126 39 -152 46 -27 8 -48 17 -48
21 0 4 -16 8 -35 8 -21 0 -38 6 -41 14 -3 8 -14 11 -28 9 -13 -3 -27 0 -30 6
-4 6 -19 11 -33 11 -15 0 -40 4 -57 10 -81 25 -175 49 -216 55 l-45 5 40 -17
c22 -9 42 -20 45 -24 3 -3 20 -10 37 -14 18 -3 36 -11 39 -17 5 -8 -1 -9 -17
-4 -13 4 -49 10 -79 13 -30 2 -62 7 -70 10 -8 4 -35 7 -60 7 -28 1 -44 5 -43
12 1 7 -10 11 -27 10 -17 -1 -30 1 -30 5 0 4 -41 17 -92 28 -50 12 -96 25
-102 30 -18 14 -48 22 -41 11 3 -6 1 -10 -4 -10 -6 0 -11 4 -11 8 0 4 -21 14
-47 21 -27 7 -65 19 -86 27 -20 8 -45 14 -55 13 -9 0 -3 -6 15 -12 17 -7 35
-15 39 -19 4 -5 20 -8 36 -8 20 0 27 -4 22 -12 -5 -8 0 -9 14 -6 12 4 22 2 22
-3 0 -5 9 -9 19 -9 11 0 22 -4 25 -9 3 -5 18 -12 33 -15 39 -10 224 -79 220
-82 -4 -4 -453 143 -582 191 -55 20 -149 54 -210 75 -60 22 -154 55 -209 75
-74 26 -113 35 -160 34 -44 0 -55 -3 -41 -9z m1515 -810 c30 -11 57 -20 60
-20 3 0 -1 -4 -8 -8 -18 -12 161 -64 196 -57 22 4 24 4 7 -4 -11 -5 -15 -10
-10 -10 6 -1 21 -4 35 -7 20 -4 22 -3 10 5 -27 19 10 13 56 -9 41 -20 42 -22
33 -52 -5 -18 -13 -36 -18 -41 -6 -6 -72 10 -178 43 -92 29 -185 57 -205 62
-32 9 -38 15 -38 37 0 15 5 32 10 37 8 8 6 15 -5 24 -12 10 -18 10 -30 0 -13
-11 -14 -10 -9 4 8 21 28 20 94 -4z m657 -215 c43 -13 144 -45 226 -70 138
-43 147 -48 147 -71 0 -14 -5 -34 -10 -44 -11 -21 -9 -22 -285 63 -122 37
-140 46 -143 65 -2 13 2 30 9 38 14 17 12 20 -21 33 -48 19 0 11 77 -14z
m-781 -140 c4 -8 13 -15 21 -15 8 0 21 7 29 15 20 19 32 19 30 -1 0 -9 17 -25
41 -38 41 -23 89 -60 165 -128 20 -18 44 -37 53 -43 24 -15 12 -32 -76 -108
-43 -37 -79 -76 -79 -85 0 -16 -64 -84 -126 -135 -21 -18 -22 -17 -60 35 -20
29 -59 73 -85 98 -25 25 -52 55 -58 68 -6 12 -17 22 -24 22 -12 0 -127 111
-127 122 0 5 91 76 119 93 10 6 12 4 6 -6 -8 -12 -6 -12 8 0 9 7 14 18 10 25
-3 6 -3 8 2 4 11 -10 47 11 40 23 -4 5 -2 9 3 9 4 0 18 9 31 21 12 11 29 18
37 15 8 -3 14 1 14 9 0 20 19 19 26 0z"/>
</g>
</svg>
