<?xml version="1.0" standalone="no"?>
<!DOCTYPE svg PUBLIC "-//W3C//DTD SVG 20010904//EN"
 "http://www.w3.org/TR/2001/REC-SVG-20010904/DTD/svg10.dtd">
<svg version="1.0" xmlns="http://www.w3.org/2000/svg"
 width="309.000000pt" height="266.000000pt" viewBox="0 0 309.000000 266.000000"
 preserveAspectRatio="xMidYMid meet">
<metadata>
Created by potrace 1.15, written by Peter Selinger 2001-2017
</metadata>
<g transform="translate(0.000000,266.000000) scale(0.100000,-0.100000)"
fill="#000000" stroke="none">
<path d="M2335 2320 c-4 -6 -11 -8 -16 -5 -5 4 -9 1 -9 -5 0 -6 -4 -9 -9 -5
-5 3 -12 1 -16 -5 -4 -6 -11 -8 -16 -5 -5 4 -9 1 -9 -6 0 -7 -3 -9 -7 -6 -3 4
-16 0 -29 -8 -12 -8 -34 -16 -48 -19 -14 -3 -31 -8 -38 -12 -7 -4 -23 -9 -37
-10 -13 -2 -28 -8 -32 -15 -4 -7 -16 -13 -26 -14 -10 0 -24 -4 -31 -9 -6 -4
-12 -4 -12 -1 0 3 -12 -1 -27 -9 -36 -19 -66 -30 -76 -27 -4 0 -18 -4 -30 -11
-12 -7 -25 -11 -29 -10 -5 1 -8 -3 -8 -9 0 -5 -5 -7 -11 -4 -5 4 -19 -1 -30
-11 -10 -9 -19 -14 -19 -10 0 3 -13 0 -30 -9 -16 -9 -30 -13 -30 -10 0 3 -13
-1 -30 -10 -16 -9 -30 -12 -30 -8 0 5 -4 2 -8 -4 -4 -7 -17 -14 -27 -16 -11
-2 -30 -9 -43 -15 -12 -7 -26 -10 -31 -7 -5 3 -15 -1 -23 -8 -7 -8 -19 -12
-26 -9 -6 2 -12 -1 -12 -8 0 -6 -5 -8 -10 -5 -6 4 -22 0 -35 -9 -13 -8 -35
-17 -50 -20 -15 -3 -32 -9 -39 -15 -6 -5 -23 -12 -38 -15 -14 -2 -37 -10 -50
-17 -12 -7 -32 -14 -43 -16 -10 -2 -22 -7 -25 -11 -3 -5 -13 -11 -22 -15 -10
-3 -18 -11 -18 -16 0 -7 9 -7 28 0 30 12 1111 415 1155 431 15 5 27 16 27 24
0 16 -16 19 -25 4z"/>
<path d="M360 1200 l0 -670 280 0 280 0 0 65 c0 36 4 65 8 65 5 0 33 -5 64
-10 40 -8 63 -7 84 1 16 6 52 11 80 10 45 -1 51 1 49 19 -2 24 -15 40 -15 17
0 -9 -5 -19 -11 -23 -8 -4 -9 0 -4 15 4 12 2 21 -4 21 -6 0 -11 -6 -11 -14 0
-9 -9 -14 -20 -13 -14 1 -20 9 -21 27 l-1 25 -7 -25 c-10 -34 -36 -33 -36 2 1
16 -4 27 -10 26 -19 -3 -110 15 -122 24 -13 11 -18 4 -28 -40 -5 -24 -11 -32
-22 -28 -8 3 -28 6 -44 6 -25 0 -29 4 -29 30 0 25 -5 30 -37 39 -50 14 -73 14
-73 -1 0 -6 -3 -8 -6 -5 -4 4 -1 13 5 21 10 12 8 19 -8 35 -25 25 -49 27 -79
5 -28 -19 -29 -67 -2 -94 24 -24 49 -25 76 -5 19 14 19 14 0 15 -11 0 -17 2
-15 5 3 2 33 0 67 -6 51 -9 62 -15 62 -30 0 -20 22 -33 73 -43 26 -6 27 -9 27
-66 l0 -60 -267 0 -268 0 3 642 c1 354 4 648 7 655 3 9 71 13 264 15 253 3
260 2 264 -17 3 -14 5 -12 6 8 l1 27 -280 0 -280 0 0 -670z"/>
<path d="M432 1798 c-16 -16 -18 -1173 -2 -1183 6 -3 10 -2 10 4 0 5 8 12 18
14 16 4 16 5 0 6 -17 1 -18 35 -18 560 0 308 3 566 6 575 5 14 33 16 201 16
127 0 192 3 188 10 -9 15 -388 13 -403 -2z"/>
<path d="M2555 1695 c-3 -8 -7 -21 -9 -29 -3 -8 0 -16 5 -18 6 -2 -1 -49 -18
-117 -15 -63 -29 -108 -32 -100 -6 20 -21 32 -66 55 -34 18 -40 26 -40 52 1
18 -3 32 -8 32 -5 0 -7 -9 -4 -20 3 -10 1 -20 -4 -22 -4 -2 -9 -26 -11 -54 -2
-29 -6 -50 -9 -48 -4 2 -9 -10 -13 -27 -7 -35 -6 -114 1 -86 5 21 5 21 49 2
19 -8 35 -14 37 -13 1 1 12 -4 23 -10 32 -17 42 0 63 114 26 135 42 197 53
209 11 11 4 -64 -18 -195 -8 -47 -14 -99 -14 -115 0 -17 -11 -47 -25 -68 -27
-39 -25 -51 4 -16 17 22 52 28 86 15 20 -8 20 -7 0 11 -14 12 -21 29 -20 53 1
32 4 35 28 32 29 -4 36 13 58 135 6 32 17 82 25 112 8 30 12 56 10 59 -6 5
-33 -86 -45 -149 -8 -41 -9 -42 -10 -10 -1 22 -5 32 -14 28 -9 -3 -12 6 -11
32 2 41 -21 105 -35 97 -15 -10 -34 22 -29 49 6 27 0 34 -7 10z"/>
<path d="M2316 1453 c-3 -4 -25 -7 -48 -9 -24 -1 -44 -3 -45 -4 -2 -1 -15 -2
-30 -3 -16 0 -31 -4 -34 -9 -3 -5 -37 -9 -75 -10 -38 0 -73 -3 -78 -6 -5 -3
-26 -7 -45 -9 -20 -2 -49 -5 -66 -7 -16 -2 -32 -4 -35 -6 -5 -2 -38 -6 -115
-14 -27 -3 -66 -7 -85 -10 -19 -3 -57 -7 -83 -10 -27 -3 -53 -9 -58 -12 -5 -3
-42 -8 -82 -10 -40 -3 -79 -5 -87 -6 -8 0 -20 -4 -25 -9 -6 -4 -24 -6 -42 -5
-29 2 -72 -18 -62 -28 2 -3 256 29 564 70 308 41 561 74 563 74 1 0 2 4 2 9 0
11 -26 22 -34 14z"/>
<path d="M1220 667 c0 -20 -34 -14 535 -87 259 -33 487 -63 508 -66 23 -4 37
-2 37 5 0 6 -9 11 -20 11 -11 0 -20 4 -20 10 0 5 -16 7 -34 5 -19 -3 -37 -1
-40 4 -3 4 -23 7 -46 5 -22 -1 -40 1 -40 4 0 4 -12 8 -27 8 -16 1 -50 5 -78 8
-66 9 -111 14 -160 19 -22 2 -40 5 -40 7 0 4 -42 9 -115 15 -71 6 -115 11
-115 14 0 6 -46 12 -97 13 -32 1 -58 4 -58 8 0 4 -17 6 -37 5 -21 -1 -42 0
-47 3 -5 3 -23 6 -40 7 -17 1 -39 5 -48 9 -13 6 -18 4 -18 -7z"/>
<path d="M2392 471 c-17 -22 -39 -55 -49 -75 -16 -35 -16 -37 4 -64 44 -59
136 -66 195 -13 25 22 30 33 24 54 -9 36 -30 55 -79 68 -23 6 -48 13 -56 15
-9 3 -11 12 -7 29 4 14 5 25 3 25 -2 0 -18 -18 -35 -39z"/>
</g>
</svg>
