<?xml version="1.0" encoding="UTF-8"?>
<svg id="svg89" width="500" height="300" version="1.0" viewBox="0 0 375 225" xmlns="http://www.w3.org/2000/svg">
	<g id="cpu">
		<path id="path2" d="m98.093 3.3913c-1.3171 0.11777-2.7989 0.38276-3.8073 0.66247-4.6099 1.2955-11.381 3.1651-13.48 3.7393-1.2965 0.35332-4.116 1.1336-6.2769 1.7371-3.6633 1.0305-7.8822 2.2082-11.422 3.1946-0.84378 0.23554-3.478 0.9569-5.8653 1.6194-2.3667 0.66247-5.4743 1.531-6.8943 1.9285-1.42 0.38276-3.4986 0.97162-4.6305 1.2808l-2.058 0.55942-0.14406 1.1041c-0.45276 3.2976-0.55566 6.7866-0.57624 17.651 0 6.5952-0.1029 21.302-0.2058 32.667-0.14406 17.828-0.14406 20.728 0.12348 21.081 0.18522 0.27971 0.28812 0.89801 0.28812 1.9285 0 0.83912 0.08232 1.5899 0.16464 1.6782 0.08232 0.08833 1.9551 0.57414 4.1572 1.0747 2.2021 0.50053 4.2395 0.97162 4.5276 1.0452 0.28812 0.07361 2.9635 0.69191 5.9682 1.3838 3.0047 0.67719 8.2321 1.8843 11.628 2.6646 10.681 2.4732 17.02 3.9159 18.934 4.3428 1.029 0.22082 3.1282 0.70663 4.7128 1.0894l2.8606 0.66246 8.3555-0.95689c4.5894-0.51525 10.99-1.2513 14.221-1.6194 6.1946-0.70663 7.3883-0.85385 16.052-1.8255 2.9841-0.3386 5.5978-0.66247 5.7624-0.73608 0.18523-0.0736 0.57625-0.36803 0.84379-0.64774s0.8232-0.63302 1.2348-0.76552c0.4116-0.13249 1.1319-0.51525 1.5847-0.85384 1.6258-1.2072 1.5435 0.35332 1.3377-25.645-0.0823-12.631-0.14407-24.04-0.14407-25.38 0.0206-1.3397 0.10291-6.1683 0.16465-10.747 0.0617-4.5784 0.18522-11.601 0.24696-15.605 0.0617-4.0042 0.0206-8.1557-0.0823-9.2009l-0.18524-1.9138-0.86437-0.89801-0.88495-0.91273-1.6876-0.22082c-0.90552-0.13249-4.8981-0.67719-8.87-1.2072-3.9514-0.52997-9.0964-1.2219-11.422-1.5458-2.3256-0.32387-5.4743-0.75079-6.9972-0.95689s-4.6717-0.64774-6.9972-0.97162c-4.9392-0.69191-6.7297-0.78024-9.6727-0.48581zm2.2432 32.402c-0.0412 17.401 0 38.541 0.0823 47.006l0.16464 15.384 0.65857 0.76552c1.0702 1.2513 2.7372 2.3849 4.1983 2.8854 1.2966 0.42692 1.3171 0.42692 4.3424 0.36804 2.2021-0.0589 4.6923-0.26499 9.1993-0.76552 3.3957-0.38276 8.9112-0.98634 12.245-1.3544 5.3097-0.57414 7.9645-0.86857 10.702-1.1777l0.72031-0.07361-0.94669 0.42692c-0.5145 0.23554-1.1319 0.63302-1.3789 0.86857-0.47334 0.48581 0.47335 0.35332-13.83 1.9727-2.0992 0.23554-5.5155 0.63302-7.6146 0.86856-2.0992 0.25027-5.2891 0.60358-7.1002 0.80968s-5.8859 0.67719-9.0552 1.0305c-3.1693 0.36803-5.9477 0.66246-6.1946 0.66246-0.37044 0-0.45276-0.19138-0.90552-2.164l-0.47334-2.1641 0.12348-29.752c0.2264-46.019 0.37046-65.908 0.5351-66.394 0.14406-0.42692 0.2058-0.44164 1.7905-0.60358 0.88495-0.088329 1.8934-0.17666 2.2227-0.19138l0.59682-0.014721zm2.8195-31.062c0.37044 0.52997 0.39102 1.3544 0.49392 17.71l0.1029 17.151 0.82321 0.91273c0.76146 0.85384 0.9261 0.94217 2.2638 1.3102 1.914 0.50053 4.8775 0.70663 15.538 1.0894 4.6923 0.16194 10.537 0.36804 12.965 0.45636 5.9888 0.22082 7.6352 0.16194 8.3144-0.29443l0.53509-0.35332v1.4721c0 1.6341-0.22638 2.1199-1.1731 2.5615-0.67914 0.32387-3.4369 0.36804-8.8083 0.13249-1.811-0.07361-6.0711-0.25026-9.4669-0.36804-3.3957-0.11777-7.9851-0.29443-10.187-0.36804-5.9065-0.22082-7.2854-0.36804-8.6231-0.92745-1.3789-0.58886-2.4079-1.5605-3.0047-2.8854l-0.45277-0.97162 0.20581-17.371c0.18522-16.886 0.16464-18.019-0.39103-19.476-0.22638-0.55942 0.45277-0.38276 0.86437 0.22082zm4.8158 0.11777c3.8896 0.51525 20.457 2.7676 23.873 3.2387 2.0992 0.27971 5.0627 0.69191 6.5856 0.88329 4.5482 0.60358 4.5482 0.60358 5.2479 1.2955 0.57625 0.58886 0.59683 0.70663 0.76147 2.7529 0.18522 2.5321 0.16464 7.1252-0.0412 7.346-0.14406 0.17666 0.32928 0.23554-23.667-2.5026-3.5604-0.39748-7.9645-0.89801-9.7756-1.0894-1.811-0.2061-3.8485-0.42692-4.5276-0.51525-0.67915-0.07361-1.2966-0.14722-1.3789-0.14722-0.0823 0-0.18522-2.4732-0.22638-5.4911-0.0412-3.0032-0.14406-5.653-0.22638-5.8591l-0.16464-0.39748 1.0084 0.14721c0.53509 0.073607 1.6876 0.22082 2.5314 0.33859zm-13.665 16.076c-0.08232 8.7298-0.18522 30.326-0.26754 48.007-0.08232 24.276-0.18522 32.122-0.34986 32.078-0.14406-0.0442-2.3667-0.51525-4.9804-1.0599-2.5931-0.54469-7.0178-1.4721-9.8373-2.0757-2.8401-0.58886-5.2068-1.0452-5.3097-1.0011-0.08232 0.04416-0.16464 0-0.16464-0.07361 0-0.08833-0.12348-0.16194-0.28812-0.16194-0.14406 0-1.7905-0.32387-3.6427-0.72135-1.8522-0.39748-7.7175-1.6194-13.048-2.7235-5.3097-1.1188-10.269-2.1641-11.01-2.3407l-1.3377-0.32387 0.08232-31.283c0.041161-17.209 0.12348-32.844 0.2058-34.743l0.12348-3.4448 1.5435-0.42692c0.84379-0.22082 2.6548-0.70663 4.0131-1.0452 1.3583-0.35332 3.8691-1.0158 5.5566-1.4721 1.7082-0.47109 4.1983-1.1336 5.5566-1.4869 1.3583-0.35332 3.8691-1.0158 5.5566-1.4721 1.7082-0.45636 4.1983-1.1188 5.5566-1.4721s2.8401-0.73607 3.2928-0.86857c0.80262-0.22082 6.7091-1.7813 12.554-3.327 1.5847-0.4122 3.5192-0.92745 4.2807-1.1336l1.3994-0.38276-0.06174-0.89801c-0.06174-0.85384-0.08232-0.89801-0.57624-0.85384-0.26754 0.029443-1.5641 0.35332-2.8812 0.72135-1.2965 0.36804-2.9635 0.8244-3.7044 1.0011-0.74088 0.19138-2.7783 0.73607-4.5276 1.2219-1.7493 0.47109-6.2975 1.693-10.084 2.7235-15.209 4.0926-26.59 7.1694-26.775 7.243-0.1029 0.05889-0.18522-0.02944-0.18522-0.17666 0-0.2061 0.74088-0.47109 3.3546-1.1777 1.8316-0.50053 4.9187-1.3397 6.8326-1.8843 5.5155-1.531 10.558-2.9296 15.126-4.1956 2.3256-0.63302 6.4622-1.7813 9.1582-2.5468 2.7166-0.75079 6.0506-1.693 7.4088-2.061 1.3583-0.36804 3.5398-0.97162 4.8363-1.3397s2.449-0.66247 2.5519-0.67719c0.1029 0 0.12348 6.4774 0.04116 15.855zm7.6558 2.8265-0.22638 17.519 0.47334 1.0747c0.88495 2.061 3.0459 3.6509 5.2685 3.8717 1.811 0.17666 5.6801 0.38276 11.401 0.58886 3.334 0.11777 8.6642 0.32387 11.834 0.44164s7.1619 0.22082 8.8495 0.23554c2.8812 0.01472 3.1488 0 3.8896-0.32387l0.80263-0.33859-0.12348 1.8255c-0.0823 1.0011-0.14406 2.6793-0.14406 3.7392v1.9285l-0.49393-0.51525c-0.39102-0.42692-0.76146-0.57414-2.2226-0.92745-1.5641-0.35332-2.0168-0.39748-4.7128-0.39748-1.6258 0-7.1825-0.10305-12.328-0.22082-5.145-0.11777-10.743-0.22082-12.451-0.25026l-3.087-0.04416-1.4406 0.52997c-1.3789 0.50053-1.4612 0.55942-2.1815 1.6194l-0.76146 1.1041-0.0617 20.536c-0.0618 23.893-0.16465 22.362 1.811 23.422 1.5229 0.8244 3.1693 1.0452 5.8653 0.7508 4.6717-0.50053 20.642-2.1493 24.84-2.5763 4.2189-0.42692 4.6717-0.50053 5.5361-0.91273 0.5145-0.23554 1.0702-0.63302 1.2554-0.85384 0.80263-1.0011 0.88495-0.02944 0.1029 1.1041-0.88494 1.2955-0.34986 1.1777-10.887 2.3113-3.0459 0.32387-6.7091 0.72135-8.1292 0.88329-9.4051 1.0747-13.542 1.4721-15.559 1.4721-1.9757 0-2.2432-0.0294-3.3546-0.42692-1.2348-0.45637-2.5314-1.3838-3.4369-2.4585l-0.5145-0.6183-0.14406-28.162c-0.2058-38.747-0.0823-64.892 0.26754-64.068 0.22638 0.50053 0.22638 3.7393 0.0617 18.137zm-8.8083-16.532c0 0.30915-0.16464 0.42692-0.86436 0.6183-2.449 0.69191-47.602 12.631-47.664 12.616-0.04116-0.02944 0-0.19138 0.06174-0.38276 0.1029-0.30915 0.67914-0.50053 4.0749-1.4133 2.1815-0.57414 9.1376-2.4585 15.476-4.1662 6.3387-1.7077 14.262-3.8423 17.596-4.7403 3.334-0.89801 7.1001-1.9138 8.335-2.2524 2.7577-0.76552 2.9841-0.78024 2.9841-0.27971zm16.155 10.29c1.811 0.2061 4.1778 0.47109 5.2479 0.58886s3.1076 0.35332 4.5276 0.51525 5.2068 0.58886 8.4378 0.94217c3.2311 0.36804 8.2526 0.92745 11.175 1.2513 2.9224 0.33859 5.392 0.60358 5.4949 0.60358 0.12348 0 0.2058 1.1924 0.2058 3.1062v3.1062l-0.76147-0.08833c-0.43218-0.04416-4.116-0.39748-8.1909-0.76552-11.916-1.0747-21.362-1.9432-24.902-2.2671-1.811-0.17666-3.8279-0.35332-4.4659-0.39748l-1.1936-0.08833v-7.0516l0.57624 0.08833c0.3087 0.04416 2.0374 0.25026 3.8485 0.45637zm-2.5725 7.1399c0.74089 0.07361 5.001 0.47109 9.4669 0.88329 4.4659 0.39748 11.751 1.0599 16.155 1.4721 4.4247 0.4122 8.9318 0.80968 10.043 0.91273l1.9963 0.17666v2.6057l-0.65857-0.08833c-0.37044-0.04416-4.6511-0.4122-9.5286-0.80968-4.8569-0.39748-10.023-0.8244-11.443-0.94217-6.8326-0.58886-15.435-1.3102-16.546-1.3985l-1.2348-0.08833-0.0617-1.4427c-0.0412-1.0894 0-1.428 0.2058-1.428 0.14406 0 0.86437 0.07361 1.6052 0.14722zm6.421 3.9012c4.3424 0.35332 10.661 0.89801 14.056 1.1777 3.3957 0.27971 6.9149 0.57414 7.8204 0.66246 0.90553 0.07361 3.2311 0.26499 5.145 0.42692 1.9345 0.17666 3.6633 0.30915 3.8691 0.30915 0.32928 0 0.34986 0.27971 0.22638 5.0347-0.0823 2.7824-0.22638 5.0642-0.3087 5.0936-0.1029 0.02944-0.37045 0.30915-0.63799 0.63302-0.34986 0.44164-0.59682 0.58886-1.1731 0.67719-0.4116 0.04416-3.0047 0.01472-5.783-0.08833-2.7783-0.08833-7.8204-0.26499-11.216-0.38276-13.624-0.47109-16.073-0.63302-17.822-1.1041-0.96726-0.26499-1.2348-0.42692-1.7905-1.1041l-0.65856-0.78024v-5.6089c0-3.5479 0.0823-5.6089 0.2058-5.6089 0.1029 0 3.7456 0.29443 8.0674 0.66247zm11.278 24.6c1.6464 0.04416 5.783 0.13249 9.1787 0.2061 7.7587 0.14721 8.1497 0.22082 9.4051 1.531l0.82321 0.88329 0.2058 37.716-0.88495 0.91273c-1.2348 1.3102-1.811 1.5752-3.9102 1.7666-1.7287 0.16194-18.069 1.8549-25.108 2.6057-5.001 0.54469-6.5651 0.4122-7.8616-0.6183-0.74089-0.58886-0.78205-1.6046-0.78205-22.318v-20.316l0.61741-0.94217c0.55566-0.85384 0.74088-0.98634 1.7082-1.3102l1.0702-0.35332 6.2769 0.07361c3.4575 0.04416 7.6146 0.11777 9.2611 0.16194zm-70.487 40.028c4.8775 1.0158 9.9196 2.0757 11.216 2.3554 1.2965 0.26499 3.5192 0.73607 4.9392 1.0158 1.42 0.29443 3.1693 0.66247 3.9102 0.8244 4.6511 0.98634 6.1329 1.3102 17.205 3.6215l2.7166 0.57413 0.43218 1.7519c0.22638 0.97161 0.39102 1.7813 0.34986 1.8107-0.04116 0.0294-1.3994-0.25027-3.0253-0.6183-6.7091-1.5458-8.7671-2.0168-13.768-3.1651-2.8812-0.66246-7.7999-1.7813-10.907-2.5026-3.1076-0.72135-7.2854-1.6782-9.2611-2.1199-11.154-2.5615-13.377-3.1062-13.377-3.2829 0-0.27971 0.3087-0.25026 2.3667 0.23554 1.029 0.23554 4.3012 0.97162 7.3059 1.6341 3.0047 0.66246 6.8943 1.531 8.6437 1.9138 1.7493 0.39748 5.4537 1.2219 8.2321 1.8402 2.7783 0.6183 6.4827 1.4427 8.2321 1.8402 14.303 3.1946 14.2 3.1798 14.427 2.9296 0.1029-0.11777 0.16464-0.54469 0.14406-0.94217-0.06174-0.83913 0.32928-0.67719-3.972-1.6194-4.6923-1.0305-32.352-7.0663-38.588-8.406-3.5604-0.78024-6.5651-1.4869-6.6885-1.5605-0.14406-0.10305-0.06174-0.11777 0.2058-0.07361 0.22638 0.05889 4.4041 0.92745 9.2611 1.9432zm-5.145-0.30915c12.986 2.8118 22.165 4.8139 24.799 5.4028 1.0702 0.23554 5.8448 1.2808 10.599 2.3113l8.6437 1.8843 0.06174 0.47109c0.04116 0.26499 0 0.47109-0.08232 0.47109s-1.6052-0.32388-3.3546-0.72135c-1.7699-0.39748-4.5482-1.0305-6.1946-1.3985-1.6464-0.35332-4.9598-1.1041-7.3883-1.6341-2.4285-0.5447-4.507-1.0011-4.6305-1.0158-0.12348-0.02944-1.7082-0.38276-3.5192-0.79496-2.7372-0.6183-21.815-4.8728-22.988-5.1231-0.22638-0.04416-0.37044-0.22082-0.37044-0.44164 0-0.27971 0.08232-0.35332 0.37044-0.29443 0.18522 0.04416 2.0169 0.44164 4.0543 0.88329z" style="stroke-width:.017406"/>
		<path id="path4" d="m121.72 8.853c-0.18523 0.029443-0.39103 0.17666-0.45277 0.30915-0.18522 0.45637 0.39103 7.081 0.61741 7.243 0.12348 0.08833 1.914 0.36804 3.9925 0.6183 3.6633 0.42692 3.7868 0.44164 4.0543 0.17666 0.22638-0.22082 0.24696-0.94217 0.14406-3.7393-0.0823-2.2377-0.2058-3.5184-0.37044-3.6362-0.12348-0.10305-1.7493-0.38276-3.581-0.6183-3.3546-0.45637-3.725-0.48581-4.4041-0.35332zm4.0543 1.2072 2.8812 0.4122 0.12348 2.9296c0.0823 1.6046 0.1029 2.959 0.0617 2.9885-0.0412 0.02944-1.3994-0.10305-3.0047-0.29443l-2.943-0.35332-0.14406-1.9874c-0.0617-1.0894-0.16464-2.4732-0.22638-3.0621-0.0617-0.70663 0-1.0599 0.14406-1.0599 0.12348 0.014722 1.5229 0.19138 3.1076 0.42692z" style="stroke-width:.017406"/>
		<path id="path6" d="m108.71 9.751c-0.22638 0.25026-0.32928 1.5899-0.16464 1.7813 0.12348 0.11777 1.0084 0.29443 2.0992 0.4122 2.3667 0.26499 2.5725 0.19138 2.3461-0.94217-0.0617-0.4122-0.18522-0.8244-0.26754-0.91273-0.26754-0.30915-3.7868-0.60358-4.0131-0.33859z" style="stroke-width:.017406"/>
		<path id="path8" d="m114.27 10.605c-0.4116 0.27971-0.43218 1.428-0.0412 1.6635 0.34986 0.2061 3.4369 0.54469 3.8896 0.4122 0.26754-0.07361 0.34986-0.27971 0.34986-0.86857 0-0.42692-0.0823-0.85384-0.16464-0.9569-0.0823-0.08833-0.74088-0.2061-1.4818-0.26499-0.74088-0.04416-1.5435-0.11777-1.7905-0.16194-0.24696-0.02944-0.59682 0.04416-0.76146 0.17666z" style="stroke-width:.017406"/>
		<path id="path10" d="m92.66 8.8677c-0.2058 0.23554-0.32928 4.6373-0.43218 15.781-0.06174 6.1094-0.2058 16.738-0.3087 23.628-0.59682 39.085-0.69972 51.452-0.43218 51.452 0.45276 0 0.39102 2.1935 0.84379-31.136 0.1029-8.1851 0.24696-17.254 0.3087-20.168 0.06174-2.9148 0.16464-11.262 0.22638-18.549s0.14406-13.323 0.18522-13.426c0.2058-0.44164 0.12348-7.6257-0.06174-7.6699-0.12348-0.029443-0.26754 0.014722-0.32928 0.088329z" style="stroke-width:.017406"/>
		<path id="path12" d="m57.241 34.248c-0.32928 0.08833-0.94669 0.32387-1.3377 0.52997-0.39102 0.22082-0.88495 0.38276-1.1113 0.39748-0.55566 0-1.4406 0.9569-1.9757 2.1346-0.24696 0.51525-0.55566 1.1041-0.7203 1.3249-0.82321 1.163-0.86437 3.7098-0.1029 6.2861 0.43218 1.5163 1.7699 3.592 2.5108 3.9306 0.6174 0.26499 2.3873 0.52997 3.6427 0.52997 0.90553 0 1.1113-0.07361 2.0992-0.70663 0.6174-0.38276 1.1319-0.73607 1.1731-0.79496 0.04116-0.04417 0.32928-0.38276 0.65856-0.73607 1.3377-1.4427 2.5314-6.4922 2.058-8.7593-0.4116-2.0021-1.6464-3.4007-3.5398-4.019-0.96727-0.30915-2.3667-0.36804-3.3546-0.11777z" style="stroke-width:.017406"/>
		<path id="path14" d="m49.874 65.825c-0.06174 0.07361-0.16464 3.7981-0.24696 8.2882-0.12348 6.7866-0.1029 8.2146 0.14406 8.3471 0.22638 0.13249 1.4612 0.35332 5.2068 0.92745 0.45276 0.07361 3.087 0.50053 5.8653 0.9569 2.7783 0.44164 5.1862 0.80968 5.392 0.80968 0.45276 0 0.49392-0.54469 0.53508-8.5384 0.02058-3.6804 0.1029-7.3755 0.18522-8.1999 0.08232-1.0747 0.04116-1.5752-0.12348-1.7224-0.16464-0.14722-0.90553-0.23554-2.3461-0.29443-1.1525-0.04416-4.5482-0.19138-7.5529-0.30915-3.0047-0.11777-5.8036-0.25026-6.2152-0.29443-0.4116-0.04416-0.80262-0.02944-0.84378 0.02944z" style="stroke-width:.017406"/>
		<g id="g26" transform="matrix(-.18701 0 0 .20604 177.92 -30.196)">
			<ellipse id="ellipse16" transform="matrix(.89516 -.44575 .43897 .8985 0 0)" cx="90.05" cy="284.5" rx="23.307" ry="23.716" style="fill:#0ff"/>
			<ellipse id="ellipse18" cx="205.28" cy="215.46" rx="17.69" ry="18.499"/>
			<path id="path20" d="m204.77 213.29c-2.9541-2.0561-0.84668-3.9199-5.3037-8.5253-2.2627 1.778-4.9326 5.4241-4.9329 10.241-3.3e-4 6.5872 4.6985 11.927 10.635 11.927 5.9361-4.3e-4 10.748-5.3402 10.748-11.927-3.2e-4 -5.2799-2.0542-8.7539-4.6659-10.002-4.2505 4.366-5.3032 8.286-6.4802 8.2859z" style="fill:#0ff"/>
			<path id="path22" d="m205.29 205.27a8.7571 9.9188 0 0 0-8.7568 9.9199 8.7571 9.9188 0 0 0 8.7568 9.9185 8.7571 9.9188 0 0 0 8.7568-9.9185 8.7571 9.9188 0 0 0-8.7568-9.9199z"/>
			<rect id="rect24" x="204.13" y="201.02" width="2.1101" height="11.7" ry="0" style="fill:#0ff"/>
		</g>
	</g>
	<g id="impresora">
		<path id="path29" d="m287.38 133.27c-2.0523 0.20094-3.653 0.72006-4.6997 1.5573-0.77987 0.61959-0.96458 0.93776-1.9086 3.2822-1.9292 4.7725-4.3098 11.437-5.1512 14.485-0.47203 1.6578-1.0056 3.5166-1.1698 4.1362l-0.32837 1.1387-0.75934-0.0837c-3.4478-0.4019-19.374-1.3229-20.42-1.1889-0.55411 0.0837-1.1493 0.3684-2.0728 1.055-0.7183 0.51911-1.2519 1.0215-1.1903 1.122 0.0616 0.0837 0.041 0.10047-0.0821 0.0502-0.2668-0.13396-1.5597 0.95451-1.3545 1.1387 0.10262 0.067 0.0616 0.0837-0.0616 0.0335-0.12314-0.067-0.51307 0.13397-0.86196 0.43539-0.34889 0.28467-1.0467 0.87077-1.5597 1.2727-0.51307 0.41864-0.86196 0.82054-0.80039 0.90427 0.0616 0.10047 0.0205 0.11722-0.0821 0.067-0.30785-0.16746-2.1754 1.5239-2.0318 1.8253 0.0616 0.15071 0.0205 0.20095-0.0821 0.15071-0.30784-0.15071-0.61569 0.66983-0.53359 1.4401 0.0821 0.83728 0.6362 1.4736 1.5802 1.8588 0.80039 0.33491 15.474 2.1769 30.312 3.818 3.1195 0.33492 4.8434 0.60285 5.418 0.83729 0.44594 0.17367 2.3985 1.635 3.1203 1.6089 1.6067-0.0581 2.6242-0.15479 0.70845-0.16459-0.2668-0.13397-3.3157-1.4443-3.0078-1.4443 0.32836 0 7.1009 0.78705 7.7576 0.90427 0.16419 0.0335-0.0935 0.17447-0.61568 0.20095 0 0-5.66 0.22578-4.8426 0.50364 2.4541 0.158 2.2585 0.076 4.3621-0.1151 1.0292-0.16815 1.3869-0.26502 1.4654-0.30481 0.12314-0.13396 0.24628-0.1842 0.24628-0.11722 0 0.0837 0.12313 0.067 0.26679-0.0335 0.24627-0.1842 6.3415 0.43539 24.874 2.4784 9.0916 1.0047 14.817 1.5239 16.562 1.5239 4.2482-0.0167 8.5785-1.6076 10.467-3.818 0.36941-0.43538 1.8265-2.5118 3.2631-4.6051l2.5859-3.7845-0.84143-0.1842c-1.2108-0.26794-11.185-1.5741-16.295-2.1267l-4.3919-0.48562 0.14366-1.5071c0.47202-5.2079 0.86195-7.7867 1.9702-13.112 1.9907-9.5785 1.8881-8.892 1.6213-9.746-0.12313-0.41865-0.47202-0.97125-0.77986-1.2224-0.51307-0.45213-2.4627-1.3732-2.6064-1.2559-0.041 0.0335 0.43098 0.26794 1.0467 0.53587 1.7239 0.73681 2.0933 1.6243 1.6008 3.7343-0.61568 2.6291-2.5448 12.023-2.5448 12.442 0 0.067-0.14366 0.11722-0.30784 0.11722-0.36941 0-0.36941-0.0335-0.0821-0.43538 0.16419-0.20095 0.18471-0.4019 0.041-0.5861-0.14366-0.20095-0.32836 0.43538-0.65673 2.3276-0.2668 1.4401-0.41046 2.7295-0.34889 2.8635 0.0616 0.13396 0.041 0.21769-0.0616 0.16745-0.0821-0.0502-0.22575 0.30143-0.28731 0.78705-0.32837 2.5956-0.82092 4.6218-1.1493 4.6888-0.18471 0.0335 0 0.0335 0.38993 0 0.57464-0.0502 0.65673-0.0167 0.41046 0.11722-0.24628 0.15071-0.20523 0.16746 0.24627 0.10048 0.69778-0.13397 1.1903 0.0335 1.0467 0.33491-0.0616 0.13396 0 0.23444 0.12314 0.23444s0.22575 0.067 0.22575 0.16746c0 0.0837-0.14366 0.16745-0.30784 0.16745s-0.30784-0.0502-0.30784-0.13396c0-0.067-0.30784-0.13397-0.67725-0.15071-0.34889 0-2.3601-0.25119-4.4534-0.53587-3.5094-0.46888-6.3415-0.80379-16.726-1.9425-2.1344-0.23443-5.1512-0.56935-6.6699-0.75355-1.5187-0.16746-3.4068-0.36841-4.2072-0.43539-1.0056-0.0837-1.3135-0.16746-1.0261-0.25118 0.22575-0.0837-0.0821-0.10048-0.69778-0.0335-0.73882 0.067-1.0672 0.0502-0.98509-0.067 0.0821-0.11722-0.18471-0.16745-0.73882-0.16745-0.47203 0-1.9291-0.11722-3.2221-0.26794-1.2929-0.15071-3.7352-0.40189-5.4385-0.53586-5.1307-0.41864-5.0691-0.40189-4.9255-0.75355 0.0616-0.18421 0.53359-1.7918 1.0261-3.5836 0.69778-2.5621 2.3806-7.8705 3.3247-10.533 0.12314-0.35166 0.0821-0.35166 6.8341-0.0335 9.1737 0.43539 30.435 1.7248 38.542 2.3611 0.84144 0.067 1.2724 0.0335 1.2724-0.0837 0-0.10047-0.20523-0.1842-0.45151-0.20095-0.4515-0.0167-0.4515-0.0167 0.041-0.15071 0.28732-0.067 0.43098-0.15071 0.30784-0.15071-0.10261-0.0168-0.041-0.10047 0.16418-0.20095 0.28732-0.13396 0.34889-0.30142 0.24628-0.66983-0.0821-0.26793-0.041-0.48562 0.0616-0.48562 0.26679 0 0.51307-2.4951 0.34888-3.4329-0.12313-0.63634-0.22575-0.75356-0.61568-0.75356-0.2668 0-0.51307 0.0837-0.55412 0.20095-0.0616 0.15071-0.12313 0.15071-0.24627 0-0.0821-0.11722-0.0411-0.20095 0.0616-0.20095 0.32836 0 0.26679-0.50237-0.0616-0.60284-0.16418-0.0502-0.49255 0-0.73882 0.10047-0.55412 0.23444-1.4982-0.1842-1.3135-0.5861 0.0821-0.16746 0-0.25118-0.28732-0.25118-0.24627 0-0.51307-0.10048-0.59516-0.2177-0.22575-0.30142-1.4161-0.68657-1.6829-0.53586-0.12313 0.0502-0.22575-0.0168-0.22575-0.16746 0-0.13396-0.20523-0.33491-0.4515-0.40189-0.43098-0.13397-0.43098-0.16746-0.10261-0.26793 0.20522-0.067 0.59516-0.0502 0.88248 0.0502 0.28732 0.11722 0.49254 0.13397 0.49254 0.0335 0-0.23444-0.94404-0.38515-1.6008-0.28467-0.63621 0.10047-1.2108-0.36841-0.84144-0.66983 0.14366-0.11722 0.0205-0.21769-0.34889-0.28468-0.4515-0.10047-0.51307-0.15071-0.26679-0.28467 0.14366-0.0837 0.43098-0.15071 0.59516-0.15071 0.26679 0 0.26679 0.0335 0 0.1842-0.24627 0.15071-0.24627 0.16746 0.0616 0.0837 0.20522-0.0502 0.4515-0.10048 0.51307-0.10048 0.0821 0 0-0.0837-0.16419-0.16745-0.32836-0.18421 0.41046-0.15071 3.0579 0.15071 0.84143 0.10047 1.5802 0.15071 1.6213 0.10047 0.0616-0.0502 0.0205-0.0837-0.0821-0.0837-0.10261 0-0.73882-0.0837-1.4161-0.16745-2.4012-0.33492-5.5206-0.65309-5.6848-0.56936-0.0821 0.0502-1.4776-0.0335-3.0784-0.16745-10.159-0.87078-22.965-1.4066-26.146-1.0885z" style="stroke-width:.018538"/>
		<path id="path31" d="m352.8 168.36c-0.0616 0.78705-4.002 8.758-5.6848 11.454-0.67726 1.0885-1.5597 1.8923-2.7911 2.5286-0.5336 0.30142-0.94405 0.60284-0.88248 0.66982 0.0616 0.0837-0.041 0.10048-0.20523 0.0502-0.16418-0.0502-0.57464 0.0335-0.92353 0.16746-1.0672 0.45213-3.8993 0.92101-6.6904 1.1052-5.9516 0.38515-8.4143 1.1387-10.036 3.0645-0.41046 0.48563-0.88248 1.2224-1.0672 1.6578-0.26679 0.68657-0.38993 0.78704-0.75934 0.72006-0.24627-0.0335-1.334-0.15071-2.4012-0.25119-4.9665-0.48562-19.907-2.2942-28.835-3.4998-5.418-0.73681-11.924-1.6076-14.469-1.9258-21.898-2.8133-31.359-4.1529-31.667-4.5213-0.0821-0.10047-0.10261-0.31817-0.0616-0.48562 0.041-0.15072 0-0.25119-0.10261-0.18421-0.16418 0.0837-0.2668-0.21769-0.24627-0.73681 0.0205-0.11722-0.0411-0.1842-0.10262-0.13396-0.1847 0.16745-0.69777-0.55261-0.53359-0.7703 0.0821-0.10048 0.0616-0.13397-0.0616-0.0837-0.12313 0.067-0.38993-0.10048-0.59516-0.35166-0.41045-0.51912-1.4366-1.3397-2.4627-1.976-0.38994-0.25119-0.63621-0.51912-0.55412-0.61959 0.0616-0.0837 0.0205-0.11722-0.10261-0.0502-0.12314 0.0502-0.75935-0.15071-1.4161-0.45213-0.65672-0.31817-1.847-0.88752-2.6474-1.2559-0.80038-0.38515-1.66-0.97125-2.0089-1.2894l-0.29089-0.58817-0.204-0.61363-0.0822-0.9083 0.22234-0.87393 13.018-10.564s4.6919-0.80616 4.8274-0.88188c0.90001-0.50336-4.7878 0.30889-5.2017 0.60115-1.8724 1.3219-6.2116 4.6379-9.3923 7.2057-1.8576 1.4997-3.3196 2.3734-3.9365 3.4737-0.14831 0.73209 0.40111 3.35 0.40111 3.35 0.36941 2.4449 1.6624 8.4566 3.2631 15.138 0.38993 1.6243 0.903 3.2654 1.1288 3.6506 0.59516 0.93776 2.0318 1.6746 5.0076 2.5453l2.4217 0.72007-1.1698 0.9545c-0.6362 0.51912-2.5243 1.775-4.2072 2.763-3.2016 1.909-3.3863 2.11-2.7295 2.8802 0.53359 0.61959 3.7762 1.8085 6.4647 2.3612 0.80039 0.16745 1.4161 0.3684 1.375 0.45213-0.0205 0.0837-1.7444 1.3396-3.8378 2.7965-2.1138 1.4569-3.8378 2.763-3.8788 2.897-0.0411 0.13397 0.12313 0.48562 0.34888 0.80379 0.36941 0.48563 0.59516 0.5861 1.7034 0.7703 0.7183 0.10048 1.4776 0.26793 1.7034 0.33492 0.22575 0.0837 1.847 0.41864 3.5915 0.75355 2.0112 0.38515 3.5504 0.78705 4.2072 1.0885 0.59516 0.28468 3.9198 1.1722 8.0654 2.1769l7.0188 1.6913 6.8341 0.65309c4.8844 0.45213 8.0654 0.85403 11.226 1.4066 2.4217 0.41865 6.2594 0.988 8.517 1.2559 2.2575 0.28468 4.4534 0.55261 4.8639 0.61959 0.73882 0.10047 0.80039 0.0837 1.0877-0.48563 0.28732-0.5526 4.4124-5.4591 5.5001-6.5141l0.4515-0.45214 1.6418 0.23444c3.7146 0.50237 9.8304 0.73681 11.185 0.43539 0.38993-0.0837 0.92353-0.70332 2.2575-2.6291 0.96457-1.3732 2.1959-3.098 2.7295-3.8013 0.86196-1.1387 1.0672-1.2894 1.6008-1.2894 0.36941 0 0.59516 0.0837 0.59516 0.23444 0 0.73681 12.683 0.33491 15.741-0.50237 1.8881-0.51912 2.668-1.055 3.5299-2.4114 0.92352-1.4401 3.612-6.3968 4.6792-8.624 2.0523-4.3036 2.4627-5.4758 3.1195-8.7915 0.65373-3.4092 1.8758-12.856 2.0001-17.096-0.61753 0.14322-8.463-2.4343-6.1458-2.9653 4.0931 1.6751 6.0748 2.4784 6.0542 2.9138zm-90.423 15.959c-0.0616 0.0837 0.71829 0.15071 1.806 0.15071 1.0467 0 2.0933 0.0837 2.2986 0.16746 0.20523 0.10047 1.6829 0.28467 3.2631 0.43538 2.5038 0.23444 4.9665 0.50237 6.3621 0.68658 0.22575 0.0335 0.7183 0.067 1.0877 0.067 0.47202 0.0167 0.63621 0.0837 0.53359 0.21769-0.10261 0.13397-0.041 0.15071 0.22575 0.067 0.38994-0.11722 1.8265 0.10047 3.2836 0.50237 0.4515 0.11722 1.2314 0.25118 1.7444 0.30142 0.51307 0.0502 1.3956 0.16746 1.9497 0.28467 0.57464 0.10048 1.2314 0.18421 1.4982 0.18421 0.24627 0 0.4515 0.0502 0.4515 0.11722 0 0.11722 0.55411 0.16745 3.4684 0.25118 1.1698 0.0502 2.1959 0.13397 2.2575 0.2177 0.0616 0.067 0.71829 0.13396 1.4571 0.13396s1.847 0.10048 2.4627 0.20095c1.4982 0.26793 4.8228 0.68657 6.9778 0.88752 0.96457 0.10047 2.1344 0.28468 2.6064 0.43539 0.49255 0.13396 0.96457 0.21769 1.0877 0.15071 0.2668-0.13397 3.3042 0.23444 3.571 0.43539 0.12314 0.0837 0.73883 0.15071 1.3956 0.15071 0.65673 0 1.1903 0.067 1.1903 0.13396 0 0.28468-3.2426 8.0212-4.084 9.746-1.3545 2.7798-3.1605 5.4088-5.3975 7.8537-3.0579 3.3491-2.4833 3.031-4.8434 2.6961-1.0877-0.16746-3.7352-0.56936-5.89-0.88752-2.1344-0.33492-5.7874-0.87078-8.1065-1.2057-7.183-1.0215-12.642-1.909-17.444-2.8468-2.5448-0.48562-6.0542-1.1387-7.7987-1.4234-1.7444-0.30142-4.7408-0.87078-6.6699-1.2727-1.9086-0.4019-4.3714-0.90427-5.4385-1.0885-1.0672-0.20095-2.0728-0.4019-2.2165-0.46888-0.14366-0.067 1.2108-1.0215 3.653-2.5118 4.1661-2.5621 5.6848-3.7175 7.0188-5.3084 0.82091-0.97125 3.0579-4.5548 4.946-7.904 0.53359-0.93776 1.0672-1.7081 1.1903-1.7081 0.10262 0 0.16418 0.067 0.10262 0.15071z" style="stroke-width:.018538"/>
		<g id="g43" transform="matrix(.1457 0 0 .11878 289.38 159.76)">
			<ellipse id="ellipse33" transform="matrix(.89516 -.44575 .43897 .8985 0 0)" cx="90.05" cy="284.5" rx="23.307" ry="23.716" style="fill:#0ff"/>
			<ellipse id="ellipse35" cx="205.28" cy="215.46" rx="17.69" ry="18.499"/>
			<path id="path37" d="m204.77 213.29c-2.9541-2.0561-0.84668-3.9199-5.3037-8.5253-2.2627 1.778-4.9326 5.4241-4.9329 10.241-3.3e-4 6.5872 4.6985 11.927 10.635 11.927 5.9361-4.3e-4 10.748-5.3402 10.748-11.927-3.2e-4 -5.2799-2.0542-8.7539-4.6659-10.002-4.2505 4.366-5.3032 8.286-6.4802 8.2859z" style="fill:#0ff"/>
			<path id="path39" d="m205.29 205.27a8.7571 9.9188 0 0 0-8.7568 9.9199 8.7571 9.9188 0 0 0 8.7568 9.9185 8.7571 9.9188 0 0 0 8.7568-9.9185 8.7571 9.9188 0 0 0-8.7568-9.9199z"/>
			<rect id="rect41" x="204.13" y="201.02" width="2.1101" height="11.7" ry="0" style="fill:#0ff"/>
		</g>
	</g>
	<g id="monitor">
		<g id="pantalla" transform="matrix(.024175 0 0 -.022657 233.99 106.01)">
			<path id="path46" d="m177 4276c-18-19-23-31-8-22 14 9 20-343 31-1952 6-832 14-1520 17-1530 15-40 43-41 345-7 123 13 374 40 558 60s373 40 420 45 193 21 325 35 257 28 278 31c28 4 37 2 37-9 0-27-43-122-69-151-48-53-55-55-456-101-327-38-290-28-333-92l-37-56 35-29c19-16 123-74 230-130 107-55 291-149 407-209 117-60 232-113 255-119 52-11 147 1 443 59 211 42 677 121 709 121 18 0 55 6 82 14s77 20 111 27c81 15 100 35 85 88-11 34-36 58-208 192-380 298-371 291-420 297-24 2-139-8-254-23-115-16-213-26-216-22-4 4 1 35 10 69 29 106 35 117 70 123 52 9 604.39 64.861 721 76l150 14c17 2 116 13 220 24 630 75 158.5 21.794 630 75 121 13 163 21 173 34 9 12 12 144 12 581 0 311 2 638 5 726s7 397 10 686c5 540 3 582-33 593-10 3-96 15-192 26s-249 30-340 40c-91 11-419 49-730 85-807 93-1040 120-1375 161-117 14-217 25-555 64-248 29-584 68-775 91-264 32-347 35-368 15zm368.1-245.83c3930.4-446.51 0 0 3775.8-427.18 15.203-1154.6 1.5631-927.48-13.784-1981.8l-3750.9-263.88zm1436.9-3802.2c87-48 162-88 168-88 12 0 13-20 0-40-8-12-11-12-27 2-10 9-63 39-118 68-215 112-241 130-231 156 7 17-12 26 208-98z"/>
		</g>
		<g id="btn_encendido" transform="matrix(.15249 0 0 .14557 303.28 43.486)">
			<ellipse id="ellipse49" transform="matrix(.89516 -.44575 .43897 .8985 0 0)" cx="90.05" cy="284.5" rx="23.307" ry="23.716" style="fill:#0ff"/>
			<ellipse id="ellipse51" cx="205.28" cy="215.46" rx="17.69" ry="18.499"/>
			<path id="path53" d="m204.77 213.29c-2.9541-2.0561-0.84668-3.9199-5.3037-8.5253-2.2627 1.778-4.9326 5.4241-4.9329 10.241-3.3e-4 6.5872 4.6985 11.927 10.635 11.927 5.9361-4.3e-4 10.748-5.3402 10.748-11.927-3.2e-4 -5.2799-2.0542-8.7539-4.6659-10.002-4.2505 4.366-5.3032 8.286-6.4802 8.2859z" style="fill:#0ff"/>
			<path id="path55" d="m205.29 205.27a8.7571 9.9188 0 0 0-8.7568 9.9199 8.7571 9.9188 0 0 0 8.7568 9.9185 8.7571 9.9188 0 0 0 8.7568-9.9185 8.7571 9.9188 0 0 0-8.7568-9.9199z"/>
			<rect id="rect57" x="204.13" y="201.02" width="2.1101" height="11.7" ry="0" style="fill:#0ff"/>
		</g>
	</g>
	<g id="mouse">
		<path id="path61" d="m189.39 93.561c-0.92175 0.35593-2.9359 1.4884-4.438 2.4915l-2.7311 1.8444-7.5105 0.03236c-8.5347 0.03236-11.334 0.51772-15.499 2.5886-3.1066 1.5532-6.1791 4.433-6.1791 5.7596 0 0.87365 0.58035 0.64715 1.3655-0.58243 1.7069-2.621 5.667-4.9831 10.242-6.1479 2.5263-0.64715 14.85-1.1002 15.397-0.58244 0.1707 0.16179-0.8876 1.2619-2.7311 2.7504-5.0525 4.1418-6.7253 6.5362-6.145 8.9307 0.40966 1.7797 2.5263 4.3683 7.4764 9.2866 6.657 6.5362 12.461 13.364 18.435 21.809 2.8335 3.9476 2.9701 4.1094 5.2915 5.2096 2.3214 1.1002 2.4921 1.2658 6.3156 1.4734 3.3617-0.23995 4.2332-0.50268 5.7694-1.0851 2.7311-1.1002 5.7353-3.2034 7.5788-5.4037 2.1166-2.4268 2.5945-3.4623 3.2432-6.5686 1.3997-6.6656-1.0924-14.82-6.7936-22.197-3.9259-5.1125-15.431-14.917-21.78-18.573-2.9701-1.7149-4.8135-1.9738-7.3057-1.0354zm5.6329 0.80894c1.8094 0.87365 8.6371 5.6626 11.402 7.9923l1.6728 1.4237-1.8435 1.3266c-4.0284 2.9769-3.8235 2.7504-3.448 4.4653 0.58036 2.5239 0.23897 2.621-2.0483 0.64715-1.1266-0.97073-2.6287-2.1032-3.3797-2.5239-1.0242-0.55008-1.3314-0.90601-1.3314-1.6179 0-1.1649-2.458-3.7211-4.5404-4.6918-0.81932-0.38829-2.2873-0.74422-3.209-0.80894-1.0583-0.0647-2.0825-0.35593-2.7311-0.80894-0.58036-0.38829-1.468-0.8413-1.98-1.0354l-0.95588-0.35593 2.697-1.812c4.8477-3.2358 6.6912-3.6564 9.6954-2.2003zm-10.071 5.7273c0.85346 0.51772 1.1948 0.97072 1.1948 1.5855 0 0.93837 1.0924 2.0385 4.5746 4.4653 2.1166 1.5208 2.458 1.6826 3.9601 1.6179 1.468-0.0647 1.8776 0.0647 3.4822 1.2296 0.99002 0.71187 2.4238 1.8444 3.1749 2.4592 1.3314 1.1649 1.3655 1.1649 0.47794 1.1972-0.51208 0-1.468-0.2265-2.1166-0.48536-0.68277-0.25886-1.3997-0.48536-1.5704-0.48536-0.1707 0-2.9359 2.265-6.145 5.0154s-6.0084 5.0154-6.2132 5.0154c-0.51208 0-10.207-7.4746-11.675-9.0601-1.5704-1.6179-2.4238-3.3652-2.1507-4.4006s4.1308-4.886 7.3398-7.3128c2.8335-2.1356 3.3797-2.2327 5.667-0.8413zm6.2132 1.715c3.3456 1.5855 5.7012 4.9507 3.8577 5.5008-1.0242 0.32358-1.98-0.0971-4.6087-1.9414-3.0383-2.168-4.0625-3.2358-3.8235-3.8505 0.34139-0.80894 2.5945-0.64715 4.5746 0.29122zm21.78 6.3744c4.5063 4.4006 6.6229 7.0863 8.876 11.422 2.9018 5.5331 3.8577 10.807 2.9018 15.726-1.1607 5.792-7.3057 11.196-13.929 12.263-3.0383 0.48536-5.5987 0.0647-8.5688-1.359l-2.1507-1.0678-1.2973-3.7535c-2.3897-6.8922-5.9401-12.846-10.242-17.085-2.0142-1.9738-2.0824-2.1032-1.468-2.621 0.34139-0.29122 2.9359-2.5239 5.8036-4.983l5.1891-4.433 1.8776 0.55007c1.7752 0.51772 1.9118 0.51772 2.7994-0.0324 0.88761-0.51772 0.88761-0.64715 0.71691-2.621l-0.20483-2.0385 2.5604-1.9738c1.98-1.4884 2.697-1.8767 3.1408-1.6502 0.30725 0.16178 2.1166 1.812 3.9942 3.6564zm-32.09 10.775c7.886 5.8891 10.993 9.2866 14.475 15.92 1.6045 3.0416 3.8918 8.6718 3.0042 7.4099-5.0525-7.2481-13.314-17.085-19.357-23.006-2.5263-2.4915-4.9842-5.0478-5.4622-5.6626-0.78518-1.1002-0.75105-1.0678 0.88761 0.32358 0.92174 0.80894 3.8235 3.0416 6.4522 5.0154z" style="stroke-width:.033236"/>
	</g>
	<g id="teclado">
		<path id="path64" d="m26.845 145.97c-0.81751 0.26265-1.5295 0.94243-1.9383 1.8849l-0.32964 0.74159-0.03956 11.834c-0.01319 7.8175 0.01319 11.742 0.10549 11.587 0.07078-0.13032-0.40146 32.013-0.29378 35.18 0.03274 0.96337 0.49794 3.296 0.50414 2.7418 0.01755-1.5678 0.05335-37.073 0.13246-37.722 0.02637-0.23174 0.07911-5.5773 0.13186-11.865 0.03956-6.6434 0.13186-11.634 0.19778-11.927 0.1846-0.69524 0.59336-1.236 1.1867-1.5913 0.50106-0.30899 1.1208-0.30899 77.123-0.30899 76.002 0 76.622 0 77.123 0.30899 0.59336 0.35534 1.0021 0.89608 1.1867 1.5913 0.0659 0.29354 0.15823 5.2838 0.19779 11.927 0.0396 6.288 0.0303 12.059 0.0962 12.353l0.0544 38.031-156.76 0.35768-1.1657-3.8966c0.22886-0.35916-0.09061 5.6413 0.30985 5.6404 10.422-0.0242 158.29-0.0587 158.28-0.77287-0.0532-6.7827-0.4188-40.202-0.3356-40.049 0.0923 0.1545 0.11867-3.7697 0.10548-11.587l-0.0395-11.819-0.32965-0.77248c-0.40875-0.95788-1.2131-1.6995-2.1097-1.9158-1.068-0.26265-152.55-0.2163-153.39 0.0464z" style="stroke-width:.014273"/>
		<path id="path66" d="m30.049 152.66c-0.65928 0.29354-0.65928 0.30899-0.65928 4.4495 0 3.7079 0.01319 3.9242 0.2769 4.3104l0.26371 0.4017h3.3492c3.0854 0 3.3623-0.0154 3.6392-0.29355l0.31646-0.29354v-4.0324c0-3.6461-0.02637-4.0478-0.23734-4.295-0.21097-0.24719-0.56698-0.27809-3.4942-0.30899-1.7933-0.0155-3.3492 0.0154-3.4546 0.0618zm6.5005 0.75703c0.19778 0.0772 0.22416 0.47894 0.22416 3.6925 0 3.4453-0.01319 3.5998-0.2769 3.8779-0.25053 0.26265-0.52743 0.29355-3.0063 0.32445-1.49 0.0155-2.8745-0.0154-3.0723-0.0618l-0.3692-0.0772 0.02637-3.6616 0.03956-3.6461 0.02637 3.5225 0.03956 3.5071 3.0063-0.0309 2.9932-0.0463 0.03956-3.4762c0.01319-1.9003 0.01319-3.538-0.02637-3.6307-0.02637-0.0927-0.31646-0.13904-0.65928-0.10814-0.58017 0.0618-0.59336 0.0772-0.40876 0.38624 0.15823 0.26264 0.19778 0.84973 0.19778 2.6264 0 2.0085 0.03956 2.3638 0.2769 2.9045 0.34283 0.78793 0.23734 0.94243-0.26371 0.38624-0.35601-0.40169-0.4615-0.43259-1.9119-0.50984l-1.5295-0.0927-0.65928 0.47894c-0.3692 0.26265-0.65928 0.44804-0.65928 0.41714s0.11867-0.37079 0.26371-0.77248c0.22416-0.61799 0.26371-1.066 0.26371-2.9818 0-1.8694 0.03956-2.2866 0.22416-2.5337 0.19779-0.26264 0.1846-0.27809-0.19778-0.27809-0.23734 0-0.42194-0.0618-0.42194-0.13905 0-0.16995 5.4984-0.23175 5.8413-0.0772z" style="stroke-width:.014273"/>
		<path id="path68" d="m41.019 152.71c-0.15823 0.0772-0.35601 0.32444-0.42194 0.54073-0.07911 0.23175-0.13186 2.0548-0.13186 4.1096v3.7079l0.32964 0.37079 0.31646 0.38625h12.869c12.685 0 12.856 0 13.12-0.309 0.25053-0.29354 0.26371-0.50984 0.26371-4.295 0-2.1784-0.05274-4.0478-0.10549-4.1405-0.29008-0.50984-0.58017-0.52529-13.304-0.50984-7.2521 0-12.764 0.0618-12.935 0.13905zm3.7315 0.92698c1.701 0 1.6482-0.0772 1.6482 2.7964 0 2.0085 0.03956 2.3947 0.26371 2.92 0.34283 0.80338 0.34283 1.066-0.02637 0.66434-0.58017-0.60254-0.85707-0.67979-2.3866-0.63344-1.4241 0.0309-1.4768 0.0463-2.0306 0.54074-0.31646 0.27809-0.56698 0.47894-0.56698 0.44804s0.11867-0.38624 0.26371-0.78793c0.22416-0.60254 0.26371-1.066 0.26371-2.9045 0-1.4368 0.06593-2.3174 0.17141-2.5801 0.15823-0.3708 0.65928-0.63344 0.98893-0.52529 0.10548 0.0309 0.7384 0.0618 1.4109 0.0618zm7.885 0.33989c0.1846 0.26264 0.22416 0.64888 0.22416 2.5801 0 1.9158 0.03956 2.3638 0.26371 2.9354 0.29008 0.74158 0.26371 0.95788-0.06593 0.57163-0.51424-0.60253-0.97574-0.72613-2.413-0.69523-1.3054 0.0309-1.4504 0.0618-1.9647 0.46349-0.31646 0.24719-0.56698 0.40169-0.56698 0.35534 0-0.0464 0.11867-0.33989 0.26371-0.67978 0.22416-0.52529 0.26371-0.91153 0.26371-2.9818 0-3.1054-0.07911-2.9972 2.3602-2.92 1.2131 0.0463 1.4241 0.0927 1.635 0.37079zm4.9051-0.33989c1.6878 0 1.6482-0.0772 1.6482 2.75 0 2.1012 0.02637 2.3329 0.32964 3.0899 0.1846 0.46349 0.32964 0.86518 0.32964 0.89608s-0.26371-0.16995-0.56698-0.44804c-0.56698-0.49439-0.61973-0.52529-1.9647-0.55619-1.4504-0.0309-2.0965 0.13905-2.4657 0.64889-0.34283 0.49438-0.40876 0.26264-0.13186-0.4017 0.26371-0.58708 0.29008-0.84973 0.26371-2.8891-0.01319-1.5759 0.02637-2.3484 0.14504-2.6264 0.17141-0.3708 0.67247-0.63344 1.0021-0.52529 0.10549 0.0309 0.7384 0.0618 1.4109 0.0618zm7.9114 0.35534c0.15823 0.26264 0.19778 0.83428 0.19778 2.6264 0 1.9776 0.03956 2.3638 0.26371 2.8891 0.14504 0.33989 0.26371 0.64888 0.26371 0.69523 0 0.0618-0.25053-0.10815-0.5538-0.37079-0.5538-0.44804-0.60654-0.46349-2.0438-0.46349-1.3977 0-1.5032 0.0309-2.0702 0.46349-0.32964 0.23174-0.60654 0.40169-0.60654 0.35534 0-0.0309 0.11867-0.33989 0.26371-0.67978 0.22416-0.52529 0.26371-0.91153 0.26371-2.8891 0-3.1826-0.06593-3.0899 2.3998-3.0127 1.279 0.0463 1.4372 0.0772 1.6218 0.38624z" style="stroke-width:.014273"/>
		<path id="path70" d="m70.318 152.71c-0.15823 0.0772-0.31646 0.20084-0.3692 0.27809-0.03956 0.0772-0.0923 1.9621-0.10548 4.1869l-0.03956 4.0633 0.31646 0.29354c0.29008 0.2781 0.69884 0.29355 13.146 0.29355 12.671 0 12.843 0 13.107-0.309 0.25053-0.29354 0.26371-0.50984 0.26371-4.295 0-3.1981-0.03956-4.0478-0.1846-4.295-0.1846-0.29354-0.48787-0.29354-13.027-0.32444-7.0807-0.0155-12.962 0.0309-13.107 0.10815zm5.2215 1.236c0.06593 0.1236 0.13186 1.236 0.13186 2.4719 0 2.0548 0.02637 2.3174 0.32964 3.0436 0.30327 0.78793 0.2769 1.066-0.07911 0.57164-0.38238-0.54074-0.87026-0.67979-2.3734-0.67979-1.4372 0-1.4768 0-1.991 0.47894-0.2769 0.26264-0.52743 0.46349-0.5538 0.43259-0.02637-0.0309 0.07912-0.37079 0.22416-0.75703 0.23734-0.60254 0.2769-0.95788 0.25053-2.8582-0.05274-3.1517-0.05274-3.1517 2.5053-3.0127 1.0812 0.0618 1.4636 0.13904 1.5559 0.30899zm12.764-0.10815c0.11867 0.0927 0.15823 0.77248 0.15823 2.472 0 2.163 0.02637 2.4101 0.31646 3.1208 0.1846 0.41714 0.30327 0.80338 0.2769 0.83428-0.02637 0.0309-0.23734-0.1236-0.4615-0.35534-0.5538-0.54074-0.80433-0.58709-2.413-0.52529-1.2658 0.0463-1.4109 0.0772-1.846 0.47894-0.54061 0.47894-0.60654 0.35534-0.25053-0.40169 0.1846-0.41714 0.22416-0.89608 0.22416-2.9045 0-2.611 0.06593-2.8582 0.69884-2.9509 0.59336-0.0773 3.1118 0.0927 3.2964 0.23174zm6.3951 0.0618c0.19779 0.2163 0.22416 0.55619 0.22416 2.5337 0 1.9312 0.03956 2.3792 0.26371 2.9972 0.14504 0.40169 0.26371 0.75703 0.26371 0.78793 0 0.0463-0.26371-0.13905-0.59336-0.40169-0.58017-0.46349-0.61973-0.47894-2.0174-0.44804-1.4109 0.0155-1.8724 0.1545-2.3339 0.69523-0.32964 0.4017-0.3692 0.1545-0.07911-0.54073 0.23734-0.54074 0.2769-0.89608 0.2769-2.9045 0-3.1672-0.06593-3.1054 2.3734-3.0127 1.0285 0.0463 1.4504 0.12359 1.6218 0.29354zm-12.777 0.0773c0.17141 0.27809 0.21097 0.81883 0.21097 2.5955 0 1.9003 0.03956 2.3484 0.26371 2.92 0.14504 0.37079 0.25053 0.69523 0.22416 0.72613-0.01319 0.0154-0.30327-0.16994-0.61973-0.41714-0.59336-0.46349-0.60654-0.46349-2.1361-0.41714-1.4768 0.0463-1.5559 0.0618-1.9119 0.46349-0.21097 0.24719-0.42194 0.43259-0.47468 0.43259-0.0923 0 0.15823-0.94243 0.31646-1.1587 0.06593-0.0772 0.11867-1.2205 0.11867-2.5338 0-3.1054-0.10549-2.9509 2.1229-2.9509 1.5955 0 1.701 0.0155 1.8856 0.33989z" style="stroke-width:.014273"/>
		<path id="path72" d="m99.669 152.66c-0.50106 0.21629-0.52743 0.46349-0.52743 4.6194 0 4.0169 0 4.0633 0.29008 4.295 0.26371 0.2163 1.7273 0.2472 13.093 0.2472 11.366 0 12.83-0.0309 13.093-0.2472 0.29008-0.23174 0.29008-0.27809 0.29008-4.295 0-3.2599-0.0396-4.1096-0.1846-4.3568-0.1846-0.29354-0.48787-0.29354-13.027-0.32444-7.0543-0.0155-12.922 0.0154-13.027 0.0618zm24.301 1.236c0.19778 0.2163 0.22415 0.55619 0.22415 2.5492 0 1.993 0.0396 2.3947 0.26372 2.9354 0.38238 0.91153 0.32964 0.98878-0.29009 0.44804-0.54061-0.46349-0.58017-0.47894-2.0833-0.47894-1.5164 0-1.5295 0-2.0174 0.47894-0.2769 0.26264-0.52742 0.44804-0.55379 0.41714-0.0396-0.0464 0.0659-0.37079 0.21097-0.74158 0.23734-0.58709 0.2769-0.92698 0.26371-2.8427-0.0264-3.1517-0.0264-3.1517 2.413-3.059 0.98893 0.0463 1.3977 0.12359 1.5691 0.29354zm-19.159 0.0309c0.0659 0.16995 0.13186 1.2669 0.13186 2.472 0 1.9621 0.0264 2.2556 0.31646 3.0281 0.18459 0.46349 0.30327 0.84973 0.26371 0.84973-0.0396 0-0.2769-0.1854-0.54061-0.41714-0.43513-0.40169-0.58017-0.43259-2.0042-0.47894l-1.5427-0.0618-0.61973 0.55619c-0.34283 0.30899-0.61973 0.52529-0.61973 0.50984 0-0.0309 0.14505-0.41714 0.32965-0.84973 0.30327-0.74159 0.32964-0.97333 0.32964-3.059 0-1.2514 0.0659-2.3792 0.13185-2.5492 0.13186-0.26264 0.29009-0.29354 1.9119-0.29354s1.7801 0.0309 1.9119 0.29354zm6.3555-0.0309c0.21097 0.2163 0.23734 0.50984 0.23734 2.5337 0 1.9312 0.0396 2.3792 0.26372 2.9972 0.14504 0.40169 0.26371 0.75703 0.26371 0.78793s-0.22416-0.10815-0.50106-0.32444c-0.44831-0.33989-0.69884-0.40169-2.0438-0.49439l-1.5164-0.0927-0.56698 0.47894c-0.30328 0.27809-0.58017 0.46349-0.60655 0.43259-0.0264-0.0309 0.0659-0.32444 0.21098-0.64888 0.25052-0.52529 0.27689-0.86519 0.27689-2.92 0-3.1363-0.0923-3.0127 2.0702-3.0127 1.3713 0 1.7141 0.0464 1.9119 0.26264zm6.4478 0c0.13185 0.1854 0.1846 0.86518 0.21097 2.5955 0.0132 2.0394 0.0527 2.4565 0.29008 3.0281 0.15823 0.35534 0.25053 0.67978 0.21097 0.72613-0.0264 0.0309-0.2769-0.1545-0.55379-0.41714-0.48787-0.47894-0.50106-0.47894-2.0306-0.47894-1.49 0-1.5427 0.0154-2.0702 0.46349-0.63291 0.52529-0.65929 0.47894-0.29009-0.43259 0.22416-0.54074 0.26372-0.94243 0.26372-2.8891 0-1.2669 0.0659-2.3947 0.13185-2.5646 0.13186-0.26264 0.29009-0.29354 1.8987-0.29354 1.4768 0 1.7932 0.0464 1.9383 0.26264z" style="stroke-width:.014273"/>
		<path id="path74" d="m128.55 152.72c-0.17142 0.0927-0.3692 0.23174-0.42195 0.33989-0.0527 0.10815-0.10548 1.9621-0.10548 4.1405 0 3.1672 0.0396 4.0015 0.1846 4.2486 0.1846 0.2781 0.4615 0.29355 10.179 0.3399 8.808 0.0309 10.021 0.0155 10.285-0.20085l0.31646-0.23174v-4.0633c0-2.2248-0.0527-4.1251-0.10549-4.2178-0.29008-0.50984-0.63291-0.52529-10.338-0.50984-6.0258 0-9.7838 0.0618-9.9947 0.1545zm19.91 0.91153c0.0791 0.16994 0.13186 1.6068 0.13186 3.5071 0 3.3835-0.0791 3.8779-0.59336 4.0324-0.50105 0.1545-18.645 0.1854-18.987 0.0309l-0.32964-0.1545 0.0264-3.4298 0.0396-3.4453 0.0264 3.3526 0.0396 3.368h5.9336v-3.5534c0-1.9621-0.0132-3.5998-0.0264-3.677-0.0395-0.0927-0.30327-0.10815-1.0812-0.0463-0.23734 0.0154-0.23734 0.0309-0.0396 0.20084 0.1846 0.16995 0.22416 0.55619 0.23734 2.5183 0.0264 2.0702 0.0528 2.4101 0.32965 3.1363 0.17141 0.44804 0.31645 0.84973 0.31645 0.89608 0 0.0464-0.21097-0.1236-0.4615-0.38624-0.60654-0.61799-0.83069-0.67979-2.4789-0.60254-1.2658 0.0463-1.4109 0.0772-1.846 0.47894-0.5538 0.49439-0.60654 0.37079-0.22416-0.50984 0.22416-0.52529 0.26372-0.91153 0.26372-2.92 0-1.854 0.0395-2.3638 0.19778-2.5492 0.26372-0.30899 0.25053-0.38624-0.0659-0.29354-0.14504 0.0463-0.26371 0.0155-0.26371-0.0618 0-0.10815 3.3755-0.16995 9.3618-0.16995 9.0849-0.0154 9.3618-0.0154 9.4937 0.2781z" style="stroke-width:.014273"/>
		<path id="path76" d="m135.53 157.19v3.7079h5.9336v-7.2304c0-0.10815-1.3186-0.16995-1.3186-0.0618 0 0.0309 0.0923 0.15449 0.19779 0.27809 0.15823 0.1854 0.19778 0.69524 0.19778 2.4565 0 2.0239 0.0264 2.302 0.31646 3.0899 0.31646 0.81883 0.29009 1.0969-0.0659 0.60254-0.35601-0.50984-0.8307-0.64889-2.3207-0.64889l-1.49-0.0155-0.59335 0.52529c-0.32965 0.29354-0.59336 0.49439-0.59336 0.46349 0-0.0464 0.13186-0.41714 0.30327-0.81883 0.29009-0.66434 0.30327-0.89608 0.2769-2.8891-0.0132-1.6068 0.0264-2.2711 0.15823-2.5801 0.10548-0.23175 0.1846-0.43259 0.1846-0.46349s-0.26372-0.0618-0.59336-0.0773l-0.59335-0.0309z" style="stroke-width:.014273"/>
		<path id="path78" d="m142.26 157.17v3.7234h5.9204l0.0396-3.6461c0.0264-2.0085 0-3.677-0.0396-3.7079-0.0527-0.0309-0.35601-0.0155-0.68565 0.0309-0.52743 0.0927-0.58017 0.12359-0.40876 0.32444 0.10549 0.1236 0.1846 0.30899 0.1846 0.40169 0.0132 0.10815 0.0132 1.1433 0 2.302-0.0132 1.9776 0.0132 2.163 0.32964 2.8891 0.1846 0.43259 0.30327 0.78793 0.25053 0.78793-0.0396 0-0.30327-0.2163-0.58017-0.46349-0.48787-0.44804-0.52743-0.46349-2.0042-0.46349-1.4768 0-1.5295 0.0154-2.057 0.46349-0.30327 0.24719-0.58017 0.46349-0.61972 0.46349-0.0396 0 0.0527-0.29354 0.21097-0.66434 0.26371-0.58708 0.29008-0.84973 0.26371-2.8891-0.0132-1.7304 0.0264-2.3329 0.17141-2.6728 0.15823-0.32445 0.15823-0.41714 0.0264-0.41714-0.10548 0-0.36919-0.0463-0.59335-0.0927l-0.40876-0.10815z" style="stroke-width:.014273"/>
		<path id="path80" d="m29.719 167.92-0.32964 0.37079v19.358c0 17.273 0.02637 19.405 0.21097 19.714l0.19778 0.3399h48.035c47.152 0 48.035 0 48.26-0.29355 0.21097-0.27809 0.23734-1.5141 0.22416-19.806 0-17.674-0.0132-19.513-0.21097-19.745-0.1846-0.23174-4.3776-0.24719-48.141-0.29354l-47.93-0.0309zm5.3534 0.98878c0.22416 0.30899 0.25053 0.61799 0.25053 2.6728 0 2.0239 0.03956 2.3792 0.2769 2.92 0.14504 0.35534 0.23734 0.66433 0.21097 0.69523-0.02637 0.0463-0.25053-0.10815-0.48787-0.33989-0.40876-0.41714-0.44831-0.41714-2.1361-0.38624-1.7141 0.0309-1.7405 0.0309-2.2416 0.50984l-0.51424 0.46349 0.23734-0.58709c0.11867-0.33989 0.31646-0.74158 0.43513-0.89608 0.10548-0.16995 0.14504-0.26265 0.06593-0.2163-0.19778 0.13905-0.0923-4.5113 0.10549-4.7894 0.2769-0.40169 0.67247-0.49439 2.1097-0.44804 1.3318 0.0309 1.4504 0.0618 1.6878 0.40169zm6.3159-0.0618c0.23734 0.26265 0.26371 0.46349 0.26371 2.5801 0 1.993 0.03956 2.3947 0.26371 2.9354 0.3692 0.91153 0.32964 0.98878-0.22416 0.49439-0.48787-0.43259-0.50106-0.43259-2.1493-0.38624-1.6614 0.0309-1.9119 0.10815-2.4262 0.71068-0.2769 0.32444-0.26371 0.26265 0.05274-0.61798 0.22416-0.60254 0.26371-1.066 0.26371-2.9509 0-1.2978 0.06593-2.3792 0.14504-2.5492 0.22416-0.49439 0.61973-0.58709 2.1229-0.54074 1.1603 0.0309 1.4636 0.0927 1.6878 0.32444zm6.4082-0.0464c0.1846 0.20085 0.22416 0.64889 0.25053 2.7037 0.01319 2.163 0.05274 2.5183 0.30327 3.0899 0.39557 0.88064 0.3692 0.92698-0.17141 0.3708-0.26371-0.26265-0.56698-0.47894-0.69884-0.49439h-1.7273c-1.4768 0-1.5164 0.0154-2.0042 0.47894-0.47468 0.43259-0.50106 0.44804-0.39557 0.12359 0.06593-0.20084 0.21097-0.57163 0.32964-0.81883 0.17141-0.37079 0.21097-0.97333 0.21097-2.8891v-2.4256l0.35601-0.23175c0.5538-0.32444 3.2437-0.26264 3.5469 0.0927zm6.3951 0.10815c0.22416 0.30899 0.25053 0.63344 0.25053 2.5646 0 1.8849 0.03956 2.3174 0.26371 2.9509 0.14504 0.40169 0.25053 0.74158 0.22416 0.77248-0.02637 0.0309-0.22416-0.10815-0.43513-0.32444-0.40876-0.41714-0.38238-0.41714-2.4262-0.38624-1.2395 0.0154-1.4372 0.0463-1.8328 0.38624-0.25053 0.20084-0.48787 0.35534-0.51424 0.32444-0.02637-0.0309 0.07911-0.33989 0.22416-0.69523 0.25053-0.54074 0.2769-0.89608 0.2769-2.9818 0-1.2978 0.05274-2.441 0.10548-2.5337 0.25053-0.43259 0.65928-0.52529 2.1097-0.49439 1.3977 0.0464 1.5164 0.0773 1.7537 0.41714zm6.4214-0.0309c0.10548 0.1854 0.15823 0.95788 0.15823 2.5492 0 2.1475 0.02637 2.3484 0.32964 3.059 0.1846 0.41714 0.32964 0.80338 0.32964 0.84973 0 0.0464-0.22416-0.1236-0.48787-0.37079-0.48787-0.44804-0.52743-0.46349-2.1756-0.49439-1.7273-0.0309-1.9383 0.0309-2.5316 0.71068-0.29008 0.33989-0.26371 0.1854 0.07911-0.58709 0.25053-0.58708 0.2769-0.84973 0.25053-2.7037-0.03956-2.2402 0.10548-3.059 0.56698-3.2908 0.14504-0.0772 0.96256-0.10815 1.7933-0.0618 1.2131 0.0618 1.5427 0.13905 1.6878 0.33989zm6.3951 0.0772c0.19779 0.27809 0.23734 0.61799 0.21097 2.6264-0.01318 2.0239 0.02637 2.3638 0.26371 2.9354 0.14504 0.35534 0.25053 0.66433 0.23734 0.69523-0.02637 0.0154-0.26371-0.13905-0.52743-0.33989-0.44831-0.35534-0.58017-0.38624-2.1625-0.38624h-1.6878l-0.52743 0.49439c-0.29008 0.27809-0.48787 0.43259-0.44831 0.35534 0.59336-1.2514 0.6461-1.6068 0.6461-3.9088 0-2.3947 0.06593-2.7037 0.59336-2.8582 0.14504-0.0464 0.923-0.0618 1.7141-0.0155 1.2658 0.0618 1.4768 0.1236 1.6878 0.40169zm6.3028-0.0927c0.22416 0.23175 0.25053 0.49439 0.25053 2.5492 0 2.1012 0.02637 2.3638 0.32964 3.1517l0.31646 0.86518-0.48787-0.47894-0.48787-0.46349h-1.7273c-1.5823 0-1.7669 0.0309-2.1097 0.33989-0.21097 0.1854-0.42194 0.41714-0.47468 0.50984-0.21097 0.33989-0.0923-0.26265 0.15823-0.84973 0.22416-0.52529 0.26371-0.91153 0.26371-2.9354 0-2.2711 0.01319-2.3484 0.32964-2.7191 0.31646-0.37079 0.3692-0.37079 1.846-0.30899 1.2263 0.0464 1.5823 0.1236 1.7933 0.33989zm6.3951-0.0154c0.14504 0.2163 0.1846 0.84973 0.1846 2.5801 0 2.1475 0.02637 2.3484 0.32964 3.059 0.43513 1.0042 0.42194 1.0506-0.13186 0.47894l-0.47468-0.47894h-1.7537c-1.6087 0-1.7933 0.0309-2.1361 0.33989-0.21097 0.1854-0.42194 0.41714-0.47468 0.50984-0.21097 0.33989-0.0923-0.1236 0.21097-0.81883 0.2769-0.64889 0.30327-0.88063 0.25053-2.0394-0.02637-0.72613-0.01319-1.8385 0.05274-2.4719 0.13186-1.4986 0.23734-1.5759 2.2548-1.5141 1.3054 0.0464 1.5295 0.0927 1.6878 0.35534zm6.4082 0.0618c0.21097 0.30899 0.23734 0.64889 0.23734 2.6728 0 2.0239 0.03956 2.3792 0.2769 2.92 0.14504 0.35534 0.25053 0.66433 0.22416 0.69523-0.02637 0.0309-0.2769-0.1236-0.54061-0.35534-0.47468-0.38624-0.5538-0.40169-2.1097-0.37079-1.4636 0.0309-1.6482 0.0618-2.057 0.40169-0.25053 0.21629-0.47468 0.35534-0.50106 0.32444-0.02637-0.0309 0.07911-0.37079 0.22416-0.77248 0.22416-0.63344 0.26371-1.066 0.26371-2.9972 0-1.2514 0.05274-2.3483 0.10549-2.4565 0.21097-0.38624 0.79114-0.50984 2.1888-0.46349 1.3054 0.0463 1.4636 0.0927 1.6878 0.40169zm6.2896-0.0773c0.26371 0.2781 0.2769 0.44804 0.2769 2.5955 0 2.2866 0.0923 2.8273 0.63291 3.8933 0.03956 0.0927-0.17141-0.0773-0.4615-0.35534l-0.52743-0.49439h-3.2964c-0.0923 0.0154-0.3692 0.23174-0.63291 0.49439-0.54061 0.55618-0.54061 0.54073-0.19778-0.3399 0.22416-0.58708 0.26371-1.0197 0.26371-3.0436 0-2.3329 0-2.3638 0.34283-2.7655 0.32964-0.37079 0.3692-0.38624 1.8328-0.33989 1.2395 0.0463 1.5427 0.10815 1.7669 0.35534zm6.4346-0.0154c0.21097 0.23175 0.23734 0.60254 0.26371 2.6573 0.01318 2.0239 0.06593 2.4874 0.29008 3.1054 0.32964 0.86518 0.34283 0.92697 0.06593 0.60253-0.54061-0.63343-0.76477-0.69523-2.4789-0.71068l-1.6878-0.0155-0.51424 0.49439c-0.51424 0.47894-0.51424 0.47894-0.38238 0.0772 0.06593-0.2163 0.21097-0.58709 0.32964-0.84974 0.14504-0.33989 0.19778-0.98877 0.19778-2.75 0-2.3947 0.06593-2.7037 0.59336-2.8582 0.14504-0.0464 0.89663-0.0773 1.6746-0.0618 1.1603 0.0309 1.4636 0.0772 1.6482 0.30899zm6.3819 0.0927c0.22415 0.30899 0.25053 0.61799 0.25053 2.5646 0 1.8694 0.0396 2.3329 0.26371 2.9354 0.34283 0.94243 0.34283 0.95788-0.1846 0.47894-0.42194-0.37079-0.54061-0.40169-2.0965-0.41714-1.635-0.0155-2.0042 0.0772-2.4394 0.58708-0.31646 0.35535-0.32965 0.10815-0.0396-0.55618 0.25053-0.54074 0.2769-0.89608 0.2769-2.9972 0-3.0899-0.0264-3.059 2.2811-2.9972 1.3318 0.0309 1.4504 0.0618 1.6878 0.40169zm6.395-0.0618c0.14505 0.2163 0.1846 0.84973 0.1846 2.5646 0 2.0857 0.0264 2.3329 0.32964 3.1517l0.34283 0.88063-1.0021-0.95788h-3.4283l-0.50105 0.47894c-0.26372 0.26264-0.48787 0.43259-0.48787 0.40169s0.13185-0.40169 0.29008-0.81883c0.25053-0.67979 0.2769-0.98878 0.25053-2.9509-0.0527-3.1054-0.0132-3.1517 2.3339-3.0899 1.3054 0.0309 1.5295 0.0772 1.6878 0.33989zm12.882 0.0463c0.19779 0.20085 0.22416 0.54074 0.22416 2.5955 0 1.993 0.0396 2.4565 0.26371 3.059 0.13186 0.38624 0.22416 0.71068 0.1846 0.71068-0.0527 0-0.25053-0.16995-0.47468-0.38624-0.21097-0.2163-0.4615-0.38624-0.54062-0.38624-0.0923 0-2.3075-0.0154-4.9314-0.0309l-4.7732-0.0154-0.46149 0.41714c-0.26372 0.23174-0.47469 0.38624-0.47469 0.33989 0-0.0309 0.11867-0.38624 0.26371-0.78793 0.22416-0.60254 0.26372-1.066 0.26372-2.8736 0-2.2711 0.0791-2.6882 0.56698-2.92 0.15823-0.0618 2.3998-0.0927 4.971-0.0463 3.9557 0.0772 4.7205 0.12359 4.9183 0.32444zm-86.234 7.7248c0.19778 0.20085 0.22416 0.54074 0.22416 2.5028 0 2.0702 0.02637 2.3174 0.31646 3.0281 0.17141 0.41714 0.29008 0.78793 0.2769 0.81883-0.02637 0.0154-0.26371-0.13905-0.51424-0.37079-0.47468-0.41714-0.48787-0.41714-2.914-0.46349-1.3449-0.0309-2.7558 0-3.1514 0.0618-0.39557 0.0618-0.69884 0.0618-0.65928-0.0155 0.03956-0.0618 0.01319-0.1236-0.06593-0.1236-0.06593 0-0.15823 0.0618-0.19778 0.13905-0.03956 0.0772-0.29008 0.27809-0.54061 0.44804l-0.44831 0.32444 0.25053-0.77248c0.22416-0.63344 0.26371-1.1433 0.26371-2.9354 0-2.2711 0.07911-2.6882 0.56698-2.9045 0.15823-0.0772 1.6614-0.0927 3.3228-0.0618 2.4657 0.0772 3.0723 0.12359 3.27 0.32444zm6.461 0.0464c0.1846 0.27809 0.22416 0.66433 0.22416 2.6264 0 2.1938 0.01319 2.3484 0.34283 3.1054l0.34283 0.80339-0.30327-0.26265c-0.17141-0.13905-0.4615-0.38624-0.63291-0.54074-0.26371-0.21629-0.63291-0.26264-1.9119-0.27809-1.6482-0.0154-1.701 0-2.3339 0.77248-0.32964 0.40169-0.31646 0.0773 0.02637-0.71068 0.25053-0.57164 0.2769-0.88063 0.26371-2.9818l-0.02637-2.3638 0.3692-0.3399c0.34283-0.32444 0.44831-0.33989 1.8856-0.24719 1.3318 0.0773 1.5427 0.13905 1.7537 0.41714zm5.8676-0.30899c0.25053 0.0618 0.51424 0.21629 0.56698 0.32444 0.06593 0.10815 0.11867 1.236 0.11867 2.4874 0 2.1321 0.02637 2.3329 0.32964 3.0436 0.1846 0.41714 0.32964 0.80338 0.32964 0.84973 0 0.0464-0.22416-0.1236-0.50106-0.37079-0.48787-0.46349-0.52743-0.47894-2.1361-0.52529l-1.635-0.0464-0.56698 0.50984c-0.31646 0.27809-0.56698 0.47894-0.56698 0.44804s0.11867-0.38624 0.2769-0.78793c0.23734-0.63344 0.2769-1.066 0.30327-3.1208 0.01319-2.3329 0.02637-2.3947 0.32964-2.6882 0.2769-0.26264 0.50106-0.30899 1.5032-0.27809 0.6461 0.0154 1.3845 0.0772 1.6482 0.1545zm6.7379 0.12359c0.25053 0.16995 0.2769 0.32445 0.30327 2.1475 0.01319 1.0815 0.01319 2.1475 0 2.3947-0.01319 0.23175 0.11867 0.77249 0.30327 1.1896 0.1846 0.43259 0.30327 0.77248 0.25053 0.77248-0.03956 0-0.25053-0.16995-0.47468-0.38624-0.42194-0.41714-0.3692-0.41714-2.3339-0.44804-1.3186-0.0154-1.4109 0-1.8987 0.41714-0.50106 0.43259-0.51424 0.43259-0.42194 0.0772 0.05274-0.20085 0.1846-0.54074 0.2769-0.77249 0.13186-0.29354 0.1846-1.0815 0.1846-2.7346 0-2.2093 0.01319-2.3329 0.30327-2.6573 0.2769-0.30899 0.38238-0.32444 1.7669-0.24719 0.80433 0.0463 1.5823 0.1545 1.7405 0.24719zm6.5137 0.1854c0.1846 0.27809 0.22416 0.66433 0.22416 2.6419 0 2.0239 0.03956 2.3792 0.2769 2.92 0.14504 0.35534 0.25053 0.66433 0.22416 0.69523-0.02637 0.0309-0.26371-0.1236-0.52743-0.33989-0.42194-0.35534-0.60654-0.40169-2.0306-0.43259l-1.5691-0.0463-0.61973 0.52529-0.63291 0.54074 0.32964-0.83429c0.30327-0.75703 0.32964-0.98877 0.32964-3.1517 0-3.059-0.01319-3.0436 2.3075-2.92 1.2658 0.0618 1.4768 0.1236 1.6878 0.40169zm6.2764-0.10815c0.26371 0.2781 0.2769 0.44804 0.2769 2.6264 0 1.993 0.03956 2.4256 0.26371 3.0127 0.14504 0.37079 0.25053 0.71068 0.22416 0.74158-0.02637 0.0154-0.22416-0.1236-0.43513-0.33989-0.21097-0.2163-0.50106-0.40169-0.6461-0.40169-2.5317-0.1854-2.9272-0.1236-3.8107 0.55619l-0.38238 0.29354 0.15823-0.32444c0.3692-0.81884 0.43513-1.3132 0.40876-3.3062-0.01319-2.2556 0.0923-2.8427 0.5538-3.0745 0.17141-0.0772 0.93618-0.1236 1.701-0.10815 1.1735 0.0309 1.4504 0.0772 1.6878 0.32444zm6.4214 0.0155c0.13186 0.2163 0.1846 0.88063 0.1846 2.5801 0 2.1475 0.02637 2.3484 0.32964 3.059 0.1846 0.41714 0.32964 0.80338 0.32964 0.84973 0 0.0309-0.2769-0.16995-0.60654-0.46349l-0.60654-0.54074-1.5955 0.0927c-1.4372 0.0773-1.6482 0.1236-2.0306 0.46349-0.22416 0.20084-0.44831 0.37079-0.47468 0.37079-0.03956 0 0.05274-0.29354 0.19778-0.64889 0.23734-0.58708 0.2769-0.94242 0.26371-2.8736-0.02637-3.2135 0.02637-3.2908 2.3339-3.229 1.2922 0.0463 1.5164 0.0927 1.6746 0.33989zm6.3423-0.0309c0.21097 0.23175 0.23734 0.60254 0.25053 2.6419 0.02637 2.0394 0.06593 2.4565 0.30327 3.0745 0.3692 0.92698 0.35601 1.0197-0.07911 0.54073-0.60654-0.66433-0.84388-0.72613-2.3998-0.67978-1.4109 0.0464-1.5032 0.0618-2.057 0.52529l-0.56698 0.46349 0.31646-0.83428c0.29008-0.77249 0.31646-1.0506 0.31646-3.1363 0-2.9818-0.01318-2.9663 2.2679-2.9045 1.1472 0.0309 1.4636 0.0927 1.6482 0.30899zm6.3819 0.0927c0.22416 0.30899 0.25053 0.63344 0.25053 2.6264 0 1.9158 0.03956 2.3638 0.26371 2.9354 0.14504 0.37079 0.25053 0.69523 0.22416 0.72613-0.01319 0.0155-0.29008-0.1545-0.59336-0.40169-0.5538-0.43259-0.60654-0.44804-2.0438-0.40169-1.4504 0.0464-1.8328 0.1545-2.2679 0.64888-0.32964 0.38625-0.35601 0.16995-0.06593-0.57163 0.22416-0.58709 0.26371-1.0197 0.26371-3.0281v-2.3483l0.3692-0.32445c0.32964-0.30899 0.47468-0.33989 1.846-0.27809 1.3845 0.0464 1.5164 0.0773 1.7537 0.41714zm6.0127-0.27809c0.19779 0.0772 0.40876 0.24719 0.4615 0.33989 0.05274 0.10815 0.10549 1.2205 0.10549 2.4719 0 2.1321 0.02637 2.3329 0.32964 3.0436 0.1846 0.41714 0.32964 0.80338 0.32964 0.86518 0 0.0463-0.25053-0.13905-0.5538-0.43259-0.5538-0.50984-0.56698-0.50984-2.0833-0.52529-1.4636-0.0309-1.5295-0.0154-2.0833 0.41714-0.31646 0.24719-0.59336 0.44804-0.63291 0.44804-0.02637 0 0.06593-0.29354 0.22416-0.66434 0.26371-0.58708 0.29008-0.84973 0.26371-2.7346-0.02637-2.3638 0.06593-2.9354 0.52743-3.1981 0.39557-0.2472 2.5976-0.26265 3.1118-0.0309zm6.7379 0.20084c0.1846 0.2163 0.22415 0.61799 0.23734 2.611 0.0132 2.0548 0.0396 2.441 0.29009 3.1054 0.15822 0.41714 0.29008 0.77248 0.29008 0.81883 0 0.0309-0.23734-0.16995-0.54061-0.44804l-0.54062-0.50984-1.6218 0.0154c-1.5559 0-1.6482 0.0155-2.0965 0.43259-0.54061 0.47894-0.58017 0.40169-0.21097-0.49439 0.22416-0.54074 0.26371-0.94243 0.26371-2.9663 0-3.0281-0.06593-2.9354 2.2152-2.8736 1.1867 0.0309 1.5427 0.0927 1.7141 0.30899zm6.3819 0.0927c0.19778 0.29354 0.23734 0.67978 0.23734 2.6419 0 2.1166 0.0264 2.3638 0.31646 3.0745 0.17141 0.43259 0.27689 0.77249 0.23734 0.77249-0.0396 0-0.2769-0.23175-0.52743-0.50984l-0.43513-0.49439h-1.6614c-1.0021 0-1.7273 0.0618-1.8064 0.16995-0.21097 0.24719-0.87026 0.72613-0.87026 0.63343 0-0.0464 0.11868-0.37079 0.26372-0.74158 0.22415-0.58709 0.26371-1.0197 0.26371-3.0127 0-3.0436-0.0132-3.0281 2.3075-2.9354 1.2922 0.0618 1.4636 0.10815 1.6746 0.40169zm6.3028-0.0772c0.23734 0.2472 0.26372 0.49439 0.26372 2.5646 0 2.0857 0.0264 2.3638 0.31645 3.1363l0.31646 0.83428-0.5538-0.46349c-0.5538-0.44804-0.61973-0.46349-2.1624-0.47894-1.5427-0.0155-1.5955 0-2.0702 0.41714-0.26372 0.23174-0.50106 0.40169-0.51425 0.38624-0.0264-0.0309 0.0791-0.37079 0.21098-0.74158 0.22415-0.57164 0.26371-1.0042 0.25052-2.8891-0.0264-2.3329 0.0528-2.75 0.5538-2.9972 0.15823-0.0772 0.93619-0.1236 1.7141-0.0927 1.134 0.0464 1.4768 0.10815 1.6746 0.32444zm9.6651 0.10815c0.18459 0.26264 0.22415 0.63343 0.22415 2.5183 0 1.8694 0.0396 2.3329 0.26372 2.9354 0.32964 0.89608 0.32964 0.97333 0.0132 0.61799-0.26371-0.26265-0.26371-0.2163-0.30327 3.1826-0.0396 3.3835-0.0396 3.4762 0.26371 4.125 0.17142 0.3708 0.29009 0.69524 0.26372 0.72614-0.0264 0.0464-0.2769-0.1236-0.5538-0.35534-0.48787-0.40169-0.59336-0.41714-2.6371-0.50984-1.1735-0.0618-2.1361-0.0464-2.1624 0.0309-0.0264 0.0772-0.11867 0.13904-0.19778 0.13904-0.0923 0-0.38239 0.13905-0.65929 0.309-0.26371 0.16994-0.52742 0.30899-0.56698 0.30899-0.0396 0 0.0659-0.29354 0.25053-0.66434 0.31645-0.63343 0.32964-0.74158 0.3692-4.3568l0.0527-3.7079-0.68566 0.0464c-0.58017 0.0309-0.77795 0.1236-1.1867 0.57164-0.26371 0.29354-0.51424 0.49439-0.54061 0.47894-0.0264-0.0309 0.10548-0.41714 0.29008-0.84973 0.31646-0.72614 0.34283-0.91153 0.34283-3.0745 0-2.3947 0.0659-2.7191 0.59336-2.8582 0.14504-0.0309 1.635-0.0309 3.2964 0.0154 2.8349 0.0618 3.0459 0.0772 3.27 0.37079zm-79.233 7.3695c0.34283 0.0772 0.68566 0.21629 0.75158 0.33989 0.06593 0.1236 0.11867 1.236 0.11867 2.5028 0 2.1012 0.02637 2.3329 0.32964 3.0745 0.1846 0.43259 0.32964 0.81883 0.32964 0.84973s-0.22416-0.1545-0.50106-0.41714c-0.48787-0.46349-0.56698-0.47894-2.0702-0.54074-1.1735-0.0618-1.5955-0.0309-1.6746 0.10815-0.07911 0.15449-0.10548 0.15449-0.10548 0.0155 0-0.10815-0.22416 0.0463-0.48787 0.33989-0.2769 0.29354-0.51424 0.50984-0.52743 0.47894-0.02637-0.0309 0.07911-0.38624 0.23734-0.80338 0.25053-0.66434 0.29008-1.0042 0.26371-2.92-0.02637-2.3638 0.07911-2.8427 0.6461-3.0281 0.44831-0.1545 1.9119-0.13905 2.6899 0zm7.1071 0.33989c0.1846 0.27809 0.22416 0.66433 0.22416 2.6419s0.03956 2.3947 0.26371 2.9354c0.14504 0.35534 0.25053 0.66433 0.22416 0.67978-0.02637 0.0309-0.26371-0.13905-0.54061-0.37079-0.48787-0.40169-0.58017-0.41714-2.1229-0.41714-0.89663 0-1.5955 0.0463-1.5559 0.10815 0.02637 0.0772-0.01319 0.12359-0.0923 0.12359-0.0923 0-0.30327 0.13905-0.48787 0.309-0.19778 0.16994-0.3692 0.29354-0.39557 0.26264-0.02637-0.0309 0.07911-0.37079 0.22416-0.74158 0.22416-0.58709 0.26371-1.0197 0.26371-3.0127 0-3.0436-0.01319-3.0436 2.3075-2.92 1.279 0.0618 1.4768 0.10815 1.6878 0.40169zm6.4082-0.10815c0.17141 0.2163 0.21097 0.66434 0.22416 2.6264 0.02637 2.0394 0.06593 2.4565 0.30327 3.1054 0.14504 0.40169 0.2769 0.75703 0.2769 0.80338 0 0.0309-0.22416-0.13905-0.48787-0.40169-0.47468-0.43259-0.58017-0.44804-2.0174-0.52529-1.6087-0.0618-1.9647 0.0309-2.5976 0.71068-0.38238 0.40169-0.38238 0.3399 0.02637-0.63343 0.30327-0.74159 0.32964-0.97333 0.32964-3.0745 0-1.2669 0.05274-2.3638 0.10548-2.4719 0.21097-0.38624 0.77796-0.50984 2.1888-0.44804 1.0944 0.0464 1.4768 0.1236 1.6482 0.30899zm6.3819 0.0463c0.19779 0.2163 0.22416 0.55619 0.22416 2.5183 0 2.1166 0.02637 2.3483 0.34283 3.1826l0.34283 0.91153-0.31646-0.32445c-0.54061-0.58708-0.88344-0.69523-2.3734-0.75703-1.5032-0.0618-1.7669 0-2.3075 0.58709-0.29008 0.30899-0.30327 0.30899-0.30327 0.0155 0.01319-0.1545 0.0923-0.46349 0.19778-0.67979 0.14504-0.27809 0.1846-0.97333 0.19778-2.6573 0-1.236 0.03956-2.3792 0.07911-2.5183 0.05274-0.15449 0.2769-0.37079 0.50106-0.47893 0.56698-0.309 3.0723-0.1545 3.4151 0.20084zm6.461 0.0618c0.1846 0.27809 0.22416 0.66433 0.22416 2.611 0 1.9312 0.03956 2.3947 0.25053 2.9509 0.14504 0.37079 0.23734 0.69523 0.21097 0.72613-0.02637 0.0309-0.25053-0.1236-0.48787-0.33989-0.40876-0.38624-0.52743-0.41714-2.057-0.44804-0.88344-0.0155-1.6087 0.0309-1.6087 0.0927 0 0.0772-0.05274 0.0772-0.13186 0.0309-0.06593-0.0463-0.13186-0.0309-0.13186 0.0309 0 0.0773-0.17141 0.26265-0.39557 0.4017-0.47468 0.32444-0.47468 0.32444-0.13186-0.52529 0.22416-0.58709 0.26371-1.0197 0.26371-3.0127 0-3.059-0.01319-3.0436 2.3075-2.92 1.2658 0.0772 1.4768 0.1236 1.6878 0.40169zm5.8544-0.32444c0.61973 0 0.69884 0.30899 0.69884 2.7964 0 2.163 0.02637 2.3638 0.32964 3.0745 0.40876 0.94243 0.40876 1.066 0.03956 0.66433-0.5538-0.58708-0.923-0.71068-2.3998-0.75703l-1.4504-0.0463-0.63291 0.52529c-0.34283 0.29354-0.63291 0.50984-0.63291 0.46349 0-0.0463 0.15823-0.44804 0.34283-0.89608 0.34283-0.78793 0.35601-0.84973 0.26371-2.7809-0.06593-1.5295-0.03956-2.0857 0.10549-2.4874 0.22416-0.63343 0.43513-0.71068 1.9251-0.63343 0.61973 0.0463 1.2526 0.0772 1.4109 0.0772zm6.9357 0.26264c0.19778 0.2163 0.22416 0.55619 0.22416 2.5337 0 1.9467 0.03956 2.3792 0.26371 3.0127 0.14504 0.40169 0.25053 0.74158 0.22416 0.77248-0.02637 0.0309-0.22416-0.10815-0.43513-0.32444-0.21097-0.2163-0.43513-0.38624-0.51424-0.40169-1.0944-0.0618-2.9272-0.0309-2.8745 0.0463 0.02637 0.0772-0.01319 0.12359-0.07911 0.12359-0.07911 0-0.14504-0.0772-0.14504-0.16994 0-0.0927-0.26371 0.0772-0.59336 0.38624-0.32964 0.32444-0.59336 0.54074-0.59336 0.49439 0-0.0309 0.11867-0.38624 0.26371-0.78793 0.22416-0.60254 0.26371-1.066 0.26371-2.9509 0-2.3484 0.07911-2.7655 0.56698-2.9972 0.4615-0.23175 3.1514-0.0154 3.4283 0.26264zm6.4214-0.0155c0.15823 0.16995 0.21097 0.78793 0.26371 2.7346 0.05274 1.8849 0.11867 2.6419 0.29008 3.0745 0.26371 0.69524 0.1846 0.74159-0.30327 0.1854-0.32964-0.37079-0.43513-0.38624-2.0306-0.44804-0.923-0.0309-1.6482-0.0309-1.6087 0.0309 0.07911 0.0772-0.98893 0.81883-1.068 0.74158-0.02637-0.0309 0.07911-0.33989 0.23734-0.69523 0.26371-0.60254 0.29008-0.89608 0.2769-2.9972-0.01319-1.2823 0.02637-2.4101 0.0923-2.5183 0.22416-0.40169 0.77796-0.50984 2.202-0.41714 1.0153 0.0618 1.5164 0.15449 1.6482 0.30899zm5.8281-0.24719c0.69884 0 0.76477 0.26264 0.76477 2.7964 0 2.1475 0.02637 2.3638 0.32964 3.1054 0.40876 0.97333 0.40876 1.0351 0.03956 0.63343-0.17141-0.16994-0.44831-0.40169-0.60654-0.50984-0.39557-0.23174-3.2437-0.37079-3.125-0.15449 0.03956 0.0927-0.01319 0.10814-0.13186 0.0618-0.11867-0.0618-0.39557 0.0772-0.65928 0.30899-0.52743 0.47894-0.58017 0.33989-0.19778-0.52529 0.23734-0.54074 0.25053-0.81883 0.19778-2.7346-0.0923-3.0281 0.01319-3.1826 1.9779-3.059 0.58017 0.0463 1.2131 0.0772 1.4109 0.0772zm7.0016 0.32444c0.1846 0.27809 0.22416 0.66433 0.22416 2.6419 0 2.0239 0.0396 2.3792 0.2769 2.92 0.29008 0.69523 0.25052 0.94243-0.0791 0.54073-0.44831-0.52528-0.79114-0.60253-2.3998-0.58708-1.5427 0.0155-1.6482 0.0464-1.9779 0.41714-0.31646 0.33989-0.56698 0.49439-0.56698 0.33989 0-0.0309 0.11867-0.33989 0.26371-0.69523 0.22416-0.54074 0.26371-0.94243 0.26371-2.8891 0-1.2978 0.06593-2.3947 0.14504-2.5646 0.22416-0.50984 0.63292-0.60254 2.1624-0.52529 1.2526 0.0772 1.4768 0.13905 1.6878 0.40169zm6.4214-0.0773c0.15823 0.1854 0.19778 0.72613 0.22415 2.611 0.0264 2.0394 0.0659 2.5028 0.30327 3.1054 0.14505 0.40169 0.25053 0.74158 0.22416 0.77248-0.0132 0.0309-0.22416-0.16995-0.4615-0.41714l-0.43513-0.47894h-1.701c-1.6482 0.0155-1.7273 0.0309-2.1756 0.43259-0.25052 0.21629-0.46149 0.37079-0.46149 0.32444 0-0.0464 0.11867-0.40169 0.26371-0.80338 0.22416-0.61799 0.26371-1.066 0.26371-2.9972 0-2.9972-0.0132-2.9818 2.3075-2.8582 1.0417 0.0464 1.5032 0.13904 1.6482 0.30899zm-70.649 0.0155c0.21097 0.2163 0.23734 0.50984 0.23734 2.4565 0 2.0084 0.02637 2.2711 0.32964 3.0127 0.17141 0.44804 0.29008 0.84973 0.26371 0.88063-0.02637 0.0464-0.23734-0.10815-0.4615-0.33989-0.22416-0.2163-0.51424-0.40169-0.63291-0.41714-0.97574-0.0464-3.4546 0-3.5601 0.0772-0.07912 0.0463-0.15823 0-0.19779-0.0927-0.03956-0.1545-0.0923-0.1545-0.23734-0.0309-0.10548 0.0927-0.30327 0.13905-0.44831 0.10815-0.48787-0.13905-2.8349-0.16995-2.8349-0.0464 0 0.0772-0.10549 0.10814-0.22416 0.0927-0.11867-0.0309-0.35601 0.12359-0.52743 0.33989-0.42194 0.54074-0.48787 0.35534-0.17141-0.44804 0.22416-0.57164 0.26371-1.0197 0.26371-2.92 0-1.7767 0.03956-2.3174 0.21097-2.5955 0.19778-0.33989 0.22416-0.33989 3.9689-0.33989 3.336 0 3.8107 0.0309 4.0216 0.26264zm77.004 0c0.21098 0.2163 0.23735 0.52529 0.23735 2.5801 0 1.993 0.0396 2.4256 0.26371 3.0127 0.14504 0.37079 0.25053 0.71068 0.21097 0.74158-0.0264 0.0309-0.22415-0.1236-0.44831-0.33989-0.3692-0.35534-0.52743-0.38624-2.0042-0.46349l-1.6087-0.0772-0.50105 0.46349c-0.2769 0.24719-0.54062 0.46349-0.58017 0.46349-0.0396 0 0.0395-0.35534 0.1846-0.77248 0.22415-0.64889 0.26371-1.1587 0.26371-2.9818 0-2.9972-0.0791-2.8891 2.0702-2.8891 1.3713 0 1.7141 0.0463 1.9119 0.26264zm-73.523 7.6785c0.14504 0.23175 0.1846 0.86518 0.1846 2.611 0 2.1475 0.02637 2.3484 0.32964 3.0745 0.1846 0.41714 0.32964 0.80338 0.32964 0.84973 0 0.0464-0.19778-0.1236-0.44831-0.37079-0.52743-0.55619-1.0153-0.66434-2.7426-0.61799-1.0812 0.0309-1.3186 0.0772-1.5823 0.35534-0.35601 0.38624-0.69884 0.63344-0.60654 0.43259 0.4615-0.88063 0.52743-1.4368 0.50106-3.6461-0.02637-2.2711-0.02637-2.2711 0.32964-2.6728 0.32964-0.40169 0.3692-0.41714 1.9251-0.35534 1.3977 0.0463 1.6087 0.0772 1.7801 0.33989zm6.3423-0.0309c0.13186 0.1236 0.17141 0.81883 0.17141 2.5492 0 2.2248 0.02637 2.4256 0.32964 3.1363 0.1846 0.41714 0.32964 0.80338 0.32964 0.84973 0 0.0463-0.22416-0.1236-0.48787-0.37079-0.48787-0.46349-0.54061-0.46349-2.1625-0.50984l-1.6746-0.0463-0.54061 0.50984c-0.30327 0.27809-0.54061 0.47894-0.54061 0.44804s0.13186-0.35534 0.2769-0.72614c0.25053-0.60253 0.29008-0.97332 0.30327-3.1054 0.01319-2.6573 0.06593-2.8736 0.77796-2.9509 0.81751-0.0927 3.0591 0.0618 3.2173 0.21629zm6.4082 0.0772c0.19778 0.2163 0.22416 0.55619 0.22416 2.5337 0 2.1166 0.02637 2.3638 0.32964 3.1672 0.34283 0.91153 0.31646 0.92697-0.40876 0.18539-0.22416-0.23174-0.5538-0.29354-1.8856-0.33989-1.5955-0.0463-1.6087-0.0463-2.1361 0.40169-0.30327 0.24719-0.5538 0.43259-0.58017 0.40169-0.01319-0.0309 0.07911-0.35534 0.22416-0.74158 0.22416-0.58709 0.25053-1.0197 0.23734-2.92-0.01319-2.6419 0.06593-2.9045 0.94937-2.9818 1.2395-0.10815 2.8086 0.0464 3.0459 0.29354zm12.777 0c0.21097 0.2163 0.23734 0.54074 0.23734 2.5492 0 2.1321 0.02637 2.3484 0.32964 3.0899 0.1846 0.43259 0.32964 0.83428 0.32964 0.86518s-0.23734-0.1545-0.51424-0.41714c-0.50106-0.47894-0.56698-0.49439-2.0833-0.54074-1.635-0.0463-1.8064 0-2.5053 0.74158-0.38238 0.38624-0.38238 0.26265 0.02637-0.67978 0.30327-0.71069 0.32964-0.91153 0.32964-3.0436 0-1.2514 0.05274-2.3638 0.10549-2.4719 0.1846-0.33989 0.65928-0.43259 2.0965-0.38624 1.068 0.0309 1.4768 0.10814 1.6482 0.29354zm6.461 0c0.21097 0.2163 0.23734 0.55619 0.23734 2.5801 0 2.1475 0.02637 2.3947 0.32964 3.1517l0.31646 0.81884-0.5538-0.46349c-0.52743-0.43259-0.61973-0.46349-2.1625-0.50984l-1.6218-0.0618-0.48787 0.49439c-0.2769 0.27809-0.51424 0.47894-0.54061 0.46349-0.01319-0.0309 0.0923-0.35534 0.23734-0.72614 0.22416-0.58708 0.26371-1.0197 0.26371-2.9972 0-3.2135-0.06593-3.1208 2.3734-3.0436 1.0285 0.0464 1.4372 0.10814 1.6087 0.29354zm6.4742 0.0772c0.1846 0.26264 0.22416 0.64888 0.22416 2.6573 0 1.993 0.03956 2.4256 0.26371 3.0127 0.14504 0.3708 0.26371 0.69524 0.26371 0.74159 0 0.0309-0.22416-0.1545-0.50106-0.40169-0.47468-0.44804-0.5538-0.47894-2.0438-0.52529l-1.5559-0.0618-0.6461 0.50984-0.6461 0.52529 0.31646-0.81884c0.30327-0.74158 0.32964-0.98877 0.32964-3.1363 0-3.0436-0.06593-2.9509 2.2811-2.8736 1.2922 0.0464 1.5032 0.0927 1.7141 0.37079zm5.6567-0.33989c0.84388 0 0.89663 0.18539 0.89663 2.7964 0 2.1475 0.02637 2.3638 0.32964 3.1054 0.1846 0.43259 0.32964 0.83428 0.32964 0.86518s-0.21097-0.1545-0.4615-0.41714c-0.26371-0.26265-0.51424-0.47894-0.56698-0.49439-0.05274 0-0.77796-0.0309-1.6087-0.0464-1.5691-0.0463-1.7669 0.0155-2.4262 0.71068-0.38238 0.41714-0.39557 0.23175-0.02637-0.61798 0.31646-0.72614 0.32964-0.89608 0.31646-3.1054-0.01319-2.4565 0.05274-2.7346 0.59336-2.8273 0.15823-0.0309 0.71203-0.0309 1.2131-0.0154 0.51424 0.0154 1.1472 0.0309 1.4109 0.0463zm7.1335 0.26264c0.19779 0.2163 0.22416 0.55619 0.22416 2.5337 0 2.1012 0.02637 2.3638 0.31646 3.1517 0.1846 0.46349 0.2769 0.84973 0.19779 0.84973-0.06593 0-0.11867-0.0464-0.11867-0.1236 0-0.0618-0.19778-0.26264-0.44831-0.46349-0.40876-0.32444-0.61973-0.37079-2.0042-0.40169l-1.5559-0.0309-0.56698 0.50984c-0.31646 0.27809-0.56698 0.46349-0.56698 0.43259 0-0.0464 0.11867-0.35534 0.25053-0.66434 0.21097-0.47894 0.25053-0.95788 0.26371-2.9663 0.03956-3.3062-0.03956-3.1981 2.3866-3.1208 1.0285 0.0464 1.4504 0.12359 1.6218 0.29354zm6.461 0.0772c0.1846 0.26264 0.22416 0.64888 0.22416 2.6264 0 1.993 0.0396 2.3947 0.26371 2.9354 0.3692 0.91153 0.32965 1.0042-0.19778 0.44804-0.42194-0.41714-0.56698-0.47894-1.2922-0.49439-0.44831 0-1.1472-0.0309-1.5427-0.0772-0.75158-0.0773-0.923 0-1.7141 0.69523l-0.42194 0.3708 0.34283-0.78794c0.32964-0.75703 0.34283-0.92698 0.34283-3.1672 0-3.1054-0.07911-2.9972 2.2679-2.92 1.3186 0.0464 1.5163 0.0773 1.7273 0.37079zm-63.621-0.1545c0.10548 0.1236 0.15823 0.89608 0.15823 2.441 0 1.9776 0.07911 2.8582 0.35601 3.9397 0.03956 0.1854-0.06593 0.0927-0.23734-0.21629l-0.31646-0.50984-2.8745-0.0309c-1.5955 0-2.9272 0.0155-2.98 0.0618-0.05274 0.0464-0.19779 0.24719-0.32964 0.46349l-0.23734 0.38624 0.0923-0.38624c0.05274-0.2163 0.13186-1.6377 0.1846-3.1672 0.03956-1.5295 0.13186-2.8736 0.1846-2.9818 0.14504-0.26264 5.7753-0.26264 5.9995 0zm25.132 0.1545c0.17141 0.27809 0.21097 0.81883 0.21097 2.6419 0 1.9776 0.03956 2.3792 0.26371 2.92 0.3692 0.91153 0.32964 1.0042-0.19778 0.44804-0.38238-0.38624-0.59336-0.47894-1.0944-0.49439-0.34283 0-1.0812-0.0155-1.6482-0.0464-0.89663-0.0309-1.0812 0.0155-1.4372 0.32444-0.23734 0.1854-0.4615 0.44804-0.52743 0.54074-0.21097 0.38624-0.10548-0.1545 0.15823-0.81883 0.22416-0.58709 0.26371-1.0197 0.26371-2.9818 0-3.0127-0.10548-2.8736 2.1229-2.8736 1.5955 0 1.701 0.0155 1.8856 0.33989zm44.805-0.0772c0.21097 0.2163 0.23734 0.50984 0.23734 2.5492 0 2.1475 0.0264 2.3484 0.32964 3.059 0.1846 0.41714 0.32964 0.80338 0.32964 0.84973 0 0.0463-0.22415-0.10815-0.48787-0.37079-0.48787-0.43259-0.56698-0.44804-2.1229-0.52529-1.6218-0.0618-1.6218-0.0618-2.1493 0.38624-0.5538 0.47894-0.63291 0.37079-0.29008-0.38624 0.17141-0.40169 0.21097-0.88063 0.1846-2.6882-0.0264-2.1475 0.0527-2.7191 0.43512-3.0127 0.0791-0.0618 0.85707-0.12359 1.7141-0.12359 1.279 0 1.6218 0.0464 1.8196 0.26264zm17.484-0.0154c0.2769 0.2163 0.29008 0.33989 0.29008 2.5028 0 2.1012 0.0264 2.3329 0.32964 3.0899 0.1846 0.46349 0.32965 0.86518 0.32965 0.89608 0 0.0463-0.22416-0.13905-0.48787-0.38624l-0.50106-0.46349-7.2126-0.0464c-3.9821-0.0309-7.2258 0-7.2258 0.0618s-0.0791 0.12359-0.17141 0.12359c-0.10549 0-0.31646 0.16995-0.48787 0.38625-0.17142 0.21629-0.32965 0.35534-0.35602 0.32444-0.0264-0.0309 0.0791-0.37079 0.22416-0.77248 0.22416-0.63344 0.26371-1.066 0.26371-3.0745 0-1.9466 0.0396-2.3638 0.22416-2.611 0.19778-0.26264 0.60654-0.27809 7.3444-0.27809 6.25 0 7.173 0.0309 7.4367 0.24719zm-86.393 7.6012c0.35601 0.2781 0.44831 0.86518 0.44831 2.92 0 2.0548 0.01319 2.163 0.38238 3.0127 0.21097 0.49439 0.3692 0.89608 0.34283 0.89608-0.02637 0-0.29008-0.24719-0.59336-0.54073l-0.5538-0.54074h-3.1646c-3.0459 0-3.1777 0.0155-3.5733 0.33989-0.23734 0.1854-0.43513 0.40169-0.4615 0.46349-0.02637 0.0618-0.0923 0.1236-0.15823 0.1236-0.06593 0-0.02637-0.1854 0.06593-0.43259 0.43513-1.0042 0.48787-1.4059 0.4615-3.4916-0.01319-1.6995 0.02637-2.2093 0.19778-2.5028l0.19778-0.37079h3.1382c1.7141 0 3.1909 0.0618 3.27 0.12359zm8.3861 0.13905c0.21097 0.2163 0.23734 0.50984 0.23734 2.5492 0 1.7613 0.05274 2.4102 0.19779 2.75 0.11867 0.26265 0.26371 0.64889 0.34283 0.88063l0.13186 0.4326-0.30327-0.32445c-0.58017-0.61798-0.81751-0.67978-3.3623-0.71068l-2.4921-0.0463-0.5538 0.50984c-0.30327 0.29354-0.5538 0.47894-0.5538 0.44804 0-0.0464 0.11867-0.41714 0.2769-0.83428 0.25053-0.64889 0.2769-1.0042 0.26371-2.8582-0.02637-1.6686 0.01319-2.2093 0.1846-2.5801l0.21097-0.47894h2.5844c2.2284 0 2.624 0.0309 2.8349 0.26264zm8.2806 0.0463c0.23734 0.27809 0.26371 0.50984 0.26371 2.5955 0 1.9776 0.03956 2.3792 0.26371 2.9354 0.25053 0.61798 0.3692 1.2051 0.15823 0.88063-0.05274-0.0927-0.26371-0.32444-0.47468-0.50984-0.35601-0.32444-0.50106-0.33989-2.9668-0.33989h-2.5976l-0.44831 0.46349c-0.25053 0.24719-0.50106 0.44804-0.5538 0.46349-0.05274 0 0.05274-0.3708 0.22416-0.81884 0.30327-0.74158 0.32964-0.98877 0.32964-3.1054 0-1.9312 0.03956-2.3484 0.22416-2.5955 0.1846-0.24719 0.4615-0.27809 2.769-0.27809 2.3734 0 2.558 0.0155 2.8086 0.30899zm35.1-0.0463c0.21097 0.2163 0.23734 0.50984 0.23734 2.5183 0 2.2248 0.01319 2.2865 0.39557 3.1517 0.22416 0.47894 0.35601 0.86518 0.31646 0.86518-0.05274 0-0.29008-0.2163-0.54061-0.46349l-0.44831-0.46349h-16.021c-11.617 0-16.1 0.0464-16.311 0.16994-0.15823 0.0927-0.42194 0.32445-0.58017 0.49439-0.3692 0.38624-0.3692 0.3399-0.01319-0.60253 0.25053-0.66434 0.29008-0.97333 0.26371-2.6882-0.03956-1.9312 0.0923-2.8891 0.39557-3.1208 0.0923-0.0618 7.3444-0.12359 16.113-0.12359 14.649 0 15.968 0.0155 16.192 0.26264zm8.307 0c0.21097 0.2163 0.23734 0.50984 0.23734 2.5337 0 1.9467 0.03956 2.3792 0.26371 3.0127 0.14504 0.40169 0.25053 0.74158 0.22416 0.77248-0.02637 0.0309-0.23734-0.10815-0.4615-0.30899-0.39557-0.33989-0.56698-0.37079-2.769-0.43259-2.4921-0.0772-2.9272-0.0154-3.4151 0.50984-0.40876 0.46349-0.48787 0.30899-0.21097-0.3399 0.1846-0.41714 0.25053-1.0506 0.30327-3.0436 0.05274-2.2711 0.0923-2.5492 0.31646-2.75 0.21097-0.16994 0.81751-0.21629 2.769-0.21629 2.1361 0 2.5317 0.0309 2.7426 0.26264zm8.2806 0.0463c0.23734 0.27809 0.26371 0.50984 0.26371 2.611 0 1.9621 0.0396 2.4102 0.26371 3.0281 0.26372 0.74158 0.34283 1.0506 0.15823 0.77248-0.0527-0.0927-0.2769-0.32444-0.50105-0.50984-0.38239-0.30899-0.56699-0.32444-2.9536-0.33989l-2.5448-0.0309-0.56699 0.47894-0.56698 0.46349 0.31646-0.86518c0.30327-0.78794 0.32964-1.0506 0.32964-3.1054 0-1.8694 0.0396-2.2866 0.22415-2.5337 0.1846-0.24719 0.4615-0.27809 2.769-0.27809 2.3734 0 2.558 0.0155 2.8086 0.30899zm8.2015-0.0463c0.21097 0.2163 0.23734 0.50984 0.23734 2.5492 0 1.7613 0.0527 2.4102 0.19779 2.75 0.11867 0.26265 0.26371 0.63344 0.32964 0.84974l0.13186 0.40169-0.50106-0.46349-0.48787-0.46349-5.116-0.0309-0.58017 0.46349c-0.31646 0.26264-0.56699 0.44804-0.56699 0.41714s0.11867-0.35534 0.26372-0.72614c0.21097-0.57163 0.26371-1.0197 0.26371-2.7964 0-2.0548 0.11867-2.8582 0.43513-3.0899 0.0923-0.0618 1.279-0.12359 2.6503-0.12359 2.1361 0 2.5316 0.0309 2.7426 0.26264zm9.8365-0.0154c0.2769 0.2163 0.29008 0.32444 0.29008 2.5492 0 1.7767 0.0527 2.4256 0.19779 2.7655 0.11867 0.26265 0.26371 0.64889 0.32964 0.86518l0.13186 0.4017-0.40876-0.4017c-0.22416-0.21629-0.52743-0.43259-0.68566-0.47893-0.42194-0.0927-6.8038-0.1854-6.8434-0.0773-0.0528 0.12359-1.1603 1.1124-1.1603 1.0197 0-0.0309 0.14504-0.37079 0.32964-0.72613 0.31646-0.64888 0.32964-0.80338 0.32964-3.1363 0-2.0702 0.0396-2.5028 0.22416-2.75 0.19778-0.26264 0.48787-0.27809 3.5865-0.27809 2.8481 0 3.4283 0.0309 3.6788 0.24719z" style="stroke-width:.014273"/>
		<path id="path82" d="m128.88 167.72c-0.14504 0.0927-0.30327 0.24719-0.35602 0.33989-0.0527 0.0927-0.10548 3.6925-0.10548 8.0029 0 7.6476 0.0132 7.8639 0.26371 8.1574 0.26372 0.309 0.43513 0.309 10.008 0.309 9.4014 0 9.7574-0.0155 10.047-0.29355l0.31646-0.29354-0.0132-7.9102c-0.0132-7.1995-0.0264-7.9257-0.23734-8.1574-0.19778-0.24719-1.0153-0.26264-9.942-0.29354-7.1071-0.0309-9.7838 0-9.9816 0.13905zm5.1688 1.0969c0.21098 0.23175 0.23735 0.60254 0.26372 2.7037 0.0132 2.1784 0.0527 2.5028 0.30327 3.0281 0.35601 0.74158 0.26371 0.86518-0.26371 0.33989-0.40876-0.38624-0.47469-0.40169-2.1493-0.40169h-1.7405l-0.50106 0.47894c-0.51424 0.49439-0.54061 0.35534-0.0659-0.55619 0.19778-0.38624 0.23734-0.81883 0.23734-2.8582 0-1.3132 0.0527-2.4719 0.10548-2.5646 0.25053-0.43259 0.65929-0.52529 2.0965-0.49439 1.2131 0.0464 1.5295 0.0927 1.7141 0.32444zm6.4874 0.0154c0.26371 0.2781 0.2769 0.44804 0.2769 2.5801 0 1.9312 0.0396 2.3792 0.26371 2.9972 0.34283 0.94243 0.34283 0.95788-0.1846 0.47894-0.43512-0.38624-0.52742-0.40169-2.1493-0.40169-1.6087 0-1.7273 0.0154-2.1493 0.38624-0.23734 0.21629-0.4615 0.35534-0.48787 0.33989-0.0264-0.0309 0.0659-0.29354 0.1846-0.58709 0.1846-0.41714 0.25053-1.0506 0.30327-2.9972 0.0396-1.3596 0.11867-2.5646 0.1846-2.6728 0.21097-0.38624 0.67247-0.49439 2.0702-0.44804 1.1735 0.0309 1.4504 0.0772 1.6878 0.32444zm6.1709-0.20084c0.19778 0.0772 0.40875 0.24719 0.4615 0.33989 0.0527 0.10815 0.10548 1.2205 0.10548 2.4719 0 2.1321 0.0264 2.3329 0.32964 3.0436 0.1846 0.41714 0.32965 0.80338 0.32965 0.84973 0 0.0618-0.22416-0.10815-0.48787-0.37079l-0.50106-0.47894h-3.4283l-0.50105 0.47894-0.48787 0.47894 0.2769-0.83429c0.25052-0.72613 0.2769-1.0969 0.26371-3.0899-0.0264-2.2402-0.0264-2.2866 0.30327-2.6728 0.30327-0.35534 0.42194-0.38624 1.6482-0.38624 0.72521 0 1.4768 0.0773 1.6878 0.16995zm-12.619 7.9566c0.15823 0.1854 0.19779 0.71069 0.22416 2.6573 0.0132 2.0703 0.0659 2.5183 0.2769 3.0436 0.14504 0.33989 0.25053 0.64888 0.22415 0.67978-0.0264 0.0309-0.23734-0.1236-0.46149-0.35534-0.22416-0.2163-0.48787-0.40169-0.56699-0.41714-2.769-0.16995-3.0063-0.1545-3.5997 0.32444-0.31646 0.24719-0.58017 0.43259-0.58017 0.38624 0-0.0309 0.11867-0.37079 0.26371-0.77248 0.22416-0.61799 0.26372-1.066 0.26372-2.9818 0-1.2514 0.0527-2.3483 0.10548-2.441 0.26372-0.46349 0.63292-0.54074 2.1361-0.44804 1.0944 0.0618 1.5691 0.15449 1.7141 0.32444zm6.5005 0.0773c0.1846 0.27809 0.22416 0.66433 0.22416 2.5955 0 1.9158 0.0396 2.3638 0.26371 2.9354 0.14504 0.37079 0.25053 0.69523 0.22416 0.72613-0.0264 0.0309-0.25053-0.1236-0.51424-0.33989-0.43513-0.37079-0.59336-0.40169-2.0306-0.43259-1.424-0.0309-1.6086 0-1.9647 0.30899-0.71203 0.60254-0.75159 0.58709-0.50106-0.0463 0.17141-0.44804 0.25053-1.1433 0.30327-3.059 0.0396-1.3596 0.11867-2.5646 0.1846-2.6728 0.21097-0.40169 0.68566-0.49439 2.1229-0.41714 1.279 0.0618 1.4768 0.10815 1.6878 0.40169zm6.25-0.32444c0.0132 0 0.11868 0.10814 0.22416 0.24719 0.17141 0.20085 0.21097 0.64889 0.21097 2.5492 0 2.163 0.0264 2.3638 0.32964 3.0745 0.40876 0.94243 0.40876 1.066 0.0396 0.66433-0.56698-0.60253-0.89663-0.69523-2.4921-0.71068l-1.5691-0.0155-0.52743 0.50984c-0.29008 0.26264-0.52742 0.46349-0.52742 0.43259s0.13185-0.35534 0.2769-0.72614c0.25052-0.58708 0.2769-0.97332 0.30327-3.1363 0.0132-2.4256 0.0132-2.4565 0.34282-2.7655 0.30328-0.29354 0.4615-0.30899 1.846-0.23174 0.8307 0.0463 1.5295 0.0927 1.5427 0.10815z" style="stroke-width:.014273"/>
		<path id="path84" d="m151.16 167.72c-0.14505 0.0927-0.30327 0.24719-0.35602 0.33989-0.0527 0.0927-0.10548 8.9299-0.10548 19.652 0 18.679 0.0132 19.497 0.23734 19.729 0.22416 0.2472 1.3449 0.26265 13.357 0.26265 7.2126 0 13.172-0.0618 13.265-0.1236 0.0791-0.0618 0.21097-0.29354 0.2769-0.49439 0.0791-0.24719 0.11867-7.8021 0.10548-19.652-0.0132-18.277-0.0264-19.281-0.25052-19.544-0.22416-0.26264-0.94937-0.27809-13.252-0.30899-9.5596-0.0309-13.08 0-13.278 0.13905zm5.2215 1.1896c0.22415 0.30899 0.25052 0.61799 0.25052 2.6728 0 2.0239 0.0396 2.3792 0.2769 2.92 0.14505 0.35534 0.23735 0.66433 0.21097 0.69523-0.0264 0.0463-0.23734-0.10815-0.46149-0.32444-0.38239-0.37079-0.4615-0.38624-2.1361-0.38624h-1.7405l-0.51425 0.47894-0.50105 0.46349 0.31645-0.86518c0.30328-0.78794 0.32965-1.0506 0.32965-3.1672 0-3.0127-0.0528-2.9354 2.1361-2.8891 1.49 0.0309 1.5955 0.0463 1.8328 0.40169zm6.1445-0.27809c0.19779 0.0772 0.40876 0.24719 0.4615 0.33989 0.0527 0.10815 0.10549 1.1896 0.10549 2.4256 0 2.0548 0.0264 2.302 0.32964 3.059 0.31646 0.81883 0.42194 1.1896 0.22416 0.88063-0.0528-0.0927-0.2769-0.32444-0.51425-0.50984-0.36919-0.30899-0.56698-0.33989-2.1361-0.33989h-1.7141l-0.47469 0.47894c-0.48787 0.50984-0.50105 0.44804-0.10548-0.60254 0.13185-0.37079 0.19778-1.1896 0.21097-2.9045 0.0264-3.0281 0.0132-2.9972 1.9383-2.9972 0.71203 0 1.4636 0.0773 1.6746 0.16995zm6.8434 0.21629c0.31646 0.38624 0.32964 0.43259 0.30327 2.6882-0.0132 1.7458 0.0396 2.3947 0.1846 2.7346 0.10549 0.2472 0.23734 0.61799 0.29009 0.83428 0.0923 0.35535 0.0923 0.35535-0.13186 0.0927-0.60654-0.71068-0.80433-0.75703-2.5448-0.72613-1.5559 0.0309-1.701 0.0618-2.0965 0.41714-0.51424 0.44804-0.51424 0.44804-0.17141-0.47894 0.22415-0.61799 0.26371-1.066 0.26371-2.9818 0-1.2514 0.0527-2.3483 0.10549-2.441 0.22415-0.40169 0.69884-0.50984 2.0438-0.52529 1.3449 0 1.4372 0.0155 1.7537 0.38624zm6.2896-0.21629c0.15823 0.10814 0.32964 0.26264 0.38239 0.35534 0.0527 0.0927 0.10548 1.1896 0.10548 2.4256 0 2.0857 0.0264 2.3329 0.32964 3.1517l0.34283 0.88063-0.54061-0.49439-0.52743-0.49439-1.6878 0.0155c-1.3845 0.0154-1.7273 0.0772-2.0042 0.29354-0.6461 0.55619-0.68566 0.54074-0.43513-0.0772 0.17142-0.44804 0.25053-1.1433 0.30327-3.1054 0.0791-3.1981 0.0396-3.1208 2.0702-3.1208 0.77796 0 1.5032 0.0773 1.6614 0.16995zm-19.33 7.9102c0.19779 0.23175 0.25053 0.64889 0.30327 2.8582 0.0528 2.0857 0.11868 2.6728 0.30328 3.0899 0.31645 0.67979 0.23734 0.74158-0.26372 0.16995-0.42194-0.44804-0.44831-0.44804-2.0833-0.49439-0.90981-0.0309-1.6482 0.0154-1.6482 0.0772s-0.0659 0.12359-0.14504 0.12359c-0.0791 0-0.29008 0.13905-0.47468 0.309-0.19779 0.16994-0.3692 0.29354-0.39557 0.26264-0.0264-0.0309 0.0791-0.37079 0.22415-0.74158 0.22416-0.58709 0.26372-1.0197 0.26372-2.9972 0-1.2823 0.0527-2.3947 0.10548-2.4874 0.25053-0.43259 0.65929-0.52529 2.0965-0.49439 1.2131 0.0464 1.5295 0.0927 1.7141 0.32444zm6.4346 0.0309c0.31645 0.35534 0.32964 0.43259 0.32964 2.7037 0 2.0548 0.0264 2.4102 0.2769 2.9509 0.34282 0.78793 0.23734 0.94243-0.26372 0.38624-0.38238-0.43259-0.43512-0.43259-2.0965-0.47894l-1.701-0.0464-0.47469 0.54074c-0.5538 0.60253-0.60654 0.47894-0.22415-0.41714 0.22415-0.52529 0.26371-0.91153 0.26371-2.9354 0-2.2711 0.0132-2.3484 0.32964-2.7037 0.30327-0.37079 0.40876-0.38624 1.7801-0.38624s1.4768 0.0155 1.7801 0.38624zm6.5137-0.0155c0.26372 0.2781 0.2769 0.44804 0.2769 2.5955 0 1.7613 0.0527 2.4102 0.19779 2.75 0.11867 0.26265 0.26371 0.63344 0.32964 0.84974 0.11867 0.35534 0.0923 0.35534-0.4615-0.13905l-0.58017-0.52529-1.5559 0.0309c-1.3449 0.0155-1.6218 0.0618-1.9515 0.33989-0.69884 0.57164-0.72521 0.55619-0.44831-0.18539 0.23734-0.61799 0.27689-1.0042 0.26371-3.0127-0.0264-2.2866-0.0264-2.302 0.31646-2.7037 0.32964-0.38624 0.38238-0.40169 1.8328-0.33989 1.2526 0.0309 1.5427 0.0927 1.7801 0.33989zm6.5797-0.1236 0.29008 0.23175v6.0563c0 3.3371-0.0396 6.3035-0.0791 6.597l-0.0791 0.54074h-2.0174c-1.9119 0-2.0174-0.0155-2.0438-0.30899-0.0132-0.16995-0.0527-3.0899-0.0791-6.4734l-0.0527-6.1644 0.29008-0.37079c0.26371-0.33989 0.38239-0.35534 1.8856-0.35534 1.2263 0 1.6614 0.0618 1.8856 0.24719zm-19.515 7.8484c0.1846 0.2163 0.22416 0.63344 0.25053 2.6264 0.0264 1.9776 0.0791 2.5028 0.30327 3.1054 0.14504 0.40169 0.26371 0.75703 0.26371 0.78793 0 0.0463-0.23734-0.13905-0.52743-0.41714l-0.51424-0.49439-1.6218 0.0154c-0.89662 0-1.6482 0.0155-1.6878 0.0155-0.0396 0.0154-0.23735 0.20084-0.43513 0.41714-0.48787 0.52529-0.56698 0.40169-0.23734-0.41714 0.23734-0.57164 0.2769-0.95788 0.2769-2.9972 0-3.059-0.0132-3.0436 2.2811-2.9663 1.1208 0.0463 1.4636 0.10815 1.6482 0.32444zm6.5005 0.0772c0.22416 0.30899 0.25053 0.64889 0.25053 2.6728 0 2.0239 0.0395 2.3792 0.2769 2.92 0.31645 0.74158 0.23734 0.94243-0.1846 0.49439-0.54062-0.57164-0.79114-0.64889-2.3075-0.58709-1.3054 0.0618-1.5295 0.10815-1.9647 0.44804-0.26372 0.21629-0.51424 0.37079-0.54062 0.33989-0.0264-0.0309 0.0791-0.33989 0.22416-0.69523 0.25053-0.54074 0.2769-0.89608 0.2769-2.9509 0-2.302 0-2.3329 0.34283-2.7346 0.32964-0.38624 0.3692-0.38624 1.8592-0.32444 1.3977 0.0618 1.5427 0.0927 1.7669 0.41714zm6.461-0.0464c0.22416 0.23175 0.25053 0.49439 0.25053 2.5492 0 1.9312 0.0396 2.3792 0.26371 2.9972 0.32965 0.91153 0.32965 0.92698-0.0923 0.57164-0.56698-0.46349-0.90981-0.54074-2.4657-0.52529-1.1867 0.0155-1.5032 0.0618-1.7801 0.30899-0.6461 0.54074-0.67247 0.52529-0.39557-0.23174 0.23734-0.63344 0.27689-1.0351 0.26371-2.9045-0.0264-3.1363 0.0264-3.1981 2.3339-3.0899 1.068 0.0463 1.4241 0.10815 1.6218 0.32444zm0.0132 7.7403c0.1846 0.1854 0.22416 0.61799 0.26371 2.6419 0.0396 2.4102 0.0659 2.5956 0.61973 3.8161 0.0659 0.1545-0.11867 0.0154-0.77796-0.61799-0.30327-0.27809-0.52742-0.30899-1.9383-0.30899h-1.5955l-0.54061 0.50984c-0.30327 0.27809-0.54061 0.47894-0.54061 0.44804 0-0.0463 0.13185-0.40169 0.2769-0.81883 0.25052-0.66434 0.29008-1.0042 0.26371-2.92-0.0264-2.3329 0.0923-2.8582 0.61973-3.0127 0.15822-0.0463 0.93618-0.0618 1.7141-0.0309 1.0285 0.0464 1.4636 0.10814 1.635 0.29354zm6.4874-0.0927 0.34283 0.309v12.36l0.81751 1.8849-0.63291-0.60253-0.61973-0.60254-1.5427-0.0618c-1.635-0.0463-1.9647 0.0464-2.5976 0.74158-0.44831 0.49439-0.4615 0.4017-0.10549-0.54073l0.32965-0.86519v-6.0099c0-6.1335 0.0395-6.6897 0.51424-6.8288 0.11867-0.0464 0.87025-0.0772 1.6746-0.0927 1.2922-0.0154 1.5032 0.0155 1.8196 0.30899zm-19.488 0.0464c0.22415 0.20085 0.25053 0.44804 0.2769 2.6264 0.0132 2.0394 0.0659 2.5028 0.29008 3.1208 0.15823 0.40169 0.2769 0.74158 0.2769 0.78793 0 0.0309-0.23734-0.1545-0.51424-0.43259-0.51424-0.47894-0.52743-0.47894-2.1756-0.50984-1.279-0.0309-1.701 0.0155-1.8196 0.16994-0.0791 0.1236-0.31646 0.35535-0.52743 0.54074l-0.39557 0.32445 0.34283-0.78794c0.32964-0.75703 0.34283-0.92698 0.34283-3.1826 0-1.9621 0.0396-2.4256 0.21097-2.6264 0.2769-0.33989 3.2964-0.35534 3.692-0.0309zm6.5665 0.1236c0.17141 0.27809 0.21097 0.81883 0.21097 2.5955 0 2.0703 0.0264 2.302 0.32964 3.0745l0.32964 0.83429-0.29008-0.26265c-0.17142-0.13905-0.43513-0.35534-0.60654-0.49439-0.22416-0.20084-0.63292-0.24719-1.8592-0.26264-1.6218-0.0155-1.846 0.0618-2.4525 0.75703-0.22416 0.26265-0.22416 0.26265-0.13186-0.0927 0.0527-0.21629 0.1846-0.57163 0.2769-0.80338 0.13186-0.29354 0.1846-1.066 0.1846-2.7037 0-3.1054-0.0923-2.9818 2.1097-2.9818 1.6086 0 1.7141 0.0155 1.8987 0.33989zm0.0395 7.7248c0.29009 0.32444 0.30327 0.43259 0.30327 2.6728 0 2.2093 0.0132 2.3947 0.32965 3.0899l0.34282 0.72614-0.56698-0.47894-0.5538-0.47894h-9.9288l-0.54061 0.46349-0.54061 0.44804 0.23734-0.61799c0.13186-0.32444 0.2769-0.64888 0.31646-0.71068 0.0527-0.0463 0.0923-1.1433 0.0923-2.4256 0-1.8694 0.0396-2.4102 0.21097-2.6882l0.19778-0.33989h4.8919c4.8523 0 4.9051 0 5.2083 0.33989zm6.3951-0.0772c0.21097 0.2163 0.23734 0.50984 0.23734 2.5492 0 2.302 0.0527 2.6419 0.63291 3.8933 0.0396 0.0927-0.15822-0.0618-0.44831-0.33989-0.50106-0.46349-0.54061-0.47894-2.1624-0.52529-0.90981-0.0309-1.701 0-1.7801 0.0618-0.0659 0.0618-0.32964 0.29354-0.5538 0.52528-0.23734 0.2163-0.43512 0.3708-0.43512 0.32445 0-0.0309 0.13185-0.40169 0.29008-0.81883 0.25053-0.67979 0.2769-0.98878 0.25053-2.7809-0.0264-1.5295 0.0132-2.1475 0.17141-2.5801l0.19779-0.57163h1.6746c1.3845 0 1.7273 0.0464 1.9251 0.26264z" style="stroke-width:.014273"/>
		<path id="path86" d="m134.8 191.25c-0.23734 0.41714-0.17142 0.89608 0.10548 0.77248 0.10549-0.0463 0.29009 0 0.42195 0.1236 0.19778 0.16994 0.22415 0.33989 0.13185 1.3287-0.0527 0.61799-0.13185 1.0351-0.1846 0.94243-0.0791-0.13905-0.17141-0.13905-0.38238-0.0154-0.25053 0.16995-0.2769 0.30899-0.2769 1.7767 0 2.4256 0.13186 2.3174-3.1118 2.3792-2.1756 0.0463-2.6635 0.0927-2.8481 0.29354-0.21097 0.23175-0.23734 0.63344-0.23734 4.2487 0 3.7852 0.0132 4.0015 0.26371 4.295 0.26372 0.309 0.43513 0.309 9.8629 0.309 9.1377 0 9.6256-0.0154 9.8233-0.2781 0.19779-0.24719 0.22416-0.78793 0.22416-4.3104 0-3.6307-0.0264-4.0324-0.23734-4.2641-0.1846-0.20084-0.67247-0.24719-2.8217-0.29354-2.2811-0.0463-2.624-0.0772-2.8349-0.32445-0.19778-0.21629-0.25053-0.60253-0.2769-2.0857l-0.0527-1.8231-0.38239 0.0309-0.39557 0.0309 0.0396-1.1742c0.0396-1.1896 0.0396-1.1896 0.40876-1.1742 0.2769 0 0.35601-0.0618 0.35601-0.32444 0-0.1854-0.10549-0.44804-0.23734-0.58709-0.21097-0.23174-0.67247-0.26264-3.692-0.26264h-3.4546zm4.3249 0.52529c1.4372 0.0154 1.424-0.0155 1.424 2.8118 0 2.1784 0.0264 2.3638 0.34283 3.0899 0.1846 0.43259 0.31646 0.81883 0.29009 0.83428-0.0264 0.0309-0.25053-0.13905-0.48787-0.40169-0.25053-0.2472-0.47469-0.44804-0.52743-0.44804-0.0396-0.0154-0.76477-0.0309-1.5955-0.0618-1.5823-0.0309-1.7932 0.0309-2.4657 0.74158-0.38238 0.37079-0.38238 0.26265-0.0264-0.55619 0.25053-0.55618 0.29008-0.94242 0.30327-2.9663 0.0132-1.2823 0.0791-2.4565 0.13186-2.5955 0.11867-0.309 0.77795-0.57164 1.2658-0.49439 0.1846 0.0155 0.79114 0.0464 1.3449 0.0464zm-5.0897 7.9566c0.22416 0.20085 0.25053 0.44804 0.2769 2.6882 0.0132 2.163 0.0527 2.5338 0.29008 3.0899 0.38239 0.86519 0.35602 0.89608-0.23734 0.35535-0.50105-0.46349-0.54061-0.47894-2.1097-0.50984l-1.5823-0.0309-0.59336 0.49439-0.59335 0.50984 0.31646-0.81884c0.30327-0.75703 0.32964-1.0042 0.32964-3.1208 0-2.9972-0.0923-2.8736 2.0438-2.8736 1.1735 0 1.6614 0.0618 1.8592 0.21629zm6.2764 0.0463c0.21097 0.2163 0.23734 0.50984 0.23734 2.5492 0 2.1475 0.0264 2.3484 0.32965 3.059 0.1846 0.41714 0.32964 0.80338 0.32964 0.86518 0 0.0463-0.23734-0.1236-0.51424-0.38624-0.51424-0.47894-0.54062-0.49439-2.1229-0.49439-1.5955-0.0155-1.6086-0.0155-2.1888 0.46349l-0.58017 0.49439 0.13186-0.38625c0.0659-0.23174 0.19778-0.58708 0.30327-0.83428 0.11867-0.29354 0.15823-1.0506 0.14504-2.5801-0.0264-2.0702 0.0396-2.6264 0.39557-2.8891 0.0791-0.0618 0.85707-0.12359 1.7141-0.12359 1.279 0 1.6218 0.0464 1.8196 0.26264zm6.3291 0c0.21097 0.2163 0.23734 0.50984 0.23734 2.5183 0 2.1012 0.0264 2.3483 0.32964 3.1672l0.32965 0.88063-0.56699-0.49439c-0.5538-0.46349-0.61973-0.47894-2.0833-0.49439-1.5559-0.0309-1.8592 0.0618-2.4525 0.69523-0.3692 0.38624-0.38239 0.2781-0.0396-0.52529 0.23734-0.52528 0.2769-0.94243 0.30327-3.059 0.0132-1.8076 0.0791-2.5028 0.21097-2.6882 0.26372-0.38624 3.3755-0.38624 3.7316 0z" style="stroke-width:.014273"/>
	</g>
</svg>
