<?xml version="1.0" standalone="no"?>
<!DOCTYPE svg PUBLIC "-//W3C//DTD SVG 20010904//EN"
 "http://www.w3.org/TR/2001/REC-SVG-20010904/DTD/svg10.dtd">
<svg version="1.0" xmlns="http://www.w3.org/2000/svg"
 width="787.000000pt" height="515.000000pt" viewBox="0 0 787.000000 515.000000"
 preserveAspectRatio="xMidYMid meet">
<metadata>
Created by potrace 1.15, written by Peter Selinger 2001-2017
</metadata>
<g transform="translate(0.000000,515.000000) scale(0.100000,-0.100000)"
fill="#000000" stroke="none">
<path d="M0 2575 l0 -2575 3935 0 3935 0 0 2575 0 2575 -3935 0 -3935 0 0
-2575z m7808 -2 l-3 -2508 -3865 0 -3865 0 -3 2508 -2 2507 3870 0 3870 0 -2
-2507z"/>
<path d="M6650 4869 c-43 -26 -57 -44 -71 -89 -35 -113 94 -221 199 -166 52
27 75 62 79 118 3 41 -1 61 -16 86 -44 69 -125 91 -191 51z"/>
<path d="M6227 4754 c-32 -7 -68 -19 -82 -26 l-23 -13 53 -94 c30 -52 56 -98
58 -104 1 -5 29 -1 62 8 179 52 380 -59 440 -243 l17 -52 92 -2 c50 0 104 -2
119 -3 28 -2 28 -1 22 39 -12 69 -45 158 -82 218 -48 78 -53 81 -98 62 -53
-22 -134 -20 -181 4 -72 37 -124 113 -124 181 0 17 -6 31 -16 35 -28 11 -198
5 -257 -10z"/>
<path d="M1230 4641 c-47 -10 -155 -58 -207 -93 -23 -15 -45 -28 -50 -28 -20
0 -134 -130 -163 -185 -17 -33 -40 -67 -50 -77 -9 -9 -32 -55 -49 -103 -30
-83 -31 -92 -31 -246 0 -185 15 -276 65 -392 53 -125 94 -185 190 -281 129
-130 260 -202 387 -211 35 -2 54 -2 43 1 -73 19 -115 38 -135 59 -13 14 -29
25 -37 25 -15 0 -80 38 -73 44 3 2 -23 27 -57 56 -35 28 -63 56 -63 60 0 5
-13 23 -29 41 -16 17 -38 50 -49 73 -52 109 -62 144 -41 130 6 -3 3 8 -6 25
-9 18 -27 36 -41 41 -46 18 -68 119 -67 312 1 126 3 140 28 195 15 32 29 68
30 80 6 45 138 176 191 189 12 3 24 13 27 23 5 20 64 51 98 51 12 0 19 3 16 6
-4 4 19 20 51 36 55 28 61 29 182 26 112 -3 131 -6 187 -32 110 -50 216 -182
243 -303 14 -61 15 -250 2 -283 -5 -14 -17 -32 -26 -39 -9 -7 -16 -22 -16 -32
0 -25 -70 -87 -139 -123 -83 -43 -188 -48 -257 -13 -53 27 -112 85 -139 137
-27 52 -38 136 -25 190 32 133 192 214 316 161 l49 -21 -29 24 c-85 70 -207
60 -289 -26 -86 -88 -119 -210 -86 -309 18 -52 73 -122 133 -169 123 -94 310
-76 454 43 28 23 51 48 51 55 1 7 12 23 25 35 28 26 51 70 61 115 3 18 13 45
20 60 21 45 27 72 15 72 -6 0 -10 15 -10 33 0 85 -7 136 -23 151 -23 24 -21
46 4 46 12 0 23 -8 26 -20 9 -35 22 -21 18 20 -5 56 -83 170 -154 226 -31 24
-63 44 -72 44 -9 0 -24 9 -35 21 -14 15 -26 19 -48 15 -16 -3 -34 -2 -40 2
-36 28 -108 45 -199 47 -57 1 -103 7 -110 14 -12 12 -15 12 -67 2z"/>
<path d="M3725 4484 c-211 -41 -383 -209 -464 -450 -26 -78 -51 -268 -51 -387
0 -188 -39 -395 -85 -447 -7 -8 -27 -44 -45 -80 -73 -145 -132 -235 -281 -422
-128 -161 -184 -282 -289 -623 -51 -165 -52 -382 -3 -484 11 -21 27 -37 38
-39 12 -2 29 -18 40 -37 24 -46 125 -144 171 -168 27 -14 58 -19 111 -19 87 1
132 20 176 75 25 30 30 45 29 91 0 64 -22 106 -78 155 -44 40 -69 45 -166 38
-94 -8 -145 -29 -173 -74 -21 -35 -41 -38 -59 -11 -27 43 88 105 214 115 44 3
80 7 80 9 0 2 -9 27 -21 56 -35 88 -48 148 -55 249 -7 101 3 153 49 244 46 89
145 213 192 237 11 6 -16 -27 -61 -74 -102 -108 -155 -219 -162 -336 -9 -161
48 -366 111 -398 17 -9 52 -39 79 -66 58 -60 84 -60 71 -1 -4 21 -8 133 -7
248 2 293 15 355 128 575 46 91 100 214 120 274 34 99 66 179 159 394 18 40
40 82 49 92 16 17 16 22 4 52 -8 18 -17 52 -21 76 -6 40 -5 45 30 78 34 32 36
36 22 52 -33 36 -57 106 -57 167 0 49 7 75 39 144 54 116 77 136 145 135 38
-1 69 -10 106 -30 109 -59 137 -135 104 -278 -6 -26 -5 -28 12 -21 10 4 52 9
93 11 l75 3 3 63 c3 39 13 84 30 120 44 99 116 132 188 88 51 -31 67 -77 66
-184 -1 -99 -8 -132 -42 -201 l-23 -45 26 -28 c14 -15 31 -37 37 -49 16 -31
14 -83 -3 -89 -23 -9 -35 -56 -25 -105 4 -24 8 -77 9 -117 0 -80 10 -107 69
-187 61 -82 107 -175 136 -275 15 -52 64 -176 110 -275 136 -297 158 -382 158
-602 l0 -163 51 49 c92 86 164 102 216 46 49 -52 60 -32 60 109 l0 102 -41 55
c-53 71 -115 200 -179 374 -68 186 -156 362 -227 457 -137 183 -241 325 -251
344 -11 21 -3 245 18 524 6 74 10 207 10 295 0 232 -27 322 -126 421 -62 61
-183 125 -284 148 -80 19 -259 19 -355 0z m-44 -175 c12 -23 18 -143 8 -154
-7 -6 -90 23 -99 35 -3 4 -14 10 -26 14 -26 8 -32 66 -7 66 9 0 14 3 10 6 -15
15 39 45 95 53 4 1 12 -9 19 -20z"/>
<path d="M5710 4150 c0 -148 4 -154 66 -97 62 57 57 152 -12 206 -51 40 -54
33 -54 -109z"/>
<path d="M6749 4093 c-60 -148 -115 -214 -217 -261 -71 -32 -176 -40 -247 -18
-27 8 -50 14 -50 13 -28 -42 -115 -199 -115 -207 0 -39 239 -82 351 -64 32 5
37 10 47 49 30 113 161 182 271 144 29 -10 35 -9 57 12 59 55 137 226 146 319
l3 35 -118 3 -117 3 -11 -28z"/>
<path d="M3678 3754 c-37 -19 -58 -64 -61 -124 -2 -44 2 -53 32 -84 41 -42 59
-44 129 -11 l52 24 0 63 c0 117 -70 177 -152 132z"/>
<path d="M4212 3743 c-21 -8 -42 -60 -48 -120 l-5 -58 51 -33 c28 -18 55 -30
60 -27 16 10 58 88 65 123 8 39 -1 87 -22 107 -14 14 -74 19 -101 8z"/>
<path d="M6395 3236 c-260 -50 -463 -239 -542 -505 -14 -47 -17 -120 -20 -447
-4 -359 -3 -393 13 -408 15 -16 48 -17 403 -13 329 3 395 6 446 21 242 71 426
256 491 496 24 88 24 262 0 349 -66 241 -257 434 -492 496 -85 22 -216 27
-299 11z m470 -191 c108 -52 168 -149 173 -280 3 -70 0 -88 -22 -135 -62 -132
-149 -181 -350 -196 l-94 -7 -3 -116 c-4 -102 -7 -123 -31 -172 -60 -120 -158
-183 -288 -184 -126 0 -216 57 -275 171 -55 110 -45 245 26 335 71 89 169 129
321 129 l88 0 0 99 c0 70 6 117 20 163 56 183 265 276 435 193z"/>
<path d="M6664 2901 c-23 -10 -52 -34 -65 -52 -21 -30 -24 -47 -28 -146 l-3
-113 73 -1 c146 -2 179 7 219 63 37 51 46 96 29 153 -26 88 -139 137 -225 96z"/>
<path d="M6185 2427 c-48 -22 -93 -80 -100 -129 -22 -144 155 -244 266 -151
47 40 59 79 59 188 l0 95 -32 0 c-18 0 -62 2 -98 5 -44 4 -75 1 -95 -8z"/>
<path d="M1737 2416 c-118 -44 -201 -157 -214 -292 -9 -100 37 -174 110 -174
82 0 247 142 307 264 44 88 46 145 7 183 -24 24 -36 28 -100 30 -44 2 -87 -2
-110 -11z"/>
<path d="M1242 2350 c-42 -26 -62 -73 -62 -146 0 -73 17 -129 51 -165 36 -39
61 -37 98 8 57 70 90 219 59 276 -27 51 -88 62 -146 27z"/>
<path d="M918 2211 c-31 -27 -33 -34 -33 -93 0 -51 6 -72 28 -111 33 -56 68
-82 100 -73 31 7 48 47 54 121 13 152 -64 232 -149 156z"/>
<path d="M688 2011 c-28 -25 -33 -36 -33 -73 0 -88 100 -197 154 -169 48 26
30 184 -29 242 -36 36 -52 36 -92 0z"/>
<path d="M1255 1860 c-274 -55 -469 -217 -492 -409 -19 -159 105 -396 270
-518 230 -169 447 -170 617 -4 82 81 140 203 120 256 -13 35 -46 48 -120 47
-115 0 -190 -46 -190 -114 0 -91 -64 -135 -144 -99 -55 24 -106 83 -106 122 0
70 44 111 259 244 198 123 271 206 271 311 0 67 -26 106 -92 138 -99 49 -236
58 -393 26z"/>
<path d="M6342 1809 c-83 -16 -217 -73 -208 -88 6 -9 -36 -31 -58 -31 -15 0
-66 -39 -52 -40 5 0 18 7 28 17 10 9 21 13 25 10 8 -9 -37 -48 -48 -41 -5 3
-9 0 -9 -5 0 -6 -7 -11 -16 -11 -14 0 -15 2 -3 18 13 15 12 16 -3 3 -13 -10
-15 -18 -8 -31 7 -13 6 -21 -2 -26 -6 -4 -8 -3 -4 4 10 16 -13 25 -29 12 -18
-15 -20 -40 -4 -40 6 0 9 7 6 15 -4 8 -2 17 3 20 6 4 10 -3 10 -14 0 -26 -17
-36 -35 -21 -11 10 -15 7 -21 -14 -3 -14 -10 -24 -16 -23 -5 1 -17 -11 -27
-28 -9 -16 -28 -48 -42 -70 -34 -53 -54 -105 -78 -205 -35 -139 -27 -240 31
-400 78 -219 271 -396 496 -459 403 -112 818 129 922 534 28 109 27 274 -1
375 -72 260 -278 465 -535 530 -82 21 -239 26 -322 9z m-132 -759 c35 -42 45
-48 61 -40 15 9 24 5 46 -21 77 -88 107 -104 182 -94 83 10 238 4 261 -10 6
-4 19 0 28 9 12 10 22 12 32 6 12 -7 12 -15 2 -43 -7 -18 -12 -46 -12 -61 0
-36 -20 -73 -79 -144 -28 -33 -47 -63 -44 -66 16 -16 44 -2 87 44 26 28 56 50
67 50 13 0 24 10 31 31 l11 32 66 -7 c81 -7 141 -23 141 -38 0 -5 -46 -56
-102 -112 -170 -168 -311 -224 -537 -213 -194 9 -331 68 -461 198 -78 78 -190
259 -190 307 0 8 14 19 30 25 21 8 30 18 30 34 0 22 3 23 90 23 l90 0 43 -45
c44 -46 73 -56 83 -30 6 15 -21 60 -64 107 -41 45 -14 105 50 107 9 1 35 -21
58 -49z"/>
<path d="M3285 1053 c3 -38 14 -131 25 -208 21 -157 24 -225 11 -225 -11 0
-25 -48 -22 -74 2 -11 -2 -16 -8 -12 -6 4 -9 1 -5 -7 6 -17 -49 -83 -77 -92
-11 -4 -17 -10 -14 -14 2 -5 -8 -6 -23 -4 -21 4 -24 2 -12 -6 8 -6 11 -11 5
-11 -5 0 -48 -5 -95 -10 -57 -6 -86 -6 -90 1 -4 5 -27 12 -51 14 l-44 5 30
-19 c57 -34 102 -43 178 -36 129 12 218 67 233 143 5 25 14 32 56 46 42 13
101 16 352 16 428 0 551 -20 644 -103 24 -21 68 -50 99 -64 48 -22 65 -25 137
-21 59 3 93 11 126 28 26 13 39 25 31 28 -7 2 -17 -1 -21 -7 -4 -7 -11 -11
-16 -10 -24 4 -65 -2 -60 -9 6 -11 -111 -8 -139 2 -32 12 -70 31 -75 37 -3 3
-22 18 -42 33 -21 16 -35 33 -31 39 3 5 2 7 -4 4 -5 -3 -23 21 -38 53 -20 43
-31 56 -38 48 -6 -9 -6 -6 -1 7 4 11 7 29 7 40 -1 11 3 31 8 45 5 14 11 38 13
54 3 16 13 37 22 47 23 26 11 24 -55 -9 -55 -27 -59 -27 -246 -27 -207 0 -268
10 -392 66 -89 39 -227 137 -303 214 -35 36 -68 65 -73 65 -4 0 -5 -30 -2 -67z"/>
<path d="M7250 545 c0 -58 2 -105 4 -105 17 0 36 15 37 29 0 9 3 11 6 4 3 -10
9 -10 24 0 10 6 19 16 19 20 0 5 10 17 23 27 21 17 23 17 41 2 18 -16 18 -16
12 8 -5 16 -4 20 2 12 14 -20 40 -4 35 22 -3 13 1 27 8 31 8 6 11 4 7 -7 -10
-24 6 -41 28 -30 11 5 57 28 104 50 l85 41 -217 0 -218 1 0 -105z"/>
<path d="M741 623 c-53 -28 -73 -61 -73 -125 -1 -98 59 -157 145 -144 71 12
77 19 77 91 l0 65 -39 0 c-30 0 -40 -4 -44 -20 -5 -18 3 -25 26 -21 4 0 7 -15
7 -34 0 -34 -1 -35 -38 -35 -28 0 -45 7 -61 24 -29 31 -31 98 -3 135 17 23 26
26 75 25 37 -1 58 3 61 12 14 36 -80 55 -133 27z"/>
<path d="M1249 625 c-77 -42 -90 -183 -23 -246 20 -19 36 -24 75 -24 41 0 53
5 81 32 28 28 33 40 36 96 5 79 -14 122 -63 143 -43 17 -73 17 -106 -1z m105
-57 c28 -40 17 -137 -18 -160 -20 -14 -63 -8 -79 10 -33 36 -34 124 -1 157 24
23 80 19 98 -7z"/>
<path d="M940 495 c0 -127 1 -135 20 -135 17 0 19 8 22 83 l3 82 68 -87 c38
-49 73 -88 78 -88 5 0 9 62 9 140 l0 140 -25 0 c-23 0 -24 -3 -27 -77 l-3 -78
-60 77 c-33 42 -66 77 -72 78 -10 0 -13 -33 -13 -135z"/>
<path d="M1495 618 c-2 -7 -15 -68 -28 -135 l-24 -123 22 0 c18 0 25 8 34 44
6 25 11 54 11 65 0 39 15 21 40 -47 14 -37 30 -67 35 -67 6 0 21 31 34 68 13
37 26 65 29 63 2 -3 10 -31 16 -63 10 -48 16 -59 34 -61 28 -4 28 1 -3 144
-14 64 -25 117 -25 120 0 2 -6 4 -14 4 -8 0 -24 -32 -41 -86 -14 -48 -30 -83
-34 -78 -4 5 -18 44 -31 87 -22 72 -44 98 -55 65z"/>
<path d="M1752 498 l3 -133 88 -3 c81 -3 87 -1 87 17 0 18 -8 20 -62 23 l-63
3 -3 38 -3 37 45 0 c39 0 46 3 46 20 0 12 -7 20 -17 21 -70 4 -68 3 -68 34 0
30 0 30 63 33 54 3 62 6 62 22 0 18 -7 20 -90 20 l-91 0 3 -132z"/>
<path d="M7290 396 c0 -3 18 -45 40 -92 22 -47 37 -90 34 -95 -3 -5 0 -9 5 -9
6 0 11 -8 11 -19 0 -21 15 -35 46 -45 17 -5 33 3 66 31 24 21 80 60 123 87 44
27 82 51 84 52 1 1 0 8 -4 14 -4 7 -50 -12 -131 -54 l-124 -65 -47 66 c-70 95
-103 137 -103 129z"/>
</g>
</svg>
