<?xml version="1.0" standalone="no"?>
<!DOCTYPE svg PUBLIC "-//W3C//DTD SVG 20010904//EN"
 "http://www.w3.org/TR/2001/REC-SVG-20010904/DTD/svg10.dtd">
<svg version="1.0" xmlns="http://www.w3.org/2000/svg"
 width="276.000000pt" height="238.000000pt" viewBox="0 0 276.000000 238.000000"
 preserveAspectRatio="xMidYMid meet">
<metadata>
Created by potrace 1.15, written by Peter Selinger 2001-2017
</metadata>
<g transform="translate(0.000000,238.000000) scale(0.100000,-0.100000)"
fill="#000000" stroke="none">
<path d="M259 1917 c-18 -12 -44 -38 -56 -56 l-23 -34 0 -753 0 -754 25 -6
c13 -3 67 1 118 10 120 20 171 20 191 0 23 -22 28 -205 6 -212 -13 -5 -13 -62
1 -62 6 0 8 -9 4 -20 -5 -15 -3 -18 9 -14 9 3 16 1 16 -5 0 -7 29 -11 83 -11
76 1 80 2 52 14 l-30 13 37 16 c25 11 43 28 58 57 20 39 23 41 53 35 18 -4
123 -27 233 -51 111 -24 209 -44 219 -44 12 0 15 -6 10 -22 -6 -22 -6 -22 14
2 22 28 42 21 20 -7 -11 -15 -11 -16 1 -5 8 6 24 12 36 12 32 0 54 10 54 25 0
7 26 38 58 69 37 35 53 58 47 64 -5 5 -40 19 -77 32 -37 12 -70 25 -73 29 -2
5 44 16 103 26 186 30 205 36 213 68 8 29 -10 72 -129 314 -42 86 -48 103 -34
106 12 3 10 5 -5 6 -12 0 -32 15 -45 31 -12 16 -30 30 -40 30 -26 0 -22 19 5
25 51 11 335 34 356 28 12 -3 33 0 45 7 41 21 256 -5 256 -32 0 -7 19 -9 50
-6 53 5 66 -10 19 -23 -23 -7 -23 -7 -1 -8 20 -1 22 -6 23 -58 1 -95 4 -106
36 -156 26 -40 30 -53 22 -74 -12 -33 -13 -33 20 -33 20 0 30 -6 34 -20 6 -22
-17 -40 -52 -40 -10 0 -22 -6 -24 -12 -3 -7 -6 -3 -6 10 -1 17 -7 22 -26 22
-14 0 -36 10 -49 23 -21 21 -25 22 -45 9 -28 -19 -27 -30 10 -80 17 -24 30
-44 28 -45 -2 -2 -17 -11 -32 -21 -23 -14 -27 -23 -22 -39 11 -39 26 -91 36
-132 7 -28 28 -58 72 -102 l61 -63 214 0 c169 0 220 3 249 15 51 21 73 44 73
73 l0 24 -32 -31 c-88 -86 -214 -56 -282 66 -31 54 -32 84 -7 139 28 62 80 97
152 102 38 3 59 1 59 -6 0 -16 -20 -25 -21 -10 0 7 -7 -1 -15 -19 -7 -17 -21
-37 -31 -45 -10 -7 -18 -24 -18 -38 0 -19 -5 -25 -22 -25 -12 0 -33 -11 -48
-25 l-25 -23 0 22 c0 31 25 76 56 100 15 12 22 21 16 21 -16 0 -71 -67 -78
-96 -4 -14 -4 -43 -1 -64 18 -137 197 -177 274 -61 38 56 32 71 -27 71 -27 0
-50 5 -50 10 0 6 23 10 50 10 l50 0 0 78 0 77 -42 19 c-47 20 -172 41 -194 32
-8 -3 -14 -1 -14 4 0 6 -4 10 -10 10 -5 0 -10 -7 -10 -17 0 -34 -38 17 -57 77
-14 48 -23 62 -45 69 -23 8 -28 7 -28 -5 0 -9 -5 -12 -12 -8 -7 4 -4 -3 7 -17
11 -13 13 -19 6 -12 -7 6 -20 9 -29 5 -12 -4 -14 -1 -9 12 4 10 0 24 -9 34
-13 13 -15 29 -10 93 7 70 5 79 -12 88 -16 9 -102 166 -102 188 0 5 -10 13
-22 18 -43 19 -18 89 26 72 9 -4 16 -17 16 -32 0 -14 6 -25 13 -25 8 0 35 -16
60 -36 l47 -36 20 23 c11 13 22 33 26 43 8 23 30 46 66 69 32 20 42 22 32 5
-5 -7 -7 -25 -6 -40 3 -32 -11 -43 -36 -29 -15 8 -23 5 -39 -17 -42 -57 -46
-72 -26 -91 10 -10 24 -16 31 -15 7 1 8 0 2 -3 -33 -16 7 -53 58 -53 26 0 30
4 36 39 3 21 3 79 0 129 -4 49 -3 91 2 94 5 3 24 3 41 1 46 -7 82 -80 50 -100
-21 -13 -38 -72 -27 -93 6 -10 10 -30 10 -43 0 -19 13 -32 56 -58 31 -19 61
-39 69 -46 7 -7 16 -9 20 -5 4 4 5 2 3 -3 -1 -6 7 -23 20 -39 l22 -29 0 381
c0 368 -1 380 -19 375 -10 -3 -31 -17 -45 -32 -21 -22 -31 -52 -53 -162 -14
-74 -29 -137 -33 -142 -8 -10 -77 19 -82 34 -3 8 -23 5 -66 -11 -34 -13 -65
-20 -68 -17 -5 5 2 91 31 372 24 228 45 455 45 478 l0 27 -720 0 c-448 0 -720
-4 -720 -9 0 -11 -102 -8 -137 4 -15 5 -23 3 -23 -4 0 -14 -116 -15 -125 -1
-3 6 -21 10 -39 10 -24 0 -38 -7 -54 -30 -30 -40 -76 -62 -132 -62 -53 0 -118
29 -148 67 -25 32 -67 33 -113 2z m1114 -1722 c10 -4 25 -21 33 -37 14 -27 14
-32 -1 -54 -8 -13 -22 -24 -31 -24 -8 0 -22 -7 -31 -16 -24 -23 -58 -14 -58
16 -1 14 -4 40 -9 58 -14 59 29 84 97 57z"/>
<path d="M360 309 c-25 -5 -52 -12 -60 -15 -17 -8 -17 -8 -50 0 -24 6 -24 6 3
-9 15 -9 32 -13 37 -10 15 9 12 -79 -2 -93 -9 -9 -9 -12 0 -12 17 0 15 -85 -2
-99 -8 -7 -26 -15 -40 -19 -16 -4 12 -8 72 -11 53 -2 113 -4 132 -5 l35 -1 3
52 c3 43 0 54 -17 62 -17 10 -20 7 -26 -19 -8 -36 -23 -45 -88 -54 l-48 -6 7
108 c3 59 8 108 9 110 1 1 22 0 45 -4 49 -8 80 -34 80 -67 0 -12 9 -28 20 -35
19 -12 20 -10 20 63 l0 75 -42 -1 c-24 -1 -63 -5 -88 -10z"/>
<path d="M66 294 c-9 -8 -16 -29 -16 -45 0 -27 3 -29 35 -29 34 0 35 -1 35
-39 0 -22 -5 -42 -12 -44 -7 -3 -3 -6 8 -6 15 -1 24 -10 28 -27 6 -23 11 -25
34 -19 15 4 37 7 49 8 14 1 24 11 28 25 8 32 -1 42 -41 42 -24 0 -34 5 -34 15
0 10 10 15 34 15 41 0 46 6 39 41 -4 20 -10 25 -23 22 -10 -3 -21 0 -24 6 -12
19 -57 13 -63 -9 -4 -14 -14 -20 -34 -20 -32 0 -33 2 -20 48 10 35 2 41 -23
16z"/>
</g>
</svg>
