<?xml version="1.0" encoding="UTF-8"?>
<svg id="svg22" width="500" height="300" version="1.0" viewBox="0 0 375 225" xmlns="http://www.w3.org/2000/svg">
	<g id="case_delantero">
		<path id="path4" d="m201.15 3.9781c-2.4252 0.2529-5.1513 0.82192-7.0046 1.4226-8.4715 2.7819-20.915 6.7968-24.773 8.0297-2.3829 0.75872-7.5646 2.4342-11.535 3.7302-6.732 2.2129-14.485 4.742-20.991 6.86-1.5506 0.50582-6.3918 2.0548-10.779 3.4774-4.3494 1.4226-10.06 3.2878-12.67 4.1412-2.6099 0.82192-6.4297 2.0865-8.5099 2.7503l-3.7824 1.2013-0.24475 2.371c-0.77244 7.0814-0.89654 14.573-0.73028 37.904 0.12396 14.163 0.2107 45.744 0.23465 70.149 0.0696 38.283 0.12406 44.511 0.62376 45.269 0.34661 0.60065 0.54787 1.9284 0.56724 4.1412 0.0158 1.8019 0.18159 3.4142 0.33497 3.6039 0.15338 0.18968 3.614 1.2329 7.6819 2.3077 4.0678 1.0748 7.8315 2.0865 8.3639 2.2445 0.5324 0.15807 5.4746 1.4858 11.025 2.9716 5.5505 1.4542 15.207 4.0464 21.48 5.7219 19.732 5.3109 31.441 8.4091 34.976 9.3258 1.9006 0.4742 5.7785 1.5174 8.7061 2.3394l5.2846 1.4226 15.381-2.0548c8.4484-1.1065 20.23-2.6871 26.178-3.4774 11.403-1.5174 13.6-1.8336 29.55-3.9201 5.4931-0.7271 10.304-1.4226 10.606-1.5806 0.33997-0.15807 1.0551-0.79034 1.5429-1.391 0.48782-0.60065 1.5052-1.3594 2.2613-1.6439 0.7561-0.28452 2.0764-1.1065 2.9044-1.8336 2.9737-2.5922 2.8513 0.75872 1.9834-55.071-0.3891-27.124-0.71732-51.623-0.74248-54.502 0.0128-2.8768 0.0737-13.246 0.10146-23.077 0.0277-9.8315 0.12334-24.911 0.16188-33.51 0.0385-8.5986-0.11535-17.514-0.32464-19.758l-0.37733-4.1096-1.6099-1.9284-1.6481-1.96-3.1143-0.4742c-1.6713-0.28452-9.0397-1.4542-16.37-2.5922-7.2925-1.1381-16.788-2.6239-21.079-3.3193-4.292-0.69547-10.103-1.6123-12.914-2.0548-2.8103-0.44258-8.6221-1.391-12.914-2.0865-9.116-1.4858-12.417-1.6755-17.835-1.0432zm4.7432 69.581c0.25117 37.365 0.72433 82.764 1.0351 100.94l0.59255 33.035 1.2281 1.6439c1.9958 2.6871 5.0893 5.1214 7.7916 6.196 2.3975 0.91679 2.4355 0.91679 8.0098 0.79034 4.0573-0.12645 8.6426-0.56903 16.94-1.6439 6.2509-0.82192 16.404-2.1181 22.542-2.9084 9.7749-1.2329 14.662-1.8652 19.701-2.529l1.3261-0.15806-1.7367 0.91678c-0.94378 0.50583-2.0742 1.3594-2.5249 1.8652-0.86323 1.0432 0.87902 0.75872-25.451 4.2363-3.8643 0.50582-10.153 1.3594-14.017 1.8652-3.864 0.53741-9.7365 1.2961-13.07 1.7387-3.3335 0.44259-10.835 1.4542-16.669 2.2129-5.8343 0.79034-10.949 1.4226-11.404 1.4226-0.68273 0-0.83803-0.41096-1.7096-4.6473l-0.91303-4.6473-0.33159-63.888c-0.44766-98.824-0.55592-141.53-0.26164-142.57 0.25748-0.91678 0.37099-0.9484 3.2885-1.2961 1.6293-0.18968 3.4861-0.37934 4.0927-0.41096l1.0996-0.031614zm4.6125-66.705c0.69267 1.1381 0.74611 2.9084 1.2431 38.031l0.51197 36.829 1.5343 1.96c1.4194 1.8336 1.7245 2.0232 4.1968 2.8136 3.5368 1.0749 9.0023 1.5174 28.657 2.3394 8.6508 0.34774 19.426 0.79034 23.904 0.97999 11.042 0.4742 14.075 0.34774 15.318-0.63227l0.97949-0.75872 0.0277 3.1613c0.0307 3.509-0.37738 4.5521-2.1138 5.5008-1.2456 0.69547-6.3272 0.79034-16.231 0.28452-3.3391-0.15807-11.194-0.53741-17.454-0.79034s-14.722-0.63227-18.782-0.79034c-10.89-0.4742-13.434-0.79034-15.91-1.9916-2.5523-1.2645-4.467-3.351-5.592-6.196l-0.85268-2.0865 0.0528-37.302c0.024-36.26-0.0352-38.696-1.0867-41.824-0.42773-1.2013 0.82722-0.82192 1.5972 0.4742zm8.8778 0.2529c7.1783 1.1065 37.753 5.9433 44.058 6.9547 3.874 0.60065 9.3435 1.4858 12.154 1.8968 8.3936 1.2961 8.3936 1.2961 9.696 2.7819 1.073 1.2645 1.1132 1.5174 1.4551 5.9117 0.38895 5.4376 0.43734 15.301 0.0622 15.775-0.26218 0.37938 0.61131 0.50582-43.665-5.3741-6.5691-0.85354-14.695-1.9284-18.037-2.3394-3.3416-0.44258-7.1009-0.91678-8.3541-1.1065-1.253-0.15806-2.3923-0.31613-2.544-0.31613s-0.38784-5.3109-0.52041-11.792c-0.13231-6.449-0.37175-12.139-0.52733-12.582l-0.31091-0.85354 1.8613 0.31613c0.98753 0.15806 3.1143 0.4742 4.6716 0.72709zm-24.883 34.521c0.0123 18.747 0.22858 65.122 0.40915 103.09 0.30452 52.128 0.26234 68.979-0.0419 68.886-0.26633-0.0948-4.3715-1.1065-9.1985-2.2762-4.7892-1.1697-12.961-3.1613-18.169-4.4574-5.2451-1.2645-9.6156-2.2445-9.8046-2.1497-0.15089 0.0948-0.30343 0-0.30481-0.15806-2e-3 -0.18968-0.23062-0.34775-0.53404-0.34775-0.26551 0-3.3059-0.69547-6.7269-1.549-3.4211-0.85354-14.254-3.4774-24.098-5.8486-9.8067-2.4026-18.967-4.6473-20.336-5.0263l-2.4714-0.69547-0.43622-67.177c-0.24758-36.956-0.38969-70.528-0.27367-74.608l0.16283-7.3973 2.8366-0.91678c1.5509-0.4742 4.8795-1.5174 7.3765-2.2445 2.4967-0.75872 7.1116-2.1813 10.213-3.1613 3.1392-1.0116 7.7162-2.4342 10.213-3.1929 2.4967-0.75872 7.1116-2.1813 10.213-3.1613 3.1395-0.97999 7.7162-2.4026 10.213-3.1613 2.4967-0.75872 5.2205-1.5806 6.0521-1.8652 1.475-0.4742 12.331-3.8253 23.074-7.1446 2.9128-0.88516 6.4686-1.9916 7.8679-2.4342l2.572-0.82192-0.13067-1.9284c-0.12983-1.8336-0.16859-1.9284-1.0781-1.8336-0.49252 0.06323-2.876 0.75872-5.2963 1.549-2.3826 0.79034-5.4465 1.7703-6.8083 2.1497-1.3618 0.41096-5.1066 1.5806-8.3214 2.6239-3.2151 1.0116-11.574 3.6355-18.534 5.8486-27.953 8.7885-48.869 15.395-49.209 15.554-0.18853 0.12645-0.34191-0.06322-0.34468-0.37934-4e-3 -0.44258 1.3566-1.0116 6.1602-2.529 3.3662-1.0748 9.0397-2.8768 12.557-4.0464 10.136-3.2878 19.402-6.2911 27.799-9.0095 4.2741-1.3594 11.876-3.8253 16.83-5.4692 4.9925-1.6123 11.119-3.6355 13.616-4.4258 2.4964-0.79034 6.5055-2.0865 8.888-2.8768 2.3826-0.79034 4.5011-1.4226 4.6905-1.4542 0.18965 0 0.34931 13.91 0.37384 34.047zm14.163 6.0697-0.088 37.618 0.89254 2.3077c1.6696 4.4258 5.6822 7.8398 9.7826 8.3143 3.341 0.37934 10.475 0.82192 21.023 1.2645 6.1469 0.2529 15.974 0.69547 21.817 0.9484 5.843 0.2529 13.203 0.4742 16.314 0.50582 5.3102 0.03162 5.8031 0 7.1624-0.69547l1.4728-0.7271-0.19326 3.9201c-0.13291 2.1497-0.21515 5.7534-0.19523 8.0297l0.0362 4.1412-0.91995-1.1065c-0.72869-0.91678-1.4141-1.2329-4.1137-1.9916-2.8892-0.75871-3.7245-0.85354-8.6933-0.85354-2.9964 0-13.239-0.22129-22.723-0.4742-9.4844-0.2529-19.803-0.4742-22.951-0.53741l-5.6903-0.0948-2.645 1.1381c-2.5318 1.0748-2.6824 1.2013-3.99 3.4774l-1.3826 2.371 0.27217 44.098c0.33525 51.307 0.11684 48.018 3.7779 50.296 2.8222 1.7703 5.8604 2.2445 10.824 1.6123 8.6006-1.0748 38.002-4.6153 45.732-5.5324 7.7675-0.91678 8.6006-1.0748 10.186-1.96 0.94378-0.50579 1.9604-1.3594 2.2976-1.8336 1.4604-2.1497 1.6304-0.0632 0.2104 2.371-1.6066 2.7819-0.62263 2.529-20.021 4.9631-5.6074 0.69548-12.351 1.549-14.965 1.8968-17.313 2.3077-24.93 3.1613-28.646 3.1613-3.6412 0-4.1348-0.0632-6.1904-0.91678-2.2843-0.97999-4.6912-2.9716-6.3805-5.2793l-0.95982-1.3277-0.79478-60.477c-1.1074-83.206-1.3713-139.35-0.71097-137.58 0.42662 1.0749 0.48749 8.0297 0.45465 38.948zm-16.544-35.501c6e-3 0.66385-0.29542 0.91678-1.5814 1.3277-4.5005 1.4858-87.492 27.124-87.604 27.092-0.0764-0.06322-4e-3 -0.41096 0.1066-0.82192 0.18383-0.66385 1.2422-1.0748 7.4831-3.0348 4.0097-1.2329 16.794-5.2793 28.444-8.9464 11.65-3.6671 26.212-8.2512 32.34-10.179 6.1279-1.9281 13.049-4.1096 15.319-4.8368 5.0681-1.6439 5.4849-1.6755 5.4946-0.60065zm29.967 22.097c3.3416 0.44258 7.7086 1.0116 9.6827 1.2645 1.9745 0.2529 5.7339 0.75872 8.3541 1.1065 2.6201 0.34774 9.6069 1.2645 15.568 2.0232 5.9619 0.79034 15.227 1.9916 20.619 2.6871 5.3922 0.72709 9.9486 1.2961 10.138 1.2961 0.22758 0 0.4017 2.5607 0.43767 6.6705l0.0584 6.6705-1.405-0.18968c-0.79735-0.09484-7.5933-0.85354-15.11-1.6439-21.981-2.3077-39.407-4.1728-45.936-4.8684-3.341-0.37934-7.0614-0.75872-8.2378-0.85354l-2.2015-0.18968-0.13252-15.143 1.0637 0.18968c0.56975 0.09484 3.7596 0.53741 7.1014 0.97999zm-4.6069 15.332c1.3668 0.15806 9.2257 1.0116 17.464 1.8968 8.2378 0.85354 21.677 2.2761 29.802 3.1613 8.1625 0.88516 16.476 1.7387 18.526 1.96l3.6824 0.37934 0.049 5.5955-1.2154-0.18968c-0.68355-0.09484-8.5796-0.88516-17.576-1.7387-8.9587-0.85354-18.487-1.7703-21.106-2.0232-12.603-1.2645-28.471-2.8136-30.521-3.0032l-2.2774-0.18968-0.1409-3.0981c-0.0963-2.3394-0.0268-3.0664 0.35245-3.0664 0.2655 0 1.5944 0.15806 2.9612 0.31613zm11.907 8.3775c8.0098 0.75872 19.664 1.9284 25.927 2.529 6.2637 0.60065 12.755 1.2329 14.425 1.4226 1.6703 0.15806 5.9598 0.56903 9.4901 0.91678 3.5686 0.37934 6.7571 0.66385 7.1362 0.66385 0.60685 0 0.65004 0.60065 0.51184 10.812-0.0994 5.9749-0.32204 10.875-0.4732 10.938-0.18909 0.06323-0.67689 0.66385-1.1639 1.3594-0.63646 0.9484-1.0889 1.2645-2.1492 1.4542-0.75773 0.09484-5.5371 0.03162-10.66-0.18968-5.122-0.18968-14.418-0.56903-20.679-0.82192-25.118-1.0116-29.634-1.3594-32.867-2.371-1.7876-0.56903-2.2838-0.91678-3.3206-2.371l-1.2284-1.6755-0.10541-12.045c-0.0667-7.6187 0.0463-12.045 0.27387-12.045 0.18964 0 6.9088 0.63227 14.881 1.4226zm21.247 52.827c3.0351 0.0948 10.66 0.28452 16.92 0.44258 14.302 0.31613 15.024 0.47421 17.362 3.2878l1.5338 1.8968 1.0881 80.992-1.6138 1.96c-2.2511 2.8136-3.3082 3.3826-7.1731 3.7934-3.183 0.34774-33.266 3.9833-46.224 5.5955-9.2062 1.1697-12.091 0.88516-14.5-1.3277-1.3765-1.2645-1.4715-3.4458-1.8607-47.926l-0.38181-43.626 1.1201-2.0232c1.008-1.8336 1.3469-2.1181 3.1235-2.8136l1.9656-0.75872 11.57 0.15807c6.3728 0.0948 14.036 0.2529 17.071 0.34774zm-129.15 85.956c9.0084 2.1813 18.321 4.4574 20.716 5.0582 2.3945 0.56902 6.4999 1.5806 9.1222 2.1813 2.6226 0.63227 5.8533 1.4226 7.2218 1.7703 8.5903 2.1181 11.327 2.8136 31.776 7.7767l5.0174 1.2329 0.82942 3.7618c0.43548 2.0865 0.7541 3.8254 0.67884 3.8885-0.0753 0.0632-2.5839-0.5374-5.5874-1.3277-12.394-3.3193-16.195-4.3311-25.434-6.7968-5.3225-1.4226-14.408-3.8254-20.149-5.3741-5.7411-1.5487-13.458-3.6039-17.108-4.5522-20.605-5.5008-24.712-6.6705-24.716-7.0499-5e-3 -0.60065 0.56421-0.53741 4.3662 0.50582 1.9009 0.50582 7.9453 2.0865 13.495 3.509s12.735 3.2878 15.966 4.1096c3.2314 0.85354 10.074 2.6239 15.206 3.9517 5.1319 1.3278 11.975 3.0981 15.206 3.9517 26.421 6.86 26.231 6.8284 26.643 6.2911 0.18743-0.2529 0.29319-1.1697 0.24779-2.0232-0.12955-1.802 0.59414-1.4542-7.3509-3.4774-8.6672-2.2129-59.757-15.174-71.275-18.051-6.5762-1.6755-12.127-3.1929-12.356-3.351-0.26744-0.22129-0.116-0.25291 0.3779-0.15807 0.41833 0.12645 8.1343 1.9916 17.104 4.1728zm-9.488-0.66386c23.986 6.0381 40.94 10.338 45.806 11.602 1.9767 0.50582 10.796 2.7503 19.577 4.9631l15.965 4.0464 0.12264 1.0116c0.0808 0.56903 9e-3 1.0116-0.14286 1.0116-0.15171 0-2.9646-0.69548-6.196-1.549-3.2694-0.85354-8.4018-2.2129-11.443-3.0032-3.041-0.75871-9.1616-2.371-13.647-3.509-4.4858-1.1697-8.3254-2.1497-8.5529-2.1813-0.22812-0.0632-3.1552-0.82192-6.5009-1.7071-5.0561-1.3278-40.296-10.464-42.463-11.001-0.41804-0.0948-0.68687-0.4742-0.69102-0.9484-5e-3 -0.60065 0.14507-0.75872 0.67719-0.63227 0.34219 0.0948 3.7253 0.94841 7.4888 1.8968z" style="stroke-width:.034627"/>
		<path id="path14" d="m191.24 15.738c-0.37486 0.50582-0.51969 9.9582-0.49991 33.889 1e-3 13.12-0.0647 35.944-0.12488 50.738-0.36536 83.931-0.3226 110.49 0.17047 110.49 0.83444 0 0.76189 4.7104 0.96991-66.861 0.0358-17.577 0.13089-37.05 0.18989-43.311 0.059-6.2595 0.0918-24.184 0.0686-39.833-0.0232-15.648 0.0151-28.61 0.089-28.831 0.37098-0.9484 0.0843-16.376-0.25794-16.47-0.22812-0.06323-0.49279 0.03161-0.60521 0.18968z" style="stroke-width:.034627"/>
		<path id="path16" d="m126.44 70.24c-0.60521 0.18968-1.7386 0.69547-2.4554 1.1381-0.7165 0.4742-1.6238 0.82192-2.0407 0.85354-1.0241 0-2.637 2.0548-3.601 4.5837-0.44546 1.1065-1.0033 2.371-1.3026 2.8452-1.4953 2.4974-1.5233 7.9665-0.0715 13.499 0.82501 3.2561 3.3294 7.7135 4.7012 8.4407 1.1428 0.56903 4.4097 1.1381 6.7233 1.1381 1.6689 0 2.0468-0.15806 3.8554-1.5174 1.1307-0.82192 2.0723-1.5806 2.147-1.7071 0.075-0.09484 0.59967-0.82192 1.1999-1.5806 2.4382-3.0981 4.5432-13.941 3.6283-18.81-0.79622-4.2995-3.0982-7.3025-6.5993-8.6302-1.7885-0.66385-4.3688-0.79034-6.1848-0.2529z" style="stroke-width:.034627"/>
		<path id="path18" d="m113.46 138.05c-0.11241 0.15806-0.23205 8.156-0.29938 17.798-0.10003 14.573-0.0352 17.64 0.42237 17.925 0.41971 0.28452 2.6996 0.75872 9.6135 1.9916 0.83582 0.15807 5.6985 1.0748 10.828 2.0548 5.1288 0.9484 9.5731 1.7387 9.9527 1.7387 0.83444 0 0.90008-1.1697 0.82568-18.336-0.0312-7.9034 0.051-15.838 0.18725-17.608 0.13152-2.3077 0.0463-3.3826-0.25994-3.6987-0.3062-0.31613-1.6733-0.50582-4.3294-0.63227-2.1248-0.0948-8.3859-0.41096-13.926-0.66385-5.5397-0.2529-10.701-0.53741-11.46-0.63227-0.75943-0.0948-1.4798-0.0632-1.5545 0.0632z" style="fill:#999;stroke-width:.034627"/>
		<path id="path267" d="m128.94 69.341c-5.2881 0.69198-10.178 3.3852-11.13 6.6801-2.5664 4.5659-3.6592 9.3926-2.3686 14.18 0.99061 4.0056 1.662 8.4957 5.9327 11.78 3.477 1.5152 9.6945 1.9712 11.966-0.74534 7.6763-6.6486 6.2447-15.229 6.3446-22.903-0.0808-3.59-3.9468-8.7606-10.745-8.9902z" style="fill:#999;stroke-width:.33013"/>
		<path id="path269" d="m190.3 14.243c-29.331 8.9467-58.564 18.014-87.779 27.089-1.6233 2.4227-0.22201 5.4506-0.69006 8.1033 0.15121 44.778-0.38136 89.56 0.59824 134.33 0.57114 2.6108-0.77183 5.6788 1.0422 8.003 30.045 7.5318 60.275 14.77 90.428 22.139 3.6897-0.63873 0.90464-4.3084 1.7963-6.177 0.44031-57.39 0.30444-114.78-0.97775-172.17-0.60306-1.412 1.0296-3.6627-1.4656-4.4905-2.9916 1.7314-0.56273-2.2568-1.3404-3.3268-0.21417-4.4065 0.85786-8.9111-0.0235-13.271-0.53311-0.08748-0.9488-0.5328-1.5873-0.23726zm-61.284 55.899c6.4876 0.22839 9.8544 4.9319 9.4322 8.3299-0.27295 7.4471 1.737 15.66-5.6816 22.2-1.9712 2.4485-8.1927 2.2831-10.987 0.50047-5.4342-5.0828-5.5694-11.569-5.4813-17.346 0.69164-4.7985 1.952-10.883 9.9671-13.302 0.86626-0.22866 1.802-0.37239 2.7508-0.3822zm0.28928 69.191c4.7024 0.34389 9.8866 0.29899 14.26 1.0703 0.98887 10.989 0.32886 22.082 0.29563 33.089-0.19211 1.7915 0.18369 3.6407-0.65091 5.3874-9.6453-1.675-19.186-3.5606-28.76-5.3767 0.21921-11.621-0.4493-23.282 0.3819-34.873l14.473 0.70338z" style="stroke-width:.33013"/>
		<path id="path271" d="m224.85 109.87c-6.3078-0.4476-9.9368 3.6417-9.6883 6.9384-0.62222 22.515 0.177 45.038 0.39713 67.559 0.50294 7.4099-0.45543 14.904 1.2764 22.258 1.0818 3.6977 8.7978 3.757 13.536 2.915 17.364-2.1012 34.878-3.9558 52.051-6.5103 3.6109-1.9619 6.8555-4.771 5.864-7.8398-0.37184-26.277-0.38581-52.581-0.98313-78.84-1.6045-2.495-4.5296-5.2696-9.6007-5.1359-17.551-0.9723-35.239-1.1358-52.851-1.3408z" style="stroke-width:.33013"/>
		<path id="path277" d="m214.9 48.941c-3.2069 0.90708-1.6706 3.725-1.383 5.4049 0.0451 2.8307 6.1033 1.7948 9.1514 2.521 21.204 1.9812 42.354 4.3608 63.61 6.0392 3.1456-0.68808 1.6821-3.2953 1.7725-4.849-0.28923-2.4722-6.027-1.5794-8.7364-2.3252-21.454-2.3066-42.886-4.7926-64.415-6.7912z" style="stroke-width:.33013"/>
		<path id="path279" d="m113.9 138.58c-0.51713 11.488 0.3671 23.119 0.38825 34.661 8.2978 2.6546 18.556 4.1523 28.035 5.3737 4.0851-1.8157 1.0364-6.3699 2.2838-9.1136-0.3684-9.62 1.5685-19.492-1.2992-28.968-5.4705-2.1433-13.434-1.0411-19.747-1.838-3.1684 0.0662-6.6439-0.70926-9.6607-0.118z" style="fill:#333;stroke-width:.33013"/>
		<path id="path281" d="m128.89 69.939c-11.657 1.0895-12.416 9.934-12.616 15.517 0.42001 5.6412-1.0521 13.889 8.7733 16.982 8.5463 0.68533 11.869-5.9496 13.056-9.8809 1.3539-7.1535 4.3064-16.067-4.9992-21.753-1.1732-0.5807-2.6872-0.91961-4.2149-0.8651z" style="fill:#333;stroke-width:.33013"/>
	</g>
	<g id="usb_delantero">
		<path id="path8" d="m220.84 17.635c-0.41251 0.53741-0.57698 3.4142-0.26995 3.8253 0.22978 0.2529 1.864 0.63227 3.8765 0.88516 4.3668 0.56903 4.7447 0.41096 4.3062-2.0232-0.12153-0.88516-0.35685-1.7703-0.51023-1.96-0.49889-0.66385-6.9902-1.2961-7.4027-0.72709z" style="stroke-width:.034627"/>
		<path id="path10" d="m231.1 19.469c-0.75333 0.60065-0.76968 3.0664-0.0446 3.5723 0.64865 0.44258 6.3441 1.1697 7.1762 0.88516 0.49168-0.15806 0.63953-0.60065 0.62846-1.8652-8e-3 -0.91678-0.16776-1.8336-0.32141-2.0548-0.15338-0.18968-1.3693-0.44258-2.7358-0.56903-1.3663-0.09484-2.8469-0.2529-3.3028-0.34774-0.4557-0.06323-1.0991 0.09484-1.4 0.37934z" style="stroke-width:.034627"/>
	</g>
	<g id="btn_encendido">
		<ellipse id="path22" transform="matrix(.95338 -.30177 .32996 .94399 0 0)" cx="234.25" cy="101.22" rx="8.8343" ry="10.874" style="fill:#0ff;stroke-width:.41689"/>
		<ellipse id="path18-6" transform="matrix(.97457 .22409 -.052933 .9986 0 0)" cx="261.51" cy="-33.82" rx="7.118" ry="8.1079" style="stroke-width:.41995"/>
		<path id="path18-4" d="m256.5 23.832c-1.1107-1.1663-0.24107-1.792-1.882-4.2095-0.92855 0.57417-2.0601 1.9292-2.172 4.0375-0.15295 2.883 1.5658 5.6438 3.8937 6.1791 2.3278 0.53505 4.3386-1.3682 4.4914-4.2511 0.12236-2.3109-0.60245-4.0166-1.5976-4.7983-1.7681 1.5276-2.2718 3.1484-2.7334 3.0422z" style="fill:#0ff;stroke-width:.4168"/>
		<path id="path18-47" d="m256.89 20.369a4.4538 3.388 77.905 0 0-3.664 3.5521 4.4538 3.388 77.905 0 0 3.2038 5.1307 4.4538 3.388 77.905 0 0 3.664-3.5515 4.4538 3.388 77.905 0 0-3.2038-5.1313z" style="stroke-width:.4168"/>
		<rect id="rect20" transform="matrix(.97457 .22409 -.052933 .9986 0 0)" x="261.04" y="-40.148" width=".84905" height="5.128" ry="0" style="fill:#0ff;stroke-width:.41995"/>
	</g>
</svg>
