<?xml version="1.0" standalone="no"?>
<!DOCTYPE svg PUBLIC "-//W3C//DTD SVG 20010904//EN"
 "http://www.w3.org/TR/2001/REC-SVG-20010904/DTD/svg10.dtd">
<svg version="1.0" xmlns="http://www.w3.org/2000/svg"
 width="316.000000pt" height="223.000000pt" viewBox="0 0 316.000000 223.000000"
 preserveAspectRatio="xMidYMid meet">
<metadata>
Created by potrace 1.15, written by Peter Selinger 2001-2017
</metadata>
<g transform="translate(0.000000,223.000000) scale(0.100000,-0.100000)"
fill="#000000" stroke="none">
<path d="M1930 2060 l0 -40 90 0 90 0 0 -415 c0 -323 3 -417 13 -420 28 -11
63 -12 75 -3 9 8 12 58 12 189 l0 179 94 0 95 0 -5 28 c-12 76 -6 72 -99 72
l-85 0 0 173 c0 94 -4 178 -9 185 -5 9 -22 13 -47 10 l-39 -3 -3 43 -3 42 -90
0 -89 0 0 -40z"/>
<path d="M1855 2011 c3 -6 -1 -11 -9 -11 -14 0 -16 -48 -18 -412 l-3 -413 -37
-2 -38 -3 0 50 0 50 -145 0 -145 0 0 -135 0 -135 50 0 50 0 0 -50 0 -50 45 0
45 0 0 -89 0 -90 48 -3 47 -3 3 -85 c2 -46 8 -90 14 -97 6 -7 23 -13 39 -13
l29 0 0 -85 0 -85 50 0 50 0 0 -140 0 -140 465 0 465 0 0 140 0 140 45 0 45 0
1 123 c1 67 1 128 0 135 -1 8 12 12 37 12 33 0 41 4 46 23 8 29 8 591 0 611
-4 10 -18 16 -39 16 -27 0 -34 -4 -37 -25 -3 -14 -6 -157 -7 -317 -1 -161 -4
-296 -7 -300 -3 -4 -23 -8 -45 -8 l-39 0 0 -135 0 -135 -34 0 c-63 0 -66 -4
-66 -96 l0 -84 -365 -2 -365 -3 0 86 c0 96 -2 99 -66 99 l-34 0 0 88 0 89 -31
-5 c-52 -8 -69 22 -69 118 l0 80 -40 0 -40 0 0 90 c0 49 -3 89 -7 89 -5 -1
-27 -1 -50 0 l-42 1 -3 48 -3 47 -42 3 -43 3 0 84 0 84 88 3 c48 2 88 3 90 2
1 -1 6 -21 10 -45 4 -24 13 -45 20 -45 6 -1 23 -2 37 -3 22 -1 25 -5 25 -41
l0 -40 50 0 50 0 -2 508 -3 507 -39 3 c-25 2 -36 0 -31 -7z"/>
<path d="M130 1171 c0 -430 -1 -784 -2 -788 -2 -5 36 -9 85 -11 l87 -3 0 51 0
50 50 0 50 0 0 40 0 40 40 0 40 0 0 50 0 50 50 0 50 0 0 -90 0 -90 50 0 50 0
0 -99 0 -98 37 0 c35 1 38 -2 48 -35 5 -20 13 -40 17 -44 7 -6 157 -9 163 -2
2 2 5 21 7 43 l3 40 -91 0 c-52 0 -92 4 -93 10 -2 6 -4 42 -6 80 -4 94 -10
105 -51 105 l-34 0 0 90 0 90 -50 0 -50 0 0 50 0 50 -37 0 c-54 0 -65 -11 -61
-56 l3 -39 -42 -3 c-43 -3 -43 -3 -43 -43 0 -24 -5 -39 -12 -40 -83 -7 -88
-10 -88 -60 l0 -39 -44 0 c-27 0 -46 5 -49 13 -3 7 -5 290 -5 628 0 524 2 617
14 637 8 12 20 22 27 21 48 -6 57 1 57 41 l0 40 -44 0 c-40 0 -45 2 -50 28 -3
15 -5 36 -3 47 2 16 -5 21 -35 23 l-38 3 0 -780z"/>
<path d="M306 1754 c-3 -9 -6 -31 -6 -50 l0 -34 49 0 50 0 3 -47 c3 -48 3 -48
38 -48 32 0 35 -3 38 -34 4 -44 23 -61 66 -61 l36 0 0 51 0 50 -45 -4 c-49 -4
-55 2 -55 59 0 33 -1 34 -40 34 -39 0 -40 1 -40 36 0 19 -6 42 -14 50 -20 19
-72 18 -80 -2z"/>
<path d="M2397 1543 c-11 -11 -8 -332 3 -354 8 -13 21 -19 45 -19 l35 0 0 140
0 140 94 0 c100 0 106 3 106 53 0 18 -2 19 -10 7 -8 -12 -10 -9 -10 13 l0 27
-128 0 c-71 0 -132 -3 -135 -7z"/>
<path d="M593 1474 c-7 -3 -13 -21 -13 -40 l0 -34 50 0 50 0 0 -49 0 -50 48
-3 47 -3 0 -37 c1 -50 16 -65 52 -52 24 8 28 15 28 49 0 40 0 40 -45 46 -25 3
-42 7 -39 7 4 1 1 21 -6 45 -11 38 -15 42 -48 45 -33 3 -36 6 -39 40 -3 35 -5
37 -38 39 -19 1 -41 0 -47 -3z"/>
<path d="M2680 1271 l0 -191 34 0 c22 0 36 6 40 16 3 9 6 67 6 129 0 62 3 120
6 129 4 11 19 16 50 16 l44 0 0 -50 c0 -49 1 -50 29 -50 46 0 61 10 61 40 0
49 -9 60 -51 60 -39 0 -39 0 -39 40 l0 40 -74 0 c-41 0 -81 3 -90 6 -14 5 -16
-15 -16 -185z"/>
<path d="M854 1186 c-3 -8 -4 -25 -2 -38 3 -20 10 -24 53 -28 l50 -5 0 -45 c0
-45 0 -45 38 -48 32 -3 37 0 37 18 0 12 5 18 10 15 6 -3 10 3 10 14 0 12 -4
21 -10 21 -5 0 -10 6 -10 14 0 10 -13 16 -37 18 -36 3 -38 5 -41 41 -3 37 -3
37 -48 37 -29 0 -46 -5 -50 -14z"/>
<path d="M1148 923 c-12 -3 -18 -17 -20 -46 l-3 -42 -175 -5 -175 -5 3 -64 c3
-45 0 -66 -10 -72 -10 -7 -10 -9 0 -9 6 0 12 -6 12 -14 0 -10 13 -16 36 -18
l36 -3 2 -85 1 -85 48 -3 47 -3 0 -94 c0 -80 2 -94 18 -99 55 -17 82 15 82 98
0 37 -4 66 -10 66 -5 0 -10 7 -10 15 0 11 -11 15 -40 15 l-40 0 0 90 0 90 -45
0 c-29 0 -45 5 -46 13 -3 33 4 73 15 79 6 4 89 8 184 8 l173 0 -3 88 -3 87
-30 1 c-16 0 -38 -1 -47 -3z"/>
</g>
</svg>
