<?xml version="1.0" standalone="no"?>
<!DOCTYPE svg PUBLIC "-//W3C//DTD SVG 20010904//EN"
 "http://www.w3.org/TR/2001/REC-SVG-20010904/DTD/svg10.dtd">
<svg version="1.0" xmlns="http://www.w3.org/2000/svg"
 width="275.000000pt" height="210.000000pt" viewBox="0 0 275.000000 210.000000"
 preserveAspectRatio="xMidYMid meet">
<metadata>
Created by potrace 1.15, written by Peter Selinger 2001-2017
</metadata>
<g transform="translate(0.000000,210.000000) scale(0.100000,-0.100000)"
fill="#000000" stroke="none">
<path d="M1348 1996 c-10 -7 -18 -19 -18 -27 0 -9 -3 -10 -8 -3 -10 15 -57 30
-48 15 9 -13 -4 -14 -24 -2 -8 6 -18 7 -23 4 -5 -3 2 -10 15 -17 12 -6 24 -22
26 -34 2 -14 8 -20 15 -16 7 4 7 2 -1 -7 -11 -12 -14 -12 -22 1 -5 8 -7 17 -4
21 8 14 -41 18 -55 5 -11 -12 -10 -16 10 -26 12 -7 42 -14 66 -15 23 -1 46 -4
49 -8 17 -17 67 -4 237 62 28 11 28 11 21 -24 -7 -40 -2 -42 50 -20 38 16 43
29 22 58 -13 17 -14 16 -19 -3 -3 -11 -13 -20 -23 -20 -16 0 -16 1 -1 18 10
10 17 23 17 28 0 9 -166 11 -176 1 -3 -3 -19 -1 -35 3 -17 5 -31 5 -34 -1 -10
-15 -28 -10 -21 6 7 18 6 18 -16 1z"/>
<path d="M2443 2002 c-34 -3 -41 -14 -45 -74 -1 -20 -6 -34 -11 -31 -4 3 -6
11 -3 18 6 17 -16 36 -62 52 -53 18 -50 9 6 -17 52 -25 58 -40 30 -81 -14 -22
-16 -22 -32 -6 -10 9 -22 17 -27 17 -6 0 -8 4 -4 10 3 6 15 5 30 -2 30 -14 36
-9 28 20 -5 22 -28 30 -35 13 -1 -5 -15 -12 -29 -16 -20 -5 -33 0 -58 24 -18
17 -41 31 -51 31 -11 0 -22 5 -26 11 -4 7 -23 9 -49 5 -33 -4 -44 -2 -49 9 -4
11 -11 13 -30 5 -17 -6 -27 -6 -32 2 -5 7 -12 5 -21 -7 -7 -11 -13 -16 -13
-13 0 4 -27 -2 -60 -14 -57 -19 -72 -38 -29 -38 22 0 27 -38 7 -58 -16 -16
-28 -15 -28 1 0 7 -14 18 -31 24 -38 15 -49 -5 -24 -43 9 -15 13 -25 9 -22 -5
2 -26 13 -46 23 -45 23 -85 13 -107 -26 -12 -22 -12 -30 0 -57 11 -25 31 -41
87 -68 71 -35 79 -43 50 -48 -29 -5 -64 -19 -88 -36 -14 -10 -36 -21 -50 -25
-29 -8 -61 -22 -144 -59 -32 -15 -113 -49 -180 -77 -66 -28 -134 -57 -150 -65
-24 -12 -32 -11 -55 1 -59 33 -69 48 -77 123 -3 40 -10 69 -15 66 -4 -2 -6
-33 -2 -68 5 -61 5 -63 -18 -67 -13 -3 -32 -3 -41 -1 -20 4 -24 37 -7 48 12 7
7 129 -5 141 -3 3 -36 -6 -74 -20 -77 -31 -90 -32 -116 -12 -18 14 -17 15 20
31 21 8 57 24 79 34 22 10 50 21 63 25 24 7 27 26 16 109 -7 50 -23 62 -25 19
-2 -24 -2 -25 -6 -5 -2 12 -6 22 -8 22 -3 0 -223 -84 -262 -100 -15 -6 -23
-18 -23 -35 0 -23 -3 -25 -27 -19 -16 4 -30 7 -33 6 -24 0 -29 -4 -24 -19 4
-10 -3 -4 -14 14 -25 37 -52 54 -96 57 -62 4 -139 -43 -172 -106 -18 -34 -18
-66 1 -101 9 -19 10 -25 2 -21 -7 4 -4 -2 7 -14 10 -12 22 -19 27 -17 4 3 10
1 14 -5 4 -6 11 -8 16 -5 5 4 9 -1 9 -9 0 -8 -10 -16 -23 -19 -21 -3 -20 -4 8
-16 25 -11 37 -11 75 2 33 12 40 12 27 3 -20 -15 -19 -35 2 -52 11 -8 7 -13
-18 -24 -51 -21 -101 -86 -101 -132 0 -122 94 -143 198 -45 27 26 32 38 32 76
0 29 -8 59 -21 81 l-21 35 29 -28 c25 -25 28 -34 28 -92 0 -48 -5 -71 -20 -91
-24 -32 -150 -86 -183 -79 -24 6 -29 -4 -10 -23 18 -18 54 -15 98 8 40 20 168
70 179 70 3 -1 -5 -10 -18 -20 -13 -11 -19 -20 -15 -20 5 0 3 -4 -5 -9 -8 -5
-16 -18 -17 -28 -6 -42 -24 -98 -32 -101 -5 -1 -18 -9 -28 -18 -21 -16 50 9
225 79 l113 46 72 -48 c53 -36 97 -56 169 -76 95 -27 100 -27 133 -11 34 16
36 16 90 -15 39 -21 66 -29 89 -27 29 2 46 -6 107 -54 40 -32 147 -113 238
-181 91 -68 262 -199 380 -291 318 -247 338 -260 405 -258 60 1 95 9 95 22 0
5 -87 74 -192 153 -106 79 -288 216 -403 303 -116 87 -286 215 -378 283 -116
85 -166 129 -162 139 3 8 -15 34 -45 64 -41 41 -50 56 -50 85 0 23 -11 50 -32
81 -40 56 -47 62 -122 103 l-59 32 34 14 c122 53 483 197 524 210 28 8 59 21
71 28 11 7 41 19 65 26 24 7 46 13 49 14 3 1 20 6 38 10 33 8 38 14 23 30 -10
11 -25 85 -17 85 3 0 11 -20 17 -45 6 -25 15 -48 19 -50 5 -3 29 4 55 15 26
11 57 18 69 15 11 -3 15 -2 8 1 -7 3 29 26 80 51 111 54 163 74 174 65 4 -4 4
-2 1 4 -4 8 22 21 76 38 90 28 158 63 165 85 3 10 -2 12 -22 7 -26 -6 -38 8
-13 17 37 13 -65 27 -140 19z m-2030 -303 c42 -19 65 -100 32 -113 -8 -3 -15
-14 -15 -25 0 -27 -37 -51 -77 -51 -23 0 -33 5 -33 16 0 8 -5 12 -11 8 -16 -9
-29 15 -29 56 0 42 36 108 52 92 13 -13 48 -3 48 14 0 17 2 17 33 3z"/>
<path d="M163 1993 c-19 -7 -16 -37 7 -65 10 -14 17 -28 14 -31 -11 -11 81 6
108 20 23 11 58 58 58 78 0 6 -170 5 -187 -2z"/>
<path d="M695 1973 c-91 -28 -104 -37 -100 -61 2 -9 7 -34 10 -54 6 -36 7 -37
33 -27 113 45 272 97 272 90 0 -5 -8 -11 -17 -14 -41 -12 -278 -99 -282 -103
-13 -12 12 -14 46 -4 110 36 213 75 213 82 0 5 11 8 25 8 33 0 39 17 27 72
l-10 43 -2 -35 -2 -35 -10 33 c-11 31 -12 32 -67 31 -31 0 -92 -12 -136 -26z"/>
<path d="M1134 1979 c-17 -19 -19 -19 -31 -2 -11 14 -17 15 -32 6 -10 -6 -27
-10 -37 -9 -11 2 -22 -2 -26 -8 -5 -8 -8 -7 -8 2 0 6 -5 12 -11 12 -13 0 -1
-160 13 -175 7 -7 8 16 4 68 -4 42 -3 77 1 77 5 0 25 -11 44 -24 20 -14 48
-28 63 -32 14 -3 29 -10 32 -15 11 -18 22 -8 26 21 3 17 1 33 -4 36 -5 3 -2
17 6 30 20 30 20 34 -2 34 -11 0 -27 -9 -38 -21z"/>
<path d="M1182 1704 c-26 -18 -30 -65 -7 -84 14 -11 13 -14 -2 -25 -9 -7 -23
-11 -30 -8 -8 3 -19 -10 -29 -33 -16 -38 -16 -41 7 -84 18 -34 31 -46 51 -48
27 -3 27 -3 12 27 -17 35 -10 124 12 142 8 7 28 9 47 5 30 -5 31 -5 13 9 -11
8 -23 15 -27 15 -4 0 -2 11 4 25 7 14 17 25 23 25 18 0 25 28 8 34 -8 3 -14 0
-14 -6 0 -6 -8 -4 -18 5 -23 21 -22 21 -50 1z"/>
</g>
</svg>
