<?xml version="1.0" standalone="no"?>
<!DOCTYPE svg PUBLIC "-//W3C//DTD SVG 20010904//EN"
 "http://www.w3.org/TR/2001/REC-SVG-20010904/DTD/svg10.dtd">
<svg version="1.0" xmlns="http://www.w3.org/2000/svg"
 width="799.000000pt" height="605.000000pt" viewBox="0 0 799.000000 605.000000"
 preserveAspectRatio="xMidYMid meet">
<metadata>
Created by potrace 1.15, written by Peter Selinger 2001-2017
</metadata>
<g transform="translate(0.000000,605.000000) scale(0.100000,-0.100000)"
fill="#000000" stroke="none">
<path d="M3 5278 c4 -420 8 -1004 8 -1298 1 -377 4 -517 11 -475 9 56 28 99
28 63 0 -9 7 -18 15 -22 9 -3 15 0 15 9 0 8 6 15 14 15 7 0 19 7 26 15 7 8 23
15 37 15 13 0 26 7 29 15 4 8 17 15 30 15 14 0 24 6 24 15 0 8 15 17 37 21 22
4 50 19 66 35 15 16 35 29 46 29 10 0 26 9 36 20 10 11 26 20 37 20 10 0 18 7
18 15 0 10 14 17 40 21 22 4 40 11 40 16 0 6 -9 8 -19 5 -14 -3 -18 -1 -14 9
3 8 10 11 15 8 6 -4 14 0 19 7 7 11 11 10 23 -6 13 -18 15 -18 21 -3 4 9 18
19 31 22 16 4 24 13 22 24 -3 18 28 25 47 11 6 -4 17 -4 25 1 7 4 24 4 37 -1
13 -5 22 -5 19 0 -5 8 10 10 69 12 11 1 14 3 7 6 -6 3 -9 10 -6 15 4 6 2 8 -4
4 -7 -4 -9 7 -7 34 2 22 -1 40 -7 40 -5 0 -6 5 -2 11 4 8 9 7 15 -2 8 -12 11
-11 19 1 6 9 10 10 10 3 0 -7 -8 -17 -18 -22 -9 -6 -14 -11 -9 -11 19 0 44 25
40 40 -3 10 1 21 8 25 8 5 10 4 5 -3 -4 -7 -2 -12 4 -12 6 0 8 -5 5 -11 -5 -7
5 -9 31 -4 22 3 41 10 42 15 2 6 17 10 34 10 18 0 38 8 48 21 22 24 109 60
164 67 22 2 48 13 59 23 11 10 43 21 74 25 30 3 60 13 68 20 7 8 25 14 39 14
13 0 32 7 41 16 8 9 35 18 58 21 23 3 54 12 69 19 15 8 38 14 51 14 14 0 30 6
36 14 6 7 33 16 60 20 27 4 51 11 53 16 2 6 29 14 60 19 31 6 64 14 75 20 10
5 37 14 61 19 38 9 42 8 42 -9 0 -19 20 -26 34 -12 12 13 121 31 124 22 6 -14
32 -10 38 5 4 10 21 15 47 15 192 3 312 10 315 20 5 16 43 13 64 -6 17 -15 18
-15 18 0 0 19 11 22 26 7 12 -12 55 -14 101 -5 31 7 63 47 63 80 0 7 6 15 13
18 10 4 12 -3 9 -25 -3 -16 1 -40 8 -53 16 -30 91 -44 264 -49 104 -3 133 -7
149 -21 16 -14 24 -15 39 -6 10 6 25 11 33 11 18 0 20 -17 3 -22 -9 -3 -9 -6
0 -12 7 -4 12 -2 12 3 0 16 27 13 55 -5 24 -16 25 -15 25 5 0 18 6 21 43 21
33 0 39 -3 27 -11 -12 -9 -12 -10 4 -5 12 4 41 -4 73 -20 50 -24 53 -27 36
-40 -17 -12 -16 -13 10 -14 22 0 27 4 27 25 0 14 5 25 10 25 6 0 10 -4 10 -9
0 -5 9 -13 20 -16 11 -3 20 -15 20 -25 0 -23 24 -32 56 -20 36 14 64 12 64 -4
0 -8 6 -17 13 -19 9 -4 8 -8 -3 -16 -13 -10 -13 -11 0 -11 13 0 13 -1 0 -10
-12 -8 -8 -10 15 -11 51 -3 69 -6 107 -23 21 -9 72 -19 113 -23 73 -6 98 -18
53 -25 -19 -3 -14 -8 26 -27 30 -14 57 -20 72 -17 19 5 24 2 24 -14 0 -11 4
-20 9 -20 5 0 11 -9 14 -20 4 -16 14 -20 49 -20 49 0 63 -7 72 -35 7 -21 76
-62 76 -44 0 6 5 7 10 4 6 -3 10 -19 10 -36 0 -24 4 -29 25 -29 14 0 37 -11
51 -25 14 -14 29 -25 34 -25 5 0 7 -7 4 -15 -7 -18 7 -20 25 -2 11 10 12 9 6
-2 -6 -10 -4 -12 4 -7 7 5 10 15 7 23 -3 8 -2 12 3 9 5 -3 34 21 65 54 32 33
59 60 62 60 2 0 -4 -16 -13 -35 -9 -19 -20 -35 -25 -35 -4 0 -8 -5 -8 -10 0
-6 -9 -20 -19 -32 -11 -11 -17 -26 -15 -33 3 -7 -2 -25 -11 -39 -16 -24 -16
-26 -1 -26 9 0 16 6 16 13 0 6 6 1 13 -13 11 -21 11 -26 -2 -31 -14 -6 -14 -8
2 -14 9 -4 24 -2 32 5 12 10 15 9 15 -5 0 -17 1 -17 18 -2 24 22 78 22 86 1 3
-8 10 -13 15 -9 5 3 13 0 17 -6 4 -7 3 -9 -4 -5 -6 3 -13 3 -15 -1 -3 -5 8 -9
24 -9 16 -1 27 1 25 5 -3 4 5 8 16 8 20 2 20 1 2 -12 -18 -13 -18 -14 -2 -20
10 -4 23 -5 30 -2 7 2 25 -3 40 -11 22 -13 29 -13 42 -3 9 7 13 17 10 22 -3 5
5 5 18 0 15 -5 23 -17 24 -36 0 -16 6 -31 13 -33 7 -2 3 -15 -11 -35 -12 -17
-16 -27 -9 -23 10 7 11 4 2 -12 -13 -25 -24 -32 -57 -38 -24 -4 -26 -2 -22 25
3 21 1 28 -9 24 -7 -3 -11 -9 -8 -13 3 -5 0 -10 -6 -12 -12 -4 -33 -194 -23
-210 3 -4 10 -6 15 -3 5 4 9 0 9 -7 0 -7 12 -30 26 -51 21 -32 23 -41 13 -53
-7 -9 -23 -14 -36 -11 -13 2 -23 1 -23 -3 0 -12 28 -20 46 -13 14 5 16 1 11
-33 -4 -21 -4 -33 -1 -26 3 6 10 12 15 12 19 0 58 -55 59 -82 0 -16 5 -28 10
-28 6 0 10 5 10 11 0 5 5 7 10 4 14 -9 12 -65 -2 -65 -9 0 -9 -3 0 -12 7 -7
12 -25 12 -40 0 -21 -5 -28 -20 -28 -17 0 -20 -7 -20 -39 0 -22 5 -43 10 -46
6 -3 10 -17 10 -31 0 -13 5 -24 10 -24 6 0 10 5 10 10 0 6 5 10 10 10 6 0 10
-27 10 -60 0 -33 4 -60 10 -60 6 0 10 10 10 23 0 13 6 29 13 36 10 11 10 14 0
18 -7 3 -13 13 -13 24 0 14 7 19 25 19 19 0 25 -5 25 -22 0 -13 3 -39 6 -59 6
-34 4 -36 -27 -45 l-34 -10 30 -18 30 -17 -29 6 c-24 5 -27 3 -22 -10 3 -9 6
-18 6 -20 0 -1 34 11 74 28 41 17 72 35 69 40 -3 6 -1 7 5 3 7 -4 26 -1 44 7
18 8 67 29 108 47 41 17 93 40 114 51 22 10 41 17 43 15 5 -4 -135 -74 -200
-100 -21 -9 -36 -20 -32 -26 3 -6 0 -7 -9 -4 -17 7 -98 -35 -91 -47 3 -4 -5
-5 -17 -1 -16 4 -19 2 -13 -8 5 -8 4 -11 -3 -6 -6 3 -27 -2 -46 -11 -38 -19
-49 -39 -16 -28 29 9 25 -10 -6 -23 -35 -17 -30 -56 8 -60 27 -3 27 -3 21 -67
-3 -35 0 -115 7 -176 10 -85 10 -114 2 -117 -8 -2 -12 -29 -12 -73 0 -39 -4
-69 -10 -69 -5 0 -10 -4 -10 -10 0 -5 9 -10 20 -10 18 0 20 7 20 80 0 44 4 80
9 80 6 0 12 19 14 43 l4 42 1 -42 c1 -24 7 -43 12 -43 6 0 10 -18 10 -40 0
-22 -4 -40 -10 -40 -12 0 -13 -77 -1 -82 14 -5 26 -158 12 -158 -6 0 -11 9
-11 20 0 30 -16 24 -30 -10 -12 -28 -10 -32 14 -55 14 -13 26 -35 26 -48 0
-24 -29 -73 -30 -49 0 6 -4 12 -8 12 -5 0 -7 -35 -5 -77 2 -43 0 -105 -6 -138
l-10 -60 3 51 c3 50 2 50 -21 40 -18 -9 -23 -19 -23 -48 0 -27 4 -38 15 -38
11 0 15 -11 15 -40 0 -36 -2 -40 -25 -40 -21 0 -25 -5 -25 -29 0 -18 -6 -31
-17 -35 -15 -6 -15 -8 -3 -16 12 -8 13 -13 2 -27 -7 -10 -15 -26 -18 -35 -4
-10 -14 -18 -24 -18 -10 0 -21 -6 -23 -12 -4 -10 -6 -10 -6 0 -1 6 -5 12 -11
12 -6 0 -10 -30 -10 -69 0 -49 -4 -72 -15 -81 -9 -7 -15 -29 -15 -51 0 -30 -4
-39 -17 -39 -14 0 -15 -2 -5 -9 8 -4 13 -12 13 -17 -1 -5 3 -9 8 -9 5 0 13 -3
17 -7 4 -5 17 -8 29 -8 21 0 188 38 270 62 22 6 46 13 54 14 7 1 18 7 24 13 6
6 28 11 49 11 24 0 38 5 38 13 0 7 3 8 8 2 4 -5 16 -12 26 -13 18 -3 18 -2 5
14 -7 10 -9 15 -3 12 5 -4 28 -2 50 3 21 6 55 14 74 18 19 5 42 11 50 13 8 3
12 3 7 1 -4 -3 -7 -11 -7 -19 0 -8 -8 -14 -19 -14 -10 0 -45 -13 -77 -30 -32
-16 -66 -30 -74 -30 -8 0 -28 -9 -45 -20 -16 -11 -36 -20 -43 -20 -7 0 -31 -9
-55 -19 -84 -37 -178 -71 -200 -71 -19 -1 -18 -2 8 -13 17 -7 59 -21 95 -31
178 -50 308 -107 459 -199 l85 -52 -76 -3 c-73 -3 -78 -1 -174 47 -118 58
-207 91 -357 130 -164 43 -184 44 -236 14 -24 -14 -41 -21 -37 -15 3 5 -1 12
-8 15 -8 3 -16 1 -18 -4 -2 -7 -13 -7 -31 0 -17 7 -27 7 -27 1 0 -6 -9 -10
-20 -10 -12 0 -33 -6 -48 -14 -15 -8 -49 -17 -76 -21 -55 -9 -103 -30 -88 -39
6 -3 17 -3 26 0 9 3 16 1 16 -5 0 -12 -11 -14 -48 -11 -12 1 -22 -3 -22 -9 0
-6 -7 -11 -15 -11 -8 0 -15 -6 -15 -14 0 -27 -27 -35 -150 -42 -69 -5 -1124
-11 -2345 -14 -1221 -3 -1953 -6 -1628 -8 l593 -2 3 -187 2 -188 3 188 2 187
3385 0 3385 0 -2 -57 c-1 -51 -2 -53 -5 -15 -5 47 -1 46 -80 19 l-33 -11 -2
-76 c-2 -72 -2 -70 -8 30 -5 91 -6 80 -8 -87 l-2 -193 75 0 75 0 0 498 c0 273
0 1413 0 2532 0 1119 0 2245 0 2503 l0 467 -3992 0 -3991 0 6 -762z m1679 645
c26 -23 22 -40 -12 -58 -34 -18 -36 -26 -14 -60 19 -30 22 -112 4 -146 -25
-47 -119 -114 -136 -96 -3 2 17 48 42 101 26 53 45 99 42 101 -3 3 -31 -51
-63 -120 -53 -115 -88 -172 -70 -115 6 20 4 21 -22 16 -40 -8 -51 3 -55 54
l-3 45 -74 3 -73 3 7 37 c10 54 29 86 77 127 77 67 160 88 237 61 l43 -16 -7
46 -7 47 33 -7 c18 -3 41 -14 51 -23z m-989 -42 c4 -4 0 -65 -8 -137 -8 -71
-15 -130 -15 -131 0 -2 -9 -3 -21 -3 -15 0 -19 -5 -15 -18 14 -43 -82 -81
-154 -62 -77 21 -92 62 -30 88 22 9 40 20 40 23 0 4 -20 9 -45 12 -38 6 -55 2
-102 -23 -76 -38 -83 -32 -83 81 0 74 2 87 15 83 21 -8 19 13 -2 25 -17 9 -17
10 2 16 71 24 90 35 93 51 2 11 5 24 7 30 3 11 303 -21 318 -35z m697 -311 l0
-70 -72 0 -73 0 3 70 4 70 69 0 69 0 0 -70z m-946 -1026 c55 -8 103 -17 108
-20 4 -3 8 -54 8 -114 0 -62 4 -111 10 -115 6 -3 11 -34 12 -68 1 -42 3 -50 5
-24 4 35 23 54 23 22 0 -8 9 -15 20 -15 31 0 24 -19 -17 -43 -21 -12 -40 -22
-43 -22 -3 -1 -20 -9 -39 -19 -34 -18 -55 -22 -136 -29 -39 -3 -42 -1 -78 49
l-37 53 0 186 0 186 33 -6 c17 -3 77 -12 131 -21z"/>
<path d="M370 5805 c-6 -59 -11 -108 -9 -110 6 -6 272 -55 276 -51 2 2 6 28 9
57 3 32 2 49 -3 42 -6 -8 -27 -11 -58 -9 l-50 4 -18 74 c-10 40 -21 76 -25 79
-4 4 -30 9 -58 13 l-51 6 -13 -105z"/>
<path d="M3645 4094 c-112 -13 -152 -21 -170 -35 -6 -4 -33 -13 -60 -19 -28
-7 -69 -19 -91 -27 -46 -16 -42 -8 -94 -197 -28 -102 -29 -111 -14 -127 9 -10
21 -16 26 -13 22 14 58 87 58 118 0 28 4 35 22 38 26 3 48 42 55 97 5 39 26
68 60 88 16 9 37 9 88 1 49 -8 69 -8 74 0 17 28 162 46 187 23 5 -4 32 -16 59
-26 28 -10 56 -23 64 -29 19 -15 143 -66 159 -66 8 0 29 -7 48 -16 33 -16 36
-16 49 2 31 41 23 50 -115 120 -81 41 -139 60 -210 69 -30 4 -62 8 -70 9 -8 1
-64 -3 -125 -10z"/>
<path d="M3225 3124 c-33 -8 -95 -26 -138 -41 l-77 -27 -19 -65 c-84 -287
-133 -458 -136 -471 -2 -8 -17 -60 -34 -115 -34 -111 -37 -135 -18 -135 8 0
47 12 88 26 108 38 245 66 319 66 77 0 149 -7 170 -15 8 -4 45 -17 82 -31 38
-14 100 -44 138 -67 39 -23 73 -40 75 -37 2 2 11 31 18 64 10 43 11 61 3 62
-6 0 -20 3 -31 5 -99 24 -124 32 -147 44 -15 7 -31 14 -35 14 -5 0 -17 8 -27
17 -14 12 -20 14 -23 5 -4 -10 -12 -9 -35 3 -17 9 -27 11 -24 5 4 -7 -1 -11
-13 -11 -11 0 -23 -4 -26 -10 -8 -12 -25 -13 -25 -2 0 5 11 14 23 19 25 12 34
45 9 36 -10 -4 -10 -8 -2 -13 8 -5 6 -9 -5 -14 -10 -3 -23 -2 -30 4 -7 6 -25
8 -39 4 -22 -5 -25 -3 -21 16 2 13 2 20 -2 17 -3 -4 -15 -2 -27 4 -20 10 -20
10 -2 -5 26 -21 14 -31 -16 -14 -31 17 -39 31 -25 40 8 5 5 9 -8 14 -11 4 -24
9 -29 12 -5 3 -6 0 -2 -6 5 -8 -1 -12 -16 -11 -13 0 -18 3 -11 5 16 7 5 34
-13 34 -17 0 -17 2 -3 34 7 14 8 33 4 43 -5 10 -7 23 -5 28 2 6 2 38 1 73 -1
56 3 70 46 152 25 49 68 117 95 150 27 33 48 61 48 62 -1 2 2 11 6 21 3 10 5
19 3 21 -2 2 -31 -3 -64 -10z"/>
<path d="M232 2620 c7 -21 -9 -50 -28 -50 -10 0 -14 -6 -10 -15 3 -8 1 -15 -4
-15 -6 0 -10 18 -10 41 0 24 -4 38 -10 34 -15 -9 -12 -58 4 -80 14 -19 15 -19
34 -2 17 16 21 16 32 2 7 -8 19 -15 28 -15 8 0 24 -7 34 -17 17 -15 19 -15 38
2 17 16 38 18 148 17 86 0 129 3 134 11 12 18 9 49 -3 42 -6 -4 -8 -13 -5 -21
4 -10 -2 -14 -19 -14 -38 0 -42 28 -5 43 8 4 2 5 -15 4 -24 -2 -30 -6 -29 -24
1 -13 -3 -23 -7 -23 -5 0 -10 15 -10 33 -1 17 -3 24 -6 15 -2 -9 -14 -19 -26
-21 -22 -3 -22 -4 3 -15 l25 -12 -25 3 c-21 2 -25 7 -25 34 0 17 -3 34 -7 38
-10 10 -20 -32 -13 -55 4 -11 2 -20 -4 -20 -6 0 -11 18 -11 41 0 25 -4 38 -10
34 -6 -4 -8 -15 -5 -25 4 -14 0 -20 -17 -23 l-23 -4 25 -11 25 -12 -25 3 c-19
1 -26 8 -28 30 -2 15 -8 27 -13 27 -6 0 -7 -5 -4 -10 11 -17 -5 -50 -25 -50
-10 0 -21 -8 -23 -17 -3 -10 -5 3 -6 30 0 26 -5 47 -10 47 -4 0 -8 -8 -8 -17
0 -37 -4 -43 -22 -43 -35 0 -35 30 -1 43 12 4 11 6 -3 6 -10 1 -16 5 -13 10 3
5 -2 15 -11 22 -14 12 -15 12 -11 -1z"/>
<path d="M180 404 c-45 -20 -68 -41 -91 -86 -65 -127 53 -281 195 -254 80 15
147 98 145 181 0 33 -2 36 -10 20 -7 -16 -8 -14 -5 12 7 43 -27 92 -84 121
-51 25 -100 28 -150 6z m147 -14 c25 -11 51 -33 63 -52 23 -37 27 -63 6 -35
-10 13 -30 19 -66 21 -28 2 -56 8 -63 15 -19 19 -79 13 -105 -11 -14 -13 -22
-18 -19 -11 5 8 1 8 -18 0 -14 -7 -29 -23 -34 -37 -5 -14 -10 -18 -10 -10 -1
34 45 95 89 118 54 27 101 28 157 2z m-2 -174 c22 5 22 5 12 -35 -9 -34 -17
-43 -42 -50 -21 -7 -24 -10 -10 -10 11 -1 28 -8 38 -15 16 -13 15 -15 -14 -25
-40 -14 -77 -14 -117 0 l-31 10 21 25 c16 17 28 22 47 18 19 -4 22 -3 12 4
-12 9 -13 17 -3 51 12 38 14 40 38 31 14 -6 36 -7 49 -4z"/>
<path d="M945 338 c26 -20 26 -22 10 -35 -13 -9 -22 -10 -31 -2 -7 6 -25 9
-40 7 -21 -2 -38 -18 -72 -68 l-44 -64 27 -23 c14 -13 36 -23 48 -23 l21 0
-21 15 c-14 10 -19 22 -16 36 4 14 9 17 16 10 17 -17 31 -13 17 4 -20 24 -4
30 76 28 l74 -3 0 36 c0 28 -8 44 -34 70 -19 19 -40 34 -46 34 -7 0 0 -10 15
-22z"/>
<path d="M6336 297 c-14 -10 -16 -25 -14 -77 l3 -65 45 -1 45 -2 -40 7 -40 6
-3 55 c-3 43 1 57 14 67 21 15 44 17 44 3 0 -5 -11 -10 -25 -10 -24 0 -25 -3
-25 -55 l0 -55 35 0 c24 0 35 5 35 15 0 27 20 16 21 -12 2 -28 2 -28 6 -3 3
14 8 30 13 35 14 18 22 75 11 75 -6 0 -11 7 -11 15 0 19 -88 21 -114 2z"/>
<path d="M6573 304 c-15 -7 -18 -74 -3 -74 6 0 11 -19 11 -42 l2 -43 7 40 7
40 2 -37 1 -38 46 0 c60 0 74 15 74 83 l0 55 -47 5 c-27 2 -57 7 -68 10 -11 3
-26 4 -32 1z"/>
</g>
</svg>
