<?xml version="1.0" standalone="no"?>
<!DOCTYPE svg PUBLIC "-//W3C//DTD SVG 20010904//EN"
 "http://www.w3.org/TR/2001/REC-SVG-20010904/DTD/svg10.dtd">
<svg version="1.0" xmlns="http://www.w3.org/2000/svg"
 width="250.000000pt" height="201.000000pt" viewBox="0 0 250.000000 201.000000"
 preserveAspectRatio="xMidYMid meet">
<metadata>
Created by potrace 1.15, written by Peter Selinger 2001-2017
</metadata>
<g transform="translate(0.000000,201.000000) scale(0.100000,-0.100000)"
fill="#000000" stroke="none">
<path d="M0 1715 l0 -295 40 0 c22 0 40 -4 40 -9 0 -5 -18 -7 -40 -4 l-40 6 0
-57 c0 -31 2 -56 3 -56 2 0 18 7 36 16 18 9 35 14 38 11 9 -9 -7 -27 -25 -27
-9 0 -26 -8 -37 -17 -14 -11 -15 -14 -4 -10 10 3 37 11 60 17 24 7 51 15 59
17 8 3 43 6 78 7 35 1 66 6 70 12 7 11 95 44 116 44 5 0 2 -6 -9 -13 -16 -13
-14 -15 23 -21 23 -3 42 -11 42 -16 0 -14 -28 -12 -32 2 -3 7 -12 9 -23 5 -27
-11 -12 -19 42 -22 26 -2 53 -4 60 -4 7 -1 10 -8 7 -16 -7 -17 31 -22 41 -5 9
15 35 12 35 -4 0 -8 -14 -24 -30 -36 -17 -12 -28 -25 -25 -30 7 -12 -38 1 -48
14 -6 7 -7 4 -3 -6 4 -12 0 -18 -12 -19 -14 0 -14 -2 3 -9 16 -7 11 -9 -22 -9
-24 -1 -43 4 -45 11 -5 15 -76 14 -91 -1 -15 -15 -37 -14 -71 4 -21 11 -32 13
-40 5 -8 -8 -6 -9 5 -5 32 12 30 -16 -4 -56 -19 -22 -37 -53 -39 -69 -4 -27
-3 -28 46 -34 137 -16 506 -25 546 -14 14 4 9 1 -10 -8 -23 -11 -60 -16 -110
-16 -96 1 -529 31 -553 38 -16 5 -15 8 8 30 34 31 22 31 -16 0 -15 -13 -25
-27 -22 -30 4 -3 2 -6 -4 -6 -17 0 -43 -64 -43 -104 0 -34 1 -35 26 -26 32 13
37 12 29 0 -3 -5 2 -10 12 -11 16 0 16 -1 -2 -9 -11 -4 -31 -20 -45 -35 -14
-15 -21 -26 -15 -23 6 2 27 12 49 22 21 9 41 15 44 12 3 -3 0 -6 -6 -6 -7 0
-12 -5 -12 -11 0 -6 7 -8 16 -5 14 5 15 4 5 -8 -7 -8 -32 -22 -55 -31 -24 -9
-43 -23 -43 -31 0 -15 31 -11 55 9 25 20 112 56 112 46 0 -5 -8 -13 -18 -16
-30 -11 -82 -55 -76 -64 3 -5 -1 -9 -8 -9 -7 0 -26 -12 -43 -26 l-30 -25 42
22 c58 31 65 18 8 -15 -25 -15 -45 -33 -45 -41 0 -19 14 -19 29 -1 7 8 31 19
54 25 23 5 62 15 86 21 24 6 49 9 55 6 6 -2 2 -5 -8 -5 -30 -1 -126 -53 -120
-65 3 -6 -1 -3 -9 7 -12 15 -19 16 -41 6 -39 -18 -34 -39 9 -32 41 7 46 -8 10
-31 -28 -18 -39 -21 -30 -6 3 6 -1 7 -10 3 -12 -4 -13 -8 -5 -13 9 -6 9 -9 -1
-12 -8 -3 -11 -8 -8 -12 4 -4 21 2 39 13 18 10 39 17 47 14 8 -3 13 0 11 8 -2
9 5 13 19 12 11 -1 27 5 35 14 8 10 8 14 1 10 -8 -5 -11 0 -10 13 1 12 8 20
19 20 10 0 18 5 18 10 0 6 10 10 23 10 20 -1 20 -2 -7 -17 -27 -14 -28 -17
-13 -28 16 -11 15 -14 -8 -29 -14 -9 -25 -14 -25 -11 0 3 -28 -12 -63 -34 -34
-22 -63 -36 -65 -31 -2 6 -8 10 -14 10 -6 0 -8 -7 -4 -15 3 -8 1 -15 -4 -15
-6 0 -10 -13 -10 -30 0 -16 2 -30 5 -30 2 0 37 20 77 44 40 25 74 41 76 36 2
-6 12 -5 25 1 15 7 12 2 -8 -15 -16 -14 -37 -25 -46 -26 -9 0 -20 -7 -23 -16
-4 -10 -14 -14 -26 -11 -11 3 -18 1 -15 -3 8 -13 -31 -31 -52 -24 -15 5 -15 4
-3 -5 10 -7 11 -11 3 -11 -9 0 -13 -16 -13 -47 l0 -47 28 25 c15 14 50 39 77
55 100 59 118 66 95 39 -7 -8 -18 -15 -25 -15 -7 0 -18 -7 -25 -15 -7 -9 -37
-27 -66 -41 -37 -17 -51 -29 -47 -39 5 -16 25 -20 37 -8 3 4 15 7 26 8 20 2
20 1 2 -15 -10 -10 -28 -21 -40 -24 -12 -4 -22 -12 -22 -17 0 -5 -9 -9 -20 -9
-11 0 -20 -5 -20 -11 0 -5 6 -7 12 -3 10 6 10 4 0 -8 -16 -20 -15 -165 2 -175
6 -4 27 -8 46 -9 19 -1 52 -3 73 -5 24 -2 41 1 46 10 6 10 14 11 27 3 10 -6
27 -7 40 -2 12 5 25 6 28 3 10 -11 55 -12 61 -2 4 5 14 9 23 9 15 0 15 -2 2
-11 -12 -8 -10 -9 10 -7 20 2 25 -1 24 -20 -1 -21 2 -22 85 -20 47 0 71 3 53
5 -24 3 -32 9 -30 21 3 13 17 16 88 16 47 1 88 5 92 11 5 6 8 6 8 -2 0 -7 6
-10 13 -8 6 3 18 -4 25 -15 12 -19 10 -20 -45 -18 -32 1 -61 7 -65 13 -5 6 -8
5 -8 -3 0 -7 -4 -11 -9 -7 -5 3 -12 1 -16 -5 -4 -7 306 -10 954 -10 l961 0 0
589 c0 462 -3 590 -12 594 -10 4 -10 6 0 6 9 1 12 90 12 411 l0 410 -1250 0
-1250 0 0 -295z m2320 -130 c30 -7 81 -18 113 -25 63 -14 71 -30 39 -70 l-18
-22 -157 38 c-86 21 -157 42 -157 48 0 5 10 20 22 33 24 26 41 26 158 -2z
m-855 -124 c171 -49 349 -95 396 -104 145 -28 443 -115 398 -116 -22 -1 -224
45 -238 54 -11 6 -59 16 -93 18 -9 1 -14 5 -11 10 3 5 -4 6 -16 2 -13 -4 -21
-2 -21 6 0 8 -13 10 -40 6 -23 -3 -40 -1 -43 6 -2 6 -20 10 -40 9 -20 -1 -39
3 -42 8 -3 6 -20 10 -36 10 -17 0 -28 4 -25 9 4 5 -3 7 -14 4 -12 -3 -20 0
-20 7 0 7 -7 10 -17 6 -10 -4 -14 -4 -10 1 5 4 -11 13 -35 20 -70 19 -442 133
-453 138 -26 13 75 -13 360 -94z m715 55 c30 -7 83 -19 117 -26 59 -12 62 -14
60 -40 -1 -16 -5 -26 -8 -24 -3 2 -13 -12 -22 -31 -9 -19 -24 -35 -33 -35 -37
0 -264 65 -264 76 0 11 79 94 90 94 3 0 30 -6 60 -14z m-642 -231 c44 -14 88
-33 97 -41 22 -23 20 -95 -5 -122 -11 -12 -20 -25 -20 -30 0 -5 -11 -15 -25
-22 -13 -7 -22 -16 -20 -20 8 -13 -243 -243 -257 -234 -4 3 -8 0 -8 -5 0 -17
-120 -101 -144 -101 -39 0 -296 133 -296 153 0 12 31 51 103 127 89 95 204
190 357 294 64 44 82 44 218 1z m-11 -720 c60 -31 133 -74 164 -97 54 -40 55
-43 49 -77 -9 -43 -30 -92 -47 -106 -6 -5 -82 -63 -167 -128 -150 -114 -157
-118 -183 -107 -35 16 -213 258 -213 290 0 5 -9 24 -20 42 -31 52 -26 73 28
113 67 50 219 125 253 125 16 0 77 -25 136 -55z"/>
</g>
</svg>
