<?xml version="1.0" standalone="no"?>
<!DOCTYPE svg PUBLIC "-//W3C//DTD SVG 20010904//EN"
 "http://www.w3.org/TR/2001/REC-SVG-20010904/DTD/svg10.dtd">
<svg version="1.0" xmlns="http://www.w3.org/2000/svg"
 width="430.000000pt" height="337.000000pt" viewBox="0 0 430.000000 337.000000"
 preserveAspectRatio="xMidYMid meet">
<metadata>
Created by potrace 1.15, written by Peter Selinger 2001-2017
</metadata>
<g transform="translate(0.000000,337.000000) scale(0.100000,-0.100000)"
fill="#000000" stroke="none">
<path d="M1020 3360 c0 -5 6 -7 14 -4 10 4 13 -7 13 -46 0 -38 -3 -50 -13 -46
-7 3 -15 -2 -18 -10 -9 -25 -7 -27 19 -20 28 7 35 -11 8 -20 -10 -3 -25 -9
-33 -13 -9 -5 -19 -2 -27 8 -11 15 -12 15 -13 0 0 -9 9 -23 20 -30 20 -15 32
-64 15 -64 -5 0 -10 6 -10 14 0 8 -6 16 -13 19 -15 5 -42 -16 -42 -32 0 -6 4
-4 10 4 26 41 32 -55 11 -157 -10 -45 -18 -63 -32 -66 -11 -3 -19 -14 -19 -26
0 -12 -5 -21 -10 -21 -6 0 -16 -5 -23 -10 -46 -39 -61 -50 -69 -50 -4 0 -8 -5
-8 -11 0 -6 8 -8 18 -5 9 3 23 2 31 -3 12 -8 12 -12 -2 -25 -8 -9 -22 -16 -30
-16 -9 0 -17 -4 -19 -9 -1 -5 -17 -12 -34 -15 -26 -6 -37 -2 -56 17 -43 43
-88 60 -88 33 0 -8 -16 -16 -40 -20 -22 -3 -40 -11 -40 -16 0 -17 -77 -12 -84
5 -3 8 -17 15 -31 15 -22 0 -25 -4 -25 -39 0 -39 0 -40 -45 -47 -43 -6 -45 -8
-45 -40 0 -27 -4 -34 -20 -34 -13 0 -20 -7 -20 -19 0 -16 -9 -20 -51 -23 -39
-2 -53 1 -56 12 -3 8 -9 24 -15 36 -5 12 -9 36 -7 55 2 19 -3 53 -10 77 -8 29
-9 47 -2 56 6 7 6 17 1 26 -8 12 -10 10 -10 -7 0 -41 -17 -24 -24 23 -8 63 -8
76 3 70 18 -11 30 21 28 72 -1 29 -5 52 -9 52 -13 0 -9 22 7 40 12 13 12 21 1
55 -17 49 -43 68 -57 43 -6 -11 -22 -18 -39 -18 l-30 0 0 -1246 0 -1246 30 7
c17 4 30 2 30 -3 0 -18 65 -20 145 -4 44 9 82 19 85 22 7 9 53 6 68 -3 16 -11
16 -47 -1 -47 -7 0 -19 -6 -25 -12 -7 -7 -20 -13 -30 -13 -9 0 -17 -7 -17 -15
0 -8 -9 -16 -20 -18 -11 -3 -24 -10 -28 -18 -4 -8 -15 -14 -23 -14 -8 0 -28
-10 -44 -21 l-28 -21 -40 38 c-22 22 -47 51 -57 67 -9 15 -24 27 -31 27 -12 0
-14 -52 -14 -305 l0 -305 760 0 760 0 1 558 c1 306 4 570 8 586 6 28 8 29 79
33 67 4 72 3 72 -16 0 -11 -5 -32 -10 -47 -13 -34 2 -54 41 -54 25 0 29 -4 29
-29 0 -30 -18 -41 -71 -41 -32 0 -67 -24 -51 -34 18 -11 14 -34 -8 -56 -19
-19 -19 -29 -11 -384 5 -200 12 -369 16 -376 4 -6 1 -17 -5 -25 -17 -20 -5
-45 20 -45 18 0 20 4 14 23 -4 12 -6 195 -6 406 l1 384 31 15 c26 13 41 13
100 3 45 -8 103 -10 167 -6 113 8 116 6 127 -65 4 -24 11 -49 15 -55 5 -5 5
-39 0 -75 -5 -36 -8 -144 -7 -240 1 -96 -2 -202 -6 -235 -18 -158 -18 -147 7
-140 l22 7 -20 -20 c-43 -44 -47 -52 -30 -52 8 0 15 -4 15 -10 0 -15 57 -12
63 3 4 9 6 9 6 0 1 -10 94 -13 434 -12 237 1 415 5 394 9 -50 9 -55 17 -21 30
31 12 32 12 114 -19 48 -18 77 -21 222 -21 l168 0 0 40 c0 27 -5 43 -15 46
-23 9 -19 44 6 44 12 0 23 8 26 20 8 32 41 35 71 7 15 -13 33 -22 39 -20 16 6
29 -25 16 -38 -14 -14 -61 0 -65 19 -5 24 -38 -39 -38 -73 0 -31 13 -32 33 -1
13 20 22 23 58 20 51 -4 62 2 48 27 -12 24 3 49 31 49 10 0 28 11 41 25 14 14
35 25 51 25 15 0 29 4 32 9 3 5 15 7 26 4 27 -7 25 10 -2 22 -13 6 -23 17 -23
25 -1 8 -8 26 -16 40 -18 29 -18 102 0 124 10 12 9 16 -6 25 -16 10 -16 10 4
11 12 0 34 -12 48 -27 20 -22 24 -34 19 -59 -7 -40 7 -50 47 -30 23 11 47 14
89 9 70 -7 138 8 188 42 35 24 62 24 43 1 -6 -7 -12 -32 -15 -55 -4 -49 -8
-55 -44 -57 -74 -3 -72 -2 -72 -39 0 -23 5 -35 14 -35 9 0 12 7 9 21 -7 25 15
43 34 27 7 -6 13 -19 13 -29 0 -10 6 -22 14 -26 7 -4 16 -27 19 -49 6 -35 4
-42 -12 -47 -11 -2 -24 -23 -34 -51 l-16 -46 100 0 99 0 0 49 c0 27 -5 51 -10
53 -6 2 -7 14 -2 33 14 51 16 432 2 419 -6 -6 -12 -32 -13 -58 -2 -56 -22 -56
-23 1 0 22 -4 45 -8 52 -5 8 -1 14 12 18 18 4 19 7 5 34 -12 23 -12 33 -3 44
6 8 9 19 5 25 -4 7 2 14 14 17 27 7 27 31 0 35 -20 3 -20 3 2 27 13 14 18 26
12 30 -6 3 -10 17 -9 31 1 14 0 29 -3 35 -11 21 -6 105 7 105 9 0 12 58 12
259 l0 259 -25 -11 c-19 -9 -24 -17 -20 -32 13 -48 15 -71 6 -85 -17 -25 -32
3 -35 64 -2 31 -6 59 -9 63 -4 3 -7 17 -7 30 0 16 -5 23 -12 20 -7 -2 -11 -11
-9 -18 2 -8 5 -42 7 -77 2 -68 25 -112 56 -112 12 0 18 -8 18 -21 0 -17 -3
-19 -14 -10 -10 9 -16 9 -21 1 -7 -11 5 -117 27 -252 8 -46 8 -71 1 -80 -6 -7
-13 -51 -17 -98 -14 -176 -18 -205 -28 -217 -5 -7 -7 -21 -3 -32 9 -28 -14
-37 -31 -12 -8 11 -36 33 -62 48 -41 25 -57 28 -133 28 -79 0 -89 -2 -139 -33
-29 -18 -55 -30 -58 -28 -3 3 2 38 11 78 13 59 24 152 32 263 0 6 4 16 8 22
11 18 5 374 -6 401 -7 15 -7 30 0 45 10 22 -3 104 -24 157 -9 22 -9 20 -17 85
-6 40 -16 68 -31 85 -12 14 -35 53 -50 87 -16 37 -34 63 -46 66 -10 3 -19 12
-19 21 0 9 -4 16 -10 16 -5 0 -22 14 -37 31 -15 16 -44 40 -65 51 -21 12 -45
32 -53 45 -9 13 -21 23 -29 23 -7 0 -21 9 -30 19 -9 10 -29 21 -44 24 -56 11
-105 35 -131 66 -15 17 -32 31 -38 31 -6 0 -9 9 -6 20 6 24 1 25 -38 4 -36
-18 -44 -14 -35 20 7 29 49 46 115 46 52 0 150 -23 190 -45 14 -8 69 -35 121
-60 139 -67 176 -87 205 -112 14 -13 29 -23 34 -23 5 0 51 -41 103 -92 51 -50
102 -97 113 -103 11 -6 21 -19 23 -30 2 -11 10 -25 18 -31 8 -7 18 -29 21 -50
8 -52 32 -84 58 -78 13 3 24 -2 33 -16 7 -12 8 -20 2 -20 -26 0 -6 -18 25 -23
19 -3 47 -15 62 -26 14 -12 30 -21 34 -21 5 0 9 305 9 681 l0 681 -87 -7 c-49
-4 -90 -11 -91 -16 -3 -6 -9 -5 -17 1 -9 7 -81 7 -246 0 -199 -10 -236 -14
-247 -28 -10 -13 -15 -14 -21 -4 -9 15 -22 2 -34 -30 -8 -22 -45 -24 -53 -3
-3 8 1 22 10 30 23 23 20 35 -8 35 -21 0 -25 6 -32 43 -5 23 -8 48 -7 55 1 19
-14 14 -42 -14 -17 -17 -24 -32 -20 -45 5 -14 0 -20 -19 -25 -14 -3 -33 -3
-42 0 -9 3 -131 -1 -273 -9 -141 -9 -296 -18 -346 -20 -49 -3 -126 -7 -170 -9
-71 -4 -77 -3 -51 8 23 11 25 14 12 19 -16 6 -16 9 1 37 9 16 20 30 23 30 4 0
15 8 26 18 19 17 85 22 284 21 74 0 408 29 492 43 89 15 168 5 191 -23 22 -28
22 -46 -2 -54 -17 -5 -36 -33 -29 -40 4 -4 40 -7 64 -6 20 1 21 8 27 159 4 86
9 181 13 210 6 43 4 52 -9 52 -8 0 -18 -6 -20 -12 -4 -10 -6 -10 -6 0 -1 9
-143 12 -676 12 l-675 0 -17 -35 c-13 -27 -14 -40 -5 -59 6 -14 8 -27 3 -30
-10 -6 -122 11 -456 70 -264 48 -275 49 -497 51 -140 2 -228 -1 -228 -7z
m1520 -338 c0 -4 -12 -15 -28 -24 -29 -18 -72 -88 -72 -119 0 -10 -4 -19 -10
-19 -5 0 -10 5 -10 11 0 5 -4 8 -10 4 -5 -3 -6 -13 -3 -22 5 -13 1 -15 -23 -9
-16 4 -33 14 -37 22 -6 11 -28 14 -85 13 -69 -1 -159 4 -172 11 -3 1 -20 1
-38 0 -18 -1 -44 6 -57 14 -21 14 -24 14 -19 1 4 -8 -1 -25 -9 -38 -12 -19
-12 -26 -2 -40 15 -21 25 -22 25 -2 0 8 9 15 20 15 24 0 27 -15 4 -24 -27 -11
10 -36 53 -36 72 0 110 11 121 34 8 19 17 22 53 19 24 -2 50 -5 57 -8 15 -6
16 7 0 23 -9 9 -7 12 9 12 12 0 28 -7 37 -15 8 -8 19 -15 25 -15 6 0 15 -8 20
-19 6 -10 26 -21 45 -24 41 -6 58 -14 326 -138 152 -71 157 -76 84 -85 -22 -2
-33 -2 -26 2 15 7 16 24 0 24 -23 0 -88 -82 -88 -112 0 -15 -4 -28 -10 -28 -5
0 -10 11 -10 24 0 19 -7 26 -32 31 -18 4 -40 13 -48 20 -8 8 -38 22 -66 34
-28 11 -71 28 -95 39 -129 55 -228 73 -300 55 -49 -12 -139 -1 -154 20 -15 21
-34 22 -60 3 -32 -22 -74 -25 -108 -8 -39 19 -95 16 -121 -6 -18 -16 -19 -16
-13 1 4 10 7 22 7 26 0 20 80 60 141 71 67 12 119 34 68 28 -38 -4 -59 18 -59
62 0 68 63 132 129 132 14 1 71 5 126 10 420 41 415 41 415 30z m-720 -7 c0
-10 -26 -51 -48 -77 -13 -14 -24 -30 -24 -35 -1 -16 -21 -53 -30 -53 -4 0 -8
9 -8 20 0 11 5 20 10 20 22 0 8 20 -17 26 -32 8 -63 36 -63 58 0 19 73 44 133
45 26 1 47 -1 47 -4z m-237 -100 c24 -6 27 -11 27 -53 0 -37 -5 -51 -24 -67
-13 -11 -27 -30 -31 -43 -6 -21 -4 -22 19 -16 24 6 26 4 26 -25 0 -17 1 -34 3
-38 1 -3 -22 -7 -51 -7 l-54 -1 7 30 c9 35 9 41 -4 125 -13 86 -7 108 27 105
15 -1 39 -6 55 -10z m1576 -409 c6 -7 22 -11 36 -8 36 6 33 -23 -4 -36 -46
-16 -95 -74 -142 -166 l-43 -87 -41 2 c-23 2 -46 -1 -53 -5 -8 -5 -10 -2 -6 8
7 19 8 19 -35 6 -23 -6 -39 -6 -47 1 -9 7 -16 5 -24 -11 -6 -11 -16 -18 -21
-14 -7 4 -7 10 0 17 18 18 13 36 -10 30 -19 -5 -20 -3 -13 48 14 103 104 199
209 222 50 11 183 7 194 -7z m-1596 -676 c30 0 36 -15 44 -96 11 -115 -11
-183 -64 -199 -29 -8 -31 3 -38 173 -5 140 -5 143 14 132 11 -5 31 -10 44 -10z
m418 -700 c14 -8 19 -22 20 -53 l0 -42 16 33 c9 17 20 32 25 32 4 0 8 -15 8
-32 0 -18 3 -57 6 -85 6 -45 4 -54 -11 -59 -10 -4 -25 -2 -35 4 -10 6 -34 14
-54 17 -45 9 -46 21 -1 42 38 18 48 39 14 30 -25 -7 -102 31 -96 47 2 6 13 10
23 9 10 -1 26 0 34 3 12 5 12 8 -4 20 -18 12 -18 14 -3 14 10 0 20 7 23 15 7
18 9 18 35 5z m2119 -504 c49 -23 90 -75 90 -113 0 -44 -28 -91 -71 -120 -39
-26 -50 -28 -151 -30 -104 -1 -108 -1 -108 20 0 11 -10 31 -21 43 -26 28 -35
99 -17 133 7 13 30 38 50 54 61 49 143 54 228 13z"/>
</g>
</svg>
