<?xml version="1.0" encoding="UTF-8"?>
<svg id="svg8" width="500" height="300" version="1.0" viewBox="0 0 375 225" xmlns="http://www.w3.org/2000/svg">
	<g id="mouse">
		<path id="path4" d="m177.46 7.0659c-3.4098 1.371-10.861 5.7331-16.417 9.5967l-10.103 7.104-27.783 0.12463c-31.572 0.12463-41.927 1.9941-57.334 9.9706-11.492 5.9823-22.858 17.075-22.858 22.185 0 3.3651 2.1469 2.4926 5.0515-2.2434 6.3144-10.095 20.964-19.193 37.886-23.68 9.3453-2.4926 54.935-4.2375 56.956-2.2434 0.63144 0.62316-3.2835 4.8607-10.103 10.594-18.69 15.953-24.879 25.176-22.732 34.398 1.5154 6.8548 9.3453 16.825 27.657 35.769 24.626 25.176 46.095 51.473 68.195 84.002 10.482 15.205 10.987 15.828 19.575 20.066 8.5875 4.2375 9.219 4.8756 23.363 5.6751 12.436-0.92422 15.66-1.9362 21.343-4.1795 10.103-4.2375 21.216-12.339 28.036-20.814 7.8298-9.3474 9.5978-13.336 11.997-25.3 5.1778-25.674-4.0412-57.082-25.131-85.498-14.523-19.692-57.082-57.455-80.571-71.539-10.987-6.6055-17.806-7.6026-27.025-3.9882zm20.837 3.1158c6.6932 3.3651 31.951 21.811 42.18 30.784l6.1881 5.4838-6.8195 5.1099c-14.902 11.466-14.144 10.594-12.755 17.199 2.1469 9.7213 0.88401 10.095-7.5772 2.4926-4.1675-3.739-9.7241-8.1011-12.502-9.7213-3.7886-2.1187-4.9252-3.4897-4.9252-6.2316 0-4.4868-9.0927-14.333-16.796-18.072-3.0309-1.4956-8.4612-2.8665-11.871-3.1158-3.9149-0.24926-7.7035-1.371-10.103-3.1158-2.1469-1.4956-5.4304-3.2404-7.3247-3.9882l-3.536-1.371 9.9767-6.9794c17.933-12.463 24.752-14.083 35.866-8.475zm-37.255 22.06c3.1572 1.9941 4.42 3.739 4.42 6.107 0 3.6143 4.0412 7.8518 16.922 17.199 7.8298 5.8577 9.0927 6.4809 14.649 6.2316 5.4304-0.24926 6.9458 0.24926 12.881 4.736 3.6623 2.7419 8.9664 7.104 11.745 9.472 4.9252 4.4868 5.0515 4.4868 1.768 4.6114-1.8943 0-5.4304-0.87243-7.8298-1.8695-2.5257-0.99706-5.1778-1.8695-5.8092-1.8695s-10.861 8.7243-22.732 19.318c-11.871 10.594-22.227 19.318-22.984 19.318-1.8943 0-37.76-28.79-43.19-34.897-5.8092-6.2316-8.9664-12.962-7.9561-16.95s15.281-18.819 27.152-28.167c10.482-8.2257 12.502-8.5996 20.964-3.2404zm22.984 6.6055c12.376 6.107 21.09 19.069 14.27 21.187-3.7886 1.2463-7.3246-0.3739-17.049-7.4779-11.24-8.3504-15.028-12.463-14.144-14.831 1.2629-3.1158 9.5978-2.4926 16.922 1.1217zm80.571 24.553c16.67 16.95 24.5 27.294 32.835 43.995 10.734 21.312 14.27 41.627 10.734 60.571-4.2938 22.309-27.025 43.123-51.525 47.236-11.24 1.8695-20.711 0.24927-31.698-5.2346l-7.9561-4.1129-4.7989-14.457c-8.8401-26.547-21.974-49.479-37.886-65.806-7.4509-7.6026-7.7035-8.1011-5.4304-10.095 1.2629-1.1217 10.861-9.7213 21.469-19.193l19.196-17.075 6.9458 2.1187c6.5669 1.9941 7.0721 1.9941 10.356-0.12463 3.2835-1.9941 3.2835-2.4926 2.652-10.095l-0.75773-7.8518 9.4715-7.6026c7.3247-5.7331 9.9767-7.2287 11.618-6.3562 1.1366 0.62316 7.8298 6.9794 14.776 14.083zm-118.71 41.503c29.172 22.683 40.664 35.769 53.546 61.319 5.9355 11.715 14.397 33.401 11.113 28.541-18.69-27.918-49.252-65.806-71.605-88.613-9.3453-9.5967-18.438-19.443-20.206-21.811-2.9046-4.2375-2.7783-4.1129 3.2835 1.2463 3.4098 3.1158 14.144 11.715 23.868 19.318z" style="stroke-width:.12546"/>
		<path id="path27" transform="scale(.75)" d="m331.51 65.8c-5.2704 1.3213-9.2295 5.555-13.59 8.5676-4.1819 3.6109-9.1272 6.5686-12.612 10.881 0.11005 6.3885 2.0276 12.863 0.88372 19.23-1.2994 3.3578-5.0807 5.3405-8.4667 5.9402-6.3538 0.12493-12.106-3.4419-18.311-4.1401-4.095 2.9422-7.6624 6.7587-11.569 10.007-14.062 12.711-28.533 24.99-42.283 38.036-1.2288 0.94863-2.3523 2.5711-1.0486 3.9666 6.1919 7.6956 13.626 14.337 19.609 22.23 18.811 23.728 31.623 51.623 40.862 80.315 1.4986 4.4993 2.9705 9.0121 4.4791 13.505 9.9901 4.9091 19.84 10.661 30.998 12.431 9.6639 1.8774 19.738 0.6358 29.205-1.7357 23.992-6.9168 45.254-23.997 56.145-46.59 5.0091-10.222 6.5213-21.701 6.2446-32.978 0.4516-11.407-1.2382-22.781-4.4969-33.701-8.7236-29.393-25.158-56.272-46.504-78.202-8.9751-9.1657-17.564-18.831-27.543-26.926-0.60169-0.36802-1.2467-0.92197-2.0021-0.83727z" style="fill-rule:evenodd;fill:#999;opacity:.652"/>
		<path id="path29" transform="scale(.75)" d="m158.55 111.14c-0.81274 0.77514 1.0613 2.0809 1.3978 2.8429 17.289 19.628 36.244 37.738 53.164 57.705 23.354 27 45.243 55.263 65.661 84.543 0.19457 0.4755 2.069 2.5094 1.8611 0.86394-9.3866-25.823-21.227-51.185-38.455-72.772-19.795-24.391-46.043-42.158-70.004-62.077-4.6537-3.5469-8.9448-7.666-13.625-11.105z" style="fill-rule:evenodd;fill:#999;opacity:.652"/>
	</g>
	<g id="clic-izquierdo">
		<path id="clic-" transform="scale(.75)" d="m202.96 38.341c-4.7308 0.35368-8.5966 3.5356-12.331 6.1524-12.221 9.2057-23.318 19.846-33.553 31.199-2.4061 2.9259-5.1706 5.7915-6.4488 9.4242-0.74435 5.0797 1.7348 9.8565 4.2757 14.063 5.7771 9.0873 14.461 15.736 22.511 22.683 12.396 10.272 24.865 20.487 37.898 29.945 1.161 0.68431 2.2646 1.8067 3.6147 2.0054 4.2122-2.7408 7.8934-6.2325 11.777-9.4127 15.685-13.298 30.677-27.409 46.639-40.376 1.0869-0.61771 1.9929-2.2229 3.3559-1.4499 6.1646 1.6664 12.097 5.1294 18.662 4.712 0.49904-0.0125 1.8691-0.28227 1.1391-0.99964-4.2245-4.5376-9.1981-8.3102-13.967-12.252-4.7046-3.5802-9.185-7.5828-14.464-10.312-3.442-1.744-7.4359-0.98955-11.139-1.303-2.8672-0.0072-5.8545-0.2059-8.3407-1.7973-5.9504-3.5034-11.318-7.9131-16.853-12.023-4.8136-3.8826-10.033-7.5573-13.558-12.733-1.6946-2.2244-1.4692-5.112-2.2806-7.6522-1.7383-3.4692-5.4998-5.1965-8.6343-7.1617-2.5444-1.4-5.3257-2.7604-8.3016-2.71z" style="fill-rule:evenodd;fill:#0f0"/>
	</g>
	<g id="scroll">
		<path id="g" transform="scale(.75)" d="m229.09 47.831c-2.2357-0.03459-5.2298 0.23648-6.1658 2.646-0.46804 2.7004 1.8155 4.8386 3.4483 6.668 6.7429 6.7143 14.483 12.343 22.313 17.714 3.7821 2.3629 7.6785 5.1079 12.234 5.5767 2.4778 0.06544 5.6148-0.72542 6.4022-3.4094 0.64097-3.3982-1.3732-6.5865-3.145-9.3117-6.4095-8.878-15.877-15.495-26.336-18.681-2.8324-0.897-5.7871-1.2424-8.7512-1.2026z" style="fill-rule:evenodd;fill:#f0f"/>
	</g>
	<g id="clic-derecho">
		<path id="clicd" transform="scale(.75)" d="m249.81 9.6589c-7.3358-0.12539-14.025 3.4461-20.236 6.9507-8.7938 5.2124-17.086 11.226-25.375 17.195-0.85189 0.43323 0.53225 0.71854 0.81452 0.92111 4.9435 1.8057 9.5919 4.3074 13.962 7.2256 6.0743 3.7261 13.469 2.9821 20.112 4.8644 5.1823 1.2017 10.124 3.4062 14.35 6.6523 5.3692 4.1367 10.421 8.8991 14.032 14.681 1.3563 2.02 2.0053 4.3727 2.1867 6.7782 0.42328 3.4229 3.5829 5.3875 6.2952 6.9702 7.9035 4.9751 14.734 11.392 21.905 17.319 1.5218 1.0191 3.0292 2.6681 4.9836 2.6459 1.4209-0.51693 0.92362-2.4507 0.93186-3.6187-0.24703-4.3208-1.9628-8.4797-1.8371-12.815 0.48657-3.3587 3.6465-5.3595 5.9584-7.4712 6.653-5.5848 13.807-10.543 20.538-16.02-2.9352-3.1136-6.3612-5.8221-9.5747-8.6742-13.423-11.267-27.57-21.652-41.957-31.65-7.4052-4.9728-15.004-10.536-24.072-11.822-1.0013-0.10767-2.0097-0.14139-3.0165-0.13325z" style="fill-rule:evenodd;fill:#f00"/>
	</g>
</svg>
